<?xml version="1.0" encoding="utf-8" standalone="no"?>
<!DOCTYPE svg PUBLIC "-//W3C//DTD SVG 1.1//EN"
  "http://www.w3.org/Graphics/SVG/1.1/DTD/svg11.dtd">
<!-- Created with matplotlib (https://matplotlib.org/) -->
<svg height="720pt" version="1.1" viewBox="0 0 936 720" width="936pt" xmlns="http://www.w3.org/2000/svg" xmlns:xlink="http://www.w3.org/1999/xlink">
 <defs>
  <style type="text/css">
*{stroke-linecap:butt;stroke-linejoin:round;}
  </style>
 </defs>
 <g id="figure_1">
  <g id="patch_1">
   <path d="M 0 720 
L 936 720 
L 936 0 
L 0 0 
z
" style="fill:#ffffff;"/>
  </g>
  <g id="axes_1">
   <g id="patch_2">
    <path d="M 117 630 
L 842.4 630 
L 842.4 86.4 
L 117 86.4 
z
" style="fill:#ffffff;"/>
   </g>
   <g id="matplotlib.axis_1">
    <g id="xtick_1">
     <g id="line2d_1">
      <defs>
       <path d="M 0 0 
L 0 3.5 
" id="m4d7aa5d0b5" style="stroke:#000000;stroke-width:0.8;"/>
      </defs>
      <g>
       <use style="stroke:#000000;stroke-width:0.8;" x="149.972727" xlink:href="#m4d7aa5d0b5" y="630"/>
      </g>
     </g>
     <g id="text_1">
      <!-- 0 -->
      <defs>
       <path d="M 31.78125 66.40625 
Q 24.171875 66.40625 20.328125 58.90625 
Q 16.5 51.421875 16.5 36.375 
Q 16.5 21.390625 20.328125 13.890625 
Q 24.171875 6.390625 31.78125 6.390625 
Q 39.453125 6.390625 43.28125 13.890625 
Q 47.125 21.390625 47.125 36.375 
Q 47.125 51.421875 43.28125 58.90625 
Q 39.453125 66.40625 31.78125 66.40625 
z
M 31.78125 74.21875 
Q 44.046875 74.21875 50.515625 64.515625 
Q 56.984375 54.828125 56.984375 36.375 
Q 56.984375 17.96875 50.515625 8.265625 
Q 44.046875 -1.421875 31.78125 -1.421875 
Q 19.53125 -1.421875 13.0625 8.265625 
Q 6.59375 17.96875 6.59375 36.375 
Q 6.59375 54.828125 13.0625 64.515625 
Q 19.53125 74.21875 31.78125 74.21875 
z
" id="DejaVuSans-48"/>
      </defs>
      <g transform="translate(146.791477 644.598438)scale(0.1 -0.1)">
       <use xlink:href="#DejaVuSans-48"/>
      </g>
     </g>
    </g>
    <g id="xtick_2">
     <g id="line2d_2">
      <g>
       <use style="stroke:#000000;stroke-width:0.8;" x="243.233683" xlink:href="#m4d7aa5d0b5" y="630"/>
      </g>
     </g>
     <g id="text_2">
      <!-- 10 -->
      <defs>
       <path d="M 12.40625 8.296875 
L 28.515625 8.296875 
L 28.515625 63.921875 
L 10.984375 60.40625 
L 10.984375 69.390625 
L 28.421875 72.90625 
L 38.28125 72.90625 
L 38.28125 8.296875 
L 54.390625 8.296875 
L 54.390625 0 
L 12.40625 0 
z
" id="DejaVuSans-49"/>
      </defs>
      <g transform="translate(236.871183 644.598438)scale(0.1 -0.1)">
       <use xlink:href="#DejaVuSans-49"/>
       <use x="63.623047" xlink:href="#DejaVuSans-48"/>
      </g>
     </g>
    </g>
    <g id="xtick_3">
     <g id="line2d_3">
      <g>
       <use style="stroke:#000000;stroke-width:0.8;" x="336.49464" xlink:href="#m4d7aa5d0b5" y="630"/>
      </g>
     </g>
     <g id="text_3">
      <!-- 20 -->
      <defs>
       <path d="M 19.1875 8.296875 
L 53.609375 8.296875 
L 53.609375 0 
L 7.328125 0 
L 7.328125 8.296875 
Q 12.9375 14.109375 22.625 23.890625 
Q 32.328125 33.6875 34.8125 36.53125 
Q 39.546875 41.84375 41.421875 45.53125 
Q 43.3125 49.21875 43.3125 52.78125 
Q 43.3125 58.59375 39.234375 62.25 
Q 35.15625 65.921875 28.609375 65.921875 
Q 23.96875 65.921875 18.8125 64.3125 
Q 13.671875 62.703125 7.8125 59.421875 
L 7.8125 69.390625 
Q 13.765625 71.78125 18.9375 73 
Q 24.125 74.21875 28.421875 74.21875 
Q 39.75 74.21875 46.484375 68.546875 
Q 53.21875 62.890625 53.21875 53.421875 
Q 53.21875 48.921875 51.53125 44.890625 
Q 49.859375 40.875 45.40625 35.40625 
Q 44.1875 33.984375 37.640625 27.21875 
Q 31.109375 20.453125 19.1875 8.296875 
z
" id="DejaVuSans-50"/>
      </defs>
      <g transform="translate(330.13214 644.598438)scale(0.1 -0.1)">
       <use xlink:href="#DejaVuSans-50"/>
       <use x="63.623047" xlink:href="#DejaVuSans-48"/>
      </g>
     </g>
    </g>
    <g id="xtick_4">
     <g id="line2d_4">
      <g>
       <use style="stroke:#000000;stroke-width:0.8;" x="429.755596" xlink:href="#m4d7aa5d0b5" y="630"/>
      </g>
     </g>
     <g id="text_4">
      <!-- 30 -->
      <defs>
       <path d="M 40.578125 39.3125 
Q 47.65625 37.796875 51.625 33 
Q 55.609375 28.21875 55.609375 21.1875 
Q 55.609375 10.40625 48.1875 4.484375 
Q 40.765625 -1.421875 27.09375 -1.421875 
Q 22.515625 -1.421875 17.65625 -0.515625 
Q 12.796875 0.390625 7.625 2.203125 
L 7.625 11.71875 
Q 11.71875 9.328125 16.59375 8.109375 
Q 21.484375 6.890625 26.8125 6.890625 
Q 36.078125 6.890625 40.9375 10.546875 
Q 45.796875 14.203125 45.796875 21.1875 
Q 45.796875 27.640625 41.28125 31.265625 
Q 36.765625 34.90625 28.71875 34.90625 
L 20.21875 34.90625 
L 20.21875 43.015625 
L 29.109375 43.015625 
Q 36.375 43.015625 40.234375 45.921875 
Q 44.09375 48.828125 44.09375 54.296875 
Q 44.09375 59.90625 40.109375 62.90625 
Q 36.140625 65.921875 28.71875 65.921875 
Q 24.65625 65.921875 20.015625 65.03125 
Q 15.375 64.15625 9.8125 62.3125 
L 9.8125 71.09375 
Q 15.4375 72.65625 20.34375 73.4375 
Q 25.25 74.21875 29.59375 74.21875 
Q 40.828125 74.21875 47.359375 69.109375 
Q 53.90625 64.015625 53.90625 55.328125 
Q 53.90625 49.265625 50.4375 45.09375 
Q 46.96875 40.921875 40.578125 39.3125 
z
" id="DejaVuSans-51"/>
      </defs>
      <g transform="translate(423.393096 644.598438)scale(0.1 -0.1)">
       <use xlink:href="#DejaVuSans-51"/>
       <use x="63.623047" xlink:href="#DejaVuSans-48"/>
      </g>
     </g>
    </g>
    <g id="xtick_5">
     <g id="line2d_5">
      <g>
       <use style="stroke:#000000;stroke-width:0.8;" x="523.016552" xlink:href="#m4d7aa5d0b5" y="630"/>
      </g>
     </g>
     <g id="text_5">
      <!-- 40 -->
      <defs>
       <path d="M 37.796875 64.3125 
L 12.890625 25.390625 
L 37.796875 25.390625 
z
M 35.203125 72.90625 
L 47.609375 72.90625 
L 47.609375 25.390625 
L 58.015625 25.390625 
L 58.015625 17.1875 
L 47.609375 17.1875 
L 47.609375 0 
L 37.796875 0 
L 37.796875 17.1875 
L 4.890625 17.1875 
L 4.890625 26.703125 
z
" id="DejaVuSans-52"/>
      </defs>
      <g transform="translate(516.654052 644.598438)scale(0.1 -0.1)">
       <use xlink:href="#DejaVuSans-52"/>
       <use x="63.623047" xlink:href="#DejaVuSans-48"/>
      </g>
     </g>
    </g>
    <g id="xtick_6">
     <g id="line2d_6">
      <g>
       <use style="stroke:#000000;stroke-width:0.8;" x="616.277508" xlink:href="#m4d7aa5d0b5" y="630"/>
      </g>
     </g>
     <g id="text_6">
      <!-- 50 -->
      <defs>
       <path d="M 10.796875 72.90625 
L 49.515625 72.90625 
L 49.515625 64.59375 
L 19.828125 64.59375 
L 19.828125 46.734375 
Q 21.96875 47.46875 24.109375 47.828125 
Q 26.265625 48.1875 28.421875 48.1875 
Q 40.625 48.1875 47.75 41.5 
Q 54.890625 34.8125 54.890625 23.390625 
Q 54.890625 11.625 47.5625 5.09375 
Q 40.234375 -1.421875 26.90625 -1.421875 
Q 22.3125 -1.421875 17.546875 -0.640625 
Q 12.796875 0.140625 7.71875 1.703125 
L 7.71875 11.625 
Q 12.109375 9.234375 16.796875 8.0625 
Q 21.484375 6.890625 26.703125 6.890625 
Q 35.15625 6.890625 40.078125 11.328125 
Q 45.015625 15.765625 45.015625 23.390625 
Q 45.015625 31 40.078125 35.4375 
Q 35.15625 39.890625 26.703125 39.890625 
Q 22.75 39.890625 18.8125 39.015625 
Q 14.890625 38.140625 10.796875 36.28125 
z
" id="DejaVuSans-53"/>
      </defs>
      <g transform="translate(609.915008 644.598438)scale(0.1 -0.1)">
       <use xlink:href="#DejaVuSans-53"/>
       <use x="63.623047" xlink:href="#DejaVuSans-48"/>
      </g>
     </g>
    </g>
    <g id="xtick_7">
     <g id="line2d_7">
      <g>
       <use style="stroke:#000000;stroke-width:0.8;" x="709.538464" xlink:href="#m4d7aa5d0b5" y="630"/>
      </g>
     </g>
     <g id="text_7">
      <!-- 60 -->
      <defs>
       <path d="M 33.015625 40.375 
Q 26.375 40.375 22.484375 35.828125 
Q 18.609375 31.296875 18.609375 23.390625 
Q 18.609375 15.53125 22.484375 10.953125 
Q 26.375 6.390625 33.015625 6.390625 
Q 39.65625 6.390625 43.53125 10.953125 
Q 47.40625 15.53125 47.40625 23.390625 
Q 47.40625 31.296875 43.53125 35.828125 
Q 39.65625 40.375 33.015625 40.375 
z
M 52.59375 71.296875 
L 52.59375 62.3125 
Q 48.875 64.0625 45.09375 64.984375 
Q 41.3125 65.921875 37.59375 65.921875 
Q 27.828125 65.921875 22.671875 59.328125 
Q 17.53125 52.734375 16.796875 39.40625 
Q 19.671875 43.65625 24.015625 45.921875 
Q 28.375 48.1875 33.59375 48.1875 
Q 44.578125 48.1875 50.953125 41.515625 
Q 57.328125 34.859375 57.328125 23.390625 
Q 57.328125 12.15625 50.6875 5.359375 
Q 44.046875 -1.421875 33.015625 -1.421875 
Q 20.359375 -1.421875 13.671875 8.265625 
Q 6.984375 17.96875 6.984375 36.375 
Q 6.984375 53.65625 15.1875 63.9375 
Q 23.390625 74.21875 37.203125 74.21875 
Q 40.921875 74.21875 44.703125 73.484375 
Q 48.484375 72.75 52.59375 71.296875 
z
" id="DejaVuSans-54"/>
      </defs>
      <g transform="translate(703.175964 644.598438)scale(0.1 -0.1)">
       <use xlink:href="#DejaVuSans-54"/>
       <use x="63.623047" xlink:href="#DejaVuSans-48"/>
      </g>
     </g>
    </g>
    <g id="xtick_8">
     <g id="line2d_8">
      <g>
       <use style="stroke:#000000;stroke-width:0.8;" x="802.799421" xlink:href="#m4d7aa5d0b5" y="630"/>
      </g>
     </g>
     <g id="text_8">
      <!-- 70 -->
      <defs>
       <path d="M 8.203125 72.90625 
L 55.078125 72.90625 
L 55.078125 68.703125 
L 28.609375 0 
L 18.3125 0 
L 43.21875 64.59375 
L 8.203125 64.59375 
z
" id="DejaVuSans-55"/>
      </defs>
      <g transform="translate(796.436921 644.598438)scale(0.1 -0.1)">
       <use xlink:href="#DejaVuSans-55"/>
       <use x="63.623047" xlink:href="#DejaVuSans-48"/>
      </g>
     </g>
    </g>
    <g id="text_9">
     <!-- norm distance -&gt; sqrt(x^2 + y^2) -->
     <defs>
      <path d="M 54.890625 33.015625 
L 54.890625 0 
L 45.90625 0 
L 45.90625 32.71875 
Q 45.90625 40.484375 42.875 44.328125 
Q 39.84375 48.1875 33.796875 48.1875 
Q 26.515625 48.1875 22.3125 43.546875 
Q 18.109375 38.921875 18.109375 30.90625 
L 18.109375 0 
L 9.078125 0 
L 9.078125 54.6875 
L 18.109375 54.6875 
L 18.109375 46.1875 
Q 21.34375 51.125 25.703125 53.5625 
Q 30.078125 56 35.796875 56 
Q 45.21875 56 50.046875 50.171875 
Q 54.890625 44.34375 54.890625 33.015625 
z
" id="DejaVuSans-110"/>
      <path d="M 30.609375 48.390625 
Q 23.390625 48.390625 19.1875 42.75 
Q 14.984375 37.109375 14.984375 27.296875 
Q 14.984375 17.484375 19.15625 11.84375 
Q 23.34375 6.203125 30.609375 6.203125 
Q 37.796875 6.203125 41.984375 11.859375 
Q 46.1875 17.53125 46.1875 27.296875 
Q 46.1875 37.015625 41.984375 42.703125 
Q 37.796875 48.390625 30.609375 48.390625 
z
M 30.609375 56 
Q 42.328125 56 49.015625 48.375 
Q 55.71875 40.765625 55.71875 27.296875 
Q 55.71875 13.875 49.015625 6.21875 
Q 42.328125 -1.421875 30.609375 -1.421875 
Q 18.84375 -1.421875 12.171875 6.21875 
Q 5.515625 13.875 5.515625 27.296875 
Q 5.515625 40.765625 12.171875 48.375 
Q 18.84375 56 30.609375 56 
z
" id="DejaVuSans-111"/>
      <path d="M 41.109375 46.296875 
Q 39.59375 47.171875 37.8125 47.578125 
Q 36.03125 48 33.890625 48 
Q 26.265625 48 22.1875 43.046875 
Q 18.109375 38.09375 18.109375 28.8125 
L 18.109375 0 
L 9.078125 0 
L 9.078125 54.6875 
L 18.109375 54.6875 
L 18.109375 46.1875 
Q 20.953125 51.171875 25.484375 53.578125 
Q 30.03125 56 36.53125 56 
Q 37.453125 56 38.578125 55.875 
Q 39.703125 55.765625 41.0625 55.515625 
z
" id="DejaVuSans-114"/>
      <path d="M 52 44.1875 
Q 55.375 50.25 60.0625 53.125 
Q 64.75 56 71.09375 56 
Q 79.640625 56 84.28125 50.015625 
Q 88.921875 44.046875 88.921875 33.015625 
L 88.921875 0 
L 79.890625 0 
L 79.890625 32.71875 
Q 79.890625 40.578125 77.09375 44.375 
Q 74.3125 48.1875 68.609375 48.1875 
Q 61.625 48.1875 57.5625 43.546875 
Q 53.515625 38.921875 53.515625 30.90625 
L 53.515625 0 
L 44.484375 0 
L 44.484375 32.71875 
Q 44.484375 40.625 41.703125 44.40625 
Q 38.921875 48.1875 33.109375 48.1875 
Q 26.21875 48.1875 22.15625 43.53125 
Q 18.109375 38.875 18.109375 30.90625 
L 18.109375 0 
L 9.078125 0 
L 9.078125 54.6875 
L 18.109375 54.6875 
L 18.109375 46.1875 
Q 21.1875 51.21875 25.484375 53.609375 
Q 29.78125 56 35.6875 56 
Q 41.65625 56 45.828125 52.96875 
Q 50 49.953125 52 44.1875 
z
" id="DejaVuSans-109"/>
      <path id="DejaVuSans-32"/>
      <path d="M 45.40625 46.390625 
L 45.40625 75.984375 
L 54.390625 75.984375 
L 54.390625 0 
L 45.40625 0 
L 45.40625 8.203125 
Q 42.578125 3.328125 38.25 0.953125 
Q 33.9375 -1.421875 27.875 -1.421875 
Q 17.96875 -1.421875 11.734375 6.484375 
Q 5.515625 14.40625 5.515625 27.296875 
Q 5.515625 40.1875 11.734375 48.09375 
Q 17.96875 56 27.875 56 
Q 33.9375 56 38.25 53.625 
Q 42.578125 51.265625 45.40625 46.390625 
z
M 14.796875 27.296875 
Q 14.796875 17.390625 18.875 11.75 
Q 22.953125 6.109375 30.078125 6.109375 
Q 37.203125 6.109375 41.296875 11.75 
Q 45.40625 17.390625 45.40625 27.296875 
Q 45.40625 37.203125 41.296875 42.84375 
Q 37.203125 48.484375 30.078125 48.484375 
Q 22.953125 48.484375 18.875 42.84375 
Q 14.796875 37.203125 14.796875 27.296875 
z
" id="DejaVuSans-100"/>
      <path d="M 9.421875 54.6875 
L 18.40625 54.6875 
L 18.40625 0 
L 9.421875 0 
z
M 9.421875 75.984375 
L 18.40625 75.984375 
L 18.40625 64.59375 
L 9.421875 64.59375 
z
" id="DejaVuSans-105"/>
      <path d="M 44.28125 53.078125 
L 44.28125 44.578125 
Q 40.484375 46.53125 36.375 47.5 
Q 32.28125 48.484375 27.875 48.484375 
Q 21.1875 48.484375 17.84375 46.4375 
Q 14.5 44.390625 14.5 40.28125 
Q 14.5 37.15625 16.890625 35.375 
Q 19.28125 33.59375 26.515625 31.984375 
L 29.59375 31.296875 
Q 39.15625 29.25 43.1875 25.515625 
Q 47.21875 21.78125 47.21875 15.09375 
Q 47.21875 7.46875 41.1875 3.015625 
Q 35.15625 -1.421875 24.609375 -1.421875 
Q 20.21875 -1.421875 15.453125 -0.5625 
Q 10.6875 0.296875 5.421875 2 
L 5.421875 11.28125 
Q 10.40625 8.6875 15.234375 7.390625 
Q 20.0625 6.109375 24.8125 6.109375 
Q 31.15625 6.109375 34.5625 8.28125 
Q 37.984375 10.453125 37.984375 14.40625 
Q 37.984375 18.0625 35.515625 20.015625 
Q 33.0625 21.96875 24.703125 23.78125 
L 21.578125 24.515625 
Q 13.234375 26.265625 9.515625 29.90625 
Q 5.8125 33.546875 5.8125 39.890625 
Q 5.8125 47.609375 11.28125 51.796875 
Q 16.75 56 26.8125 56 
Q 31.78125 56 36.171875 55.265625 
Q 40.578125 54.546875 44.28125 53.078125 
z
" id="DejaVuSans-115"/>
      <path d="M 18.3125 70.21875 
L 18.3125 54.6875 
L 36.8125 54.6875 
L 36.8125 47.703125 
L 18.3125 47.703125 
L 18.3125 18.015625 
Q 18.3125 11.328125 20.140625 9.421875 
Q 21.96875 7.515625 27.59375 7.515625 
L 36.8125 7.515625 
L 36.8125 0 
L 27.59375 0 
Q 17.1875 0 13.234375 3.875 
Q 9.28125 7.765625 9.28125 18.015625 
L 9.28125 47.703125 
L 2.6875 47.703125 
L 2.6875 54.6875 
L 9.28125 54.6875 
L 9.28125 70.21875 
z
" id="DejaVuSans-116"/>
      <path d="M 34.28125 27.484375 
Q 23.390625 27.484375 19.1875 25 
Q 14.984375 22.515625 14.984375 16.5 
Q 14.984375 11.71875 18.140625 8.90625 
Q 21.296875 6.109375 26.703125 6.109375 
Q 34.1875 6.109375 38.703125 11.40625 
Q 43.21875 16.703125 43.21875 25.484375 
L 43.21875 27.484375 
z
M 52.203125 31.203125 
L 52.203125 0 
L 43.21875 0 
L 43.21875 8.296875 
Q 40.140625 3.328125 35.546875 0.953125 
Q 30.953125 -1.421875 24.3125 -1.421875 
Q 15.921875 -1.421875 10.953125 3.296875 
Q 6 8.015625 6 15.921875 
Q 6 25.140625 12.171875 29.828125 
Q 18.359375 34.515625 30.609375 34.515625 
L 43.21875 34.515625 
L 43.21875 35.40625 
Q 43.21875 41.609375 39.140625 45 
Q 35.0625 48.390625 27.6875 48.390625 
Q 23 48.390625 18.546875 47.265625 
Q 14.109375 46.140625 10.015625 43.890625 
L 10.015625 52.203125 
Q 14.9375 54.109375 19.578125 55.046875 
Q 24.21875 56 28.609375 56 
Q 40.484375 56 46.34375 49.84375 
Q 52.203125 43.703125 52.203125 31.203125 
z
" id="DejaVuSans-97"/>
      <path d="M 48.78125 52.59375 
L 48.78125 44.1875 
Q 44.96875 46.296875 41.140625 47.34375 
Q 37.3125 48.390625 33.40625 48.390625 
Q 24.65625 48.390625 19.8125 42.84375 
Q 14.984375 37.3125 14.984375 27.296875 
Q 14.984375 17.28125 19.8125 11.734375 
Q 24.65625 6.203125 33.40625 6.203125 
Q 37.3125 6.203125 41.140625 7.25 
Q 44.96875 8.296875 48.78125 10.40625 
L 48.78125 2.09375 
Q 45.015625 0.34375 40.984375 -0.53125 
Q 36.96875 -1.421875 32.421875 -1.421875 
Q 20.0625 -1.421875 12.78125 6.34375 
Q 5.515625 14.109375 5.515625 27.296875 
Q 5.515625 40.671875 12.859375 48.328125 
Q 20.21875 56 33.015625 56 
Q 37.15625 56 41.109375 55.140625 
Q 45.0625 54.296875 48.78125 52.59375 
z
" id="DejaVuSans-99"/>
      <path d="M 56.203125 29.59375 
L 56.203125 25.203125 
L 14.890625 25.203125 
Q 15.484375 15.921875 20.484375 11.0625 
Q 25.484375 6.203125 34.421875 6.203125 
Q 39.59375 6.203125 44.453125 7.46875 
Q 49.3125 8.734375 54.109375 11.28125 
L 54.109375 2.78125 
Q 49.265625 0.734375 44.1875 -0.34375 
Q 39.109375 -1.421875 33.890625 -1.421875 
Q 20.796875 -1.421875 13.15625 6.1875 
Q 5.515625 13.8125 5.515625 26.8125 
Q 5.515625 40.234375 12.765625 48.109375 
Q 20.015625 56 32.328125 56 
Q 43.359375 56 49.78125 48.890625 
Q 56.203125 41.796875 56.203125 29.59375 
z
M 47.21875 32.234375 
Q 47.125 39.59375 43.09375 43.984375 
Q 39.0625 48.390625 32.421875 48.390625 
Q 24.90625 48.390625 20.390625 44.140625 
Q 15.875 39.890625 15.1875 32.171875 
z
" id="DejaVuSans-101"/>
      <path d="M 4.890625 31.390625 
L 31.203125 31.390625 
L 31.203125 23.390625 
L 4.890625 23.390625 
z
" id="DejaVuSans-45"/>
      <path d="M 10.59375 49.21875 
L 10.59375 58.109375 
L 73.1875 35.40625 
L 73.1875 27.296875 
L 10.59375 4.59375 
L 10.59375 13.484375 
L 60.890625 31.296875 
z
" id="DejaVuSans-62"/>
      <path d="M 14.796875 27.296875 
Q 14.796875 17.390625 18.875 11.75 
Q 22.953125 6.109375 30.078125 6.109375 
Q 37.203125 6.109375 41.296875 11.75 
Q 45.40625 17.390625 45.40625 27.296875 
Q 45.40625 37.203125 41.296875 42.84375 
Q 37.203125 48.484375 30.078125 48.484375 
Q 22.953125 48.484375 18.875 42.84375 
Q 14.796875 37.203125 14.796875 27.296875 
z
M 45.40625 8.203125 
Q 42.578125 3.328125 38.25 0.953125 
Q 33.9375 -1.421875 27.875 -1.421875 
Q 17.96875 -1.421875 11.734375 6.484375 
Q 5.515625 14.40625 5.515625 27.296875 
Q 5.515625 40.1875 11.734375 48.09375 
Q 17.96875 56 27.875 56 
Q 33.9375 56 38.25 53.625 
Q 42.578125 51.265625 45.40625 46.390625 
L 45.40625 54.6875 
L 54.390625 54.6875 
L 54.390625 -20.796875 
L 45.40625 -20.796875 
z
" id="DejaVuSans-113"/>
      <path d="M 31 75.875 
Q 24.46875 64.65625 21.28125 53.65625 
Q 18.109375 42.671875 18.109375 31.390625 
Q 18.109375 20.125 21.3125 9.0625 
Q 24.515625 -2 31 -13.1875 
L 23.1875 -13.1875 
Q 15.875 -1.703125 12.234375 9.375 
Q 8.59375 20.453125 8.59375 31.390625 
Q 8.59375 42.28125 12.203125 53.3125 
Q 15.828125 64.359375 23.1875 75.875 
z
" id="DejaVuSans-40"/>
      <path d="M 54.890625 54.6875 
L 35.109375 28.078125 
L 55.90625 0 
L 45.3125 0 
L 29.390625 21.484375 
L 13.484375 0 
L 2.875 0 
L 24.125 28.609375 
L 4.6875 54.6875 
L 15.28125 54.6875 
L 29.78125 35.203125 
L 44.28125 54.6875 
z
" id="DejaVuSans-120"/>
      <path d="M 46.6875 72.90625 
L 73.1875 45.703125 
L 63.375 45.703125 
L 41.890625 64.984375 
L 20.40625 45.703125 
L 10.59375 45.703125 
L 37.109375 72.90625 
z
" id="DejaVuSans-94"/>
      <path d="M 46 62.703125 
L 46 35.5 
L 73.1875 35.5 
L 73.1875 27.203125 
L 46 27.203125 
L 46 0 
L 37.796875 0 
L 37.796875 27.203125 
L 10.59375 27.203125 
L 10.59375 35.5 
L 37.796875 35.5 
L 37.796875 62.703125 
z
" id="DejaVuSans-43"/>
      <path d="M 32.171875 -5.078125 
Q 28.375 -14.84375 24.75 -17.8125 
Q 21.140625 -20.796875 15.09375 -20.796875 
L 7.90625 -20.796875 
L 7.90625 -13.28125 
L 13.1875 -13.28125 
Q 16.890625 -13.28125 18.9375 -11.515625 
Q 21 -9.765625 23.484375 -3.21875 
L 25.09375 0.875 
L 2.984375 54.6875 
L 12.5 54.6875 
L 29.59375 11.921875 
L 46.6875 54.6875 
L 56.203125 54.6875 
z
" id="DejaVuSans-121"/>
      <path d="M 8.015625 75.875 
L 15.828125 75.875 
Q 23.140625 64.359375 26.78125 53.3125 
Q 30.421875 42.28125 30.421875 31.390625 
Q 30.421875 20.453125 26.78125 9.375 
Q 23.140625 -1.703125 15.828125 -13.1875 
L 8.015625 -13.1875 
Q 14.5 -2 17.703125 9.0625 
Q 20.90625 20.125 20.90625 31.390625 
Q 20.90625 42.671875 17.703125 53.65625 
Q 14.5 64.65625 8.015625 75.875 
z
" id="DejaVuSans-41"/>
     </defs>
     <g transform="translate(392.874219 658.276562)scale(0.1 -0.1)">
      <use xlink:href="#DejaVuSans-110"/>
      <use x="63.378906" xlink:href="#DejaVuSans-111"/>
      <use x="124.560547" xlink:href="#DejaVuSans-114"/>
      <use x="165.658203" xlink:href="#DejaVuSans-109"/>
      <use x="263.070312" xlink:href="#DejaVuSans-32"/>
      <use x="294.857422" xlink:href="#DejaVuSans-100"/>
      <use x="358.333984" xlink:href="#DejaVuSans-105"/>
      <use x="386.117188" xlink:href="#DejaVuSans-115"/>
      <use x="438.216797" xlink:href="#DejaVuSans-116"/>
      <use x="477.425781" xlink:href="#DejaVuSans-97"/>
      <use x="538.705078" xlink:href="#DejaVuSans-110"/>
      <use x="602.083984" xlink:href="#DejaVuSans-99"/>
      <use x="657.064453" xlink:href="#DejaVuSans-101"/>
      <use x="718.587891" xlink:href="#DejaVuSans-32"/>
      <use x="750.375" xlink:href="#DejaVuSans-45"/>
      <use x="786.458984" xlink:href="#DejaVuSans-62"/>
      <use x="870.248047" xlink:href="#DejaVuSans-32"/>
      <use x="902.035156" xlink:href="#DejaVuSans-115"/>
      <use x="954.134766" xlink:href="#DejaVuSans-113"/>
      <use x="1017.611328" xlink:href="#DejaVuSans-114"/>
      <use x="1058.724609" xlink:href="#DejaVuSans-116"/>
      <use x="1097.933594" xlink:href="#DejaVuSans-40"/>
      <use x="1136.947266" xlink:href="#DejaVuSans-120"/>
      <use x="1196.126953" xlink:href="#DejaVuSans-94"/>
      <use x="1279.916016" xlink:href="#DejaVuSans-50"/>
      <use x="1343.539062" xlink:href="#DejaVuSans-32"/>
      <use x="1375.326172" xlink:href="#DejaVuSans-43"/>
      <use x="1459.115234" xlink:href="#DejaVuSans-32"/>
      <use x="1490.902344" xlink:href="#DejaVuSans-121"/>
      <use x="1550.082031" xlink:href="#DejaVuSans-94"/>
      <use x="1633.871094" xlink:href="#DejaVuSans-50"/>
      <use x="1697.494141" xlink:href="#DejaVuSans-41"/>
     </g>
    </g>
   </g>
   <g id="matplotlib.axis_2">
    <g id="ytick_1">
     <g id="line2d_9">
      <defs>
       <path d="M 0 0 
L -3.5 0 
" id="m8a2e72e19f" style="stroke:#000000;stroke-width:0.8;"/>
      </defs>
      <g>
       <use style="stroke:#000000;stroke-width:0.8;" x="117" xlink:href="#m8a2e72e19f" y="577.079435"/>
      </g>
     </g>
     <g id="text_10">
      <!-- $\mathdefault{10^{0}}$ -->
      <g transform="translate(92.4 580.878654)scale(0.1 -0.1)">
       <use transform="translate(0 0.765625)" xlink:href="#DejaVuSans-49"/>
       <use transform="translate(63.623047 0.765625)" xlink:href="#DejaVuSans-48"/>
       <use transform="translate(128.203125 39.046875)scale(0.7)" xlink:href="#DejaVuSans-48"/>
      </g>
     </g>
    </g>
    <g id="ytick_2">
     <g id="line2d_10">
      <g>
       <use style="stroke:#000000;stroke-width:0.8;" x="117" xlink:href="#m8a2e72e19f" y="481.617974"/>
      </g>
     </g>
     <g id="text_11">
      <!-- $\mathdefault{10^{1}}$ -->
      <g transform="translate(92.4 485.417193)scale(0.1 -0.1)">
       <use transform="translate(0 0.684375)" xlink:href="#DejaVuSans-49"/>
       <use transform="translate(63.623047 0.684375)" xlink:href="#DejaVuSans-48"/>
       <use transform="translate(128.203125 38.965625)scale(0.7)" xlink:href="#DejaVuSans-49"/>
      </g>
     </g>
    </g>
    <g id="ytick_3">
     <g id="line2d_11">
      <g>
       <use style="stroke:#000000;stroke-width:0.8;" x="117" xlink:href="#m8a2e72e19f" y="386.156513"/>
      </g>
     </g>
     <g id="text_12">
      <!-- $\mathdefault{10^{2}}$ -->
      <g transform="translate(92.4 389.955732)scale(0.1 -0.1)">
       <use transform="translate(0 0.765625)" xlink:href="#DejaVuSans-49"/>
       <use transform="translate(63.623047 0.765625)" xlink:href="#DejaVuSans-48"/>
       <use transform="translate(128.203125 39.046875)scale(0.7)" xlink:href="#DejaVuSans-50"/>
      </g>
     </g>
    </g>
    <g id="ytick_4">
     <g id="line2d_12">
      <g>
       <use style="stroke:#000000;stroke-width:0.8;" x="117" xlink:href="#m8a2e72e19f" y="290.695052"/>
      </g>
     </g>
     <g id="text_13">
      <!-- $\mathdefault{10^{3}}$ -->
      <g transform="translate(92.4 294.494271)scale(0.1 -0.1)">
       <use transform="translate(0 0.765625)" xlink:href="#DejaVuSans-49"/>
       <use transform="translate(63.623047 0.765625)" xlink:href="#DejaVuSans-48"/>
       <use transform="translate(128.203125 39.046875)scale(0.7)" xlink:href="#DejaVuSans-51"/>
      </g>
     </g>
    </g>
    <g id="ytick_5">
     <g id="line2d_13">
      <g>
       <use style="stroke:#000000;stroke-width:0.8;" x="117" xlink:href="#m8a2e72e19f" y="195.233591"/>
      </g>
     </g>
     <g id="text_14">
      <!-- $\mathdefault{10^{4}}$ -->
      <g transform="translate(92.4 199.03281)scale(0.1 -0.1)">
       <use transform="translate(0 0.684375)" xlink:href="#DejaVuSans-49"/>
       <use transform="translate(63.623047 0.684375)" xlink:href="#DejaVuSans-48"/>
       <use transform="translate(128.203125 38.965625)scale(0.7)" xlink:href="#DejaVuSans-52"/>
      </g>
     </g>
    </g>
    <g id="ytick_6">
     <g id="line2d_14">
      <g>
       <use style="stroke:#000000;stroke-width:0.8;" x="117" xlink:href="#m8a2e72e19f" y="99.77213"/>
      </g>
     </g>
     <g id="text_15">
      <!-- $\mathdefault{10^{5}}$ -->
      <g transform="translate(92.4 103.571349)scale(0.1 -0.1)">
       <use transform="translate(0 0.684375)" xlink:href="#DejaVuSans-49"/>
       <use transform="translate(63.623047 0.684375)" xlink:href="#DejaVuSans-48"/>
       <use transform="translate(128.203125 38.965625)scale(0.7)" xlink:href="#DejaVuSans-53"/>
      </g>
     </g>
    </g>
    <g id="ytick_7">
     <g id="line2d_15">
      <defs>
       <path d="M 0 0 
L -2 0 
" id="mda848a86fa" style="stroke:#000000;stroke-width:0.6;"/>
      </defs>
      <g>
       <use style="stroke:#000000;stroke-width:0.6;" x="117" xlink:href="#mda848a86fa" y="626.994204"/>
      </g>
     </g>
    </g>
    <g id="ytick_8">
     <g id="line2d_16">
      <g>
       <use style="stroke:#000000;stroke-width:0.6;" x="117" xlink:href="#mda848a86fa" y="615.06737"/>
      </g>
     </g>
    </g>
    <g id="ytick_9">
     <g id="line2d_17">
      <g>
       <use style="stroke:#000000;stroke-width:0.6;" x="117" xlink:href="#mda848a86fa" y="605.816198"/>
      </g>
     </g>
    </g>
    <g id="ytick_10">
     <g id="line2d_18">
      <g>
       <use style="stroke:#000000;stroke-width:0.6;" x="117" xlink:href="#mda848a86fa" y="598.257441"/>
      </g>
     </g>
    </g>
    <g id="ytick_11">
     <g id="line2d_19">
      <g>
       <use style="stroke:#000000;stroke-width:0.6;" x="117" xlink:href="#mda848a86fa" y="591.866603"/>
      </g>
     </g>
    </g>
    <g id="ytick_12">
     <g id="line2d_20">
      <g>
       <use style="stroke:#000000;stroke-width:0.6;" x="117" xlink:href="#mda848a86fa" y="586.330607"/>
      </g>
     </g>
    </g>
    <g id="ytick_13">
     <g id="line2d_21">
      <g>
       <use style="stroke:#000000;stroke-width:0.6;" x="117" xlink:href="#mda848a86fa" y="581.447512"/>
      </g>
     </g>
    </g>
    <g id="ytick_14">
     <g id="line2d_22">
      <g>
       <use style="stroke:#000000;stroke-width:0.6;" x="117" xlink:href="#mda848a86fa" y="548.342672"/>
      </g>
     </g>
    </g>
    <g id="ytick_15">
     <g id="line2d_23">
      <g>
       <use style="stroke:#000000;stroke-width:0.6;" x="117" xlink:href="#mda848a86fa" y="531.532743"/>
      </g>
     </g>
    </g>
    <g id="ytick_16">
     <g id="line2d_24">
      <g>
       <use style="stroke:#000000;stroke-width:0.6;" x="117" xlink:href="#mda848a86fa" y="519.605909"/>
      </g>
     </g>
    </g>
    <g id="ytick_17">
     <g id="line2d_25">
      <g>
       <use style="stroke:#000000;stroke-width:0.6;" x="117" xlink:href="#mda848a86fa" y="510.354737"/>
      </g>
     </g>
    </g>
    <g id="ytick_18">
     <g id="line2d_26">
      <g>
       <use style="stroke:#000000;stroke-width:0.6;" x="117" xlink:href="#mda848a86fa" y="502.79598"/>
      </g>
     </g>
    </g>
    <g id="ytick_19">
     <g id="line2d_27">
      <g>
       <use style="stroke:#000000;stroke-width:0.6;" x="117" xlink:href="#mda848a86fa" y="496.405142"/>
      </g>
     </g>
    </g>
    <g id="ytick_20">
     <g id="line2d_28">
      <g>
       <use style="stroke:#000000;stroke-width:0.6;" x="117" xlink:href="#mda848a86fa" y="490.869146"/>
      </g>
     </g>
    </g>
    <g id="ytick_21">
     <g id="line2d_29">
      <g>
       <use style="stroke:#000000;stroke-width:0.6;" x="117" xlink:href="#mda848a86fa" y="485.986051"/>
      </g>
     </g>
    </g>
    <g id="ytick_22">
     <g id="line2d_30">
      <g>
       <use style="stroke:#000000;stroke-width:0.6;" x="117" xlink:href="#mda848a86fa" y="452.881211"/>
      </g>
     </g>
    </g>
    <g id="ytick_23">
     <g id="line2d_31">
      <g>
       <use style="stroke:#000000;stroke-width:0.6;" x="117" xlink:href="#mda848a86fa" y="436.071282"/>
      </g>
     </g>
    </g>
    <g id="ytick_24">
     <g id="line2d_32">
      <g>
       <use style="stroke:#000000;stroke-width:0.6;" x="117" xlink:href="#mda848a86fa" y="424.144448"/>
      </g>
     </g>
    </g>
    <g id="ytick_25">
     <g id="line2d_33">
      <g>
       <use style="stroke:#000000;stroke-width:0.6;" x="117" xlink:href="#mda848a86fa" y="414.893276"/>
      </g>
     </g>
    </g>
    <g id="ytick_26">
     <g id="line2d_34">
      <g>
       <use style="stroke:#000000;stroke-width:0.6;" x="117" xlink:href="#mda848a86fa" y="407.334519"/>
      </g>
     </g>
    </g>
    <g id="ytick_27">
     <g id="line2d_35">
      <g>
       <use style="stroke:#000000;stroke-width:0.6;" x="117" xlink:href="#mda848a86fa" y="400.943681"/>
      </g>
     </g>
    </g>
    <g id="ytick_28">
     <g id="line2d_36">
      <g>
       <use style="stroke:#000000;stroke-width:0.6;" x="117" xlink:href="#mda848a86fa" y="395.407685"/>
      </g>
     </g>
    </g>
    <g id="ytick_29">
     <g id="line2d_37">
      <g>
       <use style="stroke:#000000;stroke-width:0.6;" x="117" xlink:href="#mda848a86fa" y="390.52459"/>
      </g>
     </g>
    </g>
    <g id="ytick_30">
     <g id="line2d_38">
      <g>
       <use style="stroke:#000000;stroke-width:0.6;" x="117" xlink:href="#mda848a86fa" y="357.41975"/>
      </g>
     </g>
    </g>
    <g id="ytick_31">
     <g id="line2d_39">
      <g>
       <use style="stroke:#000000;stroke-width:0.6;" x="117" xlink:href="#mda848a86fa" y="340.609821"/>
      </g>
     </g>
    </g>
    <g id="ytick_32">
     <g id="line2d_40">
      <g>
       <use style="stroke:#000000;stroke-width:0.6;" x="117" xlink:href="#mda848a86fa" y="328.682987"/>
      </g>
     </g>
    </g>
    <g id="ytick_33">
     <g id="line2d_41">
      <g>
       <use style="stroke:#000000;stroke-width:0.6;" x="117" xlink:href="#mda848a86fa" y="319.431816"/>
      </g>
     </g>
    </g>
    <g id="ytick_34">
     <g id="line2d_42">
      <g>
       <use style="stroke:#000000;stroke-width:0.6;" x="117" xlink:href="#mda848a86fa" y="311.873058"/>
      </g>
     </g>
    </g>
    <g id="ytick_35">
     <g id="line2d_43">
      <g>
       <use style="stroke:#000000;stroke-width:0.6;" x="117" xlink:href="#mda848a86fa" y="305.48222"/>
      </g>
     </g>
    </g>
    <g id="ytick_36">
     <g id="line2d_44">
      <g>
       <use style="stroke:#000000;stroke-width:0.6;" x="117" xlink:href="#mda848a86fa" y="299.946224"/>
      </g>
     </g>
    </g>
    <g id="ytick_37">
     <g id="line2d_45">
      <g>
       <use style="stroke:#000000;stroke-width:0.6;" x="117" xlink:href="#mda848a86fa" y="295.063129"/>
      </g>
     </g>
    </g>
    <g id="ytick_38">
     <g id="line2d_46">
      <g>
       <use style="stroke:#000000;stroke-width:0.6;" x="117" xlink:href="#mda848a86fa" y="261.958289"/>
      </g>
     </g>
    </g>
    <g id="ytick_39">
     <g id="line2d_47">
      <g>
       <use style="stroke:#000000;stroke-width:0.6;" x="117" xlink:href="#mda848a86fa" y="245.14836"/>
      </g>
     </g>
    </g>
    <g id="ytick_40">
     <g id="line2d_48">
      <g>
       <use style="stroke:#000000;stroke-width:0.6;" x="117" xlink:href="#mda848a86fa" y="233.221526"/>
      </g>
     </g>
    </g>
    <g id="ytick_41">
     <g id="line2d_49">
      <g>
       <use style="stroke:#000000;stroke-width:0.6;" x="117" xlink:href="#mda848a86fa" y="223.970355"/>
      </g>
     </g>
    </g>
    <g id="ytick_42">
     <g id="line2d_50">
      <g>
       <use style="stroke:#000000;stroke-width:0.6;" x="117" xlink:href="#mda848a86fa" y="216.411597"/>
      </g>
     </g>
    </g>
    <g id="ytick_43">
     <g id="line2d_51">
      <g>
       <use style="stroke:#000000;stroke-width:0.6;" x="117" xlink:href="#mda848a86fa" y="210.020759"/>
      </g>
     </g>
    </g>
    <g id="ytick_44">
     <g id="line2d_52">
      <g>
       <use style="stroke:#000000;stroke-width:0.6;" x="117" xlink:href="#mda848a86fa" y="204.484763"/>
      </g>
     </g>
    </g>
    <g id="ytick_45">
     <g id="line2d_53">
      <g>
       <use style="stroke:#000000;stroke-width:0.6;" x="117" xlink:href="#mda848a86fa" y="199.601668"/>
      </g>
     </g>
    </g>
    <g id="ytick_46">
     <g id="line2d_54">
      <g>
       <use style="stroke:#000000;stroke-width:0.6;" x="117" xlink:href="#mda848a86fa" y="166.496828"/>
      </g>
     </g>
    </g>
    <g id="ytick_47">
     <g id="line2d_55">
      <g>
       <use style="stroke:#000000;stroke-width:0.6;" x="117" xlink:href="#mda848a86fa" y="149.686899"/>
      </g>
     </g>
    </g>
    <g id="ytick_48">
     <g id="line2d_56">
      <g>
       <use style="stroke:#000000;stroke-width:0.6;" x="117" xlink:href="#mda848a86fa" y="137.760065"/>
      </g>
     </g>
    </g>
    <g id="ytick_49">
     <g id="line2d_57">
      <g>
       <use style="stroke:#000000;stroke-width:0.6;" x="117" xlink:href="#mda848a86fa" y="128.508894"/>
      </g>
     </g>
    </g>
    <g id="ytick_50">
     <g id="line2d_58">
      <g>
       <use style="stroke:#000000;stroke-width:0.6;" x="117" xlink:href="#mda848a86fa" y="120.950136"/>
      </g>
     </g>
    </g>
    <g id="ytick_51">
     <g id="line2d_59">
      <g>
       <use style="stroke:#000000;stroke-width:0.6;" x="117" xlink:href="#mda848a86fa" y="114.559298"/>
      </g>
     </g>
    </g>
    <g id="ytick_52">
     <g id="line2d_60">
      <g>
       <use style="stroke:#000000;stroke-width:0.6;" x="117" xlink:href="#mda848a86fa" y="109.023302"/>
      </g>
     </g>
    </g>
    <g id="ytick_53">
     <g id="line2d_61">
      <g>
       <use style="stroke:#000000;stroke-width:0.6;" x="117" xlink:href="#mda848a86fa" y="104.140207"/>
      </g>
     </g>
    </g>
    <g id="text_16">
     <!-- log(sum(|expected_shift - real_shift|)) over 20 runs -->
     <defs>
      <path d="M 9.421875 75.984375 
L 18.40625 75.984375 
L 18.40625 0 
L 9.421875 0 
z
" id="DejaVuSans-108"/>
      <path d="M 45.40625 27.984375 
Q 45.40625 37.75 41.375 43.109375 
Q 37.359375 48.484375 30.078125 48.484375 
Q 22.859375 48.484375 18.828125 43.109375 
Q 14.796875 37.75 14.796875 27.984375 
Q 14.796875 18.265625 18.828125 12.890625 
Q 22.859375 7.515625 30.078125 7.515625 
Q 37.359375 7.515625 41.375 12.890625 
Q 45.40625 18.265625 45.40625 27.984375 
z
M 54.390625 6.78125 
Q 54.390625 -7.171875 48.1875 -13.984375 
Q 42 -20.796875 29.203125 -20.796875 
Q 24.46875 -20.796875 20.265625 -20.09375 
Q 16.0625 -19.390625 12.109375 -17.921875 
L 12.109375 -9.1875 
Q 16.0625 -11.328125 19.921875 -12.34375 
Q 23.78125 -13.375 27.78125 -13.375 
Q 36.625 -13.375 41.015625 -8.765625 
Q 45.40625 -4.15625 45.40625 5.171875 
L 45.40625 9.625 
Q 42.625 4.78125 38.28125 2.390625 
Q 33.9375 0 27.875 0 
Q 17.828125 0 11.671875 7.65625 
Q 5.515625 15.328125 5.515625 27.984375 
Q 5.515625 40.671875 11.671875 48.328125 
Q 17.828125 56 27.875 56 
Q 33.9375 56 38.28125 53.609375 
Q 42.625 51.21875 45.40625 46.390625 
L 45.40625 54.6875 
L 54.390625 54.6875 
z
" id="DejaVuSans-103"/>
      <path d="M 8.5 21.578125 
L 8.5 54.6875 
L 17.484375 54.6875 
L 17.484375 21.921875 
Q 17.484375 14.15625 20.5 10.265625 
Q 23.53125 6.390625 29.59375 6.390625 
Q 36.859375 6.390625 41.078125 11.03125 
Q 45.3125 15.671875 45.3125 23.6875 
L 45.3125 54.6875 
L 54.296875 54.6875 
L 54.296875 0 
L 45.3125 0 
L 45.3125 8.40625 
Q 42.046875 3.421875 37.71875 1 
Q 33.40625 -1.421875 27.6875 -1.421875 
Q 18.265625 -1.421875 13.375 4.4375 
Q 8.5 10.296875 8.5 21.578125 
z
M 31.109375 56 
z
" id="DejaVuSans-117"/>
      <path d="M 21 76.421875 
L 21 -23.578125 
L 12.703125 -23.578125 
L 12.703125 76.421875 
z
" id="DejaVuSans-124"/>
      <path d="M 18.109375 8.203125 
L 18.109375 -20.796875 
L 9.078125 -20.796875 
L 9.078125 54.6875 
L 18.109375 54.6875 
L 18.109375 46.390625 
Q 20.953125 51.265625 25.265625 53.625 
Q 29.59375 56 35.59375 56 
Q 45.5625 56 51.78125 48.09375 
Q 58.015625 40.1875 58.015625 27.296875 
Q 58.015625 14.40625 51.78125 6.484375 
Q 45.5625 -1.421875 35.59375 -1.421875 
Q 29.59375 -1.421875 25.265625 0.953125 
Q 20.953125 3.328125 18.109375 8.203125 
z
M 48.6875 27.296875 
Q 48.6875 37.203125 44.609375 42.84375 
Q 40.53125 48.484375 33.40625 48.484375 
Q 26.265625 48.484375 22.1875 42.84375 
Q 18.109375 37.203125 18.109375 27.296875 
Q 18.109375 17.390625 22.1875 11.75 
Q 26.265625 6.109375 33.40625 6.109375 
Q 40.53125 6.109375 44.609375 11.75 
Q 48.6875 17.390625 48.6875 27.296875 
z
" id="DejaVuSans-112"/>
      <path d="M 50.984375 -16.609375 
L 50.984375 -23.578125 
L -0.984375 -23.578125 
L -0.984375 -16.609375 
z
" id="DejaVuSans-95"/>
      <path d="M 54.890625 33.015625 
L 54.890625 0 
L 45.90625 0 
L 45.90625 32.71875 
Q 45.90625 40.484375 42.875 44.328125 
Q 39.84375 48.1875 33.796875 48.1875 
Q 26.515625 48.1875 22.3125 43.546875 
Q 18.109375 38.921875 18.109375 30.90625 
L 18.109375 0 
L 9.078125 0 
L 9.078125 75.984375 
L 18.109375 75.984375 
L 18.109375 46.1875 
Q 21.34375 51.125 25.703125 53.5625 
Q 30.078125 56 35.796875 56 
Q 45.21875 56 50.046875 50.171875 
Q 54.890625 44.34375 54.890625 33.015625 
z
" id="DejaVuSans-104"/>
      <path d="M 37.109375 75.984375 
L 37.109375 68.5 
L 28.515625 68.5 
Q 23.6875 68.5 21.796875 66.546875 
Q 19.921875 64.59375 19.921875 59.515625 
L 19.921875 54.6875 
L 34.71875 54.6875 
L 34.71875 47.703125 
L 19.921875 47.703125 
L 19.921875 0 
L 10.890625 0 
L 10.890625 47.703125 
L 2.296875 47.703125 
L 2.296875 54.6875 
L 10.890625 54.6875 
L 10.890625 58.5 
Q 10.890625 67.625 15.140625 71.796875 
Q 19.390625 75.984375 28.609375 75.984375 
z
" id="DejaVuSans-102"/>
      <path d="M 2.984375 54.6875 
L 12.5 54.6875 
L 29.59375 8.796875 
L 46.6875 54.6875 
L 56.203125 54.6875 
L 35.6875 0 
L 23.484375 0 
z
" id="DejaVuSans-118"/>
     </defs>
     <g transform="translate(86.042187 485.492188)rotate(-90)scale(0.1 -0.1)">
      <use xlink:href="#DejaVuSans-108"/>
      <use x="27.783203" xlink:href="#DejaVuSans-111"/>
      <use x="88.964844" xlink:href="#DejaVuSans-103"/>
      <use x="152.441406" xlink:href="#DejaVuSans-40"/>
      <use x="191.455078" xlink:href="#DejaVuSans-115"/>
      <use x="243.554688" xlink:href="#DejaVuSans-117"/>
      <use x="306.933594" xlink:href="#DejaVuSans-109"/>
      <use x="404.345703" xlink:href="#DejaVuSans-40"/>
      <use x="443.359375" xlink:href="#DejaVuSans-124"/>
      <use x="477.050781" xlink:href="#DejaVuSans-101"/>
      <use x="538.558594" xlink:href="#DejaVuSans-120"/>
      <use x="597.738281" xlink:href="#DejaVuSans-112"/>
      <use x="661.214844" xlink:href="#DejaVuSans-101"/>
      <use x="722.738281" xlink:href="#DejaVuSans-99"/>
      <use x="777.71875" xlink:href="#DejaVuSans-116"/>
      <use x="816.927734" xlink:href="#DejaVuSans-101"/>
      <use x="878.451172" xlink:href="#DejaVuSans-100"/>
      <use x="941.927734" xlink:href="#DejaVuSans-95"/>
      <use x="991.927734" xlink:href="#DejaVuSans-115"/>
      <use x="1044.027344" xlink:href="#DejaVuSans-104"/>
      <use x="1107.40625" xlink:href="#DejaVuSans-105"/>
      <use x="1135.189453" xlink:href="#DejaVuSans-102"/>
      <use x="1170.378906" xlink:href="#DejaVuSans-116"/>
      <use x="1209.587891" xlink:href="#DejaVuSans-32"/>
      <use x="1241.375" xlink:href="#DejaVuSans-45"/>
      <use x="1277.458984" xlink:href="#DejaVuSans-32"/>
      <use x="1309.246094" xlink:href="#DejaVuSans-114"/>
      <use x="1350.328125" xlink:href="#DejaVuSans-101"/>
      <use x="1411.851562" xlink:href="#DejaVuSans-97"/>
      <use x="1473.130859" xlink:href="#DejaVuSans-108"/>
      <use x="1500.914062" xlink:href="#DejaVuSans-95"/>
      <use x="1550.914062" xlink:href="#DejaVuSans-115"/>
      <use x="1603.013672" xlink:href="#DejaVuSans-104"/>
      <use x="1666.392578" xlink:href="#DejaVuSans-105"/>
      <use x="1694.175781" xlink:href="#DejaVuSans-102"/>
      <use x="1729.365234" xlink:href="#DejaVuSans-116"/>
      <use x="1768.574219" xlink:href="#DejaVuSans-124"/>
      <use x="1802.265625" xlink:href="#DejaVuSans-41"/>
      <use x="1841.279297" xlink:href="#DejaVuSans-41"/>
      <use x="1880.292969" xlink:href="#DejaVuSans-32"/>
      <use x="1912.080078" xlink:href="#DejaVuSans-111"/>
      <use x="1973.261719" xlink:href="#DejaVuSans-118"/>
      <use x="2032.441406" xlink:href="#DejaVuSans-101"/>
      <use x="2093.964844" xlink:href="#DejaVuSans-114"/>
      <use x="2135.078125" xlink:href="#DejaVuSans-32"/>
      <use x="2166.865234" xlink:href="#DejaVuSans-50"/>
      <use x="2230.488281" xlink:href="#DejaVuSans-48"/>
      <use x="2294.111328" xlink:href="#DejaVuSans-32"/>
      <use x="2325.898438" xlink:href="#DejaVuSans-114"/>
      <use x="2367.011719" xlink:href="#DejaVuSans-117"/>
      <use x="2430.390625" xlink:href="#DejaVuSans-110"/>
      <use x="2493.769531" xlink:href="#DejaVuSans-115"/>
     </g>
    </g>
   </g>
   <g id="line2d_62">
    <path clip-path="url(#pef33e51ffe)" d="M 149.972727 392.059233 
L 159.298823 390.932461 
L 159.298823 387.247927 
L 163.161818 384.832163 
L 163.161818 382.142274 
L 174.220576 379.249091 
L 174.220576 373.115623 
L 175.952223 369.980142 
L 175.952223 354.863789 
L 184.264364 352.067212 
L 184.264364 344.238495 
L 196.603205 341.816271 
L 196.603205 335.074761 
L 197.526671 332.993646 
L 197.526671 323.692416 
L 202.530882 322.032046 
L 202.530882 314.582824 
L 215.918182 313.243677 
L 215.918182 309.48262 
L 218.426269 308.30617 
L 218.426269 306.059592 
L 219.058641 304.986056 
L 219.058641 299.180209 
L 222.593975 298.309063 
L 222.593975 294.291692 
L 232.799588 293.53984 
L 232.799588 289.932064 
L 235.772807 289.232883 
L 235.772807 287.197312 
L 236.278172 286.547635 
L 236.278172 283.668967 
L 239.133323 283.188158 
L 239.133323 280.642445 
L 246.780655 280.333029 
L 246.780655 279.310553 
L 247.625455 278.911057 
L 247.625455 275.576729 
L 259.734019 274.872384 
L 259.734019 269.507951 
L 266.548923 268.761948 
L 266.548923 267.326971 
L 266.921371 266.643285 
L 266.921371 262.906858 
L 269.043998 262.316917 
L 269.043998 257.955603 
L 271.312364 257.260608 
L 271.312364 255.792421 
L 275.529132 255.016065 
L 275.529132 248.650016 
L 285.161102 247.601238 
L 285.161102 241.880844 
L 294.71962 240.660917 
L 294.71962 233.176676 
L 314.836364 231.95262 
L 314.836364 228.440965 
L 342.090297 227.342347 
L 342.090297 224.33616 
L 342.316525 223.445675 
L 342.316525 219.917766 
L 343.614455 219.39506 
L 343.614455 217.163168 
L 347.668357 216.869177 
L 347.668357 214.140048 
L 353.921368 213.544316 
L 353.921368 207.182818 
L 360.379035 205.951438 
L 360.379035 195.585415 
L 374.692931 193.950885 
L 374.692931 184.354255 
L 421.668 182.890407 
L 421.668 178.913355 
L 477.318684 177.747501 
L 477.318684 175.682882 
L 477.451507 174.787702 
L 477.451507 171.650569 
L 478.215523 171.266314 
L 478.215523 170.077958 
L 480.623263 169.895162 
L 480.623263 169.265804 
L 484.399494 169.060339 
L 484.399494 166.476869 
L 488.376375 165.926906 
L 488.376375 161.608679 
L 497.457093 160.723389 
L 497.457093 153.693988 
L 529.53107 152.664346 
L 529.53107 147.343078 
L 612.909818 146.690553 
L 612.909818 145.277824 
L 616.277508 145.000371 
L 616.277508 144.739647 
L 616.37076 145.286343 
L 616.907527 145.60061 
L 616.907527 148.355508 
L 618.603232 148.649506 
L 618.603232 149.034477 
L 618.603232 148.601277 
L 621.275216 148.284659 
L 621.275216 144.813267 
L 624.105412 144.230072 
L 624.105412 139.983905 
L 630.628694 139.335726 
L 630.628694 134.058714 
L 654.303283 133.184227 
L 654.303283 126.7398 
L 719.70558 125.87145 
L 719.70558 121.464764 
L 809.427273 121.164868 
L 809.427273 120.861026 
L 809.427273 120.861026 
" style="fill:none;stroke:#000000;stroke-linecap:square;stroke-width:1.5;"/>
   </g>
   <g id="line2d_63">
    <path clip-path="url(#pef33e51ffe)" d="M 149.972727 392.068579 
L 159.298823 390.9416 
L 159.298823 387.256426 
L 163.161818 384.840272 
L 163.161818 382.149976 
L 174.220576 379.256386 
L 174.220576 373.122147 
L 175.952223 369.986317 
L 175.952223 354.868694 
L 184.264364 352.071947 
L 184.264364 344.242873 
L 196.603205 341.820578 
L 196.603205 335.078991 
L 197.526671 332.997898 
L 197.526671 323.697187 
L 202.530882 322.037016 
L 202.530882 314.589332 
L 215.918182 313.250603 
L 215.918182 309.490936 
L 218.426269 308.314976 
L 218.426269 306.069366 
L 219.058641 304.996287 
L 219.058641 299.192187 
L 222.593975 298.321104 
L 222.593975 294.30307 
L 232.799588 293.550944 
L 232.799588 289.941717 
L 235.772807 289.242316 
L 235.772807 287.206291 
L 236.278172 286.556539 
L 236.278172 283.677792 
L 239.133323 283.196962 
L 239.133323 280.649778 
L 246.780655 280.339854 
L 246.780655 279.315477 
L 247.625455 278.915187 
L 247.625455 275.574331 
L 259.734019 274.868512 
L 259.734019 269.488939 
L 266.548923 268.740014 
L 266.548923 267.298791 
L 266.921371 266.611904 
L 266.921371 262.861504 
L 269.043998 262.271366 
L 269.043998 257.940493 
L 271.312364 257.254404 
L 271.312364 255.806058 
L 275.529132 255.040124 
L 275.529132 248.729208 
L 285.161102 247.683027 
L 285.161102 241.953273 
L 294.71962 240.728113 
L 294.71962 233.207731 
L 314.836364 231.978577 
L 314.836364 228.455122 
L 342.090297 227.353752 
L 342.090297 224.342376 
L 342.316525 223.450969 
L 342.316525 219.922042 
L 343.614455 219.399631 
L 343.614455 217.174405 
L 347.668357 216.882845 
L 347.668357 214.187227 
L 353.921368 213.598454 
L 353.921368 207.286038 
L 360.379035 206.059897 
L 360.379035 195.703513 
L 374.692931 194.066387 
L 374.692931 184.440448 
L 421.668 182.970479 
L 421.668 178.975026 
L 477.318684 177.803295 
L 477.318684 175.727669 
L 477.451507 174.82744 
L 477.451507 171.670294 
L 478.215523 171.283079 
L 478.215523 170.082797 
L 480.623263 169.897597 
L 480.623263 169.263624 
L 484.399494 169.057313 
L 484.399494 166.467991 
L 488.376375 165.917299 
L 488.376375 161.596783 
L 497.457093 160.711557 
L 497.457093 153.68598 
L 529.53107 152.657206 
L 529.53107 147.342216 
L 612.909818 146.691012 
L 612.909818 145.283276 
L 616.277508 145.007983 
L 616.277508 144.752648 
L 616.37076 145.31608 
L 616.907527 145.636071 
L 616.907527 148.4468 
L 618.603232 148.749604 
L 618.603232 149.150695 
L 618.603232 148.738393 
L 621.275216 148.421459 
L 621.275216 144.912295 
L 624.105412 144.32081 
L 624.105412 140.021493 
L 630.628694 139.367651 
L 630.628694 134.066765 
L 654.303283 133.190662 
L 654.303283 126.741134 
L 719.70558 125.872544 
L 719.70558 121.465215 
L 809.427273 121.165297 
L 809.427273 120.861421 
L 809.427273 120.861421 
" style="fill:none;stroke:#010000;stroke-linecap:square;stroke-width:1.5;"/>
   </g>
   <g id="line2d_64">
    <path clip-path="url(#pef33e51ffe)" d="M 149.972727 392.085732 
L 159.298823 390.958485 
L 159.298823 387.272469 
L 163.161818 384.855787 
L 163.161818 382.16492 
L 174.220576 379.270737 
L 174.220576 373.135304 
L 175.952223 369.998893 
L 175.952223 354.878658 
L 184.264364 352.081463 
L 184.264364 344.251177 
L 196.603205 341.828517 
L 196.603205 335.085916 
L 197.526671 333.0045 
L 197.526671 323.702092 
L 202.530882 322.04153 
L 202.530882 314.591432 
L 215.918182 313.252109 
L 215.918182 309.490521 
L 218.426269 308.313889 
L 218.426269 306.06694 
L 219.058641 304.993215 
L 219.058641 299.186187 
L 222.593975 298.31483 
L 222.593975 294.29623 
L 232.799588 293.54408 
L 232.799588 289.934481 
L 235.772807 289.234874 
L 235.772807 287.197965 
L 236.278172 286.547843 
L 236.278172 283.667276 
L 239.133323 283.186203 
L 239.133323 280.640102 
L 246.780655 280.330804 
L 246.780655 279.308846 
L 247.625455 278.909517 
L 247.625455 275.575065 
L 259.734019 274.870424 
L 259.734019 269.499972 
L 266.548923 268.7527 
L 266.548923 267.31521 
L 266.921371 266.630396 
L 266.921371 262.89509 
L 269.043998 262.307789 
L 269.043998 257.99784 
L 271.312364 257.314877 
L 271.312364 255.872995 
L 275.529132 255.110377 
L 275.529132 248.820613 
L 285.161102 247.776244 
L 285.161102 242.045264 
L 294.71962 240.81747 
L 294.71962 233.26742 
L 314.836364 232.032032 
L 314.836364 228.490398 
L 342.090297 227.383586 
L 342.090297 224.358971 
L 342.316525 223.464412 
L 342.316525 219.929324 
L 343.614455 219.407265 
L 343.614455 217.187865 
L 347.668357 216.897002 
L 347.668357 214.197688 
L 353.921368 213.60738 
L 353.921368 207.284839 
L 360.379035 206.057866 
L 360.379035 195.701451 
L 374.692931 194.064986 
L 374.692931 184.444064 
L 421.668 182.974848 
L 421.668 178.981108 
L 477.318684 177.809728 
L 477.318684 175.734469 
L 477.451507 174.834261 
L 477.451507 171.676058 
L 478.215523 171.288503 
L 478.215523 170.086521 
L 480.623263 169.901284 
L 480.623263 169.269202 
L 484.399494 169.06373 
L 484.399494 166.487942 
L 488.376375 165.940826 
L 488.376375 161.656311 
L 497.457093 160.779975 
L 497.457093 153.836235 
L 529.53107 152.820402 
L 529.53107 147.570571 
L 612.909818 146.926344 
L 612.909818 145.530004 
L 616.277508 145.255084 
L 616.277508 144.995213 
L 616.37076 145.529775 
L 616.907527 145.839023 
L 616.907527 148.55586 
L 618.603232 148.845299 
L 618.603232 149.221792 
L 618.603232 148.765236 
L 621.275216 148.442542 
L 621.275216 144.913114 
L 624.105412 144.320537 
L 624.105412 140.018339 
L 630.628694 139.364468 
L 630.628694 134.064542 
L 654.303283 133.188669 
L 654.303283 126.740612 
L 719.70558 125.872179 
L 719.70558 121.465503 
L 809.427273 121.16562 
L 809.427273 120.861779 
L 809.427273 120.861779 
" style="fill:none;stroke:#030000;stroke-linecap:square;stroke-width:1.5;"/>
   </g>
   <g id="line2d_65">
    <path clip-path="url(#pef33e51ffe)" d="M 149.972727 393.129077 
L 159.298823 392.030911 
L 159.298823 388.437944 
L 163.161818 386.079157 
L 163.161818 383.449619 
L 174.220576 380.619441 
L 174.220576 374.60968 
L 175.952223 371.532288 
L 175.952223 356.636886 
L 184.264364 353.867452 
L 184.264364 346.08219 
L 196.603205 343.661885 
L 196.603205 336.88853 
L 197.526671 334.784856 
L 197.526671 325.291266 
L 202.530882 323.578399 
L 202.530882 315.815739 
L 215.918182 314.406884 
L 215.918182 310.432679 
L 218.426269 309.185893 
L 218.426269 306.803398 
L 219.058641 305.665357 
L 219.058641 299.543842 
L 222.593975 298.633417 
L 222.593975 294.472382 
L 232.799588 293.70088 
L 232.799588 290.027763 
L 235.772807 289.320682 
L 235.772807 287.268516 
L 236.278172 286.615124 
L 236.278172 283.723243 
L 239.133323 283.239556 
L 239.133323 280.646901 
L 246.780655 280.324614 
L 246.780655 279.251672 
L 247.625455 278.831402 
L 247.625455 275.34387 
L 259.734019 274.61238 
L 259.734019 269.090991 
L 266.548923 268.330302 
L 266.548923 266.87303 
L 266.921371 266.181716 
L 266.921371 262.445226 
L 269.043998 261.861946 
L 269.043998 257.585083 
L 271.312364 256.906202 
L 271.312364 255.472008 
L 275.529132 254.713247 
L 275.529132 248.466074 
L 285.161102 247.431639 
L 285.161102 241.767198 
L 294.71962 240.555534 
L 294.71962 233.111185 
L 314.836364 231.89355 
L 314.836364 228.402786 
L 342.090297 227.311743 
L 342.090297 224.329554 
L 342.316525 223.447244 
L 342.316525 219.956717 
L 343.614455 219.440088 
L 343.614455 217.230504 
L 347.668357 216.937947 
L 347.668357 214.207918 
L 353.921368 213.611195 
L 353.921368 207.240351 
L 360.379035 206.0074 
L 360.379035 195.631344 
L 374.692931 193.995698 
L 374.692931 184.393143 
L 421.668 182.928221 
L 421.668 178.947469 
L 477.318684 177.780214 
L 477.318684 175.712593 
L 477.451507 174.815832 
L 477.451507 171.67061 
L 478.215523 171.2848 
L 478.215523 170.088314 
L 480.623263 169.903392 
L 480.623263 169.270246 
L 484.399494 169.064434 
L 484.399494 166.488228 
L 488.376375 165.941601 
L 488.376375 161.663304 
L 497.457093 160.788349 
L 497.457093 153.852428 
L 529.53107 152.837101 
L 529.53107 147.586637 
L 612.909818 146.941839 
L 612.909818 145.543401 
L 616.277508 145.267716 
L 616.277508 145.006318 
L 616.37076 145.538111 
L 616.907527 145.846762 
L 616.907527 148.560452 
L 618.603232 148.849537 
L 618.603232 149.225339 
L 618.603232 148.766915 
L 621.275216 148.443811 
L 621.275216 144.911804 
L 624.105412 144.319021 
L 624.105412 140.017767 
L 630.628694 139.364383 
L 630.628694 134.068848 
L 654.303283 133.193537 
L 654.303283 126.747519 
L 719.70558 125.879125 
L 719.70558 121.472046 
L 809.427273 121.172107 
L 809.427273 120.868206 
L 809.427273 120.868206 
" style="fill:none;stroke:#0d0000;stroke-linecap:square;stroke-width:1.5;"/>
   </g>
   <g id="line2d_66">
    <path clip-path="url(#pef33e51ffe)" d="M 149.972727 393.516393 
L 159.298823 392.416608 
L 159.298823 388.81819 
L 163.161818 386.455637 
L 163.161818 383.821718 
L 174.220576 380.986581 
L 174.220576 374.965171 
L 175.952223 371.881189 
L 175.952223 356.945284 
L 184.264364 354.166446 
L 184.264364 346.351167 
L 196.603205 343.920445 
L 196.603205 337.115293 
L 197.526671 335.001023 
L 197.526671 325.456001 
L 202.530882 323.733356 
L 202.530882 315.926067 
L 215.918182 314.509395 
L 215.918182 310.51463 
L 218.426269 309.262074 
L 218.426269 306.869778 
L 219.058641 305.727716 
L 219.058641 299.592972 
L 222.593975 298.681745 
L 222.593975 294.519467 
L 232.799588 293.747935 
L 232.799588 290.07399 
L 235.772807 289.366497 
L 235.772807 287.312583 
L 236.278172 286.658362 
L 236.278172 283.759257 
L 239.133323 283.273146 
L 239.133323 280.64264 
L 246.780655 280.310464 
L 246.780655 279.198782 
L 247.625455 278.762516 
L 247.625455 275.155801 
L 259.734019 274.403196 
L 259.734019 268.770321 
L 266.548923 268.002271 
L 266.548923 266.538143 
L 266.921371 265.847327 
L 266.921371 262.160282 
L 269.043998 261.590739 
L 269.043998 257.416585 
L 271.312364 256.750365 
L 271.312364 255.338276 
L 275.529132 254.58878 
L 275.529132 248.373345 
L 285.161102 247.339574 
L 285.161102 241.67349 
L 294.71962 240.461599 
L 294.71962 233.024072 
L 314.836364 231.80885 
L 314.836364 228.326181 
L 342.090297 227.237914 
L 342.090297 224.263568 
L 342.316525 223.383768 
L 342.316525 219.908456 
L 343.614455 219.396222 
L 343.614455 217.230782 
L 347.668357 216.948921 
L 347.668357 214.311943 
L 353.921368 213.729566 
L 353.921368 207.448601 
L 360.379035 206.225471 
L 360.379035 195.878318 
L 374.692931 194.240162 
L 374.692931 184.592403 
L 421.668 183.116434 
L 421.668 179.100285 
L 477.318684 177.921074 
L 477.318684 175.83021 
L 477.451507 174.922386 
L 477.451507 171.730591 
L 478.215523 171.337509 
L 478.215523 170.113922 
L 480.623263 169.926396 
L 480.623263 169.306011 
L 484.399494 169.107329 
L 484.399494 166.657613 
L 488.376375 166.143884 
L 488.376375 162.153342 
L 497.457093 161.338387 
L 497.457093 154.805143 
L 529.53107 153.831439 
L 529.53107 148.671456 
L 612.909818 148.013818 
L 612.909818 146.534812 
L 616.277508 146.220302 
L 616.37076 145.82675 
L 616.37076 146.184491 
L 616.907527 146.437166 
L 616.907527 148.808668 
L 618.603232 149.061674 
L 618.603232 149.37747 
L 618.603232 148.837815 
L 621.275216 148.508773 
L 621.275216 145.012098 
L 624.105412 144.43476 
L 624.105412 140.331449 
L 630.628694 139.72094 
L 630.628694 134.83074 
L 654.303283 134.024799 
L 654.303283 128.06715 
L 719.70558 127.260842 
L 719.70558 123.156065 
L 809.427273 122.875991 
L 809.427273 122.592097 
L 809.427273 122.592097 
" style="fill:none;stroke:#1a0000;stroke-linecap:square;stroke-width:1.5;"/>
   </g>
   <g id="line2d_67">
    <path clip-path="url(#pef33e51ffe)" d="M 149.972727 401.16352 
L 159.298823 399.908829 
L 159.298823 395.815518 
L 163.161818 393.136719 
L 163.161818 390.157351 
L 174.220576 386.957657 
L 174.220576 380.182472 
L 175.952223 376.721366 
L 175.952223 360.037692 
L 184.264364 356.952143 
L 184.264364 348.326534 
L 196.603205 345.664509 
L 196.603205 338.283315 
L 197.526671 336.015082 
L 197.526671 325.945813 
L 202.530882 324.159044 
L 202.530882 316.163582 
L 215.918182 314.727803 
L 215.918182 310.69651 
L 218.426269 309.436507 
L 218.426269 307.033454 
L 219.058641 305.887363 
L 219.058641 299.734268 
L 222.593975 298.820018 
L 222.593975 294.641545 
L 232.799588 293.866798 
L 232.799588 290.178253 
L 235.772807 289.468259 
L 235.772807 287.408149 
L 236.278172 286.752248 
L 236.278172 283.848189 
L 239.133323 283.361886 
L 239.133323 280.743641 
L 246.780655 280.416135 
L 246.780655 279.324334 
L 247.625455 278.896847 
L 247.625455 275.361765 
L 259.734019 274.62301 
L 259.734019 269.075675 
L 266.548923 268.315887 
L 266.548923 266.86383 
L 266.921371 266.17669 
L 266.921371 262.479456 
L 269.043998 261.903785 
L 269.043998 257.678244 
L 271.312364 257.006221 
L 271.312364 255.585643 
L 275.529132 254.833755 
L 275.529132 248.638408 
L 285.161102 247.612687 
L 285.161102 242.002711 
L 294.71962 240.804867 
L 294.71962 233.466377 
L 314.836364 232.269828 
L 314.836364 228.846115 
L 342.090297 227.778095 
L 342.090297 224.864792 
L 342.316525 224.004895 
L 342.316525 220.618028 
L 343.614455 220.120022 
L 343.614455 218.007583 
L 347.668357 217.729545 
L 347.668357 215.102166 
L 353.921368 214.521775 
L 353.921368 208.27643 
L 360.379035 207.060564 
L 360.379035 196.755089 
L 374.692931 195.120338 
L 374.692931 185.483352 
L 421.668 184.009013 
L 421.668 180.000304 
L 477.318684 178.824759 
L 477.318684 176.743439 
L 477.451507 175.841311 
L 477.451507 172.682951 
L 478.215523 172.296174 
L 478.215523 171.090645 
L 480.623263 170.89853 
L 480.623263 170.25739 
L 484.399494 170.057966 
L 484.399494 167.753632 
L 488.376375 167.295681 
L 488.376375 163.901449 
L 497.457093 163.230063 
L 497.457093 157.930749 
L 529.53107 157.14687 
L 529.53107 153.054703 
L 612.909818 152.556599 
L 612.909818 151.523118 
L 616.37076 151.258513 
L 616.37076 151.343852 
L 616.37076 152.056271 
L 616.907527 152.417096 
L 616.907527 155.241177 
L 618.603232 155.487545 
L 618.603232 155.649365 
L 618.603232 154.547041 
L 621.275216 154.037311 
L 621.275216 149.218711 
L 624.105412 148.48641 
L 624.105412 143.894217 
L 630.628694 143.318543 
L 630.628694 139.531845 
L 654.303283 139.001585 
L 654.303283 135.462639 
L 719.70558 135.018819 
L 719.70558 132.850402 
L 809.427273 132.611934 
L 809.427273 132.563497 
L 809.427273 132.563497 
" style="fill:none;stroke:#330000;stroke-linecap:square;stroke-width:1.5;"/>
   </g>
   <g id="line2d_68">
    <path clip-path="url(#pef33e51ffe)" d="M 149.972727 439.184304 
L 159.298823 436.840675 
L 159.298823 429.54985 
L 163.161818 425.018315 
L 163.161818 420.166251 
L 174.220576 415.142087 
L 174.220576 405.014795 
L 175.952223 400.056678 
L 175.952223 377.484064 
L 184.264364 373.468798 
L 184.264364 362.37004 
L 196.603205 358.964806 
L 196.603205 349.518957 
L 197.526671 346.607928 
L 197.526671 333.613333 
L 202.530882 331.301977 
L 202.530882 321.036893 
L 215.918182 319.22304 
L 215.918182 314.21217 
L 218.426269 312.675547 
L 218.426269 309.789145 
L 219.058641 308.433993 
L 219.058641 301.399511 
L 222.593975 300.387908 
L 222.593975 295.863262 
L 232.799588 295.040533 
L 232.799588 291.177056 
L 235.772807 290.441269 
L 235.772807 288.316497 
L 236.278172 287.642955 
L 236.278172 284.678645 
L 239.133323 284.186994 
L 239.133323 281.618055 
L 246.780655 281.311811 
L 246.780655 280.306719 
L 247.625455 279.915426 
L 247.625455 276.65297 
L 259.734019 275.965087 
L 259.734019 270.755353 
L 266.548923 270.036052 
L 266.548923 268.655906 
L 266.921371 267.999694 
L 266.921371 264.412604 
L 269.043998 263.843232 
L 269.043998 259.592029 
L 271.312364 258.908515 
L 271.312364 257.461076 
L 275.529132 256.694 
L 275.529132 250.383101 
L 285.161102 249.344034 
L 285.161102 243.700811 
L 294.71962 242.504106 
L 294.71962 235.196696 
L 314.836364 234.004079 
L 314.836364 230.578855 
L 342.090297 229.504421 
L 342.090297 226.552697 
L 342.316525 225.674415 
L 342.316525 222.180099 
L 343.614455 221.663334 
L 343.614455 219.536577 
L 347.668357 219.280647 
L 347.668357 217.050713 
L 353.921368 216.563112 
L 353.921368 211.238209 
L 360.379035 210.196323 
L 360.379035 201.342729 
L 374.692931 199.930022 
L 374.692931 191.47071 
L 421.668 190.148668 
L 421.668 186.493771 
L 477.318684 185.401248 
L 477.318684 183.434338 
L 477.451507 182.564681 
L 477.451507 179.359839 
L 478.215523 178.930191 
L 478.215523 177.335792 
L 480.623263 177.159858 
L 480.623263 175.959952 
L 484.399494 175.684114 
L 484.399494 172.831301 
L 488.376375 172.290759 
L 488.376375 168.403714 
L 497.457093 167.660071 
L 497.457093 162.117766 
L 529.53107 161.352085 
L 529.53107 157.681857 
L 612.909818 157.300818 
L 612.909818 156.679713 
L 616.37076 156.729358 
L 616.37076 158.379148 
L 616.907527 158.910253 
L 616.907527 162.659383 
L 618.603232 162.966068 
L 618.603232 163.162772 
L 618.603232 161.737671 
L 621.275216 161.103003 
L 621.275216 155.26567 
L 624.105412 154.396048 
L 624.105412 148.967696 
L 630.628694 148.280753 
L 630.628694 143.674535 
L 654.303283 143.022098 
L 654.303283 138.706346 
L 719.70558 138.17402 
L 719.70558 135.610868 
L 809.427273 135.444572 
L 809.427273 135.276962 
L 809.427273 135.276962 
" style="fill:none;stroke:#4c0000;stroke-linecap:square;stroke-width:1.5;"/>
   </g>
   <g id="line2d_69">
    <path clip-path="url(#pef33e51ffe)" d="M 149.972727 477.064052 
L 159.298823 475.191856 
L 159.298823 469.281707 
L 163.161818 465.534409 
L 163.161818 461.462613 
L 174.220576 457.204214 
L 174.220576 448.504549 
L 175.952223 444.20137 
L 175.952223 424.472265 
L 184.264364 420.959044 
L 184.264364 411.291915 
L 196.603205 408.347637 
L 196.603205 400.231327 
L 197.526671 397.755822 
L 197.526671 386.856643 
L 202.530882 384.947325 
L 202.530882 376.33172 
L 215.918182 374.719555 
L 215.918182 369.839006 
L 218.426269 368.143023 
L 218.426269 364.581662 
L 219.058641 362.698256 
L 219.058641 350.12987 
L 222.593975 347.920457 
L 222.593975 337.271034 
L 232.799588 335.301481 
L 232.799588 326.599479 
L 235.772807 325.089219 
L 235.772807 320.986982 
L 236.278172 319.74787 
L 236.278172 314.318018 
L 239.133323 313.352072 
L 239.133323 306.983808 
L 246.780655 306.039176 
L 246.780655 303.005647 
L 247.625455 301.915616 
L 247.625455 294.609368 
L 259.734019 293.322968 
L 259.734019 284.879839 
L 266.548923 283.835526 
L 266.548923 281.89203 
L 266.921371 280.992891 
L 266.921371 276.276021 
L 269.043998 275.539 
L 269.043998 269.941876 
L 271.312364 269.036758 
L 271.312364 267.145823 
L 275.529132 266.163514 
L 275.529132 258.897587 
L 285.161102 257.856169 
L 285.161102 252.909469 
L 294.71962 252.000005 
L 294.71962 247.284368 
L 314.836364 246.626825 
L 314.836364 244.864602 
L 342.090297 244.341153 
L 342.090297 242.941731 
L 342.316525 242.529237 
L 342.316525 240.793716 
L 343.614455 240.497711 
L 343.614455 238.728795 
L 347.668357 238.382144 
L 347.668357 234.652298 
L 353.921368 233.873076 
L 353.921368 226.565227 
L 360.379035 225.298581 
L 360.379035 215.705058 
L 374.692931 214.323577 
L 374.692931 206.696143 
L 421.668 205.594259 
L 421.668 202.658674 
L 477.318684 201.811425 
L 477.318684 200.315814 
L 477.451507 199.664369 
L 477.451507 197.250416 
L 478.215523 196.905562 
L 478.215523 195.299457 
L 480.623263 195.048036 
L 480.623263 193.1068 
L 484.399494 192.665216 
L 484.399494 188.208979 
L 488.376375 187.363387 
L 488.376375 181.319812 
L 497.457093 180.194009 
L 497.457093 172.405026 
L 529.53107 171.429135 
L 529.53107 167.243349 
L 612.909818 166.894284 
L 612.909818 166.533374 
L 616.277508 166.533374 
L 616.277508 166.644402 
L 616.37076 166.868842 
L 616.37076 169.472554 
L 616.907527 170.212905 
L 616.907527 175.193412 
L 618.603232 175.597331 
L 618.603232 175.861293 
L 618.603232 174.201464 
L 621.275216 173.436506 
L 621.275216 166.362386 
L 624.105412 165.295516 
L 624.105412 158.414138 
L 630.628694 157.505835 
L 630.628694 151.291303 
L 654.303283 150.415008 
L 654.303283 144.783711 
L 719.70558 144.112369 
L 719.70558 140.952849 
L 809.427273 140.752059 
L 809.427273 140.550163 
L 809.427273 140.550163 
" style="fill:none;stroke:#660000;stroke-linecap:square;stroke-width:1.5;"/>
   </g>
   <g id="line2d_70">
    <path clip-path="url(#pef33e51ffe)" d="M 149.972727 605.031775 
L 159.298823 603.404353 
L 159.298823 598.184345 
L 163.161818 594.684758 
L 163.161818 590.802117 
L 174.220576 586.634209 
L 174.220576 577.755148 
L 175.952223 573.191123 
L 175.952223 550.688863 
L 184.264364 546.293231 
L 184.264364 533.755416 
L 196.603205 529.797159 
L 196.603205 518.472682 
L 197.526671 514.873086 
L 197.526671 497.720664 
L 202.530882 494.353708 
L 202.530882 476.737528 
L 215.918182 472.9646 
L 215.918182 461.175804 
L 218.426269 457.129039 
L 218.426269 449.101771 
L 219.058641 445.164039 
L 219.058641 424.72072 
L 222.593975 422.055925 
L 222.593975 412.487349 
L 232.799588 411.28726 
L 232.799588 407.702902 
L 235.772807 407.214472 
L 235.772807 405.436341 
L 236.278172 404.599302 
L 236.278172 397.608132 
L 239.133323 395.689738 
L 239.133323 380.744794 
L 246.780655 378.721516 
L 246.780655 373.209962 
L 247.625455 371.575462 
L 247.625455 363.89473 
L 259.734019 362.943058 
L 259.734019 358.186106 
L 266.548923 357.685575 
L 266.548923 356.704382 
L 266.921371 356.201565 
L 266.921371 351.971165 
L 269.043998 350.923496 
L 269.043998 340.091985 
L 271.312364 338.129429 
L 271.312364 334.045698 
L 275.529132 331.96334 
L 275.529132 318.250301 
L 285.161102 316.584562 
L 285.161102 309.893955 
L 294.71962 308.905367 
L 294.71962 305.270217 
L 314.836364 304.992523 
L 314.836364 304.553253 
L 342.316525 304.419251 
L 342.316525 303.782824 
L 343.614455 303.483508 
L 343.614455 299.800336 
L 347.668357 298.815167 
L 347.668357 288.486694 
L 353.921368 286.549633 
L 353.921368 271.27237 
L 360.379035 269.043315 
L 360.379035 255.210386 
L 374.692931 253.616086 
L 374.692931 246.551068 
L 421.668 245.791665 
L 421.668 244.154794 
L 477.318684 243.800838 
L 477.318684 243.334069 
L 477.451507 243.077285 
L 477.451507 243.077285 
L 478.215523 243.162744 
L 478.215523 243.017973 
L 478.215523 242.883066 
L 480.623263 242.693849 
L 480.623263 240.169685 
L 484.399494 239.473003 
L 484.399494 232.10282 
L 488.376375 230.716564 
L 488.376375 221.337832 
L 497.457093 219.705652 
L 497.457093 209.487957 
L 529.53107 208.358789 
L 529.53107 204.27162 
L 616.277508 204.156381 
L 616.37076 209.244924 
L 616.907527 210.195537 
L 616.907527 215.395626 
L 618.603232 215.561183 
L 618.603232 212.324802 
L 621.275216 211.241611 
L 621.275216 201.508979 
L 624.105412 199.931199 
L 624.105412 187.984782 
L 630.628694 186.147554 
L 630.628694 172.829729 
L 654.303283 170.956978 
L 654.303283 159.439185 
L 719.70558 158.127099 
L 719.70558 152.0879 
L 809.427273 151.709524 
L 809.427273 151.330149 
L 809.427273 151.330149 
" style="fill:none;stroke:#800000;stroke-linecap:square;stroke-width:1.5;"/>
   </g>
   <g id="line2d_71">
    <path clip-path="url(#pef33e51ffe)" d="M 149.972727 605.290909 
L 159.298823 605.16198 
L 159.298823 604.719663 
L 163.161818 604.411308 
L 163.161818 604.050205 
L 174.220576 603.638185 
L 174.220576 602.675308 
L 175.952223 602.131167 
L 175.952223 598.82917 
L 184.264364 598.062946 
L 184.264364 595.595389 
L 196.603205 594.731227 
L 196.603205 592.103831 
L 197.526671 591.244652 
L 197.526671 587.462233 
L 202.530882 586.859334 
L 202.530882 584.803028 
L 215.918182 584.575416 
L 215.918182 584.187844 
L 222.593975 583.911356 
L 222.593975 581.861114 
L 232.799588 580.96493 
L 232.799588 572.49643 
L 235.772807 569.946009 
L 235.772807 560.915947 
L 236.278172 557.568486 
L 236.278172 540.189071 
L 239.133323 536.829565 
L 239.133323 516.653276 
L 246.780655 514.314602 
L 246.780655 508.110115 
L 247.625455 506.308956 
L 247.625455 498.410511 
L 259.734019 497.6073 
L 259.734019 495.97137 
L 259.734019 495.97137 
L 266.548923 496.112679 
L 266.548923 496.795606 
L 266.921371 497.299908 
L 266.921371 500.458754 
L 269.043998 500.157465 
L 269.043998 490.409275 
L 271.312364 488.282967 
L 271.312364 483.839307 
L 275.529132 481.58052 
L 275.529132 466.504067 
L 285.161102 464.539404 
L 285.161102 455.611503 
L 294.71962 454.035169 
L 294.71962 446.193412 
L 314.836364 445.126951 
L 314.836364 442.104898 
L 342.090297 441.088347 
L 342.090297 437.582064 
L 342.316525 436.207661 
L 342.316525 426.845412 
L 343.614455 424.451562 
L 343.614455 407.026801 
L 347.668357 403.739616 
L 347.668357 378.899686 
L 353.921368 375.20215 
L 353.921368 350.138489 
L 360.379035 346.878965 
L 360.379035 328.38487 
L 374.692931 326.483995 
L 374.692931 319.347839 
L 421.668 318.844595 
L 421.668 318.336727 
L 477.318684 318.336727 
L 477.318684 318.336727 
L 477.318684 318.454004 
L 477.451507 318.689539 
L 477.451507 320.887609 
L 478.215523 321.381554 
L 478.215523 323.031861 
L 478.215523 322.864402 
L 480.623263 322.565316 
L 480.623263 317.831119 
L 484.399494 316.513236 
L 484.399494 303.232224 
L 488.376375 300.884386 
L 488.376375 286.260586 
L 497.457093 283.932543 
L 497.457093 270.89169 
L 529.53107 269.65447 
L 529.53107 266.301642 
L 612.909818 266.301642 
L 612.909818 266.301642 
L 612.909818 266.79666 
L 616.277508 267.339061 
L 616.37076 277.309557 
L 616.907527 278.949182 
L 616.907527 287.741557 
L 618.603232 288.043702 
L 618.603232 283.048522 
L 621.275216 281.405696 
L 621.275216 266.651879 
L 624.105412 264.190839 
L 624.105412 244.389751 
L 630.628694 241.176424 
L 630.628694 217.100845 
L 654.303283 213.643417 
L 654.303283 192.104829 
L 719.70558 189.617986 
L 719.70558 178.05023 
L 809.427273 177.317185 
L 809.427273 176.581394 
L 809.427273 176.581394 
" style="fill:none;stroke:#990000;stroke-linecap:square;stroke-width:1.5;"/>
   </g>
   <g id="line2d_72">
    <path clip-path="url(#pef33e51ffe)" d="M 149.972727 547.467318 
L 163.161818 547.535575 
L 163.161818 547.586046 
L 174.220576 547.738479 
L 174.220576 547.845968 
L 175.952223 547.977681 
L 175.952223 549.048718 
L 184.264364 549.347606 
L 184.264364 550.389429 
L 196.603205 550.775032 
L 196.603205 551.993191 
L 197.526671 552.403641 
L 197.526671 554.234703 
L 202.530882 554.513439 
L 202.530882 555.054267 
L 202.530882 554.902456 
L 215.918182 554.691037 
L 215.918182 553.673253 
L 218.426269 553.229058 
L 218.426269 552.240946 
L 219.058641 551.720134 
L 219.058641 548.9849 
L 222.593975 548.689984 
L 222.593975 548.196873 
L 222.593975 548.196873 
L 232.799588 548.248483 
L 232.799588 549.042351 
L 235.772807 549.350973 
L 235.772807 550.394073 
L 236.278172 550.748324 
L 236.278172 552.219204 
L 239.133323 552.420304 
L 239.133323 552.956923 
L 239.133323 552.930343 
L 246.780655 552.788588 
L 246.780655 552.727614 
L 247.625455 552.595577 
L 247.625455 552.302675 
L 259.734019 552.24229 
L 259.734019 552.313464 
L 266.548923 552.424824 
L 266.548923 552.490149 
L 266.921371 552.667106 
L 266.921371 552.492487 
L 266.921371 552.33728 
L 269.043998 552.133746 
L 269.043998 549.51364 
L 271.312364 549.031871 
L 271.312364 548.0628 
L 275.529132 547.59212 
L 275.529132 545.152283 
L 285.161102 544.977164 
L 285.161102 544.734753 
L 285.161102 544.734753 
L 294.71962 544.791955 
L 294.71962 545.414878 
L 314.836364 545.564703 
L 314.836364 545.924687 
L 342.090297 545.996324 
L 342.090297 545.93121 
L 342.090297 545.839557 
L 342.316525 545.607057 
L 342.316525 545.200746 
L 343.614455 545.169493 
L 343.614455 545.24851 
L 343.614455 545.548305 
L 347.668357 545.784892 
L 347.668357 548.565974 
L 353.921368 548.997815 
L 353.921368 550.420072 
L 353.921368 550.149956 
L 360.379035 549.869543 
L 360.379035 546.314674 
L 374.692931 545.69971 
L 374.692931 542.312737 
L 421.668 541.855422 
L 421.668 540.754889 
L 477.318684 540.48909 
L 477.318684 540.122323 
L 477.451507 539.984034 
L 477.451507 540.04207 
L 478.215523 540.154117 
L 478.215523 541.291021 
L 480.623263 541.066858 
L 480.623263 532.584582 
L 484.399494 529.369184 
L 484.399494 491.341458 
L 488.376375 484.542446 
L 488.376375 444.097513 
L 497.457093 437.873847 
L 497.457093 401.72958 
L 529.53107 397.764943 
L 529.53107 380.792261 
L 612.909818 379.117464 
L 612.909818 376.064497 
L 616.37076 375.653244 
L 616.37076 379.982744 
L 616.907527 381.672055 
L 616.907527 397.914448 
L 618.603232 400.150558 
L 618.603232 404.937839 
L 618.603232 402.259155 
L 621.275216 399.689579 
L 621.275216 363.887986 
L 624.105412 357.038161 
L 624.105412 304.958941 
L 630.628694 297.492112 
L 630.628694 249.754565 
L 654.303283 243.833715 
L 654.303283 210.366766 
L 719.70558 206.801012 
L 719.70558 190.813075 
L 809.427273 189.829299 
L 809.427273 188.84502 
L 809.427273 188.84502 
" style="fill:none;stroke:#b20000;stroke-linecap:square;stroke-width:1.5;"/>
   </g>
   <g id="line2d_73">
    <path clip-path="url(#pef33e51ffe)" d="M 149.972727 525.966461 
L 159.298823 525.872899 
L 159.298823 525.567041 
L 163.161818 525.368293 
L 163.161818 525.150339 
L 174.220576 524.922223 
L 174.220576 524.469092 
L 175.952223 524.260086 
L 175.952223 523.591997 
L 196.603205 523.520569 
L 196.603205 523.560545 
L 196.603205 523.589486 
L 197.526671 523.63928 
L 197.526671 523.571317 
L 197.526671 523.419508 
L 202.530882 523.313488 
L 202.530882 522.636342 
L 215.918182 522.505576 
L 215.918182 522.221594 
L 219.058641 522.176652 
L 219.058641 522.210737 
L 219.058641 523.025993 
L 222.593975 523.31409 
L 222.593975 525.128126 
L 232.799588 525.510226 
L 232.799588 527.05125 
L 235.772807 527.242824 
L 235.772807 527.556335 
L 236.278172 527.575435 
L 236.278172 527.504898 
L 239.133323 527.504898 
L 239.133323 527.566086 
L 239.133323 528.171198 
L 246.780655 528.345665 
L 246.780655 528.832529 
L 247.625455 529.032457 
L 247.625455 528.858093 
L 247.625455 528.164026 
L 259.734019 527.84564 
L 259.734019 525.250505 
L 266.548923 524.924853 
L 266.548923 524.364053 
L 266.921371 524.135771 
L 266.921371 523.528292 
L 269.043998 523.528292 
L 269.043998 523.594772 
L 269.043998 524.025686 
L 271.312364 524.176007 
L 271.312364 524.500872 
L 275.529132 524.667914 
L 275.529132 525.631922 
L 285.161102 525.796827 
L 285.161102 526.005106 
L 314.836364 526.028787 
L 314.836364 525.737438 
L 342.090297 525.590709 
L 342.090297 525.013078 
L 342.316525 524.785672 
L 342.316525 523.593317 
L 343.614455 523.380194 
L 343.614455 522.539042 
L 347.668357 522.363 
L 347.668357 522.103297 
L 353.921368 521.933318 
L 353.921368 521.156061 
L 360.379035 521.005217 
L 360.379035 519.943576 
L 374.692931 519.784839 
L 374.692931 518.641575 
L 421.668 518.413174 
L 421.668 517.69589 
L 477.318684 517.460215 
L 477.318684 517.024325 
L 477.451507 516.674748 
L 477.451507 516.384731 
L 478.215523 516.384731 
L 478.215523 516.483147 
L 478.215523 516.904822 
L 480.623263 517.100015 
L 480.623263 518.370135 
L 484.399494 518.540151 
L 484.399494 519.08501 
L 488.376375 519.091674 
L 488.376375 518.981875 
L 497.457093 518.868467 
L 497.457093 517.984864 
L 529.53107 517.754891 
L 529.53107 516.347354 
L 612.909818 516.09294 
L 612.909818 516.049229 
L 612.909818 516.049229 
L 616.277508 516.049229 
L 616.277508 516.072705 
L 616.37076 518.385977 
L 616.907527 518.997774 
L 616.907527 523.711445 
L 618.603232 524.247504 
L 618.603232 525.49527 
L 618.603232 492.064594 
L 621.275216 482.137088 
L 621.275216 392.080544 
L 624.105412 379.269731 
L 624.105412 298.513139 
L 630.628694 288.432061 
L 630.628694 228.557787 
L 654.303283 221.530387 
L 654.303283 182.889595 
L 719.70558 178.862696 
L 719.70558 160.979617 
L 809.427273 159.887781 
L 809.427273 158.79631 
L 809.427273 158.79631 
" style="fill:none;stroke:#cc0000;stroke-linecap:square;stroke-width:1.5;"/>
   </g>
   <g id="line2d_74">
    <path clip-path="url(#pef33e51ffe)" d="M 149.972727 515.116773 
L 163.161818 515.014933 
L 163.161818 514.976806 
L 174.220576 514.840678 
L 175.952223 514.730317 
L 175.952223 514.402146 
L 184.264364 514.279167 
L 184.264364 513.759999 
L 196.603205 513.526831 
L 196.603205 512.618551 
L 197.526671 512.245638 
L 197.526671 509.928177 
L 202.530882 509.396402 
L 202.530882 506.650063 
L 215.918182 506.120596 
L 215.918182 504.671484 
L 218.426269 504.253911 
L 218.426269 503.549953 
L 219.058641 503.272707 
L 219.058641 502.747012 
L 219.058641 502.747012 
L 222.593975 502.854374 
L 222.593975 503.723777 
L 232.799588 504.042748 
L 232.799588 505.764031 
L 235.772807 506.056007 
L 235.772807 506.66211 
L 236.278172 506.759902 
L 236.278172 506.683301 
L 236.278172 506.3719 
L 239.133323 506.187709 
L 239.133323 506.384264 
L 246.780655 506.55577 
L 246.780655 507.357889 
L 247.625455 507.700355 
L 247.625455 509.786546 
L 259.734019 510.035424 
L 259.734019 510.466064 
L 259.734019 510.062036 
L 266.548923 509.901111 
L 266.548923 509.561559 
L 266.921371 509.394234 
L 266.921371 508.534057 
L 269.043998 508.411902 
L 269.043998 507.616329 
L 271.312364 507.429457 
L 271.312364 507.35185 
L 285.161102 507.225459 
L 285.161102 507.476029 
L 294.71962 507.618226 
L 294.71962 507.445748 
L 314.836364 507.341779 
L 314.836364 506.899975 
L 342.090297 506.716757 
L 342.090297 506.121141 
L 342.316525 505.929013 
L 342.316525 505.33578 
L 343.614455 505.33578 
L 343.614455 505.39295 
L 343.614455 505.890775 
L 347.668357 506.165355 
L 347.668357 508.978128 
L 353.921368 509.387564 
L 353.921368 510.880162 
L 353.921368 510.804922 
L 360.379035 510.665738 
L 360.379035 508.754416 
L 374.692931 508.427497 
L 374.692931 506.571798 
L 421.668 506.288611 
L 421.668 505.483686 
L 477.318684 505.23019 
L 477.318684 504.749909 
L 477.451507 504.31412 
L 477.451507 503.648405 
L 478.215523 503.455088 
L 478.215523 503.364352 
L 478.215523 503.364352 
L 480.623263 503.490166 
L 480.623263 503.834934 
L 484.399494 503.992824 
L 484.399494 504.071078 
L 484.399494 503.658631 
L 488.376375 503.471309 
L 488.376375 501.791072 
L 497.457093 501.453116 
L 497.457093 499.299897 
L 529.53107 499.093724 
L 529.53107 498.756124 
L 529.53107 498.756124 
L 612.909818 498.818014 
L 612.909818 499.416139 
L 616.277508 499.757714 
L 616.37076 504.79751 
L 616.907527 505.619916 
L 616.907527 508.853723 
L 616.907527 501.012981 
L 618.603232 497.138218 
L 618.603232 436.533403 
L 621.275216 423.717381 
L 621.275216 331.942247 
L 624.105412 319.829538 
L 624.105412 244.008422 
L 630.628694 234.52544 
L 630.628694 177.892776 
L 654.303283 171.206117 
L 654.303283 134.276877 
L 719.70558 130.412298 
L 719.70558 113.213056 
L 809.427273 112.16101 
L 809.427273 111.109091 
L 809.427273 111.109091 
" style="fill:none;stroke:#e60000;stroke-linecap:square;stroke-width:1.5;"/>
   </g>
   <g id="patch_3">
    <path d="M 117 630 
L 117 86.4 
" style="fill:none;stroke:#000000;stroke-linecap:square;stroke-linejoin:miter;stroke-width:0.8;"/>
   </g>
   <g id="patch_4">
    <path d="M 842.4 630 
L 842.4 86.4 
" style="fill:none;stroke:#000000;stroke-linecap:square;stroke-linejoin:miter;stroke-width:0.8;"/>
   </g>
   <g id="patch_5">
    <path d="M 117 630 
L 842.4 630 
" style="fill:none;stroke:#000000;stroke-linecap:square;stroke-linejoin:miter;stroke-width:0.8;"/>
   </g>
   <g id="patch_6">
    <path d="M 117 86.4 
L 842.4 86.4 
" style="fill:none;stroke:#000000;stroke-linecap:square;stroke-linejoin:miter;stroke-width:0.8;"/>
   </g>
   <g id="text_17">
    <!-- X,Y shift estimation error with regard to learning_rate -->
    <defs>
     <path d="M 6.296875 72.90625 
L 16.890625 72.90625 
L 35.015625 45.796875 
L 53.21875 72.90625 
L 63.8125 72.90625 
L 40.375 37.890625 
L 65.375 0 
L 54.78125 0 
L 34.28125 31 
L 13.625 0 
L 2.984375 0 
L 29 38.921875 
z
" id="DejaVuSans-88"/>
     <path d="M 11.71875 12.40625 
L 22.015625 12.40625 
L 22.015625 4 
L 14.015625 -11.625 
L 7.71875 -11.625 
L 11.71875 4 
z
" id="DejaVuSans-44"/>
     <path d="M -0.203125 72.90625 
L 10.40625 72.90625 
L 30.609375 42.921875 
L 50.6875 72.90625 
L 61.28125 72.90625 
L 35.5 34.71875 
L 35.5 0 
L 25.59375 0 
L 25.59375 34.71875 
z
" id="DejaVuSans-89"/>
     <path d="M 4.203125 54.6875 
L 13.1875 54.6875 
L 24.421875 12.015625 
L 35.59375 54.6875 
L 46.1875 54.6875 
L 57.421875 12.015625 
L 68.609375 54.6875 
L 77.59375 54.6875 
L 63.28125 0 
L 52.6875 0 
L 40.921875 44.828125 
L 29.109375 0 
L 18.5 0 
z
" id="DejaVuSans-119"/>
    </defs>
    <g transform="translate(318.5625 80.4)scale(0.12 -0.12)">
     <use xlink:href="#DejaVuSans-88"/>
     <use x="68.505859" xlink:href="#DejaVuSans-44"/>
     <use x="100.292969" xlink:href="#DejaVuSans-89"/>
     <use x="161.376953" xlink:href="#DejaVuSans-32"/>
     <use x="193.164062" xlink:href="#DejaVuSans-115"/>
     <use x="245.263672" xlink:href="#DejaVuSans-104"/>
     <use x="308.642578" xlink:href="#DejaVuSans-105"/>
     <use x="336.425781" xlink:href="#DejaVuSans-102"/>
     <use x="371.615234" xlink:href="#DejaVuSans-116"/>
     <use x="410.824219" xlink:href="#DejaVuSans-32"/>
     <use x="442.611328" xlink:href="#DejaVuSans-101"/>
     <use x="504.134766" xlink:href="#DejaVuSans-115"/>
     <use x="556.234375" xlink:href="#DejaVuSans-116"/>
     <use x="595.443359" xlink:href="#DejaVuSans-105"/>
     <use x="623.226562" xlink:href="#DejaVuSans-109"/>
     <use x="720.638672" xlink:href="#DejaVuSans-97"/>
     <use x="781.917969" xlink:href="#DejaVuSans-116"/>
     <use x="821.126953" xlink:href="#DejaVuSans-105"/>
     <use x="848.910156" xlink:href="#DejaVuSans-111"/>
     <use x="910.091797" xlink:href="#DejaVuSans-110"/>
     <use x="973.470703" xlink:href="#DejaVuSans-32"/>
     <use x="1005.257812" xlink:href="#DejaVuSans-101"/>
     <use x="1066.78125" xlink:href="#DejaVuSans-114"/>
     <use x="1107.878906" xlink:href="#DejaVuSans-114"/>
     <use x="1148.960938" xlink:href="#DejaVuSans-111"/>
     <use x="1210.142578" xlink:href="#DejaVuSans-114"/>
     <use x="1251.255859" xlink:href="#DejaVuSans-32"/>
     <use x="1283.042969" xlink:href="#DejaVuSans-119"/>
     <use x="1364.830078" xlink:href="#DejaVuSans-105"/>
     <use x="1392.613281" xlink:href="#DejaVuSans-116"/>
     <use x="1431.822266" xlink:href="#DejaVuSans-104"/>
     <use x="1495.201172" xlink:href="#DejaVuSans-32"/>
     <use x="1526.988281" xlink:href="#DejaVuSans-114"/>
     <use x="1568.070312" xlink:href="#DejaVuSans-101"/>
     <use x="1629.59375" xlink:href="#DejaVuSans-103"/>
     <use x="1693.070312" xlink:href="#DejaVuSans-97"/>
     <use x="1754.349609" xlink:href="#DejaVuSans-114"/>
     <use x="1795.447266" xlink:href="#DejaVuSans-100"/>
     <use x="1858.923828" xlink:href="#DejaVuSans-32"/>
     <use x="1890.710938" xlink:href="#DejaVuSans-116"/>
     <use x="1929.919922" xlink:href="#DejaVuSans-111"/>
     <use x="1991.101562" xlink:href="#DejaVuSans-32"/>
     <use x="2022.888672" xlink:href="#DejaVuSans-108"/>
     <use x="2050.671875" xlink:href="#DejaVuSans-101"/>
     <use x="2112.195312" xlink:href="#DejaVuSans-97"/>
     <use x="2173.474609" xlink:href="#DejaVuSans-114"/>
     <use x="2214.572266" xlink:href="#DejaVuSans-110"/>
     <use x="2277.951172" xlink:href="#DejaVuSans-105"/>
     <use x="2305.734375" xlink:href="#DejaVuSans-110"/>
     <use x="2369.113281" xlink:href="#DejaVuSans-103"/>
     <use x="2432.589844" xlink:href="#DejaVuSans-95"/>
     <use x="2482.589844" xlink:href="#DejaVuSans-114"/>
     <use x="2523.703125" xlink:href="#DejaVuSans-97"/>
     <use x="2584.982422" xlink:href="#DejaVuSans-116"/>
     <use x="2624.191406" xlink:href="#DejaVuSans-101"/>
    </g>
   </g>
   <g id="legend_1">
    <g id="patch_7">
     <path d="M 124 299.89375 
L 192.460938 299.89375 
Q 194.460938 299.89375 194.460938 297.89375 
L 194.460938 93.4 
Q 194.460938 91.4 192.460938 91.4 
L 124 91.4 
Q 122 91.4 122 93.4 
L 122 297.89375 
Q 122 299.89375 124 299.89375 
z
" style="fill:#ffffff;opacity:0.8;stroke:#cccccc;stroke-linejoin:miter;"/>
    </g>
    <g id="text_18">
     <!-- learning rate -->
     <g transform="translate(126 102.998438)scale(0.1 -0.1)">
      <use xlink:href="#DejaVuSans-108"/>
      <use x="27.783203" xlink:href="#DejaVuSans-101"/>
      <use x="89.306641" xlink:href="#DejaVuSans-97"/>
      <use x="150.585938" xlink:href="#DejaVuSans-114"/>
      <use x="191.683594" xlink:href="#DejaVuSans-110"/>
      <use x="255.0625" xlink:href="#DejaVuSans-105"/>
      <use x="282.845703" xlink:href="#DejaVuSans-110"/>
      <use x="346.224609" xlink:href="#DejaVuSans-103"/>
      <use x="409.701172" xlink:href="#DejaVuSans-32"/>
      <use x="441.488281" xlink:href="#DejaVuSans-114"/>
      <use x="482.601562" xlink:href="#DejaVuSans-97"/>
      <use x="543.880859" xlink:href="#DejaVuSans-116"/>
      <use x="583.089844" xlink:href="#DejaVuSans-101"/>
     </g>
    </g>
    <g id="line2d_75">
     <path d="M 129.916406 114.176563 
L 149.916406 114.176563 
" style="fill:none;stroke:#000000;stroke-linecap:square;stroke-width:1.5;"/>
    </g>
    <g id="line2d_76"/>
    <g id="text_19">
     <!-- 0.001 -->
     <defs>
      <path d="M 10.6875 12.40625 
L 21 12.40625 
L 21 0 
L 10.6875 0 
z
" id="DejaVuSans-46"/>
     </defs>
     <g transform="translate(157.916406 117.676563)scale(0.1 -0.1)">
      <use xlink:href="#DejaVuSans-48"/>
      <use x="63.623047" xlink:href="#DejaVuSans-46"/>
      <use x="95.410156" xlink:href="#DejaVuSans-48"/>
      <use x="159.033203" xlink:href="#DejaVuSans-48"/>
      <use x="222.65625" xlink:href="#DejaVuSans-49"/>
     </g>
    </g>
    <g id="line2d_77">
     <path d="M 129.916406 128.854688 
L 149.916406 128.854688 
" style="fill:none;stroke:#010000;stroke-linecap:square;stroke-width:1.5;"/>
    </g>
    <g id="line2d_78"/>
    <g id="text_20">
     <!-- 0.005 -->
     <g transform="translate(157.916406 132.354688)scale(0.1 -0.1)">
      <use xlink:href="#DejaVuSans-48"/>
      <use x="63.623047" xlink:href="#DejaVuSans-46"/>
      <use x="95.410156" xlink:href="#DejaVuSans-48"/>
      <use x="159.033203" xlink:href="#DejaVuSans-48"/>
      <use x="222.65625" xlink:href="#DejaVuSans-53"/>
     </g>
    </g>
    <g id="line2d_79">
     <path d="M 129.916406 143.532813 
L 149.916406 143.532813 
" style="fill:none;stroke:#030000;stroke-linecap:square;stroke-width:1.5;"/>
    </g>
    <g id="line2d_80"/>
    <g id="text_21">
     <!-- 0.01 -->
     <g transform="translate(157.916406 147.032813)scale(0.1 -0.1)">
      <use xlink:href="#DejaVuSans-48"/>
      <use x="63.623047" xlink:href="#DejaVuSans-46"/>
      <use x="95.410156" xlink:href="#DejaVuSans-48"/>
      <use x="159.033203" xlink:href="#DejaVuSans-49"/>
     </g>
    </g>
    <g id="line2d_81">
     <path d="M 129.916406 158.210938 
L 149.916406 158.210938 
" style="fill:none;stroke:#0d0000;stroke-linecap:square;stroke-width:1.5;"/>
    </g>
    <g id="line2d_82"/>
    <g id="text_22">
     <!-- 0.05 -->
     <g transform="translate(157.916406 161.710938)scale(0.1 -0.1)">
      <use xlink:href="#DejaVuSans-48"/>
      <use x="63.623047" xlink:href="#DejaVuSans-46"/>
      <use x="95.410156" xlink:href="#DejaVuSans-48"/>
      <use x="159.033203" xlink:href="#DejaVuSans-53"/>
     </g>
    </g>
    <g id="line2d_83">
     <path d="M 129.916406 172.889063 
L 149.916406 172.889063 
" style="fill:none;stroke:#1a0000;stroke-linecap:square;stroke-width:1.5;"/>
    </g>
    <g id="line2d_84"/>
    <g id="text_23">
     <!-- 0.1 -->
     <g transform="translate(157.916406 176.389063)scale(0.1 -0.1)">
      <use xlink:href="#DejaVuSans-48"/>
      <use x="63.623047" xlink:href="#DejaVuSans-46"/>
      <use x="95.410156" xlink:href="#DejaVuSans-49"/>
     </g>
    </g>
    <g id="line2d_85">
     <path d="M 129.916406 187.567188 
L 149.916406 187.567188 
" style="fill:none;stroke:#330000;stroke-linecap:square;stroke-width:1.5;"/>
    </g>
    <g id="line2d_86"/>
    <g id="text_24">
     <!-- 0.2 -->
     <g transform="translate(157.916406 191.067188)scale(0.1 -0.1)">
      <use xlink:href="#DejaVuSans-48"/>
      <use x="63.623047" xlink:href="#DejaVuSans-46"/>
      <use x="95.410156" xlink:href="#DejaVuSans-50"/>
     </g>
    </g>
    <g id="line2d_87">
     <path d="M 129.916406 202.245313 
L 149.916406 202.245313 
" style="fill:none;stroke:#4c0000;stroke-linecap:square;stroke-width:1.5;"/>
    </g>
    <g id="line2d_88"/>
    <g id="text_25">
     <!-- 0.3 -->
     <g transform="translate(157.916406 205.745313)scale(0.1 -0.1)">
      <use xlink:href="#DejaVuSans-48"/>
      <use x="63.623047" xlink:href="#DejaVuSans-46"/>
      <use x="95.410156" xlink:href="#DejaVuSans-51"/>
     </g>
    </g>
    <g id="line2d_89">
     <path d="M 129.916406 216.923438 
L 149.916406 216.923438 
" style="fill:none;stroke:#660000;stroke-linecap:square;stroke-width:1.5;"/>
    </g>
    <g id="line2d_90"/>
    <g id="text_26">
     <!-- 0.4 -->
     <g transform="translate(157.916406 220.423438)scale(0.1 -0.1)">
      <use xlink:href="#DejaVuSans-48"/>
      <use x="63.623047" xlink:href="#DejaVuSans-46"/>
      <use x="95.410156" xlink:href="#DejaVuSans-52"/>
     </g>
    </g>
    <g id="line2d_91">
     <path d="M 129.916406 231.601563 
L 149.916406 231.601563 
" style="fill:none;stroke:#800000;stroke-linecap:square;stroke-width:1.5;"/>
    </g>
    <g id="line2d_92"/>
    <g id="text_27">
     <!-- 0.5 -->
     <g transform="translate(157.916406 235.101563)scale(0.1 -0.1)">
      <use xlink:href="#DejaVuSans-48"/>
      <use x="63.623047" xlink:href="#DejaVuSans-46"/>
      <use x="95.410156" xlink:href="#DejaVuSans-53"/>
     </g>
    </g>
    <g id="line2d_93">
     <path d="M 129.916406 246.279688 
L 149.916406 246.279688 
" style="fill:none;stroke:#990000;stroke-linecap:square;stroke-width:1.5;"/>
    </g>
    <g id="line2d_94"/>
    <g id="text_28">
     <!-- 0.6 -->
     <g transform="translate(157.916406 249.779688)scale(0.1 -0.1)">
      <use xlink:href="#DejaVuSans-48"/>
      <use x="63.623047" xlink:href="#DejaVuSans-46"/>
      <use x="95.410156" xlink:href="#DejaVuSans-54"/>
     </g>
    </g>
    <g id="line2d_95">
     <path d="M 129.916406 260.957813 
L 149.916406 260.957813 
" style="fill:none;stroke:#b20000;stroke-linecap:square;stroke-width:1.5;"/>
    </g>
    <g id="line2d_96"/>
    <g id="text_29">
     <!-- 0.7 -->
     <g transform="translate(157.916406 264.457813)scale(0.1 -0.1)">
      <use xlink:href="#DejaVuSans-48"/>
      <use x="63.623047" xlink:href="#DejaVuSans-46"/>
      <use x="95.410156" xlink:href="#DejaVuSans-55"/>
     </g>
    </g>
    <g id="line2d_97">
     <path d="M 129.916406 275.635938 
L 149.916406 275.635938 
" style="fill:none;stroke:#cc0000;stroke-linecap:square;stroke-width:1.5;"/>
    </g>
    <g id="line2d_98"/>
    <g id="text_30">
     <!-- 0.8 -->
     <defs>
      <path d="M 31.78125 34.625 
Q 24.75 34.625 20.71875 30.859375 
Q 16.703125 27.09375 16.703125 20.515625 
Q 16.703125 13.921875 20.71875 10.15625 
Q 24.75 6.390625 31.78125 6.390625 
Q 38.8125 6.390625 42.859375 10.171875 
Q 46.921875 13.96875 46.921875 20.515625 
Q 46.921875 27.09375 42.890625 30.859375 
Q 38.875 34.625 31.78125 34.625 
z
M 21.921875 38.8125 
Q 15.578125 40.375 12.03125 44.71875 
Q 8.5 49.078125 8.5 55.328125 
Q 8.5 64.0625 14.71875 69.140625 
Q 20.953125 74.21875 31.78125 74.21875 
Q 42.671875 74.21875 48.875 69.140625 
Q 55.078125 64.0625 55.078125 55.328125 
Q 55.078125 49.078125 51.53125 44.71875 
Q 48 40.375 41.703125 38.8125 
Q 48.828125 37.15625 52.796875 32.3125 
Q 56.78125 27.484375 56.78125 20.515625 
Q 56.78125 9.90625 50.3125 4.234375 
Q 43.84375 -1.421875 31.78125 -1.421875 
Q 19.734375 -1.421875 13.25 4.234375 
Q 6.78125 9.90625 6.78125 20.515625 
Q 6.78125 27.484375 10.78125 32.3125 
Q 14.796875 37.15625 21.921875 38.8125 
z
M 18.3125 54.390625 
Q 18.3125 48.734375 21.84375 45.5625 
Q 25.390625 42.390625 31.78125 42.390625 
Q 38.140625 42.390625 41.71875 45.5625 
Q 45.3125 48.734375 45.3125 54.390625 
Q 45.3125 60.0625 41.71875 63.234375 
Q 38.140625 66.40625 31.78125 66.40625 
Q 25.390625 66.40625 21.84375 63.234375 
Q 18.3125 60.0625 18.3125 54.390625 
z
" id="DejaVuSans-56"/>
     </defs>
     <g transform="translate(157.916406 279.135938)scale(0.1 -0.1)">
      <use xlink:href="#DejaVuSans-48"/>
      <use x="63.623047" xlink:href="#DejaVuSans-46"/>
      <use x="95.410156" xlink:href="#DejaVuSans-56"/>
     </g>
    </g>
    <g id="line2d_99">
     <path d="M 129.916406 290.314062 
L 149.916406 290.314062 
" style="fill:none;stroke:#e60000;stroke-linecap:square;stroke-width:1.5;"/>
    </g>
    <g id="line2d_100"/>
    <g id="text_31">
     <!-- 0.9 -->
     <defs>
      <path d="M 10.984375 1.515625 
L 10.984375 10.5 
Q 14.703125 8.734375 18.5 7.8125 
Q 22.3125 6.890625 25.984375 6.890625 
Q 35.75 6.890625 40.890625 13.453125 
Q 46.046875 20.015625 46.78125 33.40625 
Q 43.953125 29.203125 39.59375 26.953125 
Q 35.25 24.703125 29.984375 24.703125 
Q 19.046875 24.703125 12.671875 31.3125 
Q 6.296875 37.9375 6.296875 49.421875 
Q 6.296875 60.640625 12.9375 67.421875 
Q 19.578125 74.21875 30.609375 74.21875 
Q 43.265625 74.21875 49.921875 64.515625 
Q 56.59375 54.828125 56.59375 36.375 
Q 56.59375 19.140625 48.40625 8.859375 
Q 40.234375 -1.421875 26.421875 -1.421875 
Q 22.703125 -1.421875 18.890625 -0.6875 
Q 15.09375 0.046875 10.984375 1.515625 
z
M 30.609375 32.421875 
Q 37.25 32.421875 41.125 36.953125 
Q 45.015625 41.5 45.015625 49.421875 
Q 45.015625 57.28125 41.125 61.84375 
Q 37.25 66.40625 30.609375 66.40625 
Q 23.96875 66.40625 20.09375 61.84375 
Q 16.21875 57.28125 16.21875 49.421875 
Q 16.21875 41.5 20.09375 36.953125 
Q 23.96875 32.421875 30.609375 32.421875 
z
" id="DejaVuSans-57"/>
     </defs>
     <g transform="translate(157.916406 293.814062)scale(0.1 -0.1)">
      <use xlink:href="#DejaVuSans-48"/>
      <use x="63.623047" xlink:href="#DejaVuSans-46"/>
      <use x="95.410156" xlink:href="#DejaVuSans-57"/>
     </g>
    </g>
   </g>
  </g>
 </g>
 <defs>
  <clipPath id="pef33e51ffe">
   <rect height="543.6" width="725.4" x="117" y="86.4"/>
  </clipPath>
 </defs>
</svg>
