<?xml version="1.0" encoding="utf-8" standalone="no"?>
<!DOCTYPE svg PUBLIC "-//W3C//DTD SVG 1.1//EN"
  "http://www.w3.org/Graphics/SVG/1.1/DTD/svg11.dtd">
<!-- Created with matplotlib (https://matplotlib.org/) -->
<svg height="720pt" version="1.1" viewBox="0 0 936 720" width="936pt" xmlns="http://www.w3.org/2000/svg" xmlns:xlink="http://www.w3.org/1999/xlink">
 <defs>
  <style type="text/css">
*{stroke-linecap:butt;stroke-linejoin:round;}
  </style>
 </defs>
 <g id="figure_1">
  <g id="patch_1">
   <path d="M 0 720 
L 936 720 
L 936 0 
L 0 0 
z
" style="fill:#ffffff;"/>
  </g>
  <g id="axes_1">
   <g id="patch_2">
    <path d="M 117 630 
L 842.4 630 
L 842.4 86.4 
L 117 86.4 
z
" style="fill:#ffffff;"/>
   </g>
   <g id="matplotlib.axis_1">
    <g id="xtick_1">
     <g id="line2d_1">
      <defs>
       <path d="M 0 0 
L 0 3.5 
" id="m89eee03718" style="stroke:#000000;stroke-width:0.8;"/>
      </defs>
      <g>
       <use style="stroke:#000000;stroke-width:0.8;" x="149.972727" xlink:href="#m89eee03718" y="630"/>
      </g>
     </g>
     <g id="text_1">
      <!-- 0 -->
      <defs>
       <path d="M 31.78125 66.40625 
Q 24.171875 66.40625 20.328125 58.90625 
Q 16.5 51.421875 16.5 36.375 
Q 16.5 21.390625 20.328125 13.890625 
Q 24.171875 6.390625 31.78125 6.390625 
Q 39.453125 6.390625 43.28125 13.890625 
Q 47.125 21.390625 47.125 36.375 
Q 47.125 51.421875 43.28125 58.90625 
Q 39.453125 66.40625 31.78125 66.40625 
z
M 31.78125 74.21875 
Q 44.046875 74.21875 50.515625 64.515625 
Q 56.984375 54.828125 56.984375 36.375 
Q 56.984375 17.96875 50.515625 8.265625 
Q 44.046875 -1.421875 31.78125 -1.421875 
Q 19.53125 -1.421875 13.0625 8.265625 
Q 6.59375 17.96875 6.59375 36.375 
Q 6.59375 54.828125 13.0625 64.515625 
Q 19.53125 74.21875 31.78125 74.21875 
z
" id="DejaVuSans-48"/>
      </defs>
      <g transform="translate(146.791477 644.598438)scale(0.1 -0.1)">
       <use xlink:href="#DejaVuSans-48"/>
      </g>
     </g>
    </g>
    <g id="xtick_2">
     <g id="line2d_2">
      <g>
       <use style="stroke:#000000;stroke-width:0.8;" x="243.233683" xlink:href="#m89eee03718" y="630"/>
      </g>
     </g>
     <g id="text_2">
      <!-- 10 -->
      <defs>
       <path d="M 12.40625 8.296875 
L 28.515625 8.296875 
L 28.515625 63.921875 
L 10.984375 60.40625 
L 10.984375 69.390625 
L 28.421875 72.90625 
L 38.28125 72.90625 
L 38.28125 8.296875 
L 54.390625 8.296875 
L 54.390625 0 
L 12.40625 0 
z
" id="DejaVuSans-49"/>
      </defs>
      <g transform="translate(236.871183 644.598438)scale(0.1 -0.1)">
       <use xlink:href="#DejaVuSans-49"/>
       <use x="63.623047" xlink:href="#DejaVuSans-48"/>
      </g>
     </g>
    </g>
    <g id="xtick_3">
     <g id="line2d_3">
      <g>
       <use style="stroke:#000000;stroke-width:0.8;" x="336.49464" xlink:href="#m89eee03718" y="630"/>
      </g>
     </g>
     <g id="text_3">
      <!-- 20 -->
      <defs>
       <path d="M 19.1875 8.296875 
L 53.609375 8.296875 
L 53.609375 0 
L 7.328125 0 
L 7.328125 8.296875 
Q 12.9375 14.109375 22.625 23.890625 
Q 32.328125 33.6875 34.8125 36.53125 
Q 39.546875 41.84375 41.421875 45.53125 
Q 43.3125 49.21875 43.3125 52.78125 
Q 43.3125 58.59375 39.234375 62.25 
Q 35.15625 65.921875 28.609375 65.921875 
Q 23.96875 65.921875 18.8125 64.3125 
Q 13.671875 62.703125 7.8125 59.421875 
L 7.8125 69.390625 
Q 13.765625 71.78125 18.9375 73 
Q 24.125 74.21875 28.421875 74.21875 
Q 39.75 74.21875 46.484375 68.546875 
Q 53.21875 62.890625 53.21875 53.421875 
Q 53.21875 48.921875 51.53125 44.890625 
Q 49.859375 40.875 45.40625 35.40625 
Q 44.1875 33.984375 37.640625 27.21875 
Q 31.109375 20.453125 19.1875 8.296875 
z
" id="DejaVuSans-50"/>
      </defs>
      <g transform="translate(330.13214 644.598438)scale(0.1 -0.1)">
       <use xlink:href="#DejaVuSans-50"/>
       <use x="63.623047" xlink:href="#DejaVuSans-48"/>
      </g>
     </g>
    </g>
    <g id="xtick_4">
     <g id="line2d_4">
      <g>
       <use style="stroke:#000000;stroke-width:0.8;" x="429.755596" xlink:href="#m89eee03718" y="630"/>
      </g>
     </g>
     <g id="text_4">
      <!-- 30 -->
      <defs>
       <path d="M 40.578125 39.3125 
Q 47.65625 37.796875 51.625 33 
Q 55.609375 28.21875 55.609375 21.1875 
Q 55.609375 10.40625 48.1875 4.484375 
Q 40.765625 -1.421875 27.09375 -1.421875 
Q 22.515625 -1.421875 17.65625 -0.515625 
Q 12.796875 0.390625 7.625 2.203125 
L 7.625 11.71875 
Q 11.71875 9.328125 16.59375 8.109375 
Q 21.484375 6.890625 26.8125 6.890625 
Q 36.078125 6.890625 40.9375 10.546875 
Q 45.796875 14.203125 45.796875 21.1875 
Q 45.796875 27.640625 41.28125 31.265625 
Q 36.765625 34.90625 28.71875 34.90625 
L 20.21875 34.90625 
L 20.21875 43.015625 
L 29.109375 43.015625 
Q 36.375 43.015625 40.234375 45.921875 
Q 44.09375 48.828125 44.09375 54.296875 
Q 44.09375 59.90625 40.109375 62.90625 
Q 36.140625 65.921875 28.71875 65.921875 
Q 24.65625 65.921875 20.015625 65.03125 
Q 15.375 64.15625 9.8125 62.3125 
L 9.8125 71.09375 
Q 15.4375 72.65625 20.34375 73.4375 
Q 25.25 74.21875 29.59375 74.21875 
Q 40.828125 74.21875 47.359375 69.109375 
Q 53.90625 64.015625 53.90625 55.328125 
Q 53.90625 49.265625 50.4375 45.09375 
Q 46.96875 40.921875 40.578125 39.3125 
z
" id="DejaVuSans-51"/>
      </defs>
      <g transform="translate(423.393096 644.598438)scale(0.1 -0.1)">
       <use xlink:href="#DejaVuSans-51"/>
       <use x="63.623047" xlink:href="#DejaVuSans-48"/>
      </g>
     </g>
    </g>
    <g id="xtick_5">
     <g id="line2d_5">
      <g>
       <use style="stroke:#000000;stroke-width:0.8;" x="523.016552" xlink:href="#m89eee03718" y="630"/>
      </g>
     </g>
     <g id="text_5">
      <!-- 40 -->
      <defs>
       <path d="M 37.796875 64.3125 
L 12.890625 25.390625 
L 37.796875 25.390625 
z
M 35.203125 72.90625 
L 47.609375 72.90625 
L 47.609375 25.390625 
L 58.015625 25.390625 
L 58.015625 17.1875 
L 47.609375 17.1875 
L 47.609375 0 
L 37.796875 0 
L 37.796875 17.1875 
L 4.890625 17.1875 
L 4.890625 26.703125 
z
" id="DejaVuSans-52"/>
      </defs>
      <g transform="translate(516.654052 644.598438)scale(0.1 -0.1)">
       <use xlink:href="#DejaVuSans-52"/>
       <use x="63.623047" xlink:href="#DejaVuSans-48"/>
      </g>
     </g>
    </g>
    <g id="xtick_6">
     <g id="line2d_6">
      <g>
       <use style="stroke:#000000;stroke-width:0.8;" x="616.277508" xlink:href="#m89eee03718" y="630"/>
      </g>
     </g>
     <g id="text_6">
      <!-- 50 -->
      <defs>
       <path d="M 10.796875 72.90625 
L 49.515625 72.90625 
L 49.515625 64.59375 
L 19.828125 64.59375 
L 19.828125 46.734375 
Q 21.96875 47.46875 24.109375 47.828125 
Q 26.265625 48.1875 28.421875 48.1875 
Q 40.625 48.1875 47.75 41.5 
Q 54.890625 34.8125 54.890625 23.390625 
Q 54.890625 11.625 47.5625 5.09375 
Q 40.234375 -1.421875 26.90625 -1.421875 
Q 22.3125 -1.421875 17.546875 -0.640625 
Q 12.796875 0.140625 7.71875 1.703125 
L 7.71875 11.625 
Q 12.109375 9.234375 16.796875 8.0625 
Q 21.484375 6.890625 26.703125 6.890625 
Q 35.15625 6.890625 40.078125 11.328125 
Q 45.015625 15.765625 45.015625 23.390625 
Q 45.015625 31 40.078125 35.4375 
Q 35.15625 39.890625 26.703125 39.890625 
Q 22.75 39.890625 18.8125 39.015625 
Q 14.890625 38.140625 10.796875 36.28125 
z
" id="DejaVuSans-53"/>
      </defs>
      <g transform="translate(609.915008 644.598438)scale(0.1 -0.1)">
       <use xlink:href="#DejaVuSans-53"/>
       <use x="63.623047" xlink:href="#DejaVuSans-48"/>
      </g>
     </g>
    </g>
    <g id="xtick_7">
     <g id="line2d_7">
      <g>
       <use style="stroke:#000000;stroke-width:0.8;" x="709.538464" xlink:href="#m89eee03718" y="630"/>
      </g>
     </g>
     <g id="text_7">
      <!-- 60 -->
      <defs>
       <path d="M 33.015625 40.375 
Q 26.375 40.375 22.484375 35.828125 
Q 18.609375 31.296875 18.609375 23.390625 
Q 18.609375 15.53125 22.484375 10.953125 
Q 26.375 6.390625 33.015625 6.390625 
Q 39.65625 6.390625 43.53125 10.953125 
Q 47.40625 15.53125 47.40625 23.390625 
Q 47.40625 31.296875 43.53125 35.828125 
Q 39.65625 40.375 33.015625 40.375 
z
M 52.59375 71.296875 
L 52.59375 62.3125 
Q 48.875 64.0625 45.09375 64.984375 
Q 41.3125 65.921875 37.59375 65.921875 
Q 27.828125 65.921875 22.671875 59.328125 
Q 17.53125 52.734375 16.796875 39.40625 
Q 19.671875 43.65625 24.015625 45.921875 
Q 28.375 48.1875 33.59375 48.1875 
Q 44.578125 48.1875 50.953125 41.515625 
Q 57.328125 34.859375 57.328125 23.390625 
Q 57.328125 12.15625 50.6875 5.359375 
Q 44.046875 -1.421875 33.015625 -1.421875 
Q 20.359375 -1.421875 13.671875 8.265625 
Q 6.984375 17.96875 6.984375 36.375 
Q 6.984375 53.65625 15.1875 63.9375 
Q 23.390625 74.21875 37.203125 74.21875 
Q 40.921875 74.21875 44.703125 73.484375 
Q 48.484375 72.75 52.59375 71.296875 
z
" id="DejaVuSans-54"/>
      </defs>
      <g transform="translate(703.175964 644.598438)scale(0.1 -0.1)">
       <use xlink:href="#DejaVuSans-54"/>
       <use x="63.623047" xlink:href="#DejaVuSans-48"/>
      </g>
     </g>
    </g>
    <g id="xtick_8">
     <g id="line2d_8">
      <g>
       <use style="stroke:#000000;stroke-width:0.8;" x="802.799421" xlink:href="#m89eee03718" y="630"/>
      </g>
     </g>
     <g id="text_8">
      <!-- 70 -->
      <defs>
       <path d="M 8.203125 72.90625 
L 55.078125 72.90625 
L 55.078125 68.703125 
L 28.609375 0 
L 18.3125 0 
L 43.21875 64.59375 
L 8.203125 64.59375 
z
" id="DejaVuSans-55"/>
      </defs>
      <g transform="translate(796.436921 644.598438)scale(0.1 -0.1)">
       <use xlink:href="#DejaVuSans-55"/>
       <use x="63.623047" xlink:href="#DejaVuSans-48"/>
      </g>
     </g>
    </g>
    <g id="text_9">
     <!-- norm distance -&gt; sqrt(x^2 + y^2) -->
     <defs>
      <path d="M 54.890625 33.015625 
L 54.890625 0 
L 45.90625 0 
L 45.90625 32.71875 
Q 45.90625 40.484375 42.875 44.328125 
Q 39.84375 48.1875 33.796875 48.1875 
Q 26.515625 48.1875 22.3125 43.546875 
Q 18.109375 38.921875 18.109375 30.90625 
L 18.109375 0 
L 9.078125 0 
L 9.078125 54.6875 
L 18.109375 54.6875 
L 18.109375 46.1875 
Q 21.34375 51.125 25.703125 53.5625 
Q 30.078125 56 35.796875 56 
Q 45.21875 56 50.046875 50.171875 
Q 54.890625 44.34375 54.890625 33.015625 
z
" id="DejaVuSans-110"/>
      <path d="M 30.609375 48.390625 
Q 23.390625 48.390625 19.1875 42.75 
Q 14.984375 37.109375 14.984375 27.296875 
Q 14.984375 17.484375 19.15625 11.84375 
Q 23.34375 6.203125 30.609375 6.203125 
Q 37.796875 6.203125 41.984375 11.859375 
Q 46.1875 17.53125 46.1875 27.296875 
Q 46.1875 37.015625 41.984375 42.703125 
Q 37.796875 48.390625 30.609375 48.390625 
z
M 30.609375 56 
Q 42.328125 56 49.015625 48.375 
Q 55.71875 40.765625 55.71875 27.296875 
Q 55.71875 13.875 49.015625 6.21875 
Q 42.328125 -1.421875 30.609375 -1.421875 
Q 18.84375 -1.421875 12.171875 6.21875 
Q 5.515625 13.875 5.515625 27.296875 
Q 5.515625 40.765625 12.171875 48.375 
Q 18.84375 56 30.609375 56 
z
" id="DejaVuSans-111"/>
      <path d="M 41.109375 46.296875 
Q 39.59375 47.171875 37.8125 47.578125 
Q 36.03125 48 33.890625 48 
Q 26.265625 48 22.1875 43.046875 
Q 18.109375 38.09375 18.109375 28.8125 
L 18.109375 0 
L 9.078125 0 
L 9.078125 54.6875 
L 18.109375 54.6875 
L 18.109375 46.1875 
Q 20.953125 51.171875 25.484375 53.578125 
Q 30.03125 56 36.53125 56 
Q 37.453125 56 38.578125 55.875 
Q 39.703125 55.765625 41.0625 55.515625 
z
" id="DejaVuSans-114"/>
      <path d="M 52 44.1875 
Q 55.375 50.25 60.0625 53.125 
Q 64.75 56 71.09375 56 
Q 79.640625 56 84.28125 50.015625 
Q 88.921875 44.046875 88.921875 33.015625 
L 88.921875 0 
L 79.890625 0 
L 79.890625 32.71875 
Q 79.890625 40.578125 77.09375 44.375 
Q 74.3125 48.1875 68.609375 48.1875 
Q 61.625 48.1875 57.5625 43.546875 
Q 53.515625 38.921875 53.515625 30.90625 
L 53.515625 0 
L 44.484375 0 
L 44.484375 32.71875 
Q 44.484375 40.625 41.703125 44.40625 
Q 38.921875 48.1875 33.109375 48.1875 
Q 26.21875 48.1875 22.15625 43.53125 
Q 18.109375 38.875 18.109375 30.90625 
L 18.109375 0 
L 9.078125 0 
L 9.078125 54.6875 
L 18.109375 54.6875 
L 18.109375 46.1875 
Q 21.1875 51.21875 25.484375 53.609375 
Q 29.78125 56 35.6875 56 
Q 41.65625 56 45.828125 52.96875 
Q 50 49.953125 52 44.1875 
z
" id="DejaVuSans-109"/>
      <path id="DejaVuSans-32"/>
      <path d="M 45.40625 46.390625 
L 45.40625 75.984375 
L 54.390625 75.984375 
L 54.390625 0 
L 45.40625 0 
L 45.40625 8.203125 
Q 42.578125 3.328125 38.25 0.953125 
Q 33.9375 -1.421875 27.875 -1.421875 
Q 17.96875 -1.421875 11.734375 6.484375 
Q 5.515625 14.40625 5.515625 27.296875 
Q 5.515625 40.1875 11.734375 48.09375 
Q 17.96875 56 27.875 56 
Q 33.9375 56 38.25 53.625 
Q 42.578125 51.265625 45.40625 46.390625 
z
M 14.796875 27.296875 
Q 14.796875 17.390625 18.875 11.75 
Q 22.953125 6.109375 30.078125 6.109375 
Q 37.203125 6.109375 41.296875 11.75 
Q 45.40625 17.390625 45.40625 27.296875 
Q 45.40625 37.203125 41.296875 42.84375 
Q 37.203125 48.484375 30.078125 48.484375 
Q 22.953125 48.484375 18.875 42.84375 
Q 14.796875 37.203125 14.796875 27.296875 
z
" id="DejaVuSans-100"/>
      <path d="M 9.421875 54.6875 
L 18.40625 54.6875 
L 18.40625 0 
L 9.421875 0 
z
M 9.421875 75.984375 
L 18.40625 75.984375 
L 18.40625 64.59375 
L 9.421875 64.59375 
z
" id="DejaVuSans-105"/>
      <path d="M 44.28125 53.078125 
L 44.28125 44.578125 
Q 40.484375 46.53125 36.375 47.5 
Q 32.28125 48.484375 27.875 48.484375 
Q 21.1875 48.484375 17.84375 46.4375 
Q 14.5 44.390625 14.5 40.28125 
Q 14.5 37.15625 16.890625 35.375 
Q 19.28125 33.59375 26.515625 31.984375 
L 29.59375 31.296875 
Q 39.15625 29.25 43.1875 25.515625 
Q 47.21875 21.78125 47.21875 15.09375 
Q 47.21875 7.46875 41.1875 3.015625 
Q 35.15625 -1.421875 24.609375 -1.421875 
Q 20.21875 -1.421875 15.453125 -0.5625 
Q 10.6875 0.296875 5.421875 2 
L 5.421875 11.28125 
Q 10.40625 8.6875 15.234375 7.390625 
Q 20.0625 6.109375 24.8125 6.109375 
Q 31.15625 6.109375 34.5625 8.28125 
Q 37.984375 10.453125 37.984375 14.40625 
Q 37.984375 18.0625 35.515625 20.015625 
Q 33.0625 21.96875 24.703125 23.78125 
L 21.578125 24.515625 
Q 13.234375 26.265625 9.515625 29.90625 
Q 5.8125 33.546875 5.8125 39.890625 
Q 5.8125 47.609375 11.28125 51.796875 
Q 16.75 56 26.8125 56 
Q 31.78125 56 36.171875 55.265625 
Q 40.578125 54.546875 44.28125 53.078125 
z
" id="DejaVuSans-115"/>
      <path d="M 18.3125 70.21875 
L 18.3125 54.6875 
L 36.8125 54.6875 
L 36.8125 47.703125 
L 18.3125 47.703125 
L 18.3125 18.015625 
Q 18.3125 11.328125 20.140625 9.421875 
Q 21.96875 7.515625 27.59375 7.515625 
L 36.8125 7.515625 
L 36.8125 0 
L 27.59375 0 
Q 17.1875 0 13.234375 3.875 
Q 9.28125 7.765625 9.28125 18.015625 
L 9.28125 47.703125 
L 2.6875 47.703125 
L 2.6875 54.6875 
L 9.28125 54.6875 
L 9.28125 70.21875 
z
" id="DejaVuSans-116"/>
      <path d="M 34.28125 27.484375 
Q 23.390625 27.484375 19.1875 25 
Q 14.984375 22.515625 14.984375 16.5 
Q 14.984375 11.71875 18.140625 8.90625 
Q 21.296875 6.109375 26.703125 6.109375 
Q 34.1875 6.109375 38.703125 11.40625 
Q 43.21875 16.703125 43.21875 25.484375 
L 43.21875 27.484375 
z
M 52.203125 31.203125 
L 52.203125 0 
L 43.21875 0 
L 43.21875 8.296875 
Q 40.140625 3.328125 35.546875 0.953125 
Q 30.953125 -1.421875 24.3125 -1.421875 
Q 15.921875 -1.421875 10.953125 3.296875 
Q 6 8.015625 6 15.921875 
Q 6 25.140625 12.171875 29.828125 
Q 18.359375 34.515625 30.609375 34.515625 
L 43.21875 34.515625 
L 43.21875 35.40625 
Q 43.21875 41.609375 39.140625 45 
Q 35.0625 48.390625 27.6875 48.390625 
Q 23 48.390625 18.546875 47.265625 
Q 14.109375 46.140625 10.015625 43.890625 
L 10.015625 52.203125 
Q 14.9375 54.109375 19.578125 55.046875 
Q 24.21875 56 28.609375 56 
Q 40.484375 56 46.34375 49.84375 
Q 52.203125 43.703125 52.203125 31.203125 
z
" id="DejaVuSans-97"/>
      <path d="M 48.78125 52.59375 
L 48.78125 44.1875 
Q 44.96875 46.296875 41.140625 47.34375 
Q 37.3125 48.390625 33.40625 48.390625 
Q 24.65625 48.390625 19.8125 42.84375 
Q 14.984375 37.3125 14.984375 27.296875 
Q 14.984375 17.28125 19.8125 11.734375 
Q 24.65625 6.203125 33.40625 6.203125 
Q 37.3125 6.203125 41.140625 7.25 
Q 44.96875 8.296875 48.78125 10.40625 
L 48.78125 2.09375 
Q 45.015625 0.34375 40.984375 -0.53125 
Q 36.96875 -1.421875 32.421875 -1.421875 
Q 20.0625 -1.421875 12.78125 6.34375 
Q 5.515625 14.109375 5.515625 27.296875 
Q 5.515625 40.671875 12.859375 48.328125 
Q 20.21875 56 33.015625 56 
Q 37.15625 56 41.109375 55.140625 
Q 45.0625 54.296875 48.78125 52.59375 
z
" id="DejaVuSans-99"/>
      <path d="M 56.203125 29.59375 
L 56.203125 25.203125 
L 14.890625 25.203125 
Q 15.484375 15.921875 20.484375 11.0625 
Q 25.484375 6.203125 34.421875 6.203125 
Q 39.59375 6.203125 44.453125 7.46875 
Q 49.3125 8.734375 54.109375 11.28125 
L 54.109375 2.78125 
Q 49.265625 0.734375 44.1875 -0.34375 
Q 39.109375 -1.421875 33.890625 -1.421875 
Q 20.796875 -1.421875 13.15625 6.1875 
Q 5.515625 13.8125 5.515625 26.8125 
Q 5.515625 40.234375 12.765625 48.109375 
Q 20.015625 56 32.328125 56 
Q 43.359375 56 49.78125 48.890625 
Q 56.203125 41.796875 56.203125 29.59375 
z
M 47.21875 32.234375 
Q 47.125 39.59375 43.09375 43.984375 
Q 39.0625 48.390625 32.421875 48.390625 
Q 24.90625 48.390625 20.390625 44.140625 
Q 15.875 39.890625 15.1875 32.171875 
z
" id="DejaVuSans-101"/>
      <path d="M 4.890625 31.390625 
L 31.203125 31.390625 
L 31.203125 23.390625 
L 4.890625 23.390625 
z
" id="DejaVuSans-45"/>
      <path d="M 10.59375 49.21875 
L 10.59375 58.109375 
L 73.1875 35.40625 
L 73.1875 27.296875 
L 10.59375 4.59375 
L 10.59375 13.484375 
L 60.890625 31.296875 
z
" id="DejaVuSans-62"/>
      <path d="M 14.796875 27.296875 
Q 14.796875 17.390625 18.875 11.75 
Q 22.953125 6.109375 30.078125 6.109375 
Q 37.203125 6.109375 41.296875 11.75 
Q 45.40625 17.390625 45.40625 27.296875 
Q 45.40625 37.203125 41.296875 42.84375 
Q 37.203125 48.484375 30.078125 48.484375 
Q 22.953125 48.484375 18.875 42.84375 
Q 14.796875 37.203125 14.796875 27.296875 
z
M 45.40625 8.203125 
Q 42.578125 3.328125 38.25 0.953125 
Q 33.9375 -1.421875 27.875 -1.421875 
Q 17.96875 -1.421875 11.734375 6.484375 
Q 5.515625 14.40625 5.515625 27.296875 
Q 5.515625 40.1875 11.734375 48.09375 
Q 17.96875 56 27.875 56 
Q 33.9375 56 38.25 53.625 
Q 42.578125 51.265625 45.40625 46.390625 
L 45.40625 54.6875 
L 54.390625 54.6875 
L 54.390625 -20.796875 
L 45.40625 -20.796875 
z
" id="DejaVuSans-113"/>
      <path d="M 31 75.875 
Q 24.46875 64.65625 21.28125 53.65625 
Q 18.109375 42.671875 18.109375 31.390625 
Q 18.109375 20.125 21.3125 9.0625 
Q 24.515625 -2 31 -13.1875 
L 23.1875 -13.1875 
Q 15.875 -1.703125 12.234375 9.375 
Q 8.59375 20.453125 8.59375 31.390625 
Q 8.59375 42.28125 12.203125 53.3125 
Q 15.828125 64.359375 23.1875 75.875 
z
" id="DejaVuSans-40"/>
      <path d="M 54.890625 54.6875 
L 35.109375 28.078125 
L 55.90625 0 
L 45.3125 0 
L 29.390625 21.484375 
L 13.484375 0 
L 2.875 0 
L 24.125 28.609375 
L 4.6875 54.6875 
L 15.28125 54.6875 
L 29.78125 35.203125 
L 44.28125 54.6875 
z
" id="DejaVuSans-120"/>
      <path d="M 46.6875 72.90625 
L 73.1875 45.703125 
L 63.375 45.703125 
L 41.890625 64.984375 
L 20.40625 45.703125 
L 10.59375 45.703125 
L 37.109375 72.90625 
z
" id="DejaVuSans-94"/>
      <path d="M 46 62.703125 
L 46 35.5 
L 73.1875 35.5 
L 73.1875 27.203125 
L 46 27.203125 
L 46 0 
L 37.796875 0 
L 37.796875 27.203125 
L 10.59375 27.203125 
L 10.59375 35.5 
L 37.796875 35.5 
L 37.796875 62.703125 
z
" id="DejaVuSans-43"/>
      <path d="M 32.171875 -5.078125 
Q 28.375 -14.84375 24.75 -17.8125 
Q 21.140625 -20.796875 15.09375 -20.796875 
L 7.90625 -20.796875 
L 7.90625 -13.28125 
L 13.1875 -13.28125 
Q 16.890625 -13.28125 18.9375 -11.515625 
Q 21 -9.765625 23.484375 -3.21875 
L 25.09375 0.875 
L 2.984375 54.6875 
L 12.5 54.6875 
L 29.59375 11.921875 
L 46.6875 54.6875 
L 56.203125 54.6875 
z
" id="DejaVuSans-121"/>
      <path d="M 8.015625 75.875 
L 15.828125 75.875 
Q 23.140625 64.359375 26.78125 53.3125 
Q 30.421875 42.28125 30.421875 31.390625 
Q 30.421875 20.453125 26.78125 9.375 
Q 23.140625 -1.703125 15.828125 -13.1875 
L 8.015625 -13.1875 
Q 14.5 -2 17.703125 9.0625 
Q 20.90625 20.125 20.90625 31.390625 
Q 20.90625 42.671875 17.703125 53.65625 
Q 14.5 64.65625 8.015625 75.875 
z
" id="DejaVuSans-41"/>
     </defs>
     <g transform="translate(392.874219 658.276562)scale(0.1 -0.1)">
      <use xlink:href="#DejaVuSans-110"/>
      <use x="63.378906" xlink:href="#DejaVuSans-111"/>
      <use x="124.560547" xlink:href="#DejaVuSans-114"/>
      <use x="165.658203" xlink:href="#DejaVuSans-109"/>
      <use x="263.070312" xlink:href="#DejaVuSans-32"/>
      <use x="294.857422" xlink:href="#DejaVuSans-100"/>
      <use x="358.333984" xlink:href="#DejaVuSans-105"/>
      <use x="386.117188" xlink:href="#DejaVuSans-115"/>
      <use x="438.216797" xlink:href="#DejaVuSans-116"/>
      <use x="477.425781" xlink:href="#DejaVuSans-97"/>
      <use x="538.705078" xlink:href="#DejaVuSans-110"/>
      <use x="602.083984" xlink:href="#DejaVuSans-99"/>
      <use x="657.064453" xlink:href="#DejaVuSans-101"/>
      <use x="718.587891" xlink:href="#DejaVuSans-32"/>
      <use x="750.375" xlink:href="#DejaVuSans-45"/>
      <use x="786.458984" xlink:href="#DejaVuSans-62"/>
      <use x="870.248047" xlink:href="#DejaVuSans-32"/>
      <use x="902.035156" xlink:href="#DejaVuSans-115"/>
      <use x="954.134766" xlink:href="#DejaVuSans-113"/>
      <use x="1017.611328" xlink:href="#DejaVuSans-114"/>
      <use x="1058.724609" xlink:href="#DejaVuSans-116"/>
      <use x="1097.933594" xlink:href="#DejaVuSans-40"/>
      <use x="1136.947266" xlink:href="#DejaVuSans-120"/>
      <use x="1196.126953" xlink:href="#DejaVuSans-94"/>
      <use x="1279.916016" xlink:href="#DejaVuSans-50"/>
      <use x="1343.539062" xlink:href="#DejaVuSans-32"/>
      <use x="1375.326172" xlink:href="#DejaVuSans-43"/>
      <use x="1459.115234" xlink:href="#DejaVuSans-32"/>
      <use x="1490.902344" xlink:href="#DejaVuSans-121"/>
      <use x="1550.082031" xlink:href="#DejaVuSans-94"/>
      <use x="1633.871094" xlink:href="#DejaVuSans-50"/>
      <use x="1697.494141" xlink:href="#DejaVuSans-41"/>
     </g>
    </g>
   </g>
   <g id="matplotlib.axis_2">
    <g id="ytick_1">
     <g id="line2d_9">
      <defs>
       <path d="M 0 0 
L -3.5 0 
" id="mc20240ee64" style="stroke:#000000;stroke-width:0.8;"/>
      </defs>
      <g>
       <use style="stroke:#000000;stroke-width:0.8;" x="117" xlink:href="#mc20240ee64" y="550.190583"/>
      </g>
     </g>
     <g id="text_10">
      <!-- $\mathdefault{10^{1}}$ -->
      <g transform="translate(92.4 553.989802)scale(0.1 -0.1)">
       <use transform="translate(0 0.684375)" xlink:href="#DejaVuSans-49"/>
       <use transform="translate(63.623047 0.684375)" xlink:href="#DejaVuSans-48"/>
       <use transform="translate(128.203125 38.965625)scale(0.7)" xlink:href="#DejaVuSans-49"/>
      </g>
     </g>
    </g>
    <g id="ytick_2">
     <g id="line2d_10">
      <g>
       <use style="stroke:#000000;stroke-width:0.8;" x="117" xlink:href="#mc20240ee64" y="437.867315"/>
      </g>
     </g>
     <g id="text_11">
      <!-- $\mathdefault{10^{2}}$ -->
      <g transform="translate(92.4 441.666534)scale(0.1 -0.1)">
       <use transform="translate(0 0.765625)" xlink:href="#DejaVuSans-49"/>
       <use transform="translate(63.623047 0.765625)" xlink:href="#DejaVuSans-48"/>
       <use transform="translate(128.203125 39.046875)scale(0.7)" xlink:href="#DejaVuSans-50"/>
      </g>
     </g>
    </g>
    <g id="ytick_3">
     <g id="line2d_11">
      <g>
       <use style="stroke:#000000;stroke-width:0.8;" x="117" xlink:href="#mc20240ee64" y="325.544047"/>
      </g>
     </g>
     <g id="text_12">
      <!-- $\mathdefault{10^{3}}$ -->
      <g transform="translate(92.4 329.343266)scale(0.1 -0.1)">
       <use transform="translate(0 0.765625)" xlink:href="#DejaVuSans-49"/>
       <use transform="translate(63.623047 0.765625)" xlink:href="#DejaVuSans-48"/>
       <use transform="translate(128.203125 39.046875)scale(0.7)" xlink:href="#DejaVuSans-51"/>
      </g>
     </g>
    </g>
    <g id="ytick_4">
     <g id="line2d_12">
      <g>
       <use style="stroke:#000000;stroke-width:0.8;" x="117" xlink:href="#mc20240ee64" y="213.220779"/>
      </g>
     </g>
     <g id="text_13">
      <!-- $\mathdefault{10^{4}}$ -->
      <g transform="translate(92.4 217.019998)scale(0.1 -0.1)">
       <use transform="translate(0 0.684375)" xlink:href="#DejaVuSans-49"/>
       <use transform="translate(63.623047 0.684375)" xlink:href="#DejaVuSans-48"/>
       <use transform="translate(128.203125 38.965625)scale(0.7)" xlink:href="#DejaVuSans-52"/>
      </g>
     </g>
    </g>
    <g id="ytick_5">
     <g id="line2d_13">
      <g>
       <use style="stroke:#000000;stroke-width:0.8;" x="117" xlink:href="#mc20240ee64" y="100.897511"/>
      </g>
     </g>
     <g id="text_14">
      <!-- $\mathdefault{10^{5}}$ -->
      <g transform="translate(92.4 104.69673)scale(0.1 -0.1)">
       <use transform="translate(0 0.684375)" xlink:href="#DejaVuSans-49"/>
       <use transform="translate(63.623047 0.684375)" xlink:href="#DejaVuSans-48"/>
       <use transform="translate(128.203125 38.965625)scale(0.7)" xlink:href="#DejaVuSans-53"/>
      </g>
     </g>
    </g>
    <g id="ytick_6">
     <g id="line2d_14">
      <defs>
       <path d="M 0 0 
L -2 0 
" id="me4dc0fc715" style="stroke:#000000;stroke-width:0.6;"/>
      </defs>
      <g>
       <use style="stroke:#000000;stroke-width:0.6;" x="117" xlink:href="#me4dc0fc715" y="628.701178"/>
      </g>
     </g>
    </g>
    <g id="ytick_7">
     <g id="line2d_15">
      <g>
       <use style="stroke:#000000;stroke-width:0.6;" x="117" xlink:href="#me4dc0fc715" y="608.922032"/>
      </g>
     </g>
    </g>
    <g id="ytick_8">
     <g id="line2d_16">
      <g>
       <use style="stroke:#000000;stroke-width:0.6;" x="117" xlink:href="#me4dc0fc715" y="594.888505"/>
      </g>
     </g>
    </g>
    <g id="ytick_9">
     <g id="line2d_17">
      <g>
       <use style="stroke:#000000;stroke-width:0.6;" x="117" xlink:href="#me4dc0fc715" y="584.003256"/>
      </g>
     </g>
    </g>
    <g id="ytick_10">
     <g id="line2d_18">
      <g>
       <use style="stroke:#000000;stroke-width:0.6;" x="117" xlink:href="#me4dc0fc715" y="575.10936"/>
      </g>
     </g>
    </g>
    <g id="ytick_11">
     <g id="line2d_19">
      <g>
       <use style="stroke:#000000;stroke-width:0.6;" x="117" xlink:href="#me4dc0fc715" y="567.589677"/>
      </g>
     </g>
    </g>
    <g id="ytick_12">
     <g id="line2d_20">
      <g>
       <use style="stroke:#000000;stroke-width:0.6;" x="117" xlink:href="#me4dc0fc715" y="561.075832"/>
      </g>
     </g>
    </g>
    <g id="ytick_13">
     <g id="line2d_21">
      <g>
       <use style="stroke:#000000;stroke-width:0.6;" x="117" xlink:href="#me4dc0fc715" y="555.330214"/>
      </g>
     </g>
    </g>
    <g id="ytick_14">
     <g id="line2d_22">
      <g>
       <use style="stroke:#000000;stroke-width:0.6;" x="117" xlink:href="#me4dc0fc715" y="516.37791"/>
      </g>
     </g>
    </g>
    <g id="ytick_15">
     <g id="line2d_23">
      <g>
       <use style="stroke:#000000;stroke-width:0.6;" x="117" xlink:href="#me4dc0fc715" y="496.598764"/>
      </g>
     </g>
    </g>
    <g id="ytick_16">
     <g id="line2d_24">
      <g>
       <use style="stroke:#000000;stroke-width:0.6;" x="117" xlink:href="#me4dc0fc715" y="482.565237"/>
      </g>
     </g>
    </g>
    <g id="ytick_17">
     <g id="line2d_25">
      <g>
       <use style="stroke:#000000;stroke-width:0.6;" x="117" xlink:href="#me4dc0fc715" y="471.679988"/>
      </g>
     </g>
    </g>
    <g id="ytick_18">
     <g id="line2d_26">
      <g>
       <use style="stroke:#000000;stroke-width:0.6;" x="117" xlink:href="#me4dc0fc715" y="462.786092"/>
      </g>
     </g>
    </g>
    <g id="ytick_19">
     <g id="line2d_27">
      <g>
       <use style="stroke:#000000;stroke-width:0.6;" x="117" xlink:href="#me4dc0fc715" y="455.266409"/>
      </g>
     </g>
    </g>
    <g id="ytick_20">
     <g id="line2d_28">
      <g>
       <use style="stroke:#000000;stroke-width:0.6;" x="117" xlink:href="#me4dc0fc715" y="448.752564"/>
      </g>
     </g>
    </g>
    <g id="ytick_21">
     <g id="line2d_29">
      <g>
       <use style="stroke:#000000;stroke-width:0.6;" x="117" xlink:href="#me4dc0fc715" y="443.006946"/>
      </g>
     </g>
    </g>
    <g id="ytick_22">
     <g id="line2d_30">
      <g>
       <use style="stroke:#000000;stroke-width:0.6;" x="117" xlink:href="#me4dc0fc715" y="404.054642"/>
      </g>
     </g>
    </g>
    <g id="ytick_23">
     <g id="line2d_31">
      <g>
       <use style="stroke:#000000;stroke-width:0.6;" x="117" xlink:href="#me4dc0fc715" y="384.275497"/>
      </g>
     </g>
    </g>
    <g id="ytick_24">
     <g id="line2d_32">
      <g>
       <use style="stroke:#000000;stroke-width:0.6;" x="117" xlink:href="#me4dc0fc715" y="370.241969"/>
      </g>
     </g>
    </g>
    <g id="ytick_25">
     <g id="line2d_33">
      <g>
       <use style="stroke:#000000;stroke-width:0.6;" x="117" xlink:href="#me4dc0fc715" y="359.35672"/>
      </g>
     </g>
    </g>
    <g id="ytick_26">
     <g id="line2d_34">
      <g>
       <use style="stroke:#000000;stroke-width:0.6;" x="117" xlink:href="#me4dc0fc715" y="350.462824"/>
      </g>
     </g>
    </g>
    <g id="ytick_27">
     <g id="line2d_35">
      <g>
       <use style="stroke:#000000;stroke-width:0.6;" x="117" xlink:href="#me4dc0fc715" y="342.943141"/>
      </g>
     </g>
    </g>
    <g id="ytick_28">
     <g id="line2d_36">
      <g>
       <use style="stroke:#000000;stroke-width:0.6;" x="117" xlink:href="#me4dc0fc715" y="336.429296"/>
      </g>
     </g>
    </g>
    <g id="ytick_29">
     <g id="line2d_37">
      <g>
       <use style="stroke:#000000;stroke-width:0.6;" x="117" xlink:href="#me4dc0fc715" y="330.683678"/>
      </g>
     </g>
    </g>
    <g id="ytick_30">
     <g id="line2d_38">
      <g>
       <use style="stroke:#000000;stroke-width:0.6;" x="117" xlink:href="#me4dc0fc715" y="291.731374"/>
      </g>
     </g>
    </g>
    <g id="ytick_31">
     <g id="line2d_39">
      <g>
       <use style="stroke:#000000;stroke-width:0.6;" x="117" xlink:href="#me4dc0fc715" y="271.952229"/>
      </g>
     </g>
    </g>
    <g id="ytick_32">
     <g id="line2d_40">
      <g>
       <use style="stroke:#000000;stroke-width:0.6;" x="117" xlink:href="#me4dc0fc715" y="257.918701"/>
      </g>
     </g>
    </g>
    <g id="ytick_33">
     <g id="line2d_41">
      <g>
       <use style="stroke:#000000;stroke-width:0.6;" x="117" xlink:href="#me4dc0fc715" y="247.033452"/>
      </g>
     </g>
    </g>
    <g id="ytick_34">
     <g id="line2d_42">
      <g>
       <use style="stroke:#000000;stroke-width:0.6;" x="117" xlink:href="#me4dc0fc715" y="238.139556"/>
      </g>
     </g>
    </g>
    <g id="ytick_35">
     <g id="line2d_43">
      <g>
       <use style="stroke:#000000;stroke-width:0.6;" x="117" xlink:href="#me4dc0fc715" y="230.619874"/>
      </g>
     </g>
    </g>
    <g id="ytick_36">
     <g id="line2d_44">
      <g>
       <use style="stroke:#000000;stroke-width:0.6;" x="117" xlink:href="#me4dc0fc715" y="224.106029"/>
      </g>
     </g>
    </g>
    <g id="ytick_37">
     <g id="line2d_45">
      <g>
       <use style="stroke:#000000;stroke-width:0.6;" x="117" xlink:href="#me4dc0fc715" y="218.36041"/>
      </g>
     </g>
    </g>
    <g id="ytick_38">
     <g id="line2d_46">
      <g>
       <use style="stroke:#000000;stroke-width:0.6;" x="117" xlink:href="#me4dc0fc715" y="179.408106"/>
      </g>
     </g>
    </g>
    <g id="ytick_39">
     <g id="line2d_47">
      <g>
       <use style="stroke:#000000;stroke-width:0.6;" x="117" xlink:href="#me4dc0fc715" y="159.628961"/>
      </g>
     </g>
    </g>
    <g id="ytick_40">
     <g id="line2d_48">
      <g>
       <use style="stroke:#000000;stroke-width:0.6;" x="117" xlink:href="#me4dc0fc715" y="145.595433"/>
      </g>
     </g>
    </g>
    <g id="ytick_41">
     <g id="line2d_49">
      <g>
       <use style="stroke:#000000;stroke-width:0.6;" x="117" xlink:href="#me4dc0fc715" y="134.710184"/>
      </g>
     </g>
    </g>
    <g id="ytick_42">
     <g id="line2d_50">
      <g>
       <use style="stroke:#000000;stroke-width:0.6;" x="117" xlink:href="#me4dc0fc715" y="125.816288"/>
      </g>
     </g>
    </g>
    <g id="ytick_43">
     <g id="line2d_51">
      <g>
       <use style="stroke:#000000;stroke-width:0.6;" x="117" xlink:href="#me4dc0fc715" y="118.296606"/>
      </g>
     </g>
    </g>
    <g id="ytick_44">
     <g id="line2d_52">
      <g>
       <use style="stroke:#000000;stroke-width:0.6;" x="117" xlink:href="#me4dc0fc715" y="111.782761"/>
      </g>
     </g>
    </g>
    <g id="ytick_45">
     <g id="line2d_53">
      <g>
       <use style="stroke:#000000;stroke-width:0.6;" x="117" xlink:href="#me4dc0fc715" y="106.037142"/>
      </g>
     </g>
    </g>
    <g id="text_15">
     <!-- log(sum(|expected_shift - real_shift|)) over 20 runs -->
     <defs>
      <path d="M 9.421875 75.984375 
L 18.40625 75.984375 
L 18.40625 0 
L 9.421875 0 
z
" id="DejaVuSans-108"/>
      <path d="M 45.40625 27.984375 
Q 45.40625 37.75 41.375 43.109375 
Q 37.359375 48.484375 30.078125 48.484375 
Q 22.859375 48.484375 18.828125 43.109375 
Q 14.796875 37.75 14.796875 27.984375 
Q 14.796875 18.265625 18.828125 12.890625 
Q 22.859375 7.515625 30.078125 7.515625 
Q 37.359375 7.515625 41.375 12.890625 
Q 45.40625 18.265625 45.40625 27.984375 
z
M 54.390625 6.78125 
Q 54.390625 -7.171875 48.1875 -13.984375 
Q 42 -20.796875 29.203125 -20.796875 
Q 24.46875 -20.796875 20.265625 -20.09375 
Q 16.0625 -19.390625 12.109375 -17.921875 
L 12.109375 -9.1875 
Q 16.0625 -11.328125 19.921875 -12.34375 
Q 23.78125 -13.375 27.78125 -13.375 
Q 36.625 -13.375 41.015625 -8.765625 
Q 45.40625 -4.15625 45.40625 5.171875 
L 45.40625 9.625 
Q 42.625 4.78125 38.28125 2.390625 
Q 33.9375 0 27.875 0 
Q 17.828125 0 11.671875 7.65625 
Q 5.515625 15.328125 5.515625 27.984375 
Q 5.515625 40.671875 11.671875 48.328125 
Q 17.828125 56 27.875 56 
Q 33.9375 56 38.28125 53.609375 
Q 42.625 51.21875 45.40625 46.390625 
L 45.40625 54.6875 
L 54.390625 54.6875 
z
" id="DejaVuSans-103"/>
      <path d="M 8.5 21.578125 
L 8.5 54.6875 
L 17.484375 54.6875 
L 17.484375 21.921875 
Q 17.484375 14.15625 20.5 10.265625 
Q 23.53125 6.390625 29.59375 6.390625 
Q 36.859375 6.390625 41.078125 11.03125 
Q 45.3125 15.671875 45.3125 23.6875 
L 45.3125 54.6875 
L 54.296875 54.6875 
L 54.296875 0 
L 45.3125 0 
L 45.3125 8.40625 
Q 42.046875 3.421875 37.71875 1 
Q 33.40625 -1.421875 27.6875 -1.421875 
Q 18.265625 -1.421875 13.375 4.4375 
Q 8.5 10.296875 8.5 21.578125 
z
M 31.109375 56 
z
" id="DejaVuSans-117"/>
      <path d="M 21 76.421875 
L 21 -23.578125 
L 12.703125 -23.578125 
L 12.703125 76.421875 
z
" id="DejaVuSans-124"/>
      <path d="M 18.109375 8.203125 
L 18.109375 -20.796875 
L 9.078125 -20.796875 
L 9.078125 54.6875 
L 18.109375 54.6875 
L 18.109375 46.390625 
Q 20.953125 51.265625 25.265625 53.625 
Q 29.59375 56 35.59375 56 
Q 45.5625 56 51.78125 48.09375 
Q 58.015625 40.1875 58.015625 27.296875 
Q 58.015625 14.40625 51.78125 6.484375 
Q 45.5625 -1.421875 35.59375 -1.421875 
Q 29.59375 -1.421875 25.265625 0.953125 
Q 20.953125 3.328125 18.109375 8.203125 
z
M 48.6875 27.296875 
Q 48.6875 37.203125 44.609375 42.84375 
Q 40.53125 48.484375 33.40625 48.484375 
Q 26.265625 48.484375 22.1875 42.84375 
Q 18.109375 37.203125 18.109375 27.296875 
Q 18.109375 17.390625 22.1875 11.75 
Q 26.265625 6.109375 33.40625 6.109375 
Q 40.53125 6.109375 44.609375 11.75 
Q 48.6875 17.390625 48.6875 27.296875 
z
" id="DejaVuSans-112"/>
      <path d="M 50.984375 -16.609375 
L 50.984375 -23.578125 
L -0.984375 -23.578125 
L -0.984375 -16.609375 
z
" id="DejaVuSans-95"/>
      <path d="M 54.890625 33.015625 
L 54.890625 0 
L 45.90625 0 
L 45.90625 32.71875 
Q 45.90625 40.484375 42.875 44.328125 
Q 39.84375 48.1875 33.796875 48.1875 
Q 26.515625 48.1875 22.3125 43.546875 
Q 18.109375 38.921875 18.109375 30.90625 
L 18.109375 0 
L 9.078125 0 
L 9.078125 75.984375 
L 18.109375 75.984375 
L 18.109375 46.1875 
Q 21.34375 51.125 25.703125 53.5625 
Q 30.078125 56 35.796875 56 
Q 45.21875 56 50.046875 50.171875 
Q 54.890625 44.34375 54.890625 33.015625 
z
" id="DejaVuSans-104"/>
      <path d="M 37.109375 75.984375 
L 37.109375 68.5 
L 28.515625 68.5 
Q 23.6875 68.5 21.796875 66.546875 
Q 19.921875 64.59375 19.921875 59.515625 
L 19.921875 54.6875 
L 34.71875 54.6875 
L 34.71875 47.703125 
L 19.921875 47.703125 
L 19.921875 0 
L 10.890625 0 
L 10.890625 47.703125 
L 2.296875 47.703125 
L 2.296875 54.6875 
L 10.890625 54.6875 
L 10.890625 58.5 
Q 10.890625 67.625 15.140625 71.796875 
Q 19.390625 75.984375 28.609375 75.984375 
z
" id="DejaVuSans-102"/>
      <path d="M 2.984375 54.6875 
L 12.5 54.6875 
L 29.59375 8.796875 
L 46.6875 54.6875 
L 56.203125 54.6875 
L 35.6875 0 
L 23.484375 0 
z
" id="DejaVuSans-118"/>
     </defs>
     <g transform="translate(86.042187 485.492188)rotate(-90)scale(0.1 -0.1)">
      <use xlink:href="#DejaVuSans-108"/>
      <use x="27.783203" xlink:href="#DejaVuSans-111"/>
      <use x="88.964844" xlink:href="#DejaVuSans-103"/>
      <use x="152.441406" xlink:href="#DejaVuSans-40"/>
      <use x="191.455078" xlink:href="#DejaVuSans-115"/>
      <use x="243.554688" xlink:href="#DejaVuSans-117"/>
      <use x="306.933594" xlink:href="#DejaVuSans-109"/>
      <use x="404.345703" xlink:href="#DejaVuSans-40"/>
      <use x="443.359375" xlink:href="#DejaVuSans-124"/>
      <use x="477.050781" xlink:href="#DejaVuSans-101"/>
      <use x="538.558594" xlink:href="#DejaVuSans-120"/>
      <use x="597.738281" xlink:href="#DejaVuSans-112"/>
      <use x="661.214844" xlink:href="#DejaVuSans-101"/>
      <use x="722.738281" xlink:href="#DejaVuSans-99"/>
      <use x="777.71875" xlink:href="#DejaVuSans-116"/>
      <use x="816.927734" xlink:href="#DejaVuSans-101"/>
      <use x="878.451172" xlink:href="#DejaVuSans-100"/>
      <use x="941.927734" xlink:href="#DejaVuSans-95"/>
      <use x="991.927734" xlink:href="#DejaVuSans-115"/>
      <use x="1044.027344" xlink:href="#DejaVuSans-104"/>
      <use x="1107.40625" xlink:href="#DejaVuSans-105"/>
      <use x="1135.189453" xlink:href="#DejaVuSans-102"/>
      <use x="1170.378906" xlink:href="#DejaVuSans-116"/>
      <use x="1209.587891" xlink:href="#DejaVuSans-32"/>
      <use x="1241.375" xlink:href="#DejaVuSans-45"/>
      <use x="1277.458984" xlink:href="#DejaVuSans-32"/>
      <use x="1309.246094" xlink:href="#DejaVuSans-114"/>
      <use x="1350.328125" xlink:href="#DejaVuSans-101"/>
      <use x="1411.851562" xlink:href="#DejaVuSans-97"/>
      <use x="1473.130859" xlink:href="#DejaVuSans-108"/>
      <use x="1500.914062" xlink:href="#DejaVuSans-95"/>
      <use x="1550.914062" xlink:href="#DejaVuSans-115"/>
      <use x="1603.013672" xlink:href="#DejaVuSans-104"/>
      <use x="1666.392578" xlink:href="#DejaVuSans-105"/>
      <use x="1694.175781" xlink:href="#DejaVuSans-102"/>
      <use x="1729.365234" xlink:href="#DejaVuSans-116"/>
      <use x="1768.574219" xlink:href="#DejaVuSans-124"/>
      <use x="1802.265625" xlink:href="#DejaVuSans-41"/>
      <use x="1841.279297" xlink:href="#DejaVuSans-41"/>
      <use x="1880.292969" xlink:href="#DejaVuSans-32"/>
      <use x="1912.080078" xlink:href="#DejaVuSans-111"/>
      <use x="1973.261719" xlink:href="#DejaVuSans-118"/>
      <use x="2032.441406" xlink:href="#DejaVuSans-101"/>
      <use x="2093.964844" xlink:href="#DejaVuSans-114"/>
      <use x="2135.078125" xlink:href="#DejaVuSans-32"/>
      <use x="2166.865234" xlink:href="#DejaVuSans-50"/>
      <use x="2230.488281" xlink:href="#DejaVuSans-48"/>
      <use x="2294.111328" xlink:href="#DejaVuSans-32"/>
      <use x="2325.898438" xlink:href="#DejaVuSans-114"/>
      <use x="2367.011719" xlink:href="#DejaVuSans-117"/>
      <use x="2430.390625" xlink:href="#DejaVuSans-110"/>
      <use x="2493.769531" xlink:href="#DejaVuSans-115"/>
     </g>
    </g>
   </g>
   <g id="line2d_54">
    <path clip-path="url(#p3740aadd62)" d="M 149.972727 444.811245 
L 159.298823 443.485482 
L 159.298823 439.150241 
L 163.161818 436.307836 
L 163.161818 433.142891 
L 174.220576 429.738745 
L 174.220576 422.522035 
L 175.952223 418.832785 
L 175.952223 401.046534 
L 184.264364 397.755994 
L 184.264364 388.544391 
L 196.603205 385.694258 
L 196.603205 377.761605 
L 197.526671 375.312697 
L 197.526671 364.366679 
L 202.530882 362.41243 
L 202.530882 353.643024 
L 215.918182 352.06618 
L 215.918182 347.636961 
L 218.426269 346.251366 
L 218.426269 343.605316 
L 219.058641 342.340902 
L 219.058641 335.504524 
L 222.593975 334.479239 
L 222.593975 329.75334 
L 232.799588 328.869251 
L 232.799588 324.627305 
L 235.772807 323.805131 
L 235.772807 321.410985 
L 236.278172 320.646706 
L 236.278172 317.259512 
L 239.133323 316.693731 
L 239.133323 313.698892 
L 246.780655 313.334969 
L 246.780655 312.131829 
L 247.625455 311.66142 
L 247.625455 307.728927 
L 259.734019 306.897008 
L 259.734019 300.549524 
L 266.548923 299.665496 
L 266.548923 297.964831 
L 266.921371 297.154786 
L 266.921371 292.74403 
L 269.043998 292.052362 
L 269.043998 286.978466 
L 271.312364 286.172045 
L 271.312364 284.464899 
L 275.529132 283.559473 
L 275.529132 276.03639 
L 285.161102 274.780718 
L 285.161102 267.880038 
L 294.71962 266.401411 
L 294.71962 257.32641 
L 314.836364 255.84602 
L 314.836364 251.611514 
L 342.090297 250.291404 
L 342.090297 246.692745 
L 342.316525 245.631036 
L 342.316525 241.448943 
L 343.614455 240.833481 
L 343.614455 238.228153 
L 347.668357 237.888688 
L 347.668357 234.746402 
L 353.921368 234.058968 
L 353.921368 226.696707 
L 360.379035 225.269685 
L 360.379035 213.251736 
L 374.692931 211.356012 
L 374.692931 200.2178 
L 421.668 198.517162 
L 421.668 193.894045 
L 477.318684 192.538003 
L 477.318684 190.135739 
L 477.451507 189.093834 
L 477.451507 185.441441 
L 478.215523 184.994092 
L 478.215523 183.610341 
L 480.623263 183.396048 
L 480.623263 182.651303 
L 484.399494 182.407841 
L 484.399494 179.352713 
L 488.376375 178.703613 
L 488.376375 173.617514 
L 497.457093 172.57642 
L 497.457093 164.318122 
L 529.53107 163.109011 
L 529.53107 156.860328 
L 612.909818 156.09408 
L 612.909818 154.435371 
L 616.277508 154.109771 
L 616.277508 153.804306 
L 616.37076 154.448896 
L 616.907527 154.818805 
L 616.907527 158.059866 
L 618.603232 158.405567 
L 618.603232 158.857941 
L 618.603232 158.345719 
L 621.275216 157.972478 
L 621.275216 153.881839 
L 624.105412 153.194774 
L 624.105412 148.195459 
L 630.628694 147.432935 
L 630.628694 141.228725 
L 654.303283 140.200799 
L 654.303283 132.624453 
L 719.70558 131.60337 
L 719.70558 126.420842 
L 809.427273 126.068104 
L 809.427273 125.71072 
L 809.427273 125.71072 
" style="fill:none;stroke:#000000;stroke-linecap:square;stroke-width:1.5;"/>
   </g>
   <g id="line2d_55">
    <path clip-path="url(#p3740aadd62)" d="M 149.972727 444.821603 
L 159.298823 443.495622 
L 159.298823 439.15971 
L 163.161818 436.316898 
L 163.161818 433.151527 
L 174.220576 429.746955 
L 174.220576 422.529442 
L 175.952223 418.839833 
L 175.952223 401.052259 
L 184.264364 397.761541 
L 184.264364 388.549532 
L 196.603205 385.699295 
L 196.603205 377.766383 
L 197.526671 375.317395 
L 197.526671 364.370927 
L 202.530882 362.416566 
L 202.530882 353.646471 
L 215.918182 352.069465 
L 215.918182 347.639737 
L 218.426269 346.253969 
L 218.426269 343.607574 
L 219.058641 342.342993 
L 219.058641 335.505759 
L 222.593975 334.480366 
L 222.593975 329.754108 
L 232.799588 328.869985 
L 232.799588 324.627805 
L 235.772807 323.805547 
L 235.772807 321.410937 
L 236.278172 320.646367 
L 236.278172 317.255452 
L 239.133323 316.688195 
L 239.133323 313.669305 
L 246.780655 313.299275 
L 246.780655 312.073426 
L 247.625455 311.594144 
L 247.625455 307.604519 
L 259.734019 306.764266 
L 259.734019 300.389573 
L 266.548923 299.506797 
L 266.548923 297.812175 
L 266.921371 297.006711 
L 266.921371 292.638035 
L 269.043998 291.954815 
L 269.043998 286.944736 
L 271.312364 286.148025 
L 271.312364 284.460739 
L 275.529132 283.565393 
L 275.529132 276.109346 
L 285.161102 274.861693 
L 285.161102 267.990764 
L 294.71962 266.515961 
L 294.71962 257.45269 
L 314.836364 255.973009 
L 314.836364 251.739782 
L 342.090297 250.419965 
L 342.090297 246.822318 
L 342.316525 245.761077 
L 342.316525 241.582862 
L 343.614455 240.968494 
L 343.614455 238.370087 
L 347.668357 238.031378 
L 347.668357 234.88216 
L 353.921368 234.191274 
L 353.921368 226.787727 
L 360.379035 225.353251 
L 360.379035 213.28686 
L 374.692931 211.385749 
L 374.692931 200.225905 
L 421.668 198.523242 
L 421.668 193.896016 
L 477.318684 192.539129 
L 477.318684 190.135719 
L 477.451507 189.093458 
L 477.451507 185.44061 
L 478.215523 184.993331 
L 478.215523 183.61069 
L 480.623263 183.397084 
L 480.623263 182.655146 
L 484.399494 182.412462 
L 484.399494 179.364391 
L 488.376375 178.716343 
L 488.376375 173.634596 
L 497.457093 172.593712 
L 497.457093 164.332768 
L 529.53107 163.12291 
L 529.53107 156.871051 
L 612.909818 156.104864 
L 612.909818 154.448257 
L 616.277508 154.124179 
L 616.277508 153.823353 
L 616.37076 154.485357 
L 616.907527 154.861618 
L 616.907527 158.16692 
L 618.603232 158.522878 
L 618.603232 158.994044 
L 618.603232 158.505984 
L 621.275216 158.132271 
L 621.275216 153.996313 
L 624.105412 153.299365 
L 624.105412 148.237003 
L 630.628694 147.467829 
L 630.628694 141.236245 
L 654.303283 140.206578 
L 654.303283 132.625251 
L 719.70558 131.603992 
L 719.70558 126.42113 
L 809.427273 126.068387 
L 809.427273 125.710985 
L 809.427273 125.710985 
" style="fill:none;stroke:#010000;stroke-linecap:square;stroke-width:1.5;"/>
   </g>
   <g id="line2d_56">
    <path clip-path="url(#p3740aadd62)" d="M 149.972727 444.835848 
L 159.298823 443.509468 
L 159.298823 439.172313 
L 163.161818 436.328732 
L 163.161818 433.162546 
L 174.220576 429.757143 
L 174.220576 422.538011 
L 175.952223 418.847644 
L 175.952223 401.057028 
L 184.264364 397.765856 
L 184.264364 388.552777 
L 196.603205 385.702271 
L 196.603205 377.768783 
L 197.526671 375.319671 
L 197.526671 364.37297 
L 202.530882 362.418622 
L 202.530882 353.648739 
L 215.918182 352.071792 
L 215.918182 347.642233 
L 218.426269 346.256515 
L 218.426269 343.610205 
L 219.058641 342.345657 
L 219.058641 335.508461 
L 222.593975 334.483048 
L 222.593975 329.756618 
L 232.799588 328.872452 
L 232.799588 324.630178 
L 235.772807 323.807948 
L 235.772807 321.413542 
L 236.278172 320.649112 
L 236.278172 317.259756 
L 239.133323 316.69307 
L 239.133323 313.681816 
L 246.780655 313.313404 
L 246.780655 312.092618 
L 247.625455 311.614907 
L 247.625455 307.627843 
L 259.734019 306.786232 
L 259.734019 300.383947 
L 266.548923 299.495338 
L 266.548923 297.788637 
L 266.921371 296.977159 
L 266.921371 292.581144 
L 269.043998 291.895903 
L 269.043998 286.90057 
L 271.312364 286.110021 
L 271.312364 284.437225 
L 275.529132 283.549969 
L 275.529132 276.148157 
L 285.161102 274.905525 
L 285.161102 268.041566 
L 294.71962 266.564518 
L 294.71962 257.471238 
L 314.836364 255.985228 
L 314.836364 251.733584 
L 342.090297 250.40821 
L 342.090297 246.796762 
L 342.316525 245.73212 
L 342.316525 241.547661 
L 343.614455 240.934432 
L 343.614455 238.360823 
L 347.668357 238.029108 
L 347.668357 234.942589 
L 353.921368 234.261098 
L 353.921368 226.906419 
L 360.379035 225.475218 
L 360.379035 213.402176 
L 374.692931 211.496614 
L 374.692931 200.301959 
L 421.668 198.593149 
L 421.668 193.948542 
L 477.318684 192.586381 
L 477.318684 190.173426 
L 477.451507 189.126915 
L 477.451507 185.457991 
L 478.215523 185.008455 
L 478.215523 183.617473 
L 480.623263 183.402751 
L 480.623263 182.660906 
L 484.399494 182.418791 
L 484.399494 179.383701 
L 488.376375 178.739517 
L 488.376375 173.699209 
L 497.457093 172.668843 
L 497.457093 164.50579 
L 529.53107 163.311461 
L 529.53107 157.137841 
L 612.909818 156.38006 
L 612.909818 154.737355 
L 616.277508 154.413853 
L 616.277508 154.107931 
L 616.37076 154.7364 
L 616.907527 155.100132 
L 616.907527 158.296071 
L 618.603232 158.636545 
L 618.603232 159.079346 
L 618.603232 158.541328 
L 621.275216 158.161378 
L 621.275216 154.006005 
L 624.105412 153.308385 
L 624.105412 148.245012 
L 630.628694 147.475751 
L 630.628694 141.242142 
L 654.303283 140.212036 
L 654.303283 132.627771 
L 719.70558 131.606193 
L 719.70558 126.42202 
L 809.427273 126.069206 
L 809.427273 125.711734 
L 809.427273 125.711734 
" style="fill:none;stroke:#030000;stroke-linecap:square;stroke-width:1.5;"/>
   </g>
   <g id="line2d_57">
    <path clip-path="url(#p3740aadd62)" d="M 149.972727 445.825426 
L 159.298823 444.539976 
L 159.298823 440.333403 
L 163.161818 437.571107 
L 163.161818 434.491134 
L 174.220576 431.175486 
L 174.220576 424.132778 
L 175.952223 420.525325 
L 175.952223 403.053519 
L 184.264364 399.803021 
L 184.264364 390.661597 
L 196.603205 387.818497 
L 196.603205 379.859018 
L 197.526671 377.386153 
L 197.526671 366.22278 
L 202.530882 364.208124 
L 202.530882 355.075578 
L 215.918182 353.417539 
L 215.918182 348.739041 
L 218.426269 347.270832 
L 218.426269 344.464585 
L 219.058641 343.123882 
L 219.058641 335.912061 
L 222.593975 334.839971 
L 222.593975 329.944181 
L 232.799588 329.037236 
L 232.799588 324.72022 
L 235.772807 323.888827 
L 235.772807 321.474315 
L 236.278172 320.704797 
L 236.278172 317.290931 
L 239.133323 316.71774 
L 239.133323 313.607514 
L 246.780655 313.213194 
L 246.780655 311.89148 
L 247.625455 311.372371 
L 247.625455 307.081902 
L 259.734019 306.187368 
L 259.734019 299.505911 
L 266.548923 298.597706 
L 266.548923 296.86961 
L 266.921371 296.056114 
L 266.921371 291.74557 
L 269.043998 291.085406 
L 269.043998 286.272958 
L 271.312364 285.504776 
L 271.312364 283.872553 
L 275.529132 283.00374 
L 275.529132 275.721592 
L 285.161102 274.498278 
L 285.161102 267.752294 
L 294.71962 266.303189 
L 294.71962 257.39589 
L 314.836364 255.941584 
L 314.836364 251.781356 
L 342.090297 250.484635 
L 342.090297 246.952159 
L 342.316525 245.911404 
L 342.316525 241.829522 
L 343.614455 241.233813 
L 343.614455 238.744913 
L 347.668357 238.423158 
L 347.668357 235.354498 
L 353.921368 234.666961 
L 353.921368 227.219445 
L 360.379035 225.770381 
L 360.379035 213.57355 
L 374.692931 211.652593 
L 374.692931 200.385228 
L 421.668 198.667541 
L 421.668 194.001077 
L 477.318684 192.633052 
L 477.318684 190.210139 
L 477.451507 189.159432 
L 477.451507 185.475582 
L 478.215523 185.023999 
L 478.215523 183.624942 
L 480.623263 183.408608 
L 480.623263 182.663981 
L 484.399494 182.421458 
L 484.399494 179.384889 
L 488.376375 178.740757 
L 488.376375 173.702284 
L 497.457093 172.672419 
L 497.457093 164.512707 
L 529.53107 163.318678 
L 529.53107 157.145569 
L 612.909818 156.387698 
L 612.909818 154.744549 
L 616.277508 154.420863 
L 616.277508 154.11454 
L 616.37076 154.74216 
L 616.907527 155.105679 
L 616.907527 158.300271 
L 618.603232 158.640613 
L 618.603232 159.083256 
L 618.603232 158.545828 
L 621.275216 158.166223 
L 621.275216 154.015639 
L 624.105412 153.318989 
L 624.105412 148.262474 
L 630.628694 147.493948 
L 630.628694 141.261282 
L 654.303283 140.23067 
L 654.303283 132.640442 
L 719.70558 131.617945 
L 719.70558 126.429216 
L 809.427273 126.076106 
L 809.427273 125.718337 
L 809.427273 125.718337 
" style="fill:none;stroke:#0d0000;stroke-linecap:square;stroke-width:1.5;"/>
   </g>
   <g id="line2d_58">
    <path clip-path="url(#p3740aadd62)" d="M 149.972727 446.453054 
L 159.298823 445.154445 
L 159.298823 440.905941 
L 163.161818 438.116998 
L 163.161818 435.008052 
L 174.220576 431.661986 
L 174.220576 424.557076 
L 175.952223 420.918937 
L 175.952223 403.3095 
L 184.264364 400.035705 
L 184.264364 390.834146 
L 196.603205 387.974246 
L 196.603205 379.973428 
L 197.526671 377.489517 
L 197.526671 366.286104 
L 202.530882 364.265627 
L 202.530882 355.109529 
L 215.918182 353.447538 
L 215.918182 348.758452 
L 218.426269 347.287197 
L 218.426269 344.475743 
L 219.058641 343.132933 
L 219.058641 335.91634 
L 222.593975 334.844742 
L 222.593975 329.955536 
L 232.799588 329.050507 
L 232.799588 324.744492 
L 235.772807 323.915448 
L 235.772807 321.507761 
L 236.278172 320.740465 
L 236.278172 317.337524 
L 239.133323 316.766569 
L 239.133323 313.676199 
L 246.780655 313.285753 
L 246.780655 311.977244 
L 247.625455 311.462866 
L 247.625455 307.195573 
L 259.734019 306.302445 
L 259.734019 299.594791 
L 266.548923 298.677446 
L 266.548923 296.927656 
L 266.921371 296.101837 
L 266.921371 291.705741 
L 269.043998 291.030656 
L 269.043998 286.124121 
L 271.312364 285.345328 
L 271.312364 283.695439 
L 275.529132 282.819863 
L 275.529132 275.546483 
L 285.161102 274.334199 
L 285.161102 267.680925 
L 294.71962 266.2565 
L 294.71962 257.507617 
L 314.836364 256.076757 
L 314.836364 251.9723 
L 342.090297 250.68818 
L 342.090297 247.172621 
L 342.316525 246.130481 
L 342.316525 241.996578 
L 343.614455 241.383776 
L 343.614455 238.781464 
L 347.668357 238.442921 
L 347.668357 235.304894 
L 353.921368 234.614091 
L 353.921368 227.161629 
L 360.379035 225.712023 
L 360.379035 213.508312 
L 374.692931 211.587053 
L 374.692931 200.328407 
L 421.668 198.613864 
L 421.668 193.958683 
L 477.318684 192.594772 
L 477.318684 190.180199 
L 477.451507 189.13358 
L 477.451507 185.467545 
L 478.215523 185.018811 
L 478.215523 183.631645 
L 480.623263 183.417712 
L 480.623263 182.677557 
L 484.399494 182.435848 
L 484.399494 179.405281 
L 488.376375 178.761979 
L 488.376375 173.726833 
L 497.457093 172.697106 
L 497.457093 164.534521 
L 529.53107 163.339659 
L 529.53107 157.160997 
L 612.909818 156.402257 
L 612.909818 154.756801 
L 616.277508 154.432459 
L 616.277508 154.125003 
L 616.37076 154.750974 
L 616.907527 155.114179 
L 616.907527 158.306868 
L 618.603232 158.646893 
L 618.603232 159.088802 
L 618.603232 158.548761 
L 621.275216 158.168482 
L 621.275216 154.011915 
L 624.105412 153.314297 
L 624.105412 148.25178 
L 630.628694 147.48268 
L 630.628694 141.249554 
L 654.303283 140.219402 
L 654.303283 132.634566 
L 719.70558 131.612933 
L 719.70558 126.428716 
L 809.427273 126.075916 
L 809.427273 125.718459 
L 809.427273 125.718459 
" style="fill:none;stroke:#1a0000;stroke-linecap:square;stroke-width:1.5;"/>
   </g>
   <g id="line2d_59">
    <path clip-path="url(#p3740aadd62)" d="M 149.972727 450.177962 
L 159.298823 448.811018 
L 159.298823 444.345072 
L 163.161818 441.417748 
L 163.161818 438.158475 
L 174.220576 434.653998 
L 174.220576 427.222299 
L 175.952223 423.420568 
L 175.952223 405.038924 
L 184.264364 401.624794 
L 184.264364 392.039951 
L 196.603205 389.066374 
L 196.603205 380.771205 
L 197.526671 378.205403 
L 197.526671 366.710733 
L 202.530882 364.653448 
L 202.530882 355.391445 
L 215.918182 353.719435 
L 215.918182 349.011608 
L 218.426269 347.536082 
L 218.426269 344.716484 
L 219.058641 343.369182 
L 219.058641 336.11094 
L 222.593975 335.03006 
L 222.593975 330.092098 
L 232.799588 329.177991 
L 232.799588 324.835877 
L 235.772807 324.001678 
L 235.772807 321.582468 
L 236.278172 320.812371 
L 236.278172 317.400577 
L 239.133323 316.828581 
L 239.133323 313.738821 
L 246.780655 313.350244 
L 246.780655 312.05185 
L 247.625455 311.542578 
L 247.625455 307.324335 
L 259.734019 306.4417 
L 259.734019 299.800895 
L 266.548923 298.889334 
L 266.548923 297.146334 
L 266.921371 296.321284 
L 266.921371 291.893805 
L 269.043998 291.208759 
L 269.043998 286.228434 
L 271.312364 285.441578 
L 271.312364 283.779134 
L 275.529132 282.899169 
L 275.529132 275.627102 
L 285.161102 274.41866 
L 285.161102 267.793073 
L 294.71962 266.375452 
L 294.71962 257.67035 
L 314.836364 256.246748 
L 314.836364 252.16286 
L 342.090297 250.884989 
L 342.090297 247.385869 
L 342.316525 246.348321 
L 342.316525 242.229665 
L 343.614455 241.618282 
L 343.614455 239.013803 
L 347.668357 238.673621 
L 347.668357 235.527007 
L 353.921368 234.836902 
L 353.921368 227.411269 
L 360.379035 225.967669 
L 360.379035 213.791207 
L 374.692931 211.868988 
L 374.692931 200.57125 
L 421.668 198.845586 
L 421.668 194.152765 
L 477.318684 192.775598 
L 477.318684 190.334627 
L 477.451507 189.275213 
L 477.451507 185.554352 
L 478.215523 185.097061 
L 478.215523 183.678439 
L 480.623263 183.461499 
L 480.623263 182.729775 
L 484.399494 182.492791 
L 484.399494 179.538484 
L 488.376375 178.914801 
L 488.376375 174.064347 
L 497.457093 173.077297 
L 497.457093 165.279062 
L 529.53107 164.140246 
L 529.53107 158.276391 
L 612.909818 157.564448 
L 612.909818 156.049051 
L 616.277508 155.764993 
L 616.277508 155.534431 
L 616.37076 156.302007 
L 616.907527 156.697771 
L 616.907527 160.039916 
L 618.603232 160.381415 
L 618.603232 160.804429 
L 618.603232 160.090249 
L 621.275216 159.657892 
L 621.275216 155.140945 
L 624.105412 154.410174 
L 624.105412 149.433368 
L 630.628694 148.734112 
L 630.628694 143.460485 
L 654.303283 142.628828 
L 654.303283 136.627203 
L 719.70558 135.827744 
L 719.70558 131.787768 
L 809.427273 131.513755 
L 809.427273 131.236161 
L 809.427273 131.236161 
" style="fill:none;stroke:#330000;stroke-linecap:square;stroke-width:1.5;"/>
   </g>
   <g id="line2d_60">
    <path clip-path="url(#p3740aadd62)" d="M 149.972727 472.90861 
L 159.298823 470.938617 
L 159.298823 464.622487 
L 163.161818 460.569647 
L 163.161818 456.129546 
L 174.220576 451.431127 
L 174.220576 441.690661 
L 175.952223 436.809283 
L 175.952223 413.979331 
L 184.264364 409.862479 
L 184.264364 398.495721 
L 196.603205 395.025732 
L 196.603205 385.483798 
L 197.526671 382.571897 
L 197.526671 369.727507 
L 202.530882 367.458678 
L 202.530882 357.331776 
L 215.918182 355.517804 
L 215.918182 350.434171 
L 218.426269 348.848666 
L 218.426269 345.830133 
L 219.058641 344.393274 
L 219.058641 336.718661 
L 222.593975 335.585996 
L 222.593975 330.448589 
L 232.799588 329.50494 
L 232.799588 325.054911 
L 235.772807 324.205738 
L 235.772807 321.751638 
L 236.278172 320.972768 
L 236.278172 317.533928 
L 239.133323 316.959718 
L 239.133323 313.892765 
L 246.780655 313.515115 
L 246.780655 312.265974 
L 247.625455 311.778946 
L 247.625455 307.752832 
L 259.734019 306.909735 
L 259.734019 300.553781 
L 266.548923 299.679334 
L 266.548923 298.004894 
L 266.921371 297.210753 
L 266.921371 292.915093 
L 269.043998 292.243129 
L 269.043998 287.309513 
L 271.312364 286.526874 
L 271.312364 284.874475 
L 275.529132 284.000973 
L 275.529132 276.805622 
L 285.161102 275.610007 
L 285.161102 269.022104 
L 294.71962 267.602651 
L 294.71962 258.791357 
L 314.836364 257.33408 
L 314.836364 253.127243 
L 342.090297 251.802736 
L 342.090297 248.153694 
L 342.316525 247.064771 
L 342.316525 242.702566 
L 343.614455 242.048512 
L 343.614455 239.263109 
L 347.668357 238.908325 
L 347.668357 235.805222 
L 353.921368 235.142979 
L 353.921368 228.058425 
L 360.379035 226.6826 
L 360.379035 215.062545 
L 374.692931 213.225565 
L 374.692931 202.414743 
L 421.668 200.762255 
L 421.668 196.267047 
L 477.318684 194.947774 
L 477.318684 192.609725 
L 477.451507 191.594851 
L 477.451507 188.025008 
L 478.215523 187.583555 
L 478.215523 186.174913 
L 480.623263 186.052889 
L 480.623263 185.149641 
L 484.399494 184.907496 
L 484.399494 182.090321 
L 488.376375 181.522785 
L 488.376375 177.26647 
L 497.457093 176.420773 
L 497.457093 169.801516 
L 529.53107 168.835222 
L 529.53107 163.851748 
L 612.909818 163.252114 
L 612.909818 162.0127 
L 616.37076 161.693985 
L 616.37076 161.793773 
L 616.37076 162.633259 
L 616.907527 163.059335 
L 616.907527 166.438681 
L 618.603232 166.748418 
L 618.603232 166.962674 
L 618.603232 165.885366 
L 621.275216 165.330187 
L 621.275216 159.927314 
L 624.105412 159.088183 
L 624.105412 153.679277 
L 630.628694 152.978779 
L 630.628694 148.272041 
L 654.303283 147.607948 
L 654.303283 143.211076 
L 719.70558 142.665581 
L 719.70558 140.019849 
L 809.427273 139.846776 
L 809.427273 139.672103 
L 809.427273 139.672103 
" style="fill:none;stroke:#4c0000;stroke-linecap:square;stroke-width:1.5;"/>
   </g>
   <g id="line2d_61">
    <path clip-path="url(#p3740aadd62)" d="M 149.972727 507.616321 
L 159.298823 505.867961 
L 159.298823 500.25063 
L 163.161818 496.637142 
L 163.161818 492.659518 
L 174.220576 488.451764 
L 174.220576 479.713727 
L 175.952223 475.333923 
L 175.952223 454.855494 
L 184.264364 451.149359 
L 184.264364 440.837518 
L 196.603205 437.651798 
L 196.603205 428.721996 
L 197.526671 425.934444 
L 197.526671 413.148567 
L 202.530882 410.791694 
L 202.530882 399.749821 
L 215.918182 397.63865 
L 215.918182 391.348803 
L 218.426269 389.233766 
L 218.426269 384.937835 
L 219.058641 382.745757 
L 219.058641 369.100072 
L 222.593975 366.808004 
L 222.593975 355.915035 
L 232.799588 353.918459 
L 232.799588 345.225652 
L 235.772807 343.764564 
L 235.772807 339.952479 
L 236.278172 338.864385 
L 236.278172 334.616753 
L 239.133323 333.961966 
L 239.133323 329.950294 
L 246.780655 329.302705 
L 246.780655 326.993032 
L 247.625455 326.078804 
L 247.625455 319.184378 
L 259.734019 317.887228 
L 259.734019 309.250283 
L 266.548923 308.195818 
L 266.548923 306.261595 
L 266.921371 305.382482 
L 266.921371 300.9859 
L 269.043998 300.32916 
L 269.043998 295.321577 
L 271.312364 294.482499 
L 271.312364 292.68236 
L 275.529132 291.721647 
L 275.529132 283.954489 
L 285.161102 282.726481 
L 285.161102 276.370491 
L 294.71962 275.08957 
L 294.71962 267.744129 
L 314.836364 266.617814 
L 314.836364 263.485626 
L 342.090297 262.532465 
L 342.090297 259.979464 
L 342.316525 259.236936 
L 342.316525 256.324144 
L 343.614455 255.888214 
L 343.614455 253.829189 
L 347.668357 253.50117 
L 347.668357 249.992393 
L 353.921368 249.212875 
L 353.921368 241.256166 
L 360.379035 239.783155 
L 360.379035 227.972441 
L 374.692931 226.188225 
L 374.692931 216.03863 
L 421.668 214.538775 
L 421.668 210.533905 
L 477.318684 209.383432 
L 477.318684 207.381836 
L 477.451507 206.531312 
L 477.451507 203.694471 
L 478.215523 203.373574 
L 478.215523 202.40778 
L 480.623263 202.30114 
L 480.623263 201.040839 
L 484.399494 200.656452 
L 484.399494 196.173692 
L 488.376375 195.284045 
L 488.376375 188.875491 
L 497.457093 187.668642 
L 497.457093 179.046231 
L 529.53107 177.911751 
L 529.53107 172.688807 
L 612.909818 172.172941 
L 612.909818 171.364794 
L 616.277508 171.350087 
L 616.277508 171.350087 
L 616.37076 171.462292 
L 616.37076 173.722654 
L 616.907527 174.43527 
L 616.907527 179.473825 
L 618.603232 179.908681 
L 618.603232 180.206931 
L 618.603232 178.780198 
L 621.275216 178.051 
L 621.275216 171.113182 
L 624.105412 170.045662 
L 624.105412 163.015359 
L 630.628694 162.065353 
L 630.628694 155.419313 
L 654.303283 154.463469 
L 654.303283 148.221899 
L 719.70558 147.465974 
L 719.70558 143.870738 
L 809.427273 143.639803 
L 809.427273 143.407414 
L 809.427273 143.407414 
" style="fill:none;stroke:#660000;stroke-linecap:square;stroke-width:1.5;"/>
   </g>
   <g id="line2d_62">
    <path clip-path="url(#p3740aadd62)" d="M 149.972727 551.277236 
L 159.298823 550.651045 
L 159.298823 548.59854 
L 163.161818 547.187442 
L 163.161818 545.561067 
L 174.220576 543.771046 
L 174.220576 539.772296 
L 175.952223 537.611613 
L 175.952223 525.649999 
L 184.264364 523.025533 
L 184.264364 514.678849 
L 196.603205 511.742888 
L 196.603205 502.434592 
L 197.526671 499.200882 
L 197.526671 482.500936 
L 202.530882 479.143954 
L 202.530882 462.598332 
L 215.918182 459.338127 
L 215.918182 449.612876 
L 218.426269 446.369148 
L 218.426269 439.930323 
L 219.058641 436.739589 
L 219.058641 418.951209 
L 222.593975 416.371987 
L 222.593975 405.955161 
L 232.799588 404.40808 
L 232.799588 399.089662 
L 235.772807 398.408742 
L 235.772807 396.792583 
L 236.278172 396.32321 
L 236.278172 393.682115 
L 239.133323 393.019266 
L 239.133323 386.863155 
L 246.780655 385.79464 
L 246.780655 382.366012 
L 247.625455 381.149691 
L 247.625455 373.234877 
L 259.734019 371.86356 
L 259.734019 362.920947 
L 266.548923 361.830285 
L 266.548923 359.820642 
L 266.921371 358.903686 
L 266.921371 354.156199 
L 269.043998 353.390242 
L 269.043998 346.662346 
L 271.312364 345.411939 
L 271.312364 342.669058 
L 275.529132 341.188062 
L 275.529132 329.457644 
L 285.161102 327.705574 
L 285.161102 319.295321 
L 294.71962 317.747879 
L 294.71962 310.030306 
L 314.836364 309.051659 
L 314.836364 306.688648 
L 342.090297 306.086776 
L 342.090297 304.777108 
L 342.316525 304.48765 
L 342.316525 303.693506 
L 343.614455 303.583866 
L 343.614455 302.124815 
L 347.668357 301.627926 
L 347.668357 294.85471 
L 353.921368 293.373138 
L 353.921368 280.103853 
L 360.379035 277.941382 
L 360.379035 262.9256 
L 374.692931 260.961462 
L 374.692931 251.146234 
L 421.668 249.903424 
L 421.668 246.913676 
L 477.318684 246.162812 
L 477.318684 245.018922 
L 477.451507 244.31201 
L 477.451507 243.931168 
L 477.451507 243.931168 
L 478.215523 243.931168 
L 478.215523 244.011543 
L 478.215523 244.537001 
L 480.623263 244.781354 
L 480.623263 244.854707 
L 480.623263 244.011659 
L 484.399494 243.577589 
L 484.399494 237.422105 
L 488.376375 236.071199 
L 488.376375 225.897877 
L 497.457093 223.966744 
L 497.457093 210.779518 
L 529.53107 209.166827 
L 529.53107 202.410358 
L 612.909818 201.866423 
L 612.909818 201.325915 
L 612.909818 201.325915 
L 616.277508 201.325915 
L 616.277508 201.329708 
L 616.37076 205.860954 
L 616.907527 206.970583 
L 616.907527 214.179434 
L 618.603232 214.730554 
L 618.603232 215.077741 
L 618.603232 212.648209 
L 621.275216 211.572706 
L 621.275216 201.218398 
L 624.105412 199.520077 
L 624.105412 187.097107 
L 630.628694 185.273468 
L 630.628694 172.630649 
L 654.303283 170.912779 
L 654.303283 160.537145 
L 719.70558 159.371348 
L 719.70558 154.045566 
L 809.427273 153.714431 
L 809.427273 153.382628 
L 809.427273 153.382628 
" style="fill:none;stroke:#800000;stroke-linecap:square;stroke-width:1.5;"/>
   </g>
   <g id="line2d_63">
    <path clip-path="url(#p3740aadd62)" d="M 149.972727 605.290909 
L 159.298823 604.774146 
L 159.298823 603.157061 
L 163.161818 602.150318 
L 163.161818 601.0916 
L 174.220576 600.035798 
L 174.220576 598.122491 
L 175.952223 597.337316 
L 175.952223 595.585632 
L 184.264364 595.508185 
L 184.264364 595.389863 
L 196.603205 595.134032 
L 196.603205 592.99152 
L 197.526671 591.715651 
L 197.526671 581.353728 
L 202.530882 578.728905 
L 202.530882 564.809176 
L 215.918182 561.996919 
L 215.918182 553.556651 
L 218.426269 550.694501 
L 218.426269 544.908179 
L 219.058641 541.963736 
L 219.058641 524.242698 
L 222.593975 521.429666 
L 222.593975 508.795224 
L 232.799588 506.594573 
L 232.799588 496.849017 
L 235.772807 495.061619 
L 235.772807 489.798924 
L 236.278172 488.049155 
L 236.278172 479.219818 
L 239.133323 477.459336 
L 239.133323 465.484542 
L 246.780655 463.806715 
L 246.780655 458.781781 
L 247.625455 457.100412 
L 247.625455 447.094003 
L 259.734019 445.500398 
L 259.734019 435.820282 
L 266.548923 434.680133 
L 266.548923 432.532388 
L 266.921371 431.510985 
L 266.921371 425.08146 
L 269.043998 423.80645 
L 269.043998 412.025907 
L 271.312364 409.960297 
L 271.312364 405.618619 
L 275.529132 403.374501 
L 275.529132 387.112306 
L 285.161102 384.797181 
L 285.161102 373.534556 
L 294.71962 371.375038 
L 294.71962 359.467418 
L 314.836364 357.709065 
L 314.836364 352.92194 
L 342.090297 351.501656 
L 342.090297 347.793772 
L 342.316525 346.752728 
L 342.316525 342.947614 
L 343.614455 342.444023 
L 343.614455 340.440017 
L 347.668357 340.129494 
L 347.668357 335.22989 
L 353.921368 333.890547 
L 353.921368 319.657453 
L 360.379035 317.153845 
L 360.379035 299.89359 
L 374.692931 297.725822 
L 374.692931 287.606119 
L 421.668 286.462248 
L 421.668 283.99976 
L 477.318684 283.495494 
L 477.318684 282.943699 
L 477.451507 282.88076 
L 477.451507 282.949505 
L 477.451507 283.435303 
L 478.215523 283.831264 
L 478.215523 287.32573 
L 480.623263 287.919023 
L 480.623263 289.539615 
L 480.623263 289.021961 
L 484.399494 288.45865 
L 484.399494 279.706636 
L 488.376375 277.906054 
L 488.376375 265.891109 
L 497.457093 263.851561 
L 497.457093 251.27672 
L 529.53107 249.876642 
L 529.53107 244.481568 
L 612.909818 244.13933 
L 612.909818 243.951484 
L 612.909818 243.951484 
L 616.277508 243.951484 
L 616.37076 248.99641 
L 616.907527 250.05835 
L 616.907527 256.622311 
L 618.603232 257.118054 
L 618.603232 257.444785 
L 618.603232 255.824622 
L 621.275216 255.021705 
L 621.275216 246.440477 
L 624.105412 244.826329 
L 624.105412 230.468725 
L 630.628694 227.967252 
L 630.628694 208.352964 
L 654.303283 205.441995 
L 654.303283 186.938749 
L 719.70558 184.767793 
L 719.70558 174.594721 
L 809.427273 173.946548 
L 809.427273 173.295392 
L 809.427273 173.295392 
" style="fill:none;stroke:#990000;stroke-linecap:square;stroke-width:1.5;"/>
   </g>
   <g id="line2d_64">
    <path clip-path="url(#p3740aadd62)" d="M 149.972727 596.639134 
L 159.298823 595.091669 
L 159.298823 590.019647 
L 163.161818 586.682918 
L 163.161818 582.958381 
L 174.220576 578.952069 
L 174.220576 570.486446 
L 175.952223 566.196778 
L 175.952223 546.642208 
L 184.264364 543.393873 
L 184.264364 535.448367 
L 196.603205 533.447979 
L 196.603205 529.476789 
L 197.526671 528.842397 
L 197.526671 528.550287 
L 197.526671 528.971455 
L 202.530882 529.666373 
L 202.530882 537.307492 
L 215.918182 539.478941 
L 215.918182 546.511551 
L 218.426269 548.842094 
L 218.426269 553.079851 
L 219.058641 554.864648 
L 219.058641 558.388015 
L 219.058641 556.927438 
L 222.593975 555.86488 
L 222.593975 549.005679 
L 232.799588 547.515547 
L 232.799588 539.774552 
L 235.772807 538.121623 
L 235.772807 532.892651 
L 236.278172 531.082069 
L 236.278172 522.317467 
L 239.133323 520.798478 
L 239.133323 514.739415 
L 246.780655 514.595669 
L 246.780655 514.623737 
L 247.625455 514.790876 
L 247.625455 517.147849 
L 259.734019 517.403707 
L 259.734019 510.471431 
L 266.548923 508.647905 
L 266.548923 504.60411 
L 266.921371 502.451575 
L 266.921371 488.836149 
L 269.043998 486.544339 
L 269.043998 470.093218 
L 271.312364 467.636113 
L 271.312364 462.606712 
L 275.529132 460.045749 
L 275.529132 441.655415 
L 285.161102 439.049133 
L 285.161102 426.566971 
L 294.71962 424.229152 
L 294.71962 411.824375 
L 314.836364 410.083414 
L 314.836364 405.532617 
L 342.090297 404.255329 
L 342.090297 401.174845 
L 342.316525 400.40745 
L 342.316525 398.322052 
L 343.614455 398.081704 
L 343.614455 397.881866 
L 347.668357 397.665504 
L 347.668357 391.516238 
L 353.921368 389.831999 
L 353.921368 373.960515 
L 360.379035 371.421689 
L 360.379035 355.156039 
L 374.692931 353.262773 
L 374.692931 345.185132 
L 421.668 344.421739 
L 421.668 343.086969 
L 477.451507 342.90747 
L 477.451507 342.99507 
L 477.451507 344.094488 
L 478.215523 344.450352 
L 478.215523 345.494128 
L 478.215523 345.008848 
L 480.623263 344.55204 
L 480.623263 339.006834 
L 484.399494 337.670954 
L 484.399494 326.005389 
L 488.376375 324.083224 
L 488.376375 311.707109 
L 497.457093 309.562753 
L 497.457093 295.170606 
L 529.53107 293.358773 
L 529.53107 285.036737 
L 612.909818 284.174198 
L 612.909818 282.607924 
L 616.37076 282.423138 
L 616.37076 284.600731 
L 616.907527 285.373127 
L 616.907527 291.135142 
L 618.603232 291.692235 
L 618.603232 292.395306 
L 618.603232 291.521191 
L 621.275216 290.91385 
L 621.275216 283.206037 
L 624.105412 281.562212 
L 624.105412 264.338294 
L 630.628694 260.933432 
L 630.628694 232.11952 
L 654.303283 227.692993 
L 654.303283 199.621626 
L 719.70558 196.365098 
L 719.70558 181.260138 
L 809.427273 180.306445 
L 809.427273 179.34974 
L 809.427273 179.34974 
" style="fill:none;stroke:#b20000;stroke-linecap:square;stroke-width:1.5;"/>
   </g>
   <g id="line2d_65">
    <path clip-path="url(#p3740aadd62)" d="M 149.972727 574.070813 
L 159.298823 573.33812 
L 159.298823 570.888035 
L 163.161818 569.248807 
L 163.161818 567.387835 
L 174.220576 565.347026 
L 174.220576 560.88489 
L 175.952223 558.546415 
L 175.952223 546.599728 
L 184.264364 544.291719 
L 184.264364 537.837425 
L 196.603205 535.877256 
L 196.603205 530.743119 
L 197.526671 529.327131 
L 197.526671 524.829425 
L 202.530882 524.45618 
L 202.530882 524.176932 
L 202.530882 524.234289 
L 215.918182 524.390363 
L 215.918182 525.125528 
L 218.426269 525.355138 
L 218.426269 525.063376 
L 219.058641 524.597659 
L 219.058641 518.930945 
L 222.593975 517.809391 
L 222.593975 513.911053 
L 232.799588 513.708804 
L 232.799588 513.754314 
L 232.799588 514.63869 
L 235.772807 515.503318 
L 235.772807 519.763557 
L 236.278172 521.709575 
L 236.278172 534.173917 
L 239.133323 536.867539 
L 239.133323 547.221391 
L 239.133323 546.090858 
L 246.780655 544.398275 
L 246.780655 536.78928 
L 247.625455 533.722195 
L 247.625455 515.481354 
L 259.734019 513.00108 
L 259.734019 503.718636 
L 266.548923 503.646691 
L 266.548923 503.646691 
L 266.921371 503.88314 
L 266.921371 510.600329 
L 269.043998 512.272286 
L 269.043998 519.322365 
L 269.043998 518.356383 
L 271.312364 516.879332 
L 271.312364 512.518699 
L 275.529132 509.780412 
L 275.529132 486.760255 
L 285.161102 483.617962 
L 285.161102 470.464174 
L 294.71962 468.405792 
L 294.71962 459.78131 
L 314.836364 458.862329 
L 314.836364 456.758405 
L 342.090297 456.244615 
L 342.090297 455.203425 
L 342.316525 454.961092 
L 342.316525 455.142924 
L 343.614455 455.410769 
L 343.614455 459.86999 
L 347.668357 461.031574 
L 347.668357 468.658166 
L 353.921368 468.622028 
L 353.921368 454.867272 
L 360.379035 451.724127 
L 360.379035 427.631548 
L 374.692931 424.277718 
L 374.692931 406.684844 
L 421.668 404.315876 
L 421.668 398.401049 
L 477.318684 396.855334 
L 477.318684 394.448612 
L 477.451507 392.960344 
L 477.451507 392.376821 
L 477.451507 392.376821 
L 478.215523 392.413174 
L 478.215523 396.17912 
L 480.623263 397.143998 
L 480.623263 400.674958 
L 480.623263 400.144363 
L 484.399494 399.268137 
L 484.399494 385.179183 
L 488.376375 382.51724 
L 488.376375 366.897552 
L 497.457093 364.557975 
L 497.457093 351.424211 
L 529.53107 350.037616 
L 529.53107 344.367607 
L 612.909818 343.878825 
L 612.909818 343.217573 
L 616.277508 343.217573 
L 616.277508 343.269086 
L 616.37076 343.451589 
L 616.37076 346.194025 
L 616.907527 347.0347 
L 616.907527 353.387892 
L 618.603232 354.044029 
L 618.603232 354.902443 
L 618.603232 353.356837 
L 621.275216 352.332209 
L 621.275216 336.146184 
L 624.105412 332.205909 
L 624.105412 291.080045 
L 630.628694 283.69282 
L 630.628694 230.812342 
L 654.303283 223.799767 
L 654.303283 183.281146 
L 719.70558 178.908477 
L 719.70558 159.241038 
L 809.427273 158.028652 
L 809.427273 156.815477 
L 809.427273 156.815477 
" style="fill:none;stroke:#cc0000;stroke-linecap:square;stroke-width:1.5;"/>
   </g>
   <g id="line2d_66">
    <path clip-path="url(#p3740aadd62)" d="M 149.972727 591.338551 
L 159.298823 591.223673 
L 159.298823 590.830438 
L 163.161818 590.557296 
L 163.161818 590.226864 
L 174.220576 589.860304 
L 174.220576 589.00735 
L 175.952223 588.528589 
L 175.952223 585.68915 
L 184.264364 585.02443 
L 184.264364 582.873191 
L 196.603205 582.084703 
L 196.603205 579.440811 
L 197.526671 578.447832 
L 197.526671 572.370331 
L 202.530882 570.897467 
L 202.530882 562.286088 
L 215.918182 560.37253 
L 215.918182 554.518119 
L 218.426269 552.593611 
L 218.426269 548.909607 
L 219.058641 547.1907 
L 219.058641 539.703623 
L 222.593975 539.056199 
L 222.593975 538.309275 
L 222.593975 538.309275 
L 232.799588 538.464476 
L 232.799588 542.020947 
L 235.772807 543.18775 
L 235.772807 547.155706 
L 236.278172 548.521102 
L 236.278172 553.983833 
L 239.133323 554.584285 
L 239.133323 555.019248 
L 239.133323 552.818425 
L 246.780655 552.351943 
L 246.780655 551.454642 
L 247.625455 551.38976 
L 247.625455 551.462585 
L 247.625455 552.531343 
L 259.734019 553.159653 
L 259.734019 559.962657 
L 266.548923 561.043873 
L 266.548923 563.048464 
L 266.921371 563.936662 
L 266.921371 566.248845 
L 266.921371 565.75052 
L 269.043998 565.025503 
L 269.043998 554.581471 
L 271.312364 552.503698 
L 271.312364 548.141037 
L 275.529132 545.908757 
L 275.529132 529.736753 
L 285.161102 527.251893 
L 285.161102 513.159454 
L 294.71962 509.991212 
L 294.71962 489.889686 
L 314.836364 486.618833 
L 314.836364 477.42738 
L 342.090297 474.618302 
L 342.090297 467.037368 
L 342.316525 464.789542 
L 342.316525 455.3521 
L 343.614455 453.774003 
L 343.614455 446.100813 
L 347.668357 445.124605 
L 347.668357 440.920483 
L 353.921368 440.667821 
L 353.921368 439.92007 
L 360.379035 439.77271 
L 360.379035 437.014598 
L 374.692931 436.420032 
L 374.692931 433.409175 
L 421.668 433.099475 
L 421.668 433.099475 
L 477.318684 433.1439 
L 477.318684 433.678318 
L 477.451507 434.176018 
L 477.451507 438.84828 
L 478.215523 440.156969 
L 478.215523 449.11775 
L 480.623263 450.556202 
L 480.623263 455.463706 
L 480.623263 455.37136 
L 484.399494 454.696907 
L 484.399494 441.941111 
L 488.376375 439.32146 
L 488.376375 422.654739 
L 497.457093 419.957994 
L 497.457093 403.971094 
L 529.53107 402.234079 
L 529.53107 395.340214 
L 612.909818 394.809471 
L 612.909818 394.255003 
L 616.277508 394.255003 
L 616.277508 394.255003 
L 616.37076 397.737519 
L 616.907527 398.51274 
L 616.907527 401.981041 
L 616.907527 401.621235 
L 618.603232 401.138575 
L 618.603232 392.822199 
L 621.275216 389.863467 
L 621.275216 346.064502 
L 624.105412 336.57339 
L 624.105412 262.491106 
L 630.628694 252.115009 
L 630.628694 188.175215 
L 654.303283 180.499249 
L 654.303283 137.913039 
L 719.70558 133.444658 
L 719.70558 113.544566 
L 809.427273 112.32678 
L 809.427273 111.109091 
L 809.427273 111.109091 
" style="fill:none;stroke:#e60000;stroke-linecap:square;stroke-width:1.5;"/>
   </g>
   <g id="patch_3">
    <path d="M 117 630 
L 117 86.4 
" style="fill:none;stroke:#000000;stroke-linecap:square;stroke-linejoin:miter;stroke-width:0.8;"/>
   </g>
   <g id="patch_4">
    <path d="M 842.4 630 
L 842.4 86.4 
" style="fill:none;stroke:#000000;stroke-linecap:square;stroke-linejoin:miter;stroke-width:0.8;"/>
   </g>
   <g id="patch_5">
    <path d="M 117 630 
L 842.4 630 
" style="fill:none;stroke:#000000;stroke-linecap:square;stroke-linejoin:miter;stroke-width:0.8;"/>
   </g>
   <g id="patch_6">
    <path d="M 117 86.4 
L 842.4 86.4 
" style="fill:none;stroke:#000000;stroke-linecap:square;stroke-linejoin:miter;stroke-width:0.8;"/>
   </g>
   <g id="text_16">
    <!-- X,Y shift estimation error with regard to learning_rate -->
    <defs>
     <path d="M 6.296875 72.90625 
L 16.890625 72.90625 
L 35.015625 45.796875 
L 53.21875 72.90625 
L 63.8125 72.90625 
L 40.375 37.890625 
L 65.375 0 
L 54.78125 0 
L 34.28125 31 
L 13.625 0 
L 2.984375 0 
L 29 38.921875 
z
" id="DejaVuSans-88"/>
     <path d="M 11.71875 12.40625 
L 22.015625 12.40625 
L 22.015625 4 
L 14.015625 -11.625 
L 7.71875 -11.625 
L 11.71875 4 
z
" id="DejaVuSans-44"/>
     <path d="M -0.203125 72.90625 
L 10.40625 72.90625 
L 30.609375 42.921875 
L 50.6875 72.90625 
L 61.28125 72.90625 
L 35.5 34.71875 
L 35.5 0 
L 25.59375 0 
L 25.59375 34.71875 
z
" id="DejaVuSans-89"/>
     <path d="M 4.203125 54.6875 
L 13.1875 54.6875 
L 24.421875 12.015625 
L 35.59375 54.6875 
L 46.1875 54.6875 
L 57.421875 12.015625 
L 68.609375 54.6875 
L 77.59375 54.6875 
L 63.28125 0 
L 52.6875 0 
L 40.921875 44.828125 
L 29.109375 0 
L 18.5 0 
z
" id="DejaVuSans-119"/>
    </defs>
    <g transform="translate(318.5625 80.4)scale(0.12 -0.12)">
     <use xlink:href="#DejaVuSans-88"/>
     <use x="68.505859" xlink:href="#DejaVuSans-44"/>
     <use x="100.292969" xlink:href="#DejaVuSans-89"/>
     <use x="161.376953" xlink:href="#DejaVuSans-32"/>
     <use x="193.164062" xlink:href="#DejaVuSans-115"/>
     <use x="245.263672" xlink:href="#DejaVuSans-104"/>
     <use x="308.642578" xlink:href="#DejaVuSans-105"/>
     <use x="336.425781" xlink:href="#DejaVuSans-102"/>
     <use x="371.615234" xlink:href="#DejaVuSans-116"/>
     <use x="410.824219" xlink:href="#DejaVuSans-32"/>
     <use x="442.611328" xlink:href="#DejaVuSans-101"/>
     <use x="504.134766" xlink:href="#DejaVuSans-115"/>
     <use x="556.234375" xlink:href="#DejaVuSans-116"/>
     <use x="595.443359" xlink:href="#DejaVuSans-105"/>
     <use x="623.226562" xlink:href="#DejaVuSans-109"/>
     <use x="720.638672" xlink:href="#DejaVuSans-97"/>
     <use x="781.917969" xlink:href="#DejaVuSans-116"/>
     <use x="821.126953" xlink:href="#DejaVuSans-105"/>
     <use x="848.910156" xlink:href="#DejaVuSans-111"/>
     <use x="910.091797" xlink:href="#DejaVuSans-110"/>
     <use x="973.470703" xlink:href="#DejaVuSans-32"/>
     <use x="1005.257812" xlink:href="#DejaVuSans-101"/>
     <use x="1066.78125" xlink:href="#DejaVuSans-114"/>
     <use x="1107.878906" xlink:href="#DejaVuSans-114"/>
     <use x="1148.960938" xlink:href="#DejaVuSans-111"/>
     <use x="1210.142578" xlink:href="#DejaVuSans-114"/>
     <use x="1251.255859" xlink:href="#DejaVuSans-32"/>
     <use x="1283.042969" xlink:href="#DejaVuSans-119"/>
     <use x="1364.830078" xlink:href="#DejaVuSans-105"/>
     <use x="1392.613281" xlink:href="#DejaVuSans-116"/>
     <use x="1431.822266" xlink:href="#DejaVuSans-104"/>
     <use x="1495.201172" xlink:href="#DejaVuSans-32"/>
     <use x="1526.988281" xlink:href="#DejaVuSans-114"/>
     <use x="1568.070312" xlink:href="#DejaVuSans-101"/>
     <use x="1629.59375" xlink:href="#DejaVuSans-103"/>
     <use x="1693.070312" xlink:href="#DejaVuSans-97"/>
     <use x="1754.349609" xlink:href="#DejaVuSans-114"/>
     <use x="1795.447266" xlink:href="#DejaVuSans-100"/>
     <use x="1858.923828" xlink:href="#DejaVuSans-32"/>
     <use x="1890.710938" xlink:href="#DejaVuSans-116"/>
     <use x="1929.919922" xlink:href="#DejaVuSans-111"/>
     <use x="1991.101562" xlink:href="#DejaVuSans-32"/>
     <use x="2022.888672" xlink:href="#DejaVuSans-108"/>
     <use x="2050.671875" xlink:href="#DejaVuSans-101"/>
     <use x="2112.195312" xlink:href="#DejaVuSans-97"/>
     <use x="2173.474609" xlink:href="#DejaVuSans-114"/>
     <use x="2214.572266" xlink:href="#DejaVuSans-110"/>
     <use x="2277.951172" xlink:href="#DejaVuSans-105"/>
     <use x="2305.734375" xlink:href="#DejaVuSans-110"/>
     <use x="2369.113281" xlink:href="#DejaVuSans-103"/>
     <use x="2432.589844" xlink:href="#DejaVuSans-95"/>
     <use x="2482.589844" xlink:href="#DejaVuSans-114"/>
     <use x="2523.703125" xlink:href="#DejaVuSans-97"/>
     <use x="2584.982422" xlink:href="#DejaVuSans-116"/>
     <use x="2624.191406" xlink:href="#DejaVuSans-101"/>
    </g>
   </g>
   <g id="legend_1">
    <g id="patch_7">
     <path d="M 124 299.89375 
L 192.460938 299.89375 
Q 194.460938 299.89375 194.460938 297.89375 
L 194.460938 93.4 
Q 194.460938 91.4 192.460938 91.4 
L 124 91.4 
Q 122 91.4 122 93.4 
L 122 297.89375 
Q 122 299.89375 124 299.89375 
z
" style="fill:#ffffff;opacity:0.8;stroke:#cccccc;stroke-linejoin:miter;"/>
    </g>
    <g id="text_17">
     <!-- learning rate -->
     <g transform="translate(126 102.998438)scale(0.1 -0.1)">
      <use xlink:href="#DejaVuSans-108"/>
      <use x="27.783203" xlink:href="#DejaVuSans-101"/>
      <use x="89.306641" xlink:href="#DejaVuSans-97"/>
      <use x="150.585938" xlink:href="#DejaVuSans-114"/>
      <use x="191.683594" xlink:href="#DejaVuSans-110"/>
      <use x="255.0625" xlink:href="#DejaVuSans-105"/>
      <use x="282.845703" xlink:href="#DejaVuSans-110"/>
      <use x="346.224609" xlink:href="#DejaVuSans-103"/>
      <use x="409.701172" xlink:href="#DejaVuSans-32"/>
      <use x="441.488281" xlink:href="#DejaVuSans-114"/>
      <use x="482.601562" xlink:href="#DejaVuSans-97"/>
      <use x="543.880859" xlink:href="#DejaVuSans-116"/>
      <use x="583.089844" xlink:href="#DejaVuSans-101"/>
     </g>
    </g>
    <g id="line2d_67">
     <path d="M 129.916406 114.176563 
L 149.916406 114.176563 
" style="fill:none;stroke:#000000;stroke-linecap:square;stroke-width:1.5;"/>
    </g>
    <g id="line2d_68"/>
    <g id="text_18">
     <!-- 0.001 -->
     <defs>
      <path d="M 10.6875 12.40625 
L 21 12.40625 
L 21 0 
L 10.6875 0 
z
" id="DejaVuSans-46"/>
     </defs>
     <g transform="translate(157.916406 117.676563)scale(0.1 -0.1)">
      <use xlink:href="#DejaVuSans-48"/>
      <use x="63.623047" xlink:href="#DejaVuSans-46"/>
      <use x="95.410156" xlink:href="#DejaVuSans-48"/>
      <use x="159.033203" xlink:href="#DejaVuSans-48"/>
      <use x="222.65625" xlink:href="#DejaVuSans-49"/>
     </g>
    </g>
    <g id="line2d_69">
     <path d="M 129.916406 128.854688 
L 149.916406 128.854688 
" style="fill:none;stroke:#010000;stroke-linecap:square;stroke-width:1.5;"/>
    </g>
    <g id="line2d_70"/>
    <g id="text_19">
     <!-- 0.005 -->
     <g transform="translate(157.916406 132.354688)scale(0.1 -0.1)">
      <use xlink:href="#DejaVuSans-48"/>
      <use x="63.623047" xlink:href="#DejaVuSans-46"/>
      <use x="95.410156" xlink:href="#DejaVuSans-48"/>
      <use x="159.033203" xlink:href="#DejaVuSans-48"/>
      <use x="222.65625" xlink:href="#DejaVuSans-53"/>
     </g>
    </g>
    <g id="line2d_71">
     <path d="M 129.916406 143.532813 
L 149.916406 143.532813 
" style="fill:none;stroke:#030000;stroke-linecap:square;stroke-width:1.5;"/>
    </g>
    <g id="line2d_72"/>
    <g id="text_20">
     <!-- 0.01 -->
     <g transform="translate(157.916406 147.032813)scale(0.1 -0.1)">
      <use xlink:href="#DejaVuSans-48"/>
      <use x="63.623047" xlink:href="#DejaVuSans-46"/>
      <use x="95.410156" xlink:href="#DejaVuSans-48"/>
      <use x="159.033203" xlink:href="#DejaVuSans-49"/>
     </g>
    </g>
    <g id="line2d_73">
     <path d="M 129.916406 158.210938 
L 149.916406 158.210938 
" style="fill:none;stroke:#0d0000;stroke-linecap:square;stroke-width:1.5;"/>
    </g>
    <g id="line2d_74"/>
    <g id="text_21">
     <!-- 0.05 -->
     <g transform="translate(157.916406 161.710938)scale(0.1 -0.1)">
      <use xlink:href="#DejaVuSans-48"/>
      <use x="63.623047" xlink:href="#DejaVuSans-46"/>
      <use x="95.410156" xlink:href="#DejaVuSans-48"/>
      <use x="159.033203" xlink:href="#DejaVuSans-53"/>
     </g>
    </g>
    <g id="line2d_75">
     <path d="M 129.916406 172.889063 
L 149.916406 172.889063 
" style="fill:none;stroke:#1a0000;stroke-linecap:square;stroke-width:1.5;"/>
    </g>
    <g id="line2d_76"/>
    <g id="text_22">
     <!-- 0.1 -->
     <g transform="translate(157.916406 176.389063)scale(0.1 -0.1)">
      <use xlink:href="#DejaVuSans-48"/>
      <use x="63.623047" xlink:href="#DejaVuSans-46"/>
      <use x="95.410156" xlink:href="#DejaVuSans-49"/>
     </g>
    </g>
    <g id="line2d_77">
     <path d="M 129.916406 187.567188 
L 149.916406 187.567188 
" style="fill:none;stroke:#330000;stroke-linecap:square;stroke-width:1.5;"/>
    </g>
    <g id="line2d_78"/>
    <g id="text_23">
     <!-- 0.2 -->
     <g transform="translate(157.916406 191.067188)scale(0.1 -0.1)">
      <use xlink:href="#DejaVuSans-48"/>
      <use x="63.623047" xlink:href="#DejaVuSans-46"/>
      <use x="95.410156" xlink:href="#DejaVuSans-50"/>
     </g>
    </g>
    <g id="line2d_79">
     <path d="M 129.916406 202.245313 
L 149.916406 202.245313 
" style="fill:none;stroke:#4c0000;stroke-linecap:square;stroke-width:1.5;"/>
    </g>
    <g id="line2d_80"/>
    <g id="text_24">
     <!-- 0.3 -->
     <g transform="translate(157.916406 205.745313)scale(0.1 -0.1)">
      <use xlink:href="#DejaVuSans-48"/>
      <use x="63.623047" xlink:href="#DejaVuSans-46"/>
      <use x="95.410156" xlink:href="#DejaVuSans-51"/>
     </g>
    </g>
    <g id="line2d_81">
     <path d="M 129.916406 216.923438 
L 149.916406 216.923438 
" style="fill:none;stroke:#660000;stroke-linecap:square;stroke-width:1.5;"/>
    </g>
    <g id="line2d_82"/>
    <g id="text_25">
     <!-- 0.4 -->
     <g transform="translate(157.916406 220.423438)scale(0.1 -0.1)">
      <use xlink:href="#DejaVuSans-48"/>
      <use x="63.623047" xlink:href="#DejaVuSans-46"/>
      <use x="95.410156" xlink:href="#DejaVuSans-52"/>
     </g>
    </g>
    <g id="line2d_83">
     <path d="M 129.916406 231.601563 
L 149.916406 231.601563 
" style="fill:none;stroke:#800000;stroke-linecap:square;stroke-width:1.5;"/>
    </g>
    <g id="line2d_84"/>
    <g id="text_26">
     <!-- 0.5 -->
     <g transform="translate(157.916406 235.101563)scale(0.1 -0.1)">
      <use xlink:href="#DejaVuSans-48"/>
      <use x="63.623047" xlink:href="#DejaVuSans-46"/>
      <use x="95.410156" xlink:href="#DejaVuSans-53"/>
     </g>
    </g>
    <g id="line2d_85">
     <path d="M 129.916406 246.279688 
L 149.916406 246.279688 
" style="fill:none;stroke:#990000;stroke-linecap:square;stroke-width:1.5;"/>
    </g>
    <g id="line2d_86"/>
    <g id="text_27">
     <!-- 0.6 -->
     <g transform="translate(157.916406 249.779688)scale(0.1 -0.1)">
      <use xlink:href="#DejaVuSans-48"/>
      <use x="63.623047" xlink:href="#DejaVuSans-46"/>
      <use x="95.410156" xlink:href="#DejaVuSans-54"/>
     </g>
    </g>
    <g id="line2d_87">
     <path d="M 129.916406 260.957813 
L 149.916406 260.957813 
" style="fill:none;stroke:#b20000;stroke-linecap:square;stroke-width:1.5;"/>
    </g>
    <g id="line2d_88"/>
    <g id="text_28">
     <!-- 0.7 -->
     <g transform="translate(157.916406 264.457813)scale(0.1 -0.1)">
      <use xlink:href="#DejaVuSans-48"/>
      <use x="63.623047" xlink:href="#DejaVuSans-46"/>
      <use x="95.410156" xlink:href="#DejaVuSans-55"/>
     </g>
    </g>
    <g id="line2d_89">
     <path d="M 129.916406 275.635938 
L 149.916406 275.635938 
" style="fill:none;stroke:#cc0000;stroke-linecap:square;stroke-width:1.5;"/>
    </g>
    <g id="line2d_90"/>
    <g id="text_29">
     <!-- 0.8 -->
     <defs>
      <path d="M 31.78125 34.625 
Q 24.75 34.625 20.71875 30.859375 
Q 16.703125 27.09375 16.703125 20.515625 
Q 16.703125 13.921875 20.71875 10.15625 
Q 24.75 6.390625 31.78125 6.390625 
Q 38.8125 6.390625 42.859375 10.171875 
Q 46.921875 13.96875 46.921875 20.515625 
Q 46.921875 27.09375 42.890625 30.859375 
Q 38.875 34.625 31.78125 34.625 
z
M 21.921875 38.8125 
Q 15.578125 40.375 12.03125 44.71875 
Q 8.5 49.078125 8.5 55.328125 
Q 8.5 64.0625 14.71875 69.140625 
Q 20.953125 74.21875 31.78125 74.21875 
Q 42.671875 74.21875 48.875 69.140625 
Q 55.078125 64.0625 55.078125 55.328125 
Q 55.078125 49.078125 51.53125 44.71875 
Q 48 40.375 41.703125 38.8125 
Q 48.828125 37.15625 52.796875 32.3125 
Q 56.78125 27.484375 56.78125 20.515625 
Q 56.78125 9.90625 50.3125 4.234375 
Q 43.84375 -1.421875 31.78125 -1.421875 
Q 19.734375 -1.421875 13.25 4.234375 
Q 6.78125 9.90625 6.78125 20.515625 
Q 6.78125 27.484375 10.78125 32.3125 
Q 14.796875 37.15625 21.921875 38.8125 
z
M 18.3125 54.390625 
Q 18.3125 48.734375 21.84375 45.5625 
Q 25.390625 42.390625 31.78125 42.390625 
Q 38.140625 42.390625 41.71875 45.5625 
Q 45.3125 48.734375 45.3125 54.390625 
Q 45.3125 60.0625 41.71875 63.234375 
Q 38.140625 66.40625 31.78125 66.40625 
Q 25.390625 66.40625 21.84375 63.234375 
Q 18.3125 60.0625 18.3125 54.390625 
z
" id="DejaVuSans-56"/>
     </defs>
     <g transform="translate(157.916406 279.135938)scale(0.1 -0.1)">
      <use xlink:href="#DejaVuSans-48"/>
      <use x="63.623047" xlink:href="#DejaVuSans-46"/>
      <use x="95.410156" xlink:href="#DejaVuSans-56"/>
     </g>
    </g>
    <g id="line2d_91">
     <path d="M 129.916406 290.314062 
L 149.916406 290.314062 
" style="fill:none;stroke:#e60000;stroke-linecap:square;stroke-width:1.5;"/>
    </g>
    <g id="line2d_92"/>
    <g id="text_30">
     <!-- 0.9 -->
     <defs>
      <path d="M 10.984375 1.515625 
L 10.984375 10.5 
Q 14.703125 8.734375 18.5 7.8125 
Q 22.3125 6.890625 25.984375 6.890625 
Q 35.75 6.890625 40.890625 13.453125 
Q 46.046875 20.015625 46.78125 33.40625 
Q 43.953125 29.203125 39.59375 26.953125 
Q 35.25 24.703125 29.984375 24.703125 
Q 19.046875 24.703125 12.671875 31.3125 
Q 6.296875 37.9375 6.296875 49.421875 
Q 6.296875 60.640625 12.9375 67.421875 
Q 19.578125 74.21875 30.609375 74.21875 
Q 43.265625 74.21875 49.921875 64.515625 
Q 56.59375 54.828125 56.59375 36.375 
Q 56.59375 19.140625 48.40625 8.859375 
Q 40.234375 -1.421875 26.421875 -1.421875 
Q 22.703125 -1.421875 18.890625 -0.6875 
Q 15.09375 0.046875 10.984375 1.515625 
z
M 30.609375 32.421875 
Q 37.25 32.421875 41.125 36.953125 
Q 45.015625 41.5 45.015625 49.421875 
Q 45.015625 57.28125 41.125 61.84375 
Q 37.25 66.40625 30.609375 66.40625 
Q 23.96875 66.40625 20.09375 61.84375 
Q 16.21875 57.28125 16.21875 49.421875 
Q 16.21875 41.5 20.09375 36.953125 
Q 23.96875 32.421875 30.609375 32.421875 
z
" id="DejaVuSans-57"/>
     </defs>
     <g transform="translate(157.916406 293.814062)scale(0.1 -0.1)">
      <use xlink:href="#DejaVuSans-48"/>
      <use x="63.623047" xlink:href="#DejaVuSans-46"/>
      <use x="95.410156" xlink:href="#DejaVuSans-57"/>
     </g>
    </g>
   </g>
  </g>
 </g>
 <defs>
  <clipPath id="p3740aadd62">
   <rect height="543.6" width="725.4" x="117" y="86.4"/>
  </clipPath>
 </defs>
</svg>
