<?xml version="1.0" encoding="utf-8" standalone="no"?>
<!DOCTYPE svg PUBLIC "-//W3C//DTD SVG 1.1//EN"
  "http://www.w3.org/Graphics/SVG/1.1/DTD/svg11.dtd">
<!-- Created with matplotlib (https://matplotlib.org/) -->
<svg height="720pt" version="1.1" viewBox="0 0 936 720" width="936pt" xmlns="http://www.w3.org/2000/svg" xmlns:xlink="http://www.w3.org/1999/xlink">
 <defs>
  <style type="text/css">
*{stroke-linecap:butt;stroke-linejoin:round;}
  </style>
 </defs>
 <g id="figure_1">
  <g id="patch_1">
   <path d="M 0 720 
L 936 720 
L 936 0 
L 0 0 
z
" style="fill:#ffffff;"/>
  </g>
  <g id="axes_1">
   <g id="patch_2">
    <path d="M 117 630 
L 842.4 630 
L 842.4 86.4 
L 117 86.4 
z
" style="fill:#ffffff;"/>
   </g>
   <g id="matplotlib.axis_1">
    <g id="xtick_1">
     <g id="line2d_1">
      <defs>
       <path d="M 0 0 
L 0 3.5 
" id="mdcd02847dc" style="stroke:#000000;stroke-width:0.8;"/>
      </defs>
      <g>
       <use style="stroke:#000000;stroke-width:0.8;" x="149.972727" xlink:href="#mdcd02847dc" y="630"/>
      </g>
     </g>
     <g id="text_1">
      <!-- 0 -->
      <defs>
       <path d="M 31.78125 66.40625 
Q 24.171875 66.40625 20.328125 58.90625 
Q 16.5 51.421875 16.5 36.375 
Q 16.5 21.390625 20.328125 13.890625 
Q 24.171875 6.390625 31.78125 6.390625 
Q 39.453125 6.390625 43.28125 13.890625 
Q 47.125 21.390625 47.125 36.375 
Q 47.125 51.421875 43.28125 58.90625 
Q 39.453125 66.40625 31.78125 66.40625 
z
M 31.78125 74.21875 
Q 44.046875 74.21875 50.515625 64.515625 
Q 56.984375 54.828125 56.984375 36.375 
Q 56.984375 17.96875 50.515625 8.265625 
Q 44.046875 -1.421875 31.78125 -1.421875 
Q 19.53125 -1.421875 13.0625 8.265625 
Q 6.59375 17.96875 6.59375 36.375 
Q 6.59375 54.828125 13.0625 64.515625 
Q 19.53125 74.21875 31.78125 74.21875 
z
" id="DejaVuSans-48"/>
      </defs>
      <g transform="translate(146.791477 644.598438)scale(0.1 -0.1)">
       <use xlink:href="#DejaVuSans-48"/>
      </g>
     </g>
    </g>
    <g id="xtick_2">
     <g id="line2d_2">
      <g>
       <use style="stroke:#000000;stroke-width:0.8;" x="243.233683" xlink:href="#mdcd02847dc" y="630"/>
      </g>
     </g>
     <g id="text_2">
      <!-- 10 -->
      <defs>
       <path d="M 12.40625 8.296875 
L 28.515625 8.296875 
L 28.515625 63.921875 
L 10.984375 60.40625 
L 10.984375 69.390625 
L 28.421875 72.90625 
L 38.28125 72.90625 
L 38.28125 8.296875 
L 54.390625 8.296875 
L 54.390625 0 
L 12.40625 0 
z
" id="DejaVuSans-49"/>
      </defs>
      <g transform="translate(236.871183 644.598438)scale(0.1 -0.1)">
       <use xlink:href="#DejaVuSans-49"/>
       <use x="63.623047" xlink:href="#DejaVuSans-48"/>
      </g>
     </g>
    </g>
    <g id="xtick_3">
     <g id="line2d_3">
      <g>
       <use style="stroke:#000000;stroke-width:0.8;" x="336.49464" xlink:href="#mdcd02847dc" y="630"/>
      </g>
     </g>
     <g id="text_3">
      <!-- 20 -->
      <defs>
       <path d="M 19.1875 8.296875 
L 53.609375 8.296875 
L 53.609375 0 
L 7.328125 0 
L 7.328125 8.296875 
Q 12.9375 14.109375 22.625 23.890625 
Q 32.328125 33.6875 34.8125 36.53125 
Q 39.546875 41.84375 41.421875 45.53125 
Q 43.3125 49.21875 43.3125 52.78125 
Q 43.3125 58.59375 39.234375 62.25 
Q 35.15625 65.921875 28.609375 65.921875 
Q 23.96875 65.921875 18.8125 64.3125 
Q 13.671875 62.703125 7.8125 59.421875 
L 7.8125 69.390625 
Q 13.765625 71.78125 18.9375 73 
Q 24.125 74.21875 28.421875 74.21875 
Q 39.75 74.21875 46.484375 68.546875 
Q 53.21875 62.890625 53.21875 53.421875 
Q 53.21875 48.921875 51.53125 44.890625 
Q 49.859375 40.875 45.40625 35.40625 
Q 44.1875 33.984375 37.640625 27.21875 
Q 31.109375 20.453125 19.1875 8.296875 
z
" id="DejaVuSans-50"/>
      </defs>
      <g transform="translate(330.13214 644.598438)scale(0.1 -0.1)">
       <use xlink:href="#DejaVuSans-50"/>
       <use x="63.623047" xlink:href="#DejaVuSans-48"/>
      </g>
     </g>
    </g>
    <g id="xtick_4">
     <g id="line2d_4">
      <g>
       <use style="stroke:#000000;stroke-width:0.8;" x="429.755596" xlink:href="#mdcd02847dc" y="630"/>
      </g>
     </g>
     <g id="text_4">
      <!-- 30 -->
      <defs>
       <path d="M 40.578125 39.3125 
Q 47.65625 37.796875 51.625 33 
Q 55.609375 28.21875 55.609375 21.1875 
Q 55.609375 10.40625 48.1875 4.484375 
Q 40.765625 -1.421875 27.09375 -1.421875 
Q 22.515625 -1.421875 17.65625 -0.515625 
Q 12.796875 0.390625 7.625 2.203125 
L 7.625 11.71875 
Q 11.71875 9.328125 16.59375 8.109375 
Q 21.484375 6.890625 26.8125 6.890625 
Q 36.078125 6.890625 40.9375 10.546875 
Q 45.796875 14.203125 45.796875 21.1875 
Q 45.796875 27.640625 41.28125 31.265625 
Q 36.765625 34.90625 28.71875 34.90625 
L 20.21875 34.90625 
L 20.21875 43.015625 
L 29.109375 43.015625 
Q 36.375 43.015625 40.234375 45.921875 
Q 44.09375 48.828125 44.09375 54.296875 
Q 44.09375 59.90625 40.109375 62.90625 
Q 36.140625 65.921875 28.71875 65.921875 
Q 24.65625 65.921875 20.015625 65.03125 
Q 15.375 64.15625 9.8125 62.3125 
L 9.8125 71.09375 
Q 15.4375 72.65625 20.34375 73.4375 
Q 25.25 74.21875 29.59375 74.21875 
Q 40.828125 74.21875 47.359375 69.109375 
Q 53.90625 64.015625 53.90625 55.328125 
Q 53.90625 49.265625 50.4375 45.09375 
Q 46.96875 40.921875 40.578125 39.3125 
z
" id="DejaVuSans-51"/>
      </defs>
      <g transform="translate(423.393096 644.598438)scale(0.1 -0.1)">
       <use xlink:href="#DejaVuSans-51"/>
       <use x="63.623047" xlink:href="#DejaVuSans-48"/>
      </g>
     </g>
    </g>
    <g id="xtick_5">
     <g id="line2d_5">
      <g>
       <use style="stroke:#000000;stroke-width:0.8;" x="523.016552" xlink:href="#mdcd02847dc" y="630"/>
      </g>
     </g>
     <g id="text_5">
      <!-- 40 -->
      <defs>
       <path d="M 37.796875 64.3125 
L 12.890625 25.390625 
L 37.796875 25.390625 
z
M 35.203125 72.90625 
L 47.609375 72.90625 
L 47.609375 25.390625 
L 58.015625 25.390625 
L 58.015625 17.1875 
L 47.609375 17.1875 
L 47.609375 0 
L 37.796875 0 
L 37.796875 17.1875 
L 4.890625 17.1875 
L 4.890625 26.703125 
z
" id="DejaVuSans-52"/>
      </defs>
      <g transform="translate(516.654052 644.598438)scale(0.1 -0.1)">
       <use xlink:href="#DejaVuSans-52"/>
       <use x="63.623047" xlink:href="#DejaVuSans-48"/>
      </g>
     </g>
    </g>
    <g id="xtick_6">
     <g id="line2d_6">
      <g>
       <use style="stroke:#000000;stroke-width:0.8;" x="616.277508" xlink:href="#mdcd02847dc" y="630"/>
      </g>
     </g>
     <g id="text_6">
      <!-- 50 -->
      <defs>
       <path d="M 10.796875 72.90625 
L 49.515625 72.90625 
L 49.515625 64.59375 
L 19.828125 64.59375 
L 19.828125 46.734375 
Q 21.96875 47.46875 24.109375 47.828125 
Q 26.265625 48.1875 28.421875 48.1875 
Q 40.625 48.1875 47.75 41.5 
Q 54.890625 34.8125 54.890625 23.390625 
Q 54.890625 11.625 47.5625 5.09375 
Q 40.234375 -1.421875 26.90625 -1.421875 
Q 22.3125 -1.421875 17.546875 -0.640625 
Q 12.796875 0.140625 7.71875 1.703125 
L 7.71875 11.625 
Q 12.109375 9.234375 16.796875 8.0625 
Q 21.484375 6.890625 26.703125 6.890625 
Q 35.15625 6.890625 40.078125 11.328125 
Q 45.015625 15.765625 45.015625 23.390625 
Q 45.015625 31 40.078125 35.4375 
Q 35.15625 39.890625 26.703125 39.890625 
Q 22.75 39.890625 18.8125 39.015625 
Q 14.890625 38.140625 10.796875 36.28125 
z
" id="DejaVuSans-53"/>
      </defs>
      <g transform="translate(609.915008 644.598438)scale(0.1 -0.1)">
       <use xlink:href="#DejaVuSans-53"/>
       <use x="63.623047" xlink:href="#DejaVuSans-48"/>
      </g>
     </g>
    </g>
    <g id="xtick_7">
     <g id="line2d_7">
      <g>
       <use style="stroke:#000000;stroke-width:0.8;" x="709.538464" xlink:href="#mdcd02847dc" y="630"/>
      </g>
     </g>
     <g id="text_7">
      <!-- 60 -->
      <defs>
       <path d="M 33.015625 40.375 
Q 26.375 40.375 22.484375 35.828125 
Q 18.609375 31.296875 18.609375 23.390625 
Q 18.609375 15.53125 22.484375 10.953125 
Q 26.375 6.390625 33.015625 6.390625 
Q 39.65625 6.390625 43.53125 10.953125 
Q 47.40625 15.53125 47.40625 23.390625 
Q 47.40625 31.296875 43.53125 35.828125 
Q 39.65625 40.375 33.015625 40.375 
z
M 52.59375 71.296875 
L 52.59375 62.3125 
Q 48.875 64.0625 45.09375 64.984375 
Q 41.3125 65.921875 37.59375 65.921875 
Q 27.828125 65.921875 22.671875 59.328125 
Q 17.53125 52.734375 16.796875 39.40625 
Q 19.671875 43.65625 24.015625 45.921875 
Q 28.375 48.1875 33.59375 48.1875 
Q 44.578125 48.1875 50.953125 41.515625 
Q 57.328125 34.859375 57.328125 23.390625 
Q 57.328125 12.15625 50.6875 5.359375 
Q 44.046875 -1.421875 33.015625 -1.421875 
Q 20.359375 -1.421875 13.671875 8.265625 
Q 6.984375 17.96875 6.984375 36.375 
Q 6.984375 53.65625 15.1875 63.9375 
Q 23.390625 74.21875 37.203125 74.21875 
Q 40.921875 74.21875 44.703125 73.484375 
Q 48.484375 72.75 52.59375 71.296875 
z
" id="DejaVuSans-54"/>
      </defs>
      <g transform="translate(703.175964 644.598438)scale(0.1 -0.1)">
       <use xlink:href="#DejaVuSans-54"/>
       <use x="63.623047" xlink:href="#DejaVuSans-48"/>
      </g>
     </g>
    </g>
    <g id="xtick_8">
     <g id="line2d_8">
      <g>
       <use style="stroke:#000000;stroke-width:0.8;" x="802.799421" xlink:href="#mdcd02847dc" y="630"/>
      </g>
     </g>
     <g id="text_8">
      <!-- 70 -->
      <defs>
       <path d="M 8.203125 72.90625 
L 55.078125 72.90625 
L 55.078125 68.703125 
L 28.609375 0 
L 18.3125 0 
L 43.21875 64.59375 
L 8.203125 64.59375 
z
" id="DejaVuSans-55"/>
      </defs>
      <g transform="translate(796.436921 644.598438)scale(0.1 -0.1)">
       <use xlink:href="#DejaVuSans-55"/>
       <use x="63.623047" xlink:href="#DejaVuSans-48"/>
      </g>
     </g>
    </g>
    <g id="text_9">
     <!-- norm distance -&gt; sqrt(x^2 + y^2) -->
     <defs>
      <path d="M 54.890625 33.015625 
L 54.890625 0 
L 45.90625 0 
L 45.90625 32.71875 
Q 45.90625 40.484375 42.875 44.328125 
Q 39.84375 48.1875 33.796875 48.1875 
Q 26.515625 48.1875 22.3125 43.546875 
Q 18.109375 38.921875 18.109375 30.90625 
L 18.109375 0 
L 9.078125 0 
L 9.078125 54.6875 
L 18.109375 54.6875 
L 18.109375 46.1875 
Q 21.34375 51.125 25.703125 53.5625 
Q 30.078125 56 35.796875 56 
Q 45.21875 56 50.046875 50.171875 
Q 54.890625 44.34375 54.890625 33.015625 
z
" id="DejaVuSans-110"/>
      <path d="M 30.609375 48.390625 
Q 23.390625 48.390625 19.1875 42.75 
Q 14.984375 37.109375 14.984375 27.296875 
Q 14.984375 17.484375 19.15625 11.84375 
Q 23.34375 6.203125 30.609375 6.203125 
Q 37.796875 6.203125 41.984375 11.859375 
Q 46.1875 17.53125 46.1875 27.296875 
Q 46.1875 37.015625 41.984375 42.703125 
Q 37.796875 48.390625 30.609375 48.390625 
z
M 30.609375 56 
Q 42.328125 56 49.015625 48.375 
Q 55.71875 40.765625 55.71875 27.296875 
Q 55.71875 13.875 49.015625 6.21875 
Q 42.328125 -1.421875 30.609375 -1.421875 
Q 18.84375 -1.421875 12.171875 6.21875 
Q 5.515625 13.875 5.515625 27.296875 
Q 5.515625 40.765625 12.171875 48.375 
Q 18.84375 56 30.609375 56 
z
" id="DejaVuSans-111"/>
      <path d="M 41.109375 46.296875 
Q 39.59375 47.171875 37.8125 47.578125 
Q 36.03125 48 33.890625 48 
Q 26.265625 48 22.1875 43.046875 
Q 18.109375 38.09375 18.109375 28.8125 
L 18.109375 0 
L 9.078125 0 
L 9.078125 54.6875 
L 18.109375 54.6875 
L 18.109375 46.1875 
Q 20.953125 51.171875 25.484375 53.578125 
Q 30.03125 56 36.53125 56 
Q 37.453125 56 38.578125 55.875 
Q 39.703125 55.765625 41.0625 55.515625 
z
" id="DejaVuSans-114"/>
      <path d="M 52 44.1875 
Q 55.375 50.25 60.0625 53.125 
Q 64.75 56 71.09375 56 
Q 79.640625 56 84.28125 50.015625 
Q 88.921875 44.046875 88.921875 33.015625 
L 88.921875 0 
L 79.890625 0 
L 79.890625 32.71875 
Q 79.890625 40.578125 77.09375 44.375 
Q 74.3125 48.1875 68.609375 48.1875 
Q 61.625 48.1875 57.5625 43.546875 
Q 53.515625 38.921875 53.515625 30.90625 
L 53.515625 0 
L 44.484375 0 
L 44.484375 32.71875 
Q 44.484375 40.625 41.703125 44.40625 
Q 38.921875 48.1875 33.109375 48.1875 
Q 26.21875 48.1875 22.15625 43.53125 
Q 18.109375 38.875 18.109375 30.90625 
L 18.109375 0 
L 9.078125 0 
L 9.078125 54.6875 
L 18.109375 54.6875 
L 18.109375 46.1875 
Q 21.1875 51.21875 25.484375 53.609375 
Q 29.78125 56 35.6875 56 
Q 41.65625 56 45.828125 52.96875 
Q 50 49.953125 52 44.1875 
z
" id="DejaVuSans-109"/>
      <path id="DejaVuSans-32"/>
      <path d="M 45.40625 46.390625 
L 45.40625 75.984375 
L 54.390625 75.984375 
L 54.390625 0 
L 45.40625 0 
L 45.40625 8.203125 
Q 42.578125 3.328125 38.25 0.953125 
Q 33.9375 -1.421875 27.875 -1.421875 
Q 17.96875 -1.421875 11.734375 6.484375 
Q 5.515625 14.40625 5.515625 27.296875 
Q 5.515625 40.1875 11.734375 48.09375 
Q 17.96875 56 27.875 56 
Q 33.9375 56 38.25 53.625 
Q 42.578125 51.265625 45.40625 46.390625 
z
M 14.796875 27.296875 
Q 14.796875 17.390625 18.875 11.75 
Q 22.953125 6.109375 30.078125 6.109375 
Q 37.203125 6.109375 41.296875 11.75 
Q 45.40625 17.390625 45.40625 27.296875 
Q 45.40625 37.203125 41.296875 42.84375 
Q 37.203125 48.484375 30.078125 48.484375 
Q 22.953125 48.484375 18.875 42.84375 
Q 14.796875 37.203125 14.796875 27.296875 
z
" id="DejaVuSans-100"/>
      <path d="M 9.421875 54.6875 
L 18.40625 54.6875 
L 18.40625 0 
L 9.421875 0 
z
M 9.421875 75.984375 
L 18.40625 75.984375 
L 18.40625 64.59375 
L 9.421875 64.59375 
z
" id="DejaVuSans-105"/>
      <path d="M 44.28125 53.078125 
L 44.28125 44.578125 
Q 40.484375 46.53125 36.375 47.5 
Q 32.28125 48.484375 27.875 48.484375 
Q 21.1875 48.484375 17.84375 46.4375 
Q 14.5 44.390625 14.5 40.28125 
Q 14.5 37.15625 16.890625 35.375 
Q 19.28125 33.59375 26.515625 31.984375 
L 29.59375 31.296875 
Q 39.15625 29.25 43.1875 25.515625 
Q 47.21875 21.78125 47.21875 15.09375 
Q 47.21875 7.46875 41.1875 3.015625 
Q 35.15625 -1.421875 24.609375 -1.421875 
Q 20.21875 -1.421875 15.453125 -0.5625 
Q 10.6875 0.296875 5.421875 2 
L 5.421875 11.28125 
Q 10.40625 8.6875 15.234375 7.390625 
Q 20.0625 6.109375 24.8125 6.109375 
Q 31.15625 6.109375 34.5625 8.28125 
Q 37.984375 10.453125 37.984375 14.40625 
Q 37.984375 18.0625 35.515625 20.015625 
Q 33.0625 21.96875 24.703125 23.78125 
L 21.578125 24.515625 
Q 13.234375 26.265625 9.515625 29.90625 
Q 5.8125 33.546875 5.8125 39.890625 
Q 5.8125 47.609375 11.28125 51.796875 
Q 16.75 56 26.8125 56 
Q 31.78125 56 36.171875 55.265625 
Q 40.578125 54.546875 44.28125 53.078125 
z
" id="DejaVuSans-115"/>
      <path d="M 18.3125 70.21875 
L 18.3125 54.6875 
L 36.8125 54.6875 
L 36.8125 47.703125 
L 18.3125 47.703125 
L 18.3125 18.015625 
Q 18.3125 11.328125 20.140625 9.421875 
Q 21.96875 7.515625 27.59375 7.515625 
L 36.8125 7.515625 
L 36.8125 0 
L 27.59375 0 
Q 17.1875 0 13.234375 3.875 
Q 9.28125 7.765625 9.28125 18.015625 
L 9.28125 47.703125 
L 2.6875 47.703125 
L 2.6875 54.6875 
L 9.28125 54.6875 
L 9.28125 70.21875 
z
" id="DejaVuSans-116"/>
      <path d="M 34.28125 27.484375 
Q 23.390625 27.484375 19.1875 25 
Q 14.984375 22.515625 14.984375 16.5 
Q 14.984375 11.71875 18.140625 8.90625 
Q 21.296875 6.109375 26.703125 6.109375 
Q 34.1875 6.109375 38.703125 11.40625 
Q 43.21875 16.703125 43.21875 25.484375 
L 43.21875 27.484375 
z
M 52.203125 31.203125 
L 52.203125 0 
L 43.21875 0 
L 43.21875 8.296875 
Q 40.140625 3.328125 35.546875 0.953125 
Q 30.953125 -1.421875 24.3125 -1.421875 
Q 15.921875 -1.421875 10.953125 3.296875 
Q 6 8.015625 6 15.921875 
Q 6 25.140625 12.171875 29.828125 
Q 18.359375 34.515625 30.609375 34.515625 
L 43.21875 34.515625 
L 43.21875 35.40625 
Q 43.21875 41.609375 39.140625 45 
Q 35.0625 48.390625 27.6875 48.390625 
Q 23 48.390625 18.546875 47.265625 
Q 14.109375 46.140625 10.015625 43.890625 
L 10.015625 52.203125 
Q 14.9375 54.109375 19.578125 55.046875 
Q 24.21875 56 28.609375 56 
Q 40.484375 56 46.34375 49.84375 
Q 52.203125 43.703125 52.203125 31.203125 
z
" id="DejaVuSans-97"/>
      <path d="M 48.78125 52.59375 
L 48.78125 44.1875 
Q 44.96875 46.296875 41.140625 47.34375 
Q 37.3125 48.390625 33.40625 48.390625 
Q 24.65625 48.390625 19.8125 42.84375 
Q 14.984375 37.3125 14.984375 27.296875 
Q 14.984375 17.28125 19.8125 11.734375 
Q 24.65625 6.203125 33.40625 6.203125 
Q 37.3125 6.203125 41.140625 7.25 
Q 44.96875 8.296875 48.78125 10.40625 
L 48.78125 2.09375 
Q 45.015625 0.34375 40.984375 -0.53125 
Q 36.96875 -1.421875 32.421875 -1.421875 
Q 20.0625 -1.421875 12.78125 6.34375 
Q 5.515625 14.109375 5.515625 27.296875 
Q 5.515625 40.671875 12.859375 48.328125 
Q 20.21875 56 33.015625 56 
Q 37.15625 56 41.109375 55.140625 
Q 45.0625 54.296875 48.78125 52.59375 
z
" id="DejaVuSans-99"/>
      <path d="M 56.203125 29.59375 
L 56.203125 25.203125 
L 14.890625 25.203125 
Q 15.484375 15.921875 20.484375 11.0625 
Q 25.484375 6.203125 34.421875 6.203125 
Q 39.59375 6.203125 44.453125 7.46875 
Q 49.3125 8.734375 54.109375 11.28125 
L 54.109375 2.78125 
Q 49.265625 0.734375 44.1875 -0.34375 
Q 39.109375 -1.421875 33.890625 -1.421875 
Q 20.796875 -1.421875 13.15625 6.1875 
Q 5.515625 13.8125 5.515625 26.8125 
Q 5.515625 40.234375 12.765625 48.109375 
Q 20.015625 56 32.328125 56 
Q 43.359375 56 49.78125 48.890625 
Q 56.203125 41.796875 56.203125 29.59375 
z
M 47.21875 32.234375 
Q 47.125 39.59375 43.09375 43.984375 
Q 39.0625 48.390625 32.421875 48.390625 
Q 24.90625 48.390625 20.390625 44.140625 
Q 15.875 39.890625 15.1875 32.171875 
z
" id="DejaVuSans-101"/>
      <path d="M 4.890625 31.390625 
L 31.203125 31.390625 
L 31.203125 23.390625 
L 4.890625 23.390625 
z
" id="DejaVuSans-45"/>
      <path d="M 10.59375 49.21875 
L 10.59375 58.109375 
L 73.1875 35.40625 
L 73.1875 27.296875 
L 10.59375 4.59375 
L 10.59375 13.484375 
L 60.890625 31.296875 
z
" id="DejaVuSans-62"/>
      <path d="M 14.796875 27.296875 
Q 14.796875 17.390625 18.875 11.75 
Q 22.953125 6.109375 30.078125 6.109375 
Q 37.203125 6.109375 41.296875 11.75 
Q 45.40625 17.390625 45.40625 27.296875 
Q 45.40625 37.203125 41.296875 42.84375 
Q 37.203125 48.484375 30.078125 48.484375 
Q 22.953125 48.484375 18.875 42.84375 
Q 14.796875 37.203125 14.796875 27.296875 
z
M 45.40625 8.203125 
Q 42.578125 3.328125 38.25 0.953125 
Q 33.9375 -1.421875 27.875 -1.421875 
Q 17.96875 -1.421875 11.734375 6.484375 
Q 5.515625 14.40625 5.515625 27.296875 
Q 5.515625 40.1875 11.734375 48.09375 
Q 17.96875 56 27.875 56 
Q 33.9375 56 38.25 53.625 
Q 42.578125 51.265625 45.40625 46.390625 
L 45.40625 54.6875 
L 54.390625 54.6875 
L 54.390625 -20.796875 
L 45.40625 -20.796875 
z
" id="DejaVuSans-113"/>
      <path d="M 31 75.875 
Q 24.46875 64.65625 21.28125 53.65625 
Q 18.109375 42.671875 18.109375 31.390625 
Q 18.109375 20.125 21.3125 9.0625 
Q 24.515625 -2 31 -13.1875 
L 23.1875 -13.1875 
Q 15.875 -1.703125 12.234375 9.375 
Q 8.59375 20.453125 8.59375 31.390625 
Q 8.59375 42.28125 12.203125 53.3125 
Q 15.828125 64.359375 23.1875 75.875 
z
" id="DejaVuSans-40"/>
      <path d="M 54.890625 54.6875 
L 35.109375 28.078125 
L 55.90625 0 
L 45.3125 0 
L 29.390625 21.484375 
L 13.484375 0 
L 2.875 0 
L 24.125 28.609375 
L 4.6875 54.6875 
L 15.28125 54.6875 
L 29.78125 35.203125 
L 44.28125 54.6875 
z
" id="DejaVuSans-120"/>
      <path d="M 46.6875 72.90625 
L 73.1875 45.703125 
L 63.375 45.703125 
L 41.890625 64.984375 
L 20.40625 45.703125 
L 10.59375 45.703125 
L 37.109375 72.90625 
z
" id="DejaVuSans-94"/>
      <path d="M 46 62.703125 
L 46 35.5 
L 73.1875 35.5 
L 73.1875 27.203125 
L 46 27.203125 
L 46 0 
L 37.796875 0 
L 37.796875 27.203125 
L 10.59375 27.203125 
L 10.59375 35.5 
L 37.796875 35.5 
L 37.796875 62.703125 
z
" id="DejaVuSans-43"/>
      <path d="M 32.171875 -5.078125 
Q 28.375 -14.84375 24.75 -17.8125 
Q 21.140625 -20.796875 15.09375 -20.796875 
L 7.90625 -20.796875 
L 7.90625 -13.28125 
L 13.1875 -13.28125 
Q 16.890625 -13.28125 18.9375 -11.515625 
Q 21 -9.765625 23.484375 -3.21875 
L 25.09375 0.875 
L 2.984375 54.6875 
L 12.5 54.6875 
L 29.59375 11.921875 
L 46.6875 54.6875 
L 56.203125 54.6875 
z
" id="DejaVuSans-121"/>
      <path d="M 8.015625 75.875 
L 15.828125 75.875 
Q 23.140625 64.359375 26.78125 53.3125 
Q 30.421875 42.28125 30.421875 31.390625 
Q 30.421875 20.453125 26.78125 9.375 
Q 23.140625 -1.703125 15.828125 -13.1875 
L 8.015625 -13.1875 
Q 14.5 -2 17.703125 9.0625 
Q 20.90625 20.125 20.90625 31.390625 
Q 20.90625 42.671875 17.703125 53.65625 
Q 14.5 64.65625 8.015625 75.875 
z
" id="DejaVuSans-41"/>
     </defs>
     <g transform="translate(392.874219 658.276562)scale(0.1 -0.1)">
      <use xlink:href="#DejaVuSans-110"/>
      <use x="63.378906" xlink:href="#DejaVuSans-111"/>
      <use x="124.560547" xlink:href="#DejaVuSans-114"/>
      <use x="165.658203" xlink:href="#DejaVuSans-109"/>
      <use x="263.070312" xlink:href="#DejaVuSans-32"/>
      <use x="294.857422" xlink:href="#DejaVuSans-100"/>
      <use x="358.333984" xlink:href="#DejaVuSans-105"/>
      <use x="386.117188" xlink:href="#DejaVuSans-115"/>
      <use x="438.216797" xlink:href="#DejaVuSans-116"/>
      <use x="477.425781" xlink:href="#DejaVuSans-97"/>
      <use x="538.705078" xlink:href="#DejaVuSans-110"/>
      <use x="602.083984" xlink:href="#DejaVuSans-99"/>
      <use x="657.064453" xlink:href="#DejaVuSans-101"/>
      <use x="718.587891" xlink:href="#DejaVuSans-32"/>
      <use x="750.375" xlink:href="#DejaVuSans-45"/>
      <use x="786.458984" xlink:href="#DejaVuSans-62"/>
      <use x="870.248047" xlink:href="#DejaVuSans-32"/>
      <use x="902.035156" xlink:href="#DejaVuSans-115"/>
      <use x="954.134766" xlink:href="#DejaVuSans-113"/>
      <use x="1017.611328" xlink:href="#DejaVuSans-114"/>
      <use x="1058.724609" xlink:href="#DejaVuSans-116"/>
      <use x="1097.933594" xlink:href="#DejaVuSans-40"/>
      <use x="1136.947266" xlink:href="#DejaVuSans-120"/>
      <use x="1196.126953" xlink:href="#DejaVuSans-94"/>
      <use x="1279.916016" xlink:href="#DejaVuSans-50"/>
      <use x="1343.539062" xlink:href="#DejaVuSans-32"/>
      <use x="1375.326172" xlink:href="#DejaVuSans-43"/>
      <use x="1459.115234" xlink:href="#DejaVuSans-32"/>
      <use x="1490.902344" xlink:href="#DejaVuSans-121"/>
      <use x="1550.082031" xlink:href="#DejaVuSans-94"/>
      <use x="1633.871094" xlink:href="#DejaVuSans-50"/>
      <use x="1697.494141" xlink:href="#DejaVuSans-41"/>
     </g>
    </g>
   </g>
   <g id="matplotlib.axis_2">
    <g id="ytick_1">
     <g id="line2d_9">
      <defs>
       <path d="M 0 0 
L -3.5 0 
" id="m890424a796" style="stroke:#000000;stroke-width:0.8;"/>
      </defs>
      <g>
       <use style="stroke:#000000;stroke-width:0.8;" x="117" xlink:href="#m890424a796" y="562.432668"/>
      </g>
     </g>
     <g id="text_10">
      <!-- $\mathdefault{10^{0}}$ -->
      <g transform="translate(92.4 566.231887)scale(0.1 -0.1)">
       <use transform="translate(0 0.765625)" xlink:href="#DejaVuSans-49"/>
       <use transform="translate(63.623047 0.765625)" xlink:href="#DejaVuSans-48"/>
       <use transform="translate(128.203125 39.046875)scale(0.7)" xlink:href="#DejaVuSans-48"/>
      </g>
     </g>
    </g>
    <g id="ytick_2">
     <g id="line2d_10">
      <g>
       <use style="stroke:#000000;stroke-width:0.8;" x="117" xlink:href="#m890424a796" y="467.995269"/>
      </g>
     </g>
     <g id="text_11">
      <!-- $\mathdefault{10^{1}}$ -->
      <g transform="translate(92.4 471.794488)scale(0.1 -0.1)">
       <use transform="translate(0 0.684375)" xlink:href="#DejaVuSans-49"/>
       <use transform="translate(63.623047 0.684375)" xlink:href="#DejaVuSans-48"/>
       <use transform="translate(128.203125 38.965625)scale(0.7)" xlink:href="#DejaVuSans-49"/>
      </g>
     </g>
    </g>
    <g id="ytick_3">
     <g id="line2d_11">
      <g>
       <use style="stroke:#000000;stroke-width:0.8;" x="117" xlink:href="#m890424a796" y="373.557871"/>
      </g>
     </g>
     <g id="text_12">
      <!-- $\mathdefault{10^{2}}$ -->
      <g transform="translate(92.4 377.35709)scale(0.1 -0.1)">
       <use transform="translate(0 0.765625)" xlink:href="#DejaVuSans-49"/>
       <use transform="translate(63.623047 0.765625)" xlink:href="#DejaVuSans-48"/>
       <use transform="translate(128.203125 39.046875)scale(0.7)" xlink:href="#DejaVuSans-50"/>
      </g>
     </g>
    </g>
    <g id="ytick_4">
     <g id="line2d_12">
      <g>
       <use style="stroke:#000000;stroke-width:0.8;" x="117" xlink:href="#m890424a796" y="279.120473"/>
      </g>
     </g>
     <g id="text_13">
      <!-- $\mathdefault{10^{3}}$ -->
      <g transform="translate(92.4 282.919691)scale(0.1 -0.1)">
       <use transform="translate(0 0.765625)" xlink:href="#DejaVuSans-49"/>
       <use transform="translate(63.623047 0.765625)" xlink:href="#DejaVuSans-48"/>
       <use transform="translate(128.203125 39.046875)scale(0.7)" xlink:href="#DejaVuSans-51"/>
      </g>
     </g>
    </g>
    <g id="ytick_5">
     <g id="line2d_13">
      <g>
       <use style="stroke:#000000;stroke-width:0.8;" x="117" xlink:href="#m890424a796" y="184.683074"/>
      </g>
     </g>
     <g id="text_14">
      <!-- $\mathdefault{10^{4}}$ -->
      <g transform="translate(92.4 188.482293)scale(0.1 -0.1)">
       <use transform="translate(0 0.684375)" xlink:href="#DejaVuSans-49"/>
       <use transform="translate(63.623047 0.684375)" xlink:href="#DejaVuSans-48"/>
       <use transform="translate(128.203125 38.965625)scale(0.7)" xlink:href="#DejaVuSans-52"/>
      </g>
     </g>
    </g>
    <g id="ytick_6">
     <g id="line2d_14">
      <g>
       <use style="stroke:#000000;stroke-width:0.8;" x="117" xlink:href="#m890424a796" y="90.245676"/>
      </g>
     </g>
     <g id="text_15">
      <!-- $\mathdefault{10^{5}}$ -->
      <g transform="translate(92.4 94.044894)scale(0.1 -0.1)">
       <use transform="translate(0 0.684375)" xlink:href="#DejaVuSans-49"/>
       <use transform="translate(63.623047 0.684375)" xlink:href="#DejaVuSans-48"/>
       <use transform="translate(128.203125 38.965625)scale(0.7)" xlink:href="#DejaVuSans-53"/>
      </g>
     </g>
    </g>
    <g id="ytick_7">
     <g id="line2d_15">
      <defs>
       <path d="M 0 0 
L -2 0 
" id="m99261279a0" style="stroke:#000000;stroke-width:0.6;"/>
      </defs>
      <g>
       <use style="stroke:#000000;stroke-width:0.6;" x="117" xlink:href="#m99261279a0" y="628.441577"/>
      </g>
     </g>
    </g>
    <g id="ytick_8">
     <g id="line2d_16">
      <g>
       <use style="stroke:#000000;stroke-width:0.6;" x="117" xlink:href="#m99261279a0" y="611.811976"/>
      </g>
     </g>
    </g>
    <g id="ytick_9">
     <g id="line2d_17">
      <g>
       <use style="stroke:#000000;stroke-width:0.6;" x="117" xlink:href="#m99261279a0" y="600.013087"/>
      </g>
     </g>
    </g>
    <g id="ytick_10">
     <g id="line2d_18">
      <g>
       <use style="stroke:#000000;stroke-width:0.6;" x="117" xlink:href="#m99261279a0" y="590.861157"/>
      </g>
     </g>
    </g>
    <g id="ytick_11">
     <g id="line2d_19">
      <g>
       <use style="stroke:#000000;stroke-width:0.6;" x="117" xlink:href="#m99261279a0" y="583.383487"/>
      </g>
     </g>
    </g>
    <g id="ytick_12">
     <g id="line2d_20">
      <g>
       <use style="stroke:#000000;stroke-width:0.6;" x="117" xlink:href="#m99261279a0" y="577.061206"/>
      </g>
     </g>
    </g>
    <g id="ytick_13">
     <g id="line2d_21">
      <g>
       <use style="stroke:#000000;stroke-width:0.6;" x="117" xlink:href="#m99261279a0" y="571.584597"/>
      </g>
     </g>
    </g>
    <g id="ytick_14">
     <g id="line2d_22">
      <g>
       <use style="stroke:#000000;stroke-width:0.6;" x="117" xlink:href="#m99261279a0" y="566.753886"/>
      </g>
     </g>
    </g>
    <g id="ytick_15">
     <g id="line2d_23">
      <g>
       <use style="stroke:#000000;stroke-width:0.6;" x="117" xlink:href="#m99261279a0" y="534.004178"/>
      </g>
     </g>
    </g>
    <g id="ytick_16">
     <g id="line2d_24">
      <g>
       <use style="stroke:#000000;stroke-width:0.6;" x="117" xlink:href="#m99261279a0" y="517.374578"/>
      </g>
     </g>
    </g>
    <g id="ytick_17">
     <g id="line2d_25">
      <g>
       <use style="stroke:#000000;stroke-width:0.6;" x="117" xlink:href="#m99261279a0" y="505.575689"/>
      </g>
     </g>
    </g>
    <g id="ytick_18">
     <g id="line2d_26">
      <g>
       <use style="stroke:#000000;stroke-width:0.6;" x="117" xlink:href="#m99261279a0" y="496.423759"/>
      </g>
     </g>
    </g>
    <g id="ytick_19">
     <g id="line2d_27">
      <g>
       <use style="stroke:#000000;stroke-width:0.6;" x="117" xlink:href="#m99261279a0" y="488.946088"/>
      </g>
     </g>
    </g>
    <g id="ytick_20">
     <g id="line2d_28">
      <g>
       <use style="stroke:#000000;stroke-width:0.6;" x="117" xlink:href="#m99261279a0" y="482.623808"/>
      </g>
     </g>
    </g>
    <g id="ytick_21">
     <g id="line2d_29">
      <g>
       <use style="stroke:#000000;stroke-width:0.6;" x="117" xlink:href="#m99261279a0" y="477.147199"/>
      </g>
     </g>
    </g>
    <g id="ytick_22">
     <g id="line2d_30">
      <g>
       <use style="stroke:#000000;stroke-width:0.6;" x="117" xlink:href="#m99261279a0" y="472.316488"/>
      </g>
     </g>
    </g>
    <g id="ytick_23">
     <g id="line2d_31">
      <g>
       <use style="stroke:#000000;stroke-width:0.6;" x="117" xlink:href="#m99261279a0" y="439.56678"/>
      </g>
     </g>
    </g>
    <g id="ytick_24">
     <g id="line2d_32">
      <g>
       <use style="stroke:#000000;stroke-width:0.6;" x="117" xlink:href="#m99261279a0" y="422.937179"/>
      </g>
     </g>
    </g>
    <g id="ytick_25">
     <g id="line2d_33">
      <g>
       <use style="stroke:#000000;stroke-width:0.6;" x="117" xlink:href="#m99261279a0" y="411.13829"/>
      </g>
     </g>
    </g>
    <g id="ytick_26">
     <g id="line2d_34">
      <g>
       <use style="stroke:#000000;stroke-width:0.6;" x="117" xlink:href="#m99261279a0" y="401.986361"/>
      </g>
     </g>
    </g>
    <g id="ytick_27">
     <g id="line2d_35">
      <g>
       <use style="stroke:#000000;stroke-width:0.6;" x="117" xlink:href="#m99261279a0" y="394.50869"/>
      </g>
     </g>
    </g>
    <g id="ytick_28">
     <g id="line2d_36">
      <g>
       <use style="stroke:#000000;stroke-width:0.6;" x="117" xlink:href="#m99261279a0" y="388.186409"/>
      </g>
     </g>
    </g>
    <g id="ytick_29">
     <g id="line2d_37">
      <g>
       <use style="stroke:#000000;stroke-width:0.6;" x="117" xlink:href="#m99261279a0" y="382.709801"/>
      </g>
     </g>
    </g>
    <g id="ytick_30">
     <g id="line2d_38">
      <g>
       <use style="stroke:#000000;stroke-width:0.6;" x="117" xlink:href="#m99261279a0" y="377.879089"/>
      </g>
     </g>
    </g>
    <g id="ytick_31">
     <g id="line2d_39">
      <g>
       <use style="stroke:#000000;stroke-width:0.6;" x="117" xlink:href="#m99261279a0" y="345.129381"/>
      </g>
     </g>
    </g>
    <g id="ytick_32">
     <g id="line2d_40">
      <g>
       <use style="stroke:#000000;stroke-width:0.6;" x="117" xlink:href="#m99261279a0" y="328.499781"/>
      </g>
     </g>
    </g>
    <g id="ytick_33">
     <g id="line2d_41">
      <g>
       <use style="stroke:#000000;stroke-width:0.6;" x="117" xlink:href="#m99261279a0" y="316.700892"/>
      </g>
     </g>
    </g>
    <g id="ytick_34">
     <g id="line2d_42">
      <g>
       <use style="stroke:#000000;stroke-width:0.6;" x="117" xlink:href="#m99261279a0" y="307.548962"/>
      </g>
     </g>
    </g>
    <g id="ytick_35">
     <g id="line2d_43">
      <g>
       <use style="stroke:#000000;stroke-width:0.6;" x="117" xlink:href="#m99261279a0" y="300.071291"/>
      </g>
     </g>
    </g>
    <g id="ytick_36">
     <g id="line2d_44">
      <g>
       <use style="stroke:#000000;stroke-width:0.6;" x="117" xlink:href="#m99261279a0" y="293.749011"/>
      </g>
     </g>
    </g>
    <g id="ytick_37">
     <g id="line2d_45">
      <g>
       <use style="stroke:#000000;stroke-width:0.6;" x="117" xlink:href="#m99261279a0" y="288.272402"/>
      </g>
     </g>
    </g>
    <g id="ytick_38">
     <g id="line2d_46">
      <g>
       <use style="stroke:#000000;stroke-width:0.6;" x="117" xlink:href="#m99261279a0" y="283.441691"/>
      </g>
     </g>
    </g>
    <g id="ytick_39">
     <g id="line2d_47">
      <g>
       <use style="stroke:#000000;stroke-width:0.6;" x="117" xlink:href="#m99261279a0" y="250.691983"/>
      </g>
     </g>
    </g>
    <g id="ytick_40">
     <g id="line2d_48">
      <g>
       <use style="stroke:#000000;stroke-width:0.6;" x="117" xlink:href="#m99261279a0" y="234.062383"/>
      </g>
     </g>
    </g>
    <g id="ytick_41">
     <g id="line2d_49">
      <g>
       <use style="stroke:#000000;stroke-width:0.6;" x="117" xlink:href="#m99261279a0" y="222.263493"/>
      </g>
     </g>
    </g>
    <g id="ytick_42">
     <g id="line2d_50">
      <g>
       <use style="stroke:#000000;stroke-width:0.6;" x="117" xlink:href="#m99261279a0" y="213.111564"/>
      </g>
     </g>
    </g>
    <g id="ytick_43">
     <g id="line2d_51">
      <g>
       <use style="stroke:#000000;stroke-width:0.6;" x="117" xlink:href="#m99261279a0" y="205.633893"/>
      </g>
     </g>
    </g>
    <g id="ytick_44">
     <g id="line2d_52">
      <g>
       <use style="stroke:#000000;stroke-width:0.6;" x="117" xlink:href="#m99261279a0" y="199.311612"/>
      </g>
     </g>
    </g>
    <g id="ytick_45">
     <g id="line2d_53">
      <g>
       <use style="stroke:#000000;stroke-width:0.6;" x="117" xlink:href="#m99261279a0" y="193.835004"/>
      </g>
     </g>
    </g>
    <g id="ytick_46">
     <g id="line2d_54">
      <g>
       <use style="stroke:#000000;stroke-width:0.6;" x="117" xlink:href="#m99261279a0" y="189.004293"/>
      </g>
     </g>
    </g>
    <g id="ytick_47">
     <g id="line2d_55">
      <g>
       <use style="stroke:#000000;stroke-width:0.6;" x="117" xlink:href="#m99261279a0" y="156.254585"/>
      </g>
     </g>
    </g>
    <g id="ytick_48">
     <g id="line2d_56">
      <g>
       <use style="stroke:#000000;stroke-width:0.6;" x="117" xlink:href="#m99261279a0" y="139.624984"/>
      </g>
     </g>
    </g>
    <g id="ytick_49">
     <g id="line2d_57">
      <g>
       <use style="stroke:#000000;stroke-width:0.6;" x="117" xlink:href="#m99261279a0" y="127.826095"/>
      </g>
     </g>
    </g>
    <g id="ytick_50">
     <g id="line2d_58">
      <g>
       <use style="stroke:#000000;stroke-width:0.6;" x="117" xlink:href="#m99261279a0" y="118.674165"/>
      </g>
     </g>
    </g>
    <g id="ytick_51">
     <g id="line2d_59">
      <g>
       <use style="stroke:#000000;stroke-width:0.6;" x="117" xlink:href="#m99261279a0" y="111.196495"/>
      </g>
     </g>
    </g>
    <g id="ytick_52">
     <g id="line2d_60">
      <g>
       <use style="stroke:#000000;stroke-width:0.6;" x="117" xlink:href="#m99261279a0" y="104.874214"/>
      </g>
     </g>
    </g>
    <g id="ytick_53">
     <g id="line2d_61">
      <g>
       <use style="stroke:#000000;stroke-width:0.6;" x="117" xlink:href="#m99261279a0" y="99.397605"/>
      </g>
     </g>
    </g>
    <g id="ytick_54">
     <g id="line2d_62">
      <g>
       <use style="stroke:#000000;stroke-width:0.6;" x="117" xlink:href="#m99261279a0" y="94.566894"/>
      </g>
     </g>
    </g>
    <g id="text_16">
     <!-- log(sum(|expected_shift - real_shift|)) over 20 runs -->
     <defs>
      <path d="M 9.421875 75.984375 
L 18.40625 75.984375 
L 18.40625 0 
L 9.421875 0 
z
" id="DejaVuSans-108"/>
      <path d="M 45.40625 27.984375 
Q 45.40625 37.75 41.375 43.109375 
Q 37.359375 48.484375 30.078125 48.484375 
Q 22.859375 48.484375 18.828125 43.109375 
Q 14.796875 37.75 14.796875 27.984375 
Q 14.796875 18.265625 18.828125 12.890625 
Q 22.859375 7.515625 30.078125 7.515625 
Q 37.359375 7.515625 41.375 12.890625 
Q 45.40625 18.265625 45.40625 27.984375 
z
M 54.390625 6.78125 
Q 54.390625 -7.171875 48.1875 -13.984375 
Q 42 -20.796875 29.203125 -20.796875 
Q 24.46875 -20.796875 20.265625 -20.09375 
Q 16.0625 -19.390625 12.109375 -17.921875 
L 12.109375 -9.1875 
Q 16.0625 -11.328125 19.921875 -12.34375 
Q 23.78125 -13.375 27.78125 -13.375 
Q 36.625 -13.375 41.015625 -8.765625 
Q 45.40625 -4.15625 45.40625 5.171875 
L 45.40625 9.625 
Q 42.625 4.78125 38.28125 2.390625 
Q 33.9375 0 27.875 0 
Q 17.828125 0 11.671875 7.65625 
Q 5.515625 15.328125 5.515625 27.984375 
Q 5.515625 40.671875 11.671875 48.328125 
Q 17.828125 56 27.875 56 
Q 33.9375 56 38.28125 53.609375 
Q 42.625 51.21875 45.40625 46.390625 
L 45.40625 54.6875 
L 54.390625 54.6875 
z
" id="DejaVuSans-103"/>
      <path d="M 8.5 21.578125 
L 8.5 54.6875 
L 17.484375 54.6875 
L 17.484375 21.921875 
Q 17.484375 14.15625 20.5 10.265625 
Q 23.53125 6.390625 29.59375 6.390625 
Q 36.859375 6.390625 41.078125 11.03125 
Q 45.3125 15.671875 45.3125 23.6875 
L 45.3125 54.6875 
L 54.296875 54.6875 
L 54.296875 0 
L 45.3125 0 
L 45.3125 8.40625 
Q 42.046875 3.421875 37.71875 1 
Q 33.40625 -1.421875 27.6875 -1.421875 
Q 18.265625 -1.421875 13.375 4.4375 
Q 8.5 10.296875 8.5 21.578125 
z
M 31.109375 56 
z
" id="DejaVuSans-117"/>
      <path d="M 21 76.421875 
L 21 -23.578125 
L 12.703125 -23.578125 
L 12.703125 76.421875 
z
" id="DejaVuSans-124"/>
      <path d="M 18.109375 8.203125 
L 18.109375 -20.796875 
L 9.078125 -20.796875 
L 9.078125 54.6875 
L 18.109375 54.6875 
L 18.109375 46.390625 
Q 20.953125 51.265625 25.265625 53.625 
Q 29.59375 56 35.59375 56 
Q 45.5625 56 51.78125 48.09375 
Q 58.015625 40.1875 58.015625 27.296875 
Q 58.015625 14.40625 51.78125 6.484375 
Q 45.5625 -1.421875 35.59375 -1.421875 
Q 29.59375 -1.421875 25.265625 0.953125 
Q 20.953125 3.328125 18.109375 8.203125 
z
M 48.6875 27.296875 
Q 48.6875 37.203125 44.609375 42.84375 
Q 40.53125 48.484375 33.40625 48.484375 
Q 26.265625 48.484375 22.1875 42.84375 
Q 18.109375 37.203125 18.109375 27.296875 
Q 18.109375 17.390625 22.1875 11.75 
Q 26.265625 6.109375 33.40625 6.109375 
Q 40.53125 6.109375 44.609375 11.75 
Q 48.6875 17.390625 48.6875 27.296875 
z
" id="DejaVuSans-112"/>
      <path d="M 50.984375 -16.609375 
L 50.984375 -23.578125 
L -0.984375 -23.578125 
L -0.984375 -16.609375 
z
" id="DejaVuSans-95"/>
      <path d="M 54.890625 33.015625 
L 54.890625 0 
L 45.90625 0 
L 45.90625 32.71875 
Q 45.90625 40.484375 42.875 44.328125 
Q 39.84375 48.1875 33.796875 48.1875 
Q 26.515625 48.1875 22.3125 43.546875 
Q 18.109375 38.921875 18.109375 30.90625 
L 18.109375 0 
L 9.078125 0 
L 9.078125 75.984375 
L 18.109375 75.984375 
L 18.109375 46.1875 
Q 21.34375 51.125 25.703125 53.5625 
Q 30.078125 56 35.796875 56 
Q 45.21875 56 50.046875 50.171875 
Q 54.890625 44.34375 54.890625 33.015625 
z
" id="DejaVuSans-104"/>
      <path d="M 37.109375 75.984375 
L 37.109375 68.5 
L 28.515625 68.5 
Q 23.6875 68.5 21.796875 66.546875 
Q 19.921875 64.59375 19.921875 59.515625 
L 19.921875 54.6875 
L 34.71875 54.6875 
L 34.71875 47.703125 
L 19.921875 47.703125 
L 19.921875 0 
L 10.890625 0 
L 10.890625 47.703125 
L 2.296875 47.703125 
L 2.296875 54.6875 
L 10.890625 54.6875 
L 10.890625 58.5 
Q 10.890625 67.625 15.140625 71.796875 
Q 19.390625 75.984375 28.609375 75.984375 
z
" id="DejaVuSans-102"/>
      <path d="M 2.984375 54.6875 
L 12.5 54.6875 
L 29.59375 8.796875 
L 46.6875 54.6875 
L 56.203125 54.6875 
L 35.6875 0 
L 23.484375 0 
z
" id="DejaVuSans-118"/>
     </defs>
     <g transform="translate(86.042187 485.492188)rotate(-90)scale(0.1 -0.1)">
      <use xlink:href="#DejaVuSans-108"/>
      <use x="27.783203" xlink:href="#DejaVuSans-111"/>
      <use x="88.964844" xlink:href="#DejaVuSans-103"/>
      <use x="152.441406" xlink:href="#DejaVuSans-40"/>
      <use x="191.455078" xlink:href="#DejaVuSans-115"/>
      <use x="243.554688" xlink:href="#DejaVuSans-117"/>
      <use x="306.933594" xlink:href="#DejaVuSans-109"/>
      <use x="404.345703" xlink:href="#DejaVuSans-40"/>
      <use x="443.359375" xlink:href="#DejaVuSans-124"/>
      <use x="477.050781" xlink:href="#DejaVuSans-101"/>
      <use x="538.558594" xlink:href="#DejaVuSans-120"/>
      <use x="597.738281" xlink:href="#DejaVuSans-112"/>
      <use x="661.214844" xlink:href="#DejaVuSans-101"/>
      <use x="722.738281" xlink:href="#DejaVuSans-99"/>
      <use x="777.71875" xlink:href="#DejaVuSans-116"/>
      <use x="816.927734" xlink:href="#DejaVuSans-101"/>
      <use x="878.451172" xlink:href="#DejaVuSans-100"/>
      <use x="941.927734" xlink:href="#DejaVuSans-95"/>
      <use x="991.927734" xlink:href="#DejaVuSans-115"/>
      <use x="1044.027344" xlink:href="#DejaVuSans-104"/>
      <use x="1107.40625" xlink:href="#DejaVuSans-105"/>
      <use x="1135.189453" xlink:href="#DejaVuSans-102"/>
      <use x="1170.378906" xlink:href="#DejaVuSans-116"/>
      <use x="1209.587891" xlink:href="#DejaVuSans-32"/>
      <use x="1241.375" xlink:href="#DejaVuSans-45"/>
      <use x="1277.458984" xlink:href="#DejaVuSans-32"/>
      <use x="1309.246094" xlink:href="#DejaVuSans-114"/>
      <use x="1350.328125" xlink:href="#DejaVuSans-101"/>
      <use x="1411.851562" xlink:href="#DejaVuSans-97"/>
      <use x="1473.130859" xlink:href="#DejaVuSans-108"/>
      <use x="1500.914062" xlink:href="#DejaVuSans-95"/>
      <use x="1550.914062" xlink:href="#DejaVuSans-115"/>
      <use x="1603.013672" xlink:href="#DejaVuSans-104"/>
      <use x="1666.392578" xlink:href="#DejaVuSans-105"/>
      <use x="1694.175781" xlink:href="#DejaVuSans-102"/>
      <use x="1729.365234" xlink:href="#DejaVuSans-116"/>
      <use x="1768.574219" xlink:href="#DejaVuSans-124"/>
      <use x="1802.265625" xlink:href="#DejaVuSans-41"/>
      <use x="1841.279297" xlink:href="#DejaVuSans-41"/>
      <use x="1880.292969" xlink:href="#DejaVuSans-32"/>
      <use x="1912.080078" xlink:href="#DejaVuSans-111"/>
      <use x="1973.261719" xlink:href="#DejaVuSans-118"/>
      <use x="2032.441406" xlink:href="#DejaVuSans-101"/>
      <use x="2093.964844" xlink:href="#DejaVuSans-114"/>
      <use x="2135.078125" xlink:href="#DejaVuSans-32"/>
      <use x="2166.865234" xlink:href="#DejaVuSans-50"/>
      <use x="2230.488281" xlink:href="#DejaVuSans-48"/>
      <use x="2294.111328" xlink:href="#DejaVuSans-32"/>
      <use x="2325.898438" xlink:href="#DejaVuSans-114"/>
      <use x="2367.011719" xlink:href="#DejaVuSans-117"/>
      <use x="2430.390625" xlink:href="#DejaVuSans-110"/>
      <use x="2493.769531" xlink:href="#DejaVuSans-115"/>
     </g>
    </g>
   </g>
   <g id="line2d_63">
    <path clip-path="url(#pb5ab2e007a)" d="M 149.972727 379.508254 
L 159.298823 378.388965 
L 159.298823 374.729858 
L 163.161818 372.331525 
L 163.161818 369.661704 
L 174.220576 366.790844 
L 174.220576 360.70703 
L 175.952223 357.598062 
L 175.952223 342.618688 
L 184.264364 339.84891 
L 184.264364 332.0972 
L 196.603205 329.699322 
L 196.603205 323.026582 
L 197.526671 320.966925 
L 197.526671 311.762056 
L 202.530882 310.118828 
L 202.530882 302.745423 
L 215.918182 301.419633 
L 215.918182 297.695635 
L 218.426269 296.530659 
L 218.426269 294.305924 
L 219.058641 293.242836 
L 219.058641 287.49476 
L 222.593975 286.632629 
L 222.593975 282.65779 
L 232.799588 281.913826 
L 232.799588 278.339658 
L 235.772807 277.645434 
L 235.772807 275.618875 
L 236.278172 274.969754 
L 236.278172 272.06893 
L 239.133323 271.578009 
L 239.133323 268.918487 
L 246.780655 268.590941 
L 246.780655 267.523823 
L 247.625455 267.1149 
L 247.625455 263.811141 
L 259.734019 263.126562 
L 259.734019 257.959367 
L 266.548923 257.242963 
L 266.548923 255.86434 
L 266.921371 255.207039 
L 266.921371 251.610374 
L 269.043998 251.042956 
L 269.043998 246.868352 
L 271.312364 246.205439 
L 271.312364 244.804158 
L 275.529132 244.062188 
L 275.529132 237.923971 
L 285.161102 236.902718 
L 285.161102 231.299684 
L 294.71962 230.100724 
L 294.71962 222.753212 
L 314.836364 221.556146 
L 314.836364 218.13361 
L 342.090297 217.066929 
L 342.090297 214.158723 
L 342.316525 213.300457 
L 342.316525 209.915267 
L 343.614455 209.415814 
L 343.614455 207.284114 
L 347.668357 207.001557 
L 347.668357 204.328003 
L 353.921368 203.736607 
L 353.921368 197.359174 
L 360.379035 196.117508 
L 360.379035 185.635525 
L 374.692931 183.981159 
L 374.692931 174.272051 
L 421.668 172.791921 
L 421.668 168.771418 
L 477.318684 167.592871 
L 477.318684 165.505399 
L 477.451507 164.599975 
L 477.451507 161.421619 
L 478.215523 161.030843 
L 478.215523 159.814141 
L 480.623263 159.626061 
L 480.623263 158.993735 
L 484.399494 158.789592 
L 484.399494 156.236328 
L 488.376375 155.693897 
L 488.376375 151.437002 
L 497.457093 150.564059 
L 497.457093 143.623191 
L 529.53107 142.604909 
L 529.53107 137.334895 
L 612.909818 136.687533 
L 612.909818 135.283972 
L 616.277508 135.007491 
L 616.277508 134.745731 
L 616.37076 135.280179 
L 616.907527 135.589803 
L 616.907527 138.30971 
L 618.603232 138.600185 
L 618.603232 138.98051 
L 618.603232 138.551649 
L 621.275216 138.238496 
L 621.275216 134.805756 
L 624.105412 134.229125 
L 624.105412 130.030725 
L 630.628694 129.38973 
L 630.628694 124.169469 
L 654.303283 123.304168 
L 654.303283 116.92681 
L 719.70558 116.067475 
L 719.70558 111.70663 
L 809.427273 111.409861 
L 809.427273 111.109189 
L 809.427273 111.109189 
" style="fill:none;stroke:#000000;stroke-linecap:square;stroke-width:1.5;"/>
   </g>
   <g id="line2d_64">
    <path clip-path="url(#pb5ab2e007a)" d="M 149.972727 381.653273 
L 159.298823 380.442897 
L 159.298823 376.506235 
L 163.161818 373.941815 
L 163.161818 371.100677 
L 174.220576 368.060667 
L 174.220576 361.665373 
L 175.952223 358.419712 
L 175.952223 342.96183 
L 184.264364 340.131835 
L 184.264364 332.250444 
L 196.603205 329.822849 
L 196.603205 323.089258 
L 197.526671 321.016444 
L 197.526671 311.776795 
L 202.530882 310.130456 
L 202.530882 302.749736 
L 215.918182 301.423387 
L 215.918182 297.698559 
L 218.426269 296.533459 
L 218.426269 294.308595 
L 219.058641 293.245482 
L 219.058641 287.497644 
L 222.593975 286.635623 
L 222.593975 282.66224 
L 232.799588 281.918922 
L 232.799588 278.352402 
L 235.772807 277.661139 
L 235.772807 275.648214 
L 236.278172 275.005641 
L 236.278172 272.158056 
L 239.133323 271.682492 
L 239.133323 269.167399 
L 246.780655 268.862337 
L 246.780655 267.854659 
L 247.625455 267.460915 
L 247.625455 264.170849 
L 259.734019 263.47502 
L 259.734019 258.168533 
L 266.548923 257.429971 
L 266.548923 256.009697 
L 266.921371 255.333429 
L 266.921371 251.655596 
L 269.043998 251.079924 
L 269.043998 246.875478 
L 271.312364 246.210792 
L 271.312364 244.806743 
L 275.529132 244.063622 
L 275.529132 237.916158 
L 285.161102 236.89295 
L 285.161102 231.277264 
L 294.71962 230.075425 
L 294.71962 222.713244 
L 314.836364 221.514872 
L 314.836364 218.091624 
L 342.090297 217.025894 
L 342.090297 214.124135 
L 342.316525 213.26913 
L 342.316525 209.905715 
L 343.614455 209.411113 
L 343.614455 207.304537 
L 347.668357 207.024876 
L 347.668357 204.358491 
L 353.921368 203.766473 
L 353.921368 197.377314 
L 360.379035 196.133271 
L 360.379035 185.635044 
L 374.692931 183.97892 
L 374.692931 174.264394 
L 421.668 172.784153 
L 421.668 168.764258 
L 477.318684 167.586141 
L 477.318684 165.499722 
L 477.451507 164.594879 
L 477.451507 161.419352 
L 478.215523 161.029062 
L 478.215523 159.814386 
L 480.623263 159.626638 
L 480.623263 158.994423 
L 484.399494 158.79017 
L 484.399494 156.234571 
L 488.376375 155.691559 
L 488.376375 151.430337 
L 497.457093 150.556665 
L 497.457093 143.612838 
L 529.53107 142.594563 
L 529.53107 137.326596 
L 612.909818 136.679798 
L 612.909818 135.278045 
L 616.277508 135.002167 
L 616.277508 134.741563 
L 616.37076 135.277951 
L 616.907527 135.587963 
L 616.907527 138.309457 
L 618.603232 138.600005 
L 618.603232 138.980371 
L 618.603232 138.551055 
L 621.275216 138.237727 
L 621.275216 134.803276 
L 624.105412 134.22638 
L 624.105412 130.026662 
L 630.628694 129.385614 
L 630.628694 124.166126 
L 654.303283 123.30106 
L 654.303283 116.925464 
L 719.70558 116.066341 
L 719.70558 111.706424 
L 809.427273 111.409709 
L 809.427273 111.109091 
L 809.427273 111.109091 
" style="fill:none;stroke:#010000;stroke-linecap:square;stroke-width:1.5;"/>
   </g>
   <g id="line2d_65">
    <path clip-path="url(#pb5ab2e007a)" d="M 149.972727 381.666775 
L 159.298823 380.456193 
L 159.298823 376.518884 
L 163.161818 373.954066 
L 163.161818 371.112505 
L 174.220576 368.072063 
L 174.220576 361.675912 
L 175.952223 358.42984 
L 175.952223 342.97013 
L 184.264364 340.139812 
L 184.264364 332.257512 
L 196.603205 329.829633 
L 196.603205 323.09523 
L 197.526671 321.022158 
L 197.526671 311.781306 
L 202.530882 310.134743 
L 202.530882 302.753021 
L 215.918182 301.426497 
L 215.918182 297.701205 
L 218.426269 296.535971 
L 218.426269 294.310873 
L 219.058641 293.247659 
L 219.058641 287.499455 
L 222.593975 286.637411 
L 222.593975 282.664067 
L 232.799588 281.920785 
L 232.799588 278.354556 
L 235.772807 277.663351 
L 235.772807 275.650612 
L 236.278172 275.008086 
L 236.278172 272.160472 
L 239.133323 271.684819 
L 239.133323 269.167611 
L 246.780655 268.861944 
L 246.780655 267.851862 
L 247.625455 267.457115 
L 247.625455 264.159566 
L 259.734019 263.462507 
L 259.734019 258.150673 
L 266.548923 257.412226 
L 266.548923 255.993089 
L 266.921371 255.317876 
L 266.921371 251.653828 
L 269.043998 251.081749 
L 269.043998 246.912748 
L 271.312364 246.25435 
L 271.312364 244.863413 
L 275.529132 244.127008 
L 275.529132 238.024111 
L 285.161102 237.006342 
L 285.161102 231.413342 
L 294.71962 230.215186 
L 294.71962 222.869026 
L 314.836364 221.672135 
L 314.836364 218.250905 
L 342.090297 217.185015 
L 342.090297 214.280548 
L 342.316525 213.423991 
L 342.316525 210.050011 
L 343.614455 209.55298 
L 343.614455 207.429775 
L 347.668357 207.146704 
L 347.668357 204.447488 
L 353.921368 203.849694 
L 353.921368 197.422063 
L 360.379035 196.173637 
L 360.379035 185.654805 
L 374.692931 183.996856 
L 374.692931 174.274286 
L 421.668 172.793033 
L 421.668 168.770513 
L 477.318684 167.591647 
L 477.318684 165.503911 
L 477.451507 164.598498 
L 477.451507 161.420917 
L 478.215523 161.03036 
L 478.215523 159.815001 
L 480.623263 159.627496 
L 480.623263 158.997483 
L 484.399494 158.794106 
L 484.399494 156.253468 
L 488.376375 155.714542 
L 488.376375 151.494092 
L 497.457093 150.630225 
L 497.457093 143.772692 
L 529.53107 142.767539 
L 529.53107 137.564566 
L 612.909818 136.924846 
L 612.909818 135.536013 
L 616.277508 135.261623 
L 616.277508 135.000005 
L 616.37076 135.521504 
L 616.907527 135.82601 
L 616.907527 138.507827 
L 618.603232 138.793787 
L 618.603232 139.165731 
L 618.603232 138.713721 
L 621.275216 138.394517 
L 621.275216 134.903785 
L 624.105412 134.317771 
L 624.105412 130.06352 
L 630.628694 129.416906 
L 630.628694 124.174524 
L 654.303283 123.307962 
L 654.303283 116.927623 
L 719.70558 116.068257 
L 719.70558 111.70757 
L 809.427273 111.410819 
L 809.427273 111.110153 
L 809.427273 111.110153 
" style="fill:none;stroke:#030000;stroke-linecap:square;stroke-width:1.5;"/>
   </g>
   <g id="line2d_66">
    <path clip-path="url(#pb5ab2e007a)" d="M 149.972727 382.214339 
L 159.298823 381.048684 
L 159.298823 377.25251 
L 163.161818 374.774232 
L 163.161818 372.023501 
L 174.220576 369.076286 
L 174.220576 362.8603 
L 175.952223 359.697735 
L 175.952223 344.556847 
L 184.264364 341.768265 
L 184.264364 333.965688 
L 196.603205 331.549684 
L 196.603205 324.80817 
L 197.526671 322.719275 
L 197.526671 313.310567 
L 202.530882 311.614793 
L 202.530882 303.929347 
L 215.918182 302.533907 
L 215.918182 298.596136 
L 218.426269 297.360407 
L 218.426269 294.998857 
L 219.058641 293.870897 
L 219.058641 287.809883 
L 222.593975 286.910172 
L 222.593975 282.806382 
L 232.799588 282.046855 
L 232.799588 278.432786 
L 235.772807 277.736834 
L 235.772807 275.715482 
L 236.278172 275.071401 
L 236.278172 272.219745 
L 239.133323 271.743304 
L 239.133323 269.212049 
L 246.780655 268.902649 
L 246.780655 267.878524 
L 247.625455 267.478222 
L 247.625455 264.142397 
L 259.734019 263.438919 
L 259.734019 258.091436 
L 266.548923 257.349671 
L 266.548923 255.92518 
L 266.921371 255.247893 
L 266.921371 251.576127 
L 269.043998 251.002858 
L 269.043998 246.81678 
L 271.312364 246.15442 
L 271.312364 244.754878 
L 275.529132 244.014037 
L 275.529132 237.894137 
L 285.161102 236.878401 
L 285.161102 231.320464 
L 294.71962 230.13391 
L 294.71962 222.866905 
L 314.836364 221.681093 
L 314.836364 218.282019 
L 342.090297 217.21899 
L 342.090297 214.308206 
L 342.316525 213.444769 
L 342.316525 210.00952 
L 343.614455 209.496948 
L 343.614455 207.283235 
L 347.668357 206.987806 
L 347.668357 204.240416 
L 353.921368 203.6415 
L 353.921368 197.240781 
L 360.379035 196.000169 
L 360.379035 185.547914 
L 374.692931 183.899703 
L 374.692931 174.227853 
L 421.668 172.753358 
L 421.668 168.747966 
L 477.318684 167.573797 
L 477.318684 165.494038 
L 477.451507 164.591956 
L 477.451507 161.425562 
L 478.215523 161.036342 
L 478.215523 159.824924 
L 480.623263 159.637727 
L 480.623263 159.007706 
L 484.399494 158.804309 
L 484.399494 156.264096 
L 488.376375 155.72531 
L 488.376375 151.505644 
L 497.457093 150.641854 
L 497.457093 143.784172 
L 529.53107 142.778903 
L 529.53107 137.574922 
L 612.909818 136.935001 
L 612.909818 135.545546 
L 616.277508 135.270946 
L 616.277508 135.008913 
L 616.37076 135.529624 
L 616.907527 135.833948 
L 616.907527 138.514842 
L 618.603232 138.800757 
L 618.603232 139.17272 
L 618.603232 138.72161 
L 621.275216 138.402763 
L 621.275216 134.916245 
L 624.105412 134.331031 
L 624.105412 130.082378 
L 630.628694 129.436364 
L 630.628694 124.194692 
L 654.303283 123.327683 
L 654.303283 116.941982 
L 719.70558 116.081772 
L 719.70558 111.716819 
L 809.427273 111.419786 
L 809.427273 111.118836 
L 809.427273 111.118836 
" style="fill:none;stroke:#0d0000;stroke-linecap:square;stroke-width:1.5;"/>
   </g>
   <g id="line2d_67">
    <path clip-path="url(#pb5ab2e007a)" d="M 149.972727 383.917329 
L 159.298823 382.729914 
L 159.298823 378.862274 
L 163.161818 376.336646 
L 163.161818 373.532639 
L 174.220576 370.527257 
L 174.220576 364.18411 
L 175.952223 360.954176 
L 175.952223 345.463445 
L 184.264364 342.606332 
L 184.264364 334.610565 
L 196.603205 332.135755 
L 196.603205 325.238882 
L 197.526671 323.105822 
L 197.526671 313.533072 
L 202.530882 311.814799 
L 202.530882 304.055062 
L 215.918182 302.650561 
L 215.918182 298.693167 
L 218.426269 297.452784 
L 218.426269 295.083848 
L 219.058641 293.952911 
L 219.058641 287.878473 
L 222.593975 286.976691 
L 222.593975 282.861249 
L 232.799588 282.099085 
L 232.799588 278.470485 
L 235.772807 277.771493 
L 235.772807 275.741222 
L 236.278172 275.094298 
L 236.278172 272.229987 
L 239.133323 271.751323 
L 239.133323 269.204341 
L 246.780655 268.892115 
L 246.780655 267.857716 
L 247.625455 267.453331 
L 247.625455 264.088387 
L 259.734019 263.380056 
L 259.734019 258.010233 
L 266.548923 257.267459 
L 266.548923 255.84246 
L 266.921371 255.165541 
L 266.921371 251.499523 
L 269.043998 250.927071 
L 269.043998 246.742502 
L 271.312364 246.080203 
L 271.312364 244.68129 
L 275.529132 243.941003 
L 275.529132 237.827308 
L 285.161102 236.811604 
L 285.161102 231.24479 
L 294.71962 230.054655 
L 294.71962 222.764373 
L 314.836364 221.57633 
L 314.836364 218.177237 
L 342.090297 217.116814 
L 342.090297 214.222093 
L 342.316525 213.366519 
L 342.316525 209.982956 
L 343.614455 209.481753 
L 343.614455 207.326289 
L 347.668357 207.037529 
L 347.668357 204.309462 
L 353.921368 203.710507 
L 353.921368 197.305746 
L 360.379035 196.064593 
L 360.379035 185.605478 
L 374.692931 183.955447 
L 374.692931 174.268915 
L 421.668 172.791703 
L 421.668 168.778487 
L 477.318684 167.601926 
L 477.318684 165.517827 
L 477.451507 164.613815 
L 477.451507 161.440298 
L 478.215523 161.050126 
L 478.215523 159.836421 
L 480.623263 159.649741 
L 480.623263 159.025905 
L 484.399494 158.825049 
L 484.399494 156.325405 
L 488.376375 155.796684 
L 488.376375 151.659026 
L 497.457093 150.81092 
L 497.457093 144.039815 
L 529.53107 143.040093 
L 529.53107 137.823327 
L 612.909818 137.174625 
L 612.909818 135.751576 
L 616.277508 135.464185 
L 616.37076 135.170626 
L 616.37076 135.645191 
L 616.907527 135.938099 
L 616.907527 138.564888 
L 618.603232 138.84701 
L 618.603232 139.213966 
L 618.603232 138.761318 
L 621.275216 138.443323 
L 621.275216 134.968512 
L 624.105412 134.385956 
L 624.105412 130.168006 
L 630.628694 129.528139 
L 630.628694 124.331265 
L 654.303283 123.469306 
L 654.303283 117.097613 
L 719.70558 116.236589 
L 719.70558 111.859969 
L 809.427273 111.561741 
L 809.427273 111.259539 
L 809.427273 111.259539 
" style="fill:none;stroke:#1a0000;stroke-linecap:square;stroke-width:1.5;"/>
   </g>
   <g id="line2d_68">
    <path clip-path="url(#pb5ab2e007a)" d="M 149.972727 406.988243 
L 159.298823 405.008478 
L 159.298823 398.750447 
L 163.161818 394.801393 
L 163.161818 390.526113 
L 174.220576 386.05533 
L 174.220576 376.936436 
L 175.952223 372.432616 
L 175.952223 351.85257 
L 184.264364 348.219318 
L 184.264364 338.314304 
L 196.603205 335.329997 
L 196.603205 327.230304 
L 197.526671 324.791871 
L 197.526671 314.234019 
L 202.530882 312.401659 
L 202.530882 304.317022 
L 215.918182 302.880414 
L 215.918182 298.861993 
L 218.426269 297.609314 
L 218.426269 295.222966 
L 219.058641 294.085792 
L 219.058641 287.988273 
L 222.593975 287.083625 
L 222.593975 282.956179 
L 232.799588 282.192389 
L 232.799588 278.561303 
L 235.772807 277.863039 
L 235.772807 275.837032 
L 236.278172 275.192055 
L 236.278172 272.337787 
L 239.133323 271.860642 
L 239.133323 269.312586 
L 246.780655 268.998199 
L 246.780655 267.954574 
L 247.625455 267.546313 
L 247.625455 264.154198 
L 259.734019 263.441319 
L 259.734019 258.047129 
L 266.548923 257.302347 
L 266.548923 255.87476 
L 266.921371 255.197086 
L 266.921371 251.533595 
L 269.043998 250.962543 
L 269.043998 246.803104 
L 271.312364 246.148458 
L 271.312364 244.769849 
L 275.529132 244.042656 
L 275.529132 238.081185 
L 285.161102 237.094293 
L 285.161102 231.674134 
L 294.71962 230.510576 
L 294.71962 223.332369 
L 314.836364 222.154527 
L 314.836364 218.774625 
L 342.090297 217.717739 
L 342.090297 214.829254 
L 342.316525 213.975294 
L 342.316525 210.606069 
L 343.614455 210.109904 
L 343.614455 208.001636 
L 347.668357 207.723436 
L 347.668357 205.081179 
L 353.921368 204.495875 
L 353.921368 198.19595 
L 360.379035 196.970342 
L 360.379035 186.589328 
L 374.692931 184.94193 
L 374.692931 175.206696 
L 421.668 173.711298 
L 421.668 169.630907 
L 477.318684 168.428961 
L 477.318684 166.292136 
L 477.451507 165.361441 
L 477.451507 162.066319 
L 478.215523 161.656463 
L 478.215523 160.378973 
L 480.623263 160.194633 
L 480.623263 159.634179 
L 484.399494 159.457048 
L 484.399494 157.274972 
L 488.376375 156.820785 
L 488.376375 153.33292 
L 497.457093 152.625881 
L 497.457093 146.966895 
L 529.53107 146.12456 
L 529.53107 141.719579 
L 612.909818 141.180401 
L 612.909818 140.047404 
L 616.277508 139.736997 
L 616.277508 139.720146 
L 616.37076 140.492471 
L 616.907527 140.858212 
L 616.907527 143.87353 
L 618.603232 144.171537 
L 618.603232 144.484761 
L 618.603232 143.687916 
L 621.275216 143.242559 
L 621.275216 138.721155 
L 624.105412 138.004658 
L 624.105412 133.356494 
L 630.628694 132.754304 
L 630.628694 128.716782 
L 654.303283 128.146541 
L 654.303283 124.342389 
L 719.70558 123.865758 
L 719.70558 121.535609 
L 809.427273 121.278935 
L 809.427273 121.22685 
L 809.427273 121.22685 
" style="fill:none;stroke:#330000;stroke-linecap:square;stroke-width:1.5;"/>
   </g>
   <g id="line2d_69">
    <path clip-path="url(#pb5ab2e007a)" d="M 149.972727 426.701706 
L 159.298823 424.035589 
L 159.298823 415.864936 
L 163.161818 410.872472 
L 163.161818 405.589284 
L 174.220576 400.17614 
L 174.220576 389.424774 
L 175.952223 384.230891 
L 175.952223 361.134101 
L 184.264364 357.12787 
L 184.264364 346.25585 
L 196.603205 342.987027 
L 196.603205 334.106617 
L 197.526671 331.426485 
L 197.526671 319.754012 
L 202.530882 317.713966 
L 202.530882 308.653289 
L 215.918182 307.032934 
L 215.918182 302.485382 
L 218.426269 301.063889 
L 218.426269 298.352665 
L 219.058641 297.060027 
L 219.058641 290.154803 
L 222.593975 289.140343 
L 222.593975 284.584411 
L 232.799588 283.758233 
L 232.799588 279.909653 
L 235.772807 279.182255 
L 235.772807 277.087488 
L 236.278172 276.42418 
L 236.278172 273.506072 
L 239.133323 273.022883 
L 239.133323 270.552926 
L 246.780655 270.273675 
L 246.780655 269.381075 
L 247.625455 269.038575 
L 247.625455 266.177703 
L 259.734019 265.570214 
L 259.734019 260.955903 
L 266.548923 260.321396 
L 266.548923 259.108049 
L 266.921371 258.532856 
L 266.921371 255.366731 
L 269.043998 254.850149 
L 269.043998 250.756563 
L 271.312364 250.065606 
L 271.312364 248.587342 
L 275.529132 247.798973 
L 275.529132 241.34504 
L 285.161102 240.297066 
L 285.161102 234.671825 
L 294.71962 233.489813 
L 294.71962 226.323019 
L 314.836364 225.160267 
L 314.836364 221.829892 
L 342.090297 220.787741 
L 342.090297 217.927509 
L 342.316525 217.075915 
L 342.316525 213.658963 
L 343.614455 213.142959 
L 343.614455 210.90793 
L 347.668357 210.618845 
L 347.668357 208.154126 
L 353.921368 207.645215 
L 353.921368 202.352386 
L 360.379035 201.340261 
L 360.379035 192.807417 
L 374.692931 191.449149 
L 374.692931 183.335254 
L 421.668 182.073634 
L 421.668 178.607938 
L 477.318684 177.580998 
L 477.318684 175.749218 
L 477.451507 174.948722 
L 477.451507 172.094197 
L 478.215523 171.732496 
L 478.215523 170.489074 
L 480.623263 170.358145 
L 480.623263 169.327912 
L 484.399494 169.063815 
L 484.399494 166.185214 
L 488.376375 165.626788 
L 488.376375 161.575631 
L 497.457093 160.799288 
L 497.457093 155.12057 
L 529.53107 154.364707 
L 529.53107 151.016367 
L 612.909818 150.736441 
L 612.909818 150.4731 
L 612.909818 150.4731 
L 616.277508 150.4731 
L 616.277508 150.495942 
L 616.37076 153.397185 
L 616.907527 154.114 
L 616.907527 159.026625 
L 618.603232 159.463702 
L 618.603232 159.910428 
L 618.603232 158.813272 
L 621.275216 158.208892 
L 621.275216 152.107064 
L 624.105412 151.11888 
L 624.105412 144.300103 
L 630.628694 143.353239 
L 630.628694 136.869556 
L 654.303283 135.972648 
L 654.303283 130.321477 
L 719.70558 129.655526 
L 719.70558 126.520218 
L 809.427273 126.319939 
L 809.427273 126.118623 
L 809.427273 126.118623 
" style="fill:none;stroke:#4c0000;stroke-linecap:square;stroke-width:1.5;"/>
   </g>
   <g id="line2d_70">
    <path clip-path="url(#pb5ab2e007a)" d="M 149.972727 491.353888 
L 159.298823 488.942713 
L 159.298823 481.445833 
L 163.161818 476.725475 
L 163.161818 471.640261 
L 174.220576 466.342659 
L 174.220576 455.552623 
L 175.952223 450.205254 
L 175.952223 425.272925 
L 184.264364 420.730951 
L 184.264364 408.085579 
L 196.603205 404.206322 
L 196.603205 393.559833 
L 197.526671 390.34526 
L 197.526671 376.750736 
L 202.530882 374.498218 
L 202.530882 365.051378 
L 215.918182 363.413152 
L 215.918182 358.644158 
L 218.426269 357.040303 
L 218.426269 353.73121 
L 219.058641 352.00772 
L 219.058641 340.946807 
L 222.593975 339.090558 
L 222.593975 330.584495 
L 232.799588 329.09749 
L 232.799588 322.828326 
L 235.772807 321.770527 
L 235.772807 318.87351 
L 236.278172 317.97307 
L 236.278172 313.722602 
L 239.133323 312.897469 
L 239.133323 307.012739 
L 246.780655 306.118104 
L 246.780655 303.313042 
L 247.625455 302.338834 
L 247.625455 296.403683 
L 259.734019 295.480044 
L 259.734019 290.591535 
L 266.548923 290.156566 
L 266.548923 289.448018 
L 266.921371 289.156613 
L 266.921371 287.326601 
L 269.043998 286.851212 
L 269.043998 280.752829 
L 271.312364 279.496772 
L 271.312364 276.793238 
L 275.529132 275.375023 
L 275.529132 265.593602 
L 285.161102 264.370643 
L 285.161102 259.486386 
L 294.71962 258.791997 
L 294.71962 256.677251 
L 314.836364 256.634701 
L 314.836364 256.663549 
L 342.090297 256.753043 
L 342.090297 257.265784 
L 342.316525 257.476837 
L 342.316525 258.214484 
L 343.614455 258.100987 
L 343.614455 255.850636 
L 347.668357 255.214434 
L 347.668357 248.705552 
L 353.921368 247.490493 
L 353.921368 237.532315 
L 360.379035 236.000849 
L 360.379035 225.953384 
L 374.692931 224.726492 
L 374.692931 218.986296 
L 421.668 218.310195 
L 421.668 216.72087 
L 477.318684 216.323113 
L 477.318684 215.696124 
L 477.451507 215.249516 
L 477.451507 214.682567 
L 478.215523 214.570399 
L 478.215523 213.633639 
L 480.623263 213.37943 
L 480.623263 210.876726 
L 484.399494 210.272327 
L 484.399494 204.481567 
L 488.376375 203.445173 
L 488.376375 196.502973 
L 497.457093 195.294422 
L 497.457093 187.86707 
L 529.53107 187.10541 
L 529.53107 185.11988 
L 529.53107 185.11988 
L 612.909818 185.11988 
L 612.909818 185.135764 
L 612.909818 185.606429 
L 616.277508 186.059575 
L 616.37076 193.988303 
L 616.907527 195.30371 
L 616.907527 203.086846 
L 618.603232 203.684021 
L 618.603232 204.155334 
L 618.603232 202.54329 
L 621.275216 201.684734 
L 621.275216 192.741952 
L 624.105412 191.166659 
L 624.105412 178.70106 
L 630.628694 176.734421 
L 630.628694 162.300556 
L 654.303283 160.246563 
L 654.303283 147.446676 
L 719.70558 145.966868 
L 719.70558 139.086248 
L 809.427273 138.650627 
L 809.427273 138.213657 
L 809.427273 138.213657 
" style="fill:none;stroke:#660000;stroke-linecap:square;stroke-width:1.5;"/>
   </g>
   <g id="line2d_71">
    <path clip-path="url(#pb5ab2e007a)" d="M 149.972727 605.290909 
L 159.298823 603.60047 
L 159.298823 598.134667 
L 163.161818 594.402166 
L 163.161818 590.222447 
L 174.220576 585.620932 
L 174.220576 575.801342 
L 175.952223 570.678234 
L 175.952223 544.981298 
L 184.264364 540.041385 
L 184.264364 525.9358 
L 196.603205 521.546468 
L 196.603205 509.348277 
L 197.526671 505.615652 
L 197.526671 489.519123 
L 202.530882 486.773203 
L 202.530882 474.758035 
L 215.918182 472.579688 
L 215.918182 466.137396 
L 218.426269 463.942262 
L 218.426269 459.478736 
L 219.058641 457.18989 
L 219.058641 443.06123 
L 222.593975 440.73522 
L 222.593975 429.609257 
L 232.799588 427.464967 
L 232.799588 416.66725 
L 235.772807 414.39952 
L 235.772807 407.277278 
L 236.278172 404.811473 
L 236.278172 392.407042 
L 239.133323 390.041335 
L 239.133323 376.489588 
L 246.780655 375.093505 
L 246.780655 371.82268 
L 247.625455 371.040233 
L 247.625455 369.448502 
L 247.625455 369.448502 
L 259.734019 369.448502 
L 259.734019 373.646866 
L 266.548923 374.746366 
L 266.548923 377.117863 
L 266.921371 378.302897 
L 266.921371 381.379187 
L 266.921371 379.314642 
L 269.043998 377.544953 
L 269.043998 355.672288 
L 271.312364 352.006036 
L 271.312364 344.838075 
L 275.529132 341.408455 
L 275.529132 322.17822 
L 285.161102 320.245946 
L 285.161102 313.981629 
L 294.71962 313.424069 
L 294.71962 313.005988 
L 294.71962 313.503386 
L 314.836364 314.085778 
L 314.836364 317.051224 
L 342.090297 318.400544 
L 342.090297 323.208455 
L 342.316525 324.956887 
L 342.316525 332.638587 
L 343.614455 333.55648 
L 343.614455 334.156506 
L 343.614455 327.751889 
L 347.668357 325.494737 
L 347.668357 305.492566 
L 353.921368 302.430829 
L 353.921368 282.72392 
L 360.379035 280.340683 
L 360.379035 268.227047 
L 374.692931 267.234331 
L 374.692931 265.224213 
L 374.692931 265.224213 
L 421.668 265.224213 
L 421.668 266.280574 
L 477.318684 266.962281 
L 477.318684 268.748012 
L 477.451507 269.815189 
L 477.451507 275.934527 
L 478.215523 277.111809 
L 478.215523 280.935354 
L 478.215523 280.57534 
L 480.623263 279.926327 
L 480.623263 270.861634 
L 484.399494 268.655429 
L 484.399494 250.532862 
L 488.376375 247.79993 
L 488.376375 232.315175 
L 497.457093 230.02528 
L 497.457093 218.090917 
L 529.53107 217.106825 
L 529.53107 215.311284 
L 529.53107 215.311284 
L 612.909818 215.421688 
L 612.909818 217.119573 
L 616.277508 218.132896 
L 616.37076 232.691209 
L 616.907527 234.980359 
L 616.907527 248.35124 
L 618.603232 249.390493 
L 618.603232 250.585393 
L 618.603232 248.726674 
L 621.275216 247.666861 
L 621.275216 236.250904 
L 624.105412 234.183384 
L 624.105412 217.759462 
L 630.628694 215.21149 
L 630.628694 197.064384 
L 654.303283 194.53782 
L 654.303283 178.831014 
L 719.70558 177.003627 
L 719.70558 168.427459 
L 809.427273 167.879036 
L 809.427273 167.328144 
L 809.427273 167.328144 
" style="fill:none;stroke:#800000;stroke-linecap:square;stroke-width:1.5;"/>
   </g>
   <g id="line2d_72">
    <path clip-path="url(#pb5ab2e007a)" d="M 149.972727 598.47466 
L 159.298823 598.398813 
L 159.298823 598.14435 
L 163.161818 597.973291 
L 163.161818 597.779999 
L 174.220576 597.569361 
L 174.220576 597.118587 
L 175.952223 596.889865 
L 175.952223 595.89945 
L 184.264364 595.755099 
L 184.264364 595.457255 
L 202.530882 595.466759 
L 202.530882 595.540763 
L 202.530882 595.487445 
L 215.918182 595.360632 
L 215.918182 595.157659 
L 218.426269 595.029243 
L 218.426269 594.727841 
L 219.058641 594.560049 
L 219.058641 593.5342 
L 222.593975 593.390336 
L 222.593975 592.831179 
L 232.799588 592.63606 
L 232.799588 592.026786 
L 235.772807 591.78269 
L 235.772807 590.703998 
L 236.278172 590.204667 
L 236.278172 586.397521 
L 239.133323 585.347039 
L 239.133323 575.479715 
L 246.780655 573.830933 
L 246.780655 568.926738 
L 247.625455 567.384815 
L 247.625455 560.696442 
L 259.734019 560.182068 
L 259.734019 559.780293 
L 259.734019 560.780549 
L 266.548923 561.538464 
L 266.548923 563.630811 
L 266.921371 564.931792 
L 266.921371 574.506371 
L 269.043998 576.015563 
L 269.043998 579.981052 
L 269.043998 577.734311 
L 271.312364 576.310758 
L 271.312364 572.773596 
L 275.529132 570.763385 
L 275.529132 556.743345 
L 285.161102 555.215652 
L 285.161102 550.849706 
L 294.71962 550.708453 
L 294.71962 550.809013 
L 294.71962 552.518163 
L 314.836364 553.443495 
L 314.836364 557.120675 
L 342.090297 558.438297 
L 342.090297 561.619833 
L 342.316525 561.392949 
L 342.316525 548.566208 
L 343.614455 544.239286 
L 343.614455 512.353542 
L 347.668357 506.687619 
L 347.668357 468.563639 
L 353.921368 463.512586 
L 353.921368 432.391223 
L 360.379035 428.674154 
L 360.379035 409.171834 
L 374.692931 407.419519 
L 374.692931 402.869573 
L 421.668 402.869573 
L 421.668 402.869573 
L 421.668 403.657632 
L 477.318684 404.458673 
L 477.318684 406.87107 
L 477.451507 408.447127 
L 477.451507 418.881955 
L 478.215523 421.157276 
L 478.215523 428.029448 
L 478.215523 425.884281 
L 480.623263 423.427895 
L 480.623263 396.398631 
L 484.399494 390.774794 
L 484.399494 351.431261 
L 488.376375 346.231193 
L 488.376375 319.14501 
L 497.457093 315.430924 
L 497.457093 297.03304 
L 529.53107 295.573147 
L 529.53107 292.861671 
L 529.53107 292.861671 
L 612.909818 292.983841 
L 612.909818 295.30643 
L 616.277508 296.734701 
L 616.37076 319.326343 
L 616.907527 323.344569 
L 616.907527 352.61732 
L 618.603232 355.821709 
L 618.603232 361.441072 
L 618.603232 358.33802 
L 621.275216 355.807332 
L 621.275216 328.758815 
L 624.105412 324.315324 
L 624.105412 294.155031 
L 630.628694 290.16261 
L 630.628694 265.516404 
L 654.303283 262.507317 
L 654.303283 245.409326 
L 719.70558 243.56604 
L 719.70558 235.218568 
L 809.427273 234.699939 
L 809.427273 234.180524 
L 809.427273 234.180524 
" style="fill:none;stroke:#990000;stroke-linecap:square;stroke-width:1.5;"/>
   </g>
   <g id="line2d_73">
    <path clip-path="url(#pb5ab2e007a)" d="M 149.972727 577.340827 
L 159.298823 577.259987 
L 159.298823 576.991491 
L 163.161818 576.813478 
L 163.161818 576.614437 
L 174.220576 576.400416 
L 174.220576 575.952921 
L 175.952223 575.731752 
L 175.952223 574.826511 
L 184.264364 574.602353 
L 184.264364 574.465571 
L 197.526671 574.412222 
L 197.526671 574.518901 
L 197.526671 574.667097 
L 202.530882 574.863839 
L 202.530882 575.331508 
L 215.918182 575.552858 
L 215.918182 575.724954 
L 219.058641 575.686701 
L 219.058641 574.716278 
L 222.593975 574.486861 
L 222.593975 573.169228 
L 232.799588 572.876801 
L 232.799588 571.33163 
L 235.772807 571.021051 
L 235.772807 570.162961 
L 236.278172 569.921654 
L 236.278172 569.334088 
L 239.133323 569.334088 
L 239.133323 569.376331 
L 239.133323 570.433773 
L 246.780655 570.782564 
L 246.780655 571.933996 
L 247.625455 572.312598 
L 247.625455 573.746413 
L 259.734019 573.695782 
L 259.734019 572.436383 
L 266.548923 572.257122 
L 266.548923 571.963718 
L 266.921371 571.775013 
L 266.921371 571.680133 
L 266.921371 571.680133 
L 269.043998 571.778933 
L 269.043998 571.914689 
L 275.529132 571.876275 
L 275.529132 571.739446 
L 275.529132 571.739446 
L 285.161102 571.739446 
L 285.161102 571.81253 
L 285.161102 571.948494 
L 294.71962 572.152948 
L 294.71962 572.814969 
L 314.836364 573.036245 
L 314.836364 573.15826 
L 342.090297 572.99407 
L 342.090297 572.669519 
L 342.316525 572.45298 
L 342.316525 570.989988 
L 343.614455 570.65929 
L 343.614455 568.77246 
L 347.668357 568.492602 
L 347.668357 566.735807 
L 353.921368 566.496841 
L 353.921368 564.902897 
L 360.379035 564.706583 
L 360.379035 563.868768 
L 374.692931 563.837437 
L 374.692931 563.949293 
L 421.668 564.100001 
L 421.668 564.277992 
L 477.318684 564.452567 
L 477.318684 564.52909 
L 477.451507 564.677225 
L 477.451507 564.542812 
L 478.215523 564.355296 
L 478.215523 563.638635 
L 480.623263 563.462974 
L 480.623263 562.230095 
L 484.399494 561.993496 
L 484.399494 560.140363 
L 488.376375 559.868464 
L 488.376375 558.481678 
L 497.457093 558.319896 
L 497.457093 557.950552 
L 497.457093 557.950552 
L 529.53107 558.035664 
L 529.53107 558.90501 
L 612.909818 559.198843 
L 612.909818 560.337325 
L 616.277508 560.803393 
L 616.37076 565.862633 
L 616.907527 566.586559 
L 616.907527 570.787004 
L 618.603232 571.123933 
L 618.603232 571.327442 
L 618.603232 569.827567 
L 621.275216 568.932446 
L 621.275216 553.569554 
L 624.105412 549.611434 
L 624.105412 509.281568 
L 630.628694 502.476791 
L 630.628694 456.626181 
L 654.303283 450.803067 
L 654.303283 417.757608 
L 719.70558 414.231519 
L 719.70558 398.417348 
L 809.427273 397.44401 
L 809.427273 396.470116 
L 809.427273 396.470116 
" style="fill:none;stroke:#b20000;stroke-linecap:square;stroke-width:1.5;"/>
   </g>
   <g id="line2d_74">
    <path clip-path="url(#pb5ab2e007a)" d="M 149.972727 553.819783 
L 159.298823 553.68656 
L 174.220576 553.339107 
L 174.220576 553.231261 
L 175.952223 553.116819 
L 175.952223 552.49707 
L 184.264364 552.369205 
L 184.264364 551.97674 
L 196.603205 551.842437 
L 196.603205 551.41558 
L 197.526671 551.261485 
L 197.526671 550.358273 
L 202.530882 550.144678 
L 202.530882 548.911277 
L 215.918182 548.638423 
L 215.918182 547.80836 
L 218.426269 547.539715 
L 218.426269 547.036664 
L 219.058641 546.809777 
L 219.058641 545.997965 
L 222.593975 545.958103 
L 222.593975 546.009969 
L 232.799588 546.164454 
L 232.799588 546.243411 
L 232.799588 546.204975 
L 235.772807 546.040457 
L 235.772807 545.775811 
L 236.278172 545.619351 
L 236.278172 544.952805 
L 239.133323 544.914538 
L 239.133323 545.002232 
L 239.133323 545.617762 
L 246.780655 545.95514 
L 246.780655 547.299611 
L 247.625455 547.830078 
L 247.625455 551.045892 
L 259.734019 551.478253 
L 259.734019 552.961442 
L 266.548923 552.889433 
L 266.548923 552.826221 
L 266.921371 552.681385 
L 266.921371 552.248366 
L 269.043998 552.139497 
L 269.043998 550.829773 
L 271.312364 550.549019 
L 271.312364 549.929517 
L 275.529132 549.600138 
L 275.529132 547.433502 
L 285.161102 547.214561 
L 285.161102 546.736494 
L 294.71962 546.736494 
L 294.71962 546.776306 
L 294.71962 547.353403 
L 314.836364 547.581398 
L 314.836364 548.369442 
L 342.090297 548.642686 
L 342.090297 549.390278 
L 342.316525 549.59553 
L 342.316525 550.150195 
L 343.614455 550.057039 
L 343.614455 549.493733 
L 347.668357 549.33163 
L 347.668357 547.695651 
L 353.921368 547.396531 
L 353.921368 545.244428 
L 360.379035 544.971029 
L 360.379035 543.510959 
L 374.692931 543.35741 
L 374.692931 542.534924 
L 421.668 542.396201 
L 421.668 541.952647 
L 477.318684 541.793506 
L 477.318684 541.460359 
L 477.451507 541.108427 
L 477.451507 540.37963 
L 478.215523 540.198999 
L 478.215523 539.186985 
L 480.623263 539.034506 
L 480.623263 538.223209 
L 484.399494 538.103758 
L 484.399494 537.435276 
L 497.457093 537.349579 
L 497.457093 538.125503 
L 529.53107 538.291475 
L 529.53107 539.263791 
L 612.909818 539.398097 
L 612.909818 539.744559 
L 616.277508 539.945887 
L 616.37076 540.850099 
L 616.907527 541.032587 
L 616.907527 542.45956 
L 618.603232 542.626802 
L 618.603232 543.004423 
L 618.603232 542.952822 
L 621.275216 542.770645 
L 621.275216 542.021509 
L 624.105412 541.828151 
L 624.105412 541.81779 
L 624.105412 541.882363 
L 630.628694 542.052256 
L 630.628694 542.850383 
L 654.303283 543.059007 
L 654.303283 543.167991 
L 654.303283 542.821636 
L 719.70558 542.682485 
L 719.70558 541.699375 
L 809.427273 541.53279 
L 809.427273 541.53279 
" style="fill:none;stroke:#cc0000;stroke-linecap:square;stroke-width:1.5;"/>
   </g>
   <g id="line2d_75">
    <path clip-path="url(#pb5ab2e007a)" d="M 149.972727 530.47901 
L 159.298823 530.47901 
L 159.298823 530.526924 
L 159.298823 530.622689 
L 163.161818 530.763767 
L 163.161818 530.94576 
L 174.220576 531.163928 
L 174.220576 531.687259 
L 175.952223 531.977401 
L 175.952223 533.372324 
L 184.264364 533.576778 
L 184.264364 533.846759 
L 184.264364 533.819657 
L 196.603205 533.68427 
L 196.603205 532.901964 
L 197.526671 532.524266 
L 197.526671 529.97031 
L 202.530882 529.361237 
L 202.530882 526.087113 
L 215.918182 525.416036 
L 215.918182 523.45083 
L 218.426269 522.829949 
L 218.426269 521.671991 
L 219.058641 521.147026 
L 219.058641 519.090969 
L 222.593975 518.903565 
L 222.593975 518.972354 
L 232.799588 519.094072 
L 232.799588 520.330564 
L 235.772807 520.648864 
L 235.772807 521.603678 
L 236.278172 521.903075 
L 236.278172 523.174934 
L 239.133323 523.396216 
L 239.133323 525.121974 
L 246.780655 525.419958 
L 246.780655 526.358515 
L 247.625455 526.671221 
L 247.625455 528.178499 
L 259.734019 528.336207 
L 259.734019 528.714927 
L 259.734019 528.681063 
L 266.548923 528.552308 
L 266.921371 528.430276 
L 266.921371 527.986287 
L 269.043998 527.870505 
L 269.043998 526.784844 
L 271.312364 526.589414 
L 271.312364 526.172827 
L 275.529132 525.95492 
L 275.529132 524.492936 
L 285.161102 524.333076 
L 285.161102 523.862764 
L 294.71962 523.828916 
L 294.71962 523.889744 
L 342.090297 524.067212 
L 342.090297 524.13244 
L 342.316525 524.220457 
L 342.316525 524.31323 
L 343.614455 524.461857 
L 343.614455 525.026138 
L 347.668357 525.23564 
L 347.668357 525.30765 
L 347.668357 524.534878 
L 353.921368 524.196044 
L 353.921368 520.765674 
L 360.379035 520.236559 
L 360.379035 517.47867 
L 374.692931 517.276941 
L 374.692931 516.976255 
L 374.692931 516.976255 
L 421.668 517.087461 
L 421.668 517.328072 
L 477.318684 517.486488 
L 477.318684 517.858159 
L 477.451507 518.064771 
L 477.451507 519.194728 
L 478.215523 519.426321 
L 478.215523 520.695461 
L 480.623263 520.864386 
L 480.623263 521.412618 
L 484.399494 521.324516 
L 484.399494 520.72882 
L 488.376375 520.596831 
L 488.376375 519.546541 
L 497.457093 519.310462 
L 497.457093 517.116109 
L 529.53107 516.766551 
L 529.53107 515.173888 
L 616.277508 515.075871 
L 616.37076 518.001571 
L 616.907527 518.624437 
L 616.907527 522.868534 
L 618.603232 523.294447 
L 618.603232 524.174699 
L 618.603232 524.062003 
L 621.275216 523.893796 
L 621.275216 521.964951 
L 624.105412 521.677121 
L 624.105412 520.115696 
L 630.628694 519.965133 
L 630.628694 519.333343 
L 719.70558 519.249595 
L 719.70558 519.284407 
L 719.70558 519.399299 
L 809.427273 519.45903 
L 809.427273 519.45903 
" style="fill:none;stroke:#e60000;stroke-linecap:square;stroke-width:1.5;"/>
   </g>
   <g id="patch_3">
    <path d="M 117 630 
L 117 86.4 
" style="fill:none;stroke:#000000;stroke-linecap:square;stroke-linejoin:miter;stroke-width:0.8;"/>
   </g>
   <g id="patch_4">
    <path d="M 842.4 630 
L 842.4 86.4 
" style="fill:none;stroke:#000000;stroke-linecap:square;stroke-linejoin:miter;stroke-width:0.8;"/>
   </g>
   <g id="patch_5">
    <path d="M 117 630 
L 842.4 630 
" style="fill:none;stroke:#000000;stroke-linecap:square;stroke-linejoin:miter;stroke-width:0.8;"/>
   </g>
   <g id="patch_6">
    <path d="M 117 86.4 
L 842.4 86.4 
" style="fill:none;stroke:#000000;stroke-linecap:square;stroke-linejoin:miter;stroke-width:0.8;"/>
   </g>
   <g id="text_17">
    <!-- X,Y shift estimation error with regard to learning_rate -->
    <defs>
     <path d="M 6.296875 72.90625 
L 16.890625 72.90625 
L 35.015625 45.796875 
L 53.21875 72.90625 
L 63.8125 72.90625 
L 40.375 37.890625 
L 65.375 0 
L 54.78125 0 
L 34.28125 31 
L 13.625 0 
L 2.984375 0 
L 29 38.921875 
z
" id="DejaVuSans-88"/>
     <path d="M 11.71875 12.40625 
L 22.015625 12.40625 
L 22.015625 4 
L 14.015625 -11.625 
L 7.71875 -11.625 
L 11.71875 4 
z
" id="DejaVuSans-44"/>
     <path d="M -0.203125 72.90625 
L 10.40625 72.90625 
L 30.609375 42.921875 
L 50.6875 72.90625 
L 61.28125 72.90625 
L 35.5 34.71875 
L 35.5 0 
L 25.59375 0 
L 25.59375 34.71875 
z
" id="DejaVuSans-89"/>
     <path d="M 4.203125 54.6875 
L 13.1875 54.6875 
L 24.421875 12.015625 
L 35.59375 54.6875 
L 46.1875 54.6875 
L 57.421875 12.015625 
L 68.609375 54.6875 
L 77.59375 54.6875 
L 63.28125 0 
L 52.6875 0 
L 40.921875 44.828125 
L 29.109375 0 
L 18.5 0 
z
" id="DejaVuSans-119"/>
    </defs>
    <g transform="translate(318.5625 80.4)scale(0.12 -0.12)">
     <use xlink:href="#DejaVuSans-88"/>
     <use x="68.505859" xlink:href="#DejaVuSans-44"/>
     <use x="100.292969" xlink:href="#DejaVuSans-89"/>
     <use x="161.376953" xlink:href="#DejaVuSans-32"/>
     <use x="193.164062" xlink:href="#DejaVuSans-115"/>
     <use x="245.263672" xlink:href="#DejaVuSans-104"/>
     <use x="308.642578" xlink:href="#DejaVuSans-105"/>
     <use x="336.425781" xlink:href="#DejaVuSans-102"/>
     <use x="371.615234" xlink:href="#DejaVuSans-116"/>
     <use x="410.824219" xlink:href="#DejaVuSans-32"/>
     <use x="442.611328" xlink:href="#DejaVuSans-101"/>
     <use x="504.134766" xlink:href="#DejaVuSans-115"/>
     <use x="556.234375" xlink:href="#DejaVuSans-116"/>
     <use x="595.443359" xlink:href="#DejaVuSans-105"/>
     <use x="623.226562" xlink:href="#DejaVuSans-109"/>
     <use x="720.638672" xlink:href="#DejaVuSans-97"/>
     <use x="781.917969" xlink:href="#DejaVuSans-116"/>
     <use x="821.126953" xlink:href="#DejaVuSans-105"/>
     <use x="848.910156" xlink:href="#DejaVuSans-111"/>
     <use x="910.091797" xlink:href="#DejaVuSans-110"/>
     <use x="973.470703" xlink:href="#DejaVuSans-32"/>
     <use x="1005.257812" xlink:href="#DejaVuSans-101"/>
     <use x="1066.78125" xlink:href="#DejaVuSans-114"/>
     <use x="1107.878906" xlink:href="#DejaVuSans-114"/>
     <use x="1148.960938" xlink:href="#DejaVuSans-111"/>
     <use x="1210.142578" xlink:href="#DejaVuSans-114"/>
     <use x="1251.255859" xlink:href="#DejaVuSans-32"/>
     <use x="1283.042969" xlink:href="#DejaVuSans-119"/>
     <use x="1364.830078" xlink:href="#DejaVuSans-105"/>
     <use x="1392.613281" xlink:href="#DejaVuSans-116"/>
     <use x="1431.822266" xlink:href="#DejaVuSans-104"/>
     <use x="1495.201172" xlink:href="#DejaVuSans-32"/>
     <use x="1526.988281" xlink:href="#DejaVuSans-114"/>
     <use x="1568.070312" xlink:href="#DejaVuSans-101"/>
     <use x="1629.59375" xlink:href="#DejaVuSans-103"/>
     <use x="1693.070312" xlink:href="#DejaVuSans-97"/>
     <use x="1754.349609" xlink:href="#DejaVuSans-114"/>
     <use x="1795.447266" xlink:href="#DejaVuSans-100"/>
     <use x="1858.923828" xlink:href="#DejaVuSans-32"/>
     <use x="1890.710938" xlink:href="#DejaVuSans-116"/>
     <use x="1929.919922" xlink:href="#DejaVuSans-111"/>
     <use x="1991.101562" xlink:href="#DejaVuSans-32"/>
     <use x="2022.888672" xlink:href="#DejaVuSans-108"/>
     <use x="2050.671875" xlink:href="#DejaVuSans-101"/>
     <use x="2112.195312" xlink:href="#DejaVuSans-97"/>
     <use x="2173.474609" xlink:href="#DejaVuSans-114"/>
     <use x="2214.572266" xlink:href="#DejaVuSans-110"/>
     <use x="2277.951172" xlink:href="#DejaVuSans-105"/>
     <use x="2305.734375" xlink:href="#DejaVuSans-110"/>
     <use x="2369.113281" xlink:href="#DejaVuSans-103"/>
     <use x="2432.589844" xlink:href="#DejaVuSans-95"/>
     <use x="2482.589844" xlink:href="#DejaVuSans-114"/>
     <use x="2523.703125" xlink:href="#DejaVuSans-97"/>
     <use x="2584.982422" xlink:href="#DejaVuSans-116"/>
     <use x="2624.191406" xlink:href="#DejaVuSans-101"/>
    </g>
   </g>
   <g id="legend_1">
    <g id="patch_7">
     <path d="M 124 299.89375 
L 192.460938 299.89375 
Q 194.460938 299.89375 194.460938 297.89375 
L 194.460938 93.4 
Q 194.460938 91.4 192.460938 91.4 
L 124 91.4 
Q 122 91.4 122 93.4 
L 122 297.89375 
Q 122 299.89375 124 299.89375 
z
" style="fill:#ffffff;opacity:0.8;stroke:#cccccc;stroke-linejoin:miter;"/>
    </g>
    <g id="text_18">
     <!-- learning rate -->
     <g transform="translate(126 102.998438)scale(0.1 -0.1)">
      <use xlink:href="#DejaVuSans-108"/>
      <use x="27.783203" xlink:href="#DejaVuSans-101"/>
      <use x="89.306641" xlink:href="#DejaVuSans-97"/>
      <use x="150.585938" xlink:href="#DejaVuSans-114"/>
      <use x="191.683594" xlink:href="#DejaVuSans-110"/>
      <use x="255.0625" xlink:href="#DejaVuSans-105"/>
      <use x="282.845703" xlink:href="#DejaVuSans-110"/>
      <use x="346.224609" xlink:href="#DejaVuSans-103"/>
      <use x="409.701172" xlink:href="#DejaVuSans-32"/>
      <use x="441.488281" xlink:href="#DejaVuSans-114"/>
      <use x="482.601562" xlink:href="#DejaVuSans-97"/>
      <use x="543.880859" xlink:href="#DejaVuSans-116"/>
      <use x="583.089844" xlink:href="#DejaVuSans-101"/>
     </g>
    </g>
    <g id="line2d_76">
     <path d="M 129.916406 114.176563 
L 149.916406 114.176563 
" style="fill:none;stroke:#000000;stroke-linecap:square;stroke-width:1.5;"/>
    </g>
    <g id="line2d_77"/>
    <g id="text_19">
     <!-- 0.001 -->
     <defs>
      <path d="M 10.6875 12.40625 
L 21 12.40625 
L 21 0 
L 10.6875 0 
z
" id="DejaVuSans-46"/>
     </defs>
     <g transform="translate(157.916406 117.676563)scale(0.1 -0.1)">
      <use xlink:href="#DejaVuSans-48"/>
      <use x="63.623047" xlink:href="#DejaVuSans-46"/>
      <use x="95.410156" xlink:href="#DejaVuSans-48"/>
      <use x="159.033203" xlink:href="#DejaVuSans-48"/>
      <use x="222.65625" xlink:href="#DejaVuSans-49"/>
     </g>
    </g>
    <g id="line2d_78">
     <path d="M 129.916406 128.854688 
L 149.916406 128.854688 
" style="fill:none;stroke:#010000;stroke-linecap:square;stroke-width:1.5;"/>
    </g>
    <g id="line2d_79"/>
    <g id="text_20">
     <!-- 0.005 -->
     <g transform="translate(157.916406 132.354688)scale(0.1 -0.1)">
      <use xlink:href="#DejaVuSans-48"/>
      <use x="63.623047" xlink:href="#DejaVuSans-46"/>
      <use x="95.410156" xlink:href="#DejaVuSans-48"/>
      <use x="159.033203" xlink:href="#DejaVuSans-48"/>
      <use x="222.65625" xlink:href="#DejaVuSans-53"/>
     </g>
    </g>
    <g id="line2d_80">
     <path d="M 129.916406 143.532813 
L 149.916406 143.532813 
" style="fill:none;stroke:#030000;stroke-linecap:square;stroke-width:1.5;"/>
    </g>
    <g id="line2d_81"/>
    <g id="text_21">
     <!-- 0.01 -->
     <g transform="translate(157.916406 147.032813)scale(0.1 -0.1)">
      <use xlink:href="#DejaVuSans-48"/>
      <use x="63.623047" xlink:href="#DejaVuSans-46"/>
      <use x="95.410156" xlink:href="#DejaVuSans-48"/>
      <use x="159.033203" xlink:href="#DejaVuSans-49"/>
     </g>
    </g>
    <g id="line2d_82">
     <path d="M 129.916406 158.210938 
L 149.916406 158.210938 
" style="fill:none;stroke:#0d0000;stroke-linecap:square;stroke-width:1.5;"/>
    </g>
    <g id="line2d_83"/>
    <g id="text_22">
     <!-- 0.05 -->
     <g transform="translate(157.916406 161.710938)scale(0.1 -0.1)">
      <use xlink:href="#DejaVuSans-48"/>
      <use x="63.623047" xlink:href="#DejaVuSans-46"/>
      <use x="95.410156" xlink:href="#DejaVuSans-48"/>
      <use x="159.033203" xlink:href="#DejaVuSans-53"/>
     </g>
    </g>
    <g id="line2d_84">
     <path d="M 129.916406 172.889063 
L 149.916406 172.889063 
" style="fill:none;stroke:#1a0000;stroke-linecap:square;stroke-width:1.5;"/>
    </g>
    <g id="line2d_85"/>
    <g id="text_23">
     <!-- 0.1 -->
     <g transform="translate(157.916406 176.389063)scale(0.1 -0.1)">
      <use xlink:href="#DejaVuSans-48"/>
      <use x="63.623047" xlink:href="#DejaVuSans-46"/>
      <use x="95.410156" xlink:href="#DejaVuSans-49"/>
     </g>
    </g>
    <g id="line2d_86">
     <path d="M 129.916406 187.567188 
L 149.916406 187.567188 
" style="fill:none;stroke:#330000;stroke-linecap:square;stroke-width:1.5;"/>
    </g>
    <g id="line2d_87"/>
    <g id="text_24">
     <!-- 0.2 -->
     <g transform="translate(157.916406 191.067188)scale(0.1 -0.1)">
      <use xlink:href="#DejaVuSans-48"/>
      <use x="63.623047" xlink:href="#DejaVuSans-46"/>
      <use x="95.410156" xlink:href="#DejaVuSans-50"/>
     </g>
    </g>
    <g id="line2d_88">
     <path d="M 129.916406 202.245313 
L 149.916406 202.245313 
" style="fill:none;stroke:#4c0000;stroke-linecap:square;stroke-width:1.5;"/>
    </g>
    <g id="line2d_89"/>
    <g id="text_25">
     <!-- 0.3 -->
     <g transform="translate(157.916406 205.745313)scale(0.1 -0.1)">
      <use xlink:href="#DejaVuSans-48"/>
      <use x="63.623047" xlink:href="#DejaVuSans-46"/>
      <use x="95.410156" xlink:href="#DejaVuSans-51"/>
     </g>
    </g>
    <g id="line2d_90">
     <path d="M 129.916406 216.923438 
L 149.916406 216.923438 
" style="fill:none;stroke:#660000;stroke-linecap:square;stroke-width:1.5;"/>
    </g>
    <g id="line2d_91"/>
    <g id="text_26">
     <!-- 0.4 -->
     <g transform="translate(157.916406 220.423438)scale(0.1 -0.1)">
      <use xlink:href="#DejaVuSans-48"/>
      <use x="63.623047" xlink:href="#DejaVuSans-46"/>
      <use x="95.410156" xlink:href="#DejaVuSans-52"/>
     </g>
    </g>
    <g id="line2d_92">
     <path d="M 129.916406 231.601563 
L 149.916406 231.601563 
" style="fill:none;stroke:#800000;stroke-linecap:square;stroke-width:1.5;"/>
    </g>
    <g id="line2d_93"/>
    <g id="text_27">
     <!-- 0.5 -->
     <g transform="translate(157.916406 235.101563)scale(0.1 -0.1)">
      <use xlink:href="#DejaVuSans-48"/>
      <use x="63.623047" xlink:href="#DejaVuSans-46"/>
      <use x="95.410156" xlink:href="#DejaVuSans-53"/>
     </g>
    </g>
    <g id="line2d_94">
     <path d="M 129.916406 246.279688 
L 149.916406 246.279688 
" style="fill:none;stroke:#990000;stroke-linecap:square;stroke-width:1.5;"/>
    </g>
    <g id="line2d_95"/>
    <g id="text_28">
     <!-- 0.6 -->
     <g transform="translate(157.916406 249.779688)scale(0.1 -0.1)">
      <use xlink:href="#DejaVuSans-48"/>
      <use x="63.623047" xlink:href="#DejaVuSans-46"/>
      <use x="95.410156" xlink:href="#DejaVuSans-54"/>
     </g>
    </g>
    <g id="line2d_96">
     <path d="M 129.916406 260.957813 
L 149.916406 260.957813 
" style="fill:none;stroke:#b20000;stroke-linecap:square;stroke-width:1.5;"/>
    </g>
    <g id="line2d_97"/>
    <g id="text_29">
     <!-- 0.7 -->
     <g transform="translate(157.916406 264.457813)scale(0.1 -0.1)">
      <use xlink:href="#DejaVuSans-48"/>
      <use x="63.623047" xlink:href="#DejaVuSans-46"/>
      <use x="95.410156" xlink:href="#DejaVuSans-55"/>
     </g>
    </g>
    <g id="line2d_98">
     <path d="M 129.916406 275.635938 
L 149.916406 275.635938 
" style="fill:none;stroke:#cc0000;stroke-linecap:square;stroke-width:1.5;"/>
    </g>
    <g id="line2d_99"/>
    <g id="text_30">
     <!-- 0.8 -->
     <defs>
      <path d="M 31.78125 34.625 
Q 24.75 34.625 20.71875 30.859375 
Q 16.703125 27.09375 16.703125 20.515625 
Q 16.703125 13.921875 20.71875 10.15625 
Q 24.75 6.390625 31.78125 6.390625 
Q 38.8125 6.390625 42.859375 10.171875 
Q 46.921875 13.96875 46.921875 20.515625 
Q 46.921875 27.09375 42.890625 30.859375 
Q 38.875 34.625 31.78125 34.625 
z
M 21.921875 38.8125 
Q 15.578125 40.375 12.03125 44.71875 
Q 8.5 49.078125 8.5 55.328125 
Q 8.5 64.0625 14.71875 69.140625 
Q 20.953125 74.21875 31.78125 74.21875 
Q 42.671875 74.21875 48.875 69.140625 
Q 55.078125 64.0625 55.078125 55.328125 
Q 55.078125 49.078125 51.53125 44.71875 
Q 48 40.375 41.703125 38.8125 
Q 48.828125 37.15625 52.796875 32.3125 
Q 56.78125 27.484375 56.78125 20.515625 
Q 56.78125 9.90625 50.3125 4.234375 
Q 43.84375 -1.421875 31.78125 -1.421875 
Q 19.734375 -1.421875 13.25 4.234375 
Q 6.78125 9.90625 6.78125 20.515625 
Q 6.78125 27.484375 10.78125 32.3125 
Q 14.796875 37.15625 21.921875 38.8125 
z
M 18.3125 54.390625 
Q 18.3125 48.734375 21.84375 45.5625 
Q 25.390625 42.390625 31.78125 42.390625 
Q 38.140625 42.390625 41.71875 45.5625 
Q 45.3125 48.734375 45.3125 54.390625 
Q 45.3125 60.0625 41.71875 63.234375 
Q 38.140625 66.40625 31.78125 66.40625 
Q 25.390625 66.40625 21.84375 63.234375 
Q 18.3125 60.0625 18.3125 54.390625 
z
" id="DejaVuSans-56"/>
     </defs>
     <g transform="translate(157.916406 279.135938)scale(0.1 -0.1)">
      <use xlink:href="#DejaVuSans-48"/>
      <use x="63.623047" xlink:href="#DejaVuSans-46"/>
      <use x="95.410156" xlink:href="#DejaVuSans-56"/>
     </g>
    </g>
    <g id="line2d_100">
     <path d="M 129.916406 290.314062 
L 149.916406 290.314062 
" style="fill:none;stroke:#e60000;stroke-linecap:square;stroke-width:1.5;"/>
    </g>
    <g id="line2d_101"/>
    <g id="text_31">
     <!-- 0.9 -->
     <defs>
      <path d="M 10.984375 1.515625 
L 10.984375 10.5 
Q 14.703125 8.734375 18.5 7.8125 
Q 22.3125 6.890625 25.984375 6.890625 
Q 35.75 6.890625 40.890625 13.453125 
Q 46.046875 20.015625 46.78125 33.40625 
Q 43.953125 29.203125 39.59375 26.953125 
Q 35.25 24.703125 29.984375 24.703125 
Q 19.046875 24.703125 12.671875 31.3125 
Q 6.296875 37.9375 6.296875 49.421875 
Q 6.296875 60.640625 12.9375 67.421875 
Q 19.578125 74.21875 30.609375 74.21875 
Q 43.265625 74.21875 49.921875 64.515625 
Q 56.59375 54.828125 56.59375 36.375 
Q 56.59375 19.140625 48.40625 8.859375 
Q 40.234375 -1.421875 26.421875 -1.421875 
Q 22.703125 -1.421875 18.890625 -0.6875 
Q 15.09375 0.046875 10.984375 1.515625 
z
M 30.609375 32.421875 
Q 37.25 32.421875 41.125 36.953125 
Q 45.015625 41.5 45.015625 49.421875 
Q 45.015625 57.28125 41.125 61.84375 
Q 37.25 66.40625 30.609375 66.40625 
Q 23.96875 66.40625 20.09375 61.84375 
Q 16.21875 57.28125 16.21875 49.421875 
Q 16.21875 41.5 20.09375 36.953125 
Q 23.96875 32.421875 30.609375 32.421875 
z
" id="DejaVuSans-57"/>
     </defs>
     <g transform="translate(157.916406 293.814062)scale(0.1 -0.1)">
      <use xlink:href="#DejaVuSans-48"/>
      <use x="63.623047" xlink:href="#DejaVuSans-46"/>
      <use x="95.410156" xlink:href="#DejaVuSans-57"/>
     </g>
    </g>
   </g>
  </g>
 </g>
 <defs>
  <clipPath id="pb5ab2e007a">
   <rect height="543.6" width="725.4" x="117" y="86.4"/>
  </clipPath>
 </defs>
</svg>
