<?xml version="1.0" encoding="utf-8" standalone="no"?>
<!DOCTYPE svg PUBLIC "-//W3C//DTD SVG 1.1//EN"
  "http://www.w3.org/Graphics/SVG/1.1/DTD/svg11.dtd">
<!-- Created with matplotlib (https://matplotlib.org/) -->
<svg height="720pt" version="1.1" viewBox="0 0 936 720" width="936pt" xmlns="http://www.w3.org/2000/svg" xmlns:xlink="http://www.w3.org/1999/xlink">
 <defs>
  <style type="text/css">
*{stroke-linecap:butt;stroke-linejoin:round;}
  </style>
 </defs>
 <g id="figure_1">
  <g id="patch_1">
   <path d="M 0 720 
L 936 720 
L 936 0 
L 0 0 
z
" style="fill:#ffffff;"/>
  </g>
  <g id="axes_1">
   <g id="patch_2">
    <path d="M 117 630 
L 842.4 630 
L 842.4 86.4 
L 117 86.4 
z
" style="fill:#ffffff;"/>
   </g>
   <g id="matplotlib.axis_1">
    <g id="xtick_1">
     <g id="line2d_1">
      <defs>
       <path d="M 0 0 
L 0 3.5 
" id="m80cbdf1ed5" style="stroke:#000000;stroke-width:0.8;"/>
      </defs>
      <g>
       <use style="stroke:#000000;stroke-width:0.8;" x="149.972727" xlink:href="#m80cbdf1ed5" y="630"/>
      </g>
     </g>
     <g id="text_1">
      <!-- 0 -->
      <defs>
       <path d="M 31.78125 66.40625 
Q 24.171875 66.40625 20.328125 58.90625 
Q 16.5 51.421875 16.5 36.375 
Q 16.5 21.390625 20.328125 13.890625 
Q 24.171875 6.390625 31.78125 6.390625 
Q 39.453125 6.390625 43.28125 13.890625 
Q 47.125 21.390625 47.125 36.375 
Q 47.125 51.421875 43.28125 58.90625 
Q 39.453125 66.40625 31.78125 66.40625 
z
M 31.78125 74.21875 
Q 44.046875 74.21875 50.515625 64.515625 
Q 56.984375 54.828125 56.984375 36.375 
Q 56.984375 17.96875 50.515625 8.265625 
Q 44.046875 -1.421875 31.78125 -1.421875 
Q 19.53125 -1.421875 13.0625 8.265625 
Q 6.59375 17.96875 6.59375 36.375 
Q 6.59375 54.828125 13.0625 64.515625 
Q 19.53125 74.21875 31.78125 74.21875 
z
" id="DejaVuSans-48"/>
      </defs>
      <g transform="translate(146.791477 644.598438)scale(0.1 -0.1)">
       <use xlink:href="#DejaVuSans-48"/>
      </g>
     </g>
    </g>
    <g id="xtick_2">
     <g id="line2d_2">
      <g>
       <use style="stroke:#000000;stroke-width:0.8;" x="243.233683" xlink:href="#m80cbdf1ed5" y="630"/>
      </g>
     </g>
     <g id="text_2">
      <!-- 10 -->
      <defs>
       <path d="M 12.40625 8.296875 
L 28.515625 8.296875 
L 28.515625 63.921875 
L 10.984375 60.40625 
L 10.984375 69.390625 
L 28.421875 72.90625 
L 38.28125 72.90625 
L 38.28125 8.296875 
L 54.390625 8.296875 
L 54.390625 0 
L 12.40625 0 
z
" id="DejaVuSans-49"/>
      </defs>
      <g transform="translate(236.871183 644.598438)scale(0.1 -0.1)">
       <use xlink:href="#DejaVuSans-49"/>
       <use x="63.623047" xlink:href="#DejaVuSans-48"/>
      </g>
     </g>
    </g>
    <g id="xtick_3">
     <g id="line2d_3">
      <g>
       <use style="stroke:#000000;stroke-width:0.8;" x="336.49464" xlink:href="#m80cbdf1ed5" y="630"/>
      </g>
     </g>
     <g id="text_3">
      <!-- 20 -->
      <defs>
       <path d="M 19.1875 8.296875 
L 53.609375 8.296875 
L 53.609375 0 
L 7.328125 0 
L 7.328125 8.296875 
Q 12.9375 14.109375 22.625 23.890625 
Q 32.328125 33.6875 34.8125 36.53125 
Q 39.546875 41.84375 41.421875 45.53125 
Q 43.3125 49.21875 43.3125 52.78125 
Q 43.3125 58.59375 39.234375 62.25 
Q 35.15625 65.921875 28.609375 65.921875 
Q 23.96875 65.921875 18.8125 64.3125 
Q 13.671875 62.703125 7.8125 59.421875 
L 7.8125 69.390625 
Q 13.765625 71.78125 18.9375 73 
Q 24.125 74.21875 28.421875 74.21875 
Q 39.75 74.21875 46.484375 68.546875 
Q 53.21875 62.890625 53.21875 53.421875 
Q 53.21875 48.921875 51.53125 44.890625 
Q 49.859375 40.875 45.40625 35.40625 
Q 44.1875 33.984375 37.640625 27.21875 
Q 31.109375 20.453125 19.1875 8.296875 
z
" id="DejaVuSans-50"/>
      </defs>
      <g transform="translate(330.13214 644.598438)scale(0.1 -0.1)">
       <use xlink:href="#DejaVuSans-50"/>
       <use x="63.623047" xlink:href="#DejaVuSans-48"/>
      </g>
     </g>
    </g>
    <g id="xtick_4">
     <g id="line2d_4">
      <g>
       <use style="stroke:#000000;stroke-width:0.8;" x="429.755596" xlink:href="#m80cbdf1ed5" y="630"/>
      </g>
     </g>
     <g id="text_4">
      <!-- 30 -->
      <defs>
       <path d="M 40.578125 39.3125 
Q 47.65625 37.796875 51.625 33 
Q 55.609375 28.21875 55.609375 21.1875 
Q 55.609375 10.40625 48.1875 4.484375 
Q 40.765625 -1.421875 27.09375 -1.421875 
Q 22.515625 -1.421875 17.65625 -0.515625 
Q 12.796875 0.390625 7.625 2.203125 
L 7.625 11.71875 
Q 11.71875 9.328125 16.59375 8.109375 
Q 21.484375 6.890625 26.8125 6.890625 
Q 36.078125 6.890625 40.9375 10.546875 
Q 45.796875 14.203125 45.796875 21.1875 
Q 45.796875 27.640625 41.28125 31.265625 
Q 36.765625 34.90625 28.71875 34.90625 
L 20.21875 34.90625 
L 20.21875 43.015625 
L 29.109375 43.015625 
Q 36.375 43.015625 40.234375 45.921875 
Q 44.09375 48.828125 44.09375 54.296875 
Q 44.09375 59.90625 40.109375 62.90625 
Q 36.140625 65.921875 28.71875 65.921875 
Q 24.65625 65.921875 20.015625 65.03125 
Q 15.375 64.15625 9.8125 62.3125 
L 9.8125 71.09375 
Q 15.4375 72.65625 20.34375 73.4375 
Q 25.25 74.21875 29.59375 74.21875 
Q 40.828125 74.21875 47.359375 69.109375 
Q 53.90625 64.015625 53.90625 55.328125 
Q 53.90625 49.265625 50.4375 45.09375 
Q 46.96875 40.921875 40.578125 39.3125 
z
" id="DejaVuSans-51"/>
      </defs>
      <g transform="translate(423.393096 644.598438)scale(0.1 -0.1)">
       <use xlink:href="#DejaVuSans-51"/>
       <use x="63.623047" xlink:href="#DejaVuSans-48"/>
      </g>
     </g>
    </g>
    <g id="xtick_5">
     <g id="line2d_5">
      <g>
       <use style="stroke:#000000;stroke-width:0.8;" x="523.016552" xlink:href="#m80cbdf1ed5" y="630"/>
      </g>
     </g>
     <g id="text_5">
      <!-- 40 -->
      <defs>
       <path d="M 37.796875 64.3125 
L 12.890625 25.390625 
L 37.796875 25.390625 
z
M 35.203125 72.90625 
L 47.609375 72.90625 
L 47.609375 25.390625 
L 58.015625 25.390625 
L 58.015625 17.1875 
L 47.609375 17.1875 
L 47.609375 0 
L 37.796875 0 
L 37.796875 17.1875 
L 4.890625 17.1875 
L 4.890625 26.703125 
z
" id="DejaVuSans-52"/>
      </defs>
      <g transform="translate(516.654052 644.598438)scale(0.1 -0.1)">
       <use xlink:href="#DejaVuSans-52"/>
       <use x="63.623047" xlink:href="#DejaVuSans-48"/>
      </g>
     </g>
    </g>
    <g id="xtick_6">
     <g id="line2d_6">
      <g>
       <use style="stroke:#000000;stroke-width:0.8;" x="616.277508" xlink:href="#m80cbdf1ed5" y="630"/>
      </g>
     </g>
     <g id="text_6">
      <!-- 50 -->
      <defs>
       <path d="M 10.796875 72.90625 
L 49.515625 72.90625 
L 49.515625 64.59375 
L 19.828125 64.59375 
L 19.828125 46.734375 
Q 21.96875 47.46875 24.109375 47.828125 
Q 26.265625 48.1875 28.421875 48.1875 
Q 40.625 48.1875 47.75 41.5 
Q 54.890625 34.8125 54.890625 23.390625 
Q 54.890625 11.625 47.5625 5.09375 
Q 40.234375 -1.421875 26.90625 -1.421875 
Q 22.3125 -1.421875 17.546875 -0.640625 
Q 12.796875 0.140625 7.71875 1.703125 
L 7.71875 11.625 
Q 12.109375 9.234375 16.796875 8.0625 
Q 21.484375 6.890625 26.703125 6.890625 
Q 35.15625 6.890625 40.078125 11.328125 
Q 45.015625 15.765625 45.015625 23.390625 
Q 45.015625 31 40.078125 35.4375 
Q 35.15625 39.890625 26.703125 39.890625 
Q 22.75 39.890625 18.8125 39.015625 
Q 14.890625 38.140625 10.796875 36.28125 
z
" id="DejaVuSans-53"/>
      </defs>
      <g transform="translate(609.915008 644.598438)scale(0.1 -0.1)">
       <use xlink:href="#DejaVuSans-53"/>
       <use x="63.623047" xlink:href="#DejaVuSans-48"/>
      </g>
     </g>
    </g>
    <g id="xtick_7">
     <g id="line2d_7">
      <g>
       <use style="stroke:#000000;stroke-width:0.8;" x="709.538464" xlink:href="#m80cbdf1ed5" y="630"/>
      </g>
     </g>
     <g id="text_7">
      <!-- 60 -->
      <defs>
       <path d="M 33.015625 40.375 
Q 26.375 40.375 22.484375 35.828125 
Q 18.609375 31.296875 18.609375 23.390625 
Q 18.609375 15.53125 22.484375 10.953125 
Q 26.375 6.390625 33.015625 6.390625 
Q 39.65625 6.390625 43.53125 10.953125 
Q 47.40625 15.53125 47.40625 23.390625 
Q 47.40625 31.296875 43.53125 35.828125 
Q 39.65625 40.375 33.015625 40.375 
z
M 52.59375 71.296875 
L 52.59375 62.3125 
Q 48.875 64.0625 45.09375 64.984375 
Q 41.3125 65.921875 37.59375 65.921875 
Q 27.828125 65.921875 22.671875 59.328125 
Q 17.53125 52.734375 16.796875 39.40625 
Q 19.671875 43.65625 24.015625 45.921875 
Q 28.375 48.1875 33.59375 48.1875 
Q 44.578125 48.1875 50.953125 41.515625 
Q 57.328125 34.859375 57.328125 23.390625 
Q 57.328125 12.15625 50.6875 5.359375 
Q 44.046875 -1.421875 33.015625 -1.421875 
Q 20.359375 -1.421875 13.671875 8.265625 
Q 6.984375 17.96875 6.984375 36.375 
Q 6.984375 53.65625 15.1875 63.9375 
Q 23.390625 74.21875 37.203125 74.21875 
Q 40.921875 74.21875 44.703125 73.484375 
Q 48.484375 72.75 52.59375 71.296875 
z
" id="DejaVuSans-54"/>
      </defs>
      <g transform="translate(703.175964 644.598438)scale(0.1 -0.1)">
       <use xlink:href="#DejaVuSans-54"/>
       <use x="63.623047" xlink:href="#DejaVuSans-48"/>
      </g>
     </g>
    </g>
    <g id="xtick_8">
     <g id="line2d_8">
      <g>
       <use style="stroke:#000000;stroke-width:0.8;" x="802.799421" xlink:href="#m80cbdf1ed5" y="630"/>
      </g>
     </g>
     <g id="text_8">
      <!-- 70 -->
      <defs>
       <path d="M 8.203125 72.90625 
L 55.078125 72.90625 
L 55.078125 68.703125 
L 28.609375 0 
L 18.3125 0 
L 43.21875 64.59375 
L 8.203125 64.59375 
z
" id="DejaVuSans-55"/>
      </defs>
      <g transform="translate(796.436921 644.598438)scale(0.1 -0.1)">
       <use xlink:href="#DejaVuSans-55"/>
       <use x="63.623047" xlink:href="#DejaVuSans-48"/>
      </g>
     </g>
    </g>
    <g id="text_9">
     <!-- norm distance -&gt; sqrt(x^2 + y^2) -->
     <defs>
      <path d="M 54.890625 33.015625 
L 54.890625 0 
L 45.90625 0 
L 45.90625 32.71875 
Q 45.90625 40.484375 42.875 44.328125 
Q 39.84375 48.1875 33.796875 48.1875 
Q 26.515625 48.1875 22.3125 43.546875 
Q 18.109375 38.921875 18.109375 30.90625 
L 18.109375 0 
L 9.078125 0 
L 9.078125 54.6875 
L 18.109375 54.6875 
L 18.109375 46.1875 
Q 21.34375 51.125 25.703125 53.5625 
Q 30.078125 56 35.796875 56 
Q 45.21875 56 50.046875 50.171875 
Q 54.890625 44.34375 54.890625 33.015625 
z
" id="DejaVuSans-110"/>
      <path d="M 30.609375 48.390625 
Q 23.390625 48.390625 19.1875 42.75 
Q 14.984375 37.109375 14.984375 27.296875 
Q 14.984375 17.484375 19.15625 11.84375 
Q 23.34375 6.203125 30.609375 6.203125 
Q 37.796875 6.203125 41.984375 11.859375 
Q 46.1875 17.53125 46.1875 27.296875 
Q 46.1875 37.015625 41.984375 42.703125 
Q 37.796875 48.390625 30.609375 48.390625 
z
M 30.609375 56 
Q 42.328125 56 49.015625 48.375 
Q 55.71875 40.765625 55.71875 27.296875 
Q 55.71875 13.875 49.015625 6.21875 
Q 42.328125 -1.421875 30.609375 -1.421875 
Q 18.84375 -1.421875 12.171875 6.21875 
Q 5.515625 13.875 5.515625 27.296875 
Q 5.515625 40.765625 12.171875 48.375 
Q 18.84375 56 30.609375 56 
z
" id="DejaVuSans-111"/>
      <path d="M 41.109375 46.296875 
Q 39.59375 47.171875 37.8125 47.578125 
Q 36.03125 48 33.890625 48 
Q 26.265625 48 22.1875 43.046875 
Q 18.109375 38.09375 18.109375 28.8125 
L 18.109375 0 
L 9.078125 0 
L 9.078125 54.6875 
L 18.109375 54.6875 
L 18.109375 46.1875 
Q 20.953125 51.171875 25.484375 53.578125 
Q 30.03125 56 36.53125 56 
Q 37.453125 56 38.578125 55.875 
Q 39.703125 55.765625 41.0625 55.515625 
z
" id="DejaVuSans-114"/>
      <path d="M 52 44.1875 
Q 55.375 50.25 60.0625 53.125 
Q 64.75 56 71.09375 56 
Q 79.640625 56 84.28125 50.015625 
Q 88.921875 44.046875 88.921875 33.015625 
L 88.921875 0 
L 79.890625 0 
L 79.890625 32.71875 
Q 79.890625 40.578125 77.09375 44.375 
Q 74.3125 48.1875 68.609375 48.1875 
Q 61.625 48.1875 57.5625 43.546875 
Q 53.515625 38.921875 53.515625 30.90625 
L 53.515625 0 
L 44.484375 0 
L 44.484375 32.71875 
Q 44.484375 40.625 41.703125 44.40625 
Q 38.921875 48.1875 33.109375 48.1875 
Q 26.21875 48.1875 22.15625 43.53125 
Q 18.109375 38.875 18.109375 30.90625 
L 18.109375 0 
L 9.078125 0 
L 9.078125 54.6875 
L 18.109375 54.6875 
L 18.109375 46.1875 
Q 21.1875 51.21875 25.484375 53.609375 
Q 29.78125 56 35.6875 56 
Q 41.65625 56 45.828125 52.96875 
Q 50 49.953125 52 44.1875 
z
" id="DejaVuSans-109"/>
      <path id="DejaVuSans-32"/>
      <path d="M 45.40625 46.390625 
L 45.40625 75.984375 
L 54.390625 75.984375 
L 54.390625 0 
L 45.40625 0 
L 45.40625 8.203125 
Q 42.578125 3.328125 38.25 0.953125 
Q 33.9375 -1.421875 27.875 -1.421875 
Q 17.96875 -1.421875 11.734375 6.484375 
Q 5.515625 14.40625 5.515625 27.296875 
Q 5.515625 40.1875 11.734375 48.09375 
Q 17.96875 56 27.875 56 
Q 33.9375 56 38.25 53.625 
Q 42.578125 51.265625 45.40625 46.390625 
z
M 14.796875 27.296875 
Q 14.796875 17.390625 18.875 11.75 
Q 22.953125 6.109375 30.078125 6.109375 
Q 37.203125 6.109375 41.296875 11.75 
Q 45.40625 17.390625 45.40625 27.296875 
Q 45.40625 37.203125 41.296875 42.84375 
Q 37.203125 48.484375 30.078125 48.484375 
Q 22.953125 48.484375 18.875 42.84375 
Q 14.796875 37.203125 14.796875 27.296875 
z
" id="DejaVuSans-100"/>
      <path d="M 9.421875 54.6875 
L 18.40625 54.6875 
L 18.40625 0 
L 9.421875 0 
z
M 9.421875 75.984375 
L 18.40625 75.984375 
L 18.40625 64.59375 
L 9.421875 64.59375 
z
" id="DejaVuSans-105"/>
      <path d="M 44.28125 53.078125 
L 44.28125 44.578125 
Q 40.484375 46.53125 36.375 47.5 
Q 32.28125 48.484375 27.875 48.484375 
Q 21.1875 48.484375 17.84375 46.4375 
Q 14.5 44.390625 14.5 40.28125 
Q 14.5 37.15625 16.890625 35.375 
Q 19.28125 33.59375 26.515625 31.984375 
L 29.59375 31.296875 
Q 39.15625 29.25 43.1875 25.515625 
Q 47.21875 21.78125 47.21875 15.09375 
Q 47.21875 7.46875 41.1875 3.015625 
Q 35.15625 -1.421875 24.609375 -1.421875 
Q 20.21875 -1.421875 15.453125 -0.5625 
Q 10.6875 0.296875 5.421875 2 
L 5.421875 11.28125 
Q 10.40625 8.6875 15.234375 7.390625 
Q 20.0625 6.109375 24.8125 6.109375 
Q 31.15625 6.109375 34.5625 8.28125 
Q 37.984375 10.453125 37.984375 14.40625 
Q 37.984375 18.0625 35.515625 20.015625 
Q 33.0625 21.96875 24.703125 23.78125 
L 21.578125 24.515625 
Q 13.234375 26.265625 9.515625 29.90625 
Q 5.8125 33.546875 5.8125 39.890625 
Q 5.8125 47.609375 11.28125 51.796875 
Q 16.75 56 26.8125 56 
Q 31.78125 56 36.171875 55.265625 
Q 40.578125 54.546875 44.28125 53.078125 
z
" id="DejaVuSans-115"/>
      <path d="M 18.3125 70.21875 
L 18.3125 54.6875 
L 36.8125 54.6875 
L 36.8125 47.703125 
L 18.3125 47.703125 
L 18.3125 18.015625 
Q 18.3125 11.328125 20.140625 9.421875 
Q 21.96875 7.515625 27.59375 7.515625 
L 36.8125 7.515625 
L 36.8125 0 
L 27.59375 0 
Q 17.1875 0 13.234375 3.875 
Q 9.28125 7.765625 9.28125 18.015625 
L 9.28125 47.703125 
L 2.6875 47.703125 
L 2.6875 54.6875 
L 9.28125 54.6875 
L 9.28125 70.21875 
z
" id="DejaVuSans-116"/>
      <path d="M 34.28125 27.484375 
Q 23.390625 27.484375 19.1875 25 
Q 14.984375 22.515625 14.984375 16.5 
Q 14.984375 11.71875 18.140625 8.90625 
Q 21.296875 6.109375 26.703125 6.109375 
Q 34.1875 6.109375 38.703125 11.40625 
Q 43.21875 16.703125 43.21875 25.484375 
L 43.21875 27.484375 
z
M 52.203125 31.203125 
L 52.203125 0 
L 43.21875 0 
L 43.21875 8.296875 
Q 40.140625 3.328125 35.546875 0.953125 
Q 30.953125 -1.421875 24.3125 -1.421875 
Q 15.921875 -1.421875 10.953125 3.296875 
Q 6 8.015625 6 15.921875 
Q 6 25.140625 12.171875 29.828125 
Q 18.359375 34.515625 30.609375 34.515625 
L 43.21875 34.515625 
L 43.21875 35.40625 
Q 43.21875 41.609375 39.140625 45 
Q 35.0625 48.390625 27.6875 48.390625 
Q 23 48.390625 18.546875 47.265625 
Q 14.109375 46.140625 10.015625 43.890625 
L 10.015625 52.203125 
Q 14.9375 54.109375 19.578125 55.046875 
Q 24.21875 56 28.609375 56 
Q 40.484375 56 46.34375 49.84375 
Q 52.203125 43.703125 52.203125 31.203125 
z
" id="DejaVuSans-97"/>
      <path d="M 48.78125 52.59375 
L 48.78125 44.1875 
Q 44.96875 46.296875 41.140625 47.34375 
Q 37.3125 48.390625 33.40625 48.390625 
Q 24.65625 48.390625 19.8125 42.84375 
Q 14.984375 37.3125 14.984375 27.296875 
Q 14.984375 17.28125 19.8125 11.734375 
Q 24.65625 6.203125 33.40625 6.203125 
Q 37.3125 6.203125 41.140625 7.25 
Q 44.96875 8.296875 48.78125 10.40625 
L 48.78125 2.09375 
Q 45.015625 0.34375 40.984375 -0.53125 
Q 36.96875 -1.421875 32.421875 -1.421875 
Q 20.0625 -1.421875 12.78125 6.34375 
Q 5.515625 14.109375 5.515625 27.296875 
Q 5.515625 40.671875 12.859375 48.328125 
Q 20.21875 56 33.015625 56 
Q 37.15625 56 41.109375 55.140625 
Q 45.0625 54.296875 48.78125 52.59375 
z
" id="DejaVuSans-99"/>
      <path d="M 56.203125 29.59375 
L 56.203125 25.203125 
L 14.890625 25.203125 
Q 15.484375 15.921875 20.484375 11.0625 
Q 25.484375 6.203125 34.421875 6.203125 
Q 39.59375 6.203125 44.453125 7.46875 
Q 49.3125 8.734375 54.109375 11.28125 
L 54.109375 2.78125 
Q 49.265625 0.734375 44.1875 -0.34375 
Q 39.109375 -1.421875 33.890625 -1.421875 
Q 20.796875 -1.421875 13.15625 6.1875 
Q 5.515625 13.8125 5.515625 26.8125 
Q 5.515625 40.234375 12.765625 48.109375 
Q 20.015625 56 32.328125 56 
Q 43.359375 56 49.78125 48.890625 
Q 56.203125 41.796875 56.203125 29.59375 
z
M 47.21875 32.234375 
Q 47.125 39.59375 43.09375 43.984375 
Q 39.0625 48.390625 32.421875 48.390625 
Q 24.90625 48.390625 20.390625 44.140625 
Q 15.875 39.890625 15.1875 32.171875 
z
" id="DejaVuSans-101"/>
      <path d="M 4.890625 31.390625 
L 31.203125 31.390625 
L 31.203125 23.390625 
L 4.890625 23.390625 
z
" id="DejaVuSans-45"/>
      <path d="M 10.59375 49.21875 
L 10.59375 58.109375 
L 73.1875 35.40625 
L 73.1875 27.296875 
L 10.59375 4.59375 
L 10.59375 13.484375 
L 60.890625 31.296875 
z
" id="DejaVuSans-62"/>
      <path d="M 14.796875 27.296875 
Q 14.796875 17.390625 18.875 11.75 
Q 22.953125 6.109375 30.078125 6.109375 
Q 37.203125 6.109375 41.296875 11.75 
Q 45.40625 17.390625 45.40625 27.296875 
Q 45.40625 37.203125 41.296875 42.84375 
Q 37.203125 48.484375 30.078125 48.484375 
Q 22.953125 48.484375 18.875 42.84375 
Q 14.796875 37.203125 14.796875 27.296875 
z
M 45.40625 8.203125 
Q 42.578125 3.328125 38.25 0.953125 
Q 33.9375 -1.421875 27.875 -1.421875 
Q 17.96875 -1.421875 11.734375 6.484375 
Q 5.515625 14.40625 5.515625 27.296875 
Q 5.515625 40.1875 11.734375 48.09375 
Q 17.96875 56 27.875 56 
Q 33.9375 56 38.25 53.625 
Q 42.578125 51.265625 45.40625 46.390625 
L 45.40625 54.6875 
L 54.390625 54.6875 
L 54.390625 -20.796875 
L 45.40625 -20.796875 
z
" id="DejaVuSans-113"/>
      <path d="M 31 75.875 
Q 24.46875 64.65625 21.28125 53.65625 
Q 18.109375 42.671875 18.109375 31.390625 
Q 18.109375 20.125 21.3125 9.0625 
Q 24.515625 -2 31 -13.1875 
L 23.1875 -13.1875 
Q 15.875 -1.703125 12.234375 9.375 
Q 8.59375 20.453125 8.59375 31.390625 
Q 8.59375 42.28125 12.203125 53.3125 
Q 15.828125 64.359375 23.1875 75.875 
z
" id="DejaVuSans-40"/>
      <path d="M 54.890625 54.6875 
L 35.109375 28.078125 
L 55.90625 0 
L 45.3125 0 
L 29.390625 21.484375 
L 13.484375 0 
L 2.875 0 
L 24.125 28.609375 
L 4.6875 54.6875 
L 15.28125 54.6875 
L 29.78125 35.203125 
L 44.28125 54.6875 
z
" id="DejaVuSans-120"/>
      <path d="M 46.6875 72.90625 
L 73.1875 45.703125 
L 63.375 45.703125 
L 41.890625 64.984375 
L 20.40625 45.703125 
L 10.59375 45.703125 
L 37.109375 72.90625 
z
" id="DejaVuSans-94"/>
      <path d="M 46 62.703125 
L 46 35.5 
L 73.1875 35.5 
L 73.1875 27.203125 
L 46 27.203125 
L 46 0 
L 37.796875 0 
L 37.796875 27.203125 
L 10.59375 27.203125 
L 10.59375 35.5 
L 37.796875 35.5 
L 37.796875 62.703125 
z
" id="DejaVuSans-43"/>
      <path d="M 32.171875 -5.078125 
Q 28.375 -14.84375 24.75 -17.8125 
Q 21.140625 -20.796875 15.09375 -20.796875 
L 7.90625 -20.796875 
L 7.90625 -13.28125 
L 13.1875 -13.28125 
Q 16.890625 -13.28125 18.9375 -11.515625 
Q 21 -9.765625 23.484375 -3.21875 
L 25.09375 0.875 
L 2.984375 54.6875 
L 12.5 54.6875 
L 29.59375 11.921875 
L 46.6875 54.6875 
L 56.203125 54.6875 
z
" id="DejaVuSans-121"/>
      <path d="M 8.015625 75.875 
L 15.828125 75.875 
Q 23.140625 64.359375 26.78125 53.3125 
Q 30.421875 42.28125 30.421875 31.390625 
Q 30.421875 20.453125 26.78125 9.375 
Q 23.140625 -1.703125 15.828125 -13.1875 
L 8.015625 -13.1875 
Q 14.5 -2 17.703125 9.0625 
Q 20.90625 20.125 20.90625 31.390625 
Q 20.90625 42.671875 17.703125 53.65625 
Q 14.5 64.65625 8.015625 75.875 
z
" id="DejaVuSans-41"/>
     </defs>
     <g transform="translate(392.874219 658.276562)scale(0.1 -0.1)">
      <use xlink:href="#DejaVuSans-110"/>
      <use x="63.378906" xlink:href="#DejaVuSans-111"/>
      <use x="124.560547" xlink:href="#DejaVuSans-114"/>
      <use x="165.658203" xlink:href="#DejaVuSans-109"/>
      <use x="263.070312" xlink:href="#DejaVuSans-32"/>
      <use x="294.857422" xlink:href="#DejaVuSans-100"/>
      <use x="358.333984" xlink:href="#DejaVuSans-105"/>
      <use x="386.117188" xlink:href="#DejaVuSans-115"/>
      <use x="438.216797" xlink:href="#DejaVuSans-116"/>
      <use x="477.425781" xlink:href="#DejaVuSans-97"/>
      <use x="538.705078" xlink:href="#DejaVuSans-110"/>
      <use x="602.083984" xlink:href="#DejaVuSans-99"/>
      <use x="657.064453" xlink:href="#DejaVuSans-101"/>
      <use x="718.587891" xlink:href="#DejaVuSans-32"/>
      <use x="750.375" xlink:href="#DejaVuSans-45"/>
      <use x="786.458984" xlink:href="#DejaVuSans-62"/>
      <use x="870.248047" xlink:href="#DejaVuSans-32"/>
      <use x="902.035156" xlink:href="#DejaVuSans-115"/>
      <use x="954.134766" xlink:href="#DejaVuSans-113"/>
      <use x="1017.611328" xlink:href="#DejaVuSans-114"/>
      <use x="1058.724609" xlink:href="#DejaVuSans-116"/>
      <use x="1097.933594" xlink:href="#DejaVuSans-40"/>
      <use x="1136.947266" xlink:href="#DejaVuSans-120"/>
      <use x="1196.126953" xlink:href="#DejaVuSans-94"/>
      <use x="1279.916016" xlink:href="#DejaVuSans-50"/>
      <use x="1343.539062" xlink:href="#DejaVuSans-32"/>
      <use x="1375.326172" xlink:href="#DejaVuSans-43"/>
      <use x="1459.115234" xlink:href="#DejaVuSans-32"/>
      <use x="1490.902344" xlink:href="#DejaVuSans-121"/>
      <use x="1550.082031" xlink:href="#DejaVuSans-94"/>
      <use x="1633.871094" xlink:href="#DejaVuSans-50"/>
      <use x="1697.494141" xlink:href="#DejaVuSans-41"/>
     </g>
    </g>
   </g>
   <g id="matplotlib.axis_2">
    <g id="ytick_1">
     <g id="line2d_9">
      <defs>
       <path d="M 0 0 
L -3.5 0 
" id="m69f382537d" style="stroke:#000000;stroke-width:0.8;"/>
      </defs>
      <g>
       <use style="stroke:#000000;stroke-width:0.8;" x="117" xlink:href="#m69f382537d" y="552.13733"/>
      </g>
     </g>
     <g id="text_10">
      <!-- $\mathdefault{10^{0}}$ -->
      <g transform="translate(92.4 555.936549)scale(0.1 -0.1)">
       <use transform="translate(0 0.765625)" xlink:href="#DejaVuSans-49"/>
       <use transform="translate(63.623047 0.765625)" xlink:href="#DejaVuSans-48"/>
       <use transform="translate(128.203125 39.046875)scale(0.7)" xlink:href="#DejaVuSans-48"/>
      </g>
     </g>
    </g>
    <g id="ytick_2">
     <g id="line2d_10">
      <g>
       <use style="stroke:#000000;stroke-width:0.8;" x="117" xlink:href="#m69f382537d" y="460.55573"/>
      </g>
     </g>
     <g id="text_11">
      <!-- $\mathdefault{10^{1}}$ -->
      <g transform="translate(92.4 464.354949)scale(0.1 -0.1)">
       <use transform="translate(0 0.684375)" xlink:href="#DejaVuSans-49"/>
       <use transform="translate(63.623047 0.684375)" xlink:href="#DejaVuSans-48"/>
       <use transform="translate(128.203125 38.965625)scale(0.7)" xlink:href="#DejaVuSans-49"/>
      </g>
     </g>
    </g>
    <g id="ytick_3">
     <g id="line2d_11">
      <g>
       <use style="stroke:#000000;stroke-width:0.8;" x="117" xlink:href="#m69f382537d" y="368.97413"/>
      </g>
     </g>
     <g id="text_12">
      <!-- $\mathdefault{10^{2}}$ -->
      <g transform="translate(92.4 372.773349)scale(0.1 -0.1)">
       <use transform="translate(0 0.765625)" xlink:href="#DejaVuSans-49"/>
       <use transform="translate(63.623047 0.765625)" xlink:href="#DejaVuSans-48"/>
       <use transform="translate(128.203125 39.046875)scale(0.7)" xlink:href="#DejaVuSans-50"/>
      </g>
     </g>
    </g>
    <g id="ytick_4">
     <g id="line2d_12">
      <g>
       <use style="stroke:#000000;stroke-width:0.8;" x="117" xlink:href="#m69f382537d" y="277.39253"/>
      </g>
     </g>
     <g id="text_13">
      <!-- $\mathdefault{10^{3}}$ -->
      <g transform="translate(92.4 281.191748)scale(0.1 -0.1)">
       <use transform="translate(0 0.765625)" xlink:href="#DejaVuSans-49"/>
       <use transform="translate(63.623047 0.765625)" xlink:href="#DejaVuSans-48"/>
       <use transform="translate(128.203125 39.046875)scale(0.7)" xlink:href="#DejaVuSans-51"/>
      </g>
     </g>
    </g>
    <g id="ytick_5">
     <g id="line2d_13">
      <g>
       <use style="stroke:#000000;stroke-width:0.8;" x="117" xlink:href="#m69f382537d" y="185.810929"/>
      </g>
     </g>
     <g id="text_14">
      <!-- $\mathdefault{10^{4}}$ -->
      <g transform="translate(92.4 189.610148)scale(0.1 -0.1)">
       <use transform="translate(0 0.684375)" xlink:href="#DejaVuSans-49"/>
       <use transform="translate(63.623047 0.684375)" xlink:href="#DejaVuSans-48"/>
       <use transform="translate(128.203125 38.965625)scale(0.7)" xlink:href="#DejaVuSans-52"/>
      </g>
     </g>
    </g>
    <g id="ytick_6">
     <g id="line2d_14">
      <g>
       <use style="stroke:#000000;stroke-width:0.8;" x="117" xlink:href="#m69f382537d" y="94.229329"/>
      </g>
     </g>
     <g id="text_15">
      <!-- $\mathdefault{10^{5}}$ -->
      <g transform="translate(92.4 98.028548)scale(0.1 -0.1)">
       <use transform="translate(0 0.684375)" xlink:href="#DejaVuSans-49"/>
       <use transform="translate(63.623047 0.684375)" xlink:href="#DejaVuSans-48"/>
       <use transform="translate(128.203125 38.965625)scale(0.7)" xlink:href="#DejaVuSans-53"/>
      </g>
     </g>
    </g>
    <g id="ytick_7">
     <g id="line2d_15">
      <defs>
       <path d="M 0 0 
L -2 0 
" id="m2b1478c64f" style="stroke:#000000;stroke-width:0.6;"/>
      </defs>
      <g>
       <use style="stroke:#000000;stroke-width:0.6;" x="117" xlink:href="#m2b1478c64f" y="616.150122"/>
      </g>
     </g>
    </g>
    <g id="ytick_8">
     <g id="line2d_16">
      <g>
       <use style="stroke:#000000;stroke-width:0.6;" x="117" xlink:href="#m2b1478c64f" y="600.023402"/>
      </g>
     </g>
    </g>
    <g id="ytick_9">
     <g id="line2d_17">
      <g>
       <use style="stroke:#000000;stroke-width:0.6;" x="117" xlink:href="#m2b1478c64f" y="588.581313"/>
      </g>
     </g>
    </g>
    <g id="ytick_10">
     <g id="line2d_18">
      <g>
       <use style="stroke:#000000;stroke-width:0.6;" x="117" xlink:href="#m2b1478c64f" y="579.706139"/>
      </g>
     </g>
    </g>
    <g id="ytick_11">
     <g id="line2d_19">
      <g>
       <use style="stroke:#000000;stroke-width:0.6;" x="117" xlink:href="#m2b1478c64f" y="572.454594"/>
      </g>
     </g>
    </g>
    <g id="ytick_12">
     <g id="line2d_20">
      <g>
       <use style="stroke:#000000;stroke-width:0.6;" x="117" xlink:href="#m2b1478c64f" y="566.3235"/>
      </g>
     </g>
    </g>
    <g id="ytick_13">
     <g id="line2d_21">
      <g>
       <use style="stroke:#000000;stroke-width:0.6;" x="117" xlink:href="#m2b1478c64f" y="561.012504"/>
      </g>
     </g>
    </g>
    <g id="ytick_14">
     <g id="line2d_22">
      <g>
       <use style="stroke:#000000;stroke-width:0.6;" x="117" xlink:href="#m2b1478c64f" y="556.327874"/>
      </g>
     </g>
    </g>
    <g id="ytick_15">
     <g id="line2d_23">
      <g>
       <use style="stroke:#000000;stroke-width:0.6;" x="117" xlink:href="#m2b1478c64f" y="524.568522"/>
      </g>
     </g>
    </g>
    <g id="ytick_16">
     <g id="line2d_24">
      <g>
       <use style="stroke:#000000;stroke-width:0.6;" x="117" xlink:href="#m2b1478c64f" y="508.441802"/>
      </g>
     </g>
    </g>
    <g id="ytick_17">
     <g id="line2d_25">
      <g>
       <use style="stroke:#000000;stroke-width:0.6;" x="117" xlink:href="#m2b1478c64f" y="496.999713"/>
      </g>
     </g>
    </g>
    <g id="ytick_18">
     <g id="line2d_26">
      <g>
       <use style="stroke:#000000;stroke-width:0.6;" x="117" xlink:href="#m2b1478c64f" y="488.124539"/>
      </g>
     </g>
    </g>
    <g id="ytick_19">
     <g id="line2d_27">
      <g>
       <use style="stroke:#000000;stroke-width:0.6;" x="117" xlink:href="#m2b1478c64f" y="480.872994"/>
      </g>
     </g>
    </g>
    <g id="ytick_20">
     <g id="line2d_28">
      <g>
       <use style="stroke:#000000;stroke-width:0.6;" x="117" xlink:href="#m2b1478c64f" y="474.741899"/>
      </g>
     </g>
    </g>
    <g id="ytick_21">
     <g id="line2d_29">
      <g>
       <use style="stroke:#000000;stroke-width:0.6;" x="117" xlink:href="#m2b1478c64f" y="469.430904"/>
      </g>
     </g>
    </g>
    <g id="ytick_22">
     <g id="line2d_30">
      <g>
       <use style="stroke:#000000;stroke-width:0.6;" x="117" xlink:href="#m2b1478c64f" y="464.746274"/>
      </g>
     </g>
    </g>
    <g id="ytick_23">
     <g id="line2d_31">
      <g>
       <use style="stroke:#000000;stroke-width:0.6;" x="117" xlink:href="#m2b1478c64f" y="432.986921"/>
      </g>
     </g>
    </g>
    <g id="ytick_24">
     <g id="line2d_32">
      <g>
       <use style="stroke:#000000;stroke-width:0.6;" x="117" xlink:href="#m2b1478c64f" y="416.860202"/>
      </g>
     </g>
    </g>
    <g id="ytick_25">
     <g id="line2d_33">
      <g>
       <use style="stroke:#000000;stroke-width:0.6;" x="117" xlink:href="#m2b1478c64f" y="405.418113"/>
      </g>
     </g>
    </g>
    <g id="ytick_26">
     <g id="line2d_34">
      <g>
       <use style="stroke:#000000;stroke-width:0.6;" x="117" xlink:href="#m2b1478c64f" y="396.542939"/>
      </g>
     </g>
    </g>
    <g id="ytick_27">
     <g id="line2d_35">
      <g>
       <use style="stroke:#000000;stroke-width:0.6;" x="117" xlink:href="#m2b1478c64f" y="389.291393"/>
      </g>
     </g>
    </g>
    <g id="ytick_28">
     <g id="line2d_36">
      <g>
       <use style="stroke:#000000;stroke-width:0.6;" x="117" xlink:href="#m2b1478c64f" y="383.160299"/>
      </g>
     </g>
    </g>
    <g id="ytick_29">
     <g id="line2d_37">
      <g>
       <use style="stroke:#000000;stroke-width:0.6;" x="117" xlink:href="#m2b1478c64f" y="377.849304"/>
      </g>
     </g>
    </g>
    <g id="ytick_30">
     <g id="line2d_38">
      <g>
       <use style="stroke:#000000;stroke-width:0.6;" x="117" xlink:href="#m2b1478c64f" y="373.164674"/>
      </g>
     </g>
    </g>
    <g id="ytick_31">
     <g id="line2d_39">
      <g>
       <use style="stroke:#000000;stroke-width:0.6;" x="117" xlink:href="#m2b1478c64f" y="341.405321"/>
      </g>
     </g>
    </g>
    <g id="ytick_32">
     <g id="line2d_40">
      <g>
       <use style="stroke:#000000;stroke-width:0.6;" x="117" xlink:href="#m2b1478c64f" y="325.278602"/>
      </g>
     </g>
    </g>
    <g id="ytick_33">
     <g id="line2d_41">
      <g>
       <use style="stroke:#000000;stroke-width:0.6;" x="117" xlink:href="#m2b1478c64f" y="313.836512"/>
      </g>
     </g>
    </g>
    <g id="ytick_34">
     <g id="line2d_42">
      <g>
       <use style="stroke:#000000;stroke-width:0.6;" x="117" xlink:href="#m2b1478c64f" y="304.961338"/>
      </g>
     </g>
    </g>
    <g id="ytick_35">
     <g id="line2d_43">
      <g>
       <use style="stroke:#000000;stroke-width:0.6;" x="117" xlink:href="#m2b1478c64f" y="297.709793"/>
      </g>
     </g>
    </g>
    <g id="ytick_36">
     <g id="line2d_44">
      <g>
       <use style="stroke:#000000;stroke-width:0.6;" x="117" xlink:href="#m2b1478c64f" y="291.578699"/>
      </g>
     </g>
    </g>
    <g id="ytick_37">
     <g id="line2d_45">
      <g>
       <use style="stroke:#000000;stroke-width:0.6;" x="117" xlink:href="#m2b1478c64f" y="286.267704"/>
      </g>
     </g>
    </g>
    <g id="ytick_38">
     <g id="line2d_46">
      <g>
       <use style="stroke:#000000;stroke-width:0.6;" x="117" xlink:href="#m2b1478c64f" y="281.583074"/>
      </g>
     </g>
    </g>
    <g id="ytick_39">
     <g id="line2d_47">
      <g>
       <use style="stroke:#000000;stroke-width:0.6;" x="117" xlink:href="#m2b1478c64f" y="249.823721"/>
      </g>
     </g>
    </g>
    <g id="ytick_40">
     <g id="line2d_48">
      <g>
       <use style="stroke:#000000;stroke-width:0.6;" x="117" xlink:href="#m2b1478c64f" y="233.697002"/>
      </g>
     </g>
    </g>
    <g id="ytick_41">
     <g id="line2d_49">
      <g>
       <use style="stroke:#000000;stroke-width:0.6;" x="117" xlink:href="#m2b1478c64f" y="222.254912"/>
      </g>
     </g>
    </g>
    <g id="ytick_42">
     <g id="line2d_50">
      <g>
       <use style="stroke:#000000;stroke-width:0.6;" x="117" xlink:href="#m2b1478c64f" y="213.379738"/>
      </g>
     </g>
    </g>
    <g id="ytick_43">
     <g id="line2d_51">
      <g>
       <use style="stroke:#000000;stroke-width:0.6;" x="117" xlink:href="#m2b1478c64f" y="206.128193"/>
      </g>
     </g>
    </g>
    <g id="ytick_44">
     <g id="line2d_52">
      <g>
       <use style="stroke:#000000;stroke-width:0.6;" x="117" xlink:href="#m2b1478c64f" y="199.997099"/>
      </g>
     </g>
    </g>
    <g id="ytick_45">
     <g id="line2d_53">
      <g>
       <use style="stroke:#000000;stroke-width:0.6;" x="117" xlink:href="#m2b1478c64f" y="194.686103"/>
      </g>
     </g>
    </g>
    <g id="ytick_46">
     <g id="line2d_54">
      <g>
       <use style="stroke:#000000;stroke-width:0.6;" x="117" xlink:href="#m2b1478c64f" y="190.001474"/>
      </g>
     </g>
    </g>
    <g id="ytick_47">
     <g id="line2d_55">
      <g>
       <use style="stroke:#000000;stroke-width:0.6;" x="117" xlink:href="#m2b1478c64f" y="158.242121"/>
      </g>
     </g>
    </g>
    <g id="ytick_48">
     <g id="line2d_56">
      <g>
       <use style="stroke:#000000;stroke-width:0.6;" x="117" xlink:href="#m2b1478c64f" y="142.115401"/>
      </g>
     </g>
    </g>
    <g id="ytick_49">
     <g id="line2d_57">
      <g>
       <use style="stroke:#000000;stroke-width:0.6;" x="117" xlink:href="#m2b1478c64f" y="130.673312"/>
      </g>
     </g>
    </g>
    <g id="ytick_50">
     <g id="line2d_58">
      <g>
       <use style="stroke:#000000;stroke-width:0.6;" x="117" xlink:href="#m2b1478c64f" y="121.798138"/>
      </g>
     </g>
    </g>
    <g id="ytick_51">
     <g id="line2d_59">
      <g>
       <use style="stroke:#000000;stroke-width:0.6;" x="117" xlink:href="#m2b1478c64f" y="114.546593"/>
      </g>
     </g>
    </g>
    <g id="ytick_52">
     <g id="line2d_60">
      <g>
       <use style="stroke:#000000;stroke-width:0.6;" x="117" xlink:href="#m2b1478c64f" y="108.415499"/>
      </g>
     </g>
    </g>
    <g id="ytick_53">
     <g id="line2d_61">
      <g>
       <use style="stroke:#000000;stroke-width:0.6;" x="117" xlink:href="#m2b1478c64f" y="103.104503"/>
      </g>
     </g>
    </g>
    <g id="ytick_54">
     <g id="line2d_62">
      <g>
       <use style="stroke:#000000;stroke-width:0.6;" x="117" xlink:href="#m2b1478c64f" y="98.419873"/>
      </g>
     </g>
    </g>
    <g id="text_16">
     <!-- log(sum(|expected_shift - real_shift|)) over 20 runs -->
     <defs>
      <path d="M 9.421875 75.984375 
L 18.40625 75.984375 
L 18.40625 0 
L 9.421875 0 
z
" id="DejaVuSans-108"/>
      <path d="M 45.40625 27.984375 
Q 45.40625 37.75 41.375 43.109375 
Q 37.359375 48.484375 30.078125 48.484375 
Q 22.859375 48.484375 18.828125 43.109375 
Q 14.796875 37.75 14.796875 27.984375 
Q 14.796875 18.265625 18.828125 12.890625 
Q 22.859375 7.515625 30.078125 7.515625 
Q 37.359375 7.515625 41.375 12.890625 
Q 45.40625 18.265625 45.40625 27.984375 
z
M 54.390625 6.78125 
Q 54.390625 -7.171875 48.1875 -13.984375 
Q 42 -20.796875 29.203125 -20.796875 
Q 24.46875 -20.796875 20.265625 -20.09375 
Q 16.0625 -19.390625 12.109375 -17.921875 
L 12.109375 -9.1875 
Q 16.0625 -11.328125 19.921875 -12.34375 
Q 23.78125 -13.375 27.78125 -13.375 
Q 36.625 -13.375 41.015625 -8.765625 
Q 45.40625 -4.15625 45.40625 5.171875 
L 45.40625 9.625 
Q 42.625 4.78125 38.28125 2.390625 
Q 33.9375 0 27.875 0 
Q 17.828125 0 11.671875 7.65625 
Q 5.515625 15.328125 5.515625 27.984375 
Q 5.515625 40.671875 11.671875 48.328125 
Q 17.828125 56 27.875 56 
Q 33.9375 56 38.28125 53.609375 
Q 42.625 51.21875 45.40625 46.390625 
L 45.40625 54.6875 
L 54.390625 54.6875 
z
" id="DejaVuSans-103"/>
      <path d="M 8.5 21.578125 
L 8.5 54.6875 
L 17.484375 54.6875 
L 17.484375 21.921875 
Q 17.484375 14.15625 20.5 10.265625 
Q 23.53125 6.390625 29.59375 6.390625 
Q 36.859375 6.390625 41.078125 11.03125 
Q 45.3125 15.671875 45.3125 23.6875 
L 45.3125 54.6875 
L 54.296875 54.6875 
L 54.296875 0 
L 45.3125 0 
L 45.3125 8.40625 
Q 42.046875 3.421875 37.71875 1 
Q 33.40625 -1.421875 27.6875 -1.421875 
Q 18.265625 -1.421875 13.375 4.4375 
Q 8.5 10.296875 8.5 21.578125 
z
M 31.109375 56 
z
" id="DejaVuSans-117"/>
      <path d="M 21 76.421875 
L 21 -23.578125 
L 12.703125 -23.578125 
L 12.703125 76.421875 
z
" id="DejaVuSans-124"/>
      <path d="M 18.109375 8.203125 
L 18.109375 -20.796875 
L 9.078125 -20.796875 
L 9.078125 54.6875 
L 18.109375 54.6875 
L 18.109375 46.390625 
Q 20.953125 51.265625 25.265625 53.625 
Q 29.59375 56 35.59375 56 
Q 45.5625 56 51.78125 48.09375 
Q 58.015625 40.1875 58.015625 27.296875 
Q 58.015625 14.40625 51.78125 6.484375 
Q 45.5625 -1.421875 35.59375 -1.421875 
Q 29.59375 -1.421875 25.265625 0.953125 
Q 20.953125 3.328125 18.109375 8.203125 
z
M 48.6875 27.296875 
Q 48.6875 37.203125 44.609375 42.84375 
Q 40.53125 48.484375 33.40625 48.484375 
Q 26.265625 48.484375 22.1875 42.84375 
Q 18.109375 37.203125 18.109375 27.296875 
Q 18.109375 17.390625 22.1875 11.75 
Q 26.265625 6.109375 33.40625 6.109375 
Q 40.53125 6.109375 44.609375 11.75 
Q 48.6875 17.390625 48.6875 27.296875 
z
" id="DejaVuSans-112"/>
      <path d="M 50.984375 -16.609375 
L 50.984375 -23.578125 
L -0.984375 -23.578125 
L -0.984375 -16.609375 
z
" id="DejaVuSans-95"/>
      <path d="M 54.890625 33.015625 
L 54.890625 0 
L 45.90625 0 
L 45.90625 32.71875 
Q 45.90625 40.484375 42.875 44.328125 
Q 39.84375 48.1875 33.796875 48.1875 
Q 26.515625 48.1875 22.3125 43.546875 
Q 18.109375 38.921875 18.109375 30.90625 
L 18.109375 0 
L 9.078125 0 
L 9.078125 75.984375 
L 18.109375 75.984375 
L 18.109375 46.1875 
Q 21.34375 51.125 25.703125 53.5625 
Q 30.078125 56 35.796875 56 
Q 45.21875 56 50.046875 50.171875 
Q 54.890625 44.34375 54.890625 33.015625 
z
" id="DejaVuSans-104"/>
      <path d="M 37.109375 75.984375 
L 37.109375 68.5 
L 28.515625 68.5 
Q 23.6875 68.5 21.796875 66.546875 
Q 19.921875 64.59375 19.921875 59.515625 
L 19.921875 54.6875 
L 34.71875 54.6875 
L 34.71875 47.703125 
L 19.921875 47.703125 
L 19.921875 0 
L 10.890625 0 
L 10.890625 47.703125 
L 2.296875 47.703125 
L 2.296875 54.6875 
L 10.890625 54.6875 
L 10.890625 58.5 
Q 10.890625 67.625 15.140625 71.796875 
Q 19.390625 75.984375 28.609375 75.984375 
z
" id="DejaVuSans-102"/>
      <path d="M 2.984375 54.6875 
L 12.5 54.6875 
L 29.59375 8.796875 
L 46.6875 54.6875 
L 56.203125 54.6875 
L 35.6875 0 
L 23.484375 0 
z
" id="DejaVuSans-118"/>
     </defs>
     <g transform="translate(86.042187 485.492188)rotate(-90)scale(0.1 -0.1)">
      <use xlink:href="#DejaVuSans-108"/>
      <use x="27.783203" xlink:href="#DejaVuSans-111"/>
      <use x="88.964844" xlink:href="#DejaVuSans-103"/>
      <use x="152.441406" xlink:href="#DejaVuSans-40"/>
      <use x="191.455078" xlink:href="#DejaVuSans-115"/>
      <use x="243.554688" xlink:href="#DejaVuSans-117"/>
      <use x="306.933594" xlink:href="#DejaVuSans-109"/>
      <use x="404.345703" xlink:href="#DejaVuSans-40"/>
      <use x="443.359375" xlink:href="#DejaVuSans-124"/>
      <use x="477.050781" xlink:href="#DejaVuSans-101"/>
      <use x="538.558594" xlink:href="#DejaVuSans-120"/>
      <use x="597.738281" xlink:href="#DejaVuSans-112"/>
      <use x="661.214844" xlink:href="#DejaVuSans-101"/>
      <use x="722.738281" xlink:href="#DejaVuSans-99"/>
      <use x="777.71875" xlink:href="#DejaVuSans-116"/>
      <use x="816.927734" xlink:href="#DejaVuSans-101"/>
      <use x="878.451172" xlink:href="#DejaVuSans-100"/>
      <use x="941.927734" xlink:href="#DejaVuSans-95"/>
      <use x="991.927734" xlink:href="#DejaVuSans-115"/>
      <use x="1044.027344" xlink:href="#DejaVuSans-104"/>
      <use x="1107.40625" xlink:href="#DejaVuSans-105"/>
      <use x="1135.189453" xlink:href="#DejaVuSans-102"/>
      <use x="1170.378906" xlink:href="#DejaVuSans-116"/>
      <use x="1209.587891" xlink:href="#DejaVuSans-32"/>
      <use x="1241.375" xlink:href="#DejaVuSans-45"/>
      <use x="1277.458984" xlink:href="#DejaVuSans-32"/>
      <use x="1309.246094" xlink:href="#DejaVuSans-114"/>
      <use x="1350.328125" xlink:href="#DejaVuSans-101"/>
      <use x="1411.851562" xlink:href="#DejaVuSans-97"/>
      <use x="1473.130859" xlink:href="#DejaVuSans-108"/>
      <use x="1500.914062" xlink:href="#DejaVuSans-95"/>
      <use x="1550.914062" xlink:href="#DejaVuSans-115"/>
      <use x="1603.013672" xlink:href="#DejaVuSans-104"/>
      <use x="1666.392578" xlink:href="#DejaVuSans-105"/>
      <use x="1694.175781" xlink:href="#DejaVuSans-102"/>
      <use x="1729.365234" xlink:href="#DejaVuSans-116"/>
      <use x="1768.574219" xlink:href="#DejaVuSans-124"/>
      <use x="1802.265625" xlink:href="#DejaVuSans-41"/>
      <use x="1841.279297" xlink:href="#DejaVuSans-41"/>
      <use x="1880.292969" xlink:href="#DejaVuSans-32"/>
      <use x="1912.080078" xlink:href="#DejaVuSans-111"/>
      <use x="1973.261719" xlink:href="#DejaVuSans-118"/>
      <use x="2032.441406" xlink:href="#DejaVuSans-101"/>
      <use x="2093.964844" xlink:href="#DejaVuSans-114"/>
      <use x="2135.078125" xlink:href="#DejaVuSans-32"/>
      <use x="2166.865234" xlink:href="#DejaVuSans-50"/>
      <use x="2230.488281" xlink:href="#DejaVuSans-48"/>
      <use x="2294.111328" xlink:href="#DejaVuSans-32"/>
      <use x="2325.898438" xlink:href="#DejaVuSans-114"/>
      <use x="2367.011719" xlink:href="#DejaVuSans-117"/>
      <use x="2430.390625" xlink:href="#DejaVuSans-110"/>
      <use x="2493.769531" xlink:href="#DejaVuSans-115"/>
     </g>
    </g>
   </g>
   <g id="line2d_63">
    <path clip-path="url(#p372f9fe93b)" d="M 149.972727 374.637043 
L 159.298823 373.556062 
L 159.298823 370.021267 
L 163.161818 367.703679 
L 163.161818 365.123107 
L 174.220576 362.347504 
L 174.220576 356.463304 
L 175.952223 353.455252 
L 175.952223 338.953333 
L 184.264364 336.270443 
L 184.264364 328.760054 
L 196.603205 326.436356 
L 196.603205 319.969222 
L 197.526671 317.972879 
L 197.526671 309.051345 
L 202.530882 307.458973 
L 202.530882 300.316192 
L 215.918182 299.032443 
L 215.918182 295.427414 
L 218.426269 294.299891 
L 218.426269 292.146827 
L 219.058641 291.117979 
L 219.058641 285.55276 
L 222.593975 284.717439 
L 222.593975 280.864318 
L 232.799588 280.143143 
L 232.799588 276.683591 
L 235.772807 276.013471 
L 235.772807 274.063181 
L 236.278172 273.440914 
L 236.278172 270.684069 
L 239.133323 270.223486 
L 239.133323 267.780585 
L 246.780655 267.482853 
L 246.780655 266.498543 
L 247.625455 266.114019 
L 247.625455 262.908277 
L 259.734019 262.231612 
L 259.734019 257.078892 
L 266.548923 256.362225 
L 266.548923 254.9836 
L 266.921371 254.326787 
L 266.921371 250.7409 
L 269.043998 250.175915 
L 269.043998 246.010299 
L 271.312364 245.347121 
L 271.312364 243.945444 
L 275.529132 243.203633 
L 275.529132 237.101735 
L 285.161102 236.094104 
L 285.161102 230.595933 
L 294.71962 229.42375 
L 294.71962 222.238313 
L 314.836364 221.063797 
L 314.836364 217.694338 
L 342.090297 216.640076 
L 342.090297 213.754707 
L 342.316525 212.899852 
L 342.316525 209.513855 
L 343.614455 209.012711 
L 343.614455 206.880017 
L 347.668357 206.600488 
L 347.668357 204.008657 
L 353.921368 203.442378 
L 353.921368 197.385112 
L 360.379035 196.210448 
L 360.379035 186.291391 
L 374.692931 184.72258 
L 374.692931 175.489877 
L 421.668 174.078631 
L 421.668 170.240996 
L 477.318684 169.115036 
L 477.318684 167.119843 
L 477.451507 166.254214 
L 477.451507 163.216463 
L 478.215523 162.843557 
L 478.215523 161.686779 
L 480.623263 161.508667 
L 480.623263 160.902166 
L 484.399494 160.705014 
L 484.399494 158.22837 
L 488.376375 157.701102 
L 488.376375 153.559453 
L 497.457093 152.710096 
L 497.457093 145.964432 
L 529.53107 144.976231 
L 529.53107 139.86897 
L 612.909818 139.242661 
L 612.909818 137.886583 
L 616.277508 137.620197 
L 616.277508 137.369699 
L 616.37076 137.893554 
L 616.907527 138.194901 
L 616.907527 140.836782 
L 618.603232 141.118707 
L 618.603232 141.487855 
L 618.603232 141.072584 
L 621.275216 140.769072 
L 621.275216 137.441788 
L 624.105412 136.882818 
L 624.105412 132.811884 
L 630.628694 132.190176 
L 630.628694 127.126618 
L 654.303283 126.287343 
L 654.303283 120.102572 
L 719.70558 119.269269 
L 719.70558 115.040705 
L 809.427273 114.752947 
L 809.427273 114.461404 
L 809.427273 114.461404 
" style="fill:none;stroke:#000000;stroke-linecap:square;stroke-width:1.5;"/>
   </g>
   <g id="line2d_64">
    <path clip-path="url(#p372f9fe93b)" d="M 149.972727 374.651054 
L 159.298823 373.569791 
L 159.298823 370.03412 
L 163.161818 367.715998 
L 163.161818 365.134866 
L 174.220576 362.3587 
L 174.220576 356.473426 
L 175.952223 353.464883 
L 175.952223 338.961067 
L 184.264364 336.277897 
L 184.264364 328.766822 
L 196.603205 326.442939 
L 196.603205 319.975359 
L 197.526671 317.978903 
L 197.526671 309.057095 
L 202.530882 307.464742 
L 202.530882 300.322571 
L 215.918182 299.039068 
L 215.918182 295.434988 
L 218.426269 294.307846 
L 218.426269 292.155611 
L 219.058641 291.127195 
L 219.058641 285.564285 
L 222.593975 284.729232 
L 222.593975 280.876838 
L 232.799588 280.155716 
L 232.799588 276.696445 
L 235.772807 276.02644 
L 235.772807 274.076678 
L 236.278172 273.454636 
L 236.278172 270.698847 
L 239.133323 270.23837 
L 239.133323 267.793883 
L 246.780655 267.495541 
L 246.780655 266.508958 
L 247.625455 266.123564 
L 247.625455 262.912246 
L 259.734019 262.234662 
L 259.734019 257.075301 
L 266.548923 256.357529 
L 266.548923 254.976509 
L 266.921371 254.3184 
L 266.921371 250.724506 
L 269.043998 250.158465 
L 269.043998 245.99512 
L 271.312364 245.334352 
L 271.312364 243.939305 
L 275.529132 243.201691 
L 275.529132 237.138358 
L 285.161102 236.136152 
L 285.161102 230.658015 
L 294.71962 229.488177 
L 294.71962 222.308599 
L 314.836364 221.134413 
L 314.836364 217.765992 
L 342.090297 216.712154 
L 342.090297 213.827856 
L 342.316525 212.97314 
L 342.316525 209.58329 
L 343.614455 209.080085 
L 343.614455 206.924767 
L 347.668357 206.640098 
L 347.668357 204.011319 
L 353.921368 203.440559 
L 353.921368 197.361962 
L 360.379035 196.185525 
L 360.379035 186.260489 
L 374.692931 184.691689 
L 374.692931 175.463318 
L 421.668 174.053382 
L 421.668 170.220234 
L 477.318684 169.095871 
L 477.318684 167.103879 
L 477.451507 166.23981 
L 477.451507 163.208817 
L 478.215523 162.83698 
L 478.215523 161.684404 
L 480.623263 161.506891 
L 480.623263 160.900435 
L 484.399494 160.703087 
L 484.399494 158.223975 
L 488.376375 157.696321 
L 488.376375 153.553252 
L 497.457093 152.703878 
L 497.457093 145.960167 
L 529.53107 144.972479 
L 529.53107 139.869593 
L 612.909818 139.244351 
L 612.909818 137.892601 
L 616.277508 137.628174 
L 616.277508 137.382675 
L 616.37076 137.922405 
L 616.907527 138.229221 
L 616.907527 140.924619 
L 618.603232 141.214983 
L 618.603232 141.599566 
L 618.603232 141.204147 
L 621.275216 140.90027 
L 621.275216 137.536184 
L 624.105412 136.969177 
L 624.105412 132.846866 
L 630.628694 132.219712 
L 630.628694 127.133481 
L 654.303283 126.29272 
L 654.303283 120.10348 
L 719.70558 119.269993 
L 719.70558 115.040995 
L 809.427273 114.753224 
L 809.427273 114.461657 
L 809.427273 114.461657 
" style="fill:none;stroke:#010000;stroke-linecap:square;stroke-width:1.5;"/>
   </g>
   <g id="line2d_65">
    <path clip-path="url(#p372f9fe93b)" d="M 149.972727 374.7002 
L 159.298823 373.619236 
L 159.298823 370.084342 
L 163.161818 367.766559 
L 163.161818 365.185651 
L 174.220576 362.409537 
L 174.220576 356.523714 
L 175.952223 353.51453 
L 175.952223 339.003865 
L 184.264364 336.318712 
L 184.264364 328.800936 
L 196.603205 326.474674 
L 196.603205 319.999948 
L 197.526671 318.001202 
L 197.526671 309.069472 
L 202.530882 307.4755 
L 202.530882 300.326903 
L 215.918182 299.042364 
L 215.918182 295.435558 
L 218.426269 294.307591 
L 218.426269 292.153801 
L 219.058641 291.12465 
L 219.058641 285.557958 
L 222.593975 284.722391 
L 222.593975 280.867803 
L 232.799588 280.146272 
L 232.799588 276.684645 
L 235.772807 276.014023 
L 235.772807 274.062287 
L 236.278172 273.439535 
L 236.278172 270.680035 
L 239.133323 270.218784 
L 239.133323 267.765545 
L 246.780655 267.464836 
L 246.780655 266.467879 
L 247.625455 266.077768 
L 247.625455 262.825214 
L 259.734019 262.139442 
L 259.734019 256.932149 
L 266.548923 256.210925 
L 266.548923 254.826755 
L 266.921371 254.169026 
L 266.921371 250.602707 
L 269.043998 250.044487 
L 269.043998 245.940876 
L 271.312364 245.287587 
L 271.312364 243.905682 
L 275.529132 243.173642 
L 275.529132 237.130214 
L 285.161102 236.128406 
L 285.161102 230.646634 
L 294.71962 229.475478 
L 294.71962 222.291224 
L 314.836364 221.117525 
L 314.836364 217.753894 
L 342.090297 216.70287 
L 342.090297 213.830776 
L 342.316525 212.981384 
L 342.316525 209.626751 
L 343.614455 209.132101 
L 343.614455 207.034164 
L 347.668357 206.759247 
L 347.668357 204.182606 
L 353.921368 203.615155 
L 353.921368 197.519355 
L 360.379035 196.335285 
L 360.379035 186.343044 
L 374.692931 184.764939 
L 374.692931 175.493651 
L 421.668 174.078933 
L 421.668 170.235008 
L 477.318684 169.10807 
L 477.318684 167.112138 
L 477.451507 166.246599 
L 477.451507 163.211482 
L 478.215523 162.839229 
L 478.215523 161.685122 
L 480.623263 161.50728 
L 480.623263 160.900178 
L 484.399494 160.702832 
L 484.399494 158.229717 
L 488.376375 157.704572 
L 488.376375 153.593333 
L 497.457093 152.752625 
L 497.457093 146.092257 
L 529.53107 145.117967 
L 529.53107 140.083023 
L 612.909818 139.465199 
L 612.909818 138.126183 
L 616.277508 137.862598 
L 616.277508 137.613563 
L 616.37076 138.126766 
L 616.907527 138.423504 
L 616.907527 141.03012 
L 618.603232 141.307834 
L 618.603232 141.669162 
L 618.603232 141.232131 
L 621.275216 140.922888 
L 621.275216 137.540375 
L 624.105412 136.972438 
L 624.105412 132.847707 
L 630.628694 132.220479 
L 630.628694 127.134133 
L 654.303283 126.293378 
L 654.303283 120.104186 
L 719.70558 119.270707 
L 719.70558 115.041762 
L 809.427273 114.753995 
L 809.427273 114.462433 
L 809.427273 114.462433 
" style="fill:none;stroke:#030000;stroke-linecap:square;stroke-width:1.5;"/>
   </g>
   <g id="line2d_66">
    <path clip-path="url(#p372f9fe93b)" d="M 149.972727 376.103656 
L 159.298823 375.051516 
L 159.298823 371.606993 
L 163.161818 369.343857 
L 163.161818 366.819305 
L 174.220576 364.100227 
L 174.220576 358.319806 
L 175.952223 355.356424 
L 175.952223 340.981521 
L 184.264364 338.303783 
L 184.264364 330.770446 
L 196.603205 328.427397 
L 196.603205 321.87052 
L 197.526671 319.834839 
L 197.526671 310.658535 
L 202.530882 309.005303 
L 202.530882 301.523125 
L 215.918182 300.166896 
L 215.918182 296.343788 
L 218.426269 295.145181 
L 218.426269 292.855768 
L 219.058641 291.762668 
L 219.058641 285.888235 
L 222.593975 285.015262 
L 222.593975 281.026416 
L 232.799588 280.286768 
L 232.799588 276.763101 
L 235.772807 276.084183 
L 235.772807 274.112672 
L 236.278172 273.484618 
L 236.278172 270.703167 
L 239.133323 270.237727 
L 239.133323 267.742769 
L 246.780655 267.4327 
L 246.780655 266.400249 
L 247.625455 265.995704 
L 247.625455 262.635716 
L 259.734019 261.930568 
L 259.734019 256.609595 
L 266.548923 255.877403 
L 266.548923 254.475971 
L 266.921371 253.811849 
L 266.921371 250.233012 
L 269.043998 249.67608 
L 269.043998 245.604227 
L 271.312364 244.959415 
L 271.312364 243.598136 
L 275.529132 242.878333 
L 275.529132 236.950337 
L 285.161102 235.96731 
L 285.161102 230.57512 
L 294.71962 229.420017 
L 294.71962 222.315464 
L 314.836364 221.152521 
L 314.836364 217.817513 
L 342.090297 216.774876 
L 342.090297 213.924472 
L 342.316525 213.081113 
L 342.316525 209.746762 
L 343.614455 209.254102 
L 343.614455 207.154012 
L 347.668357 206.876541 
L 347.668357 204.266011 
L 353.921368 203.691509 
L 353.921368 197.537408 
L 360.379035 196.345179 
L 360.379035 186.316513 
L 374.692931 184.736953 
L 374.692931 175.471965 
L 421.668 174.059748 
L 421.668 170.223675 
L 477.318684 169.099221 
L 477.318684 167.107774 
L 477.451507 166.244176 
L 477.451507 163.215526 
L 478.215523 162.843982 
L 478.215523 161.691579 
L 480.623263 161.513779 
L 480.623263 160.906956 
L 484.399494 160.709825 
L 484.399494 158.241461 
L 488.376375 157.717555 
L 488.376375 153.615956 
L 497.457093 152.776947 
L 497.457093 146.124296 
L 529.53107 145.150197 
L 529.53107 140.111619 
L 612.909818 139.4926 
L 612.909818 138.149528 
L 616.277508 137.88452 
L 616.277508 137.632664 
L 616.37076 138.140709 
L 616.907527 138.436303 
L 616.907527 141.036455 
L 618.603232 141.31339 
L 618.603232 141.673197 
L 618.603232 141.232438 
L 621.275216 140.922479 
L 621.275216 137.536406 
L 624.105412 136.968345 
L 624.105412 132.847175 
L 630.628694 132.221096 
L 630.628694 127.144572 
L 654.303283 126.305074 
L 654.303283 120.120373 
L 719.70558 119.286927 
L 719.70558 115.056531 
L 809.427273 114.76858 
L 809.427273 114.476822 
L 809.427273 114.476822 
" style="fill:none;stroke:#0d0000;stroke-linecap:square;stroke-width:1.5;"/>
   </g>
   <g id="line2d_67">
    <path clip-path="url(#p372f9fe93b)" d="M 149.972727 377.256825 
L 159.298823 376.172694 
L 159.298823 372.629065 
L 163.161818 370.305232 
L 163.161818 367.716778 
L 174.220576 364.93324 
L 174.220576 359.029352 
L 175.952223 356.009346 
L 175.952223 341.415859 
L 184.264364 338.706818 
L 184.264364 331.099842 
L 196.603205 328.737951 
L 196.603205 322.1371 
L 197.526671 320.08993 
L 197.526671 310.867841 
L 202.530882 309.206347 
L 202.530882 301.681595 
L 215.918182 300.316559 
L 215.918182 296.467071 
L 218.426269 295.259973 
L 218.426269 292.954501 
L 219.058641 291.853968 
L 219.058641 285.946039 
L 222.593975 285.069514 
L 222.593975 281.07151 
L 232.799588 280.331683 
L 232.799588 276.814208 
L 235.772807 276.137702 
L 235.772807 274.174681 
L 236.278172 273.549596 
L 236.278172 270.778881 
L 239.133323 270.313858 
L 239.133323 267.787999 
L 246.780655 267.467121 
L 246.780655 266.390984 
L 247.625455 265.968299 
L 247.625455 262.476219 
L 259.734019 261.748358 
L 259.734019 256.312809 
L 266.548923 255.574055 
L 266.548923 254.168348 
L 266.921371 253.506454 
L 266.921371 249.99154 
L 269.043998 249.45077 
L 269.043998 245.484272 
L 271.312364 244.849513 
L 271.312364 243.503035 
L 275.529132 242.788099 
L 275.529132 236.868753 
L 285.161102 235.887036 
L 285.161102 230.516608 
L 294.71962 229.369043 
L 294.71962 222.317201 
L 314.836364 221.161808 
L 314.836364 217.842791 
L 342.090297 216.802861 
L 342.090297 213.952273 
L 342.316525 213.106304 
L 342.316525 209.74655 
L 343.614455 209.247723 
L 343.614455 207.120831 
L 347.668357 206.842671 
L 347.668357 204.280484 
L 353.921368 203.721478 
L 353.921368 197.720235 
L 360.379035 196.552071 
L 360.379035 186.644523 
L 374.692931 185.071375 
L 374.692931 175.782613 
L 421.668 174.358168 
L 421.668 170.477706 
L 477.318684 169.337028 
L 477.318684 167.312841 
L 477.451507 166.433236 
L 477.451507 163.335906 
L 478.215523 162.953755 
L 478.215523 161.766882 
L 480.623263 161.589128 
L 480.623263 161.016275 
L 484.399494 160.833857 
L 484.399494 158.601207 
L 488.376375 158.136775 
L 488.376375 154.546307 
L 497.457093 153.812085 
L 497.457093 147.841104 
L 529.53107 146.934101 
L 529.53107 142.031438 
L 612.909818 141.391746 
L 612.909818 139.929169 
L 616.277508 139.609341 
L 616.37076 139.175121 
L 616.37076 139.466198 
L 616.907527 139.693016 
L 616.907527 141.868288 
L 618.603232 142.094714 
L 618.603232 142.340153 
L 618.603232 141.744523 
L 621.275216 141.410208 
L 621.275216 138.005565 
L 624.105412 137.462562 
L 624.105412 133.840492 
L 630.628694 133.346313 
L 630.628694 129.748772 
L 654.303283 129.19654 
L 654.303283 125.256102 
L 719.70558 124.733268 
L 719.70558 122.088282 
L 809.427273 121.908569 
L 809.427273 121.726327 
L 809.427273 121.726327 
" style="fill:none;stroke:#1a0000;stroke-linecap:square;stroke-width:1.5;"/>
   </g>
   <g id="line2d_68">
    <path clip-path="url(#p372f9fe93b)" d="M 149.972727 395.052562 
L 159.298823 393.434803 
L 159.298823 388.249951 
L 163.161818 384.926435 
L 163.161818 381.287246 
L 174.220576 377.439328 
L 174.220576 369.47062 
L 175.952223 365.481516 
L 175.952223 346.876234 
L 184.264364 343.534061 
L 184.264364 334.340663 
L 196.603205 331.547388 
L 196.603205 323.911106 
L 197.526671 321.596493 
L 197.526671 311.495682 
L 202.530882 309.73089 
L 202.530882 301.915872 
L 215.918182 300.52409 
L 215.918182 296.629532 
L 218.426269 295.415483 
L 218.426269 293.103261 
L 219.058641 292.001707 
L 219.058641 286.096363 
L 222.593975 285.219663 
L 222.593975 281.211932 
L 232.799588 280.468337 
L 232.799588 276.924419 
L 235.772807 276.241627 
L 235.772807 274.259801 
L 236.278172 273.628884 
L 236.278172 270.837673 
L 239.133323 270.37105 
L 239.133323 267.86521 
L 246.780655 267.551307 
L 246.780655 266.499283 
L 247.625455 266.084853 
L 247.625455 262.621173 
L 259.734019 261.891929 
L 259.734019 256.38726 
L 266.548923 255.631833 
L 266.548923 254.190193 
L 266.921371 253.509677 
L 266.921371 249.895758 
L 269.043998 249.343796 
L 269.043998 245.382552 
L 271.312364 244.76291 
L 271.312364 243.45828 
L 275.529132 242.76974 
L 275.529132 237.113497 
L 285.161102 236.17572 
L 285.161102 231.017633 
L 294.71962 229.908179 
L 294.71962 223.025812 
L 314.836364 221.887975 
L 314.836364 218.605383 
L 342.090297 217.572892 
L 342.090297 214.735793 
L 342.316525 213.892846 
L 342.316525 210.558887 
L 343.614455 210.070805 
L 343.614455 208.08284 
L 347.668357 207.843113 
L 347.668357 205.655448 
L 353.921368 205.160642 
L 353.921368 199.632437 
L 360.379035 198.53426 
L 360.379035 189.123815 
L 374.692931 187.617714 
L 374.692931 178.635725 
L 421.668 177.240689 
L 421.668 173.404208 
L 477.318684 172.263916 
L 477.318684 170.221187 
L 477.451507 169.323375 
L 477.451507 166.068956 
L 478.215523 165.646311 
L 478.215523 164.199227 
L 480.623263 164.064422 
L 480.623263 163.200396 
L 484.399494 162.994522 
L 484.399494 160.732561 
L 488.376375 160.288983 
L 488.376375 157.016077 
L 497.457093 156.373099 
L 497.457093 151.375459 
L 529.53107 150.650391 
L 529.53107 146.963763 
L 612.909818 146.536641 
L 612.909818 145.711542 
L 616.37076 145.578274 
L 616.37076 145.640854 
L 616.37076 146.667648 
L 616.907527 147.080244 
L 616.907527 150.184079 
L 618.603232 150.452907 
L 618.603232 150.631124 
L 618.603232 149.498609 
L 621.275216 148.967318 
L 621.275216 143.983783 
L 624.105412 143.232087 
L 624.105412 138.498907 
L 630.628694 137.894823 
L 630.628694 133.818778 
L 654.303283 133.239481 
L 654.303283 129.409668 
L 719.70558 128.938194 
L 719.70558 126.673295 
L 809.427273 126.428488 
L 809.427273 126.378873 
L 809.427273 126.378873 
" style="fill:none;stroke:#330000;stroke-linecap:square;stroke-width:1.5;"/>
   </g>
   <g id="line2d_69">
    <path clip-path="url(#p372f9fe93b)" d="M 149.972727 428.007688 
L 159.298823 425.621867 
L 159.298823 418.262696 
L 163.161818 413.72843 
L 163.161818 408.905108 
L 174.220576 403.943704 
L 174.220576 394.023298 
L 175.952223 389.201339 
L 175.952223 367.451694 
L 184.264364 363.603047 
L 184.264364 352.958249 
L 196.603205 349.682851 
L 196.603205 340.537316 
L 197.526671 337.694857 
L 197.526671 324.797791 
L 202.530882 322.462371 
L 202.530882 311.921223 
L 215.918182 310.03227 
L 215.918182 304.783442 
L 218.426269 303.167764 
L 218.426269 300.130626 
L 219.058641 298.705475 
L 219.058641 291.355752 
L 222.593975 290.309485 
L 222.593975 285.664716 
L 232.799588 284.823351 
L 232.799588 280.848772 
L 235.772807 280.082191 
L 235.772807 277.841921 
L 236.278172 277.122195 
L 236.278172 273.891049 
L 239.133323 273.344246 
L 239.133323 270.479073 
L 246.780655 270.151536 
L 246.780655 269.120526 
L 247.625455 268.732713 
L 247.625455 265.580343 
L 259.734019 264.919708 
L 259.734019 259.912729 
L 266.548923 259.221604 
L 266.548923 257.895344 
L 266.921371 257.264375 
L 266.921371 253.780601 
L 269.043998 253.216522 
L 269.043998 248.90089 
L 271.312364 248.200941 
L 271.312364 246.728084 
L 275.529132 245.954722 
L 275.529132 239.850031 
L 285.161102 238.88857 
L 285.161102 233.825189 
L 294.71962 232.778675 
L 294.71962 226.51506 
L 314.836364 225.507895 
L 314.836364 222.631986 
L 342.090297 221.733677 
L 342.090297 219.271896 
L 342.316525 218.540212 
L 342.316525 215.606343 
L 343.614455 215.16097 
L 343.614455 213.138329 
L 347.668357 212.847626 
L 347.668357 210.105847 
L 353.921368 209.529603 
L 353.921368 203.727256 
L 360.379035 202.650832 
L 360.379035 193.82274 
L 374.692931 192.447383 
L 374.692931 184.313818 
L 421.668 183.054069 
L 421.668 179.579112 
L 477.318684 178.541692 
L 477.318684 176.672667 
L 477.451507 175.845034 
L 477.451507 172.773398 
L 478.215523 172.356058 
L 478.215523 170.780901 
L 480.623263 170.606025 
L 480.623263 169.450847 
L 484.399494 169.189681 
L 484.399494 166.445071 
L 488.376375 165.913742 
L 488.376375 162.018737 
L 497.457093 161.264807 
L 497.457093 155.634391 
L 529.53107 154.85864 
L 529.53107 151.14552 
L 612.909818 150.757998 
L 612.909818 150.113398 
L 616.37076 150.143151 
L 616.37076 151.741377 
L 616.907527 152.266362 
L 616.907527 156.099623 
L 618.603232 156.441072 
L 618.603232 156.677691 
L 618.603232 155.551655 
L 621.275216 154.968493 
L 621.275216 149.453107 
L 624.105412 148.6245 
L 624.105412 143.451454 
L 630.628694 142.79388 
L 630.628694 138.296826 
L 654.303283 137.643942 
L 654.303283 133.238997 
L 719.70558 132.687523 
L 719.70558 130.014643 
L 809.427273 129.840357 
L 809.427273 129.664603 
L 809.427273 129.664603 
" style="fill:none;stroke:#4c0000;stroke-linecap:square;stroke-width:1.5;"/>
   </g>
   <g id="line2d_70">
    <path clip-path="url(#p372f9fe93b)" d="M 149.972727 463.39396 
L 159.298823 461.273986 
L 159.298823 454.662528 
L 163.161818 450.510985 
L 163.161818 446.040511 
L 174.220576 441.400818 
L 174.220576 431.999489 
L 175.952223 427.373835 
L 175.952223 406.231851 
L 184.264364 402.464665 
L 184.264364 392.099124 
L 196.603205 388.949881 
L 196.603205 380.355964 
L 197.526671 377.773256 
L 197.526671 366.849337 
L 202.530882 365.044409 
L 202.530882 357.458832 
L 215.918182 356.135061 
L 215.918182 352.211143 
L 218.426269 350.851509 
L 218.426269 347.960941 
L 219.058641 346.40604 
L 219.058641 335.618903 
L 222.593975 333.676598 
L 222.593975 324.294024 
L 232.799588 322.569343 
L 232.799588 315.060142 
L 235.772807 313.778509 
L 235.772807 310.32886 
L 236.278172 309.29262 
L 236.278172 304.698557 
L 239.133323 303.852901 
L 239.133323 297.727767 
L 246.780655 296.730997 
L 246.780655 293.448198 
L 247.625455 292.256122 
L 247.625455 284.42309 
L 259.734019 283.09494 
L 259.734019 274.8829 
L 266.548923 273.935679 
L 266.548923 272.215501 
L 266.921371 271.437869 
L 266.921371 267.432045 
L 269.043998 266.786835 
L 269.043998 261.396552 
L 271.312364 260.455358 
L 271.312364 258.456416 
L 275.529132 257.406179 
L 275.529132 249.668408 
L 285.161102 248.591106 
L 285.161102 243.681278 
L 294.71962 242.822609 
L 294.71962 238.611884 
L 314.836364 238.053064 
L 314.836364 236.570093 
L 342.090297 236.127601 
L 342.090297 234.918134 
L 342.316525 234.548977 
L 342.316525 232.89132 
L 343.614455 232.588965 
L 343.614455 230.728308 
L 347.668357 230.366529 
L 347.668357 226.583472 
L 353.921368 225.80375 
L 353.921368 218.562472 
L 360.379035 217.323434 
L 360.379035 208.129921 
L 374.692931 206.831319 
L 374.692931 199.708794 
L 421.668 198.677088 
L 421.668 195.905525 
L 477.318684 195.096723 
L 477.318684 193.655323 
L 477.451507 193.021804 
L 477.451507 190.659343 
L 478.215523 190.327893 
L 478.215523 188.910836 
L 480.623263 188.710582 
L 480.623263 187.124924 
L 484.399494 186.740237 
L 484.399494 182.58086 
L 488.376375 181.765906 
L 488.376375 175.918891 
L 497.457093 174.834656 
L 497.457093 167.431165 
L 529.53107 166.519674 
L 529.53107 162.712939 
L 612.909818 162.419989 
L 612.909818 162.1646 
L 612.909818 162.1646 
L 616.277508 162.1646 
L 616.277508 162.20445 
L 616.37076 165.310531 
L 616.907527 166.054745 
L 616.907527 170.997374 
L 618.603232 171.397351 
L 618.603232 171.659858 
L 618.603232 170.049294 
L 621.275216 169.29714 
L 621.275216 162.219851 
L 624.105412 161.12927 
L 624.105412 153.885277 
L 630.628694 152.901769 
L 630.628694 146.118966 
L 654.303283 145.167862 
L 654.303283 139.14824 
L 719.70558 138.442144 
L 719.70558 135.151473 
L 809.427273 134.944053 
L 809.427273 134.735825 
L 809.427273 134.735825 
" style="fill:none;stroke:#660000;stroke-linecap:square;stroke-width:1.5;"/>
   </g>
   <g id="line2d_71">
    <path clip-path="url(#p372f9fe93b)" d="M 149.972727 605.290909 
L 159.298823 604.826777 
L 159.298823 603.239473 
L 163.161818 601.928167 
L 163.161818 600.256448 
L 174.220576 598.226467 
L 174.220576 592.881676 
L 175.952223 589.522504 
L 175.952223 566.507755 
L 184.264364 560.991388 
L 184.264364 543.82423 
L 196.603205 538.171263 
L 196.603205 521.949532 
L 197.526671 516.912822 
L 197.526671 495.164339 
L 202.530882 491.521885 
L 202.530882 476.316504 
L 215.918182 473.750871 
L 215.918182 466.59895 
L 218.426269 464.308038 
L 218.426269 459.811427 
L 219.058641 457.574856 
L 219.058641 444.596442 
L 222.593975 442.634738 
L 222.593975 434.619396 
L 232.799588 433.446146 
L 232.799588 429.55287 
L 235.772807 429.043641 
L 235.772807 427.559397 
L 236.278172 426.959126 
L 236.278172 421.70317 
L 239.133323 420.069629 
L 239.133323 404.17087 
L 246.780655 401.586539 
L 246.780655 394.078721 
L 247.625455 391.737272 
L 247.625455 380.552804 
L 259.734019 379.245995 
L 259.734019 373.804871 
L 266.548923 373.318957 
L 266.548923 372.254042 
L 266.921371 371.606849 
L 266.921371 364.168823 
L 269.043998 362.196752 
L 269.043998 344.283963 
L 271.312364 341.478862 
L 271.312364 335.963593 
L 275.529132 333.293276 
L 275.529132 317.553164 
L 285.161102 315.836804 
L 285.161102 309.510731 
L 294.71962 308.698352 
L 294.71962 306.616846 
L 314.836364 306.616846 
L 314.836364 306.645639 
L 314.836364 306.748636 
L 342.090297 306.905597 
L 342.090297 307.494824 
L 342.316525 307.743035 
L 342.316525 307.570454 
L 342.316525 306.212596 
L 343.614455 305.459244 
L 343.614455 297.77986 
L 347.668357 296.047981 
L 347.668357 281.785829 
L 353.921368 279.581712 
L 353.921368 264.463458 
L 360.379035 262.468022 
L 360.379035 250.870225 
L 374.692931 249.635563 
L 374.692931 244.765678 
L 421.668 244.368953 
L 421.668 243.790002 
L 477.451507 243.829229 
L 477.451507 244.747799 
L 478.215523 244.967381 
L 478.215523 245.457642 
L 478.215523 245.062779 
L 480.623263 244.727163 
L 480.623263 240.575151 
L 484.399494 239.515099 
L 484.399494 229.469709 
L 488.376375 227.735437 
L 488.376375 216.722794 
L 497.457093 214.901184 
L 497.457093 203.917049 
L 529.53107 202.739631 
L 529.53107 198.560454 
L 612.909818 198.371196 
L 612.909818 198.371196 
L 616.277508 198.505997 
L 616.37076 204.280695 
L 616.907527 205.397609 
L 616.907527 212.331247 
L 618.603232 212.866994 
L 618.603232 213.219569 
L 618.603232 211.312881 
L 621.275216 210.384412 
L 621.275216 200.876446 
L 624.105412 199.214322 
L 624.105412 186.120638 
L 630.628694 184.078071 
L 630.628694 169.501861 
L 654.303283 167.500157 
L 654.303283 155.473965 
L 719.70558 154.134027 
L 719.70558 148.04258 
L 809.427273 147.664955 
L 809.427273 147.286911 
L 809.427273 147.286911 
" style="fill:none;stroke:#800000;stroke-linecap:square;stroke-width:1.5;"/>
   </g>
   <g id="line2d_72">
    <path clip-path="url(#p372f9fe93b)" d="M 149.972727 576.843434 
L 159.298823 576.760077 
L 159.298823 576.473641 
L 163.161818 576.274722 
L 163.161818 576.043759 
L 174.220576 575.783335 
L 174.220576 575.190491 
L 175.952223 574.866315 
L 175.952223 573.149238 
L 184.264364 572.816872 
L 184.264364 571.912128 
L 196.603205 571.650944 
L 196.603205 571.00997 
L 197.526671 570.844728 
L 197.526671 570.329662 
L 202.530882 570.165549 
L 202.530882 570.001397 
L 215.918182 569.861956 
L 215.918182 569.69442 
L 218.426269 569.512562 
L 218.426269 569.424781 
L 219.058641 569.275782 
L 219.058641 569.189574 
L 219.058641 569.189574 
L 222.593975 569.270881 
L 222.593975 569.815548 
L 232.799588 570.021546 
L 232.799588 571.195582 
L 235.772807 571.406282 
L 235.772807 571.858028 
L 236.278172 571.947452 
L 236.278172 571.889107 
L 236.278172 571.614168 
L 239.133323 571.430371 
L 239.133323 571.289251 
L 239.133323 571.294279 
L 246.780655 571.386192 
L 246.780655 571.562297 
L 247.625455 571.780888 
L 247.625455 572.037264 
L 247.625455 571.863045 
L 259.734019 571.690929 
L 259.734019 568.022222 
L 266.548923 567.002646 
L 266.548923 564.349263 
L 266.921371 562.651108 
L 266.921371 545.752491 
L 269.043998 541.827607 
L 269.043998 510.796407 
L 271.312364 506.493712 
L 271.312364 498.409232 
L 275.529132 494.683519 
L 275.529132 476.066069 
L 285.161102 474.578409 
L 285.161102 471.585854 
L 294.71962 471.585854 
L 294.71962 471.585854 
L 294.71962 475.082211 
L 314.836364 476.336619 
L 314.836364 480.568423 
L 342.090297 481.98355 
L 342.090297 485.563084 
L 342.316525 486.415252 
L 342.316525 487.478368 
L 342.316525 486.353825 
L 343.614455 485.632644 
L 343.614455 477.668698 
L 347.668357 475.459088 
L 347.668357 449.12881 
L 353.921368 444.051995 
L 353.921368 407.36527 
L 360.379035 402.554992 
L 360.379035 375.492522 
L 374.692931 372.684137 
L 374.692931 361.440654 
L 421.668 360.448848 
L 421.668 358.761319 
L 477.451507 358.563566 
L 477.451507 358.686594 
L 477.451507 360.07898 
L 478.215523 360.51988 
L 478.215523 361.548351 
L 478.215523 360.317758 
L 480.623263 359.370054 
L 480.623263 347.742241 
L 484.399494 344.904273 
L 484.399494 321.377826 
L 488.376375 317.87679 
L 488.376375 298.690677 
L 497.457093 295.971484 
L 497.457093 282.477118 
L 529.53107 281.444522 
L 529.53107 279.760522 
L 529.53107 279.760522 
L 612.909818 279.960414 
L 612.909818 282.03254 
L 616.277508 283.197909 
L 616.37076 299.107684 
L 616.907527 301.526249 
L 616.907527 314.848848 
L 618.603232 315.684154 
L 618.603232 316.183767 
L 618.603232 312.408566 
L 621.275216 310.772287 
L 621.275216 292.561477 
L 624.105412 289.020032 
L 624.105412 259.209302 
L 630.628694 254.499648 
L 630.628694 221.941467 
L 654.303283 217.624428 
L 654.303283 192.19464 
L 719.70558 189.390096 
L 719.70558 176.615431 
L 809.427273 175.819281 
L 809.427273 175.021646 
L 809.427273 175.021646 
" style="fill:none;stroke:#990000;stroke-linecap:square;stroke-width:1.5;"/>
   </g>
   <g id="line2d_73">
    <path clip-path="url(#p372f9fe93b)" d="M 149.972727 543.426609 
L 159.298823 543.326331 
L 159.298823 543.25252 
L 174.220576 542.818333 
L 175.952223 542.680203 
L 175.952223 542.505889 
L 184.264364 542.370845 
L 184.264364 542.300067 
L 196.603205 542.208669 
L 196.603205 541.774822 
L 197.526671 541.569181 
L 197.526671 540.115777 
L 202.530882 539.761883 
L 202.530882 537.952669 
L 215.918182 537.618086 
L 215.918182 536.751335 
L 218.426269 536.519834 
L 218.426269 536.161987 
L 219.058641 535.955674 
L 219.058641 535.909195 
L 219.058641 535.942946 
L 222.593975 536.11892 
L 222.593975 536.763218 
L 232.799588 536.946528 
L 232.799588 537.558537 
L 235.772807 537.477662 
L 235.772807 536.973817 
L 236.278172 536.738253 
L 236.278172 535.468984 
L 239.133323 535.264726 
L 239.133323 534.839275 
L 239.133323 534.840667 
L 246.780655 534.960707 
L 246.780655 535.198069 
L 247.625455 535.343514 
L 247.625455 536.09092 
L 259.734019 536.138688 
L 259.734019 536.04378 
L 259.734019 535.557703 
L 266.548923 535.385175 
L 266.548923 535.321414 
L 266.921371 535.256368 
L 266.921371 535.326235 
L 269.043998 535.473084 
L 269.043998 536.126185 
L 271.312364 536.301196 
L 271.312364 536.362466 
L 275.529132 536.403296 
L 275.529132 536.345237 
L 275.529132 535.920867 
L 285.161102 535.755391 
L 285.161102 535.646918 
L 285.161102 535.646918 
L 294.71962 535.646918 
L 294.71962 535.71448 
L 294.71962 536.22125 
L 314.836364 536.413038 
L 314.836364 537.06413 
L 342.090297 537.282867 
L 342.090297 537.841648 
L 342.316525 538.072173 
L 342.316525 538.132861 
L 342.316525 537.861306 
L 343.614455 537.708834 
L 343.614455 536.451313 
L 347.668357 536.216457 
L 347.668357 534.43304 
L 353.921368 534.138085 
L 353.921368 531.620572 
L 360.379035 531.202925 
L 360.379035 528.19059 
L 374.692931 527.773305 
L 374.692931 525.422446 
L 421.668 525.054411 
L 421.668 523.996368 
L 477.318684 523.664248 
L 477.318684 523.045513 
L 477.451507 522.509994 
L 477.451507 521.806634 
L 478.215523 521.693775 
L 478.215523 521.792443 
L 480.623263 521.900853 
L 480.623263 522.579393 
L 480.623263 522.460387 
L 484.399494 522.168703 
L 484.399494 512.865189 
L 488.376375 510.219182 
L 488.376375 489.363255 
L 497.457093 485.563196 
L 497.457093 462.712288 
L 529.53107 460.356503 
L 529.53107 452.389437 
L 612.909818 452.096302 
L 612.909818 452.096302 
L 616.277508 452.355761 
L 616.37076 460.252338 
L 616.907527 461.243836 
L 616.907527 462.677447 
L 616.907527 459.396229 
L 618.603232 458.237673 
L 618.603232 446.988424 
L 621.275216 443.701438 
L 621.275216 395.910012 
L 624.105412 386.165894 
L 624.105412 315.901163 
L 630.628694 306.562074 
L 630.628694 250.216212 
L 654.303283 243.544564 
L 654.303283 206.751595 
L 719.70558 202.909424 
L 719.70558 185.834184 
L 809.427273 184.791087 
L 809.427273 183.748286 
L 809.427273 183.748286 
" style="fill:none;stroke:#b20000;stroke-linecap:square;stroke-width:1.5;"/>
   </g>
   <g id="line2d_74">
    <path clip-path="url(#p372f9fe93b)" d="M 149.972727 516.596303 
L 159.298823 516.496605 
L 159.298823 516.160574 
L 163.161818 515.931523 
L 163.161818 515.669071 
L 174.220576 515.378722 
L 174.220576 514.734941 
L 175.952223 514.392338 
L 175.952223 512.630362 
L 184.264364 512.285731 
L 184.264364 511.291152 
L 196.603205 510.973846 
L 196.603205 510.072035 
L 197.526671 509.791068 
L 197.526671 508.601917 
L 202.530882 508.419942 
L 202.530882 507.883702 
L 218.426269 507.875824 
L 218.426269 507.921001 
L 218.426269 507.987119 
L 219.058641 508.172351 
L 219.058641 508.807556 
L 222.593975 508.939861 
L 222.593975 509.451989 
L 232.799588 509.501414 
L 232.799588 509.422932 
L 232.799588 509.033736 
L 235.772807 508.845652 
L 235.772807 508.164057 
L 236.278172 507.922386 
L 236.278172 507.013407 
L 239.133323 506.956642 
L 239.133323 507.026154 
L 239.133323 507.635343 
L 246.780655 507.970669 
L 246.780655 509.295687 
L 247.625455 509.814137 
L 247.625455 512.878074 
L 259.734019 513.274878 
L 259.734019 514.525132 
L 266.548923 514.416916 
L 266.921371 514.305378 
L 266.921371 514.305378 
L 269.043998 514.305378 
L 269.043998 514.227454 
L 269.043998 514.012134 
L 271.312364 513.906323 
L 271.312364 513.653165 
L 275.529132 513.511766 
L 275.529132 512.586961 
L 285.161102 512.434385 
L 285.161102 512.319683 
L 294.71962 512.259324 
L 294.71962 512.202218 
L 314.836364 512.010614 
L 314.836364 511.698759 
L 342.090297 511.496343 
L 342.090297 510.719214 
L 342.316525 510.418364 
L 342.316525 508.79977 
L 343.614455 508.483865 
L 343.614455 506.793835 
L 347.668357 506.537831 
L 347.668357 504.686697 
L 353.921368 504.403571 
L 353.921368 502.573606 
L 360.379035 502.378606 
L 360.379035 501.864445 
L 360.379035 501.864445 
L 374.692931 501.969822 
L 374.692931 502.535681 
L 421.668 502.733161 
L 421.668 503.395331 
L 477.318684 503.626416 
L 477.318684 504.083602 
L 477.451507 504.51507 
L 477.451507 505.242644 
L 478.215523 505.390117 
L 478.215523 505.943996 
L 480.623263 505.96944 
L 480.623263 505.87886 
L 480.623263 505.430091 
L 484.399494 505.267171 
L 484.399494 503.810976 
L 488.376375 503.591062 
L 488.376375 502.415322 
L 497.457093 502.250782 
L 497.457093 501.373829 
L 529.53107 501.188954 
L 529.53107 501.205868 
L 612.909818 501.343179 
L 612.909818 501.643912 
L 616.277508 501.862258 
L 616.37076 505.193259 
L 616.907527 505.731478 
L 616.907527 508.043692 
L 616.907527 507.552463 
L 618.603232 506.938584 
L 618.603232 467.659916 
L 621.275216 457.218476 
L 621.275216 369.960762 
L 624.105412 357.846581 
L 624.105412 281.605162 
L 630.628694 272.078686 
L 630.628694 215.402084 
L 654.303283 208.738514 
L 654.303283 172.054889 
L 719.70558 168.227792 
L 719.70558 151.22276 
L 809.427273 150.184049 
L 809.427273 149.14563 
L 809.427273 149.14563 
" style="fill:none;stroke:#cc0000;stroke-linecap:square;stroke-width:1.5;"/>
   </g>
   <g id="line2d_75">
    <path clip-path="url(#p372f9fe93b)" d="M 149.972727 501.94032 
L 159.298823 501.822529 
L 159.298823 501.425274 
L 163.161818 501.154464 
L 163.161818 500.844234 
L 174.220576 500.500528 
L 174.220576 499.73906 
L 175.952223 499.334191 
L 175.952223 497.269146 
L 184.264364 496.873923 
L 184.264364 495.76448 
L 196.603205 495.42528 
L 196.603205 494.510686 
L 197.526671 494.243304 
L 197.526671 493.210607 
L 202.530882 493.064553 
L 202.530882 492.576255 
L 215.918182 492.446985 
L 215.918182 492.321352 
L 218.426269 492.181209 
L 218.426269 492.102472 
L 219.058641 491.926645 
L 219.058641 491.450614 
L 222.593975 491.296041 
L 222.593975 491.155395 
L 232.799588 491.155395 
L 232.799588 491.22004 
L 232.799588 491.272349 
L 235.772807 491.416668 
L 235.772807 491.608602 
L 236.278172 491.721524 
L 236.278172 492.488334 
L 239.133323 492.689816 
L 239.133323 494.616984 
L 246.780655 494.940372 
L 246.780655 495.877628 
L 247.625455 496.159261 
L 247.625455 497.138641 
L 259.734019 496.961502 
L 259.734019 495.632009 
L 266.548923 495.332075 
L 266.548923 494.701139 
L 266.921371 494.379744 
L 266.921371 492.614714 
L 269.043998 492.381226 
L 269.043998 491.435871 
L 275.529132 491.303711 
L 275.529132 491.304546 
L 285.161102 491.386313 
L 285.161102 491.434338 
L 294.71962 491.581561 
L 294.71962 492.270214 
L 314.836364 492.447127 
L 314.836364 492.969223 
L 342.090297 493.120323 
L 342.090297 493.424251 
L 342.316525 493.449776 
L 342.316525 493.399785 
L 342.316525 493.024914 
L 343.614455 492.824037 
L 343.614455 492.618827 
L 343.614455 492.618827 
L 347.668357 492.618827 
L 347.668357 492.696418 
L 347.668357 492.987955 
L 353.921368 493.127157 
L 353.921368 493.193016 
L 353.921368 492.821987 
L 360.379035 492.653228 
L 360.379035 490.689768 
L 374.692931 490.312874 
L 374.692931 487.776621 
L 421.668 487.344845 
L 421.668 486.139355 
L 477.318684 485.787185 
L 477.318684 485.192101 
L 477.451507 484.771875 
L 477.451507 484.524026 
L 477.451507 484.524026 
L 478.215523 484.524026 
L 478.215523 484.623463 
L 478.215523 485.373999 
L 480.623263 485.649701 
L 480.623263 487.532694 
L 484.399494 487.821853 
L 484.399494 489.031911 
L 488.376375 489.048447 
L 488.376375 488.994097 
L 488.376375 488.408985 
L 497.457093 488.251935 
L 497.457093 487.216374 
L 529.53107 487.015966 
L 529.53107 487.008452 
L 529.53107 487.035862 
L 612.909818 487.201988 
L 612.909818 487.52663 
L 616.277508 487.748926 
L 616.37076 490.728731 
L 616.907527 491.194392 
L 616.907527 493.011888 
L 616.907527 486.45446 
L 618.603232 483.354865 
L 618.603232 426.429848 
L 621.275216 414.198801 
L 621.275216 325.329765 
L 624.105412 313.56141 
L 624.105412 239.900108 
L 630.628694 230.693178 
L 630.628694 175.758254 
L 654.303283 169.278387 
L 654.303283 133.51846 
L 719.70558 129.779023 
L 719.70558 113.14336 
L 809.427273 112.126144 
L 809.427273 111.109091 
L 809.427273 111.109091 
" style="fill:none;stroke:#e60000;stroke-linecap:square;stroke-width:1.5;"/>
   </g>
   <g id="patch_3">
    <path d="M 117 630 
L 117 86.4 
" style="fill:none;stroke:#000000;stroke-linecap:square;stroke-linejoin:miter;stroke-width:0.8;"/>
   </g>
   <g id="patch_4">
    <path d="M 842.4 630 
L 842.4 86.4 
" style="fill:none;stroke:#000000;stroke-linecap:square;stroke-linejoin:miter;stroke-width:0.8;"/>
   </g>
   <g id="patch_5">
    <path d="M 117 630 
L 842.4 630 
" style="fill:none;stroke:#000000;stroke-linecap:square;stroke-linejoin:miter;stroke-width:0.8;"/>
   </g>
   <g id="patch_6">
    <path d="M 117 86.4 
L 842.4 86.4 
" style="fill:none;stroke:#000000;stroke-linecap:square;stroke-linejoin:miter;stroke-width:0.8;"/>
   </g>
   <g id="text_17">
    <!-- X,Y shift estimation error with regard to learning_rate -->
    <defs>
     <path d="M 6.296875 72.90625 
L 16.890625 72.90625 
L 35.015625 45.796875 
L 53.21875 72.90625 
L 63.8125 72.90625 
L 40.375 37.890625 
L 65.375 0 
L 54.78125 0 
L 34.28125 31 
L 13.625 0 
L 2.984375 0 
L 29 38.921875 
z
" id="DejaVuSans-88"/>
     <path d="M 11.71875 12.40625 
L 22.015625 12.40625 
L 22.015625 4 
L 14.015625 -11.625 
L 7.71875 -11.625 
L 11.71875 4 
z
" id="DejaVuSans-44"/>
     <path d="M -0.203125 72.90625 
L 10.40625 72.90625 
L 30.609375 42.921875 
L 50.6875 72.90625 
L 61.28125 72.90625 
L 35.5 34.71875 
L 35.5 0 
L 25.59375 0 
L 25.59375 34.71875 
z
" id="DejaVuSans-89"/>
     <path d="M 4.203125 54.6875 
L 13.1875 54.6875 
L 24.421875 12.015625 
L 35.59375 54.6875 
L 46.1875 54.6875 
L 57.421875 12.015625 
L 68.609375 54.6875 
L 77.59375 54.6875 
L 63.28125 0 
L 52.6875 0 
L 40.921875 44.828125 
L 29.109375 0 
L 18.5 0 
z
" id="DejaVuSans-119"/>
    </defs>
    <g transform="translate(318.5625 80.4)scale(0.12 -0.12)">
     <use xlink:href="#DejaVuSans-88"/>
     <use x="68.505859" xlink:href="#DejaVuSans-44"/>
     <use x="100.292969" xlink:href="#DejaVuSans-89"/>
     <use x="161.376953" xlink:href="#DejaVuSans-32"/>
     <use x="193.164062" xlink:href="#DejaVuSans-115"/>
     <use x="245.263672" xlink:href="#DejaVuSans-104"/>
     <use x="308.642578" xlink:href="#DejaVuSans-105"/>
     <use x="336.425781" xlink:href="#DejaVuSans-102"/>
     <use x="371.615234" xlink:href="#DejaVuSans-116"/>
     <use x="410.824219" xlink:href="#DejaVuSans-32"/>
     <use x="442.611328" xlink:href="#DejaVuSans-101"/>
     <use x="504.134766" xlink:href="#DejaVuSans-115"/>
     <use x="556.234375" xlink:href="#DejaVuSans-116"/>
     <use x="595.443359" xlink:href="#DejaVuSans-105"/>
     <use x="623.226562" xlink:href="#DejaVuSans-109"/>
     <use x="720.638672" xlink:href="#DejaVuSans-97"/>
     <use x="781.917969" xlink:href="#DejaVuSans-116"/>
     <use x="821.126953" xlink:href="#DejaVuSans-105"/>
     <use x="848.910156" xlink:href="#DejaVuSans-111"/>
     <use x="910.091797" xlink:href="#DejaVuSans-110"/>
     <use x="973.470703" xlink:href="#DejaVuSans-32"/>
     <use x="1005.257812" xlink:href="#DejaVuSans-101"/>
     <use x="1066.78125" xlink:href="#DejaVuSans-114"/>
     <use x="1107.878906" xlink:href="#DejaVuSans-114"/>
     <use x="1148.960938" xlink:href="#DejaVuSans-111"/>
     <use x="1210.142578" xlink:href="#DejaVuSans-114"/>
     <use x="1251.255859" xlink:href="#DejaVuSans-32"/>
     <use x="1283.042969" xlink:href="#DejaVuSans-119"/>
     <use x="1364.830078" xlink:href="#DejaVuSans-105"/>
     <use x="1392.613281" xlink:href="#DejaVuSans-116"/>
     <use x="1431.822266" xlink:href="#DejaVuSans-104"/>
     <use x="1495.201172" xlink:href="#DejaVuSans-32"/>
     <use x="1526.988281" xlink:href="#DejaVuSans-114"/>
     <use x="1568.070312" xlink:href="#DejaVuSans-101"/>
     <use x="1629.59375" xlink:href="#DejaVuSans-103"/>
     <use x="1693.070312" xlink:href="#DejaVuSans-97"/>
     <use x="1754.349609" xlink:href="#DejaVuSans-114"/>
     <use x="1795.447266" xlink:href="#DejaVuSans-100"/>
     <use x="1858.923828" xlink:href="#DejaVuSans-32"/>
     <use x="1890.710938" xlink:href="#DejaVuSans-116"/>
     <use x="1929.919922" xlink:href="#DejaVuSans-111"/>
     <use x="1991.101562" xlink:href="#DejaVuSans-32"/>
     <use x="2022.888672" xlink:href="#DejaVuSans-108"/>
     <use x="2050.671875" xlink:href="#DejaVuSans-101"/>
     <use x="2112.195312" xlink:href="#DejaVuSans-97"/>
     <use x="2173.474609" xlink:href="#DejaVuSans-114"/>
     <use x="2214.572266" xlink:href="#DejaVuSans-110"/>
     <use x="2277.951172" xlink:href="#DejaVuSans-105"/>
     <use x="2305.734375" xlink:href="#DejaVuSans-110"/>
     <use x="2369.113281" xlink:href="#DejaVuSans-103"/>
     <use x="2432.589844" xlink:href="#DejaVuSans-95"/>
     <use x="2482.589844" xlink:href="#DejaVuSans-114"/>
     <use x="2523.703125" xlink:href="#DejaVuSans-97"/>
     <use x="2584.982422" xlink:href="#DejaVuSans-116"/>
     <use x="2624.191406" xlink:href="#DejaVuSans-101"/>
    </g>
   </g>
   <g id="legend_1">
    <g id="patch_7">
     <path d="M 124 299.89375 
L 192.460938 299.89375 
Q 194.460938 299.89375 194.460938 297.89375 
L 194.460938 93.4 
Q 194.460938 91.4 192.460938 91.4 
L 124 91.4 
Q 122 91.4 122 93.4 
L 122 297.89375 
Q 122 299.89375 124 299.89375 
z
" style="fill:#ffffff;opacity:0.8;stroke:#cccccc;stroke-linejoin:miter;"/>
    </g>
    <g id="text_18">
     <!-- learning rate -->
     <g transform="translate(126 102.998438)scale(0.1 -0.1)">
      <use xlink:href="#DejaVuSans-108"/>
      <use x="27.783203" xlink:href="#DejaVuSans-101"/>
      <use x="89.306641" xlink:href="#DejaVuSans-97"/>
      <use x="150.585938" xlink:href="#DejaVuSans-114"/>
      <use x="191.683594" xlink:href="#DejaVuSans-110"/>
      <use x="255.0625" xlink:href="#DejaVuSans-105"/>
      <use x="282.845703" xlink:href="#DejaVuSans-110"/>
      <use x="346.224609" xlink:href="#DejaVuSans-103"/>
      <use x="409.701172" xlink:href="#DejaVuSans-32"/>
      <use x="441.488281" xlink:href="#DejaVuSans-114"/>
      <use x="482.601562" xlink:href="#DejaVuSans-97"/>
      <use x="543.880859" xlink:href="#DejaVuSans-116"/>
      <use x="583.089844" xlink:href="#DejaVuSans-101"/>
     </g>
    </g>
    <g id="line2d_76">
     <path d="M 129.916406 114.176563 
L 149.916406 114.176563 
" style="fill:none;stroke:#000000;stroke-linecap:square;stroke-width:1.5;"/>
    </g>
    <g id="line2d_77"/>
    <g id="text_19">
     <!-- 0.001 -->
     <defs>
      <path d="M 10.6875 12.40625 
L 21 12.40625 
L 21 0 
L 10.6875 0 
z
" id="DejaVuSans-46"/>
     </defs>
     <g transform="translate(157.916406 117.676563)scale(0.1 -0.1)">
      <use xlink:href="#DejaVuSans-48"/>
      <use x="63.623047" xlink:href="#DejaVuSans-46"/>
      <use x="95.410156" xlink:href="#DejaVuSans-48"/>
      <use x="159.033203" xlink:href="#DejaVuSans-48"/>
      <use x="222.65625" xlink:href="#DejaVuSans-49"/>
     </g>
    </g>
    <g id="line2d_78">
     <path d="M 129.916406 128.854688 
L 149.916406 128.854688 
" style="fill:none;stroke:#010000;stroke-linecap:square;stroke-width:1.5;"/>
    </g>
    <g id="line2d_79"/>
    <g id="text_20">
     <!-- 0.005 -->
     <g transform="translate(157.916406 132.354688)scale(0.1 -0.1)">
      <use xlink:href="#DejaVuSans-48"/>
      <use x="63.623047" xlink:href="#DejaVuSans-46"/>
      <use x="95.410156" xlink:href="#DejaVuSans-48"/>
      <use x="159.033203" xlink:href="#DejaVuSans-48"/>
      <use x="222.65625" xlink:href="#DejaVuSans-53"/>
     </g>
    </g>
    <g id="line2d_80">
     <path d="M 129.916406 143.532813 
L 149.916406 143.532813 
" style="fill:none;stroke:#030000;stroke-linecap:square;stroke-width:1.5;"/>
    </g>
    <g id="line2d_81"/>
    <g id="text_21">
     <!-- 0.01 -->
     <g transform="translate(157.916406 147.032813)scale(0.1 -0.1)">
      <use xlink:href="#DejaVuSans-48"/>
      <use x="63.623047" xlink:href="#DejaVuSans-46"/>
      <use x="95.410156" xlink:href="#DejaVuSans-48"/>
      <use x="159.033203" xlink:href="#DejaVuSans-49"/>
     </g>
    </g>
    <g id="line2d_82">
     <path d="M 129.916406 158.210938 
L 149.916406 158.210938 
" style="fill:none;stroke:#0d0000;stroke-linecap:square;stroke-width:1.5;"/>
    </g>
    <g id="line2d_83"/>
    <g id="text_22">
     <!-- 0.05 -->
     <g transform="translate(157.916406 161.710938)scale(0.1 -0.1)">
      <use xlink:href="#DejaVuSans-48"/>
      <use x="63.623047" xlink:href="#DejaVuSans-46"/>
      <use x="95.410156" xlink:href="#DejaVuSans-48"/>
      <use x="159.033203" xlink:href="#DejaVuSans-53"/>
     </g>
    </g>
    <g id="line2d_84">
     <path d="M 129.916406 172.889063 
L 149.916406 172.889063 
" style="fill:none;stroke:#1a0000;stroke-linecap:square;stroke-width:1.5;"/>
    </g>
    <g id="line2d_85"/>
    <g id="text_23">
     <!-- 0.1 -->
     <g transform="translate(157.916406 176.389063)scale(0.1 -0.1)">
      <use xlink:href="#DejaVuSans-48"/>
      <use x="63.623047" xlink:href="#DejaVuSans-46"/>
      <use x="95.410156" xlink:href="#DejaVuSans-49"/>
     </g>
    </g>
    <g id="line2d_86">
     <path d="M 129.916406 187.567188 
L 149.916406 187.567188 
" style="fill:none;stroke:#330000;stroke-linecap:square;stroke-width:1.5;"/>
    </g>
    <g id="line2d_87"/>
    <g id="text_24">
     <!-- 0.2 -->
     <g transform="translate(157.916406 191.067188)scale(0.1 -0.1)">
      <use xlink:href="#DejaVuSans-48"/>
      <use x="63.623047" xlink:href="#DejaVuSans-46"/>
      <use x="95.410156" xlink:href="#DejaVuSans-50"/>
     </g>
    </g>
    <g id="line2d_88">
     <path d="M 129.916406 202.245313 
L 149.916406 202.245313 
" style="fill:none;stroke:#4c0000;stroke-linecap:square;stroke-width:1.5;"/>
    </g>
    <g id="line2d_89"/>
    <g id="text_25">
     <!-- 0.3 -->
     <g transform="translate(157.916406 205.745313)scale(0.1 -0.1)">
      <use xlink:href="#DejaVuSans-48"/>
      <use x="63.623047" xlink:href="#DejaVuSans-46"/>
      <use x="95.410156" xlink:href="#DejaVuSans-51"/>
     </g>
    </g>
    <g id="line2d_90">
     <path d="M 129.916406 216.923438 
L 149.916406 216.923438 
" style="fill:none;stroke:#660000;stroke-linecap:square;stroke-width:1.5;"/>
    </g>
    <g id="line2d_91"/>
    <g id="text_26">
     <!-- 0.4 -->
     <g transform="translate(157.916406 220.423438)scale(0.1 -0.1)">
      <use xlink:href="#DejaVuSans-48"/>
      <use x="63.623047" xlink:href="#DejaVuSans-46"/>
      <use x="95.410156" xlink:href="#DejaVuSans-52"/>
     </g>
    </g>
    <g id="line2d_92">
     <path d="M 129.916406 231.601563 
L 149.916406 231.601563 
" style="fill:none;stroke:#800000;stroke-linecap:square;stroke-width:1.5;"/>
    </g>
    <g id="line2d_93"/>
    <g id="text_27">
     <!-- 0.5 -->
     <g transform="translate(157.916406 235.101563)scale(0.1 -0.1)">
      <use xlink:href="#DejaVuSans-48"/>
      <use x="63.623047" xlink:href="#DejaVuSans-46"/>
      <use x="95.410156" xlink:href="#DejaVuSans-53"/>
     </g>
    </g>
    <g id="line2d_94">
     <path d="M 129.916406 246.279688 
L 149.916406 246.279688 
" style="fill:none;stroke:#990000;stroke-linecap:square;stroke-width:1.5;"/>
    </g>
    <g id="line2d_95"/>
    <g id="text_28">
     <!-- 0.6 -->
     <g transform="translate(157.916406 249.779688)scale(0.1 -0.1)">
      <use xlink:href="#DejaVuSans-48"/>
      <use x="63.623047" xlink:href="#DejaVuSans-46"/>
      <use x="95.410156" xlink:href="#DejaVuSans-54"/>
     </g>
    </g>
    <g id="line2d_96">
     <path d="M 129.916406 260.957813 
L 149.916406 260.957813 
" style="fill:none;stroke:#b20000;stroke-linecap:square;stroke-width:1.5;"/>
    </g>
    <g id="line2d_97"/>
    <g id="text_29">
     <!-- 0.7 -->
     <g transform="translate(157.916406 264.457813)scale(0.1 -0.1)">
      <use xlink:href="#DejaVuSans-48"/>
      <use x="63.623047" xlink:href="#DejaVuSans-46"/>
      <use x="95.410156" xlink:href="#DejaVuSans-55"/>
     </g>
    </g>
    <g id="line2d_98">
     <path d="M 129.916406 275.635938 
L 149.916406 275.635938 
" style="fill:none;stroke:#cc0000;stroke-linecap:square;stroke-width:1.5;"/>
    </g>
    <g id="line2d_99"/>
    <g id="text_30">
     <!-- 0.8 -->
     <defs>
      <path d="M 31.78125 34.625 
Q 24.75 34.625 20.71875 30.859375 
Q 16.703125 27.09375 16.703125 20.515625 
Q 16.703125 13.921875 20.71875 10.15625 
Q 24.75 6.390625 31.78125 6.390625 
Q 38.8125 6.390625 42.859375 10.171875 
Q 46.921875 13.96875 46.921875 20.515625 
Q 46.921875 27.09375 42.890625 30.859375 
Q 38.875 34.625 31.78125 34.625 
z
M 21.921875 38.8125 
Q 15.578125 40.375 12.03125 44.71875 
Q 8.5 49.078125 8.5 55.328125 
Q 8.5 64.0625 14.71875 69.140625 
Q 20.953125 74.21875 31.78125 74.21875 
Q 42.671875 74.21875 48.875 69.140625 
Q 55.078125 64.0625 55.078125 55.328125 
Q 55.078125 49.078125 51.53125 44.71875 
Q 48 40.375 41.703125 38.8125 
Q 48.828125 37.15625 52.796875 32.3125 
Q 56.78125 27.484375 56.78125 20.515625 
Q 56.78125 9.90625 50.3125 4.234375 
Q 43.84375 -1.421875 31.78125 -1.421875 
Q 19.734375 -1.421875 13.25 4.234375 
Q 6.78125 9.90625 6.78125 20.515625 
Q 6.78125 27.484375 10.78125 32.3125 
Q 14.796875 37.15625 21.921875 38.8125 
z
M 18.3125 54.390625 
Q 18.3125 48.734375 21.84375 45.5625 
Q 25.390625 42.390625 31.78125 42.390625 
Q 38.140625 42.390625 41.71875 45.5625 
Q 45.3125 48.734375 45.3125 54.390625 
Q 45.3125 60.0625 41.71875 63.234375 
Q 38.140625 66.40625 31.78125 66.40625 
Q 25.390625 66.40625 21.84375 63.234375 
Q 18.3125 60.0625 18.3125 54.390625 
z
" id="DejaVuSans-56"/>
     </defs>
     <g transform="translate(157.916406 279.135938)scale(0.1 -0.1)">
      <use xlink:href="#DejaVuSans-48"/>
      <use x="63.623047" xlink:href="#DejaVuSans-46"/>
      <use x="95.410156" xlink:href="#DejaVuSans-56"/>
     </g>
    </g>
    <g id="line2d_100">
     <path d="M 129.916406 290.314062 
L 149.916406 290.314062 
" style="fill:none;stroke:#e60000;stroke-linecap:square;stroke-width:1.5;"/>
    </g>
    <g id="line2d_101"/>
    <g id="text_31">
     <!-- 0.9 -->
     <defs>
      <path d="M 10.984375 1.515625 
L 10.984375 10.5 
Q 14.703125 8.734375 18.5 7.8125 
Q 22.3125 6.890625 25.984375 6.890625 
Q 35.75 6.890625 40.890625 13.453125 
Q 46.046875 20.015625 46.78125 33.40625 
Q 43.953125 29.203125 39.59375 26.953125 
Q 35.25 24.703125 29.984375 24.703125 
Q 19.046875 24.703125 12.671875 31.3125 
Q 6.296875 37.9375 6.296875 49.421875 
Q 6.296875 60.640625 12.9375 67.421875 
Q 19.578125 74.21875 30.609375 74.21875 
Q 43.265625 74.21875 49.921875 64.515625 
Q 56.59375 54.828125 56.59375 36.375 
Q 56.59375 19.140625 48.40625 8.859375 
Q 40.234375 -1.421875 26.421875 -1.421875 
Q 22.703125 -1.421875 18.890625 -0.6875 
Q 15.09375 0.046875 10.984375 1.515625 
z
M 30.609375 32.421875 
Q 37.25 32.421875 41.125 36.953125 
Q 45.015625 41.5 45.015625 49.421875 
Q 45.015625 57.28125 41.125 61.84375 
Q 37.25 66.40625 30.609375 66.40625 
Q 23.96875 66.40625 20.09375 61.84375 
Q 16.21875 57.28125 16.21875 49.421875 
Q 16.21875 41.5 20.09375 36.953125 
Q 23.96875 32.421875 30.609375 32.421875 
z
" id="DejaVuSans-57"/>
     </defs>
     <g transform="translate(157.916406 293.814062)scale(0.1 -0.1)">
      <use xlink:href="#DejaVuSans-48"/>
      <use x="63.623047" xlink:href="#DejaVuSans-46"/>
      <use x="95.410156" xlink:href="#DejaVuSans-57"/>
     </g>
    </g>
   </g>
  </g>
 </g>
 <defs>
  <clipPath id="p372f9fe93b">
   <rect height="543.6" width="725.4" x="117" y="86.4"/>
  </clipPath>
 </defs>
</svg>
