<?xml version="1.0" encoding="utf-8" standalone="no"?>
<!DOCTYPE svg PUBLIC "-//W3C//DTD SVG 1.1//EN"
  "http://www.w3.org/Graphics/SVG/1.1/DTD/svg11.dtd">
<!-- Created with matplotlib (https://matplotlib.org/) -->
<svg height="720pt" version="1.1" viewBox="0 0 936 720" width="936pt" xmlns="http://www.w3.org/2000/svg" xmlns:xlink="http://www.w3.org/1999/xlink">
 <defs>
  <style type="text/css">
*{stroke-linecap:butt;stroke-linejoin:round;}
  </style>
 </defs>
 <g id="figure_1">
  <g id="patch_1">
   <path d="M 0 720 
L 936 720 
L 936 0 
L 0 0 
z
" style="fill:#ffffff;"/>
  </g>
  <g id="axes_1">
   <g id="patch_2">
    <path d="M 117 630 
L 842.4 630 
L 842.4 86.4 
L 117 86.4 
z
" style="fill:#ffffff;"/>
   </g>
   <g id="matplotlib.axis_1">
    <g id="xtick_1">
     <g id="line2d_1">
      <defs>
       <path d="M 0 0 
L 0 3.5 
" id="meeaec154d5" style="stroke:#000000;stroke-width:0.8;"/>
      </defs>
      <g>
       <use style="stroke:#000000;stroke-width:0.8;" x="149.972727" xlink:href="#meeaec154d5" y="630"/>
      </g>
     </g>
     <g id="text_1">
      <!-- 0 -->
      <defs>
       <path d="M 31.78125 66.40625 
Q 24.171875 66.40625 20.328125 58.90625 
Q 16.5 51.421875 16.5 36.375 
Q 16.5 21.390625 20.328125 13.890625 
Q 24.171875 6.390625 31.78125 6.390625 
Q 39.453125 6.390625 43.28125 13.890625 
Q 47.125 21.390625 47.125 36.375 
Q 47.125 51.421875 43.28125 58.90625 
Q 39.453125 66.40625 31.78125 66.40625 
z
M 31.78125 74.21875 
Q 44.046875 74.21875 50.515625 64.515625 
Q 56.984375 54.828125 56.984375 36.375 
Q 56.984375 17.96875 50.515625 8.265625 
Q 44.046875 -1.421875 31.78125 -1.421875 
Q 19.53125 -1.421875 13.0625 8.265625 
Q 6.59375 17.96875 6.59375 36.375 
Q 6.59375 54.828125 13.0625 64.515625 
Q 19.53125 74.21875 31.78125 74.21875 
z
" id="DejaVuSans-48"/>
      </defs>
      <g transform="translate(146.791477 644.598438)scale(0.1 -0.1)">
       <use xlink:href="#DejaVuSans-48"/>
      </g>
     </g>
    </g>
    <g id="xtick_2">
     <g id="line2d_2">
      <g>
       <use style="stroke:#000000;stroke-width:0.8;" x="243.233683" xlink:href="#meeaec154d5" y="630"/>
      </g>
     </g>
     <g id="text_2">
      <!-- 10 -->
      <defs>
       <path d="M 12.40625 8.296875 
L 28.515625 8.296875 
L 28.515625 63.921875 
L 10.984375 60.40625 
L 10.984375 69.390625 
L 28.421875 72.90625 
L 38.28125 72.90625 
L 38.28125 8.296875 
L 54.390625 8.296875 
L 54.390625 0 
L 12.40625 0 
z
" id="DejaVuSans-49"/>
      </defs>
      <g transform="translate(236.871183 644.598438)scale(0.1 -0.1)">
       <use xlink:href="#DejaVuSans-49"/>
       <use x="63.623047" xlink:href="#DejaVuSans-48"/>
      </g>
     </g>
    </g>
    <g id="xtick_3">
     <g id="line2d_3">
      <g>
       <use style="stroke:#000000;stroke-width:0.8;" x="336.49464" xlink:href="#meeaec154d5" y="630"/>
      </g>
     </g>
     <g id="text_3">
      <!-- 20 -->
      <defs>
       <path d="M 19.1875 8.296875 
L 53.609375 8.296875 
L 53.609375 0 
L 7.328125 0 
L 7.328125 8.296875 
Q 12.9375 14.109375 22.625 23.890625 
Q 32.328125 33.6875 34.8125 36.53125 
Q 39.546875 41.84375 41.421875 45.53125 
Q 43.3125 49.21875 43.3125 52.78125 
Q 43.3125 58.59375 39.234375 62.25 
Q 35.15625 65.921875 28.609375 65.921875 
Q 23.96875 65.921875 18.8125 64.3125 
Q 13.671875 62.703125 7.8125 59.421875 
L 7.8125 69.390625 
Q 13.765625 71.78125 18.9375 73 
Q 24.125 74.21875 28.421875 74.21875 
Q 39.75 74.21875 46.484375 68.546875 
Q 53.21875 62.890625 53.21875 53.421875 
Q 53.21875 48.921875 51.53125 44.890625 
Q 49.859375 40.875 45.40625 35.40625 
Q 44.1875 33.984375 37.640625 27.21875 
Q 31.109375 20.453125 19.1875 8.296875 
z
" id="DejaVuSans-50"/>
      </defs>
      <g transform="translate(330.13214 644.598438)scale(0.1 -0.1)">
       <use xlink:href="#DejaVuSans-50"/>
       <use x="63.623047" xlink:href="#DejaVuSans-48"/>
      </g>
     </g>
    </g>
    <g id="xtick_4">
     <g id="line2d_4">
      <g>
       <use style="stroke:#000000;stroke-width:0.8;" x="429.755596" xlink:href="#meeaec154d5" y="630"/>
      </g>
     </g>
     <g id="text_4">
      <!-- 30 -->
      <defs>
       <path d="M 40.578125 39.3125 
Q 47.65625 37.796875 51.625 33 
Q 55.609375 28.21875 55.609375 21.1875 
Q 55.609375 10.40625 48.1875 4.484375 
Q 40.765625 -1.421875 27.09375 -1.421875 
Q 22.515625 -1.421875 17.65625 -0.515625 
Q 12.796875 0.390625 7.625 2.203125 
L 7.625 11.71875 
Q 11.71875 9.328125 16.59375 8.109375 
Q 21.484375 6.890625 26.8125 6.890625 
Q 36.078125 6.890625 40.9375 10.546875 
Q 45.796875 14.203125 45.796875 21.1875 
Q 45.796875 27.640625 41.28125 31.265625 
Q 36.765625 34.90625 28.71875 34.90625 
L 20.21875 34.90625 
L 20.21875 43.015625 
L 29.109375 43.015625 
Q 36.375 43.015625 40.234375 45.921875 
Q 44.09375 48.828125 44.09375 54.296875 
Q 44.09375 59.90625 40.109375 62.90625 
Q 36.140625 65.921875 28.71875 65.921875 
Q 24.65625 65.921875 20.015625 65.03125 
Q 15.375 64.15625 9.8125 62.3125 
L 9.8125 71.09375 
Q 15.4375 72.65625 20.34375 73.4375 
Q 25.25 74.21875 29.59375 74.21875 
Q 40.828125 74.21875 47.359375 69.109375 
Q 53.90625 64.015625 53.90625 55.328125 
Q 53.90625 49.265625 50.4375 45.09375 
Q 46.96875 40.921875 40.578125 39.3125 
z
" id="DejaVuSans-51"/>
      </defs>
      <g transform="translate(423.393096 644.598438)scale(0.1 -0.1)">
       <use xlink:href="#DejaVuSans-51"/>
       <use x="63.623047" xlink:href="#DejaVuSans-48"/>
      </g>
     </g>
    </g>
    <g id="xtick_5">
     <g id="line2d_5">
      <g>
       <use style="stroke:#000000;stroke-width:0.8;" x="523.016552" xlink:href="#meeaec154d5" y="630"/>
      </g>
     </g>
     <g id="text_5">
      <!-- 40 -->
      <defs>
       <path d="M 37.796875 64.3125 
L 12.890625 25.390625 
L 37.796875 25.390625 
z
M 35.203125 72.90625 
L 47.609375 72.90625 
L 47.609375 25.390625 
L 58.015625 25.390625 
L 58.015625 17.1875 
L 47.609375 17.1875 
L 47.609375 0 
L 37.796875 0 
L 37.796875 17.1875 
L 4.890625 17.1875 
L 4.890625 26.703125 
z
" id="DejaVuSans-52"/>
      </defs>
      <g transform="translate(516.654052 644.598438)scale(0.1 -0.1)">
       <use xlink:href="#DejaVuSans-52"/>
       <use x="63.623047" xlink:href="#DejaVuSans-48"/>
      </g>
     </g>
    </g>
    <g id="xtick_6">
     <g id="line2d_6">
      <g>
       <use style="stroke:#000000;stroke-width:0.8;" x="616.277508" xlink:href="#meeaec154d5" y="630"/>
      </g>
     </g>
     <g id="text_6">
      <!-- 50 -->
      <defs>
       <path d="M 10.796875 72.90625 
L 49.515625 72.90625 
L 49.515625 64.59375 
L 19.828125 64.59375 
L 19.828125 46.734375 
Q 21.96875 47.46875 24.109375 47.828125 
Q 26.265625 48.1875 28.421875 48.1875 
Q 40.625 48.1875 47.75 41.5 
Q 54.890625 34.8125 54.890625 23.390625 
Q 54.890625 11.625 47.5625 5.09375 
Q 40.234375 -1.421875 26.90625 -1.421875 
Q 22.3125 -1.421875 17.546875 -0.640625 
Q 12.796875 0.140625 7.71875 1.703125 
L 7.71875 11.625 
Q 12.109375 9.234375 16.796875 8.0625 
Q 21.484375 6.890625 26.703125 6.890625 
Q 35.15625 6.890625 40.078125 11.328125 
Q 45.015625 15.765625 45.015625 23.390625 
Q 45.015625 31 40.078125 35.4375 
Q 35.15625 39.890625 26.703125 39.890625 
Q 22.75 39.890625 18.8125 39.015625 
Q 14.890625 38.140625 10.796875 36.28125 
z
" id="DejaVuSans-53"/>
      </defs>
      <g transform="translate(609.915008 644.598438)scale(0.1 -0.1)">
       <use xlink:href="#DejaVuSans-53"/>
       <use x="63.623047" xlink:href="#DejaVuSans-48"/>
      </g>
     </g>
    </g>
    <g id="xtick_7">
     <g id="line2d_7">
      <g>
       <use style="stroke:#000000;stroke-width:0.8;" x="709.538464" xlink:href="#meeaec154d5" y="630"/>
      </g>
     </g>
     <g id="text_7">
      <!-- 60 -->
      <defs>
       <path d="M 33.015625 40.375 
Q 26.375 40.375 22.484375 35.828125 
Q 18.609375 31.296875 18.609375 23.390625 
Q 18.609375 15.53125 22.484375 10.953125 
Q 26.375 6.390625 33.015625 6.390625 
Q 39.65625 6.390625 43.53125 10.953125 
Q 47.40625 15.53125 47.40625 23.390625 
Q 47.40625 31.296875 43.53125 35.828125 
Q 39.65625 40.375 33.015625 40.375 
z
M 52.59375 71.296875 
L 52.59375 62.3125 
Q 48.875 64.0625 45.09375 64.984375 
Q 41.3125 65.921875 37.59375 65.921875 
Q 27.828125 65.921875 22.671875 59.328125 
Q 17.53125 52.734375 16.796875 39.40625 
Q 19.671875 43.65625 24.015625 45.921875 
Q 28.375 48.1875 33.59375 48.1875 
Q 44.578125 48.1875 50.953125 41.515625 
Q 57.328125 34.859375 57.328125 23.390625 
Q 57.328125 12.15625 50.6875 5.359375 
Q 44.046875 -1.421875 33.015625 -1.421875 
Q 20.359375 -1.421875 13.671875 8.265625 
Q 6.984375 17.96875 6.984375 36.375 
Q 6.984375 53.65625 15.1875 63.9375 
Q 23.390625 74.21875 37.203125 74.21875 
Q 40.921875 74.21875 44.703125 73.484375 
Q 48.484375 72.75 52.59375 71.296875 
z
" id="DejaVuSans-54"/>
      </defs>
      <g transform="translate(703.175964 644.598438)scale(0.1 -0.1)">
       <use xlink:href="#DejaVuSans-54"/>
       <use x="63.623047" xlink:href="#DejaVuSans-48"/>
      </g>
     </g>
    </g>
    <g id="xtick_8">
     <g id="line2d_8">
      <g>
       <use style="stroke:#000000;stroke-width:0.8;" x="802.799421" xlink:href="#meeaec154d5" y="630"/>
      </g>
     </g>
     <g id="text_8">
      <!-- 70 -->
      <defs>
       <path d="M 8.203125 72.90625 
L 55.078125 72.90625 
L 55.078125 68.703125 
L 28.609375 0 
L 18.3125 0 
L 43.21875 64.59375 
L 8.203125 64.59375 
z
" id="DejaVuSans-55"/>
      </defs>
      <g transform="translate(796.436921 644.598438)scale(0.1 -0.1)">
       <use xlink:href="#DejaVuSans-55"/>
       <use x="63.623047" xlink:href="#DejaVuSans-48"/>
      </g>
     </g>
    </g>
    <g id="text_9">
     <!-- norm distance -&gt; sqrt(x^2 + y^2) -->
     <defs>
      <path d="M 54.890625 33.015625 
L 54.890625 0 
L 45.90625 0 
L 45.90625 32.71875 
Q 45.90625 40.484375 42.875 44.328125 
Q 39.84375 48.1875 33.796875 48.1875 
Q 26.515625 48.1875 22.3125 43.546875 
Q 18.109375 38.921875 18.109375 30.90625 
L 18.109375 0 
L 9.078125 0 
L 9.078125 54.6875 
L 18.109375 54.6875 
L 18.109375 46.1875 
Q 21.34375 51.125 25.703125 53.5625 
Q 30.078125 56 35.796875 56 
Q 45.21875 56 50.046875 50.171875 
Q 54.890625 44.34375 54.890625 33.015625 
z
" id="DejaVuSans-110"/>
      <path d="M 30.609375 48.390625 
Q 23.390625 48.390625 19.1875 42.75 
Q 14.984375 37.109375 14.984375 27.296875 
Q 14.984375 17.484375 19.15625 11.84375 
Q 23.34375 6.203125 30.609375 6.203125 
Q 37.796875 6.203125 41.984375 11.859375 
Q 46.1875 17.53125 46.1875 27.296875 
Q 46.1875 37.015625 41.984375 42.703125 
Q 37.796875 48.390625 30.609375 48.390625 
z
M 30.609375 56 
Q 42.328125 56 49.015625 48.375 
Q 55.71875 40.765625 55.71875 27.296875 
Q 55.71875 13.875 49.015625 6.21875 
Q 42.328125 -1.421875 30.609375 -1.421875 
Q 18.84375 -1.421875 12.171875 6.21875 
Q 5.515625 13.875 5.515625 27.296875 
Q 5.515625 40.765625 12.171875 48.375 
Q 18.84375 56 30.609375 56 
z
" id="DejaVuSans-111"/>
      <path d="M 41.109375 46.296875 
Q 39.59375 47.171875 37.8125 47.578125 
Q 36.03125 48 33.890625 48 
Q 26.265625 48 22.1875 43.046875 
Q 18.109375 38.09375 18.109375 28.8125 
L 18.109375 0 
L 9.078125 0 
L 9.078125 54.6875 
L 18.109375 54.6875 
L 18.109375 46.1875 
Q 20.953125 51.171875 25.484375 53.578125 
Q 30.03125 56 36.53125 56 
Q 37.453125 56 38.578125 55.875 
Q 39.703125 55.765625 41.0625 55.515625 
z
" id="DejaVuSans-114"/>
      <path d="M 52 44.1875 
Q 55.375 50.25 60.0625 53.125 
Q 64.75 56 71.09375 56 
Q 79.640625 56 84.28125 50.015625 
Q 88.921875 44.046875 88.921875 33.015625 
L 88.921875 0 
L 79.890625 0 
L 79.890625 32.71875 
Q 79.890625 40.578125 77.09375 44.375 
Q 74.3125 48.1875 68.609375 48.1875 
Q 61.625 48.1875 57.5625 43.546875 
Q 53.515625 38.921875 53.515625 30.90625 
L 53.515625 0 
L 44.484375 0 
L 44.484375 32.71875 
Q 44.484375 40.625 41.703125 44.40625 
Q 38.921875 48.1875 33.109375 48.1875 
Q 26.21875 48.1875 22.15625 43.53125 
Q 18.109375 38.875 18.109375 30.90625 
L 18.109375 0 
L 9.078125 0 
L 9.078125 54.6875 
L 18.109375 54.6875 
L 18.109375 46.1875 
Q 21.1875 51.21875 25.484375 53.609375 
Q 29.78125 56 35.6875 56 
Q 41.65625 56 45.828125 52.96875 
Q 50 49.953125 52 44.1875 
z
" id="DejaVuSans-109"/>
      <path id="DejaVuSans-32"/>
      <path d="M 45.40625 46.390625 
L 45.40625 75.984375 
L 54.390625 75.984375 
L 54.390625 0 
L 45.40625 0 
L 45.40625 8.203125 
Q 42.578125 3.328125 38.25 0.953125 
Q 33.9375 -1.421875 27.875 -1.421875 
Q 17.96875 -1.421875 11.734375 6.484375 
Q 5.515625 14.40625 5.515625 27.296875 
Q 5.515625 40.1875 11.734375 48.09375 
Q 17.96875 56 27.875 56 
Q 33.9375 56 38.25 53.625 
Q 42.578125 51.265625 45.40625 46.390625 
z
M 14.796875 27.296875 
Q 14.796875 17.390625 18.875 11.75 
Q 22.953125 6.109375 30.078125 6.109375 
Q 37.203125 6.109375 41.296875 11.75 
Q 45.40625 17.390625 45.40625 27.296875 
Q 45.40625 37.203125 41.296875 42.84375 
Q 37.203125 48.484375 30.078125 48.484375 
Q 22.953125 48.484375 18.875 42.84375 
Q 14.796875 37.203125 14.796875 27.296875 
z
" id="DejaVuSans-100"/>
      <path d="M 9.421875 54.6875 
L 18.40625 54.6875 
L 18.40625 0 
L 9.421875 0 
z
M 9.421875 75.984375 
L 18.40625 75.984375 
L 18.40625 64.59375 
L 9.421875 64.59375 
z
" id="DejaVuSans-105"/>
      <path d="M 44.28125 53.078125 
L 44.28125 44.578125 
Q 40.484375 46.53125 36.375 47.5 
Q 32.28125 48.484375 27.875 48.484375 
Q 21.1875 48.484375 17.84375 46.4375 
Q 14.5 44.390625 14.5 40.28125 
Q 14.5 37.15625 16.890625 35.375 
Q 19.28125 33.59375 26.515625 31.984375 
L 29.59375 31.296875 
Q 39.15625 29.25 43.1875 25.515625 
Q 47.21875 21.78125 47.21875 15.09375 
Q 47.21875 7.46875 41.1875 3.015625 
Q 35.15625 -1.421875 24.609375 -1.421875 
Q 20.21875 -1.421875 15.453125 -0.5625 
Q 10.6875 0.296875 5.421875 2 
L 5.421875 11.28125 
Q 10.40625 8.6875 15.234375 7.390625 
Q 20.0625 6.109375 24.8125 6.109375 
Q 31.15625 6.109375 34.5625 8.28125 
Q 37.984375 10.453125 37.984375 14.40625 
Q 37.984375 18.0625 35.515625 20.015625 
Q 33.0625 21.96875 24.703125 23.78125 
L 21.578125 24.515625 
Q 13.234375 26.265625 9.515625 29.90625 
Q 5.8125 33.546875 5.8125 39.890625 
Q 5.8125 47.609375 11.28125 51.796875 
Q 16.75 56 26.8125 56 
Q 31.78125 56 36.171875 55.265625 
Q 40.578125 54.546875 44.28125 53.078125 
z
" id="DejaVuSans-115"/>
      <path d="M 18.3125 70.21875 
L 18.3125 54.6875 
L 36.8125 54.6875 
L 36.8125 47.703125 
L 18.3125 47.703125 
L 18.3125 18.015625 
Q 18.3125 11.328125 20.140625 9.421875 
Q 21.96875 7.515625 27.59375 7.515625 
L 36.8125 7.515625 
L 36.8125 0 
L 27.59375 0 
Q 17.1875 0 13.234375 3.875 
Q 9.28125 7.765625 9.28125 18.015625 
L 9.28125 47.703125 
L 2.6875 47.703125 
L 2.6875 54.6875 
L 9.28125 54.6875 
L 9.28125 70.21875 
z
" id="DejaVuSans-116"/>
      <path d="M 34.28125 27.484375 
Q 23.390625 27.484375 19.1875 25 
Q 14.984375 22.515625 14.984375 16.5 
Q 14.984375 11.71875 18.140625 8.90625 
Q 21.296875 6.109375 26.703125 6.109375 
Q 34.1875 6.109375 38.703125 11.40625 
Q 43.21875 16.703125 43.21875 25.484375 
L 43.21875 27.484375 
z
M 52.203125 31.203125 
L 52.203125 0 
L 43.21875 0 
L 43.21875 8.296875 
Q 40.140625 3.328125 35.546875 0.953125 
Q 30.953125 -1.421875 24.3125 -1.421875 
Q 15.921875 -1.421875 10.953125 3.296875 
Q 6 8.015625 6 15.921875 
Q 6 25.140625 12.171875 29.828125 
Q 18.359375 34.515625 30.609375 34.515625 
L 43.21875 34.515625 
L 43.21875 35.40625 
Q 43.21875 41.609375 39.140625 45 
Q 35.0625 48.390625 27.6875 48.390625 
Q 23 48.390625 18.546875 47.265625 
Q 14.109375 46.140625 10.015625 43.890625 
L 10.015625 52.203125 
Q 14.9375 54.109375 19.578125 55.046875 
Q 24.21875 56 28.609375 56 
Q 40.484375 56 46.34375 49.84375 
Q 52.203125 43.703125 52.203125 31.203125 
z
" id="DejaVuSans-97"/>
      <path d="M 48.78125 52.59375 
L 48.78125 44.1875 
Q 44.96875 46.296875 41.140625 47.34375 
Q 37.3125 48.390625 33.40625 48.390625 
Q 24.65625 48.390625 19.8125 42.84375 
Q 14.984375 37.3125 14.984375 27.296875 
Q 14.984375 17.28125 19.8125 11.734375 
Q 24.65625 6.203125 33.40625 6.203125 
Q 37.3125 6.203125 41.140625 7.25 
Q 44.96875 8.296875 48.78125 10.40625 
L 48.78125 2.09375 
Q 45.015625 0.34375 40.984375 -0.53125 
Q 36.96875 -1.421875 32.421875 -1.421875 
Q 20.0625 -1.421875 12.78125 6.34375 
Q 5.515625 14.109375 5.515625 27.296875 
Q 5.515625 40.671875 12.859375 48.328125 
Q 20.21875 56 33.015625 56 
Q 37.15625 56 41.109375 55.140625 
Q 45.0625 54.296875 48.78125 52.59375 
z
" id="DejaVuSans-99"/>
      <path d="M 56.203125 29.59375 
L 56.203125 25.203125 
L 14.890625 25.203125 
Q 15.484375 15.921875 20.484375 11.0625 
Q 25.484375 6.203125 34.421875 6.203125 
Q 39.59375 6.203125 44.453125 7.46875 
Q 49.3125 8.734375 54.109375 11.28125 
L 54.109375 2.78125 
Q 49.265625 0.734375 44.1875 -0.34375 
Q 39.109375 -1.421875 33.890625 -1.421875 
Q 20.796875 -1.421875 13.15625 6.1875 
Q 5.515625 13.8125 5.515625 26.8125 
Q 5.515625 40.234375 12.765625 48.109375 
Q 20.015625 56 32.328125 56 
Q 43.359375 56 49.78125 48.890625 
Q 56.203125 41.796875 56.203125 29.59375 
z
M 47.21875 32.234375 
Q 47.125 39.59375 43.09375 43.984375 
Q 39.0625 48.390625 32.421875 48.390625 
Q 24.90625 48.390625 20.390625 44.140625 
Q 15.875 39.890625 15.1875 32.171875 
z
" id="DejaVuSans-101"/>
      <path d="M 4.890625 31.390625 
L 31.203125 31.390625 
L 31.203125 23.390625 
L 4.890625 23.390625 
z
" id="DejaVuSans-45"/>
      <path d="M 10.59375 49.21875 
L 10.59375 58.109375 
L 73.1875 35.40625 
L 73.1875 27.296875 
L 10.59375 4.59375 
L 10.59375 13.484375 
L 60.890625 31.296875 
z
" id="DejaVuSans-62"/>
      <path d="M 14.796875 27.296875 
Q 14.796875 17.390625 18.875 11.75 
Q 22.953125 6.109375 30.078125 6.109375 
Q 37.203125 6.109375 41.296875 11.75 
Q 45.40625 17.390625 45.40625 27.296875 
Q 45.40625 37.203125 41.296875 42.84375 
Q 37.203125 48.484375 30.078125 48.484375 
Q 22.953125 48.484375 18.875 42.84375 
Q 14.796875 37.203125 14.796875 27.296875 
z
M 45.40625 8.203125 
Q 42.578125 3.328125 38.25 0.953125 
Q 33.9375 -1.421875 27.875 -1.421875 
Q 17.96875 -1.421875 11.734375 6.484375 
Q 5.515625 14.40625 5.515625 27.296875 
Q 5.515625 40.1875 11.734375 48.09375 
Q 17.96875 56 27.875 56 
Q 33.9375 56 38.25 53.625 
Q 42.578125 51.265625 45.40625 46.390625 
L 45.40625 54.6875 
L 54.390625 54.6875 
L 54.390625 -20.796875 
L 45.40625 -20.796875 
z
" id="DejaVuSans-113"/>
      <path d="M 31 75.875 
Q 24.46875 64.65625 21.28125 53.65625 
Q 18.109375 42.671875 18.109375 31.390625 
Q 18.109375 20.125 21.3125 9.0625 
Q 24.515625 -2 31 -13.1875 
L 23.1875 -13.1875 
Q 15.875 -1.703125 12.234375 9.375 
Q 8.59375 20.453125 8.59375 31.390625 
Q 8.59375 42.28125 12.203125 53.3125 
Q 15.828125 64.359375 23.1875 75.875 
z
" id="DejaVuSans-40"/>
      <path d="M 54.890625 54.6875 
L 35.109375 28.078125 
L 55.90625 0 
L 45.3125 0 
L 29.390625 21.484375 
L 13.484375 0 
L 2.875 0 
L 24.125 28.609375 
L 4.6875 54.6875 
L 15.28125 54.6875 
L 29.78125 35.203125 
L 44.28125 54.6875 
z
" id="DejaVuSans-120"/>
      <path d="M 46.6875 72.90625 
L 73.1875 45.703125 
L 63.375 45.703125 
L 41.890625 64.984375 
L 20.40625 45.703125 
L 10.59375 45.703125 
L 37.109375 72.90625 
z
" id="DejaVuSans-94"/>
      <path d="M 46 62.703125 
L 46 35.5 
L 73.1875 35.5 
L 73.1875 27.203125 
L 46 27.203125 
L 46 0 
L 37.796875 0 
L 37.796875 27.203125 
L 10.59375 27.203125 
L 10.59375 35.5 
L 37.796875 35.5 
L 37.796875 62.703125 
z
" id="DejaVuSans-43"/>
      <path d="M 32.171875 -5.078125 
Q 28.375 -14.84375 24.75 -17.8125 
Q 21.140625 -20.796875 15.09375 -20.796875 
L 7.90625 -20.796875 
L 7.90625 -13.28125 
L 13.1875 -13.28125 
Q 16.890625 -13.28125 18.9375 -11.515625 
Q 21 -9.765625 23.484375 -3.21875 
L 25.09375 0.875 
L 2.984375 54.6875 
L 12.5 54.6875 
L 29.59375 11.921875 
L 46.6875 54.6875 
L 56.203125 54.6875 
z
" id="DejaVuSans-121"/>
      <path d="M 8.015625 75.875 
L 15.828125 75.875 
Q 23.140625 64.359375 26.78125 53.3125 
Q 30.421875 42.28125 30.421875 31.390625 
Q 30.421875 20.453125 26.78125 9.375 
Q 23.140625 -1.703125 15.828125 -13.1875 
L 8.015625 -13.1875 
Q 14.5 -2 17.703125 9.0625 
Q 20.90625 20.125 20.90625 31.390625 
Q 20.90625 42.671875 17.703125 53.65625 
Q 14.5 64.65625 8.015625 75.875 
z
" id="DejaVuSans-41"/>
     </defs>
     <g transform="translate(392.874219 658.276562)scale(0.1 -0.1)">
      <use xlink:href="#DejaVuSans-110"/>
      <use x="63.378906" xlink:href="#DejaVuSans-111"/>
      <use x="124.560547" xlink:href="#DejaVuSans-114"/>
      <use x="165.658203" xlink:href="#DejaVuSans-109"/>
      <use x="263.070312" xlink:href="#DejaVuSans-32"/>
      <use x="294.857422" xlink:href="#DejaVuSans-100"/>
      <use x="358.333984" xlink:href="#DejaVuSans-105"/>
      <use x="386.117188" xlink:href="#DejaVuSans-115"/>
      <use x="438.216797" xlink:href="#DejaVuSans-116"/>
      <use x="477.425781" xlink:href="#DejaVuSans-97"/>
      <use x="538.705078" xlink:href="#DejaVuSans-110"/>
      <use x="602.083984" xlink:href="#DejaVuSans-99"/>
      <use x="657.064453" xlink:href="#DejaVuSans-101"/>
      <use x="718.587891" xlink:href="#DejaVuSans-32"/>
      <use x="750.375" xlink:href="#DejaVuSans-45"/>
      <use x="786.458984" xlink:href="#DejaVuSans-62"/>
      <use x="870.248047" xlink:href="#DejaVuSans-32"/>
      <use x="902.035156" xlink:href="#DejaVuSans-115"/>
      <use x="954.134766" xlink:href="#DejaVuSans-113"/>
      <use x="1017.611328" xlink:href="#DejaVuSans-114"/>
      <use x="1058.724609" xlink:href="#DejaVuSans-116"/>
      <use x="1097.933594" xlink:href="#DejaVuSans-40"/>
      <use x="1136.947266" xlink:href="#DejaVuSans-120"/>
      <use x="1196.126953" xlink:href="#DejaVuSans-94"/>
      <use x="1279.916016" xlink:href="#DejaVuSans-50"/>
      <use x="1343.539062" xlink:href="#DejaVuSans-32"/>
      <use x="1375.326172" xlink:href="#DejaVuSans-43"/>
      <use x="1459.115234" xlink:href="#DejaVuSans-32"/>
      <use x="1490.902344" xlink:href="#DejaVuSans-121"/>
      <use x="1550.082031" xlink:href="#DejaVuSans-94"/>
      <use x="1633.871094" xlink:href="#DejaVuSans-50"/>
      <use x="1697.494141" xlink:href="#DejaVuSans-41"/>
     </g>
    </g>
   </g>
   <g id="matplotlib.axis_2">
    <g id="ytick_1">
     <g id="line2d_9">
      <defs>
       <path d="M 0 0 
L -3.5 0 
" id="ma48abf0103" style="stroke:#000000;stroke-width:0.8;"/>
      </defs>
      <g>
       <use style="stroke:#000000;stroke-width:0.8;" x="117" xlink:href="#ma48abf0103" y="586.551092"/>
      </g>
     </g>
     <g id="text_10">
      <!-- $\mathdefault{10^{0}}$ -->
      <g transform="translate(92.4 590.350311)scale(0.1 -0.1)">
       <use transform="translate(0 0.765625)" xlink:href="#DejaVuSans-49"/>
       <use transform="translate(63.623047 0.765625)" xlink:href="#DejaVuSans-48"/>
       <use transform="translate(128.203125 39.046875)scale(0.7)" xlink:href="#DejaVuSans-48"/>
      </g>
     </g>
    </g>
    <g id="ytick_2">
     <g id="line2d_10">
      <g>
       <use style="stroke:#000000;stroke-width:0.8;" x="117" xlink:href="#ma48abf0103" y="490.987772"/>
      </g>
     </g>
     <g id="text_11">
      <!-- $\mathdefault{10^{1}}$ -->
      <g transform="translate(92.4 494.786991)scale(0.1 -0.1)">
       <use transform="translate(0 0.684375)" xlink:href="#DejaVuSans-49"/>
       <use transform="translate(63.623047 0.684375)" xlink:href="#DejaVuSans-48"/>
       <use transform="translate(128.203125 38.965625)scale(0.7)" xlink:href="#DejaVuSans-49"/>
      </g>
     </g>
    </g>
    <g id="ytick_3">
     <g id="line2d_11">
      <g>
       <use style="stroke:#000000;stroke-width:0.8;" x="117" xlink:href="#ma48abf0103" y="395.424452"/>
      </g>
     </g>
     <g id="text_12">
      <!-- $\mathdefault{10^{2}}$ -->
      <g transform="translate(92.4 399.223671)scale(0.1 -0.1)">
       <use transform="translate(0 0.765625)" xlink:href="#DejaVuSans-49"/>
       <use transform="translate(63.623047 0.765625)" xlink:href="#DejaVuSans-48"/>
       <use transform="translate(128.203125 39.046875)scale(0.7)" xlink:href="#DejaVuSans-50"/>
      </g>
     </g>
    </g>
    <g id="ytick_4">
     <g id="line2d_12">
      <g>
       <use style="stroke:#000000;stroke-width:0.8;" x="117" xlink:href="#ma48abf0103" y="299.861132"/>
      </g>
     </g>
     <g id="text_13">
      <!-- $\mathdefault{10^{3}}$ -->
      <g transform="translate(92.4 303.660351)scale(0.1 -0.1)">
       <use transform="translate(0 0.765625)" xlink:href="#DejaVuSans-49"/>
       <use transform="translate(63.623047 0.765625)" xlink:href="#DejaVuSans-48"/>
       <use transform="translate(128.203125 39.046875)scale(0.7)" xlink:href="#DejaVuSans-51"/>
      </g>
     </g>
    </g>
    <g id="ytick_5">
     <g id="line2d_13">
      <g>
       <use style="stroke:#000000;stroke-width:0.8;" x="117" xlink:href="#ma48abf0103" y="204.297812"/>
      </g>
     </g>
     <g id="text_14">
      <!-- $\mathdefault{10^{4}}$ -->
      <g transform="translate(92.4 208.097031)scale(0.1 -0.1)">
       <use transform="translate(0 0.684375)" xlink:href="#DejaVuSans-49"/>
       <use transform="translate(63.623047 0.684375)" xlink:href="#DejaVuSans-48"/>
       <use transform="translate(128.203125 38.965625)scale(0.7)" xlink:href="#DejaVuSans-52"/>
      </g>
     </g>
    </g>
    <g id="ytick_6">
     <g id="line2d_14">
      <g>
       <use style="stroke:#000000;stroke-width:0.8;" x="117" xlink:href="#ma48abf0103" y="108.734492"/>
      </g>
     </g>
     <g id="text_15">
      <!-- $\mathdefault{10^{5}}$ -->
      <g transform="translate(92.4 112.533711)scale(0.1 -0.1)">
       <use transform="translate(0 0.684375)" xlink:href="#DejaVuSans-49"/>
       <use transform="translate(63.623047 0.684375)" xlink:href="#DejaVuSans-48"/>
       <use transform="translate(128.203125 38.965625)scale(0.7)" xlink:href="#DejaVuSans-53"/>
      </g>
     </g>
    </g>
    <g id="ytick_7">
     <g id="line2d_15">
      <defs>
       <path d="M 0 0 
L -2 0 
" id="mc62f2e5daf" style="stroke:#000000;stroke-width:0.6;"/>
      </defs>
      <g>
       <use style="stroke:#000000;stroke-width:0.6;" x="117" xlink:href="#mc62f2e5daf" y="624.57956"/>
      </g>
     </g>
    </g>
    <g id="ytick_8">
     <g id="line2d_16">
      <g>
       <use style="stroke:#000000;stroke-width:0.6;" x="117" xlink:href="#mc62f2e5daf" y="615.318518"/>
      </g>
     </g>
    </g>
    <g id="ytick_9">
     <g id="line2d_17">
      <g>
       <use style="stroke:#000000;stroke-width:0.6;" x="117" xlink:href="#mc62f2e5daf" y="607.751695"/>
      </g>
     </g>
    </g>
    <g id="ytick_10">
     <g id="line2d_18">
      <g>
       <use style="stroke:#000000;stroke-width:0.6;" x="117" xlink:href="#mc62f2e5daf" y="601.354037"/>
      </g>
     </g>
    </g>
    <g id="ytick_11">
     <g id="line2d_19">
      <g>
       <use style="stroke:#000000;stroke-width:0.6;" x="117" xlink:href="#mc62f2e5daf" y="595.812134"/>
      </g>
     </g>
    </g>
    <g id="ytick_12">
     <g id="line2d_20">
      <g>
       <use style="stroke:#000000;stroke-width:0.6;" x="117" xlink:href="#mc62f2e5daf" y="590.92383"/>
      </g>
     </g>
    </g>
    <g id="ytick_13">
     <g id="line2d_21">
      <g>
       <use style="stroke:#000000;stroke-width:0.6;" x="117" xlink:href="#mc62f2e5daf" y="557.783666"/>
      </g>
     </g>
    </g>
    <g id="ytick_14">
     <g id="line2d_22">
      <g>
       <use style="stroke:#000000;stroke-width:0.6;" x="117" xlink:href="#mc62f2e5daf" y="540.955801"/>
      </g>
     </g>
    </g>
    <g id="ytick_15">
     <g id="line2d_23">
      <g>
       <use style="stroke:#000000;stroke-width:0.6;" x="117" xlink:href="#mc62f2e5daf" y="529.01624"/>
      </g>
     </g>
    </g>
    <g id="ytick_16">
     <g id="line2d_24">
      <g>
       <use style="stroke:#000000;stroke-width:0.6;" x="117" xlink:href="#mc62f2e5daf" y="519.755198"/>
      </g>
     </g>
    </g>
    <g id="ytick_17">
     <g id="line2d_25">
      <g>
       <use style="stroke:#000000;stroke-width:0.6;" x="117" xlink:href="#mc62f2e5daf" y="512.188375"/>
      </g>
     </g>
    </g>
    <g id="ytick_18">
     <g id="line2d_26">
      <g>
       <use style="stroke:#000000;stroke-width:0.6;" x="117" xlink:href="#mc62f2e5daf" y="505.790717"/>
      </g>
     </g>
    </g>
    <g id="ytick_19">
     <g id="line2d_27">
      <g>
       <use style="stroke:#000000;stroke-width:0.6;" x="117" xlink:href="#mc62f2e5daf" y="500.248815"/>
      </g>
     </g>
    </g>
    <g id="ytick_20">
     <g id="line2d_28">
      <g>
       <use style="stroke:#000000;stroke-width:0.6;" x="117" xlink:href="#mc62f2e5daf" y="495.36051"/>
      </g>
     </g>
    </g>
    <g id="ytick_21">
     <g id="line2d_29">
      <g>
       <use style="stroke:#000000;stroke-width:0.6;" x="117" xlink:href="#mc62f2e5daf" y="462.220346"/>
      </g>
     </g>
    </g>
    <g id="ytick_22">
     <g id="line2d_30">
      <g>
       <use style="stroke:#000000;stroke-width:0.6;" x="117" xlink:href="#mc62f2e5daf" y="445.392481"/>
      </g>
     </g>
    </g>
    <g id="ytick_23">
     <g id="line2d_31">
      <g>
       <use style="stroke:#000000;stroke-width:0.6;" x="117" xlink:href="#mc62f2e5daf" y="433.45292"/>
      </g>
     </g>
    </g>
    <g id="ytick_24">
     <g id="line2d_32">
      <g>
       <use style="stroke:#000000;stroke-width:0.6;" x="117" xlink:href="#mc62f2e5daf" y="424.191878"/>
      </g>
     </g>
    </g>
    <g id="ytick_25">
     <g id="line2d_33">
      <g>
       <use style="stroke:#000000;stroke-width:0.6;" x="117" xlink:href="#mc62f2e5daf" y="416.625055"/>
      </g>
     </g>
    </g>
    <g id="ytick_26">
     <g id="line2d_34">
      <g>
       <use style="stroke:#000000;stroke-width:0.6;" x="117" xlink:href="#mc62f2e5daf" y="410.227397"/>
      </g>
     </g>
    </g>
    <g id="ytick_27">
     <g id="line2d_35">
      <g>
       <use style="stroke:#000000;stroke-width:0.6;" x="117" xlink:href="#mc62f2e5daf" y="404.685495"/>
      </g>
     </g>
    </g>
    <g id="ytick_28">
     <g id="line2d_36">
      <g>
       <use style="stroke:#000000;stroke-width:0.6;" x="117" xlink:href="#mc62f2e5daf" y="399.79719"/>
      </g>
     </g>
    </g>
    <g id="ytick_29">
     <g id="line2d_37">
      <g>
       <use style="stroke:#000000;stroke-width:0.6;" x="117" xlink:href="#mc62f2e5daf" y="366.657026"/>
      </g>
     </g>
    </g>
    <g id="ytick_30">
     <g id="line2d_38">
      <g>
       <use style="stroke:#000000;stroke-width:0.6;" x="117" xlink:href="#mc62f2e5daf" y="349.829161"/>
      </g>
     </g>
    </g>
    <g id="ytick_31">
     <g id="line2d_39">
      <g>
       <use style="stroke:#000000;stroke-width:0.6;" x="117" xlink:href="#mc62f2e5daf" y="337.8896"/>
      </g>
     </g>
    </g>
    <g id="ytick_32">
     <g id="line2d_40">
      <g>
       <use style="stroke:#000000;stroke-width:0.6;" x="117" xlink:href="#mc62f2e5daf" y="328.628558"/>
      </g>
     </g>
    </g>
    <g id="ytick_33">
     <g id="line2d_41">
      <g>
       <use style="stroke:#000000;stroke-width:0.6;" x="117" xlink:href="#mc62f2e5daf" y="321.061735"/>
      </g>
     </g>
    </g>
    <g id="ytick_34">
     <g id="line2d_42">
      <g>
       <use style="stroke:#000000;stroke-width:0.6;" x="117" xlink:href="#mc62f2e5daf" y="314.664078"/>
      </g>
     </g>
    </g>
    <g id="ytick_35">
     <g id="line2d_43">
      <g>
       <use style="stroke:#000000;stroke-width:0.6;" x="117" xlink:href="#mc62f2e5daf" y="309.122175"/>
      </g>
     </g>
    </g>
    <g id="ytick_36">
     <g id="line2d_44">
      <g>
       <use style="stroke:#000000;stroke-width:0.6;" x="117" xlink:href="#mc62f2e5daf" y="304.23387"/>
      </g>
     </g>
    </g>
    <g id="ytick_37">
     <g id="line2d_45">
      <g>
       <use style="stroke:#000000;stroke-width:0.6;" x="117" xlink:href="#mc62f2e5daf" y="271.093706"/>
      </g>
     </g>
    </g>
    <g id="ytick_38">
     <g id="line2d_46">
      <g>
       <use style="stroke:#000000;stroke-width:0.6;" x="117" xlink:href="#mc62f2e5daf" y="254.265841"/>
      </g>
     </g>
    </g>
    <g id="ytick_39">
     <g id="line2d_47">
      <g>
       <use style="stroke:#000000;stroke-width:0.6;" x="117" xlink:href="#mc62f2e5daf" y="242.32628"/>
      </g>
     </g>
    </g>
    <g id="ytick_40">
     <g id="line2d_48">
      <g>
       <use style="stroke:#000000;stroke-width:0.6;" x="117" xlink:href="#mc62f2e5daf" y="233.065238"/>
      </g>
     </g>
    </g>
    <g id="ytick_41">
     <g id="line2d_49">
      <g>
       <use style="stroke:#000000;stroke-width:0.6;" x="117" xlink:href="#mc62f2e5daf" y="225.498415"/>
      </g>
     </g>
    </g>
    <g id="ytick_42">
     <g id="line2d_50">
      <g>
       <use style="stroke:#000000;stroke-width:0.6;" x="117" xlink:href="#mc62f2e5daf" y="219.100758"/>
      </g>
     </g>
    </g>
    <g id="ytick_43">
     <g id="line2d_51">
      <g>
       <use style="stroke:#000000;stroke-width:0.6;" x="117" xlink:href="#mc62f2e5daf" y="213.558855"/>
      </g>
     </g>
    </g>
    <g id="ytick_44">
     <g id="line2d_52">
      <g>
       <use style="stroke:#000000;stroke-width:0.6;" x="117" xlink:href="#mc62f2e5daf" y="208.67055"/>
      </g>
     </g>
    </g>
    <g id="ytick_45">
     <g id="line2d_53">
      <g>
       <use style="stroke:#000000;stroke-width:0.6;" x="117" xlink:href="#mc62f2e5daf" y="175.530386"/>
      </g>
     </g>
    </g>
    <g id="ytick_46">
     <g id="line2d_54">
      <g>
       <use style="stroke:#000000;stroke-width:0.6;" x="117" xlink:href="#mc62f2e5daf" y="158.702521"/>
      </g>
     </g>
    </g>
    <g id="ytick_47">
     <g id="line2d_55">
      <g>
       <use style="stroke:#000000;stroke-width:0.6;" x="117" xlink:href="#mc62f2e5daf" y="146.76296"/>
      </g>
     </g>
    </g>
    <g id="ytick_48">
     <g id="line2d_56">
      <g>
       <use style="stroke:#000000;stroke-width:0.6;" x="117" xlink:href="#mc62f2e5daf" y="137.501918"/>
      </g>
     </g>
    </g>
    <g id="ytick_49">
     <g id="line2d_57">
      <g>
       <use style="stroke:#000000;stroke-width:0.6;" x="117" xlink:href="#mc62f2e5daf" y="129.935095"/>
      </g>
     </g>
    </g>
    <g id="ytick_50">
     <g id="line2d_58">
      <g>
       <use style="stroke:#000000;stroke-width:0.6;" x="117" xlink:href="#mc62f2e5daf" y="123.537438"/>
      </g>
     </g>
    </g>
    <g id="ytick_51">
     <g id="line2d_59">
      <g>
       <use style="stroke:#000000;stroke-width:0.6;" x="117" xlink:href="#mc62f2e5daf" y="117.995535"/>
      </g>
     </g>
    </g>
    <g id="ytick_52">
     <g id="line2d_60">
      <g>
       <use style="stroke:#000000;stroke-width:0.6;" x="117" xlink:href="#mc62f2e5daf" y="113.10723"/>
      </g>
     </g>
    </g>
    <g id="text_16">
     <!-- log(sum(|expected_shift - real_shift|)) over 20 runs -->
     <defs>
      <path d="M 9.421875 75.984375 
L 18.40625 75.984375 
L 18.40625 0 
L 9.421875 0 
z
" id="DejaVuSans-108"/>
      <path d="M 45.40625 27.984375 
Q 45.40625 37.75 41.375 43.109375 
Q 37.359375 48.484375 30.078125 48.484375 
Q 22.859375 48.484375 18.828125 43.109375 
Q 14.796875 37.75 14.796875 27.984375 
Q 14.796875 18.265625 18.828125 12.890625 
Q 22.859375 7.515625 30.078125 7.515625 
Q 37.359375 7.515625 41.375 12.890625 
Q 45.40625 18.265625 45.40625 27.984375 
z
M 54.390625 6.78125 
Q 54.390625 -7.171875 48.1875 -13.984375 
Q 42 -20.796875 29.203125 -20.796875 
Q 24.46875 -20.796875 20.265625 -20.09375 
Q 16.0625 -19.390625 12.109375 -17.921875 
L 12.109375 -9.1875 
Q 16.0625 -11.328125 19.921875 -12.34375 
Q 23.78125 -13.375 27.78125 -13.375 
Q 36.625 -13.375 41.015625 -8.765625 
Q 45.40625 -4.15625 45.40625 5.171875 
L 45.40625 9.625 
Q 42.625 4.78125 38.28125 2.390625 
Q 33.9375 0 27.875 0 
Q 17.828125 0 11.671875 7.65625 
Q 5.515625 15.328125 5.515625 27.984375 
Q 5.515625 40.671875 11.671875 48.328125 
Q 17.828125 56 27.875 56 
Q 33.9375 56 38.28125 53.609375 
Q 42.625 51.21875 45.40625 46.390625 
L 45.40625 54.6875 
L 54.390625 54.6875 
z
" id="DejaVuSans-103"/>
      <path d="M 8.5 21.578125 
L 8.5 54.6875 
L 17.484375 54.6875 
L 17.484375 21.921875 
Q 17.484375 14.15625 20.5 10.265625 
Q 23.53125 6.390625 29.59375 6.390625 
Q 36.859375 6.390625 41.078125 11.03125 
Q 45.3125 15.671875 45.3125 23.6875 
L 45.3125 54.6875 
L 54.296875 54.6875 
L 54.296875 0 
L 45.3125 0 
L 45.3125 8.40625 
Q 42.046875 3.421875 37.71875 1 
Q 33.40625 -1.421875 27.6875 -1.421875 
Q 18.265625 -1.421875 13.375 4.4375 
Q 8.5 10.296875 8.5 21.578125 
z
M 31.109375 56 
z
" id="DejaVuSans-117"/>
      <path d="M 21 76.421875 
L 21 -23.578125 
L 12.703125 -23.578125 
L 12.703125 76.421875 
z
" id="DejaVuSans-124"/>
      <path d="M 18.109375 8.203125 
L 18.109375 -20.796875 
L 9.078125 -20.796875 
L 9.078125 54.6875 
L 18.109375 54.6875 
L 18.109375 46.390625 
Q 20.953125 51.265625 25.265625 53.625 
Q 29.59375 56 35.59375 56 
Q 45.5625 56 51.78125 48.09375 
Q 58.015625 40.1875 58.015625 27.296875 
Q 58.015625 14.40625 51.78125 6.484375 
Q 45.5625 -1.421875 35.59375 -1.421875 
Q 29.59375 -1.421875 25.265625 0.953125 
Q 20.953125 3.328125 18.109375 8.203125 
z
M 48.6875 27.296875 
Q 48.6875 37.203125 44.609375 42.84375 
Q 40.53125 48.484375 33.40625 48.484375 
Q 26.265625 48.484375 22.1875 42.84375 
Q 18.109375 37.203125 18.109375 27.296875 
Q 18.109375 17.390625 22.1875 11.75 
Q 26.265625 6.109375 33.40625 6.109375 
Q 40.53125 6.109375 44.609375 11.75 
Q 48.6875 17.390625 48.6875 27.296875 
z
" id="DejaVuSans-112"/>
      <path d="M 50.984375 -16.609375 
L 50.984375 -23.578125 
L -0.984375 -23.578125 
L -0.984375 -16.609375 
z
" id="DejaVuSans-95"/>
      <path d="M 54.890625 33.015625 
L 54.890625 0 
L 45.90625 0 
L 45.90625 32.71875 
Q 45.90625 40.484375 42.875 44.328125 
Q 39.84375 48.1875 33.796875 48.1875 
Q 26.515625 48.1875 22.3125 43.546875 
Q 18.109375 38.921875 18.109375 30.90625 
L 18.109375 0 
L 9.078125 0 
L 9.078125 75.984375 
L 18.109375 75.984375 
L 18.109375 46.1875 
Q 21.34375 51.125 25.703125 53.5625 
Q 30.078125 56 35.796875 56 
Q 45.21875 56 50.046875 50.171875 
Q 54.890625 44.34375 54.890625 33.015625 
z
" id="DejaVuSans-104"/>
      <path d="M 37.109375 75.984375 
L 37.109375 68.5 
L 28.515625 68.5 
Q 23.6875 68.5 21.796875 66.546875 
Q 19.921875 64.59375 19.921875 59.515625 
L 19.921875 54.6875 
L 34.71875 54.6875 
L 34.71875 47.703125 
L 19.921875 47.703125 
L 19.921875 0 
L 10.890625 0 
L 10.890625 47.703125 
L 2.296875 47.703125 
L 2.296875 54.6875 
L 10.890625 54.6875 
L 10.890625 58.5 
Q 10.890625 67.625 15.140625 71.796875 
Q 19.390625 75.984375 28.609375 75.984375 
z
" id="DejaVuSans-102"/>
      <path d="M 2.984375 54.6875 
L 12.5 54.6875 
L 29.59375 8.796875 
L 46.6875 54.6875 
L 56.203125 54.6875 
L 35.6875 0 
L 23.484375 0 
z
" id="DejaVuSans-118"/>
     </defs>
     <g transform="translate(86.042187 485.492188)rotate(-90)scale(0.1 -0.1)">
      <use xlink:href="#DejaVuSans-108"/>
      <use x="27.783203" xlink:href="#DejaVuSans-111"/>
      <use x="88.964844" xlink:href="#DejaVuSans-103"/>
      <use x="152.441406" xlink:href="#DejaVuSans-40"/>
      <use x="191.455078" xlink:href="#DejaVuSans-115"/>
      <use x="243.554688" xlink:href="#DejaVuSans-117"/>
      <use x="306.933594" xlink:href="#DejaVuSans-109"/>
      <use x="404.345703" xlink:href="#DejaVuSans-40"/>
      <use x="443.359375" xlink:href="#DejaVuSans-124"/>
      <use x="477.050781" xlink:href="#DejaVuSans-101"/>
      <use x="538.558594" xlink:href="#DejaVuSans-120"/>
      <use x="597.738281" xlink:href="#DejaVuSans-112"/>
      <use x="661.214844" xlink:href="#DejaVuSans-101"/>
      <use x="722.738281" xlink:href="#DejaVuSans-99"/>
      <use x="777.71875" xlink:href="#DejaVuSans-116"/>
      <use x="816.927734" xlink:href="#DejaVuSans-101"/>
      <use x="878.451172" xlink:href="#DejaVuSans-100"/>
      <use x="941.927734" xlink:href="#DejaVuSans-95"/>
      <use x="991.927734" xlink:href="#DejaVuSans-115"/>
      <use x="1044.027344" xlink:href="#DejaVuSans-104"/>
      <use x="1107.40625" xlink:href="#DejaVuSans-105"/>
      <use x="1135.189453" xlink:href="#DejaVuSans-102"/>
      <use x="1170.378906" xlink:href="#DejaVuSans-116"/>
      <use x="1209.587891" xlink:href="#DejaVuSans-32"/>
      <use x="1241.375" xlink:href="#DejaVuSans-45"/>
      <use x="1277.458984" xlink:href="#DejaVuSans-32"/>
      <use x="1309.246094" xlink:href="#DejaVuSans-114"/>
      <use x="1350.328125" xlink:href="#DejaVuSans-101"/>
      <use x="1411.851562" xlink:href="#DejaVuSans-97"/>
      <use x="1473.130859" xlink:href="#DejaVuSans-108"/>
      <use x="1500.914062" xlink:href="#DejaVuSans-95"/>
      <use x="1550.914062" xlink:href="#DejaVuSans-115"/>
      <use x="1603.013672" xlink:href="#DejaVuSans-104"/>
      <use x="1666.392578" xlink:href="#DejaVuSans-105"/>
      <use x="1694.175781" xlink:href="#DejaVuSans-102"/>
      <use x="1729.365234" xlink:href="#DejaVuSans-116"/>
      <use x="1768.574219" xlink:href="#DejaVuSans-124"/>
      <use x="1802.265625" xlink:href="#DejaVuSans-41"/>
      <use x="1841.279297" xlink:href="#DejaVuSans-41"/>
      <use x="1880.292969" xlink:href="#DejaVuSans-32"/>
      <use x="1912.080078" xlink:href="#DejaVuSans-111"/>
      <use x="1973.261719" xlink:href="#DejaVuSans-118"/>
      <use x="2032.441406" xlink:href="#DejaVuSans-101"/>
      <use x="2093.964844" xlink:href="#DejaVuSans-114"/>
      <use x="2135.078125" xlink:href="#DejaVuSans-32"/>
      <use x="2166.865234" xlink:href="#DejaVuSans-50"/>
      <use x="2230.488281" xlink:href="#DejaVuSans-48"/>
      <use x="2294.111328" xlink:href="#DejaVuSans-32"/>
      <use x="2325.898438" xlink:href="#DejaVuSans-114"/>
      <use x="2367.011719" xlink:href="#DejaVuSans-117"/>
      <use x="2430.390625" xlink:href="#DejaVuSans-110"/>
      <use x="2493.769531" xlink:href="#DejaVuSans-115"/>
     </g>
    </g>
   </g>
   <g id="line2d_61">
    <path clip-path="url(#pf38c81bb30)" d="M 149.972727 401.332323 
L 159.298823 400.204378 
L 159.298823 396.516006 
L 163.161818 394.097722 
L 163.161818 391.405025 
L 174.220576 388.50882 
L 174.220576 382.368937 
L 175.952223 379.230173 
L 175.952223 364.097883 
L 184.264364 361.298338 
L 184.264364 353.461233 
L 196.603205 351.036375 
L 196.603205 344.287362 
L 197.526671 342.203853 
L 197.526671 332.891042 
L 202.530882 331.228372 
L 202.530882 323.767371 
L 215.918182 322.425794 
L 215.918182 318.657426 
L 218.426269 317.478568 
L 218.426269 315.227323 
L 219.058641 314.15157 
L 219.058641 308.335252 
L 222.593975 307.462954 
L 222.593975 303.442237 
L 232.799588 302.690071 
L 232.799588 299.081087 
L 235.772807 298.381589 
L 235.772807 296.344641 
L 236.278172 295.694375 
L 236.278172 292.812267 
L 239.133323 292.330787 
L 239.133323 289.781444 
L 246.780655 289.471595 
L 246.780655 288.447581 
L 247.625455 288.047397 
L 247.625455 284.705444 
L 259.734019 283.999068 
L 259.734019 278.613761 
L 266.548923 277.864027 
L 266.548923 276.421418 
L 266.921371 275.733999 
L 266.921371 271.982205 
L 269.043998 271.391847 
L 269.043998 267.048747 
L 271.312364 266.358158 
L 271.312364 264.897795 
L 275.529132 264.124215 
L 275.529132 257.726209 
L 285.161102 256.662781 
L 285.161102 250.832322 
L 294.71962 249.585043 
L 294.71962 241.936112 
L 314.836364 240.688676 
L 314.836364 237.12018 
L 342.090297 236.007471 
L 342.090297 232.973357 
L 342.316525 232.077869 
L 342.316525 228.546938 
L 343.614455 228.026207 
L 343.614455 225.808659 
L 347.668357 225.516865 
L 347.668357 222.81043 
L 353.921368 222.220513 
L 353.921368 215.928576 
L 360.379035 214.711104 
L 360.379035 204.455805 
L 374.692931 202.837024 
L 374.692931 193.319882 
L 421.668 191.866007 
L 421.668 187.912891 
L 477.318684 186.753148 
L 477.318684 184.698299 
L 477.451507 183.806918 
L 477.451507 180.68075 
L 478.215523 180.297534 
L 478.215523 179.111221 
L 480.623263 178.928049 
L 480.623263 178.295901 
L 484.399494 178.08956 
L 484.399494 175.497833 
L 488.376375 174.94659 
L 488.376375 170.622164 
L 497.457093 169.73619 
L 497.457093 162.70426 
L 529.53107 161.67443 
L 529.53107 156.352185 
L 612.909818 155.699539 
L 612.909818 154.286636 
L 616.277508 154.009211 
L 616.277508 153.748703 
L 616.37076 154.296466 
L 616.907527 154.611104 
L 616.907527 157.368419 
L 618.603232 157.66254 
L 618.603232 158.047438 
L 618.603232 157.611916 
L 621.275216 157.294481 
L 621.275216 153.815612 
L 624.105412 153.231309 
L 624.105412 148.979109 
L 630.628694 148.330383 
L 630.628694 143.050921 
L 654.303283 142.176122 
L 654.303283 135.728576 
L 719.70558 134.85967 
L 719.70558 130.449711 
L 809.427273 130.149567 
L 809.427273 129.845471 
L 809.427273 129.845471 
" style="fill:none;stroke:#000000;stroke-linecap:square;stroke-width:1.5;"/>
   </g>
   <g id="line2d_62">
    <path clip-path="url(#pf38c81bb30)" d="M 149.972727 401.343793 
L 159.298823 400.215531 
L 159.298823 396.526174 
L 163.161818 394.107287 
L 163.161818 391.413955 
L 174.220576 388.517109 
L 174.220576 382.375996 
L 175.952223 379.236668 
L 175.952223 364.102222 
L 184.264364 361.302379 
L 184.264364 353.46461 
L 196.603205 351.039598 
L 196.603205 344.290277 
L 197.526671 342.206705 
L 197.526671 332.893736 
L 202.530882 331.231045 
L 202.530882 323.769884 
L 215.918182 322.428258 
L 215.918182 318.659706 
L 218.426269 317.480777 
L 218.426269 315.229381 
L 219.058641 314.15355 
L 219.058641 308.336792 
L 222.593975 307.464434 
L 222.593975 303.443525 
L 232.799588 302.691346 
L 232.799588 299.08241 
L 235.772807 298.382888 
L 235.772807 296.345939 
L 236.278172 295.695638 
L 236.278172 292.812553 
L 239.133323 292.330587 
L 239.133323 289.770933 
L 246.780655 289.45804 
L 246.780655 288.421445 
L 247.625455 288.015851 
L 247.625455 284.631265 
L 259.734019 283.917062 
L 259.734019 278.491886 
L 266.548923 277.740365 
L 266.548923 276.298096 
L 266.921371 275.612824 
L 266.921371 271.898258 
L 269.043998 271.317028 
L 269.043998 267.040437 
L 271.312364 266.358225 
L 271.312364 264.913061 
L 275.529132 264.14631 
L 275.529132 257.78431 
L 285.161102 256.724719 
L 285.161102 250.909376 
L 294.71962 249.664279 
L 294.71962 242.023148 
L 314.836364 240.776406 
L 314.836364 237.209896 
L 342.090297 236.097987 
L 342.090297 233.06728 
L 342.316525 232.173385 
L 342.316525 228.654286 
L 343.614455 228.13664 
L 343.614455 225.939681 
L 347.668357 225.651084 
L 347.668357 222.952633 
L 353.921368 222.360503 
L 353.921368 216.023619 
L 360.379035 214.79648 
L 360.379035 204.475171 
L 374.692931 202.84923 
L 374.692931 193.307613 
L 421.668 191.852401 
L 421.668 187.898497 
L 477.318684 186.739277 
L 477.318684 184.686201 
L 477.451507 183.795938 
L 477.451507 180.675783 
L 478.215523 180.293632 
L 478.215523 179.11161 
L 480.623263 178.92904 
L 480.623263 178.296994 
L 484.399494 178.090489 
L 484.399494 175.496869 
L 488.376375 174.945327 
L 488.376375 170.619556 
L 497.457093 169.733477 
L 497.457093 162.702258 
L 529.53107 161.672726 
L 529.53107 156.353824 
L 612.909818 155.70214 
L 612.909818 154.293402 
L 616.277508 154.017935 
L 616.277508 153.762515 
L 616.37076 154.326737 
L 616.907527 154.647083 
L 616.907527 157.460474 
L 618.603232 157.76346 
L 618.603232 158.164593 
L 618.603232 157.750097 
L 621.275216 157.432327 
L 621.275216 153.915079 
L 624.105412 153.322343 
L 624.105412 149.015968 
L 630.628694 148.361467 
L 630.628694 143.057882 
L 654.303283 142.181506 
L 654.303283 135.729332 
L 719.70558 134.860256 
L 719.70558 130.449973 
L 809.427273 130.149826 
L 809.427273 129.845715 
L 809.427273 129.845715 
" style="fill:none;stroke:#010000;stroke-linecap:square;stroke-width:1.5;"/>
   </g>
   <g id="line2d_63">
    <path clip-path="url(#pf38c81bb30)" d="M 149.972727 401.361025 
L 159.298823 400.232469 
L 159.298823 396.542197 
L 163.161818 394.122741 
L 163.161818 391.428803 
L 174.220576 388.531335 
L 174.220576 382.388989 
L 175.952223 379.249069 
L 175.952223 364.112004 
L 184.264364 361.3117 
L 184.264364 353.472648 
L 196.603205 351.047239 
L 196.603205 344.296817 
L 197.526671 342.21291 
L 197.526671 332.898547 
L 202.530882 331.23564 
L 202.530882 323.773761 
L 215.918182 322.432069 
L 215.918182 318.663425 
L 218.426269 317.484502 
L 218.426269 315.233164 
L 219.058641 314.157383 
L 219.058641 308.341202 
L 222.593975 307.468997 
L 222.593975 303.449246 
L 232.799588 302.6974 
L 232.799588 299.090777 
L 235.772807 298.391832 
L 235.772807 296.356757 
L 236.278172 295.707102 
L 236.278172 292.827029 
L 239.133323 292.345582 
L 239.133323 289.788782 
L 246.780655 289.476202 
L 246.780655 288.440607 
L 247.625455 288.035291 
L 247.625455 284.649501 
L 259.734019 283.934225 
L 259.734019 278.487471 
L 266.548923 277.730661 
L 266.548923 276.276348 
L 266.921371 275.584445 
L 266.921371 271.828862 
L 269.043998 271.242072 
L 269.043998 266.959378 
L 271.312364 266.2823 
L 271.312364 264.85175 
L 275.529132 264.094237 
L 275.529132 257.809223 
L 285.161102 256.758956 
L 285.161102 250.970896 
L 294.71962 249.727252 
L 294.71962 242.076525 
L 314.836364 240.826703 
L 314.836364 237.251059 
L 342.090297 236.136379 
L 342.090297 233.098421 
L 342.316525 232.202411 
L 342.316525 228.673331 
L 343.614455 228.153612 
L 343.614455 225.944209 
L 347.668357 225.653982 
L 347.668357 222.956637 
L 353.921368 222.366959 
L 353.921368 216.057776 
L 360.379035 214.834725 
L 360.379035 204.527631 
L 374.692931 202.901182 
L 374.692931 193.34687 
L 421.668 191.888666 
L 421.668 187.925729 
L 477.318684 186.763654 
L 477.318684 184.705328 
L 477.451507 183.812711 
L 477.451507 180.683667 
L 478.215523 180.300282 
L 478.215523 179.11358 
L 480.623263 178.930243 
L 480.623263 178.297424 
L 484.399494 178.091029 
L 484.399494 175.504905 
L 488.376375 174.95617 
L 488.376375 170.664304 
L 497.457093 169.787276 
L 497.457093 162.842231 
L 529.53107 161.826493 
L 529.53107 156.577391 
L 612.909818 155.933295 
L 612.909818 154.537453 
L 616.277508 154.262756 
L 616.277508 154.003454 
L 616.37076 154.539682 
L 616.907527 154.849442 
L 616.907527 157.569825 
L 618.603232 157.859596 
L 618.603232 158.236488 
L 618.603232 157.779072 
L 621.275216 157.455886 
L 621.275216 153.921149 
L 624.105412 153.327699 
L 624.105412 149.019885 
L 630.628694 148.36532 
L 630.628694 143.060776 
L 654.303283 142.184201 
L 654.303283 135.730694 
L 719.70558 134.861474 
L 719.70558 130.450599 
L 809.427273 130.15042 
L 809.427273 129.846277 
L 809.427273 129.846277 
" style="fill:none;stroke:#030000;stroke-linecap:square;stroke-width:1.5;"/>
   </g>
   <g id="line2d_64">
    <path clip-path="url(#pf38c81bb30)" d="M 149.972727 402.190518 
L 159.298823 401.095784 
L 159.298823 397.513618 
L 163.161818 395.161607 
L 163.161818 392.539343 
L 174.220576 389.716702 
L 174.220576 383.722047 
L 175.952223 380.651976 
L 175.952223 365.788121 
L 184.264364 363.023801 
L 184.264364 355.251115 
L 196.603205 352.834042 
L 196.603205 346.067384 
L 197.526671 343.964922 
L 197.526671 334.469567 
L 202.530882 332.754771 
L 202.530882 324.975014 
L 215.918182 323.561436 
L 215.918182 319.571389 
L 218.426269 318.31904 
L 218.426269 315.925571 
L 219.058641 314.782331 
L 219.058641 308.639753 
L 222.593975 307.728138 
L 222.593975 303.5715 
L 232.799588 302.80254 
L 232.799588 299.145292 
L 235.772807 298.441248 
L 235.772807 296.396846 
L 236.278172 295.745422 
L 236.278172 292.858812 
L 239.133323 292.375475 
L 239.133323 289.781384 
L 246.780655 289.458249 
L 246.780655 288.380736 
L 247.625455 287.95804 
L 247.625455 284.443329 
L 259.734019 283.705303 
L 259.734019 278.135346 
L 266.548923 277.369156 
L 266.548923 275.903394 
L 266.921371 275.209299 
L 266.921371 271.479339 
L 269.043998 270.900763 
L 269.043998 266.670217 
L 271.312364 265.997681 
L 271.312364 264.573746 
L 275.529132 263.818639 
L 275.529132 257.558901 
L 285.161102 256.51719 
L 285.161102 250.804433 
L 294.71962 249.582177 
L 294.71962 242.083035 
L 314.836364 240.85867 
L 314.836364 237.352201 
L 342.090297 236.257329 
L 342.090297 233.267121 
L 342.316525 232.383148 
L 342.316525 228.890542 
L 343.614455 228.374708 
L 343.614455 226.179377 
L 347.668357 225.890792 
L 347.668357 223.194411 
L 353.921368 222.602039 
L 353.921368 216.245627 
L 360.379035 215.012371 
L 360.379035 204.62854 
L 374.692931 202.992149 
L 374.692931 193.391841 
L 421.668 191.928335 
L 421.668 187.952952 
L 477.318684 186.787735 
L 477.318684 184.724319 
L 477.451507 183.829666 
L 477.451507 180.694028 
L 478.215523 180.309833 
L 478.215523 179.120349 
L 480.623263 178.936714 
L 480.623263 178.304696 
L 484.399494 178.09879 
L 484.399494 175.519908 
L 488.376375 174.972689 
L 488.376375 170.689997 
L 497.457093 169.814159 
L 497.457093 162.870912 
L 529.53107 161.854458 
L 529.53107 156.598005 
L 612.909818 155.952462 
L 612.909818 154.552412 
L 616.277508 154.276415 
L 616.277508 154.014729 
L 616.37076 154.547161 
L 616.907527 154.856171 
L 616.907527 157.573075 
L 618.603232 157.862541 
L 618.603232 158.238923 
L 618.603232 157.780703 
L 621.275216 157.45743 
L 621.275216 153.922817 
L 624.105412 153.329498 
L 624.105412 149.023173 
L 630.628694 148.368842 
L 630.628694 143.065216 
L 654.303283 142.188626 
L 654.303283 135.734249 
L 719.70558 134.864859 
L 719.70558 130.453099 
L 809.427273 130.152861 
L 809.427273 129.848659 
L 809.427273 129.848659 
" style="fill:none;stroke:#0d0000;stroke-linecap:square;stroke-width:1.5;"/>
   </g>
   <g id="line2d_65">
    <path clip-path="url(#pf38c81bb30)" d="M 149.972727 402.69677 
L 159.298823 401.589251 
L 159.298823 397.967247 
L 163.161818 395.590573 
L 163.161818 392.942105 
L 174.220576 390.092742 
L 174.220576 384.045977 
L 175.952223 380.951408 
L 175.952223 365.988122 
L 184.264364 363.208619 
L 184.264364 355.398886 
L 196.603205 352.972047 
L 196.603205 346.182692 
L 197.526671 344.074623 
L 197.526671 334.562826 
L 202.530882 332.846657 
L 202.530882 325.066999 
L 215.918182 323.654514 
L 215.918182 319.668933 
L 218.426269 318.418258 
L 218.426269 316.028013 
L 219.058641 314.886187 
L 219.058641 308.745856 
L 222.593975 307.8333 
L 222.593975 303.667001 
L 232.799588 302.89544 
L 232.799588 299.22476 
L 235.772807 298.518275 
L 235.772807 296.467181 
L 236.278172 295.81371 
L 236.278172 292.916229 
L 239.133323 292.430178 
L 239.133323 289.80342 
L 246.780655 289.472938 
L 246.780655 288.368936 
L 247.625455 287.936065 
L 247.625455 284.35427 
L 259.734019 283.605599 
L 259.734019 277.983597 
L 266.548923 277.213821 
L 266.548923 275.743589 
L 266.921371 275.048456 
L 266.921371 271.323001 
L 269.043998 270.746074 
L 269.043998 266.528873 
L 271.312364 265.858862 
L 271.312364 264.441222 
L 275.529132 263.690015 
L 275.529132 257.473489 
L 285.161102 256.439668 
L 285.161102 250.76568 
L 294.71962 249.550205 
L 294.71962 242.079278 
L 314.836364 240.857536 
L 314.836364 237.35641 
L 342.090297 236.262783 
L 342.090297 233.276256 
L 342.316525 232.393881 
L 342.316525 228.916473 
L 343.614455 228.405588 
L 343.614455 226.251979 
L 347.668357 225.971314 
L 347.668357 223.317517 
L 353.921368 222.728168 
L 353.921368 216.377732 
L 360.379035 215.144578 
L 360.379035 204.760177 
L 374.692931 203.122644 
L 374.692931 193.503593 
L 421.668 192.03506 
L 421.668 188.042549 
L 477.318684 186.871232 
L 477.318684 184.795554 
L 477.451507 183.894893 
L 477.451507 180.732718 
L 478.215523 180.344167 
L 478.215523 179.135663 
L 480.623263 178.947974 
L 480.623263 178.308958 
L 484.399494 178.102055 
L 484.399494 175.520551 
L 488.376375 174.973845 
L 488.376375 170.700338 
L 497.457093 169.826873 
L 497.457093 162.89985 
L 529.53107 161.884895 
L 529.53107 156.630171 
L 612.909818 155.983807 
L 612.909818 154.579996 
L 616.277508 154.302442 
L 616.277508 154.037407 
L 616.37076 154.563069 
L 616.907527 154.870512 
L 616.907527 157.579325 
L 618.603232 157.8681 
L 618.603232 158.243442 
L 618.603232 157.784442 
L 621.275216 157.461298 
L 621.275216 153.930172 
L 624.105412 153.337745 
L 624.105412 149.040337 
L 630.628694 148.387544 
L 630.628694 143.093481 
L 654.303283 142.217769 
L 654.303283 135.764557 
L 719.70558 134.894761 
L 719.70558 130.479532 
L 809.427273 130.178986 
L 809.427273 129.874465 
L 809.427273 129.874465 
" style="fill:none;stroke:#1a0000;stroke-linecap:square;stroke-width:1.5;"/>
   </g>
   <g id="line2d_66">
    <path clip-path="url(#pf38c81bb30)" d="M 149.972727 409.051888 
L 159.298823 407.821676 
L 159.298823 403.80738 
L 163.161818 401.179779 
L 163.161818 398.257264 
L 174.220576 395.118059 
L 174.220576 388.470227 
L 175.952223 385.073848 
L 175.952223 368.695924 
L 184.264364 365.664478 
L 184.264364 357.181497 
L 196.603205 354.560072 
L 196.603205 347.28025 
L 197.526671 345.039481 
L 197.526671 335.06969 
L 202.530882 333.296842 
L 202.530882 325.350432 
L 215.918182 323.920861 
L 215.918182 319.901336 
L 218.426269 318.642957 
L 218.426269 316.239812 
L 219.058641 315.092096 
L 219.058641 308.913559 
L 222.593975 307.993746 
L 222.593975 303.789919 
L 232.799588 303.011153 
L 232.799588 299.308377 
L 235.772807 298.596388 
L 235.772807 296.530901 
L 236.278172 295.873258 
L 236.278172 292.959319 
L 239.133323 292.470783 
L 239.133323 289.834232 
L 246.780655 289.503542 
L 246.780655 288.401164 
L 247.625455 287.969713 
L 247.625455 284.407675 
L 259.734019 283.664198 
L 259.734019 278.083615 
L 266.548923 277.318459 
L 266.548923 275.854353 
L 266.921371 275.160304 
L 266.921371 271.405756 
L 269.043998 270.818123 
L 269.043998 266.511847 
L 271.312364 265.832005 
L 271.312364 264.400844 
L 275.529132 263.646439 
L 275.529132 257.48403 
L 285.161102 256.467896 
L 285.161102 250.905308 
L 294.71962 249.714749 
L 294.71962 242.388184 
L 314.836364 241.187307 
L 314.836364 237.738914 
L 342.090297 236.658961 
L 342.090297 233.70003 
L 342.316525 232.822179 
L 342.316525 229.333883 
L 343.614455 228.815022 
L 343.614455 226.59315 
L 347.668357 226.30069 
L 347.668357 223.597027 
L 353.921368 223.006515 
L 353.921368 216.66995 
L 360.379035 215.438519 
L 360.379035 205.036562 
L 374.692931 203.392044 
L 374.692931 193.717373 
L 421.668 192.238644 
L 421.668 188.216346 
L 477.318684 187.035679 
L 477.318684 184.942635 
L 477.451507 184.034036 
L 477.451507 180.841223 
L 478.215523 180.448531 
L 478.215523 179.233332 
L 480.623263 179.051543 
L 480.623263 178.455736 
L 484.399494 178.264553 
L 484.399494 175.916402 
L 488.376375 175.428148 
L 488.376375 171.684153 
L 497.457093 170.927969 
L 497.457093 164.924608 
L 529.53107 164.036773 
L 529.53107 159.38162 
L 612.909818 158.80252 
L 612.909818 157.546994 
L 616.277508 157.303309 
L 616.277508 157.088083 
L 616.37076 157.667007 
L 616.907527 157.982232 
L 616.907527 160.685221 
L 618.603232 160.955687 
L 618.603232 161.23777 
L 618.603232 160.508598 
L 621.275216 160.101634 
L 621.275216 155.98007 
L 624.105412 155.328697 
L 624.105412 151.113684 
L 630.628694 150.567624 
L 630.628694 146.879055 
L 654.303283 146.352612 
L 654.303283 142.808802 
L 719.70558 142.361687 
L 719.70558 140.170068 
L 809.427273 139.928183 
L 809.427273 139.879066 
L 809.427273 139.879066 
" style="fill:none;stroke:#330000;stroke-linecap:square;stroke-width:1.5;"/>
   </g>
   <g id="line2d_67">
    <path clip-path="url(#pf38c81bb30)" d="M 149.972727 444.425029 
L 159.298823 441.87402 
L 159.298823 434.00753 
L 163.161818 429.173654 
L 163.161818 424.036667 
L 174.220576 418.756494 
L 174.220576 408.225928 
L 175.952223 403.121553 
L 175.952223 380.33952 
L 184.264364 376.37689 
L 184.264364 365.602618 
L 196.603205 362.354946 
L 196.603205 353.502729 
L 197.526671 350.820387 
L 197.526671 339.065596 
L 202.530882 337.000177 
L 202.530882 327.826036 
L 215.918182 326.192991 
L 215.918182 321.640388 
L 218.426269 320.229068 
L 218.426269 317.555141 
L 219.058641 316.288697 
L 219.058641 309.596995 
L 222.593975 308.619284 
L 222.593975 304.2091 
L 232.799588 303.402103 
L 232.799588 299.60019 
L 235.772807 298.874525 
L 235.772807 296.776044 
L 236.278172 296.109639 
L 236.278172 293.165897 
L 239.133323 292.674626 
L 239.133323 290.067673 
L 246.780655 289.750896 
L 246.780655 288.709606 
L 247.625455 288.305293 
L 247.625455 284.968582 
L 259.734019 284.269929 
L 259.734019 278.996656 
L 266.548923 278.268966 
L 266.548923 276.871728 
L 266.921371 276.206743 
L 266.921371 272.564108 
L 269.043998 271.985594 
L 269.043998 267.689765 
L 271.312364 267.005277 
L 271.312364 265.561051 
L 275.529132 264.798376 
L 275.529132 258.548968 
L 285.161102 257.516996 
L 285.161102 251.864849 
L 294.71962 250.654267 
L 294.71962 243.186237 
L 314.836364 241.957713 
L 314.836364 238.420342 
L 342.090297 237.309177 
L 342.090297 234.255157 
L 342.316525 233.346205 
L 342.316525 229.722719 
L 343.614455 229.18329 
L 343.614455 226.905122 
L 347.668357 226.616675 
L 347.668357 224.066761 
L 353.921368 223.520422 
L 353.921368 217.725998 
L 360.379035 216.611274 
L 360.379035 207.252289 
L 374.692931 205.773525 
L 374.692931 197.012895 
L 421.668 195.660389 
L 421.668 191.954421 
L 477.318684 190.857703 
L 477.318684 188.900692 
L 477.451507 188.044407 
L 477.451507 184.970126 
L 478.215523 184.574972 
L 478.215523 183.186462 
L 480.623263 183.038404 
L 480.623263 181.930701 
L 484.399494 181.658764 
L 484.399494 178.827402 
L 488.376375 178.29858 
L 488.376375 174.559386 
L 497.457093 173.848625 
L 497.457093 168.45464 
L 529.53107 167.683519 
L 529.53107 163.785299 
L 612.909818 163.336135 
L 612.909818 162.473612 
L 616.37076 162.341691 
L 616.37076 162.413435 
L 616.37076 163.533754 
L 616.907527 163.98316 
L 616.907527 167.43757 
L 618.603232 167.759097 
L 618.603232 168.021638 
L 618.603232 167.046501 
L 621.275216 166.523156 
L 621.275216 161.417355 
L 624.105412 160.629839 
L 624.105412 155.608004 
L 630.628694 154.963001 
L 630.628694 150.629785 
L 654.303283 150.017253 
L 654.303283 145.967072 
L 719.70558 145.466583 
L 719.70558 143.050002 
L 809.427273 142.787294 
L 809.427273 142.734015 
L 809.427273 142.734015 
" style="fill:none;stroke:#4c0000;stroke-linecap:square;stroke-width:1.5;"/>
   </g>
   <g id="line2d_68">
    <path clip-path="url(#pf38c81bb30)" d="M 149.972727 481.118722 
L 159.298823 479.083225 
L 159.298823 472.712984 
L 163.161818 468.723113 
L 163.161818 464.413952 
L 174.220576 459.942083 
L 174.220576 450.893822 
L 175.952223 446.45858 
L 175.952223 426.31076 
L 184.264364 422.730271 
L 184.264364 412.814448 
L 196.603205 409.76233 
L 196.603205 401.227815 
L 197.526671 398.579029 
L 197.526671 386.647712 
L 202.530882 384.516018 
L 202.530882 374.905441 
L 215.918182 373.131348 
L 215.918182 367.876458 
L 218.426269 366.095704 
L 218.426269 362.421268 
L 219.058641 360.507309 
L 219.058641 348.001523 
L 222.593975 345.827769 
L 222.593975 335.411025 
L 232.799588 333.502245 
L 232.799588 325.225399 
L 235.772807 323.832853 
L 235.772807 320.161296 
L 236.278172 319.092 
L 236.278172 314.677396 
L 239.133323 313.937371 
L 239.133323 309.108087 
L 246.780655 308.352872 
L 246.780655 305.806287 
L 247.625455 304.848551 
L 247.625455 298.040435 
L 259.734019 296.795171 
L 259.734019 288.451281 
L 266.548923 287.406003 
L 266.548923 285.460074 
L 266.921371 284.56123 
L 266.921371 279.954769 
L 269.043998 279.267267 
L 269.043998 274.351574 
L 271.312364 273.585668 
L 271.312364 271.985514 
L 275.529132 271.150667 
L 275.529132 264.700351 
L 285.161102 263.713196 
L 285.161102 258.692724 
L 294.71962 257.696131 
L 294.71962 252.05343 
L 314.836364 251.197189 
L 314.836364 248.826064 
L 342.090297 248.106381 
L 342.090297 246.178746 
L 342.316525 245.616911 
L 342.316525 243.381473 
L 343.614455 243.035453 
L 343.614455 241.27339 
L 347.668357 240.972149 
L 347.668357 237.844006 
L 353.921368 237.182237 
L 353.921368 230.719984 
L 360.379035 229.552773 
L 360.379035 220.271832 
L 374.692931 218.872831 
L 374.692931 210.890292 
L 421.668 209.704172 
L 421.668 206.515548 
L 477.318684 205.590227 
L 477.318684 203.959313 
L 477.451507 203.253034 
L 477.451507 200.722478 
L 478.215523 200.38547 
L 478.215523 198.973432 
L 480.623263 198.767884 
L 480.623263 197.116779 
L 484.399494 196.727582 
L 484.399494 192.755972 
L 488.376375 192.000105 
L 488.376375 186.546607 
L 497.457093 185.51538 
L 497.457093 178.203841 
L 529.53107 177.262554 
L 529.53107 173.116671 
L 612.909818 172.750753 
L 612.909818 172.308936 
L 616.277508 172.308936 
L 616.277508 172.383983 
L 616.37076 172.568397 
L 616.37076 174.914663 
L 616.907527 175.593096 
L 616.907527 180.125032 
L 618.603232 180.482556 
L 618.603232 180.711231 
L 618.603232 179.14355 
L 621.275216 178.444411 
L 621.275216 172.002221 
L 624.105412 171.024944 
L 624.105412 164.614271 
L 630.628694 163.75012 
L 630.628694 157.738241 
L 654.303283 156.880697 
L 654.303283 151.333929 
L 719.70558 150.668443 
L 719.70558 147.521702 
L 809.427273 147.320691 
L 809.427273 147.11852 
L 809.427273 147.11852 
" style="fill:none;stroke:#660000;stroke-linecap:square;stroke-width:1.5;"/>
   </g>
   <g id="line2d_69">
    <path clip-path="url(#pf38c81bb30)" d="M 149.972727 544.09598 
L 159.298823 543.333575 
L 159.298823 540.803651 
L 163.161818 539.071741 
L 163.161818 537.100288 
L 174.220576 534.928468 
L 174.220576 530.117236 
L 175.952223 527.552587 
L 175.952223 514.032267 
L 184.264364 511.267025 
L 184.264364 502.925264 
L 196.603205 500.186787 
L 196.603205 491.981436 
L 197.526671 489.272755 
L 197.526671 475.649401 
L 202.530882 472.849379 
L 202.530882 457.678865 
L 215.918182 454.326163 
L 215.918182 443.607759 
L 218.426269 439.832125 
L 218.426269 432.173797 
L 219.058641 428.331024 
L 219.058641 407.114085 
L 222.593975 404.123677 
L 222.593975 392.338311 
L 232.799588 390.62861 
L 232.799588 384.791185 
L 235.772807 384.034283 
L 235.772807 382.165783 
L 236.278172 381.592022 
L 236.278172 378.183967 
L 239.133323 377.322452 
L 239.133323 369.884842 
L 246.780655 368.7225 
L 246.780655 365.268911 
L 247.625455 364.141212 
L 247.625455 357.765177 
L 259.734019 356.785468 
L 259.734019 350.768205 
L 266.548923 350.025566 
L 266.548923 348.586721 
L 266.921371 347.880573 
L 266.921371 343.104448 
L 269.043998 342.111102 
L 269.043998 332.761088 
L 271.312364 331.116444 
L 271.312364 327.683793 
L 275.529132 325.922119 
L 275.529132 313.829057 
L 285.161102 312.258622 
L 285.161102 305.453478 
L 294.71962 304.334906 
L 294.71962 299.46311 
L 314.836364 298.946268 
L 314.836364 297.821043 
L 342.090297 297.561705 
L 342.090297 296.99678 
L 342.316525 296.848368 
L 342.316525 295.906538 
L 343.614455 295.612115 
L 343.614455 292.49164 
L 347.668357 291.707128 
L 347.668357 283.7823 
L 353.921368 282.297744 
L 353.921368 270.034176 
L 360.379035 268.131856 
L 360.379035 255.441568 
L 374.692931 253.856845 
L 374.692931 246.353251 
L 421.668 245.48046 
L 421.668 243.533239 
L 477.318684 243.101358 
L 477.318684 242.542649 
L 477.451507 242.34272 
L 477.451507 242.428073 
L 478.215523 242.552487 
L 478.215523 243.612223 
L 480.623263 243.714643 
L 480.623263 243.649794 
L 480.623263 241.792783 
L 484.399494 241.116329 
L 484.399494 233.512859 
L 488.376375 232.055807 
L 488.376375 222.059684 
L 497.457093 220.290196 
L 497.457093 208.917937 
L 529.53107 207.613254 
L 529.53107 202.579135 
L 612.909818 202.270511 
L 612.909818 202.122175 
L 612.909818 202.122175 
L 616.277508 202.131997 
L 616.37076 207.11067 
L 616.907527 208.132961 
L 616.907527 214.130235 
L 618.603232 214.491367 
L 618.603232 214.45547 
L 618.603232 211.94484 
L 621.275216 210.962511 
L 621.275216 201.934382 
L 624.105412 200.452592 
L 624.105412 189.167293 
L 630.628694 187.438359 
L 630.628694 175.149056 
L 654.303283 173.46214 
L 654.303283 163.327717 
L 719.70558 162.199844 
L 719.70558 157.083935 
L 809.427273 156.767867 
L 809.427273 156.451489 
L 809.427273 156.451489 
" style="fill:none;stroke:#800000;stroke-linecap:square;stroke-width:1.5;"/>
   </g>
   <g id="line2d_70">
    <path clip-path="url(#pf38c81bb30)" d="M 149.972727 605.285681 
L 174.220576 605.255498 
L 174.220576 605.215914 
L 174.220576 605.155835 
L 175.952223 605.071695 
L 175.952223 604.120673 
L 184.264364 603.804844 
L 184.264364 602.600475 
L 196.603205 602.123512 
L 196.603205 600.510174 
L 197.526671 599.93923 
L 197.526671 597.030239 
L 202.530882 596.447521 
L 202.530882 593.098078 
L 215.918182 592.25608 
L 215.918182 589.022292 
L 218.426269 587.63351 
L 218.426269 584.306725 
L 219.058641 582.346097 
L 219.058641 566.811566 
L 222.593975 563.782123 
L 222.593975 548.368715 
L 232.799588 545.450082 
L 232.799588 532.738185 
L 235.772807 530.633873 
L 235.772807 525.286779 
L 236.278172 523.787536 
L 236.278172 517.55849 
L 239.133323 516.368067 
L 239.133323 504.898952 
L 246.780655 502.625627 
L 246.780655 495.164403 
L 247.625455 492.552768 
L 247.625455 477.71763 
L 259.734019 475.610757 
L 259.734019 464.774198 
L 266.548923 463.689477 
L 266.548923 461.611795 
L 266.921371 460.578456 
L 266.921371 451.842009 
L 269.043998 449.659907 
L 269.043998 428.414375 
L 271.312364 424.8441 
L 271.312364 417.612815 
L 275.529132 414.010218 
L 275.529132 390.697393 
L 285.161102 387.786049 
L 285.161102 375.226497 
L 294.71962 373.141896 
L 294.71962 363.685756 
L 314.836364 362.597202 
L 314.836364 360.054361 
L 342.090297 359.41712 
L 342.090297 357.950859 
L 342.316525 357.57376 
L 342.316525 355.821922 
L 343.614455 355.400774 
L 343.614455 351.400736 
L 347.668357 350.420699 
L 347.668357 340.472601 
L 353.921368 338.594952 
L 353.921368 323.1142 
L 360.379035 320.746043 
L 360.379035 305.506961 
L 374.692931 303.702683 
L 374.692931 295.740057 
L 421.668 294.923159 
L 421.668 293.326926 
L 477.318684 293.063488 
L 477.318684 292.901455 
L 477.451507 292.901455 
L 477.451507 292.981532 
L 477.451507 293.715652 
L 478.215523 294.080462 
L 478.215523 296.346976 
L 480.623263 296.686909 
L 480.623263 296.481369 
L 480.623263 294.137045 
L 484.399494 293.141374 
L 484.399494 281.801796 
L 488.376375 279.694509 
L 488.376375 266.30773 
L 497.457093 264.143635 
L 497.457093 251.740562 
L 529.53107 250.503146 
L 529.53107 246.49452 
L 612.909818 246.407545 
L 612.909818 246.481224 
L 616.277508 246.709715 
L 616.37076 252.927847 
L 616.907527 254.024292 
L 616.907527 260.497948 
L 618.603232 260.987925 
L 618.603232 261.355912 
L 618.603232 259.935155 
L 621.275216 259.160005 
L 621.275216 250.098028 
L 624.105412 248.314075 
L 624.105412 232.737957 
L 630.628694 230.132175 
L 630.628694 210.606215 
L 654.303283 207.802126 
L 654.303283 190.24114 
L 719.70558 188.198485 
L 719.70558 178.64673 
L 809.427273 178.038728 
L 809.427273 177.427997 
L 809.427273 177.427997 
" style="fill:none;stroke:#990000;stroke-linecap:square;stroke-width:1.5;"/>
   </g>
   <g id="line2d_71">
    <path clip-path="url(#pf38c81bb30)" d="M 149.972727 567.086183 
L 159.298823 567.086183 
L 159.298823 567.1637 
L 174.220576 567.533473 
L 174.220576 567.638151 
L 175.952223 567.812821 
L 175.952223 567.869991 
L 175.952223 567.671077 
L 184.264364 567.521798 
L 184.264364 566.882381 
L 196.603205 566.616659 
L 196.603205 565.721621 
L 197.526671 565.40375 
L 197.526671 563.798643 
L 202.530882 563.485572 
L 202.530882 561.991176 
L 215.918182 561.704909 
L 215.918182 560.8646 
L 218.426269 560.589086 
L 218.426269 560.037231 
L 219.058641 559.758383 
L 219.058641 557.920935 
L 222.593975 557.566019 
L 222.593975 555.563505 
L 232.799588 555.132531 
L 232.799588 553.130446 
L 235.772807 552.812826 
L 235.772807 552.160422 
L 236.278172 552.034596 
L 236.278172 552.075605 
L 236.278172 552.18951 
L 239.133323 552.374748 
L 239.133323 555.36839 
L 246.780655 555.952375 
L 246.780655 557.701395 
L 247.625455 558.256512 
L 247.625455 560.67934 
L 259.734019 560.874554 
L 259.734019 560.992457 
L 259.734019 558.305421 
L 266.548923 557.346297 
L 266.548923 554.914196 
L 266.921371 553.446789 
L 266.921371 542.129612 
L 269.043998 540.088498 
L 269.043998 528.68766 
L 271.312364 527.759265 
L 271.312364 526.573989 
L 275.529132 526.31358 
L 275.529132 526.31358 
L 275.529132 528.46267 
L 285.161102 529.497462 
L 285.161102 536.654783 
L 294.71962 538.292207 
L 294.71962 546.775019 
L 314.836364 547.647099 
L 314.836364 548.495184 
L 314.836364 547.943053 
L 342.090297 547.062095 
L 342.090297 542.219711 
L 342.316525 540.012963 
L 342.316525 525.402464 
L 343.614455 522.023112 
L 343.614455 500.172426 
L 347.668357 496.311572 
L 347.668357 466.659602 
L 353.921368 462.04488 
L 353.921368 429.875742 
L 360.379035 425.661276 
L 360.379035 401.864085 
L 374.692931 399.402222 
L 374.692931 389.54306 
L 421.668 388.640422 
L 421.668 386.910718 
L 477.318684 386.597224 
L 477.318684 386.245605 
L 477.451507 386.064398 
L 477.451507 385.783309 
L 478.215523 385.600137 
L 478.215523 382.877387 
L 480.623263 382.10441 
L 480.623263 375.181884 
L 484.399494 373.570332 
L 484.399494 358.081537 
L 488.376375 355.348962 
L 488.376375 337.976388 
L 497.457093 335.132624 
L 497.457093 318.315634 
L 529.53107 316.544997 
L 529.53107 310.232162 
L 616.277508 310.024501 
L 616.37076 317.672319 
L 616.907527 319.119139 
L 616.907527 326.931363 
L 618.603232 327.050513 
L 618.603232 322.342492 
L 621.275216 320.856386 
L 621.275216 307.140262 
L 624.105412 304.640775 
L 624.105412 281.173576 
L 630.628694 276.928243 
L 630.628694 244.209157 
L 654.303283 239.553074 
L 654.303283 211.395228 
L 719.70558 208.243237 
L 719.70558 193.835333 
L 809.427273 192.935618 
L 809.427273 192.034106 
L 809.427273 192.034106 
" style="fill:none;stroke:#b20000;stroke-linecap:square;stroke-width:1.5;"/>
   </g>
   <g id="line2d_72">
    <path clip-path="url(#pf38c81bb30)" d="M 149.972727 552.318572 
L 159.298823 552.150112 
L 159.298823 551.575244 
L 163.161818 551.177883 
L 163.161818 550.717688 
L 174.220576 550.199971 
L 174.220576 549.024015 
L 175.952223 548.380665 
L 175.952223 544.841665 
L 184.264364 544.099742 
L 184.264364 541.847252 
L 196.603205 541.090745 
L 196.603205 538.804765 
L 197.526671 538.039117 
L 197.526671 534.24345 
L 202.530882 533.507134 
L 202.530882 530.138787 
L 215.918182 529.556955 
L 215.918182 528.071803 
L 218.426269 527.676371 
L 218.426269 527.056298 
L 219.058641 526.83666 
L 219.058641 526.559648 
L 219.058641 526.594732 
L 222.593975 526.692769 
L 222.593975 527.990494 
L 232.799588 528.372086 
L 232.799588 530.479822 
L 235.772807 530.888501 
L 235.772807 531.994093 
L 236.278172 532.317594 
L 236.278172 533.709934 
L 239.133323 533.97779 
L 239.133323 536.298928 
L 246.780655 536.696882 
L 246.780655 537.886172 
L 247.625455 538.254088 
L 247.625455 539.600806 
L 259.734019 539.463479 
L 259.734019 538.441556 
L 266.548923 538.276701 
L 266.548923 537.997711 
L 266.921371 537.798758 
L 266.921371 537.532928 
L 269.043998 537.432212 
L 269.043998 536.807955 
L 271.312364 536.65536 
L 271.312364 536.332795 
L 275.529132 536.171699 
L 275.529132 535.452401 
L 285.161102 535.445163 
L 285.161102 535.508127 
L 285.161102 535.577022 
L 294.71962 535.772548 
L 294.71962 536.376555 
L 314.836364 536.569253 
L 314.836364 536.506673 
L 342.090297 536.406182 
L 342.090297 535.890627 
L 342.316525 535.659352 
L 342.316525 534.094638 
L 343.614455 533.727912 
L 343.614455 530.521229 
L 347.668357 529.624146 
L 347.668357 515.825153 
L 353.921368 512.457592 
L 353.921368 482.2427 
L 360.379035 477.691791 
L 360.379035 451.122504 
L 374.692931 448.420182 
L 374.692931 439.204515 
L 421.668 438.84296 
L 421.668 438.84296 
L 477.318684 439.152396 
L 477.318684 440.696455 
L 477.451507 441.89884 
L 477.451507 451.187089 
L 478.215523 453.443589 
L 478.215523 465.684608 
L 480.623263 467.102882 
L 480.623263 470.903589 
L 484.399494 470.751416 
L 484.399494 466.270539 
L 488.376375 464.854787 
L 488.376375 450.939284 
L 497.457093 447.927846 
L 497.457093 427.184461 
L 529.53107 424.741073 
L 529.53107 414.842751 
L 612.909818 414.037537 
L 612.909818 412.997097 
L 616.277508 412.997097 
L 616.277508 413.069647 
L 616.37076 413.322196 
L 616.37076 416.400438 
L 616.907527 417.149166 
L 616.907527 419.7593 
L 616.907527 419.433385 
L 618.603232 419.04318 
L 618.603232 413.350747 
L 621.275216 411.432602 
L 621.275216 377.072658 
L 624.105412 368.805284 
L 624.105412 302.247398 
L 630.628694 292.880805 
L 630.628694 235.38541 
L 654.303283 228.508602 
L 654.303283 190.443195 
L 719.70558 186.457405 
L 719.70558 168.725403 
L 809.427273 167.641305 
L 809.427273 166.557414 
L 809.427273 166.557414 
" style="fill:none;stroke:#cc0000;stroke-linecap:square;stroke-width:1.5;"/>
   </g>
   <g id="line2d_73">
    <path clip-path="url(#pf38c81bb30)" d="M 149.972727 522.034473 
L 159.298823 521.91156 
L 159.298823 521.818701 
L 163.161818 521.709593 
L 163.161818 521.5886 
L 174.220576 521.460355 
L 174.220576 521.197991 
L 175.952223 521.073045 
L 175.952223 520.626388 
L 197.526671 520.621219 
L 197.526671 520.732303 
L 197.526671 520.702161 
L 202.530882 520.566141 
L 202.530882 519.939292 
L 215.918182 519.706063 
L 215.918182 518.856072 
L 218.426269 518.537014 
L 218.426269 517.876692 
L 219.058641 517.546796 
L 219.058641 515.902437 
L 222.593975 515.715343 
L 222.593975 515.190943 
L 236.278172 515.025666 
L 236.278172 515.022105 
L 236.278172 515.048456 
L 239.133323 515.151915 
L 239.133323 516.19362 
L 246.780655 516.477117 
L 246.780655 517.427396 
L 247.625455 517.751317 
L 247.625455 519.112827 
L 259.734019 519.134877 
L 259.734019 519.037176 
L 259.734019 517.771751 
L 266.548923 517.524272 
L 266.548923 517.062059 
L 266.921371 516.859039 
L 266.921371 516.144152 
L 269.043998 516.08535 
L 269.043998 516.155983 
L 275.529132 516.363141 
L 275.529132 516.85743 
L 285.161102 517.005144 
L 285.161102 517.269387 
L 294.71962 517.421763 
L 294.71962 517.272359 
L 314.836364 517.176369 
L 314.836364 516.747729 
L 342.090297 516.562507 
L 342.090297 515.92408 
L 342.316525 515.70175 
L 342.316525 514.749765 
L 343.614455 514.517791 
L 343.614455 514.319623 
L 347.668357 514.213217 
L 347.668357 513.922836 
L 353.921368 513.771261 
L 353.921368 512.113407 
L 360.379035 511.830392 
L 360.379035 509.943245 
L 374.692931 509.70673 
L 374.692931 508.550222 
L 421.668 508.410145 
L 421.668 508.107497 
L 477.451507 508.01864 
L 477.451507 508.096956 
L 477.451507 508.293329 
L 478.215523 508.435881 
L 478.215523 509.823722 
L 480.623263 510.117899 
L 480.623263 511.880174 
L 484.399494 512.128769 
L 484.399494 512.92784 
L 484.399494 512.847844 
L 488.376375 512.72853 
L 488.376375 511.370957 
L 497.457093 511.085203 
L 497.457093 509.268013 
L 529.53107 509.08423 
L 529.53107 508.145468 
L 612.909818 507.913028 
L 612.909818 506.712262 
L 616.277508 506.066511 
L 616.37076 494.247805 
L 616.907527 492.026073 
L 616.907527 476.290675 
L 618.603232 474.412204 
L 618.603232 439.764574 
L 621.275216 430.59303 
L 621.275216 344.173371 
L 624.105412 331.488112 
L 624.105412 250.929062 
L 630.628694 240.844849 
L 630.628694 180.929866 
L 654.303283 173.896698 
L 654.303283 135.223208 
L 719.70558 131.192843 
L 719.70558 113.294293 
L 809.427273 112.201509 
L 809.427273 111.109091 
L 809.427273 111.109091 
" style="fill:none;stroke:#e60000;stroke-linecap:square;stroke-width:1.5;"/>
   </g>
   <g id="patch_3">
    <path d="M 117 630 
L 117 86.4 
" style="fill:none;stroke:#000000;stroke-linecap:square;stroke-linejoin:miter;stroke-width:0.8;"/>
   </g>
   <g id="patch_4">
    <path d="M 842.4 630 
L 842.4 86.4 
" style="fill:none;stroke:#000000;stroke-linecap:square;stroke-linejoin:miter;stroke-width:0.8;"/>
   </g>
   <g id="patch_5">
    <path d="M 117 630 
L 842.4 630 
" style="fill:none;stroke:#000000;stroke-linecap:square;stroke-linejoin:miter;stroke-width:0.8;"/>
   </g>
   <g id="patch_6">
    <path d="M 117 86.4 
L 842.4 86.4 
" style="fill:none;stroke:#000000;stroke-linecap:square;stroke-linejoin:miter;stroke-width:0.8;"/>
   </g>
   <g id="text_17">
    <!-- X,Y shift estimation error with regard to learning_rate -->
    <defs>
     <path d="M 6.296875 72.90625 
L 16.890625 72.90625 
L 35.015625 45.796875 
L 53.21875 72.90625 
L 63.8125 72.90625 
L 40.375 37.890625 
L 65.375 0 
L 54.78125 0 
L 34.28125 31 
L 13.625 0 
L 2.984375 0 
L 29 38.921875 
z
" id="DejaVuSans-88"/>
     <path d="M 11.71875 12.40625 
L 22.015625 12.40625 
L 22.015625 4 
L 14.015625 -11.625 
L 7.71875 -11.625 
L 11.71875 4 
z
" id="DejaVuSans-44"/>
     <path d="M -0.203125 72.90625 
L 10.40625 72.90625 
L 30.609375 42.921875 
L 50.6875 72.90625 
L 61.28125 72.90625 
L 35.5 34.71875 
L 35.5 0 
L 25.59375 0 
L 25.59375 34.71875 
z
" id="DejaVuSans-89"/>
     <path d="M 4.203125 54.6875 
L 13.1875 54.6875 
L 24.421875 12.015625 
L 35.59375 54.6875 
L 46.1875 54.6875 
L 57.421875 12.015625 
L 68.609375 54.6875 
L 77.59375 54.6875 
L 63.28125 0 
L 52.6875 0 
L 40.921875 44.828125 
L 29.109375 0 
L 18.5 0 
z
" id="DejaVuSans-119"/>
    </defs>
    <g transform="translate(318.5625 80.4)scale(0.12 -0.12)">
     <use xlink:href="#DejaVuSans-88"/>
     <use x="68.505859" xlink:href="#DejaVuSans-44"/>
     <use x="100.292969" xlink:href="#DejaVuSans-89"/>
     <use x="161.376953" xlink:href="#DejaVuSans-32"/>
     <use x="193.164062" xlink:href="#DejaVuSans-115"/>
     <use x="245.263672" xlink:href="#DejaVuSans-104"/>
     <use x="308.642578" xlink:href="#DejaVuSans-105"/>
     <use x="336.425781" xlink:href="#DejaVuSans-102"/>
     <use x="371.615234" xlink:href="#DejaVuSans-116"/>
     <use x="410.824219" xlink:href="#DejaVuSans-32"/>
     <use x="442.611328" xlink:href="#DejaVuSans-101"/>
     <use x="504.134766" xlink:href="#DejaVuSans-115"/>
     <use x="556.234375" xlink:href="#DejaVuSans-116"/>
     <use x="595.443359" xlink:href="#DejaVuSans-105"/>
     <use x="623.226562" xlink:href="#DejaVuSans-109"/>
     <use x="720.638672" xlink:href="#DejaVuSans-97"/>
     <use x="781.917969" xlink:href="#DejaVuSans-116"/>
     <use x="821.126953" xlink:href="#DejaVuSans-105"/>
     <use x="848.910156" xlink:href="#DejaVuSans-111"/>
     <use x="910.091797" xlink:href="#DejaVuSans-110"/>
     <use x="973.470703" xlink:href="#DejaVuSans-32"/>
     <use x="1005.257812" xlink:href="#DejaVuSans-101"/>
     <use x="1066.78125" xlink:href="#DejaVuSans-114"/>
     <use x="1107.878906" xlink:href="#DejaVuSans-114"/>
     <use x="1148.960938" xlink:href="#DejaVuSans-111"/>
     <use x="1210.142578" xlink:href="#DejaVuSans-114"/>
     <use x="1251.255859" xlink:href="#DejaVuSans-32"/>
     <use x="1283.042969" xlink:href="#DejaVuSans-119"/>
     <use x="1364.830078" xlink:href="#DejaVuSans-105"/>
     <use x="1392.613281" xlink:href="#DejaVuSans-116"/>
     <use x="1431.822266" xlink:href="#DejaVuSans-104"/>
     <use x="1495.201172" xlink:href="#DejaVuSans-32"/>
     <use x="1526.988281" xlink:href="#DejaVuSans-114"/>
     <use x="1568.070312" xlink:href="#DejaVuSans-101"/>
     <use x="1629.59375" xlink:href="#DejaVuSans-103"/>
     <use x="1693.070312" xlink:href="#DejaVuSans-97"/>
     <use x="1754.349609" xlink:href="#DejaVuSans-114"/>
     <use x="1795.447266" xlink:href="#DejaVuSans-100"/>
     <use x="1858.923828" xlink:href="#DejaVuSans-32"/>
     <use x="1890.710938" xlink:href="#DejaVuSans-116"/>
     <use x="1929.919922" xlink:href="#DejaVuSans-111"/>
     <use x="1991.101562" xlink:href="#DejaVuSans-32"/>
     <use x="2022.888672" xlink:href="#DejaVuSans-108"/>
     <use x="2050.671875" xlink:href="#DejaVuSans-101"/>
     <use x="2112.195312" xlink:href="#DejaVuSans-97"/>
     <use x="2173.474609" xlink:href="#DejaVuSans-114"/>
     <use x="2214.572266" xlink:href="#DejaVuSans-110"/>
     <use x="2277.951172" xlink:href="#DejaVuSans-105"/>
     <use x="2305.734375" xlink:href="#DejaVuSans-110"/>
     <use x="2369.113281" xlink:href="#DejaVuSans-103"/>
     <use x="2432.589844" xlink:href="#DejaVuSans-95"/>
     <use x="2482.589844" xlink:href="#DejaVuSans-114"/>
     <use x="2523.703125" xlink:href="#DejaVuSans-97"/>
     <use x="2584.982422" xlink:href="#DejaVuSans-116"/>
     <use x="2624.191406" xlink:href="#DejaVuSans-101"/>
    </g>
   </g>
   <g id="legend_1">
    <g id="patch_7">
     <path d="M 124 299.89375 
L 192.460938 299.89375 
Q 194.460938 299.89375 194.460938 297.89375 
L 194.460938 93.4 
Q 194.460938 91.4 192.460938 91.4 
L 124 91.4 
Q 122 91.4 122 93.4 
L 122 297.89375 
Q 122 299.89375 124 299.89375 
z
" style="fill:#ffffff;opacity:0.8;stroke:#cccccc;stroke-linejoin:miter;"/>
    </g>
    <g id="text_18">
     <!-- learning rate -->
     <g transform="translate(126 102.998438)scale(0.1 -0.1)">
      <use xlink:href="#DejaVuSans-108"/>
      <use x="27.783203" xlink:href="#DejaVuSans-101"/>
      <use x="89.306641" xlink:href="#DejaVuSans-97"/>
      <use x="150.585938" xlink:href="#DejaVuSans-114"/>
      <use x="191.683594" xlink:href="#DejaVuSans-110"/>
      <use x="255.0625" xlink:href="#DejaVuSans-105"/>
      <use x="282.845703" xlink:href="#DejaVuSans-110"/>
      <use x="346.224609" xlink:href="#DejaVuSans-103"/>
      <use x="409.701172" xlink:href="#DejaVuSans-32"/>
      <use x="441.488281" xlink:href="#DejaVuSans-114"/>
      <use x="482.601562" xlink:href="#DejaVuSans-97"/>
      <use x="543.880859" xlink:href="#DejaVuSans-116"/>
      <use x="583.089844" xlink:href="#DejaVuSans-101"/>
     </g>
    </g>
    <g id="line2d_74">
     <path d="M 129.916406 114.176563 
L 149.916406 114.176563 
" style="fill:none;stroke:#000000;stroke-linecap:square;stroke-width:1.5;"/>
    </g>
    <g id="line2d_75"/>
    <g id="text_19">
     <!-- 0.001 -->
     <defs>
      <path d="M 10.6875 12.40625 
L 21 12.40625 
L 21 0 
L 10.6875 0 
z
" id="DejaVuSans-46"/>
     </defs>
     <g transform="translate(157.916406 117.676563)scale(0.1 -0.1)">
      <use xlink:href="#DejaVuSans-48"/>
      <use x="63.623047" xlink:href="#DejaVuSans-46"/>
      <use x="95.410156" xlink:href="#DejaVuSans-48"/>
      <use x="159.033203" xlink:href="#DejaVuSans-48"/>
      <use x="222.65625" xlink:href="#DejaVuSans-49"/>
     </g>
    </g>
    <g id="line2d_76">
     <path d="M 129.916406 128.854688 
L 149.916406 128.854688 
" style="fill:none;stroke:#010000;stroke-linecap:square;stroke-width:1.5;"/>
    </g>
    <g id="line2d_77"/>
    <g id="text_20">
     <!-- 0.005 -->
     <g transform="translate(157.916406 132.354688)scale(0.1 -0.1)">
      <use xlink:href="#DejaVuSans-48"/>
      <use x="63.623047" xlink:href="#DejaVuSans-46"/>
      <use x="95.410156" xlink:href="#DejaVuSans-48"/>
      <use x="159.033203" xlink:href="#DejaVuSans-48"/>
      <use x="222.65625" xlink:href="#DejaVuSans-53"/>
     </g>
    </g>
    <g id="line2d_78">
     <path d="M 129.916406 143.532813 
L 149.916406 143.532813 
" style="fill:none;stroke:#030000;stroke-linecap:square;stroke-width:1.5;"/>
    </g>
    <g id="line2d_79"/>
    <g id="text_21">
     <!-- 0.01 -->
     <g transform="translate(157.916406 147.032813)scale(0.1 -0.1)">
      <use xlink:href="#DejaVuSans-48"/>
      <use x="63.623047" xlink:href="#DejaVuSans-46"/>
      <use x="95.410156" xlink:href="#DejaVuSans-48"/>
      <use x="159.033203" xlink:href="#DejaVuSans-49"/>
     </g>
    </g>
    <g id="line2d_80">
     <path d="M 129.916406 158.210938 
L 149.916406 158.210938 
" style="fill:none;stroke:#0d0000;stroke-linecap:square;stroke-width:1.5;"/>
    </g>
    <g id="line2d_81"/>
    <g id="text_22">
     <!-- 0.05 -->
     <g transform="translate(157.916406 161.710938)scale(0.1 -0.1)">
      <use xlink:href="#DejaVuSans-48"/>
      <use x="63.623047" xlink:href="#DejaVuSans-46"/>
      <use x="95.410156" xlink:href="#DejaVuSans-48"/>
      <use x="159.033203" xlink:href="#DejaVuSans-53"/>
     </g>
    </g>
    <g id="line2d_82">
     <path d="M 129.916406 172.889063 
L 149.916406 172.889063 
" style="fill:none;stroke:#1a0000;stroke-linecap:square;stroke-width:1.5;"/>
    </g>
    <g id="line2d_83"/>
    <g id="text_23">
     <!-- 0.1 -->
     <g transform="translate(157.916406 176.389063)scale(0.1 -0.1)">
      <use xlink:href="#DejaVuSans-48"/>
      <use x="63.623047" xlink:href="#DejaVuSans-46"/>
      <use x="95.410156" xlink:href="#DejaVuSans-49"/>
     </g>
    </g>
    <g id="line2d_84">
     <path d="M 129.916406 187.567188 
L 149.916406 187.567188 
" style="fill:none;stroke:#330000;stroke-linecap:square;stroke-width:1.5;"/>
    </g>
    <g id="line2d_85"/>
    <g id="text_24">
     <!-- 0.2 -->
     <g transform="translate(157.916406 191.067188)scale(0.1 -0.1)">
      <use xlink:href="#DejaVuSans-48"/>
      <use x="63.623047" xlink:href="#DejaVuSans-46"/>
      <use x="95.410156" xlink:href="#DejaVuSans-50"/>
     </g>
    </g>
    <g id="line2d_86">
     <path d="M 129.916406 202.245313 
L 149.916406 202.245313 
" style="fill:none;stroke:#4c0000;stroke-linecap:square;stroke-width:1.5;"/>
    </g>
    <g id="line2d_87"/>
    <g id="text_25">
     <!-- 0.3 -->
     <g transform="translate(157.916406 205.745313)scale(0.1 -0.1)">
      <use xlink:href="#DejaVuSans-48"/>
      <use x="63.623047" xlink:href="#DejaVuSans-46"/>
      <use x="95.410156" xlink:href="#DejaVuSans-51"/>
     </g>
    </g>
    <g id="line2d_88">
     <path d="M 129.916406 216.923438 
L 149.916406 216.923438 
" style="fill:none;stroke:#660000;stroke-linecap:square;stroke-width:1.5;"/>
    </g>
    <g id="line2d_89"/>
    <g id="text_26">
     <!-- 0.4 -->
     <g transform="translate(157.916406 220.423438)scale(0.1 -0.1)">
      <use xlink:href="#DejaVuSans-48"/>
      <use x="63.623047" xlink:href="#DejaVuSans-46"/>
      <use x="95.410156" xlink:href="#DejaVuSans-52"/>
     </g>
    </g>
    <g id="line2d_90">
     <path d="M 129.916406 231.601563 
L 149.916406 231.601563 
" style="fill:none;stroke:#800000;stroke-linecap:square;stroke-width:1.5;"/>
    </g>
    <g id="line2d_91"/>
    <g id="text_27">
     <!-- 0.5 -->
     <g transform="translate(157.916406 235.101563)scale(0.1 -0.1)">
      <use xlink:href="#DejaVuSans-48"/>
      <use x="63.623047" xlink:href="#DejaVuSans-46"/>
      <use x="95.410156" xlink:href="#DejaVuSans-53"/>
     </g>
    </g>
    <g id="line2d_92">
     <path d="M 129.916406 246.279688 
L 149.916406 246.279688 
" style="fill:none;stroke:#990000;stroke-linecap:square;stroke-width:1.5;"/>
    </g>
    <g id="line2d_93"/>
    <g id="text_28">
     <!-- 0.6 -->
     <g transform="translate(157.916406 249.779688)scale(0.1 -0.1)">
      <use xlink:href="#DejaVuSans-48"/>
      <use x="63.623047" xlink:href="#DejaVuSans-46"/>
      <use x="95.410156" xlink:href="#DejaVuSans-54"/>
     </g>
    </g>
    <g id="line2d_94">
     <path d="M 129.916406 260.957813 
L 149.916406 260.957813 
" style="fill:none;stroke:#b20000;stroke-linecap:square;stroke-width:1.5;"/>
    </g>
    <g id="line2d_95"/>
    <g id="text_29">
     <!-- 0.7 -->
     <g transform="translate(157.916406 264.457813)scale(0.1 -0.1)">
      <use xlink:href="#DejaVuSans-48"/>
      <use x="63.623047" xlink:href="#DejaVuSans-46"/>
      <use x="95.410156" xlink:href="#DejaVuSans-55"/>
     </g>
    </g>
    <g id="line2d_96">
     <path d="M 129.916406 275.635938 
L 149.916406 275.635938 
" style="fill:none;stroke:#cc0000;stroke-linecap:square;stroke-width:1.5;"/>
    </g>
    <g id="line2d_97"/>
    <g id="text_30">
     <!-- 0.8 -->
     <defs>
      <path d="M 31.78125 34.625 
Q 24.75 34.625 20.71875 30.859375 
Q 16.703125 27.09375 16.703125 20.515625 
Q 16.703125 13.921875 20.71875 10.15625 
Q 24.75 6.390625 31.78125 6.390625 
Q 38.8125 6.390625 42.859375 10.171875 
Q 46.921875 13.96875 46.921875 20.515625 
Q 46.921875 27.09375 42.890625 30.859375 
Q 38.875 34.625 31.78125 34.625 
z
M 21.921875 38.8125 
Q 15.578125 40.375 12.03125 44.71875 
Q 8.5 49.078125 8.5 55.328125 
Q 8.5 64.0625 14.71875 69.140625 
Q 20.953125 74.21875 31.78125 74.21875 
Q 42.671875 74.21875 48.875 69.140625 
Q 55.078125 64.0625 55.078125 55.328125 
Q 55.078125 49.078125 51.53125 44.71875 
Q 48 40.375 41.703125 38.8125 
Q 48.828125 37.15625 52.796875 32.3125 
Q 56.78125 27.484375 56.78125 20.515625 
Q 56.78125 9.90625 50.3125 4.234375 
Q 43.84375 -1.421875 31.78125 -1.421875 
Q 19.734375 -1.421875 13.25 4.234375 
Q 6.78125 9.90625 6.78125 20.515625 
Q 6.78125 27.484375 10.78125 32.3125 
Q 14.796875 37.15625 21.921875 38.8125 
z
M 18.3125 54.390625 
Q 18.3125 48.734375 21.84375 45.5625 
Q 25.390625 42.390625 31.78125 42.390625 
Q 38.140625 42.390625 41.71875 45.5625 
Q 45.3125 48.734375 45.3125 54.390625 
Q 45.3125 60.0625 41.71875 63.234375 
Q 38.140625 66.40625 31.78125 66.40625 
Q 25.390625 66.40625 21.84375 63.234375 
Q 18.3125 60.0625 18.3125 54.390625 
z
" id="DejaVuSans-56"/>
     </defs>
     <g transform="translate(157.916406 279.135938)scale(0.1 -0.1)">
      <use xlink:href="#DejaVuSans-48"/>
      <use x="63.623047" xlink:href="#DejaVuSans-46"/>
      <use x="95.410156" xlink:href="#DejaVuSans-56"/>
     </g>
    </g>
    <g id="line2d_98">
     <path d="M 129.916406 290.314062 
L 149.916406 290.314062 
" style="fill:none;stroke:#e60000;stroke-linecap:square;stroke-width:1.5;"/>
    </g>
    <g id="line2d_99"/>
    <g id="text_31">
     <!-- 0.9 -->
     <defs>
      <path d="M 10.984375 1.515625 
L 10.984375 10.5 
Q 14.703125 8.734375 18.5 7.8125 
Q 22.3125 6.890625 25.984375 6.890625 
Q 35.75 6.890625 40.890625 13.453125 
Q 46.046875 20.015625 46.78125 33.40625 
Q 43.953125 29.203125 39.59375 26.953125 
Q 35.25 24.703125 29.984375 24.703125 
Q 19.046875 24.703125 12.671875 31.3125 
Q 6.296875 37.9375 6.296875 49.421875 
Q 6.296875 60.640625 12.9375 67.421875 
Q 19.578125 74.21875 30.609375 74.21875 
Q 43.265625 74.21875 49.921875 64.515625 
Q 56.59375 54.828125 56.59375 36.375 
Q 56.59375 19.140625 48.40625 8.859375 
Q 40.234375 -1.421875 26.421875 -1.421875 
Q 22.703125 -1.421875 18.890625 -0.6875 
Q 15.09375 0.046875 10.984375 1.515625 
z
M 30.609375 32.421875 
Q 37.25 32.421875 41.125 36.953125 
Q 45.015625 41.5 45.015625 49.421875 
Q 45.015625 57.28125 41.125 61.84375 
Q 37.25 66.40625 30.609375 66.40625 
Q 23.96875 66.40625 20.09375 61.84375 
Q 16.21875 57.28125 16.21875 49.421875 
Q 16.21875 41.5 20.09375 36.953125 
Q 23.96875 32.421875 30.609375 32.421875 
z
" id="DejaVuSans-57"/>
     </defs>
     <g transform="translate(157.916406 293.814062)scale(0.1 -0.1)">
      <use xlink:href="#DejaVuSans-48"/>
      <use x="63.623047" xlink:href="#DejaVuSans-46"/>
      <use x="95.410156" xlink:href="#DejaVuSans-57"/>
     </g>
    </g>
   </g>
  </g>
 </g>
 <defs>
  <clipPath id="pf38c81bb30">
   <rect height="543.6" width="725.4" x="117" y="86.4"/>
  </clipPath>
 </defs>
</svg>
