<?xml version="1.0" encoding="utf-8" standalone="no"?>
<!DOCTYPE svg PUBLIC "-//W3C//DTD SVG 1.1//EN"
  "http://www.w3.org/Graphics/SVG/1.1/DTD/svg11.dtd">
<!-- Created with matplotlib (https://matplotlib.org/) -->
<svg height="720pt" version="1.1" viewBox="0 0 936 720" width="936pt" xmlns="http://www.w3.org/2000/svg" xmlns:xlink="http://www.w3.org/1999/xlink">
 <defs>
  <style type="text/css">
*{stroke-linecap:butt;stroke-linejoin:round;}
  </style>
 </defs>
 <g id="figure_1">
  <g id="patch_1">
   <path d="M 0 720 
L 936 720 
L 936 0 
L 0 0 
z
" style="fill:#ffffff;"/>
  </g>
  <g id="axes_1">
   <g id="patch_2">
    <path d="M 117 630 
L 842.4 630 
L 842.4 86.4 
L 117 86.4 
z
" style="fill:#ffffff;"/>
   </g>
   <g id="matplotlib.axis_1">
    <g id="xtick_1">
     <g id="line2d_1">
      <defs>
       <path d="M 0 0 
L 0 3.5 
" id="mfd775fe203" style="stroke:#000000;stroke-width:0.8;"/>
      </defs>
      <g>
       <use style="stroke:#000000;stroke-width:0.8;" x="149.972727" xlink:href="#mfd775fe203" y="630"/>
      </g>
     </g>
     <g id="text_1">
      <!-- 0 -->
      <defs>
       <path d="M 31.78125 66.40625 
Q 24.171875 66.40625 20.328125 58.90625 
Q 16.5 51.421875 16.5 36.375 
Q 16.5 21.390625 20.328125 13.890625 
Q 24.171875 6.390625 31.78125 6.390625 
Q 39.453125 6.390625 43.28125 13.890625 
Q 47.125 21.390625 47.125 36.375 
Q 47.125 51.421875 43.28125 58.90625 
Q 39.453125 66.40625 31.78125 66.40625 
z
M 31.78125 74.21875 
Q 44.046875 74.21875 50.515625 64.515625 
Q 56.984375 54.828125 56.984375 36.375 
Q 56.984375 17.96875 50.515625 8.265625 
Q 44.046875 -1.421875 31.78125 -1.421875 
Q 19.53125 -1.421875 13.0625 8.265625 
Q 6.59375 17.96875 6.59375 36.375 
Q 6.59375 54.828125 13.0625 64.515625 
Q 19.53125 74.21875 31.78125 74.21875 
z
" id="DejaVuSans-48"/>
      </defs>
      <g transform="translate(146.791477 644.598438)scale(0.1 -0.1)">
       <use xlink:href="#DejaVuSans-48"/>
      </g>
     </g>
    </g>
    <g id="xtick_2">
     <g id="line2d_2">
      <g>
       <use style="stroke:#000000;stroke-width:0.8;" x="243.233683" xlink:href="#mfd775fe203" y="630"/>
      </g>
     </g>
     <g id="text_2">
      <!-- 10 -->
      <defs>
       <path d="M 12.40625 8.296875 
L 28.515625 8.296875 
L 28.515625 63.921875 
L 10.984375 60.40625 
L 10.984375 69.390625 
L 28.421875 72.90625 
L 38.28125 72.90625 
L 38.28125 8.296875 
L 54.390625 8.296875 
L 54.390625 0 
L 12.40625 0 
z
" id="DejaVuSans-49"/>
      </defs>
      <g transform="translate(236.871183 644.598438)scale(0.1 -0.1)">
       <use xlink:href="#DejaVuSans-49"/>
       <use x="63.623047" xlink:href="#DejaVuSans-48"/>
      </g>
     </g>
    </g>
    <g id="xtick_3">
     <g id="line2d_3">
      <g>
       <use style="stroke:#000000;stroke-width:0.8;" x="336.49464" xlink:href="#mfd775fe203" y="630"/>
      </g>
     </g>
     <g id="text_3">
      <!-- 20 -->
      <defs>
       <path d="M 19.1875 8.296875 
L 53.609375 8.296875 
L 53.609375 0 
L 7.328125 0 
L 7.328125 8.296875 
Q 12.9375 14.109375 22.625 23.890625 
Q 32.328125 33.6875 34.8125 36.53125 
Q 39.546875 41.84375 41.421875 45.53125 
Q 43.3125 49.21875 43.3125 52.78125 
Q 43.3125 58.59375 39.234375 62.25 
Q 35.15625 65.921875 28.609375 65.921875 
Q 23.96875 65.921875 18.8125 64.3125 
Q 13.671875 62.703125 7.8125 59.421875 
L 7.8125 69.390625 
Q 13.765625 71.78125 18.9375 73 
Q 24.125 74.21875 28.421875 74.21875 
Q 39.75 74.21875 46.484375 68.546875 
Q 53.21875 62.890625 53.21875 53.421875 
Q 53.21875 48.921875 51.53125 44.890625 
Q 49.859375 40.875 45.40625 35.40625 
Q 44.1875 33.984375 37.640625 27.21875 
Q 31.109375 20.453125 19.1875 8.296875 
z
" id="DejaVuSans-50"/>
      </defs>
      <g transform="translate(330.13214 644.598438)scale(0.1 -0.1)">
       <use xlink:href="#DejaVuSans-50"/>
       <use x="63.623047" xlink:href="#DejaVuSans-48"/>
      </g>
     </g>
    </g>
    <g id="xtick_4">
     <g id="line2d_4">
      <g>
       <use style="stroke:#000000;stroke-width:0.8;" x="429.755596" xlink:href="#mfd775fe203" y="630"/>
      </g>
     </g>
     <g id="text_4">
      <!-- 30 -->
      <defs>
       <path d="M 40.578125 39.3125 
Q 47.65625 37.796875 51.625 33 
Q 55.609375 28.21875 55.609375 21.1875 
Q 55.609375 10.40625 48.1875 4.484375 
Q 40.765625 -1.421875 27.09375 -1.421875 
Q 22.515625 -1.421875 17.65625 -0.515625 
Q 12.796875 0.390625 7.625 2.203125 
L 7.625 11.71875 
Q 11.71875 9.328125 16.59375 8.109375 
Q 21.484375 6.890625 26.8125 6.890625 
Q 36.078125 6.890625 40.9375 10.546875 
Q 45.796875 14.203125 45.796875 21.1875 
Q 45.796875 27.640625 41.28125 31.265625 
Q 36.765625 34.90625 28.71875 34.90625 
L 20.21875 34.90625 
L 20.21875 43.015625 
L 29.109375 43.015625 
Q 36.375 43.015625 40.234375 45.921875 
Q 44.09375 48.828125 44.09375 54.296875 
Q 44.09375 59.90625 40.109375 62.90625 
Q 36.140625 65.921875 28.71875 65.921875 
Q 24.65625 65.921875 20.015625 65.03125 
Q 15.375 64.15625 9.8125 62.3125 
L 9.8125 71.09375 
Q 15.4375 72.65625 20.34375 73.4375 
Q 25.25 74.21875 29.59375 74.21875 
Q 40.828125 74.21875 47.359375 69.109375 
Q 53.90625 64.015625 53.90625 55.328125 
Q 53.90625 49.265625 50.4375 45.09375 
Q 46.96875 40.921875 40.578125 39.3125 
z
" id="DejaVuSans-51"/>
      </defs>
      <g transform="translate(423.393096 644.598438)scale(0.1 -0.1)">
       <use xlink:href="#DejaVuSans-51"/>
       <use x="63.623047" xlink:href="#DejaVuSans-48"/>
      </g>
     </g>
    </g>
    <g id="xtick_5">
     <g id="line2d_5">
      <g>
       <use style="stroke:#000000;stroke-width:0.8;" x="523.016552" xlink:href="#mfd775fe203" y="630"/>
      </g>
     </g>
     <g id="text_5">
      <!-- 40 -->
      <defs>
       <path d="M 37.796875 64.3125 
L 12.890625 25.390625 
L 37.796875 25.390625 
z
M 35.203125 72.90625 
L 47.609375 72.90625 
L 47.609375 25.390625 
L 58.015625 25.390625 
L 58.015625 17.1875 
L 47.609375 17.1875 
L 47.609375 0 
L 37.796875 0 
L 37.796875 17.1875 
L 4.890625 17.1875 
L 4.890625 26.703125 
z
" id="DejaVuSans-52"/>
      </defs>
      <g transform="translate(516.654052 644.598438)scale(0.1 -0.1)">
       <use xlink:href="#DejaVuSans-52"/>
       <use x="63.623047" xlink:href="#DejaVuSans-48"/>
      </g>
     </g>
    </g>
    <g id="xtick_6">
     <g id="line2d_6">
      <g>
       <use style="stroke:#000000;stroke-width:0.8;" x="616.277508" xlink:href="#mfd775fe203" y="630"/>
      </g>
     </g>
     <g id="text_6">
      <!-- 50 -->
      <defs>
       <path d="M 10.796875 72.90625 
L 49.515625 72.90625 
L 49.515625 64.59375 
L 19.828125 64.59375 
L 19.828125 46.734375 
Q 21.96875 47.46875 24.109375 47.828125 
Q 26.265625 48.1875 28.421875 48.1875 
Q 40.625 48.1875 47.75 41.5 
Q 54.890625 34.8125 54.890625 23.390625 
Q 54.890625 11.625 47.5625 5.09375 
Q 40.234375 -1.421875 26.90625 -1.421875 
Q 22.3125 -1.421875 17.546875 -0.640625 
Q 12.796875 0.140625 7.71875 1.703125 
L 7.71875 11.625 
Q 12.109375 9.234375 16.796875 8.0625 
Q 21.484375 6.890625 26.703125 6.890625 
Q 35.15625 6.890625 40.078125 11.328125 
Q 45.015625 15.765625 45.015625 23.390625 
Q 45.015625 31 40.078125 35.4375 
Q 35.15625 39.890625 26.703125 39.890625 
Q 22.75 39.890625 18.8125 39.015625 
Q 14.890625 38.140625 10.796875 36.28125 
z
" id="DejaVuSans-53"/>
      </defs>
      <g transform="translate(609.915008 644.598438)scale(0.1 -0.1)">
       <use xlink:href="#DejaVuSans-53"/>
       <use x="63.623047" xlink:href="#DejaVuSans-48"/>
      </g>
     </g>
    </g>
    <g id="xtick_7">
     <g id="line2d_7">
      <g>
       <use style="stroke:#000000;stroke-width:0.8;" x="709.538464" xlink:href="#mfd775fe203" y="630"/>
      </g>
     </g>
     <g id="text_7">
      <!-- 60 -->
      <defs>
       <path d="M 33.015625 40.375 
Q 26.375 40.375 22.484375 35.828125 
Q 18.609375 31.296875 18.609375 23.390625 
Q 18.609375 15.53125 22.484375 10.953125 
Q 26.375 6.390625 33.015625 6.390625 
Q 39.65625 6.390625 43.53125 10.953125 
Q 47.40625 15.53125 47.40625 23.390625 
Q 47.40625 31.296875 43.53125 35.828125 
Q 39.65625 40.375 33.015625 40.375 
z
M 52.59375 71.296875 
L 52.59375 62.3125 
Q 48.875 64.0625 45.09375 64.984375 
Q 41.3125 65.921875 37.59375 65.921875 
Q 27.828125 65.921875 22.671875 59.328125 
Q 17.53125 52.734375 16.796875 39.40625 
Q 19.671875 43.65625 24.015625 45.921875 
Q 28.375 48.1875 33.59375 48.1875 
Q 44.578125 48.1875 50.953125 41.515625 
Q 57.328125 34.859375 57.328125 23.390625 
Q 57.328125 12.15625 50.6875 5.359375 
Q 44.046875 -1.421875 33.015625 -1.421875 
Q 20.359375 -1.421875 13.671875 8.265625 
Q 6.984375 17.96875 6.984375 36.375 
Q 6.984375 53.65625 15.1875 63.9375 
Q 23.390625 74.21875 37.203125 74.21875 
Q 40.921875 74.21875 44.703125 73.484375 
Q 48.484375 72.75 52.59375 71.296875 
z
" id="DejaVuSans-54"/>
      </defs>
      <g transform="translate(703.175964 644.598438)scale(0.1 -0.1)">
       <use xlink:href="#DejaVuSans-54"/>
       <use x="63.623047" xlink:href="#DejaVuSans-48"/>
      </g>
     </g>
    </g>
    <g id="xtick_8">
     <g id="line2d_8">
      <g>
       <use style="stroke:#000000;stroke-width:0.8;" x="802.799421" xlink:href="#mfd775fe203" y="630"/>
      </g>
     </g>
     <g id="text_8">
      <!-- 70 -->
      <defs>
       <path d="M 8.203125 72.90625 
L 55.078125 72.90625 
L 55.078125 68.703125 
L 28.609375 0 
L 18.3125 0 
L 43.21875 64.59375 
L 8.203125 64.59375 
z
" id="DejaVuSans-55"/>
      </defs>
      <g transform="translate(796.436921 644.598438)scale(0.1 -0.1)">
       <use xlink:href="#DejaVuSans-55"/>
       <use x="63.623047" xlink:href="#DejaVuSans-48"/>
      </g>
     </g>
    </g>
    <g id="text_9">
     <!-- norm distance -&gt; sqrt(x^2 + y^2) -->
     <defs>
      <path d="M 54.890625 33.015625 
L 54.890625 0 
L 45.90625 0 
L 45.90625 32.71875 
Q 45.90625 40.484375 42.875 44.328125 
Q 39.84375 48.1875 33.796875 48.1875 
Q 26.515625 48.1875 22.3125 43.546875 
Q 18.109375 38.921875 18.109375 30.90625 
L 18.109375 0 
L 9.078125 0 
L 9.078125 54.6875 
L 18.109375 54.6875 
L 18.109375 46.1875 
Q 21.34375 51.125 25.703125 53.5625 
Q 30.078125 56 35.796875 56 
Q 45.21875 56 50.046875 50.171875 
Q 54.890625 44.34375 54.890625 33.015625 
z
" id="DejaVuSans-110"/>
      <path d="M 30.609375 48.390625 
Q 23.390625 48.390625 19.1875 42.75 
Q 14.984375 37.109375 14.984375 27.296875 
Q 14.984375 17.484375 19.15625 11.84375 
Q 23.34375 6.203125 30.609375 6.203125 
Q 37.796875 6.203125 41.984375 11.859375 
Q 46.1875 17.53125 46.1875 27.296875 
Q 46.1875 37.015625 41.984375 42.703125 
Q 37.796875 48.390625 30.609375 48.390625 
z
M 30.609375 56 
Q 42.328125 56 49.015625 48.375 
Q 55.71875 40.765625 55.71875 27.296875 
Q 55.71875 13.875 49.015625 6.21875 
Q 42.328125 -1.421875 30.609375 -1.421875 
Q 18.84375 -1.421875 12.171875 6.21875 
Q 5.515625 13.875 5.515625 27.296875 
Q 5.515625 40.765625 12.171875 48.375 
Q 18.84375 56 30.609375 56 
z
" id="DejaVuSans-111"/>
      <path d="M 41.109375 46.296875 
Q 39.59375 47.171875 37.8125 47.578125 
Q 36.03125 48 33.890625 48 
Q 26.265625 48 22.1875 43.046875 
Q 18.109375 38.09375 18.109375 28.8125 
L 18.109375 0 
L 9.078125 0 
L 9.078125 54.6875 
L 18.109375 54.6875 
L 18.109375 46.1875 
Q 20.953125 51.171875 25.484375 53.578125 
Q 30.03125 56 36.53125 56 
Q 37.453125 56 38.578125 55.875 
Q 39.703125 55.765625 41.0625 55.515625 
z
" id="DejaVuSans-114"/>
      <path d="M 52 44.1875 
Q 55.375 50.25 60.0625 53.125 
Q 64.75 56 71.09375 56 
Q 79.640625 56 84.28125 50.015625 
Q 88.921875 44.046875 88.921875 33.015625 
L 88.921875 0 
L 79.890625 0 
L 79.890625 32.71875 
Q 79.890625 40.578125 77.09375 44.375 
Q 74.3125 48.1875 68.609375 48.1875 
Q 61.625 48.1875 57.5625 43.546875 
Q 53.515625 38.921875 53.515625 30.90625 
L 53.515625 0 
L 44.484375 0 
L 44.484375 32.71875 
Q 44.484375 40.625 41.703125 44.40625 
Q 38.921875 48.1875 33.109375 48.1875 
Q 26.21875 48.1875 22.15625 43.53125 
Q 18.109375 38.875 18.109375 30.90625 
L 18.109375 0 
L 9.078125 0 
L 9.078125 54.6875 
L 18.109375 54.6875 
L 18.109375 46.1875 
Q 21.1875 51.21875 25.484375 53.609375 
Q 29.78125 56 35.6875 56 
Q 41.65625 56 45.828125 52.96875 
Q 50 49.953125 52 44.1875 
z
" id="DejaVuSans-109"/>
      <path id="DejaVuSans-32"/>
      <path d="M 45.40625 46.390625 
L 45.40625 75.984375 
L 54.390625 75.984375 
L 54.390625 0 
L 45.40625 0 
L 45.40625 8.203125 
Q 42.578125 3.328125 38.25 0.953125 
Q 33.9375 -1.421875 27.875 -1.421875 
Q 17.96875 -1.421875 11.734375 6.484375 
Q 5.515625 14.40625 5.515625 27.296875 
Q 5.515625 40.1875 11.734375 48.09375 
Q 17.96875 56 27.875 56 
Q 33.9375 56 38.25 53.625 
Q 42.578125 51.265625 45.40625 46.390625 
z
M 14.796875 27.296875 
Q 14.796875 17.390625 18.875 11.75 
Q 22.953125 6.109375 30.078125 6.109375 
Q 37.203125 6.109375 41.296875 11.75 
Q 45.40625 17.390625 45.40625 27.296875 
Q 45.40625 37.203125 41.296875 42.84375 
Q 37.203125 48.484375 30.078125 48.484375 
Q 22.953125 48.484375 18.875 42.84375 
Q 14.796875 37.203125 14.796875 27.296875 
z
" id="DejaVuSans-100"/>
      <path d="M 9.421875 54.6875 
L 18.40625 54.6875 
L 18.40625 0 
L 9.421875 0 
z
M 9.421875 75.984375 
L 18.40625 75.984375 
L 18.40625 64.59375 
L 9.421875 64.59375 
z
" id="DejaVuSans-105"/>
      <path d="M 44.28125 53.078125 
L 44.28125 44.578125 
Q 40.484375 46.53125 36.375 47.5 
Q 32.28125 48.484375 27.875 48.484375 
Q 21.1875 48.484375 17.84375 46.4375 
Q 14.5 44.390625 14.5 40.28125 
Q 14.5 37.15625 16.890625 35.375 
Q 19.28125 33.59375 26.515625 31.984375 
L 29.59375 31.296875 
Q 39.15625 29.25 43.1875 25.515625 
Q 47.21875 21.78125 47.21875 15.09375 
Q 47.21875 7.46875 41.1875 3.015625 
Q 35.15625 -1.421875 24.609375 -1.421875 
Q 20.21875 -1.421875 15.453125 -0.5625 
Q 10.6875 0.296875 5.421875 2 
L 5.421875 11.28125 
Q 10.40625 8.6875 15.234375 7.390625 
Q 20.0625 6.109375 24.8125 6.109375 
Q 31.15625 6.109375 34.5625 8.28125 
Q 37.984375 10.453125 37.984375 14.40625 
Q 37.984375 18.0625 35.515625 20.015625 
Q 33.0625 21.96875 24.703125 23.78125 
L 21.578125 24.515625 
Q 13.234375 26.265625 9.515625 29.90625 
Q 5.8125 33.546875 5.8125 39.890625 
Q 5.8125 47.609375 11.28125 51.796875 
Q 16.75 56 26.8125 56 
Q 31.78125 56 36.171875 55.265625 
Q 40.578125 54.546875 44.28125 53.078125 
z
" id="DejaVuSans-115"/>
      <path d="M 18.3125 70.21875 
L 18.3125 54.6875 
L 36.8125 54.6875 
L 36.8125 47.703125 
L 18.3125 47.703125 
L 18.3125 18.015625 
Q 18.3125 11.328125 20.140625 9.421875 
Q 21.96875 7.515625 27.59375 7.515625 
L 36.8125 7.515625 
L 36.8125 0 
L 27.59375 0 
Q 17.1875 0 13.234375 3.875 
Q 9.28125 7.765625 9.28125 18.015625 
L 9.28125 47.703125 
L 2.6875 47.703125 
L 2.6875 54.6875 
L 9.28125 54.6875 
L 9.28125 70.21875 
z
" id="DejaVuSans-116"/>
      <path d="M 34.28125 27.484375 
Q 23.390625 27.484375 19.1875 25 
Q 14.984375 22.515625 14.984375 16.5 
Q 14.984375 11.71875 18.140625 8.90625 
Q 21.296875 6.109375 26.703125 6.109375 
Q 34.1875 6.109375 38.703125 11.40625 
Q 43.21875 16.703125 43.21875 25.484375 
L 43.21875 27.484375 
z
M 52.203125 31.203125 
L 52.203125 0 
L 43.21875 0 
L 43.21875 8.296875 
Q 40.140625 3.328125 35.546875 0.953125 
Q 30.953125 -1.421875 24.3125 -1.421875 
Q 15.921875 -1.421875 10.953125 3.296875 
Q 6 8.015625 6 15.921875 
Q 6 25.140625 12.171875 29.828125 
Q 18.359375 34.515625 30.609375 34.515625 
L 43.21875 34.515625 
L 43.21875 35.40625 
Q 43.21875 41.609375 39.140625 45 
Q 35.0625 48.390625 27.6875 48.390625 
Q 23 48.390625 18.546875 47.265625 
Q 14.109375 46.140625 10.015625 43.890625 
L 10.015625 52.203125 
Q 14.9375 54.109375 19.578125 55.046875 
Q 24.21875 56 28.609375 56 
Q 40.484375 56 46.34375 49.84375 
Q 52.203125 43.703125 52.203125 31.203125 
z
" id="DejaVuSans-97"/>
      <path d="M 48.78125 52.59375 
L 48.78125 44.1875 
Q 44.96875 46.296875 41.140625 47.34375 
Q 37.3125 48.390625 33.40625 48.390625 
Q 24.65625 48.390625 19.8125 42.84375 
Q 14.984375 37.3125 14.984375 27.296875 
Q 14.984375 17.28125 19.8125 11.734375 
Q 24.65625 6.203125 33.40625 6.203125 
Q 37.3125 6.203125 41.140625 7.25 
Q 44.96875 8.296875 48.78125 10.40625 
L 48.78125 2.09375 
Q 45.015625 0.34375 40.984375 -0.53125 
Q 36.96875 -1.421875 32.421875 -1.421875 
Q 20.0625 -1.421875 12.78125 6.34375 
Q 5.515625 14.109375 5.515625 27.296875 
Q 5.515625 40.671875 12.859375 48.328125 
Q 20.21875 56 33.015625 56 
Q 37.15625 56 41.109375 55.140625 
Q 45.0625 54.296875 48.78125 52.59375 
z
" id="DejaVuSans-99"/>
      <path d="M 56.203125 29.59375 
L 56.203125 25.203125 
L 14.890625 25.203125 
Q 15.484375 15.921875 20.484375 11.0625 
Q 25.484375 6.203125 34.421875 6.203125 
Q 39.59375 6.203125 44.453125 7.46875 
Q 49.3125 8.734375 54.109375 11.28125 
L 54.109375 2.78125 
Q 49.265625 0.734375 44.1875 -0.34375 
Q 39.109375 -1.421875 33.890625 -1.421875 
Q 20.796875 -1.421875 13.15625 6.1875 
Q 5.515625 13.8125 5.515625 26.8125 
Q 5.515625 40.234375 12.765625 48.109375 
Q 20.015625 56 32.328125 56 
Q 43.359375 56 49.78125 48.890625 
Q 56.203125 41.796875 56.203125 29.59375 
z
M 47.21875 32.234375 
Q 47.125 39.59375 43.09375 43.984375 
Q 39.0625 48.390625 32.421875 48.390625 
Q 24.90625 48.390625 20.390625 44.140625 
Q 15.875 39.890625 15.1875 32.171875 
z
" id="DejaVuSans-101"/>
      <path d="M 4.890625 31.390625 
L 31.203125 31.390625 
L 31.203125 23.390625 
L 4.890625 23.390625 
z
" id="DejaVuSans-45"/>
      <path d="M 10.59375 49.21875 
L 10.59375 58.109375 
L 73.1875 35.40625 
L 73.1875 27.296875 
L 10.59375 4.59375 
L 10.59375 13.484375 
L 60.890625 31.296875 
z
" id="DejaVuSans-62"/>
      <path d="M 14.796875 27.296875 
Q 14.796875 17.390625 18.875 11.75 
Q 22.953125 6.109375 30.078125 6.109375 
Q 37.203125 6.109375 41.296875 11.75 
Q 45.40625 17.390625 45.40625 27.296875 
Q 45.40625 37.203125 41.296875 42.84375 
Q 37.203125 48.484375 30.078125 48.484375 
Q 22.953125 48.484375 18.875 42.84375 
Q 14.796875 37.203125 14.796875 27.296875 
z
M 45.40625 8.203125 
Q 42.578125 3.328125 38.25 0.953125 
Q 33.9375 -1.421875 27.875 -1.421875 
Q 17.96875 -1.421875 11.734375 6.484375 
Q 5.515625 14.40625 5.515625 27.296875 
Q 5.515625 40.1875 11.734375 48.09375 
Q 17.96875 56 27.875 56 
Q 33.9375 56 38.25 53.625 
Q 42.578125 51.265625 45.40625 46.390625 
L 45.40625 54.6875 
L 54.390625 54.6875 
L 54.390625 -20.796875 
L 45.40625 -20.796875 
z
" id="DejaVuSans-113"/>
      <path d="M 31 75.875 
Q 24.46875 64.65625 21.28125 53.65625 
Q 18.109375 42.671875 18.109375 31.390625 
Q 18.109375 20.125 21.3125 9.0625 
Q 24.515625 -2 31 -13.1875 
L 23.1875 -13.1875 
Q 15.875 -1.703125 12.234375 9.375 
Q 8.59375 20.453125 8.59375 31.390625 
Q 8.59375 42.28125 12.203125 53.3125 
Q 15.828125 64.359375 23.1875 75.875 
z
" id="DejaVuSans-40"/>
      <path d="M 54.890625 54.6875 
L 35.109375 28.078125 
L 55.90625 0 
L 45.3125 0 
L 29.390625 21.484375 
L 13.484375 0 
L 2.875 0 
L 24.125 28.609375 
L 4.6875 54.6875 
L 15.28125 54.6875 
L 29.78125 35.203125 
L 44.28125 54.6875 
z
" id="DejaVuSans-120"/>
      <path d="M 46.6875 72.90625 
L 73.1875 45.703125 
L 63.375 45.703125 
L 41.890625 64.984375 
L 20.40625 45.703125 
L 10.59375 45.703125 
L 37.109375 72.90625 
z
" id="DejaVuSans-94"/>
      <path d="M 46 62.703125 
L 46 35.5 
L 73.1875 35.5 
L 73.1875 27.203125 
L 46 27.203125 
L 46 0 
L 37.796875 0 
L 37.796875 27.203125 
L 10.59375 27.203125 
L 10.59375 35.5 
L 37.796875 35.5 
L 37.796875 62.703125 
z
" id="DejaVuSans-43"/>
      <path d="M 32.171875 -5.078125 
Q 28.375 -14.84375 24.75 -17.8125 
Q 21.140625 -20.796875 15.09375 -20.796875 
L 7.90625 -20.796875 
L 7.90625 -13.28125 
L 13.1875 -13.28125 
Q 16.890625 -13.28125 18.9375 -11.515625 
Q 21 -9.765625 23.484375 -3.21875 
L 25.09375 0.875 
L 2.984375 54.6875 
L 12.5 54.6875 
L 29.59375 11.921875 
L 46.6875 54.6875 
L 56.203125 54.6875 
z
" id="DejaVuSans-121"/>
      <path d="M 8.015625 75.875 
L 15.828125 75.875 
Q 23.140625 64.359375 26.78125 53.3125 
Q 30.421875 42.28125 30.421875 31.390625 
Q 30.421875 20.453125 26.78125 9.375 
Q 23.140625 -1.703125 15.828125 -13.1875 
L 8.015625 -13.1875 
Q 14.5 -2 17.703125 9.0625 
Q 20.90625 20.125 20.90625 31.390625 
Q 20.90625 42.671875 17.703125 53.65625 
Q 14.5 64.65625 8.015625 75.875 
z
" id="DejaVuSans-41"/>
     </defs>
     <g transform="translate(392.874219 658.276562)scale(0.1 -0.1)">
      <use xlink:href="#DejaVuSans-110"/>
      <use x="63.378906" xlink:href="#DejaVuSans-111"/>
      <use x="124.560547" xlink:href="#DejaVuSans-114"/>
      <use x="165.658203" xlink:href="#DejaVuSans-109"/>
      <use x="263.070312" xlink:href="#DejaVuSans-32"/>
      <use x="294.857422" xlink:href="#DejaVuSans-100"/>
      <use x="358.333984" xlink:href="#DejaVuSans-105"/>
      <use x="386.117188" xlink:href="#DejaVuSans-115"/>
      <use x="438.216797" xlink:href="#DejaVuSans-116"/>
      <use x="477.425781" xlink:href="#DejaVuSans-97"/>
      <use x="538.705078" xlink:href="#DejaVuSans-110"/>
      <use x="602.083984" xlink:href="#DejaVuSans-99"/>
      <use x="657.064453" xlink:href="#DejaVuSans-101"/>
      <use x="718.587891" xlink:href="#DejaVuSans-32"/>
      <use x="750.375" xlink:href="#DejaVuSans-45"/>
      <use x="786.458984" xlink:href="#DejaVuSans-62"/>
      <use x="870.248047" xlink:href="#DejaVuSans-32"/>
      <use x="902.035156" xlink:href="#DejaVuSans-115"/>
      <use x="954.134766" xlink:href="#DejaVuSans-113"/>
      <use x="1017.611328" xlink:href="#DejaVuSans-114"/>
      <use x="1058.724609" xlink:href="#DejaVuSans-116"/>
      <use x="1097.933594" xlink:href="#DejaVuSans-40"/>
      <use x="1136.947266" xlink:href="#DejaVuSans-120"/>
      <use x="1196.126953" xlink:href="#DejaVuSans-94"/>
      <use x="1279.916016" xlink:href="#DejaVuSans-50"/>
      <use x="1343.539062" xlink:href="#DejaVuSans-32"/>
      <use x="1375.326172" xlink:href="#DejaVuSans-43"/>
      <use x="1459.115234" xlink:href="#DejaVuSans-32"/>
      <use x="1490.902344" xlink:href="#DejaVuSans-121"/>
      <use x="1550.082031" xlink:href="#DejaVuSans-94"/>
      <use x="1633.871094" xlink:href="#DejaVuSans-50"/>
      <use x="1697.494141" xlink:href="#DejaVuSans-41"/>
     </g>
    </g>
   </g>
   <g id="matplotlib.axis_2">
    <g id="ytick_1">
     <g id="line2d_9">
      <defs>
       <path d="M 0 0 
L -3.5 0 
" id="m351b8c531f" style="stroke:#000000;stroke-width:0.8;"/>
      </defs>
      <g>
       <use style="stroke:#000000;stroke-width:0.8;" x="117" xlink:href="#m351b8c531f" y="544.393607"/>
      </g>
     </g>
     <g id="text_10">
      <!-- $\mathdefault{10^{1}}$ -->
      <g transform="translate(92.4 548.192826)scale(0.1 -0.1)">
       <use transform="translate(0 0.684375)" xlink:href="#DejaVuSans-49"/>
       <use transform="translate(63.623047 0.684375)" xlink:href="#DejaVuSans-48"/>
       <use transform="translate(128.203125 38.965625)scale(0.7)" xlink:href="#DejaVuSans-49"/>
      </g>
     </g>
    </g>
    <g id="ytick_2">
     <g id="line2d_10">
      <g>
       <use style="stroke:#000000;stroke-width:0.8;" x="117" xlink:href="#m351b8c531f" y="457.060993"/>
      </g>
     </g>
     <g id="text_11">
      <!-- $\mathdefault{10^{2}}$ -->
      <g transform="translate(92.4 460.860211)scale(0.1 -0.1)">
       <use transform="translate(0 0.765625)" xlink:href="#DejaVuSans-49"/>
       <use transform="translate(63.623047 0.765625)" xlink:href="#DejaVuSans-48"/>
       <use transform="translate(128.203125 39.046875)scale(0.7)" xlink:href="#DejaVuSans-50"/>
      </g>
     </g>
    </g>
    <g id="ytick_3">
     <g id="line2d_11">
      <g>
       <use style="stroke:#000000;stroke-width:0.8;" x="117" xlink:href="#m351b8c531f" y="369.728378"/>
      </g>
     </g>
     <g id="text_12">
      <!-- $\mathdefault{10^{3}}$ -->
      <g transform="translate(92.4 373.527597)scale(0.1 -0.1)">
       <use transform="translate(0 0.765625)" xlink:href="#DejaVuSans-49"/>
       <use transform="translate(63.623047 0.765625)" xlink:href="#DejaVuSans-48"/>
       <use transform="translate(128.203125 39.046875)scale(0.7)" xlink:href="#DejaVuSans-51"/>
      </g>
     </g>
    </g>
    <g id="ytick_4">
     <g id="line2d_12">
      <g>
       <use style="stroke:#000000;stroke-width:0.8;" x="117" xlink:href="#m351b8c531f" y="282.395764"/>
      </g>
     </g>
     <g id="text_13">
      <!-- $\mathdefault{10^{4}}$ -->
      <g transform="translate(92.4 286.194983)scale(0.1 -0.1)">
       <use transform="translate(0 0.684375)" xlink:href="#DejaVuSans-49"/>
       <use transform="translate(63.623047 0.684375)" xlink:href="#DejaVuSans-48"/>
       <use transform="translate(128.203125 38.965625)scale(0.7)" xlink:href="#DejaVuSans-52"/>
      </g>
     </g>
    </g>
    <g id="ytick_5">
     <g id="line2d_13">
      <g>
       <use style="stroke:#000000;stroke-width:0.8;" x="117" xlink:href="#m351b8c531f" y="195.06315"/>
      </g>
     </g>
     <g id="text_14">
      <!-- $\mathdefault{10^{5}}$ -->
      <g transform="translate(92.4 198.862368)scale(0.1 -0.1)">
       <use transform="translate(0 0.684375)" xlink:href="#DejaVuSans-49"/>
       <use transform="translate(63.623047 0.684375)" xlink:href="#DejaVuSans-48"/>
       <use transform="translate(128.203125 38.965625)scale(0.7)" xlink:href="#DejaVuSans-53"/>
      </g>
     </g>
    </g>
    <g id="ytick_6">
     <g id="line2d_14">
      <g>
       <use style="stroke:#000000;stroke-width:0.8;" x="117" xlink:href="#m351b8c531f" y="107.730535"/>
      </g>
     </g>
     <g id="text_15">
      <!-- $\mathdefault{10^{6}}$ -->
      <g transform="translate(92.4 111.529754)scale(0.1 -0.1)">
       <use transform="translate(0 0.765625)" xlink:href="#DejaVuSans-49"/>
       <use transform="translate(63.623047 0.765625)" xlink:href="#DejaVuSans-48"/>
       <use transform="translate(128.203125 39.046875)scale(0.7)" xlink:href="#DejaVuSans-54"/>
      </g>
     </g>
    </g>
    <g id="ytick_7">
     <g id="line2d_15">
      <defs>
       <path d="M 0 0 
L -2 0 
" id="mda10ccb55a" style="stroke:#000000;stroke-width:0.6;"/>
      </defs>
      <g>
       <use style="stroke:#000000;stroke-width:0.6;" x="117" xlink:href="#mda10ccb55a" y="605.436485"/>
      </g>
     </g>
    </g>
    <g id="ytick_8">
     <g id="line2d_16">
      <g>
       <use style="stroke:#000000;stroke-width:0.6;" x="117" xlink:href="#mda10ccb55a" y="590.057975"/>
      </g>
     </g>
    </g>
    <g id="ytick_9">
     <g id="line2d_17">
      <g>
       <use style="stroke:#000000;stroke-width:0.6;" x="117" xlink:href="#mda10ccb55a" y="579.146748"/>
      </g>
     </g>
    </g>
    <g id="ytick_10">
     <g id="line2d_18">
      <g>
       <use style="stroke:#000000;stroke-width:0.6;" x="117" xlink:href="#mda10ccb55a" y="570.683344"/>
      </g>
     </g>
    </g>
    <g id="ytick_11">
     <g id="line2d_19">
      <g>
       <use style="stroke:#000000;stroke-width:0.6;" x="117" xlink:href="#mda10ccb55a" y="563.768238"/>
      </g>
     </g>
    </g>
    <g id="ytick_12">
     <g id="line2d_20">
      <g>
       <use style="stroke:#000000;stroke-width:0.6;" x="117" xlink:href="#mda10ccb55a" y="557.9216"/>
      </g>
     </g>
    </g>
    <g id="ytick_13">
     <g id="line2d_21">
      <g>
       <use style="stroke:#000000;stroke-width:0.6;" x="117" xlink:href="#mda10ccb55a" y="552.857012"/>
      </g>
     </g>
    </g>
    <g id="ytick_14">
     <g id="line2d_22">
      <g>
       <use style="stroke:#000000;stroke-width:0.6;" x="117" xlink:href="#mda10ccb55a" y="548.389728"/>
      </g>
     </g>
    </g>
    <g id="ytick_15">
     <g id="line2d_23">
      <g>
       <use style="stroke:#000000;stroke-width:0.6;" x="117" xlink:href="#mda10ccb55a" y="518.103871"/>
      </g>
     </g>
    </g>
    <g id="ytick_16">
     <g id="line2d_24">
      <g>
       <use style="stroke:#000000;stroke-width:0.6;" x="117" xlink:href="#mda10ccb55a" y="502.725361"/>
      </g>
     </g>
    </g>
    <g id="ytick_17">
     <g id="line2d_25">
      <g>
       <use style="stroke:#000000;stroke-width:0.6;" x="117" xlink:href="#mda10ccb55a" y="491.814134"/>
      </g>
     </g>
    </g>
    <g id="ytick_18">
     <g id="line2d_26">
      <g>
       <use style="stroke:#000000;stroke-width:0.6;" x="117" xlink:href="#mda10ccb55a" y="483.350729"/>
      </g>
     </g>
    </g>
    <g id="ytick_19">
     <g id="line2d_27">
      <g>
       <use style="stroke:#000000;stroke-width:0.6;" x="117" xlink:href="#mda10ccb55a" y="476.435624"/>
      </g>
     </g>
    </g>
    <g id="ytick_20">
     <g id="line2d_28">
      <g>
       <use style="stroke:#000000;stroke-width:0.6;" x="117" xlink:href="#mda10ccb55a" y="470.588986"/>
      </g>
     </g>
    </g>
    <g id="ytick_21">
     <g id="line2d_29">
      <g>
       <use style="stroke:#000000;stroke-width:0.6;" x="117" xlink:href="#mda10ccb55a" y="465.524397"/>
      </g>
     </g>
    </g>
    <g id="ytick_22">
     <g id="line2d_30">
      <g>
       <use style="stroke:#000000;stroke-width:0.6;" x="117" xlink:href="#mda10ccb55a" y="461.057114"/>
      </g>
     </g>
    </g>
    <g id="ytick_23">
     <g id="line2d_31">
      <g>
       <use style="stroke:#000000;stroke-width:0.6;" x="117" xlink:href="#mda10ccb55a" y="430.771256"/>
      </g>
     </g>
    </g>
    <g id="ytick_24">
     <g id="line2d_32">
      <g>
       <use style="stroke:#000000;stroke-width:0.6;" x="117" xlink:href="#mda10ccb55a" y="415.392746"/>
      </g>
     </g>
    </g>
    <g id="ytick_25">
     <g id="line2d_33">
      <g>
       <use style="stroke:#000000;stroke-width:0.6;" x="117" xlink:href="#mda10ccb55a" y="404.48152"/>
      </g>
     </g>
    </g>
    <g id="ytick_26">
     <g id="line2d_34">
      <g>
       <use style="stroke:#000000;stroke-width:0.6;" x="117" xlink:href="#mda10ccb55a" y="396.018115"/>
      </g>
     </g>
    </g>
    <g id="ytick_27">
     <g id="line2d_35">
      <g>
       <use style="stroke:#000000;stroke-width:0.6;" x="117" xlink:href="#mda10ccb55a" y="389.10301"/>
      </g>
     </g>
    </g>
    <g id="ytick_28">
     <g id="line2d_36">
      <g>
       <use style="stroke:#000000;stroke-width:0.6;" x="117" xlink:href="#mda10ccb55a" y="383.256371"/>
      </g>
     </g>
    </g>
    <g id="ytick_29">
     <g id="line2d_37">
      <g>
       <use style="stroke:#000000;stroke-width:0.6;" x="117" xlink:href="#mda10ccb55a" y="378.191783"/>
      </g>
     </g>
    </g>
    <g id="ytick_30">
     <g id="line2d_38">
      <g>
       <use style="stroke:#000000;stroke-width:0.6;" x="117" xlink:href="#mda10ccb55a" y="373.7245"/>
      </g>
     </g>
    </g>
    <g id="ytick_31">
     <g id="line2d_39">
      <g>
       <use style="stroke:#000000;stroke-width:0.6;" x="117" xlink:href="#mda10ccb55a" y="343.438642"/>
      </g>
     </g>
    </g>
    <g id="ytick_32">
     <g id="line2d_40">
      <g>
       <use style="stroke:#000000;stroke-width:0.6;" x="117" xlink:href="#mda10ccb55a" y="328.060132"/>
      </g>
     </g>
    </g>
    <g id="ytick_33">
     <g id="line2d_41">
      <g>
       <use style="stroke:#000000;stroke-width:0.6;" x="117" xlink:href="#mda10ccb55a" y="317.148905"/>
      </g>
     </g>
    </g>
    <g id="ytick_34">
     <g id="line2d_42">
      <g>
       <use style="stroke:#000000;stroke-width:0.6;" x="117" xlink:href="#mda10ccb55a" y="308.6855"/>
      </g>
     </g>
    </g>
    <g id="ytick_35">
     <g id="line2d_43">
      <g>
       <use style="stroke:#000000;stroke-width:0.6;" x="117" xlink:href="#mda10ccb55a" y="301.770395"/>
      </g>
     </g>
    </g>
    <g id="ytick_36">
     <g id="line2d_44">
      <g>
       <use style="stroke:#000000;stroke-width:0.6;" x="117" xlink:href="#mda10ccb55a" y="295.923757"/>
      </g>
     </g>
    </g>
    <g id="ytick_37">
     <g id="line2d_45">
      <g>
       <use style="stroke:#000000;stroke-width:0.6;" x="117" xlink:href="#mda10ccb55a" y="290.859169"/>
      </g>
     </g>
    </g>
    <g id="ytick_38">
     <g id="line2d_46">
      <g>
       <use style="stroke:#000000;stroke-width:0.6;" x="117" xlink:href="#mda10ccb55a" y="286.391885"/>
      </g>
     </g>
    </g>
    <g id="ytick_39">
     <g id="line2d_47">
      <g>
       <use style="stroke:#000000;stroke-width:0.6;" x="117" xlink:href="#mda10ccb55a" y="256.106027"/>
      </g>
     </g>
    </g>
    <g id="ytick_40">
     <g id="line2d_48">
      <g>
       <use style="stroke:#000000;stroke-width:0.6;" x="117" xlink:href="#mda10ccb55a" y="240.727517"/>
      </g>
     </g>
    </g>
    <g id="ytick_41">
     <g id="line2d_49">
      <g>
       <use style="stroke:#000000;stroke-width:0.6;" x="117" xlink:href="#mda10ccb55a" y="229.816291"/>
      </g>
     </g>
    </g>
    <g id="ytick_42">
     <g id="line2d_50">
      <g>
       <use style="stroke:#000000;stroke-width:0.6;" x="117" xlink:href="#mda10ccb55a" y="221.352886"/>
      </g>
     </g>
    </g>
    <g id="ytick_43">
     <g id="line2d_51">
      <g>
       <use style="stroke:#000000;stroke-width:0.6;" x="117" xlink:href="#mda10ccb55a" y="214.437781"/>
      </g>
     </g>
    </g>
    <g id="ytick_44">
     <g id="line2d_52">
      <g>
       <use style="stroke:#000000;stroke-width:0.6;" x="117" xlink:href="#mda10ccb55a" y="208.591143"/>
      </g>
     </g>
    </g>
    <g id="ytick_45">
     <g id="line2d_53">
      <g>
       <use style="stroke:#000000;stroke-width:0.6;" x="117" xlink:href="#mda10ccb55a" y="203.526554"/>
      </g>
     </g>
    </g>
    <g id="ytick_46">
     <g id="line2d_54">
      <g>
       <use style="stroke:#000000;stroke-width:0.6;" x="117" xlink:href="#mda10ccb55a" y="199.059271"/>
      </g>
     </g>
    </g>
    <g id="ytick_47">
     <g id="line2d_55">
      <g>
       <use style="stroke:#000000;stroke-width:0.6;" x="117" xlink:href="#mda10ccb55a" y="168.773413"/>
      </g>
     </g>
    </g>
    <g id="ytick_48">
     <g id="line2d_56">
      <g>
       <use style="stroke:#000000;stroke-width:0.6;" x="117" xlink:href="#mda10ccb55a" y="153.394903"/>
      </g>
     </g>
    </g>
    <g id="ytick_49">
     <g id="line2d_57">
      <g>
       <use style="stroke:#000000;stroke-width:0.6;" x="117" xlink:href="#mda10ccb55a" y="142.483677"/>
      </g>
     </g>
    </g>
    <g id="ytick_50">
     <g id="line2d_58">
      <g>
       <use style="stroke:#000000;stroke-width:0.6;" x="117" xlink:href="#mda10ccb55a" y="134.020272"/>
      </g>
     </g>
    </g>
    <g id="ytick_51">
     <g id="line2d_59">
      <g>
       <use style="stroke:#000000;stroke-width:0.6;" x="117" xlink:href="#mda10ccb55a" y="127.105167"/>
      </g>
     </g>
    </g>
    <g id="ytick_52">
     <g id="line2d_60">
      <g>
       <use style="stroke:#000000;stroke-width:0.6;" x="117" xlink:href="#mda10ccb55a" y="121.258528"/>
      </g>
     </g>
    </g>
    <g id="ytick_53">
     <g id="line2d_61">
      <g>
       <use style="stroke:#000000;stroke-width:0.6;" x="117" xlink:href="#mda10ccb55a" y="116.19394"/>
      </g>
     </g>
    </g>
    <g id="ytick_54">
     <g id="line2d_62">
      <g>
       <use style="stroke:#000000;stroke-width:0.6;" x="117" xlink:href="#mda10ccb55a" y="111.726657"/>
      </g>
     </g>
    </g>
    <g id="text_16">
     <!-- log(sum(|expected_shift - real_shift|)) over 20 runs -->
     <defs>
      <path d="M 9.421875 75.984375 
L 18.40625 75.984375 
L 18.40625 0 
L 9.421875 0 
z
" id="DejaVuSans-108"/>
      <path d="M 45.40625 27.984375 
Q 45.40625 37.75 41.375 43.109375 
Q 37.359375 48.484375 30.078125 48.484375 
Q 22.859375 48.484375 18.828125 43.109375 
Q 14.796875 37.75 14.796875 27.984375 
Q 14.796875 18.265625 18.828125 12.890625 
Q 22.859375 7.515625 30.078125 7.515625 
Q 37.359375 7.515625 41.375 12.890625 
Q 45.40625 18.265625 45.40625 27.984375 
z
M 54.390625 6.78125 
Q 54.390625 -7.171875 48.1875 -13.984375 
Q 42 -20.796875 29.203125 -20.796875 
Q 24.46875 -20.796875 20.265625 -20.09375 
Q 16.0625 -19.390625 12.109375 -17.921875 
L 12.109375 -9.1875 
Q 16.0625 -11.328125 19.921875 -12.34375 
Q 23.78125 -13.375 27.78125 -13.375 
Q 36.625 -13.375 41.015625 -8.765625 
Q 45.40625 -4.15625 45.40625 5.171875 
L 45.40625 9.625 
Q 42.625 4.78125 38.28125 2.390625 
Q 33.9375 0 27.875 0 
Q 17.828125 0 11.671875 7.65625 
Q 5.515625 15.328125 5.515625 27.984375 
Q 5.515625 40.671875 11.671875 48.328125 
Q 17.828125 56 27.875 56 
Q 33.9375 56 38.28125 53.609375 
Q 42.625 51.21875 45.40625 46.390625 
L 45.40625 54.6875 
L 54.390625 54.6875 
z
" id="DejaVuSans-103"/>
      <path d="M 8.5 21.578125 
L 8.5 54.6875 
L 17.484375 54.6875 
L 17.484375 21.921875 
Q 17.484375 14.15625 20.5 10.265625 
Q 23.53125 6.390625 29.59375 6.390625 
Q 36.859375 6.390625 41.078125 11.03125 
Q 45.3125 15.671875 45.3125 23.6875 
L 45.3125 54.6875 
L 54.296875 54.6875 
L 54.296875 0 
L 45.3125 0 
L 45.3125 8.40625 
Q 42.046875 3.421875 37.71875 1 
Q 33.40625 -1.421875 27.6875 -1.421875 
Q 18.265625 -1.421875 13.375 4.4375 
Q 8.5 10.296875 8.5 21.578125 
z
M 31.109375 56 
z
" id="DejaVuSans-117"/>
      <path d="M 21 76.421875 
L 21 -23.578125 
L 12.703125 -23.578125 
L 12.703125 76.421875 
z
" id="DejaVuSans-124"/>
      <path d="M 18.109375 8.203125 
L 18.109375 -20.796875 
L 9.078125 -20.796875 
L 9.078125 54.6875 
L 18.109375 54.6875 
L 18.109375 46.390625 
Q 20.953125 51.265625 25.265625 53.625 
Q 29.59375 56 35.59375 56 
Q 45.5625 56 51.78125 48.09375 
Q 58.015625 40.1875 58.015625 27.296875 
Q 58.015625 14.40625 51.78125 6.484375 
Q 45.5625 -1.421875 35.59375 -1.421875 
Q 29.59375 -1.421875 25.265625 0.953125 
Q 20.953125 3.328125 18.109375 8.203125 
z
M 48.6875 27.296875 
Q 48.6875 37.203125 44.609375 42.84375 
Q 40.53125 48.484375 33.40625 48.484375 
Q 26.265625 48.484375 22.1875 42.84375 
Q 18.109375 37.203125 18.109375 27.296875 
Q 18.109375 17.390625 22.1875 11.75 
Q 26.265625 6.109375 33.40625 6.109375 
Q 40.53125 6.109375 44.609375 11.75 
Q 48.6875 17.390625 48.6875 27.296875 
z
" id="DejaVuSans-112"/>
      <path d="M 50.984375 -16.609375 
L 50.984375 -23.578125 
L -0.984375 -23.578125 
L -0.984375 -16.609375 
z
" id="DejaVuSans-95"/>
      <path d="M 54.890625 33.015625 
L 54.890625 0 
L 45.90625 0 
L 45.90625 32.71875 
Q 45.90625 40.484375 42.875 44.328125 
Q 39.84375 48.1875 33.796875 48.1875 
Q 26.515625 48.1875 22.3125 43.546875 
Q 18.109375 38.921875 18.109375 30.90625 
L 18.109375 0 
L 9.078125 0 
L 9.078125 75.984375 
L 18.109375 75.984375 
L 18.109375 46.1875 
Q 21.34375 51.125 25.703125 53.5625 
Q 30.078125 56 35.796875 56 
Q 45.21875 56 50.046875 50.171875 
Q 54.890625 44.34375 54.890625 33.015625 
z
" id="DejaVuSans-104"/>
      <path d="M 37.109375 75.984375 
L 37.109375 68.5 
L 28.515625 68.5 
Q 23.6875 68.5 21.796875 66.546875 
Q 19.921875 64.59375 19.921875 59.515625 
L 19.921875 54.6875 
L 34.71875 54.6875 
L 34.71875 47.703125 
L 19.921875 47.703125 
L 19.921875 0 
L 10.890625 0 
L 10.890625 47.703125 
L 2.296875 47.703125 
L 2.296875 54.6875 
L 10.890625 54.6875 
L 10.890625 58.5 
Q 10.890625 67.625 15.140625 71.796875 
Q 19.390625 75.984375 28.609375 75.984375 
z
" id="DejaVuSans-102"/>
      <path d="M 2.984375 54.6875 
L 12.5 54.6875 
L 29.59375 8.796875 
L 46.6875 54.6875 
L 56.203125 54.6875 
L 35.6875 0 
L 23.484375 0 
z
" id="DejaVuSans-118"/>
     </defs>
     <g transform="translate(86.042187 485.492188)rotate(-90)scale(0.1 -0.1)">
      <use xlink:href="#DejaVuSans-108"/>
      <use x="27.783203" xlink:href="#DejaVuSans-111"/>
      <use x="88.964844" xlink:href="#DejaVuSans-103"/>
      <use x="152.441406" xlink:href="#DejaVuSans-40"/>
      <use x="191.455078" xlink:href="#DejaVuSans-115"/>
      <use x="243.554688" xlink:href="#DejaVuSans-117"/>
      <use x="306.933594" xlink:href="#DejaVuSans-109"/>
      <use x="404.345703" xlink:href="#DejaVuSans-40"/>
      <use x="443.359375" xlink:href="#DejaVuSans-124"/>
      <use x="477.050781" xlink:href="#DejaVuSans-101"/>
      <use x="538.558594" xlink:href="#DejaVuSans-120"/>
      <use x="597.738281" xlink:href="#DejaVuSans-112"/>
      <use x="661.214844" xlink:href="#DejaVuSans-101"/>
      <use x="722.738281" xlink:href="#DejaVuSans-99"/>
      <use x="777.71875" xlink:href="#DejaVuSans-116"/>
      <use x="816.927734" xlink:href="#DejaVuSans-101"/>
      <use x="878.451172" xlink:href="#DejaVuSans-100"/>
      <use x="941.927734" xlink:href="#DejaVuSans-95"/>
      <use x="991.927734" xlink:href="#DejaVuSans-115"/>
      <use x="1044.027344" xlink:href="#DejaVuSans-104"/>
      <use x="1107.40625" xlink:href="#DejaVuSans-105"/>
      <use x="1135.189453" xlink:href="#DejaVuSans-102"/>
      <use x="1170.378906" xlink:href="#DejaVuSans-116"/>
      <use x="1209.587891" xlink:href="#DejaVuSans-32"/>
      <use x="1241.375" xlink:href="#DejaVuSans-45"/>
      <use x="1277.458984" xlink:href="#DejaVuSans-32"/>
      <use x="1309.246094" xlink:href="#DejaVuSans-114"/>
      <use x="1350.328125" xlink:href="#DejaVuSans-101"/>
      <use x="1411.851562" xlink:href="#DejaVuSans-97"/>
      <use x="1473.130859" xlink:href="#DejaVuSans-108"/>
      <use x="1500.914062" xlink:href="#DejaVuSans-95"/>
      <use x="1550.914062" xlink:href="#DejaVuSans-115"/>
      <use x="1603.013672" xlink:href="#DejaVuSans-104"/>
      <use x="1666.392578" xlink:href="#DejaVuSans-105"/>
      <use x="1694.175781" xlink:href="#DejaVuSans-102"/>
      <use x="1729.365234" xlink:href="#DejaVuSans-116"/>
      <use x="1768.574219" xlink:href="#DejaVuSans-124"/>
      <use x="1802.265625" xlink:href="#DejaVuSans-41"/>
      <use x="1841.279297" xlink:href="#DejaVuSans-41"/>
      <use x="1880.292969" xlink:href="#DejaVuSans-32"/>
      <use x="1912.080078" xlink:href="#DejaVuSans-111"/>
      <use x="1973.261719" xlink:href="#DejaVuSans-118"/>
      <use x="2032.441406" xlink:href="#DejaVuSans-101"/>
      <use x="2093.964844" xlink:href="#DejaVuSans-114"/>
      <use x="2135.078125" xlink:href="#DejaVuSans-32"/>
      <use x="2166.865234" xlink:href="#DejaVuSans-50"/>
      <use x="2230.488281" xlink:href="#DejaVuSans-48"/>
      <use x="2294.111328" xlink:href="#DejaVuSans-32"/>
      <use x="2325.898438" xlink:href="#DejaVuSans-114"/>
      <use x="2367.011719" xlink:href="#DejaVuSans-117"/>
      <use x="2430.390625" xlink:href="#DejaVuSans-110"/>
      <use x="2493.769531" xlink:href="#DejaVuSans-115"/>
     </g>
    </g>
   </g>
   <g id="line2d_63">
    <path clip-path="url(#p6136ec976d)" d="M 149.972727 602.176525 
L 159.298823 602.176525 
L 159.298823 602.220834 
L 159.298823 602.309395 
L 163.161818 602.439859 
L 163.161818 602.60816 
L 174.220576 602.809914 
L 174.220576 603.293874 
L 175.952223 603.562188 
L 175.952223 604.852167 
L 184.264364 605.041239 
L 184.264364 605.290909 
L 184.264364 605.265846 
L 196.603205 605.140644 
L 196.603205 604.417193 
L 197.526671 604.06791 
L 197.526671 601.706096 
L 202.530882 601.142845 
L 202.530882 598.115042 
L 215.918182 597.494452 
L 215.918182 595.677094 
L 218.426269 595.102923 
L 218.426269 594.032082 
L 219.058641 593.546611 
L 219.058641 591.645238 
L 222.593975 591.471932 
L 222.593975 591.535546 
L 232.799588 591.648107 
L 232.799588 592.791575 
L 235.772807 593.085928 
L 235.772807 593.968909 
L 236.278172 594.24578 
L 236.278172 595.421955 
L 239.133323 595.626588 
L 239.133323 597.222514 
L 246.780655 597.498079 
L 246.780655 598.366026 
L 247.625455 598.655206 
L 247.625455 600.049088 
L 259.734019 600.19493 
L 259.734019 600.545158 
L 259.734019 600.513842 
L 266.548923 600.394774 
L 266.921371 600.281923 
L 266.921371 599.871336 
L 269.043998 599.764264 
L 269.043998 598.760281 
L 271.312364 598.579554 
L 271.312364 598.194308 
L 275.529132 597.992794 
L 275.529132 596.640799 
L 285.161102 596.492966 
L 285.161102 596.058037 
L 294.71962 596.026735 
L 294.71962 596.082987 
L 342.090297 596.271075 
L 342.090297 596.307425 
L 342.316525 596.42633 
L 342.316525 596.474614 
L 343.614455 596.612059 
L 343.614455 597.133887 
L 347.668357 597.327628 
L 347.668357 597.39422 
L 347.668357 596.679586 
L 353.921368 596.366244 
L 353.921368 593.193949 
L 360.379035 592.704641 
L 360.379035 590.154236 
L 374.692931 589.967684 
L 374.692931 589.689619 
L 374.692931 589.689619 
L 421.668 589.792459 
L 421.668 590.014967 
L 477.318684 590.161466 
L 477.318684 590.505175 
L 477.451507 590.696243 
L 477.451507 591.74119 
L 478.215523 591.955359 
L 478.215523 593.129019 
L 480.623263 593.285235 
L 480.623263 593.792222 
L 484.399494 593.710748 
L 484.399494 593.159869 
L 488.376375 593.037809 
L 488.376375 592.066535 
L 497.457093 591.848217 
L 497.457093 589.818951 
L 529.53107 589.495691 
L 529.53107 588.022849 
L 616.277508 587.932206 
L 616.277508 588.036169 
L 616.37076 590.637797 
L 616.907527 591.213804 
L 616.907527 595.138606 
L 618.603232 595.532476 
L 618.603232 596.346504 
L 618.603232 596.242286 
L 621.275216 596.086734 
L 621.275216 594.303002 
L 624.105412 594.036826 
L 624.105412 592.592871 
L 630.628694 592.453635 
L 630.628694 591.869377 
L 719.70558 591.791929 
L 719.70558 591.824122 
L 719.70558 591.930371 
L 809.427273 591.985608 
L 809.427273 591.985608 
" style="fill:none;stroke:#000000;stroke-linecap:square;stroke-width:1.5;"/>
   </g>
   <g id="line2d_64">
    <path clip-path="url(#p6136ec976d)" d="M 149.972727 591.063759 
L 159.298823 590.975561 
L 159.298823 590.679413 
L 163.161818 590.479324 
L 163.161818 590.252373 
L 174.220576 590.003791 
L 174.220576 589.464562 
L 175.952223 589.184587 
L 175.952223 587.846374 
L 184.264364 587.607097 
L 184.264364 586.951994 
L 196.603205 586.751059 
L 196.603205 586.182633 
L 197.526671 586.000163 
L 197.526671 585.125093 
L 202.530882 584.959691 
L 202.530882 584.229027 
L 215.918182 584.107449 
L 215.918182 583.803536 
L 218.426269 583.660779 
L 218.426269 583.611825 
L 219.058641 583.565707 
L 219.058641 583.651868 
L 222.593975 583.829058 
L 222.593975 584.457958 
L 232.799588 584.657579 
L 232.799588 585.676476 
L 235.772807 585.845892 
L 235.772807 586.215009 
L 236.278172 586.381645 
L 236.278172 586.452381 
L 239.133323 586.531215 
L 239.133323 587.382552 
L 246.780655 587.625173 
L 246.780655 588.43652 
L 247.625455 588.707726 
L 247.625455 589.622286 
L 247.625455 589.542277 
L 259.734019 589.391013 
L 259.734019 587.026974 
L 266.548923 586.596062 
L 266.548923 585.743404 
L 266.921371 585.335974 
L 266.921371 583.386468 
L 269.043998 583.157928 
L 269.043998 582.215929 
L 275.529132 582.066075 
L 275.529132 582.156097 
L 275.529132 582.218568 
L 285.161102 582.396658 
L 285.161102 582.968843 
L 294.71962 583.153965 
L 294.71962 584.448705 
L 314.836364 584.660078 
L 314.836364 585.196224 
L 342.090297 585.43707 
L 342.090297 585.567994 
L 342.316525 585.589988 
L 342.316525 585.50854 
L 343.614455 585.50854 
L 343.614455 585.600576 
L 343.614455 585.981788 
L 347.668357 586.18159 
L 347.668357 588.216295 
L 353.921368 588.507033 
L 353.921368 589.340548 
L 353.921368 589.052531 
L 360.379035 588.819942 
L 360.379035 586.024485 
L 374.692931 585.540661 
L 374.692931 582.846417 
L 421.668 582.481264 
L 421.668 581.608244 
L 477.318684 581.399074 
L 477.318684 581.10975 
L 477.451507 580.986172 
L 477.451507 581.018544 
L 478.215523 581.171612 
L 478.215523 581.805987 
L 480.623263 582.032215 
L 480.623263 582.214205 
L 480.623263 582.113648 
L 484.399494 581.934973 
L 484.399494 581.176766 
L 488.376375 581.039897 
L 488.376375 580.130458 
L 497.457093 579.950947 
L 497.457093 578.53331 
L 529.53107 578.349939 
L 529.53107 577.86313 
L 529.53107 577.86313 
L 612.909818 577.86313 
L 612.909818 577.892898 
L 612.909818 578.118102 
L 616.277508 578.319237 
L 616.37076 582.087641 
L 616.907527 582.775911 
L 616.907527 587.546187 
L 618.603232 588.054014 
L 618.603232 589.063029 
L 618.603232 588.868219 
L 621.275216 588.582228 
L 621.275216 585.144435 
L 624.105412 584.616618 
L 624.105412 581.971654 
L 630.628694 581.775424 
L 630.628694 581.249893 
L 654.303283 581.130302 
L 654.303283 580.85172 
L 719.70558 580.657507 
L 719.70558 580.112873 
L 809.427273 580.004896 
L 809.427273 580.004896 
" style="fill:none;stroke:#100000;stroke-linecap:square;stroke-width:1.5;"/>
   </g>
   <g id="line2d_65">
    <path clip-path="url(#p6136ec976d)" d="M 149.972727 596.000569 
L 159.298823 595.891812 
L 174.220576 595.630287 
L 174.220576 595.553109 
L 175.952223 595.383304 
L 175.952223 594.951005 
L 184.264364 594.808283 
L 184.264364 594.253567 
L 196.603205 594.019031 
L 196.603205 593.159639 
L 197.526671 592.826512 
L 197.526671 590.98583 
L 202.530882 590.617823 
L 202.530882 589.037603 
L 215.918182 588.793708 
L 215.918182 588.222237 
L 218.426269 588.084264 
L 218.426269 587.879948 
L 219.058641 587.700564 
L 219.058641 587.700564 
L 232.799588 587.601624 
L 232.799588 586.800269 
L 235.772807 586.548433 
L 235.772807 585.693685 
L 236.278172 585.405524 
L 236.278172 584.421894 
L 239.133323 584.390568 
L 239.133323 584.432765 
L 239.133323 585.42638 
L 246.780655 585.880731 
L 246.780655 587.654246 
L 247.625455 588.35091 
L 247.625455 592.670989 
L 259.734019 593.277204 
L 259.734019 595.311331 
L 259.734019 595.250296 
L 266.548923 595.098482 
L 266.548923 594.638541 
L 266.921371 594.346571 
L 266.921371 592.082159 
L 269.043998 591.665733 
L 269.043998 588.962531 
L 271.312364 588.647416 
L 271.312364 588.098199 
L 275.529132 587.867821 
L 275.529132 587.110496 
L 285.161102 587.110496 
L 285.161102 587.202154 
L 285.161102 587.27737 
L 294.71962 587.481363 
L 294.71962 588.172924 
L 314.836364 588.312959 
L 314.836364 588.65653 
L 342.090297 588.778913 
L 342.090297 588.666022 
L 342.316525 588.562804 
L 342.316525 587.727968 
L 343.614455 587.528528 
L 343.614455 586.418803 
L 347.668357 586.265375 
L 347.668357 585.402687 
L 353.921368 585.200518 
L 353.921368 584.685466 
L 360.379035 584.541557 
L 360.379035 584.11566 
L 374.692931 583.951269 
L 374.692931 583.490187 
L 421.668 583.307038 
L 421.668 583.143837 
L 477.318684 582.962324 
L 477.451507 582.860327 
L 477.451507 582.860327 
L 480.623263 582.754653 
L 480.623263 582.129283 
L 484.399494 581.998808 
L 484.399494 581.505143 
L 484.399494 581.505143 
L 488.376375 581.505143 
L 488.376375 581.55328 
L 488.376375 582.001443 
L 497.457093 582.163304 
L 497.457093 583.052164 
L 529.53107 582.895105 
L 529.53107 582.140079 
L 612.909818 581.994662 
L 612.909818 581.732882 
L 616.37076 581.77429 
L 616.37076 582.837753 
L 616.907527 583.207813 
L 616.907527 586.524891 
L 618.603232 586.989299 
L 618.603232 588.668725 
L 621.275216 588.88799 
L 621.275216 588.77461 
L 621.275216 587.23018 
L 624.105412 586.733018 
L 624.105412 581.094308 
L 630.628694 579.888784 
L 630.628694 567.733617 
L 654.303283 565.513004 
L 654.303283 549.217969 
L 719.70558 547.097656 
L 719.70558 536.732182 
L 809.427273 536.050734 
L 809.427273 535.364245 
L 809.427273 535.364245 
" style="fill:none;stroke:#200000;stroke-linecap:square;stroke-width:1.5;"/>
   </g>
   <g id="line2d_66">
    <path clip-path="url(#p6136ec976d)" d="M 149.972727 577.170618 
L 174.220576 577.052124 
L 174.220576 577.033033 
L 184.264364 576.980029 
L 184.264364 576.984092 
L 197.526671 576.899024 
L 197.526671 576.476366 
L 202.530882 576.338959 
L 202.530882 575.42115 
L 215.918182 575.205594 
L 215.918182 574.544267 
L 218.426269 574.330054 
L 218.426269 573.93154 
L 219.058641 573.752359 
L 219.058641 573.099107 
L 222.593975 573.05011 
L 222.593975 573.063414 
L 232.799588 573.123865 
L 232.799588 573.007001 
L 235.772807 572.917538 
L 235.772807 572.516445 
L 236.278172 572.351684 
L 236.278172 571.602406 
L 239.133323 571.486986 
L 239.133323 571.557065 
L 239.133323 571.836412 
L 246.780655 572.055601 
L 246.780655 572.987579 
L 247.625455 573.369687 
L 247.625455 575.776926 
L 259.734019 576.10901 
L 259.734019 577.159869 
L 259.734019 577.119055 
L 266.548923 576.969139 
L 266.548923 576.876321 
L 266.921371 576.686173 
L 266.921371 576.345502 
L 269.043998 576.202413 
L 271.312364 576.10082 
L 271.312364 576.020608 
L 275.529132 575.918314 
L 275.529132 574.560544 
L 285.161102 574.306742 
L 285.161102 573.125171 
L 294.71962 572.944258 
L 294.71962 572.500429 
L 294.71962 572.500429 
L 314.836364 572.500429 
L 314.836364 572.595539 
L 342.090297 572.769701 
L 342.090297 572.998297 
L 342.316525 573.124498 
L 342.316525 573.806732 
L 343.614455 573.949027 
L 343.614455 574.901891 
L 347.668357 575.0788 
L 347.668357 576.192899 
L 353.921368 576.300149 
L 353.921368 576.208374 
L 353.921368 574.839972 
L 360.379035 574.378754 
L 360.379035 569.970443 
L 374.692931 569.283235 
L 374.692931 565.869869 
L 421.668 565.496626 
L 421.668 564.818674 
L 477.451507 564.750385 
L 477.451507 564.828873 
L 477.451507 565.804469 
L 478.215523 566.18266 
L 478.215523 568.897254 
L 480.623263 569.326675 
L 480.623263 570.94953 
L 484.399494 570.973129 
L 484.399494 570.868876 
L 484.399494 569.458368 
L 488.376375 569.156353 
L 488.376375 567.463988 
L 497.457093 567.234441 
L 497.457093 566.199175 
L 529.53107 566.036203 
L 529.53107 566.049298 
L 612.909818 566.155711 
L 612.909818 566.391812 
L 616.277508 566.566784 
L 616.37076 569.705228 
L 616.907527 570.309227 
L 616.907527 574.866319 
L 618.603232 575.422472 
L 618.603232 576.972317 
L 618.603232 549.412561 
L 621.275216 540.866756 
L 621.275216 460.050063 
L 624.105412 448.377236 
L 624.105412 374.602686 
L 630.628694 365.383632 
L 630.628694 310.618599 
L 654.303283 304.190288 
L 654.303283 268.843005 
L 719.70558 265.159308 
L 719.70558 248.80036 
L 809.427273 247.80158 
L 809.427273 246.803134 
L 809.427273 246.803134 
" style="fill:none;stroke:#300000;stroke-linecap:square;stroke-width:1.5;"/>
   </g>
   <g id="line2d_67">
    <path clip-path="url(#p6136ec976d)" d="M 149.972727 583.858133 
L 159.298823 583.745807 
L 159.298823 583.366982 
L 163.161818 583.108737 
L 163.161818 582.8129 
L 174.220576 582.485141 
L 174.220576 581.759002 
L 175.952223 581.372917 
L 175.952223 579.403681 
L 184.264364 579.026794 
L 184.264364 577.968825 
L 196.603205 577.645362 
L 196.603205 576.773201 
L 197.526671 576.518225 
L 197.526671 575.533441 
L 202.530882 575.394163 
L 202.530882 574.928519 
L 215.918182 574.805247 
L 215.918182 574.685443 
L 218.426269 574.551802 
L 218.426269 574.476718 
L 219.058641 574.309048 
L 219.058641 573.855104 
L 222.593975 573.707702 
L 222.593975 573.573581 
L 232.799588 573.573581 
L 232.799588 573.635227 
L 232.799588 573.685109 
L 235.772807 573.822732 
L 235.772807 574.005761 
L 236.278172 574.113444 
L 236.278172 574.844677 
L 239.133323 575.036812 
L 239.133323 576.874568 
L 246.780655 577.182952 
L 246.780655 578.076723 
L 247.625455 578.34529 
L 247.625455 579.279231 
L 259.734019 579.11031 
L 259.734019 577.8425 
L 266.548923 577.556482 
L 266.548923 576.954819 
L 266.921371 576.648335 
L 266.921371 574.965194 
L 269.043998 574.74254 
L 269.043998 573.841044 
L 275.529132 573.715016 
L 275.529132 573.715812 
L 285.161102 573.793785 
L 285.161102 573.839582 
L 294.71962 573.979975 
L 294.71962 574.636678 
L 314.836364 574.805382 
L 314.836364 575.303256 
L 342.090297 575.447345 
L 342.090297 575.737172 
L 342.316525 575.761513 
L 342.316525 575.713842 
L 342.316525 575.356363 
L 343.614455 575.164806 
L 343.614455 574.969116 
L 343.614455 574.969116 
L 347.668357 574.969116 
L 347.668357 575.043108 
L 347.668357 575.321118 
L 353.921368 575.500561 
L 353.921368 575.516666 
L 353.921368 575.162851 
L 360.379035 575.001922 
L 360.379035 573.129558 
L 374.692931 572.770149 
L 374.692931 570.351568 
L 421.668 569.939824 
L 421.668 568.790264 
L 477.318684 568.454433 
L 477.318684 567.886958 
L 477.451507 567.486229 
L 477.451507 567.249879 
L 477.451507 567.249879 
L 478.215523 567.249879 
L 478.215523 567.344702 
L 478.215523 568.060417 
L 480.623263 568.323327 
L 480.623263 570.118958 
L 484.399494 570.394701 
L 484.399494 571.548618 
L 488.376375 571.564387 
L 488.376375 571.512558 
L 488.376375 570.954592 
L 497.457093 570.804829 
L 497.457093 569.817313 
L 529.53107 569.619038 
L 529.53107 569.645176 
L 612.909818 569.803595 
L 612.909818 570.113175 
L 616.277508 570.325157 
L 616.37076 573.166713 
L 616.907527 573.610769 
L 616.907527 575.343942 
L 616.907527 569.09075 
L 618.603232 566.134962 
L 618.603232 511.851017 
L 621.275216 500.187436 
L 621.275216 415.441536 
L 624.105412 404.219181 
L 624.105412 333.975442 
L 630.628694 325.195672 
L 630.628694 272.809489 
L 654.303283 266.630259 
L 654.303283 232.529436 
L 719.70558 228.963493 
L 719.70558 213.099653 
L 809.427273 212.12963 
L 809.427273 211.159764 
L 809.427273 211.159764 
" style="fill:none;stroke:#400000;stroke-linecap:square;stroke-width:1.5;"/>
   </g>
   <g id="line2d_68">
    <path clip-path="url(#p6136ec976d)" d="M 149.972727 575.039876 
L 163.161818 574.911828 
L 174.220576 574.787292 
L 175.952223 574.686328 
L 175.952223 574.386102 
L 184.264364 574.273596 
L 184.264364 573.798636 
L 196.603205 573.585323 
L 196.603205 572.754386 
L 197.526671 572.413228 
L 197.526671 570.293106 
L 202.530882 569.806613 
L 202.530882 567.294134 
L 215.918182 566.809753 
L 215.918182 565.484037 
L 218.426269 565.102022 
L 218.426269 564.458008 
L 219.058641 564.204371 
L 219.058641 563.72344 
L 219.058641 563.72344 
L 222.593975 563.82166 
L 222.593975 564.617031 
L 232.799588 564.90884 
L 232.799588 566.48355 
L 235.772807 566.750664 
L 235.772807 567.305155 
L 236.278172 567.39462 
L 236.278172 567.324542 
L 236.278172 567.039658 
L 239.133323 566.871151 
L 239.133323 567.050969 
L 246.780655 567.20787 
L 246.780655 567.941686 
L 247.625455 568.25499 
L 247.625455 570.163535 
L 259.734019 570.391221 
L 259.734019 570.785191 
L 259.734019 570.415566 
L 266.548923 570.268345 
L 266.548923 569.957707 
L 266.921371 569.80463 
L 266.921371 569.017699 
L 269.043998 568.796485 
L 269.043998 568.178119 
L 271.312364 568.00716 
L 271.312364 567.936162 
L 285.161102 567.820533 
L 285.161102 568.049767 
L 294.71962 568.179854 
L 294.71962 568.022064 
L 314.836364 567.926948 
L 314.836364 567.522765 
L 342.090297 567.355148 
L 342.090297 566.810251 
L 342.316525 566.634484 
L 342.316525 566.091766 
L 343.614455 566.091766 
L 343.614455 566.144068 
L 343.614455 566.599501 
L 347.668357 566.850701 
L 347.668357 569.423956 
L 353.921368 569.798528 
L 353.921368 571.164027 
L 353.921368 571.095194 
L 360.379035 570.967861 
L 360.379035 569.219295 
L 374.692931 568.920214 
L 374.692931 567.222533 
L 421.668 566.963461 
L 421.668 566.227078 
L 477.318684 565.995167 
L 477.318684 565.555784 
L 477.451507 565.157104 
L 477.451507 564.548077 
L 478.215523 564.371221 
L 478.215523 564.288212 
L 478.215523 564.288212 
L 480.623263 564.403312 
L 480.623263 564.718722 
L 484.399494 564.863168 
L 484.399494 564.934758 
L 484.399494 564.557432 
L 488.376375 564.386061 
L 488.376375 562.848901 
L 497.457093 562.539723 
L 497.457093 560.569858 
L 529.53107 560.381241 
L 529.53107 560.072389 
L 529.53107 560.072389 
L 612.909818 560.129008 
L 612.909818 560.676202 
L 616.277508 560.98869 
L 616.37076 565.599332 
L 616.907527 566.351707 
L 616.907527 569.310146 
L 616.907527 562.137067 
L 618.603232 558.592253 
L 618.603232 503.14813 
L 621.275216 491.423433 
L 621.275216 407.463243 
L 624.105412 396.38197 
L 624.105412 327.017263 
L 630.628694 318.341787 
L 630.628694 266.531574 
L 654.303283 260.414306 
L 654.303283 226.629707 
L 719.70558 223.094209 
L 719.70558 207.359538 
L 809.427273 206.397077 
L 809.427273 205.434732 
L 809.427273 205.434732 
" style="fill:none;stroke:#500000;stroke-linecap:square;stroke-width:1.5;"/>
   </g>
   <g id="line2d_69">
    <path clip-path="url(#p6136ec976d)" d="M 149.972727 572.766309 
L 159.298823 572.653982 
L 159.298823 572.569121 
L 174.220576 572.121135 
L 174.220576 572.001872 
L 175.952223 571.780622 
L 175.952223 571.479499 
L 197.526671 571.474776 
L 197.526671 571.576293 
L 197.526671 571.548747 
L 202.530882 571.424442 
L 202.530882 570.851583 
L 215.918182 570.63844 
L 215.918182 569.861658 
L 218.426269 569.57008 
L 218.426269 568.96663 
L 219.058641 568.665148 
L 219.058641 567.162414 
L 222.593975 566.991434 
L 222.593975 566.5122 
L 239.133323 566.418044 
L 239.133323 566.560538 
L 239.133323 567.428518 
L 246.780655 567.687598 
L 246.780655 568.556031 
L 247.625455 568.852054 
L 247.625455 570.0963 
L 259.734019 570.11645 
L 259.734019 570.027164 
L 259.734019 568.870728 
L 266.548923 568.644564 
L 266.548923 568.22216 
L 266.921371 568.036626 
L 266.921371 567.383311 
L 269.043998 567.329574 
L 269.043998 567.394123 
L 275.529132 567.583439 
L 275.529132 568.035156 
L 285.161102 568.170147 
L 285.161102 568.411631 
L 294.71962 568.550883 
L 294.71962 568.414348 
L 314.836364 568.217166 
L 314.836364 567.934903 
L 342.090297 567.765634 
L 342.090297 567.182194 
L 342.316525 566.979013 
L 342.316525 566.10902 
L 343.614455 565.897025 
L 343.614455 565.715925 
L 347.668357 565.618684 
L 347.668357 565.353314 
L 353.921368 565.214794 
L 353.921368 563.699727 
L 360.379035 563.441088 
L 360.379035 561.716477 
L 374.692931 561.500333 
L 374.692931 560.443433 
L 421.668 560.315421 
L 421.668 560.03884 
L 477.451507 559.957636 
L 477.451507 560.029206 
L 477.451507 560.208666 
L 478.215523 560.33894 
L 478.215523 561.607249 
L 480.623263 561.876089 
L 480.623263 563.486582 
L 484.399494 563.713766 
L 484.399494 564.444015 
L 484.399494 564.370908 
L 488.376375 564.26187 
L 488.376375 563.021223 
L 497.457093 562.760081 
L 497.457093 561.099402 
L 529.53107 560.931448 
L 529.53107 560.07354 
L 612.909818 559.86112 
L 612.909818 558.763774 
L 616.277508 558.17364 
L 616.37076 547.372859 
L 616.907527 545.342481 
L 616.907527 530.962346 
L 618.603232 529.245665 
L 618.603232 497.582176 
L 621.275216 489.200562 
L 621.275216 410.22408 
L 624.105412 398.63138 
L 624.105412 325.010744 
L 630.628694 315.795067 
L 630.628694 261.04046 
L 654.303283 254.613046 
L 654.303283 219.270438 
L 719.70558 215.587201 
L 719.70558 199.230223 
L 809.427273 198.231558 
L 809.427273 197.233228 
L 809.427273 197.233228 
" style="fill:none;stroke:#600000;stroke-linecap:square;stroke-width:1.5;"/>
   </g>
   <g id="line2d_70">
    <path clip-path="url(#p6136ec976d)" d="M 149.972727 576.386619 
L 159.298823 576.2973 
L 159.298823 575.991555 
L 163.161818 575.779184 
L 163.161818 575.52227 
L 174.220576 575.237265 
L 174.220576 574.574084 
L 175.952223 574.201841 
L 175.952223 571.994145 
L 184.264364 571.477318 
L 184.264364 569.804706 
L 196.603205 569.191647 
L 196.603205 567.135991 
L 197.526671 566.363939 
L 197.526671 561.638613 
L 202.530882 560.493444 
L 202.530882 553.797999 
L 215.918182 552.310186 
L 215.918182 547.758316 
L 218.426269 546.261989 
L 218.426269 543.397633 
L 219.058641 542.061164 
L 219.058641 536.239876 
L 222.593975 535.736497 
L 222.593975 535.155755 
L 222.593975 535.155755 
L 232.799588 535.276426 
L 232.799588 538.041623 
L 235.772807 538.948825 
L 235.772807 542.033956 
L 236.278172 543.095567 
L 236.278172 547.342902 
L 239.133323 547.80976 
L 239.133323 548.147949 
L 239.133323 546.436784 
L 246.780655 546.074089 
L 246.780655 545.376427 
L 247.625455 545.325981 
L 247.625455 545.382603 
L 247.625455 546.213575 
L 259.734019 546.702093 
L 259.734019 551.991506 
L 266.548923 552.832163 
L 266.548923 554.390755 
L 266.921371 555.081339 
L 266.921371 556.879088 
L 266.921371 556.491635 
L 269.043998 555.927925 
L 269.043998 547.807573 
L 271.312364 546.19208 
L 271.312364 542.800062 
L 275.529132 541.064439 
L 275.529132 528.490523 
L 285.161102 526.558515 
L 285.161102 515.601485 
L 294.71962 513.13814 
L 294.71962 497.508976 
L 314.836364 494.965851 
L 314.836364 487.819392 
L 342.090297 485.635301 
L 342.090297 479.74104 
L 342.316525 477.99333 
L 342.316525 470.655611 
L 343.614455 469.428623 
L 343.614455 463.46263 
L 347.668357 462.703618 
L 347.668357 459.434865 
L 353.921368 459.238418 
L 353.921368 458.657033 
L 360.379035 458.542459 
L 360.379035 456.397995 
L 374.692931 455.935714 
L 374.692931 453.594738 
L 421.668 453.353943 
L 421.668 453.353943 
L 477.318684 453.388484 
L 477.318684 453.804 
L 477.451507 454.190967 
L 477.451507 457.823704 
L 478.215523 458.841225 
L 478.215523 465.808333 
L 480.623263 466.926746 
L 480.623263 470.742386 
L 480.623263 470.670586 
L 484.399494 470.146191 
L 484.399494 460.228415 
L 488.376375 458.191607 
L 488.376375 445.233042 
L 497.457093 443.136293 
L 497.457093 430.706296 
L 529.53107 429.355748 
L 529.53107 423.995689 
L 612.909818 423.583031 
L 612.909818 423.151925 
L 616.277508 423.151925 
L 616.277508 423.261712 
L 616.37076 423.484 
L 616.37076 425.859621 
L 616.907527 426.462364 
L 616.907527 429.159008 
L 616.907527 428.879255 
L 618.603232 428.503981 
L 618.603232 422.037904 
L 621.275216 419.737456 
L 621.275216 385.683264 
L 624.105412 378.303817 
L 624.105412 320.704001 
L 630.628694 312.636469 
L 630.628694 262.922553 
L 654.303283 256.954403 
L 654.303283 223.843142 
L 719.70558 220.368926 
L 719.70558 204.896378 
L 809.427273 203.949536 
L 809.427273 203.002769 
L 809.427273 203.002769 
" style="fill:none;stroke:#700000;stroke-linecap:square;stroke-width:1.5;"/>
   </g>
   <g id="line2d_71">
    <path clip-path="url(#p6136ec976d)" d="M 149.972727 302.082948 
L 159.298823 301.977963 
L 159.298823 301.897829 
L 174.220576 301.450342 
L 174.220576 301.321558 
L 175.952223 301.191299 
L 175.952223 300.581327 
L 184.264364 300.372032 
L 184.264364 300.182306 
L 196.603205 300.004223 
L 196.603205 299.830118 
L 197.526671 299.650167 
L 197.526671 299.248588 
L 202.530882 299.134018 
L 202.530882 298.453319 
L 215.918182 298.294316 
L 215.918182 297.77849 
L 218.426269 297.597903 
L 218.426269 297.236382 
L 219.058641 297.059462 
L 219.058641 296.211854 
L 222.593975 296.050938 
L 222.593975 295.914399 
L 235.772807 295.802079 
L 236.278172 295.744894 
L 236.278172 295.747822 
L 239.133323 295.815847 
L 239.133323 296.762859 
L 246.780655 297.033907 
L 246.780655 297.959677 
L 247.625455 298.281381 
L 247.625455 299.729754 
L 259.734019 299.824372 
L 259.734019 299.800648 
L 259.734019 298.740476 
L 266.548923 298.511153 
L 266.548923 298.066927 
L 266.921371 297.863511 
L 266.921371 297.048568 
L 269.043998 296.894965 
L 269.043998 296.812512 
L 275.529132 296.677281 
L 275.529132 296.308495 
L 285.161102 296.176758 
L 285.161102 295.990012 
L 342.090297 295.745973 
L 342.090297 295.591237 
L 342.316525 295.414709 
L 342.316525 295.106585 
L 343.614455 295.019957 
L 343.614455 295.047225 
L 347.668357 295.168575 
L 347.668357 295.244429 
L 347.668357 295.06771 
L 353.921368 294.931723 
L 353.921368 292.993769 
L 360.379035 292.617437 
L 360.379035 289.961196 
L 374.692931 289.629802 
L 374.692931 288.189502 
L 421.668 287.96815 
L 421.668 287.897342 
L 477.451507 287.981098 
L 477.451507 288.820309 
L 478.215523 289.075908 
L 478.215523 290.842468 
L 480.623263 291.121691 
L 480.623263 292.230853 
L 484.399494 292.293467 
L 484.399494 292.255043 
L 484.399494 291.328941 
L 488.376375 291.096556 
L 488.376375 289.481985 
L 497.457093 289.199658 
L 497.457093 287.486719 
L 529.53107 287.322562 
L 529.53107 287.033485 
L 529.53107 287.033485 
L 612.909818 287.173231 
L 612.909818 287.545344 
L 616.277508 287.82484 
L 616.37076 292.298033 
L 616.907527 293.074421 
L 616.907527 298.331823 
L 618.603232 298.891976 
L 618.603232 300.225863 
L 618.603232 300.224025 
L 621.275216 300.053306 
L 621.275216 297.432156 
L 624.105412 296.953015 
L 624.105412 293.335132 
L 630.628694 292.765522 
L 630.628694 287.99894 
L 654.303283 287.189794 
L 654.303283 281.066098 
L 719.70558 280.219189 
L 719.70558 275.843846 
L 809.427273 275.541702 
L 809.427273 275.234821 
L 809.427273 275.234821 
" style="fill:none;stroke:#800000;stroke-linecap:square;stroke-width:1.5;"/>
   </g>
   <g id="line2d_72">
    <path clip-path="url(#p6136ec976d)" d="M 149.972727 334.824634 
L 159.298823 334.746496 
L 159.298823 334.478827 
L 163.161818 334.292404 
L 163.161818 334.075089 
L 174.220576 333.830004 
L 174.220576 333.273522 
L 175.952223 332.971346 
L 175.952223 331.446433 
L 184.264364 331.178411 
L 184.264364 330.536252 
L 196.603205 330.386626 
L 196.603205 330.148351 
L 197.526671 330.13622 
L 197.526671 330.198202 
L 197.526671 330.263705 
L 202.530882 330.439853 
L 202.530882 330.812332 
L 218.426269 330.784195 
L 218.426269 330.567877 
L 219.058641 330.436395 
L 219.058641 329.621585 
L 222.593975 329.446731 
L 222.593975 329.356176 
L 222.593975 329.356176 
L 232.799588 329.373667 
L 232.799588 329.412632 
L 232.799588 329.639957 
L 235.772807 329.74342 
L 235.772807 330.095036 
L 236.278172 330.218643 
L 236.278172 330.857754 
L 239.133323 330.994438 
L 239.133323 332.182767 
L 246.780655 332.377405 
L 246.780655 332.918766 
L 247.625455 333.066604 
L 247.625455 333.30803 
L 247.625455 332.938733 
L 259.734019 332.7325 
L 259.734019 330.606265 
L 266.548923 330.268899 
L 266.548923 329.606417 
L 266.921371 329.285666 
L 266.921371 327.463716 
L 269.043998 327.165629 
L 269.043998 325.134087 
L 271.312364 324.883283 
L 271.312364 324.447759 
L 275.529132 324.272625 
L 275.529132 323.911511 
L 275.529132 323.912338 
L 285.161102 324.01905 
L 285.161102 324.57395 
L 294.71962 324.762832 
L 294.71962 325.997921 
L 314.836364 326.186472 
L 314.836364 326.655785 
L 342.090297 326.863564 
L 342.090297 326.952305 
L 342.316525 326.824954 
L 342.316525 326.2549 
L 343.614455 326.060023 
L 343.614455 324.636763 
L 347.668357 324.372509 
L 347.668357 322.32502 
L 353.921368 321.994492 
L 353.921368 319.365666 
L 360.379035 318.951611 
L 360.379035 315.957436 
L 374.692931 315.538635 
L 374.692931 313.321984 
L 421.668 313.032897 
L 421.668 312.371222 
L 477.318684 312.133129 
L 477.318684 312.083593 
L 477.451507 312.082311 
L 477.451507 312.130684 
L 477.451507 312.376258 
L 478.215523 312.572088 
L 478.215523 314.59182 
L 480.623263 315.019996 
L 480.623263 317.388903 
L 484.399494 317.663536 
L 484.399494 318.058291 
L 484.399494 317.079872 
L 488.376375 316.675644 
L 488.376375 313.431329 
L 497.457093 312.82499 
L 497.457093 308.970831 
L 529.53107 308.551794 
L 529.53107 307.293422 
L 612.909818 307.293422 
L 612.909818 307.341509 
L 612.909818 307.473012 
L 616.277508 307.689402 
L 616.37076 312.262208 
L 616.907527 313.082489 
L 616.907527 318.220313 
L 618.603232 318.666512 
L 618.603232 319.208626 
L 618.603232 318.547867 
L 621.275216 318.102083 
L 621.275216 311.95879 
L 624.105412 310.493035 
L 624.105412 293.067372 
L 630.628694 289.48264 
L 630.628694 260.490256 
L 654.303283 256.298537 
L 654.303283 231.047346 
L 719.70558 228.239899 
L 719.70558 215.467672 
L 809.427273 214.673514 
L 809.427273 213.878055 
L 809.427273 213.878055 
" style="fill:none;stroke:#8f0000;stroke-linecap:square;stroke-width:1.5;"/>
   </g>
   <g id="line2d_73">
    <path clip-path="url(#p6136ec976d)" d="M 149.972727 277.644876 
L 159.298823 277.471938 
L 159.298823 277.338533 
L 163.161818 277.177518 
L 163.161818 276.993073 
L 174.220576 276.788796 
L 174.220576 276.336657 
L 175.952223 276.096914 
L 175.952223 274.882341 
L 184.264364 274.650587 
L 184.264364 273.994876 
L 196.603205 273.789318 
L 196.603205 273.205615 
L 197.526671 273.019847 
L 197.526671 272.138763 
L 202.530882 271.968811 
L 202.530882 271.135875 
L 215.918182 270.970566 
L 215.918182 270.477766 
L 218.426269 270.316316 
L 218.426269 270.005063 
L 219.058641 269.858126 
L 219.058641 269.22038 
L 222.593975 269.120997 
L 222.593975 269.121649 
L 232.799588 269.241302 
L 232.799588 269.331476 
L 235.772807 269.471358 
L 236.278172 269.591279 
L 236.278172 269.63892 
L 239.133323 269.796931 
L 239.133323 271.035427 
L 246.780655 271.359632 
L 246.780655 272.450031 
L 247.625455 272.827131 
L 247.625455 274.571164 
L 259.734019 274.775259 
L 259.734019 274.697194 
L 259.734019 273.818529 
L 266.548923 273.595749 
L 266.548923 273.151724 
L 266.921371 272.940425 
L 266.921371 271.9051 
L 269.043998 271.767043 
L 269.043998 270.896029 
L 271.312364 270.778503 
L 271.312364 270.552917 
L 275.529132 270.35125 
L 275.529132 269.99106 
L 294.71962 270.014934 
L 294.71962 270.043608 
L 294.71962 270.170979 
L 314.836364 270.048982 
L 314.836364 269.975164 
L 342.090297 269.785023 
L 342.090297 269.557701 
L 342.316525 269.327802 
L 342.316525 268.997684 
L 343.614455 268.954773 
L 343.614455 269.065528 
L 347.668357 269.229139 
L 347.668357 269.64368 
L 353.921368 269.465997 
L 353.921368 268.057966 
L 360.379035 267.726978 
L 360.379035 265.231761 
L 374.692931 264.901096 
L 374.692931 263.349081 
L 421.668 263.180335 
L 421.668 262.85678 
L 477.451507 262.803512 
L 477.451507 262.885679 
L 477.451507 263.25945 
L 478.215523 263.44709 
L 478.215523 265.055413 
L 480.623263 265.364868 
L 480.623263 266.965728 
L 484.399494 267.139355 
L 484.399494 267.386422 
L 484.399494 266.81921 
L 488.376375 266.58521 
L 488.376375 264.66397 
L 497.457093 264.292845 
L 497.457093 261.829303 
L 529.53107 261.553058 
L 529.53107 260.782239 
L 529.53107 260.782239 
L 612.909818 260.782239 
L 612.909818 260.849246 
L 612.909818 260.978105 
L 616.277508 261.17294 
L 616.37076 264.953966 
L 616.907527 265.619578 
L 616.907527 269.738434 
L 618.603232 270.083683 
L 618.603232 270.49003 
L 618.603232 269.854668 
L 621.275216 269.489552 
L 621.275216 265.884876 
L 624.105412 265.311116 
L 624.105412 261.159514 
L 630.628694 260.515593 
L 630.628694 255.133748 
L 654.303283 254.225012 
L 654.303283 247.456119 
L 719.70558 246.537975 
L 719.70558 241.866964 
L 809.427273 241.548775 
L 809.427273 241.226337 
L 809.427273 241.226337 
" style="fill:none;stroke:#9f0000;stroke-linecap:square;stroke-width:1.5;"/>
   </g>
   <g id="line2d_74">
    <path clip-path="url(#p6136ec976d)" d="M 149.972727 256.706463 
L 159.298823 256.534694 
L 159.298823 256.402237 
L 163.161818 256.24219 
L 163.161818 256.058904 
L 174.220576 255.855913 
L 174.220576 255.405406 
L 175.952223 255.165144 
L 175.952223 253.913303 
L 184.264364 253.662574 
L 184.264364 252.914902 
L 196.603205 252.666936 
L 196.603205 251.926015 
L 197.526671 251.682105 
L 197.526671 250.549855 
L 202.530882 250.353877 
L 202.530882 249.618031 
L 215.918182 249.447328 
L 215.918182 249.342949 
L 219.058641 249.292721 
L 219.058641 249.384601 
L 219.058641 249.431103 
L 222.593975 249.551758 
L 222.593975 249.872296 
L 232.799588 250.045852 
L 232.799588 250.300688 
L 235.772807 250.305932 
L 235.772807 250.260485 
L 235.772807 250.099148 
L 236.278172 249.988646 
L 236.278172 249.336397 
L 239.133323 249.154837 
L 239.133323 249.095931 
L 239.133323 249.190708 
L 246.780655 249.299726 
L 246.780655 249.845152 
L 247.625455 250.084637 
L 247.625455 251.577917 
L 259.734019 251.760057 
L 259.734019 252.080656 
L 259.734019 251.787305 
L 266.548923 251.669853 
L 266.548923 251.425163 
L 266.921371 251.198453 
L 266.921371 250.772267 
L 269.043998 250.625667 
L 269.043998 249.925629 
L 271.312364 249.744496 
L 271.312364 249.320673 
L 275.529132 249.082509 
L 275.529132 247.188937 
L 285.161102 246.927096 
L 285.161102 245.772175 
L 294.71962 245.5704 
L 294.71962 244.397224 
L 314.836364 244.185836 
L 314.836364 243.508494 
L 342.090297 243.273435 
L 342.090297 242.59224 
L 342.316525 242.39243 
L 342.316525 241.834939 
L 343.614455 241.834939 
L 343.614455 241.889907 
L 343.614455 242.271532 
L 347.668357 242.458589 
L 347.668357 243.549693 
L 347.668357 243.539028 
L 353.921368 243.385132 
L 353.921368 240.013104 
L 360.379035 239.256856 
L 360.379035 233.0972 
L 374.692931 232.177066 
L 374.692931 226.880046 
L 421.668 226.063654 
L 421.668 223.765501 
L 477.318684 223.054678 
L 477.318684 221.720354 
L 477.451507 221.095299 
L 477.451507 218.309743 
L 478.215523 217.799865 
L 478.215523 214.672434 
L 480.623263 214.089673 
L 480.623263 209.958536 
L 484.399494 209.141627 
L 484.399494 201.94071 
L 488.376375 200.630356 
L 488.376375 190.589972 
L 497.457093 188.535087 
L 497.457093 172.317058 
L 529.53107 169.966411 
L 529.53107 157.585847 
L 612.909818 155.953596 
L 612.909818 151.99128 
L 616.277508 150.997084 
L 616.37076 148.399364 
L 616.37076 148.399364 
L 616.907527 148.456144 
L 616.907527 150.566775 
L 618.603232 150.819118 
L 618.603232 150.972633 
L 618.603232 149.369525 
L 621.275216 148.655118 
L 621.275216 141.876937 
L 624.105412 140.857772 
L 624.105412 134.667426 
L 630.628694 133.933288 
L 630.628694 129.534172 
L 654.303283 128.987858 
L 654.303283 125.784521 
L 719.70558 125.435622 
L 719.70558 123.8985 
L 809.427273 123.717349 
L 809.427273 123.717349 
" style="fill:none;stroke:#af0000;stroke-linecap:square;stroke-width:1.5;"/>
   </g>
   <g id="line2d_75">
    <path clip-path="url(#p6136ec976d)" d="M 149.972727 246.156139 
L 159.298823 246.010483 
L 159.298823 245.896159 
L 163.161818 245.755686 
L 163.161818 245.591604 
L 174.220576 245.405786 
L 174.220576 244.978641 
L 175.952223 244.743057 
L 175.952223 243.455392 
L 184.264364 243.195255 
L 184.264364 242.45268 
L 196.603205 242.22347 
L 196.603205 241.603184 
L 197.526671 241.420006 
L 197.526671 240.660134 
L 202.530882 240.530898 
L 202.530882 239.917539 
L 215.918182 239.791676 
L 215.918182 239.395478 
L 218.426269 239.258872 
L 218.426269 238.987541 
L 219.058641 238.856677 
L 219.058641 238.29667 
L 222.593975 238.240656 
L 222.593975 238.257021 
L 232.799588 238.380833 
L 232.799588 238.547693 
L 239.133323 238.729241 
L 239.133323 239.53832 
L 246.780655 239.784891 
L 246.780655 240.65518 
L 247.625455 240.967498 
L 247.625455 242.486257 
L 259.734019 242.690587 
L 259.734019 242.53443 
L 259.734019 241.825808 
L 266.548923 241.606009 
L 266.548923 241.153048 
L 266.921371 240.930402 
L 266.921371 239.786768 
L 269.043998 239.637093 
L 269.043998 238.891817 
L 275.529132 238.598831 
L 275.529132 238.581151 
L 275.529132 238.581151 
L 294.71962 238.683112 
L 294.71962 238.966048 
L 314.836364 239.094939 
L 314.836364 239.229511 
L 342.090297 239.358731 
L 342.090297 239.471936 
L 342.316525 239.603517 
L 342.316525 239.697502 
L 343.614455 239.828103 
L 343.614455 239.873467 
L 347.668357 239.889348 
L 347.668357 239.782053 
L 347.668357 239.28568 
L 353.921368 239.088937 
L 353.921368 237.057213 
L 360.379035 236.712833 
L 360.379035 234.401604 
L 374.692931 234.114396 
L 374.692931 232.74337 
L 421.668 232.580868 
L 421.668 232.222429 
L 477.451507 232.075296 
L 477.451507 232.227569 
L 478.215523 232.325647 
L 478.215523 233.281698 
L 480.623263 233.47249 
L 480.623263 234.44275 
L 484.399494 234.618247 
L 484.399494 234.668343 
L 484.399494 234.306676 
L 488.376375 234.166158 
L 488.376375 233.001994 
L 497.457093 232.769967 
L 497.457093 231.156701 
L 529.53107 230.973008 
L 529.53107 230.536206 
L 529.53107 230.536206 
L 612.909818 230.536206 
L 612.909818 230.580793 
L 612.909818 230.836171 
L 616.277508 231.051572 
L 616.37076 234.816753 
L 616.907527 235.46787 
L 616.907527 239.518872 
L 618.603232 239.864541 
L 618.603232 240.279925 
L 618.603232 239.687078 
L 621.275216 239.328593 
L 621.275216 235.776145 
L 624.105412 235.223962 
L 624.105412 231.622378 
L 630.628694 231.144078 
L 630.628694 227.720271 
L 654.303283 227.193074 
L 654.303283 223.30207 
L 719.70558 222.764554 
L 719.70558 219.961944 
L 809.427273 219.766717 
L 809.427273 219.568115 
L 809.427273 219.568115 
" style="fill:none;stroke:#bf0000;stroke-linecap:square;stroke-width:1.5;"/>
   </g>
   <g id="line2d_76">
    <path clip-path="url(#p6136ec976d)" d="M 149.972727 119.157787 
L 159.298823 118.99504 
L 159.298823 118.868763 
L 163.161818 118.715534 
L 163.161818 118.539103 
L 174.220576 118.342207 
L 174.220576 117.900722 
L 175.952223 117.662912 
L 175.952223 116.409957 
L 184.264364 116.160486 
L 184.264364 115.436244 
L 196.603205 115.204884 
L 196.603205 114.544635 
L 197.526671 114.336499 
L 197.526671 113.396423 
L 202.530882 113.228031 
L 202.530882 112.471169 
L 215.918182 112.332692 
L 215.918182 111.936467 
L 218.426269 111.811798 
L 218.426269 111.579077 
L 219.058641 111.378566 
L 219.058641 111.112018 
L 222.593975 111.109091 
L 222.593975 111.202912 
L 232.799588 111.329363 
L 232.799588 111.619545 
L 235.772807 111.766896 
L 235.772807 111.793533 
L 239.133323 111.962508 
L 239.133323 113.062792 
L 246.780655 113.375744 
L 246.780655 114.466916 
L 247.625455 114.857928 
L 247.625455 116.857749 
L 259.734019 117.061471 
L 259.734019 117.343475 
L 259.734019 116.879336 
L 266.548923 116.712171 
L 266.548923 116.35166 
L 266.921371 116.167657 
L 266.921371 115.140435 
L 269.043998 114.991523 
L 269.043998 114.171559 
L 271.312364 114.026059 
L 271.312364 113.971982 
L 275.529132 113.895847 
L 275.529132 113.956421 
L 285.161102 114.076161 
L 285.161102 114.493612 
L 294.71962 114.630468 
L 294.71962 115.580791 
L 314.836364 115.73305 
L 314.836364 116.105983 
L 342.316525 116.189564 
L 342.316525 116.116588 
L 342.316525 115.757773 
L 343.614455 115.604739 
L 343.614455 115.477522 
L 343.614455 115.477522 
L 347.668357 115.477522 
L 347.668357 115.572527 
L 347.668357 115.675394 
L 353.921368 115.694867 
L 353.921368 115.629146 
L 353.921368 115.18754 
L 360.379035 115.064804 
L 360.379035 114.157409 
L 374.692931 113.932267 
L 374.692931 113.486732 
L 421.668 113.355543 
L 421.668 113.255773 
L 477.451507 113.180314 
L 477.451507 113.269679 
L 478.215523 113.411455 
L 478.215523 114.00714 
L 480.623263 114.148067 
L 480.623263 114.844895 
L 484.399494 114.964193 
L 484.399494 114.798369 
L 484.399494 114.743418 
L 488.376375 114.594762 
L 488.376375 114.497787 
L 497.457093 114.495703 
L 497.457093 114.606258 
L 529.53107 114.756361 
L 529.53107 115.091499 
L 612.909818 115.211431 
L 612.909818 115.699087 
L 616.277508 115.911928 
L 616.37076 118.689967 
L 616.907527 119.152944 
L 616.907527 122.373279 
L 618.603232 122.741512 
L 618.603232 123.851382 
L 621.275216 123.899738 
L 621.275216 123.831116 
L 621.275216 122.984352 
L 624.105412 122.834204 
L 624.105412 122.221088 
L 654.303283 122.048705 
L 654.303283 121.138664 
L 719.70558 120.946361 
L 719.70558 119.738699 
L 809.427273 119.543743 
L 809.427273 119.543743 
" style="fill:none;stroke:#cf0000;stroke-linecap:square;stroke-width:1.5;"/>
   </g>
   <g id="patch_3">
    <path d="M 117 630 
L 117 86.4 
" style="fill:none;stroke:#000000;stroke-linecap:square;stroke-linejoin:miter;stroke-width:0.8;"/>
   </g>
   <g id="patch_4">
    <path d="M 842.4 630 
L 842.4 86.4 
" style="fill:none;stroke:#000000;stroke-linecap:square;stroke-linejoin:miter;stroke-width:0.8;"/>
   </g>
   <g id="patch_5">
    <path d="M 117 630 
L 842.4 630 
" style="fill:none;stroke:#000000;stroke-linecap:square;stroke-linejoin:miter;stroke-width:0.8;"/>
   </g>
   <g id="patch_6">
    <path d="M 117 86.4 
L 842.4 86.4 
" style="fill:none;stroke:#000000;stroke-linecap:square;stroke-linejoin:miter;stroke-width:0.8;"/>
   </g>
   <g id="text_17">
    <!-- X,Y shift estimation error with regard to modality distance -->
    <defs>
     <path d="M 6.296875 72.90625 
L 16.890625 72.90625 
L 35.015625 45.796875 
L 53.21875 72.90625 
L 63.8125 72.90625 
L 40.375 37.890625 
L 65.375 0 
L 54.78125 0 
L 34.28125 31 
L 13.625 0 
L 2.984375 0 
L 29 38.921875 
z
" id="DejaVuSans-88"/>
     <path d="M 11.71875 12.40625 
L 22.015625 12.40625 
L 22.015625 4 
L 14.015625 -11.625 
L 7.71875 -11.625 
L 11.71875 4 
z
" id="DejaVuSans-44"/>
     <path d="M -0.203125 72.90625 
L 10.40625 72.90625 
L 30.609375 42.921875 
L 50.6875 72.90625 
L 61.28125 72.90625 
L 35.5 34.71875 
L 35.5 0 
L 25.59375 0 
L 25.59375 34.71875 
z
" id="DejaVuSans-89"/>
     <path d="M 4.203125 54.6875 
L 13.1875 54.6875 
L 24.421875 12.015625 
L 35.59375 54.6875 
L 46.1875 54.6875 
L 57.421875 12.015625 
L 68.609375 54.6875 
L 77.59375 54.6875 
L 63.28125 0 
L 52.6875 0 
L 40.921875 44.828125 
L 29.109375 0 
L 18.5 0 
z
" id="DejaVuSans-119"/>
    </defs>
    <g transform="translate(304.7625 80.4)scale(0.12 -0.12)">
     <use xlink:href="#DejaVuSans-88"/>
     <use x="68.505859" xlink:href="#DejaVuSans-44"/>
     <use x="100.292969" xlink:href="#DejaVuSans-89"/>
     <use x="161.376953" xlink:href="#DejaVuSans-32"/>
     <use x="193.164062" xlink:href="#DejaVuSans-115"/>
     <use x="245.263672" xlink:href="#DejaVuSans-104"/>
     <use x="308.642578" xlink:href="#DejaVuSans-105"/>
     <use x="336.425781" xlink:href="#DejaVuSans-102"/>
     <use x="371.615234" xlink:href="#DejaVuSans-116"/>
     <use x="410.824219" xlink:href="#DejaVuSans-32"/>
     <use x="442.611328" xlink:href="#DejaVuSans-101"/>
     <use x="504.134766" xlink:href="#DejaVuSans-115"/>
     <use x="556.234375" xlink:href="#DejaVuSans-116"/>
     <use x="595.443359" xlink:href="#DejaVuSans-105"/>
     <use x="623.226562" xlink:href="#DejaVuSans-109"/>
     <use x="720.638672" xlink:href="#DejaVuSans-97"/>
     <use x="781.917969" xlink:href="#DejaVuSans-116"/>
     <use x="821.126953" xlink:href="#DejaVuSans-105"/>
     <use x="848.910156" xlink:href="#DejaVuSans-111"/>
     <use x="910.091797" xlink:href="#DejaVuSans-110"/>
     <use x="973.470703" xlink:href="#DejaVuSans-32"/>
     <use x="1005.257812" xlink:href="#DejaVuSans-101"/>
     <use x="1066.78125" xlink:href="#DejaVuSans-114"/>
     <use x="1107.878906" xlink:href="#DejaVuSans-114"/>
     <use x="1148.960938" xlink:href="#DejaVuSans-111"/>
     <use x="1210.142578" xlink:href="#DejaVuSans-114"/>
     <use x="1251.255859" xlink:href="#DejaVuSans-32"/>
     <use x="1283.042969" xlink:href="#DejaVuSans-119"/>
     <use x="1364.830078" xlink:href="#DejaVuSans-105"/>
     <use x="1392.613281" xlink:href="#DejaVuSans-116"/>
     <use x="1431.822266" xlink:href="#DejaVuSans-104"/>
     <use x="1495.201172" xlink:href="#DejaVuSans-32"/>
     <use x="1526.988281" xlink:href="#DejaVuSans-114"/>
     <use x="1568.070312" xlink:href="#DejaVuSans-101"/>
     <use x="1629.59375" xlink:href="#DejaVuSans-103"/>
     <use x="1693.070312" xlink:href="#DejaVuSans-97"/>
     <use x="1754.349609" xlink:href="#DejaVuSans-114"/>
     <use x="1795.447266" xlink:href="#DejaVuSans-100"/>
     <use x="1858.923828" xlink:href="#DejaVuSans-32"/>
     <use x="1890.710938" xlink:href="#DejaVuSans-116"/>
     <use x="1929.919922" xlink:href="#DejaVuSans-111"/>
     <use x="1991.101562" xlink:href="#DejaVuSans-32"/>
     <use x="2022.888672" xlink:href="#DejaVuSans-109"/>
     <use x="2120.300781" xlink:href="#DejaVuSans-111"/>
     <use x="2181.482422" xlink:href="#DejaVuSans-100"/>
     <use x="2244.958984" xlink:href="#DejaVuSans-97"/>
     <use x="2306.238281" xlink:href="#DejaVuSans-108"/>
     <use x="2334.021484" xlink:href="#DejaVuSans-105"/>
     <use x="2361.804688" xlink:href="#DejaVuSans-116"/>
     <use x="2401.013672" xlink:href="#DejaVuSans-121"/>
     <use x="2460.193359" xlink:href="#DejaVuSans-32"/>
     <use x="2491.980469" xlink:href="#DejaVuSans-100"/>
     <use x="2555.457031" xlink:href="#DejaVuSans-105"/>
     <use x="2583.240234" xlink:href="#DejaVuSans-115"/>
     <use x="2635.339844" xlink:href="#DejaVuSans-116"/>
     <use x="2674.548828" xlink:href="#DejaVuSans-97"/>
     <use x="2735.828125" xlink:href="#DejaVuSans-110"/>
     <use x="2799.207031" xlink:href="#DejaVuSans-99"/>
     <use x="2854.1875" xlink:href="#DejaVuSans-101"/>
    </g>
   </g>
   <g id="legend_1">
    <g id="patch_7">
     <path d="M 781.134375 469.785937 
L 835.4 469.785937 
Q 837.4 469.785937 837.4 467.785937 
L 837.4 248.614062 
Q 837.4 246.614062 835.4 246.614062 
L 781.134375 246.614062 
Q 779.134375 246.614062 779.134375 248.614062 
L 779.134375 467.785937 
Q 779.134375 469.785937 781.134375 469.785937 
z
" style="fill:#ffffff;opacity:0.8;stroke:#cccccc;stroke-linejoin:miter;"/>
    </g>
    <g id="text_18">
     <!-- distance -->
     <g transform="translate(787.080469 258.2125)scale(0.1 -0.1)">
      <use xlink:href="#DejaVuSans-100"/>
      <use x="63.476562" xlink:href="#DejaVuSans-105"/>
      <use x="91.259766" xlink:href="#DejaVuSans-115"/>
      <use x="143.359375" xlink:href="#DejaVuSans-116"/>
      <use x="182.568359" xlink:href="#DejaVuSans-97"/>
      <use x="243.847656" xlink:href="#DejaVuSans-110"/>
      <use x="307.226562" xlink:href="#DejaVuSans-99"/>
      <use x="362.207031" xlink:href="#DejaVuSans-101"/>
     </g>
    </g>
    <g id="line2d_77">
     <path d="M 783.134375 269.390625 
L 803.134375 269.390625 
" style="fill:none;stroke:#000000;stroke-linecap:square;stroke-width:1.5;"/>
    </g>
    <g id="line2d_78"/>
    <g id="text_19">
     <!-- 0.0 -->
     <defs>
      <path d="M 10.6875 12.40625 
L 21 12.40625 
L 21 0 
L 10.6875 0 
z
" id="DejaVuSans-46"/>
     </defs>
     <g transform="translate(811.134375 272.890625)scale(0.1 -0.1)">
      <use xlink:href="#DejaVuSans-48"/>
      <use x="63.623047" xlink:href="#DejaVuSans-46"/>
      <use x="95.410156" xlink:href="#DejaVuSans-48"/>
     </g>
    </g>
    <g id="line2d_79">
     <path d="M 783.134375 284.06875 
L 803.134375 284.06875 
" style="fill:none;stroke:#100000;stroke-linecap:square;stroke-width:1.5;"/>
    </g>
    <g id="line2d_80"/>
    <g id="text_20">
     <!-- 1.0 -->
     <g transform="translate(811.134375 287.56875)scale(0.1 -0.1)">
      <use xlink:href="#DejaVuSans-49"/>
      <use x="63.623047" xlink:href="#DejaVuSans-46"/>
      <use x="95.410156" xlink:href="#DejaVuSans-48"/>
     </g>
    </g>
    <g id="line2d_81">
     <path d="M 783.134375 298.746875 
L 803.134375 298.746875 
" style="fill:none;stroke:#200000;stroke-linecap:square;stroke-width:1.5;"/>
    </g>
    <g id="line2d_82"/>
    <g id="text_21">
     <!-- 2.0 -->
     <g transform="translate(811.134375 302.246875)scale(0.1 -0.1)">
      <use xlink:href="#DejaVuSans-50"/>
      <use x="63.623047" xlink:href="#DejaVuSans-46"/>
      <use x="95.410156" xlink:href="#DejaVuSans-48"/>
     </g>
    </g>
    <g id="line2d_83">
     <path d="M 783.134375 313.425 
L 803.134375 313.425 
" style="fill:none;stroke:#300000;stroke-linecap:square;stroke-width:1.5;"/>
    </g>
    <g id="line2d_84"/>
    <g id="text_22">
     <!-- 3.0 -->
     <g transform="translate(811.134375 316.925)scale(0.1 -0.1)">
      <use xlink:href="#DejaVuSans-51"/>
      <use x="63.623047" xlink:href="#DejaVuSans-46"/>
      <use x="95.410156" xlink:href="#DejaVuSans-48"/>
     </g>
    </g>
    <g id="line2d_85">
     <path d="M 783.134375 328.103125 
L 803.134375 328.103125 
" style="fill:none;stroke:#400000;stroke-linecap:square;stroke-width:1.5;"/>
    </g>
    <g id="line2d_86"/>
    <g id="text_23">
     <!-- 4.0 -->
     <g transform="translate(811.134375 331.603125)scale(0.1 -0.1)">
      <use xlink:href="#DejaVuSans-52"/>
      <use x="63.623047" xlink:href="#DejaVuSans-46"/>
      <use x="95.410156" xlink:href="#DejaVuSans-48"/>
     </g>
    </g>
    <g id="line2d_87">
     <path d="M 783.134375 342.78125 
L 803.134375 342.78125 
" style="fill:none;stroke:#500000;stroke-linecap:square;stroke-width:1.5;"/>
    </g>
    <g id="line2d_88"/>
    <g id="text_24">
     <!-- 5.0 -->
     <g transform="translate(811.134375 346.28125)scale(0.1 -0.1)">
      <use xlink:href="#DejaVuSans-53"/>
      <use x="63.623047" xlink:href="#DejaVuSans-46"/>
      <use x="95.410156" xlink:href="#DejaVuSans-48"/>
     </g>
    </g>
    <g id="line2d_89">
     <path d="M 783.134375 357.459375 
L 803.134375 357.459375 
" style="fill:none;stroke:#600000;stroke-linecap:square;stroke-width:1.5;"/>
    </g>
    <g id="line2d_90"/>
    <g id="text_25">
     <!-- 6.0 -->
     <g transform="translate(811.134375 360.959375)scale(0.1 -0.1)">
      <use xlink:href="#DejaVuSans-54"/>
      <use x="63.623047" xlink:href="#DejaVuSans-46"/>
      <use x="95.410156" xlink:href="#DejaVuSans-48"/>
     </g>
    </g>
    <g id="line2d_91">
     <path d="M 783.134375 372.1375 
L 803.134375 372.1375 
" style="fill:none;stroke:#700000;stroke-linecap:square;stroke-width:1.5;"/>
    </g>
    <g id="line2d_92"/>
    <g id="text_26">
     <!-- 7.0 -->
     <g transform="translate(811.134375 375.6375)scale(0.1 -0.1)">
      <use xlink:href="#DejaVuSans-55"/>
      <use x="63.623047" xlink:href="#DejaVuSans-46"/>
      <use x="95.410156" xlink:href="#DejaVuSans-48"/>
     </g>
    </g>
    <g id="line2d_93">
     <path d="M 783.134375 386.815625 
L 803.134375 386.815625 
" style="fill:none;stroke:#800000;stroke-linecap:square;stroke-width:1.5;"/>
    </g>
    <g id="line2d_94"/>
    <g id="text_27">
     <!-- 8.0 -->
     <defs>
      <path d="M 31.78125 34.625 
Q 24.75 34.625 20.71875 30.859375 
Q 16.703125 27.09375 16.703125 20.515625 
Q 16.703125 13.921875 20.71875 10.15625 
Q 24.75 6.390625 31.78125 6.390625 
Q 38.8125 6.390625 42.859375 10.171875 
Q 46.921875 13.96875 46.921875 20.515625 
Q 46.921875 27.09375 42.890625 30.859375 
Q 38.875 34.625 31.78125 34.625 
z
M 21.921875 38.8125 
Q 15.578125 40.375 12.03125 44.71875 
Q 8.5 49.078125 8.5 55.328125 
Q 8.5 64.0625 14.71875 69.140625 
Q 20.953125 74.21875 31.78125 74.21875 
Q 42.671875 74.21875 48.875 69.140625 
Q 55.078125 64.0625 55.078125 55.328125 
Q 55.078125 49.078125 51.53125 44.71875 
Q 48 40.375 41.703125 38.8125 
Q 48.828125 37.15625 52.796875 32.3125 
Q 56.78125 27.484375 56.78125 20.515625 
Q 56.78125 9.90625 50.3125 4.234375 
Q 43.84375 -1.421875 31.78125 -1.421875 
Q 19.734375 -1.421875 13.25 4.234375 
Q 6.78125 9.90625 6.78125 20.515625 
Q 6.78125 27.484375 10.78125 32.3125 
Q 14.796875 37.15625 21.921875 38.8125 
z
M 18.3125 54.390625 
Q 18.3125 48.734375 21.84375 45.5625 
Q 25.390625 42.390625 31.78125 42.390625 
Q 38.140625 42.390625 41.71875 45.5625 
Q 45.3125 48.734375 45.3125 54.390625 
Q 45.3125 60.0625 41.71875 63.234375 
Q 38.140625 66.40625 31.78125 66.40625 
Q 25.390625 66.40625 21.84375 63.234375 
Q 18.3125 60.0625 18.3125 54.390625 
z
" id="DejaVuSans-56"/>
     </defs>
     <g transform="translate(811.134375 390.315625)scale(0.1 -0.1)">
      <use xlink:href="#DejaVuSans-56"/>
      <use x="63.623047" xlink:href="#DejaVuSans-46"/>
      <use x="95.410156" xlink:href="#DejaVuSans-48"/>
     </g>
    </g>
    <g id="line2d_95">
     <path d="M 783.134375 401.49375 
L 803.134375 401.49375 
" style="fill:none;stroke:#8f0000;stroke-linecap:square;stroke-width:1.5;"/>
    </g>
    <g id="line2d_96"/>
    <g id="text_28">
     <!-- 9.0 -->
     <defs>
      <path d="M 10.984375 1.515625 
L 10.984375 10.5 
Q 14.703125 8.734375 18.5 7.8125 
Q 22.3125 6.890625 25.984375 6.890625 
Q 35.75 6.890625 40.890625 13.453125 
Q 46.046875 20.015625 46.78125 33.40625 
Q 43.953125 29.203125 39.59375 26.953125 
Q 35.25 24.703125 29.984375 24.703125 
Q 19.046875 24.703125 12.671875 31.3125 
Q 6.296875 37.9375 6.296875 49.421875 
Q 6.296875 60.640625 12.9375 67.421875 
Q 19.578125 74.21875 30.609375 74.21875 
Q 43.265625 74.21875 49.921875 64.515625 
Q 56.59375 54.828125 56.59375 36.375 
Q 56.59375 19.140625 48.40625 8.859375 
Q 40.234375 -1.421875 26.421875 -1.421875 
Q 22.703125 -1.421875 18.890625 -0.6875 
Q 15.09375 0.046875 10.984375 1.515625 
z
M 30.609375 32.421875 
Q 37.25 32.421875 41.125 36.953125 
Q 45.015625 41.5 45.015625 49.421875 
Q 45.015625 57.28125 41.125 61.84375 
Q 37.25 66.40625 30.609375 66.40625 
Q 23.96875 66.40625 20.09375 61.84375 
Q 16.21875 57.28125 16.21875 49.421875 
Q 16.21875 41.5 20.09375 36.953125 
Q 23.96875 32.421875 30.609375 32.421875 
z
" id="DejaVuSans-57"/>
     </defs>
     <g transform="translate(811.134375 404.99375)scale(0.1 -0.1)">
      <use xlink:href="#DejaVuSans-57"/>
      <use x="63.623047" xlink:href="#DejaVuSans-46"/>
      <use x="95.410156" xlink:href="#DejaVuSans-48"/>
     </g>
    </g>
    <g id="line2d_97">
     <path d="M 783.134375 416.171875 
L 803.134375 416.171875 
" style="fill:none;stroke:#9f0000;stroke-linecap:square;stroke-width:1.5;"/>
    </g>
    <g id="line2d_98"/>
    <g id="text_29">
     <!-- 10.0 -->
     <g transform="translate(811.134375 419.671875)scale(0.1 -0.1)">
      <use xlink:href="#DejaVuSans-49"/>
      <use x="63.623047" xlink:href="#DejaVuSans-48"/>
      <use x="127.246094" xlink:href="#DejaVuSans-46"/>
      <use x="159.033203" xlink:href="#DejaVuSans-48"/>
     </g>
    </g>
    <g id="line2d_99">
     <path d="M 783.134375 430.85 
L 803.134375 430.85 
" style="fill:none;stroke:#af0000;stroke-linecap:square;stroke-width:1.5;"/>
    </g>
    <g id="line2d_100"/>
    <g id="text_30">
     <!-- 11.0 -->
     <g transform="translate(811.134375 434.35)scale(0.1 -0.1)">
      <use xlink:href="#DejaVuSans-49"/>
      <use x="63.623047" xlink:href="#DejaVuSans-49"/>
      <use x="127.246094" xlink:href="#DejaVuSans-46"/>
      <use x="159.033203" xlink:href="#DejaVuSans-48"/>
     </g>
    </g>
    <g id="line2d_101">
     <path d="M 783.134375 445.528125 
L 803.134375 445.528125 
" style="fill:none;stroke:#bf0000;stroke-linecap:square;stroke-width:1.5;"/>
    </g>
    <g id="line2d_102"/>
    <g id="text_31">
     <!-- 12.0 -->
     <g transform="translate(811.134375 449.028125)scale(0.1 -0.1)">
      <use xlink:href="#DejaVuSans-49"/>
      <use x="63.623047" xlink:href="#DejaVuSans-50"/>
      <use x="127.246094" xlink:href="#DejaVuSans-46"/>
      <use x="159.033203" xlink:href="#DejaVuSans-48"/>
     </g>
    </g>
    <g id="line2d_103">
     <path d="M 783.134375 460.20625 
L 803.134375 460.20625 
" style="fill:none;stroke:#cf0000;stroke-linecap:square;stroke-width:1.5;"/>
    </g>
    <g id="line2d_104"/>
    <g id="text_32">
     <!-- 13.0 -->
     <g transform="translate(811.134375 463.70625)scale(0.1 -0.1)">
      <use xlink:href="#DejaVuSans-49"/>
      <use x="63.623047" xlink:href="#DejaVuSans-51"/>
      <use x="127.246094" xlink:href="#DejaVuSans-46"/>
      <use x="159.033203" xlink:href="#DejaVuSans-48"/>
     </g>
    </g>
   </g>
  </g>
 </g>
 <defs>
  <clipPath id="p6136ec976d">
   <rect height="543.6" width="725.4" x="117" y="86.4"/>
  </clipPath>
 </defs>
</svg>
