<?xml version="1.0" encoding="utf-8" standalone="no"?>
<!DOCTYPE svg PUBLIC "-//W3C//DTD SVG 1.1//EN"
  "http://www.w3.org/Graphics/SVG/1.1/DTD/svg11.dtd">
<!-- Created with matplotlib (https://matplotlib.org/) -->
<svg height="720pt" version="1.1" viewBox="0 0 936 720" width="936pt" xmlns="http://www.w3.org/2000/svg" xmlns:xlink="http://www.w3.org/1999/xlink">
 <defs>
  <style type="text/css">
*{stroke-linecap:butt;stroke-linejoin:round;}
  </style>
 </defs>
 <g id="figure_1">
  <g id="patch_1">
   <path d="M 0 720 
L 936 720 
L 936 0 
L 0 0 
z
" style="fill:#ffffff;"/>
  </g>
  <g id="axes_1">
   <g id="patch_2">
    <path d="M 117 630 
L 842.4 630 
L 842.4 86.4 
L 117 86.4 
z
" style="fill:#ffffff;"/>
   </g>
   <g id="matplotlib.axis_1">
    <g id="xtick_1">
     <g id="line2d_1">
      <defs>
       <path d="M 0 0 
L 0 3.5 
" id="me52daa76b0" style="stroke:#000000;stroke-width:0.8;"/>
      </defs>
      <g>
       <use style="stroke:#000000;stroke-width:0.8;" x="149.972727" xlink:href="#me52daa76b0" y="630"/>
      </g>
     </g>
     <g id="text_1">
      <!-- 0 -->
      <defs>
       <path d="M 31.78125 66.40625 
Q 24.171875 66.40625 20.328125 58.90625 
Q 16.5 51.421875 16.5 36.375 
Q 16.5 21.390625 20.328125 13.890625 
Q 24.171875 6.390625 31.78125 6.390625 
Q 39.453125 6.390625 43.28125 13.890625 
Q 47.125 21.390625 47.125 36.375 
Q 47.125 51.421875 43.28125 58.90625 
Q 39.453125 66.40625 31.78125 66.40625 
z
M 31.78125 74.21875 
Q 44.046875 74.21875 50.515625 64.515625 
Q 56.984375 54.828125 56.984375 36.375 
Q 56.984375 17.96875 50.515625 8.265625 
Q 44.046875 -1.421875 31.78125 -1.421875 
Q 19.53125 -1.421875 13.0625 8.265625 
Q 6.59375 17.96875 6.59375 36.375 
Q 6.59375 54.828125 13.0625 64.515625 
Q 19.53125 74.21875 31.78125 74.21875 
z
" id="DejaVuSans-48"/>
      </defs>
      <g transform="translate(146.791477 644.598438)scale(0.1 -0.1)">
       <use xlink:href="#DejaVuSans-48"/>
      </g>
     </g>
    </g>
    <g id="xtick_2">
     <g id="line2d_2">
      <g>
       <use style="stroke:#000000;stroke-width:0.8;" x="243.233683" xlink:href="#me52daa76b0" y="630"/>
      </g>
     </g>
     <g id="text_2">
      <!-- 10 -->
      <defs>
       <path d="M 12.40625 8.296875 
L 28.515625 8.296875 
L 28.515625 63.921875 
L 10.984375 60.40625 
L 10.984375 69.390625 
L 28.421875 72.90625 
L 38.28125 72.90625 
L 38.28125 8.296875 
L 54.390625 8.296875 
L 54.390625 0 
L 12.40625 0 
z
" id="DejaVuSans-49"/>
      </defs>
      <g transform="translate(236.871183 644.598438)scale(0.1 -0.1)">
       <use xlink:href="#DejaVuSans-49"/>
       <use x="63.623047" xlink:href="#DejaVuSans-48"/>
      </g>
     </g>
    </g>
    <g id="xtick_3">
     <g id="line2d_3">
      <g>
       <use style="stroke:#000000;stroke-width:0.8;" x="336.49464" xlink:href="#me52daa76b0" y="630"/>
      </g>
     </g>
     <g id="text_3">
      <!-- 20 -->
      <defs>
       <path d="M 19.1875 8.296875 
L 53.609375 8.296875 
L 53.609375 0 
L 7.328125 0 
L 7.328125 8.296875 
Q 12.9375 14.109375 22.625 23.890625 
Q 32.328125 33.6875 34.8125 36.53125 
Q 39.546875 41.84375 41.421875 45.53125 
Q 43.3125 49.21875 43.3125 52.78125 
Q 43.3125 58.59375 39.234375 62.25 
Q 35.15625 65.921875 28.609375 65.921875 
Q 23.96875 65.921875 18.8125 64.3125 
Q 13.671875 62.703125 7.8125 59.421875 
L 7.8125 69.390625 
Q 13.765625 71.78125 18.9375 73 
Q 24.125 74.21875 28.421875 74.21875 
Q 39.75 74.21875 46.484375 68.546875 
Q 53.21875 62.890625 53.21875 53.421875 
Q 53.21875 48.921875 51.53125 44.890625 
Q 49.859375 40.875 45.40625 35.40625 
Q 44.1875 33.984375 37.640625 27.21875 
Q 31.109375 20.453125 19.1875 8.296875 
z
" id="DejaVuSans-50"/>
      </defs>
      <g transform="translate(330.13214 644.598438)scale(0.1 -0.1)">
       <use xlink:href="#DejaVuSans-50"/>
       <use x="63.623047" xlink:href="#DejaVuSans-48"/>
      </g>
     </g>
    </g>
    <g id="xtick_4">
     <g id="line2d_4">
      <g>
       <use style="stroke:#000000;stroke-width:0.8;" x="429.755596" xlink:href="#me52daa76b0" y="630"/>
      </g>
     </g>
     <g id="text_4">
      <!-- 30 -->
      <defs>
       <path d="M 40.578125 39.3125 
Q 47.65625 37.796875 51.625 33 
Q 55.609375 28.21875 55.609375 21.1875 
Q 55.609375 10.40625 48.1875 4.484375 
Q 40.765625 -1.421875 27.09375 -1.421875 
Q 22.515625 -1.421875 17.65625 -0.515625 
Q 12.796875 0.390625 7.625 2.203125 
L 7.625 11.71875 
Q 11.71875 9.328125 16.59375 8.109375 
Q 21.484375 6.890625 26.8125 6.890625 
Q 36.078125 6.890625 40.9375 10.546875 
Q 45.796875 14.203125 45.796875 21.1875 
Q 45.796875 27.640625 41.28125 31.265625 
Q 36.765625 34.90625 28.71875 34.90625 
L 20.21875 34.90625 
L 20.21875 43.015625 
L 29.109375 43.015625 
Q 36.375 43.015625 40.234375 45.921875 
Q 44.09375 48.828125 44.09375 54.296875 
Q 44.09375 59.90625 40.109375 62.90625 
Q 36.140625 65.921875 28.71875 65.921875 
Q 24.65625 65.921875 20.015625 65.03125 
Q 15.375 64.15625 9.8125 62.3125 
L 9.8125 71.09375 
Q 15.4375 72.65625 20.34375 73.4375 
Q 25.25 74.21875 29.59375 74.21875 
Q 40.828125 74.21875 47.359375 69.109375 
Q 53.90625 64.015625 53.90625 55.328125 
Q 53.90625 49.265625 50.4375 45.09375 
Q 46.96875 40.921875 40.578125 39.3125 
z
" id="DejaVuSans-51"/>
      </defs>
      <g transform="translate(423.393096 644.598438)scale(0.1 -0.1)">
       <use xlink:href="#DejaVuSans-51"/>
       <use x="63.623047" xlink:href="#DejaVuSans-48"/>
      </g>
     </g>
    </g>
    <g id="xtick_5">
     <g id="line2d_5">
      <g>
       <use style="stroke:#000000;stroke-width:0.8;" x="523.016552" xlink:href="#me52daa76b0" y="630"/>
      </g>
     </g>
     <g id="text_5">
      <!-- 40 -->
      <defs>
       <path d="M 37.796875 64.3125 
L 12.890625 25.390625 
L 37.796875 25.390625 
z
M 35.203125 72.90625 
L 47.609375 72.90625 
L 47.609375 25.390625 
L 58.015625 25.390625 
L 58.015625 17.1875 
L 47.609375 17.1875 
L 47.609375 0 
L 37.796875 0 
L 37.796875 17.1875 
L 4.890625 17.1875 
L 4.890625 26.703125 
z
" id="DejaVuSans-52"/>
      </defs>
      <g transform="translate(516.654052 644.598438)scale(0.1 -0.1)">
       <use xlink:href="#DejaVuSans-52"/>
       <use x="63.623047" xlink:href="#DejaVuSans-48"/>
      </g>
     </g>
    </g>
    <g id="xtick_6">
     <g id="line2d_6">
      <g>
       <use style="stroke:#000000;stroke-width:0.8;" x="616.277508" xlink:href="#me52daa76b0" y="630"/>
      </g>
     </g>
     <g id="text_6">
      <!-- 50 -->
      <defs>
       <path d="M 10.796875 72.90625 
L 49.515625 72.90625 
L 49.515625 64.59375 
L 19.828125 64.59375 
L 19.828125 46.734375 
Q 21.96875 47.46875 24.109375 47.828125 
Q 26.265625 48.1875 28.421875 48.1875 
Q 40.625 48.1875 47.75 41.5 
Q 54.890625 34.8125 54.890625 23.390625 
Q 54.890625 11.625 47.5625 5.09375 
Q 40.234375 -1.421875 26.90625 -1.421875 
Q 22.3125 -1.421875 17.546875 -0.640625 
Q 12.796875 0.140625 7.71875 1.703125 
L 7.71875 11.625 
Q 12.109375 9.234375 16.796875 8.0625 
Q 21.484375 6.890625 26.703125 6.890625 
Q 35.15625 6.890625 40.078125 11.328125 
Q 45.015625 15.765625 45.015625 23.390625 
Q 45.015625 31 40.078125 35.4375 
Q 35.15625 39.890625 26.703125 39.890625 
Q 22.75 39.890625 18.8125 39.015625 
Q 14.890625 38.140625 10.796875 36.28125 
z
" id="DejaVuSans-53"/>
      </defs>
      <g transform="translate(609.915008 644.598438)scale(0.1 -0.1)">
       <use xlink:href="#DejaVuSans-53"/>
       <use x="63.623047" xlink:href="#DejaVuSans-48"/>
      </g>
     </g>
    </g>
    <g id="xtick_7">
     <g id="line2d_7">
      <g>
       <use style="stroke:#000000;stroke-width:0.8;" x="709.538464" xlink:href="#me52daa76b0" y="630"/>
      </g>
     </g>
     <g id="text_7">
      <!-- 60 -->
      <defs>
       <path d="M 33.015625 40.375 
Q 26.375 40.375 22.484375 35.828125 
Q 18.609375 31.296875 18.609375 23.390625 
Q 18.609375 15.53125 22.484375 10.953125 
Q 26.375 6.390625 33.015625 6.390625 
Q 39.65625 6.390625 43.53125 10.953125 
Q 47.40625 15.53125 47.40625 23.390625 
Q 47.40625 31.296875 43.53125 35.828125 
Q 39.65625 40.375 33.015625 40.375 
z
M 52.59375 71.296875 
L 52.59375 62.3125 
Q 48.875 64.0625 45.09375 64.984375 
Q 41.3125 65.921875 37.59375 65.921875 
Q 27.828125 65.921875 22.671875 59.328125 
Q 17.53125 52.734375 16.796875 39.40625 
Q 19.671875 43.65625 24.015625 45.921875 
Q 28.375 48.1875 33.59375 48.1875 
Q 44.578125 48.1875 50.953125 41.515625 
Q 57.328125 34.859375 57.328125 23.390625 
Q 57.328125 12.15625 50.6875 5.359375 
Q 44.046875 -1.421875 33.015625 -1.421875 
Q 20.359375 -1.421875 13.671875 8.265625 
Q 6.984375 17.96875 6.984375 36.375 
Q 6.984375 53.65625 15.1875 63.9375 
Q 23.390625 74.21875 37.203125 74.21875 
Q 40.921875 74.21875 44.703125 73.484375 
Q 48.484375 72.75 52.59375 71.296875 
z
" id="DejaVuSans-54"/>
      </defs>
      <g transform="translate(703.175964 644.598438)scale(0.1 -0.1)">
       <use xlink:href="#DejaVuSans-54"/>
       <use x="63.623047" xlink:href="#DejaVuSans-48"/>
      </g>
     </g>
    </g>
    <g id="xtick_8">
     <g id="line2d_8">
      <g>
       <use style="stroke:#000000;stroke-width:0.8;" x="802.799421" xlink:href="#me52daa76b0" y="630"/>
      </g>
     </g>
     <g id="text_8">
      <!-- 70 -->
      <defs>
       <path d="M 8.203125 72.90625 
L 55.078125 72.90625 
L 55.078125 68.703125 
L 28.609375 0 
L 18.3125 0 
L 43.21875 64.59375 
L 8.203125 64.59375 
z
" id="DejaVuSans-55"/>
      </defs>
      <g transform="translate(796.436921 644.598438)scale(0.1 -0.1)">
       <use xlink:href="#DejaVuSans-55"/>
       <use x="63.623047" xlink:href="#DejaVuSans-48"/>
      </g>
     </g>
    </g>
    <g id="text_9">
     <!-- norm distance -&gt; sqrt(x^2 + y^2) -->
     <defs>
      <path d="M 54.890625 33.015625 
L 54.890625 0 
L 45.90625 0 
L 45.90625 32.71875 
Q 45.90625 40.484375 42.875 44.328125 
Q 39.84375 48.1875 33.796875 48.1875 
Q 26.515625 48.1875 22.3125 43.546875 
Q 18.109375 38.921875 18.109375 30.90625 
L 18.109375 0 
L 9.078125 0 
L 9.078125 54.6875 
L 18.109375 54.6875 
L 18.109375 46.1875 
Q 21.34375 51.125 25.703125 53.5625 
Q 30.078125 56 35.796875 56 
Q 45.21875 56 50.046875 50.171875 
Q 54.890625 44.34375 54.890625 33.015625 
z
" id="DejaVuSans-110"/>
      <path d="M 30.609375 48.390625 
Q 23.390625 48.390625 19.1875 42.75 
Q 14.984375 37.109375 14.984375 27.296875 
Q 14.984375 17.484375 19.15625 11.84375 
Q 23.34375 6.203125 30.609375 6.203125 
Q 37.796875 6.203125 41.984375 11.859375 
Q 46.1875 17.53125 46.1875 27.296875 
Q 46.1875 37.015625 41.984375 42.703125 
Q 37.796875 48.390625 30.609375 48.390625 
z
M 30.609375 56 
Q 42.328125 56 49.015625 48.375 
Q 55.71875 40.765625 55.71875 27.296875 
Q 55.71875 13.875 49.015625 6.21875 
Q 42.328125 -1.421875 30.609375 -1.421875 
Q 18.84375 -1.421875 12.171875 6.21875 
Q 5.515625 13.875 5.515625 27.296875 
Q 5.515625 40.765625 12.171875 48.375 
Q 18.84375 56 30.609375 56 
z
" id="DejaVuSans-111"/>
      <path d="M 41.109375 46.296875 
Q 39.59375 47.171875 37.8125 47.578125 
Q 36.03125 48 33.890625 48 
Q 26.265625 48 22.1875 43.046875 
Q 18.109375 38.09375 18.109375 28.8125 
L 18.109375 0 
L 9.078125 0 
L 9.078125 54.6875 
L 18.109375 54.6875 
L 18.109375 46.1875 
Q 20.953125 51.171875 25.484375 53.578125 
Q 30.03125 56 36.53125 56 
Q 37.453125 56 38.578125 55.875 
Q 39.703125 55.765625 41.0625 55.515625 
z
" id="DejaVuSans-114"/>
      <path d="M 52 44.1875 
Q 55.375 50.25 60.0625 53.125 
Q 64.75 56 71.09375 56 
Q 79.640625 56 84.28125 50.015625 
Q 88.921875 44.046875 88.921875 33.015625 
L 88.921875 0 
L 79.890625 0 
L 79.890625 32.71875 
Q 79.890625 40.578125 77.09375 44.375 
Q 74.3125 48.1875 68.609375 48.1875 
Q 61.625 48.1875 57.5625 43.546875 
Q 53.515625 38.921875 53.515625 30.90625 
L 53.515625 0 
L 44.484375 0 
L 44.484375 32.71875 
Q 44.484375 40.625 41.703125 44.40625 
Q 38.921875 48.1875 33.109375 48.1875 
Q 26.21875 48.1875 22.15625 43.53125 
Q 18.109375 38.875 18.109375 30.90625 
L 18.109375 0 
L 9.078125 0 
L 9.078125 54.6875 
L 18.109375 54.6875 
L 18.109375 46.1875 
Q 21.1875 51.21875 25.484375 53.609375 
Q 29.78125 56 35.6875 56 
Q 41.65625 56 45.828125 52.96875 
Q 50 49.953125 52 44.1875 
z
" id="DejaVuSans-109"/>
      <path id="DejaVuSans-32"/>
      <path d="M 45.40625 46.390625 
L 45.40625 75.984375 
L 54.390625 75.984375 
L 54.390625 0 
L 45.40625 0 
L 45.40625 8.203125 
Q 42.578125 3.328125 38.25 0.953125 
Q 33.9375 -1.421875 27.875 -1.421875 
Q 17.96875 -1.421875 11.734375 6.484375 
Q 5.515625 14.40625 5.515625 27.296875 
Q 5.515625 40.1875 11.734375 48.09375 
Q 17.96875 56 27.875 56 
Q 33.9375 56 38.25 53.625 
Q 42.578125 51.265625 45.40625 46.390625 
z
M 14.796875 27.296875 
Q 14.796875 17.390625 18.875 11.75 
Q 22.953125 6.109375 30.078125 6.109375 
Q 37.203125 6.109375 41.296875 11.75 
Q 45.40625 17.390625 45.40625 27.296875 
Q 45.40625 37.203125 41.296875 42.84375 
Q 37.203125 48.484375 30.078125 48.484375 
Q 22.953125 48.484375 18.875 42.84375 
Q 14.796875 37.203125 14.796875 27.296875 
z
" id="DejaVuSans-100"/>
      <path d="M 9.421875 54.6875 
L 18.40625 54.6875 
L 18.40625 0 
L 9.421875 0 
z
M 9.421875 75.984375 
L 18.40625 75.984375 
L 18.40625 64.59375 
L 9.421875 64.59375 
z
" id="DejaVuSans-105"/>
      <path d="M 44.28125 53.078125 
L 44.28125 44.578125 
Q 40.484375 46.53125 36.375 47.5 
Q 32.28125 48.484375 27.875 48.484375 
Q 21.1875 48.484375 17.84375 46.4375 
Q 14.5 44.390625 14.5 40.28125 
Q 14.5 37.15625 16.890625 35.375 
Q 19.28125 33.59375 26.515625 31.984375 
L 29.59375 31.296875 
Q 39.15625 29.25 43.1875 25.515625 
Q 47.21875 21.78125 47.21875 15.09375 
Q 47.21875 7.46875 41.1875 3.015625 
Q 35.15625 -1.421875 24.609375 -1.421875 
Q 20.21875 -1.421875 15.453125 -0.5625 
Q 10.6875 0.296875 5.421875 2 
L 5.421875 11.28125 
Q 10.40625 8.6875 15.234375 7.390625 
Q 20.0625 6.109375 24.8125 6.109375 
Q 31.15625 6.109375 34.5625 8.28125 
Q 37.984375 10.453125 37.984375 14.40625 
Q 37.984375 18.0625 35.515625 20.015625 
Q 33.0625 21.96875 24.703125 23.78125 
L 21.578125 24.515625 
Q 13.234375 26.265625 9.515625 29.90625 
Q 5.8125 33.546875 5.8125 39.890625 
Q 5.8125 47.609375 11.28125 51.796875 
Q 16.75 56 26.8125 56 
Q 31.78125 56 36.171875 55.265625 
Q 40.578125 54.546875 44.28125 53.078125 
z
" id="DejaVuSans-115"/>
      <path d="M 18.3125 70.21875 
L 18.3125 54.6875 
L 36.8125 54.6875 
L 36.8125 47.703125 
L 18.3125 47.703125 
L 18.3125 18.015625 
Q 18.3125 11.328125 20.140625 9.421875 
Q 21.96875 7.515625 27.59375 7.515625 
L 36.8125 7.515625 
L 36.8125 0 
L 27.59375 0 
Q 17.1875 0 13.234375 3.875 
Q 9.28125 7.765625 9.28125 18.015625 
L 9.28125 47.703125 
L 2.6875 47.703125 
L 2.6875 54.6875 
L 9.28125 54.6875 
L 9.28125 70.21875 
z
" id="DejaVuSans-116"/>
      <path d="M 34.28125 27.484375 
Q 23.390625 27.484375 19.1875 25 
Q 14.984375 22.515625 14.984375 16.5 
Q 14.984375 11.71875 18.140625 8.90625 
Q 21.296875 6.109375 26.703125 6.109375 
Q 34.1875 6.109375 38.703125 11.40625 
Q 43.21875 16.703125 43.21875 25.484375 
L 43.21875 27.484375 
z
M 52.203125 31.203125 
L 52.203125 0 
L 43.21875 0 
L 43.21875 8.296875 
Q 40.140625 3.328125 35.546875 0.953125 
Q 30.953125 -1.421875 24.3125 -1.421875 
Q 15.921875 -1.421875 10.953125 3.296875 
Q 6 8.015625 6 15.921875 
Q 6 25.140625 12.171875 29.828125 
Q 18.359375 34.515625 30.609375 34.515625 
L 43.21875 34.515625 
L 43.21875 35.40625 
Q 43.21875 41.609375 39.140625 45 
Q 35.0625 48.390625 27.6875 48.390625 
Q 23 48.390625 18.546875 47.265625 
Q 14.109375 46.140625 10.015625 43.890625 
L 10.015625 52.203125 
Q 14.9375 54.109375 19.578125 55.046875 
Q 24.21875 56 28.609375 56 
Q 40.484375 56 46.34375 49.84375 
Q 52.203125 43.703125 52.203125 31.203125 
z
" id="DejaVuSans-97"/>
      <path d="M 48.78125 52.59375 
L 48.78125 44.1875 
Q 44.96875 46.296875 41.140625 47.34375 
Q 37.3125 48.390625 33.40625 48.390625 
Q 24.65625 48.390625 19.8125 42.84375 
Q 14.984375 37.3125 14.984375 27.296875 
Q 14.984375 17.28125 19.8125 11.734375 
Q 24.65625 6.203125 33.40625 6.203125 
Q 37.3125 6.203125 41.140625 7.25 
Q 44.96875 8.296875 48.78125 10.40625 
L 48.78125 2.09375 
Q 45.015625 0.34375 40.984375 -0.53125 
Q 36.96875 -1.421875 32.421875 -1.421875 
Q 20.0625 -1.421875 12.78125 6.34375 
Q 5.515625 14.109375 5.515625 27.296875 
Q 5.515625 40.671875 12.859375 48.328125 
Q 20.21875 56 33.015625 56 
Q 37.15625 56 41.109375 55.140625 
Q 45.0625 54.296875 48.78125 52.59375 
z
" id="DejaVuSans-99"/>
      <path d="M 56.203125 29.59375 
L 56.203125 25.203125 
L 14.890625 25.203125 
Q 15.484375 15.921875 20.484375 11.0625 
Q 25.484375 6.203125 34.421875 6.203125 
Q 39.59375 6.203125 44.453125 7.46875 
Q 49.3125 8.734375 54.109375 11.28125 
L 54.109375 2.78125 
Q 49.265625 0.734375 44.1875 -0.34375 
Q 39.109375 -1.421875 33.890625 -1.421875 
Q 20.796875 -1.421875 13.15625 6.1875 
Q 5.515625 13.8125 5.515625 26.8125 
Q 5.515625 40.234375 12.765625 48.109375 
Q 20.015625 56 32.328125 56 
Q 43.359375 56 49.78125 48.890625 
Q 56.203125 41.796875 56.203125 29.59375 
z
M 47.21875 32.234375 
Q 47.125 39.59375 43.09375 43.984375 
Q 39.0625 48.390625 32.421875 48.390625 
Q 24.90625 48.390625 20.390625 44.140625 
Q 15.875 39.890625 15.1875 32.171875 
z
" id="DejaVuSans-101"/>
      <path d="M 4.890625 31.390625 
L 31.203125 31.390625 
L 31.203125 23.390625 
L 4.890625 23.390625 
z
" id="DejaVuSans-45"/>
      <path d="M 10.59375 49.21875 
L 10.59375 58.109375 
L 73.1875 35.40625 
L 73.1875 27.296875 
L 10.59375 4.59375 
L 10.59375 13.484375 
L 60.890625 31.296875 
z
" id="DejaVuSans-62"/>
      <path d="M 14.796875 27.296875 
Q 14.796875 17.390625 18.875 11.75 
Q 22.953125 6.109375 30.078125 6.109375 
Q 37.203125 6.109375 41.296875 11.75 
Q 45.40625 17.390625 45.40625 27.296875 
Q 45.40625 37.203125 41.296875 42.84375 
Q 37.203125 48.484375 30.078125 48.484375 
Q 22.953125 48.484375 18.875 42.84375 
Q 14.796875 37.203125 14.796875 27.296875 
z
M 45.40625 8.203125 
Q 42.578125 3.328125 38.25 0.953125 
Q 33.9375 -1.421875 27.875 -1.421875 
Q 17.96875 -1.421875 11.734375 6.484375 
Q 5.515625 14.40625 5.515625 27.296875 
Q 5.515625 40.1875 11.734375 48.09375 
Q 17.96875 56 27.875 56 
Q 33.9375 56 38.25 53.625 
Q 42.578125 51.265625 45.40625 46.390625 
L 45.40625 54.6875 
L 54.390625 54.6875 
L 54.390625 -20.796875 
L 45.40625 -20.796875 
z
" id="DejaVuSans-113"/>
      <path d="M 31 75.875 
Q 24.46875 64.65625 21.28125 53.65625 
Q 18.109375 42.671875 18.109375 31.390625 
Q 18.109375 20.125 21.3125 9.0625 
Q 24.515625 -2 31 -13.1875 
L 23.1875 -13.1875 
Q 15.875 -1.703125 12.234375 9.375 
Q 8.59375 20.453125 8.59375 31.390625 
Q 8.59375 42.28125 12.203125 53.3125 
Q 15.828125 64.359375 23.1875 75.875 
z
" id="DejaVuSans-40"/>
      <path d="M 54.890625 54.6875 
L 35.109375 28.078125 
L 55.90625 0 
L 45.3125 0 
L 29.390625 21.484375 
L 13.484375 0 
L 2.875 0 
L 24.125 28.609375 
L 4.6875 54.6875 
L 15.28125 54.6875 
L 29.78125 35.203125 
L 44.28125 54.6875 
z
" id="DejaVuSans-120"/>
      <path d="M 46.6875 72.90625 
L 73.1875 45.703125 
L 63.375 45.703125 
L 41.890625 64.984375 
L 20.40625 45.703125 
L 10.59375 45.703125 
L 37.109375 72.90625 
z
" id="DejaVuSans-94"/>
      <path d="M 46 62.703125 
L 46 35.5 
L 73.1875 35.5 
L 73.1875 27.203125 
L 46 27.203125 
L 46 0 
L 37.796875 0 
L 37.796875 27.203125 
L 10.59375 27.203125 
L 10.59375 35.5 
L 37.796875 35.5 
L 37.796875 62.703125 
z
" id="DejaVuSans-43"/>
      <path d="M 32.171875 -5.078125 
Q 28.375 -14.84375 24.75 -17.8125 
Q 21.140625 -20.796875 15.09375 -20.796875 
L 7.90625 -20.796875 
L 7.90625 -13.28125 
L 13.1875 -13.28125 
Q 16.890625 -13.28125 18.9375 -11.515625 
Q 21 -9.765625 23.484375 -3.21875 
L 25.09375 0.875 
L 2.984375 54.6875 
L 12.5 54.6875 
L 29.59375 11.921875 
L 46.6875 54.6875 
L 56.203125 54.6875 
z
" id="DejaVuSans-121"/>
      <path d="M 8.015625 75.875 
L 15.828125 75.875 
Q 23.140625 64.359375 26.78125 53.3125 
Q 30.421875 42.28125 30.421875 31.390625 
Q 30.421875 20.453125 26.78125 9.375 
Q 23.140625 -1.703125 15.828125 -13.1875 
L 8.015625 -13.1875 
Q 14.5 -2 17.703125 9.0625 
Q 20.90625 20.125 20.90625 31.390625 
Q 20.90625 42.671875 17.703125 53.65625 
Q 14.5 64.65625 8.015625 75.875 
z
" id="DejaVuSans-41"/>
     </defs>
     <g transform="translate(392.874219 658.276562)scale(0.1 -0.1)">
      <use xlink:href="#DejaVuSans-110"/>
      <use x="63.378906" xlink:href="#DejaVuSans-111"/>
      <use x="124.560547" xlink:href="#DejaVuSans-114"/>
      <use x="165.658203" xlink:href="#DejaVuSans-109"/>
      <use x="263.070312" xlink:href="#DejaVuSans-32"/>
      <use x="294.857422" xlink:href="#DejaVuSans-100"/>
      <use x="358.333984" xlink:href="#DejaVuSans-105"/>
      <use x="386.117188" xlink:href="#DejaVuSans-115"/>
      <use x="438.216797" xlink:href="#DejaVuSans-116"/>
      <use x="477.425781" xlink:href="#DejaVuSans-97"/>
      <use x="538.705078" xlink:href="#DejaVuSans-110"/>
      <use x="602.083984" xlink:href="#DejaVuSans-99"/>
      <use x="657.064453" xlink:href="#DejaVuSans-101"/>
      <use x="718.587891" xlink:href="#DejaVuSans-32"/>
      <use x="750.375" xlink:href="#DejaVuSans-45"/>
      <use x="786.458984" xlink:href="#DejaVuSans-62"/>
      <use x="870.248047" xlink:href="#DejaVuSans-32"/>
      <use x="902.035156" xlink:href="#DejaVuSans-115"/>
      <use x="954.134766" xlink:href="#DejaVuSans-113"/>
      <use x="1017.611328" xlink:href="#DejaVuSans-114"/>
      <use x="1058.724609" xlink:href="#DejaVuSans-116"/>
      <use x="1097.933594" xlink:href="#DejaVuSans-40"/>
      <use x="1136.947266" xlink:href="#DejaVuSans-120"/>
      <use x="1196.126953" xlink:href="#DejaVuSans-94"/>
      <use x="1279.916016" xlink:href="#DejaVuSans-50"/>
      <use x="1343.539062" xlink:href="#DejaVuSans-32"/>
      <use x="1375.326172" xlink:href="#DejaVuSans-43"/>
      <use x="1459.115234" xlink:href="#DejaVuSans-32"/>
      <use x="1490.902344" xlink:href="#DejaVuSans-121"/>
      <use x="1550.082031" xlink:href="#DejaVuSans-94"/>
      <use x="1633.871094" xlink:href="#DejaVuSans-50"/>
      <use x="1697.494141" xlink:href="#DejaVuSans-41"/>
     </g>
    </g>
   </g>
   <g id="matplotlib.axis_2">
    <g id="ytick_1">
     <g id="line2d_9">
      <defs>
       <path d="M 0 0 
L -3.5 0 
" id="m013c2b6ad1" style="stroke:#000000;stroke-width:0.8;"/>
      </defs>
      <g>
       <use style="stroke:#000000;stroke-width:0.8;" x="117" xlink:href="#m013c2b6ad1" y="591.968269"/>
      </g>
     </g>
     <g id="text_10">
      <!-- $\mathdefault{10^{0}}$ -->
      <g transform="translate(92.4 595.767488)scale(0.1 -0.1)">
       <use transform="translate(0 0.765625)" xlink:href="#DejaVuSans-49"/>
       <use transform="translate(63.623047 0.765625)" xlink:href="#DejaVuSans-48"/>
       <use transform="translate(128.203125 39.046875)scale(0.7)" xlink:href="#DejaVuSans-48"/>
      </g>
     </g>
    </g>
    <g id="ytick_2">
     <g id="line2d_10">
      <g>
       <use style="stroke:#000000;stroke-width:0.8;" x="117" xlink:href="#m013c2b6ad1" y="507.574517"/>
      </g>
     </g>
     <g id="text_11">
      <!-- $\mathdefault{10^{1}}$ -->
      <g transform="translate(92.4 511.373736)scale(0.1 -0.1)">
       <use transform="translate(0 0.684375)" xlink:href="#DejaVuSans-49"/>
       <use transform="translate(63.623047 0.684375)" xlink:href="#DejaVuSans-48"/>
       <use transform="translate(128.203125 38.965625)scale(0.7)" xlink:href="#DejaVuSans-49"/>
      </g>
     </g>
    </g>
    <g id="ytick_3">
     <g id="line2d_11">
      <g>
       <use style="stroke:#000000;stroke-width:0.8;" x="117" xlink:href="#m013c2b6ad1" y="423.180765"/>
      </g>
     </g>
     <g id="text_12">
      <!-- $\mathdefault{10^{2}}$ -->
      <g transform="translate(92.4 426.979983)scale(0.1 -0.1)">
       <use transform="translate(0 0.765625)" xlink:href="#DejaVuSans-49"/>
       <use transform="translate(63.623047 0.765625)" xlink:href="#DejaVuSans-48"/>
       <use transform="translate(128.203125 39.046875)scale(0.7)" xlink:href="#DejaVuSans-50"/>
      </g>
     </g>
    </g>
    <g id="ytick_4">
     <g id="line2d_12">
      <g>
       <use style="stroke:#000000;stroke-width:0.8;" x="117" xlink:href="#m013c2b6ad1" y="338.787013"/>
      </g>
     </g>
     <g id="text_13">
      <!-- $\mathdefault{10^{3}}$ -->
      <g transform="translate(92.4 342.586231)scale(0.1 -0.1)">
       <use transform="translate(0 0.765625)" xlink:href="#DejaVuSans-49"/>
       <use transform="translate(63.623047 0.765625)" xlink:href="#DejaVuSans-48"/>
       <use transform="translate(128.203125 39.046875)scale(0.7)" xlink:href="#DejaVuSans-51"/>
      </g>
     </g>
    </g>
    <g id="ytick_5">
     <g id="line2d_13">
      <g>
       <use style="stroke:#000000;stroke-width:0.8;" x="117" xlink:href="#m013c2b6ad1" y="254.393261"/>
      </g>
     </g>
     <g id="text_14">
      <!-- $\mathdefault{10^{4}}$ -->
      <g transform="translate(92.4 258.192479)scale(0.1 -0.1)">
       <use transform="translate(0 0.684375)" xlink:href="#DejaVuSans-49"/>
       <use transform="translate(63.623047 0.684375)" xlink:href="#DejaVuSans-48"/>
       <use transform="translate(128.203125 38.965625)scale(0.7)" xlink:href="#DejaVuSans-52"/>
      </g>
     </g>
    </g>
    <g id="ytick_6">
     <g id="line2d_14">
      <g>
       <use style="stroke:#000000;stroke-width:0.8;" x="117" xlink:href="#m013c2b6ad1" y="169.999508"/>
      </g>
     </g>
     <g id="text_15">
      <!-- $\mathdefault{10^{5}}$ -->
      <g transform="translate(92.4 173.798727)scale(0.1 -0.1)">
       <use transform="translate(0 0.684375)" xlink:href="#DejaVuSans-49"/>
       <use transform="translate(63.623047 0.684375)" xlink:href="#DejaVuSans-48"/>
       <use transform="translate(128.203125 38.965625)scale(0.7)" xlink:href="#DejaVuSans-53"/>
      </g>
     </g>
    </g>
    <g id="ytick_7">
     <g id="line2d_15">
      <defs>
       <path d="M 0 0 
L -2 0 
" id="ma21093f3ed" style="stroke:#000000;stroke-width:0.6;"/>
      </defs>
      <g>
       <use style="stroke:#000000;stroke-width:0.6;" x="117" xlink:href="#ma21093f3ed" y="625.551919"/>
      </g>
     </g>
    </g>
    <g id="ytick_8">
     <g id="line2d_16">
      <g>
       <use style="stroke:#000000;stroke-width:0.6;" x="117" xlink:href="#ma21093f3ed" y="617.37332"/>
      </g>
     </g>
    </g>
    <g id="ytick_9">
     <g id="line2d_17">
      <g>
       <use style="stroke:#000000;stroke-width:0.6;" x="117" xlink:href="#ma21093f3ed" y="610.690917"/>
      </g>
     </g>
    </g>
    <g id="ytick_10">
     <g id="line2d_18">
      <g>
       <use style="stroke:#000000;stroke-width:0.6;" x="117" xlink:href="#ma21093f3ed" y="605.041027"/>
      </g>
     </g>
    </g>
    <g id="ytick_11">
     <g id="line2d_19">
      <g>
       <use style="stroke:#000000;stroke-width:0.6;" x="117" xlink:href="#ma21093f3ed" y="600.146869"/>
      </g>
     </g>
    </g>
    <g id="ytick_12">
     <g id="line2d_20">
      <g>
       <use style="stroke:#000000;stroke-width:0.6;" x="117" xlink:href="#ma21093f3ed" y="595.829915"/>
      </g>
     </g>
    </g>
    <g id="ytick_13">
     <g id="line2d_21">
      <g>
       <use style="stroke:#000000;stroke-width:0.6;" x="117" xlink:href="#ma21093f3ed" y="566.563218"/>
      </g>
     </g>
    </g>
    <g id="ytick_14">
     <g id="line2d_22">
      <g>
       <use style="stroke:#000000;stroke-width:0.6;" x="117" xlink:href="#ma21093f3ed" y="551.702216"/>
      </g>
     </g>
    </g>
    <g id="ytick_15">
     <g id="line2d_23">
      <g>
       <use style="stroke:#000000;stroke-width:0.6;" x="117" xlink:href="#ma21093f3ed" y="541.158167"/>
      </g>
     </g>
    </g>
    <g id="ytick_16">
     <g id="line2d_24">
      <g>
       <use style="stroke:#000000;stroke-width:0.6;" x="117" xlink:href="#ma21093f3ed" y="532.979568"/>
      </g>
     </g>
    </g>
    <g id="ytick_17">
     <g id="line2d_25">
      <g>
       <use style="stroke:#000000;stroke-width:0.6;" x="117" xlink:href="#ma21093f3ed" y="526.297165"/>
      </g>
     </g>
    </g>
    <g id="ytick_18">
     <g id="line2d_26">
      <g>
       <use style="stroke:#000000;stroke-width:0.6;" x="117" xlink:href="#ma21093f3ed" y="520.647274"/>
      </g>
     </g>
    </g>
    <g id="ytick_19">
     <g id="line2d_27">
      <g>
       <use style="stroke:#000000;stroke-width:0.6;" x="117" xlink:href="#ma21093f3ed" y="515.753116"/>
      </g>
     </g>
    </g>
    <g id="ytick_20">
     <g id="line2d_28">
      <g>
       <use style="stroke:#000000;stroke-width:0.6;" x="117" xlink:href="#ma21093f3ed" y="511.436163"/>
      </g>
     </g>
    </g>
    <g id="ytick_21">
     <g id="line2d_29">
      <g>
       <use style="stroke:#000000;stroke-width:0.6;" x="117" xlink:href="#ma21093f3ed" y="482.169466"/>
      </g>
     </g>
    </g>
    <g id="ytick_22">
     <g id="line2d_30">
      <g>
       <use style="stroke:#000000;stroke-width:0.6;" x="117" xlink:href="#ma21093f3ed" y="467.308464"/>
      </g>
     </g>
    </g>
    <g id="ytick_23">
     <g id="line2d_31">
      <g>
       <use style="stroke:#000000;stroke-width:0.6;" x="117" xlink:href="#ma21093f3ed" y="456.764415"/>
      </g>
     </g>
    </g>
    <g id="ytick_24">
     <g id="line2d_32">
      <g>
       <use style="stroke:#000000;stroke-width:0.6;" x="117" xlink:href="#ma21093f3ed" y="448.585816"/>
      </g>
     </g>
    </g>
    <g id="ytick_25">
     <g id="line2d_33">
      <g>
       <use style="stroke:#000000;stroke-width:0.6;" x="117" xlink:href="#ma21093f3ed" y="441.903413"/>
      </g>
     </g>
    </g>
    <g id="ytick_26">
     <g id="line2d_34">
      <g>
       <use style="stroke:#000000;stroke-width:0.6;" x="117" xlink:href="#ma21093f3ed" y="436.253522"/>
      </g>
     </g>
    </g>
    <g id="ytick_27">
     <g id="line2d_35">
      <g>
       <use style="stroke:#000000;stroke-width:0.6;" x="117" xlink:href="#ma21093f3ed" y="431.359364"/>
      </g>
     </g>
    </g>
    <g id="ytick_28">
     <g id="line2d_36">
      <g>
       <use style="stroke:#000000;stroke-width:0.6;" x="117" xlink:href="#ma21093f3ed" y="427.042411"/>
      </g>
     </g>
    </g>
    <g id="ytick_29">
     <g id="line2d_37">
      <g>
       <use style="stroke:#000000;stroke-width:0.6;" x="117" xlink:href="#ma21093f3ed" y="397.775714"/>
      </g>
     </g>
    </g>
    <g id="ytick_30">
     <g id="line2d_38">
      <g>
       <use style="stroke:#000000;stroke-width:0.6;" x="117" xlink:href="#ma21093f3ed" y="382.914712"/>
      </g>
     </g>
    </g>
    <g id="ytick_31">
     <g id="line2d_39">
      <g>
       <use style="stroke:#000000;stroke-width:0.6;" x="117" xlink:href="#ma21093f3ed" y="372.370663"/>
      </g>
     </g>
    </g>
    <g id="ytick_32">
     <g id="line2d_40">
      <g>
       <use style="stroke:#000000;stroke-width:0.6;" x="117" xlink:href="#ma21093f3ed" y="364.192063"/>
      </g>
     </g>
    </g>
    <g id="ytick_33">
     <g id="line2d_41">
      <g>
       <use style="stroke:#000000;stroke-width:0.6;" x="117" xlink:href="#ma21093f3ed" y="357.509661"/>
      </g>
     </g>
    </g>
    <g id="ytick_34">
     <g id="line2d_42">
      <g>
       <use style="stroke:#000000;stroke-width:0.6;" x="117" xlink:href="#ma21093f3ed" y="351.85977"/>
      </g>
     </g>
    </g>
    <g id="ytick_35">
     <g id="line2d_43">
      <g>
       <use style="stroke:#000000;stroke-width:0.6;" x="117" xlink:href="#ma21093f3ed" y="346.965612"/>
      </g>
     </g>
    </g>
    <g id="ytick_36">
     <g id="line2d_44">
      <g>
       <use style="stroke:#000000;stroke-width:0.6;" x="117" xlink:href="#ma21093f3ed" y="342.648659"/>
      </g>
     </g>
    </g>
    <g id="ytick_37">
     <g id="line2d_45">
      <g>
       <use style="stroke:#000000;stroke-width:0.6;" x="117" xlink:href="#ma21093f3ed" y="313.381962"/>
      </g>
     </g>
    </g>
    <g id="ytick_38">
     <g id="line2d_46">
      <g>
       <use style="stroke:#000000;stroke-width:0.6;" x="117" xlink:href="#ma21093f3ed" y="298.52096"/>
      </g>
     </g>
    </g>
    <g id="ytick_39">
     <g id="line2d_47">
      <g>
       <use style="stroke:#000000;stroke-width:0.6;" x="117" xlink:href="#ma21093f3ed" y="287.976911"/>
      </g>
     </g>
    </g>
    <g id="ytick_40">
     <g id="line2d_48">
      <g>
       <use style="stroke:#000000;stroke-width:0.6;" x="117" xlink:href="#ma21093f3ed" y="279.798311"/>
      </g>
     </g>
    </g>
    <g id="ytick_41">
     <g id="line2d_49">
      <g>
       <use style="stroke:#000000;stroke-width:0.6;" x="117" xlink:href="#ma21093f3ed" y="273.115909"/>
      </g>
     </g>
    </g>
    <g id="ytick_42">
     <g id="line2d_50">
      <g>
       <use style="stroke:#000000;stroke-width:0.6;" x="117" xlink:href="#ma21093f3ed" y="267.466018"/>
      </g>
     </g>
    </g>
    <g id="ytick_43">
     <g id="line2d_51">
      <g>
       <use style="stroke:#000000;stroke-width:0.6;" x="117" xlink:href="#ma21093f3ed" y="262.57186"/>
      </g>
     </g>
    </g>
    <g id="ytick_44">
     <g id="line2d_52">
      <g>
       <use style="stroke:#000000;stroke-width:0.6;" x="117" xlink:href="#ma21093f3ed" y="258.254907"/>
      </g>
     </g>
    </g>
    <g id="ytick_45">
     <g id="line2d_53">
      <g>
       <use style="stroke:#000000;stroke-width:0.6;" x="117" xlink:href="#ma21093f3ed" y="228.98821"/>
      </g>
     </g>
    </g>
    <g id="ytick_46">
     <g id="line2d_54">
      <g>
       <use style="stroke:#000000;stroke-width:0.6;" x="117" xlink:href="#ma21093f3ed" y="214.127208"/>
      </g>
     </g>
    </g>
    <g id="ytick_47">
     <g id="line2d_55">
      <g>
       <use style="stroke:#000000;stroke-width:0.6;" x="117" xlink:href="#ma21093f3ed" y="203.583159"/>
      </g>
     </g>
    </g>
    <g id="ytick_48">
     <g id="line2d_56">
      <g>
       <use style="stroke:#000000;stroke-width:0.6;" x="117" xlink:href="#ma21093f3ed" y="195.404559"/>
      </g>
     </g>
    </g>
    <g id="ytick_49">
     <g id="line2d_57">
      <g>
       <use style="stroke:#000000;stroke-width:0.6;" x="117" xlink:href="#ma21093f3ed" y="188.722157"/>
      </g>
     </g>
    </g>
    <g id="ytick_50">
     <g id="line2d_58">
      <g>
       <use style="stroke:#000000;stroke-width:0.6;" x="117" xlink:href="#ma21093f3ed" y="183.072266"/>
      </g>
     </g>
    </g>
    <g id="ytick_51">
     <g id="line2d_59">
      <g>
       <use style="stroke:#000000;stroke-width:0.6;" x="117" xlink:href="#ma21093f3ed" y="178.178108"/>
      </g>
     </g>
    </g>
    <g id="ytick_52">
     <g id="line2d_60">
      <g>
       <use style="stroke:#000000;stroke-width:0.6;" x="117" xlink:href="#ma21093f3ed" y="173.861155"/>
      </g>
     </g>
    </g>
    <g id="ytick_53">
     <g id="line2d_61">
      <g>
       <use style="stroke:#000000;stroke-width:0.6;" x="117" xlink:href="#ma21093f3ed" y="144.594458"/>
      </g>
     </g>
    </g>
    <g id="ytick_54">
     <g id="line2d_62">
      <g>
       <use style="stroke:#000000;stroke-width:0.6;" x="117" xlink:href="#ma21093f3ed" y="129.733455"/>
      </g>
     </g>
    </g>
    <g id="ytick_55">
     <g id="line2d_63">
      <g>
       <use style="stroke:#000000;stroke-width:0.6;" x="117" xlink:href="#ma21093f3ed" y="119.189407"/>
      </g>
     </g>
    </g>
    <g id="ytick_56">
     <g id="line2d_64">
      <g>
       <use style="stroke:#000000;stroke-width:0.6;" x="117" xlink:href="#ma21093f3ed" y="111.010807"/>
      </g>
     </g>
    </g>
    <g id="ytick_57">
     <g id="line2d_65">
      <g>
       <use style="stroke:#000000;stroke-width:0.6;" x="117" xlink:href="#ma21093f3ed" y="104.328405"/>
      </g>
     </g>
    </g>
    <g id="ytick_58">
     <g id="line2d_66">
      <g>
       <use style="stroke:#000000;stroke-width:0.6;" x="117" xlink:href="#ma21093f3ed" y="98.678514"/>
      </g>
     </g>
    </g>
    <g id="ytick_59">
     <g id="line2d_67">
      <g>
       <use style="stroke:#000000;stroke-width:0.6;" x="117" xlink:href="#ma21093f3ed" y="93.784356"/>
      </g>
     </g>
    </g>
    <g id="ytick_60">
     <g id="line2d_68">
      <g>
       <use style="stroke:#000000;stroke-width:0.6;" x="117" xlink:href="#ma21093f3ed" y="89.467403"/>
      </g>
     </g>
    </g>
    <g id="text_16">
     <!-- log(sum(|expected_shift - real_shift|)) over 20 runs -->
     <defs>
      <path d="M 9.421875 75.984375 
L 18.40625 75.984375 
L 18.40625 0 
L 9.421875 0 
z
" id="DejaVuSans-108"/>
      <path d="M 45.40625 27.984375 
Q 45.40625 37.75 41.375 43.109375 
Q 37.359375 48.484375 30.078125 48.484375 
Q 22.859375 48.484375 18.828125 43.109375 
Q 14.796875 37.75 14.796875 27.984375 
Q 14.796875 18.265625 18.828125 12.890625 
Q 22.859375 7.515625 30.078125 7.515625 
Q 37.359375 7.515625 41.375 12.890625 
Q 45.40625 18.265625 45.40625 27.984375 
z
M 54.390625 6.78125 
Q 54.390625 -7.171875 48.1875 -13.984375 
Q 42 -20.796875 29.203125 -20.796875 
Q 24.46875 -20.796875 20.265625 -20.09375 
Q 16.0625 -19.390625 12.109375 -17.921875 
L 12.109375 -9.1875 
Q 16.0625 -11.328125 19.921875 -12.34375 
Q 23.78125 -13.375 27.78125 -13.375 
Q 36.625 -13.375 41.015625 -8.765625 
Q 45.40625 -4.15625 45.40625 5.171875 
L 45.40625 9.625 
Q 42.625 4.78125 38.28125 2.390625 
Q 33.9375 0 27.875 0 
Q 17.828125 0 11.671875 7.65625 
Q 5.515625 15.328125 5.515625 27.984375 
Q 5.515625 40.671875 11.671875 48.328125 
Q 17.828125 56 27.875 56 
Q 33.9375 56 38.28125 53.609375 
Q 42.625 51.21875 45.40625 46.390625 
L 45.40625 54.6875 
L 54.390625 54.6875 
z
" id="DejaVuSans-103"/>
      <path d="M 8.5 21.578125 
L 8.5 54.6875 
L 17.484375 54.6875 
L 17.484375 21.921875 
Q 17.484375 14.15625 20.5 10.265625 
Q 23.53125 6.390625 29.59375 6.390625 
Q 36.859375 6.390625 41.078125 11.03125 
Q 45.3125 15.671875 45.3125 23.6875 
L 45.3125 54.6875 
L 54.296875 54.6875 
L 54.296875 0 
L 45.3125 0 
L 45.3125 8.40625 
Q 42.046875 3.421875 37.71875 1 
Q 33.40625 -1.421875 27.6875 -1.421875 
Q 18.265625 -1.421875 13.375 4.4375 
Q 8.5 10.296875 8.5 21.578125 
z
M 31.109375 56 
z
" id="DejaVuSans-117"/>
      <path d="M 21 76.421875 
L 21 -23.578125 
L 12.703125 -23.578125 
L 12.703125 76.421875 
z
" id="DejaVuSans-124"/>
      <path d="M 18.109375 8.203125 
L 18.109375 -20.796875 
L 9.078125 -20.796875 
L 9.078125 54.6875 
L 18.109375 54.6875 
L 18.109375 46.390625 
Q 20.953125 51.265625 25.265625 53.625 
Q 29.59375 56 35.59375 56 
Q 45.5625 56 51.78125 48.09375 
Q 58.015625 40.1875 58.015625 27.296875 
Q 58.015625 14.40625 51.78125 6.484375 
Q 45.5625 -1.421875 35.59375 -1.421875 
Q 29.59375 -1.421875 25.265625 0.953125 
Q 20.953125 3.328125 18.109375 8.203125 
z
M 48.6875 27.296875 
Q 48.6875 37.203125 44.609375 42.84375 
Q 40.53125 48.484375 33.40625 48.484375 
Q 26.265625 48.484375 22.1875 42.84375 
Q 18.109375 37.203125 18.109375 27.296875 
Q 18.109375 17.390625 22.1875 11.75 
Q 26.265625 6.109375 33.40625 6.109375 
Q 40.53125 6.109375 44.609375 11.75 
Q 48.6875 17.390625 48.6875 27.296875 
z
" id="DejaVuSans-112"/>
      <path d="M 50.984375 -16.609375 
L 50.984375 -23.578125 
L -0.984375 -23.578125 
L -0.984375 -16.609375 
z
" id="DejaVuSans-95"/>
      <path d="M 54.890625 33.015625 
L 54.890625 0 
L 45.90625 0 
L 45.90625 32.71875 
Q 45.90625 40.484375 42.875 44.328125 
Q 39.84375 48.1875 33.796875 48.1875 
Q 26.515625 48.1875 22.3125 43.546875 
Q 18.109375 38.921875 18.109375 30.90625 
L 18.109375 0 
L 9.078125 0 
L 9.078125 75.984375 
L 18.109375 75.984375 
L 18.109375 46.1875 
Q 21.34375 51.125 25.703125 53.5625 
Q 30.078125 56 35.796875 56 
Q 45.21875 56 50.046875 50.171875 
Q 54.890625 44.34375 54.890625 33.015625 
z
" id="DejaVuSans-104"/>
      <path d="M 37.109375 75.984375 
L 37.109375 68.5 
L 28.515625 68.5 
Q 23.6875 68.5 21.796875 66.546875 
Q 19.921875 64.59375 19.921875 59.515625 
L 19.921875 54.6875 
L 34.71875 54.6875 
L 34.71875 47.703125 
L 19.921875 47.703125 
L 19.921875 0 
L 10.890625 0 
L 10.890625 47.703125 
L 2.296875 47.703125 
L 2.296875 54.6875 
L 10.890625 54.6875 
L 10.890625 58.5 
Q 10.890625 67.625 15.140625 71.796875 
Q 19.390625 75.984375 28.609375 75.984375 
z
" id="DejaVuSans-102"/>
      <path d="M 2.984375 54.6875 
L 12.5 54.6875 
L 29.59375 8.796875 
L 46.6875 54.6875 
L 56.203125 54.6875 
L 35.6875 0 
L 23.484375 0 
z
" id="DejaVuSans-118"/>
     </defs>
     <g transform="translate(86.042187 485.492188)rotate(-90)scale(0.1 -0.1)">
      <use xlink:href="#DejaVuSans-108"/>
      <use x="27.783203" xlink:href="#DejaVuSans-111"/>
      <use x="88.964844" xlink:href="#DejaVuSans-103"/>
      <use x="152.441406" xlink:href="#DejaVuSans-40"/>
      <use x="191.455078" xlink:href="#DejaVuSans-115"/>
      <use x="243.554688" xlink:href="#DejaVuSans-117"/>
      <use x="306.933594" xlink:href="#DejaVuSans-109"/>
      <use x="404.345703" xlink:href="#DejaVuSans-40"/>
      <use x="443.359375" xlink:href="#DejaVuSans-124"/>
      <use x="477.050781" xlink:href="#DejaVuSans-101"/>
      <use x="538.558594" xlink:href="#DejaVuSans-120"/>
      <use x="597.738281" xlink:href="#DejaVuSans-112"/>
      <use x="661.214844" xlink:href="#DejaVuSans-101"/>
      <use x="722.738281" xlink:href="#DejaVuSans-99"/>
      <use x="777.71875" xlink:href="#DejaVuSans-116"/>
      <use x="816.927734" xlink:href="#DejaVuSans-101"/>
      <use x="878.451172" xlink:href="#DejaVuSans-100"/>
      <use x="941.927734" xlink:href="#DejaVuSans-95"/>
      <use x="991.927734" xlink:href="#DejaVuSans-115"/>
      <use x="1044.027344" xlink:href="#DejaVuSans-104"/>
      <use x="1107.40625" xlink:href="#DejaVuSans-105"/>
      <use x="1135.189453" xlink:href="#DejaVuSans-102"/>
      <use x="1170.378906" xlink:href="#DejaVuSans-116"/>
      <use x="1209.587891" xlink:href="#DejaVuSans-32"/>
      <use x="1241.375" xlink:href="#DejaVuSans-45"/>
      <use x="1277.458984" xlink:href="#DejaVuSans-32"/>
      <use x="1309.246094" xlink:href="#DejaVuSans-114"/>
      <use x="1350.328125" xlink:href="#DejaVuSans-101"/>
      <use x="1411.851562" xlink:href="#DejaVuSans-97"/>
      <use x="1473.130859" xlink:href="#DejaVuSans-108"/>
      <use x="1500.914062" xlink:href="#DejaVuSans-95"/>
      <use x="1550.914062" xlink:href="#DejaVuSans-115"/>
      <use x="1603.013672" xlink:href="#DejaVuSans-104"/>
      <use x="1666.392578" xlink:href="#DejaVuSans-105"/>
      <use x="1694.175781" xlink:href="#DejaVuSans-102"/>
      <use x="1729.365234" xlink:href="#DejaVuSans-116"/>
      <use x="1768.574219" xlink:href="#DejaVuSans-124"/>
      <use x="1802.265625" xlink:href="#DejaVuSans-41"/>
      <use x="1841.279297" xlink:href="#DejaVuSans-41"/>
      <use x="1880.292969" xlink:href="#DejaVuSans-32"/>
      <use x="1912.080078" xlink:href="#DejaVuSans-111"/>
      <use x="1973.261719" xlink:href="#DejaVuSans-118"/>
      <use x="2032.441406" xlink:href="#DejaVuSans-101"/>
      <use x="2093.964844" xlink:href="#DejaVuSans-114"/>
      <use x="2135.078125" xlink:href="#DejaVuSans-32"/>
      <use x="2166.865234" xlink:href="#DejaVuSans-50"/>
      <use x="2230.488281" xlink:href="#DejaVuSans-48"/>
      <use x="2294.111328" xlink:href="#DejaVuSans-32"/>
      <use x="2325.898438" xlink:href="#DejaVuSans-114"/>
      <use x="2367.011719" xlink:href="#DejaVuSans-117"/>
      <use x="2430.390625" xlink:href="#DejaVuSans-110"/>
      <use x="2493.769531" xlink:href="#DejaVuSans-115"/>
     </g>
    </g>
   </g>
   <g id="line2d_69">
    <path clip-path="url(#p7d8e075615)" d="M 149.972727 605.290909 
L 159.298823 605.113351 
L 159.298823 604.978726 
L 163.161818 604.819645 
L 163.161818 604.641773 
L 174.220576 604.450513 
L 174.220576 604.050611 
L 175.952223 603.852963 
L 175.952223 603.043997 
L 184.264364 602.843678 
L 184.264364 602.721444 
L 197.526671 602.673768 
L 197.526671 602.769102 
L 197.526671 602.901537 
L 202.530882 603.077355 
L 202.530882 603.495286 
L 215.918182 603.693095 
L 215.918182 603.846889 
L 219.058641 603.812704 
L 219.058641 602.945488 
L 222.593975 602.740469 
L 222.593975 601.56297 
L 232.799588 601.301643 
L 232.799588 599.920805 
L 235.772807 599.643257 
L 235.772807 598.876426 
L 236.278172 598.660783 
L 236.278172 598.135707 
L 239.133323 598.135707 
L 239.133323 598.173457 
L 239.133323 599.118437 
L 246.780655 599.430133 
L 246.780655 600.459108 
L 247.625455 600.797445 
L 247.625455 602.07877 
L 259.734019 601.92846 
L 259.734019 600.908065 
L 266.548923 600.747868 
L 266.548923 600.485669 
L 266.921371 600.317033 
L 266.921371 600.232243 
L 266.921371 600.232243 
L 269.043998 600.320536 
L 269.043998 600.441854 
L 275.529132 600.407525 
L 275.529132 600.38044 
L 275.529132 600.285249 
L 275.529132 600.285249 
L 285.161102 600.285249 
L 285.161102 600.35056 
L 285.161102 600.472064 
L 294.71962 600.654774 
L 294.71962 601.246387 
L 314.836364 601.44413 
L 314.836364 601.553168 
L 342.090297 601.40644 
L 342.090297 601.116407 
L 342.316525 600.922896 
L 342.316525 599.615498 
L 343.614455 599.31997 
L 343.614455 597.633809 
L 347.668357 597.383714 
L 347.668357 595.813759 
L 353.921368 595.600208 
L 353.921368 594.175783 
L 360.379035 594.000348 
L 360.379035 593.251636 
L 374.692931 593.223638 
L 374.692931 593.323598 
L 421.668 593.458277 
L 421.668 593.617338 
L 477.318684 593.773347 
L 477.318684 593.841731 
L 477.451507 593.974112 
L 477.451507 593.853995 
L 478.215523 593.686421 
L 478.215523 593.045979 
L 480.623263 592.888999 
L 480.623263 591.787241 
L 484.399494 591.575804 
L 484.399494 589.919756 
L 488.376375 589.676775 
L 488.376375 588.437476 
L 497.457093 588.2929 
L 497.457093 587.962837 
L 497.457093 587.962837 
L 529.53107 588.038897 
L 529.53107 588.815786 
L 612.909818 589.078369 
L 612.909818 590.095771 
L 616.277508 590.512272 
L 616.37076 595.033449 
L 616.907527 595.680383 
L 616.907527 599.434101 
L 618.603232 599.735197 
L 618.603232 599.917062 
L 618.603232 598.576702 
L 621.275216 597.77678 
L 621.275216 584.047768 
L 624.105412 580.510605 
L 624.105412 544.469918 
L 630.628694 538.388845 
L 630.628694 497.414559 
L 654.303283 492.210747 
L 654.303283 462.679753 
L 719.70558 459.528672 
L 719.70558 445.396376 
L 809.427273 444.526555 
L 809.427273 443.656237 
L 809.427273 443.656237 
" style="fill:none;stroke:#000000;stroke-linecap:square;stroke-width:1.5;"/>
   </g>
   <g id="line2d_70">
    <path clip-path="url(#p7d8e075615)" d="M 149.972727 600.800748 
L 159.298823 600.68688 
L 159.298823 600.301361 
L 163.161818 600.035651 
L 163.161818 599.728977 
L 174.220576 599.384274 
L 174.220576 598.603128 
L 175.952223 598.175423 
L 175.952223 595.783092 
L 184.264364 595.267703 
L 184.264364 593.668754 
L 196.603205 593.120832 
L 196.603205 591.457548 
L 197.526671 590.904645 
L 197.526671 588.312403 
L 202.530882 587.853363 
L 202.530882 585.996792 
L 215.918182 585.720198 
L 215.918182 585.076499 
L 218.426269 584.921004 
L 218.426269 584.69245 
L 219.058641 584.54919 
L 219.058641 584.579464 
L 222.593975 584.705501 
L 222.593975 585.180398 
L 232.799588 585.325665 
L 232.799588 585.950999 
L 235.772807 586.033583 
L 235.772807 585.977937 
L 235.772807 585.896506 
L 236.278172 585.794874 
L 236.278172 585.255708 
L 239.133323 585.192549 
L 239.133323 585.311532 
L 239.133323 585.646635 
L 246.780655 585.900367 
L 246.780655 586.971713 
L 247.625455 587.416191 
L 247.625455 590.42405 
L 259.734019 590.899361 
L 259.734019 593.249373 
L 266.548923 593.424952 
L 266.548923 593.654988 
L 266.921371 593.69915 
L 266.921371 593.631883 
L 266.921371 592.641631 
L 269.043998 592.314967 
L 269.043998 589.327147 
L 271.312364 588.893776 
L 271.312364 588.10794 
L 275.529132 587.771415 
L 275.529132 586.8119 
L 275.529132 586.8119 
L 285.161102 586.8119 
L 285.161102 586.900126 
L 285.161102 587.29898 
L 294.71962 587.473888 
L 294.71962 588.380768 
L 314.836364 588.441738 
L 314.836364 588.387363 
L 314.836364 588.160458 
L 342.090297 587.999993 
L 342.090297 587.410654 
L 342.316525 587.207721 
L 342.316525 586.53667 
L 343.614455 586.522955 
L 343.614455 586.560336 
L 343.614455 586.984941 
L 347.668357 587.22121 
L 347.668357 589.401273 
L 353.921368 589.656097 
L 353.921368 590.098019 
L 353.921368 589.342675 
L 360.379035 589.032726 
L 360.379035 586.426439 
L 374.692931 586.078606 
L 374.692931 584.475202 
L 421.668 584.290298 
L 421.668 583.856656 
L 477.318684 583.654068 
L 477.318684 583.575065 
L 477.451507 583.413673 
L 477.451507 583.338545 
L 480.623263 583.196914 
L 480.623263 582.783847 
L 484.399494 582.603705 
L 484.399494 579.889612 
L 488.376375 579.244064 
L 488.376375 574.154069 
L 497.457093 573.192533 
L 497.457093 567.40283 
L 529.53107 566.872269 
L 529.53107 565.84542 
L 529.53107 565.84542 
L 612.909818 565.878513 
L 612.909818 566.667989 
L 616.277508 567.148605 
L 616.37076 573.907454 
L 616.907527 574.941779 
L 616.907527 580.926333 
L 618.603232 581.01815 
L 618.603232 573.937927 
L 621.275216 571.149383 
L 621.275216 544.131654 
L 624.105412 539.737848 
L 624.105412 510.544445 
L 630.628694 506.794546 
L 630.628694 483.712249 
L 654.303283 480.812305 
L 654.303283 463.128189 
L 719.70558 461.047336 
L 719.70558 451.059653 
L 809.427273 450.406589 
L 809.427273 449.748407 
L 809.427273 449.748407 
" style="fill:none;stroke:#100000;stroke-linecap:square;stroke-width:1.5;"/>
   </g>
   <g id="line2d_71">
    <path clip-path="url(#p7d8e075615)" d="M 149.972727 598.591008 
L 159.298823 598.467719 
L 159.298823 598.370145 
L 163.161818 598.250876 
L 163.161818 598.11013 
L 174.220576 597.95078 
L 174.220576 597.578622 
L 175.952223 597.370703 
L 175.952223 596.184138 
L 184.264364 595.933537 
L 184.264364 595.205003 
L 196.603205 594.981055 
L 196.603205 594.40582 
L 197.526671 594.255455 
L 197.526671 593.875352 
L 202.530882 593.870282 
L 202.530882 593.953247 
L 215.918182 594.095689 
L 215.918182 594.135426 
L 219.058641 594.11116 
L 219.058641 594.064453 
L 219.058641 593.828085 
L 222.593975 593.796265 
L 222.593975 593.820937 
L 232.799588 593.927468 
L 232.799588 593.994702 
L 232.799588 593.987713 
L 235.772807 593.867218 
L 235.772807 593.651727 
L 236.278172 593.517752 
L 236.278172 592.860236 
L 239.133323 592.763173 
L 239.133323 592.850295 
L 239.133323 593.147117 
L 246.780655 593.374739 
L 246.780655 594.315544 
L 247.625455 594.691901 
L 247.625455 596.866013 
L 259.734019 597.120496 
L 259.734019 597.575355 
L 259.734019 597.239882 
L 266.548923 597.07986 
L 266.548923 596.714014 
L 266.921371 596.516928 
L 266.921371 595.216782 
L 269.043998 594.986131 
L 269.043998 593.472403 
L 271.312364 593.309054 
L 271.312364 593.054425 
L 275.529132 592.865978 
L 275.529132 592.909726 
L 285.161102 593.05455 
L 285.161102 593.133753 
L 285.161102 593.112559 
L 294.71962 592.956152 
L 294.71962 592.003458 
L 314.836364 591.731622 
L 314.836364 590.825786 
L 342.090297 590.510751 
L 342.090297 589.595971 
L 342.316525 589.319818 
L 342.316525 588.323503 
L 343.614455 588.142384 
L 343.614455 588.082865 
L 343.614455 588.09168 
L 347.668357 588.220101 
L 347.668357 588.408833 
L 347.668357 588.371603 
L 353.921368 588.204926 
L 353.921368 587.028956 
L 360.379035 586.762492 
L 360.379035 584.857733 
L 374.692931 584.624373 
L 374.692931 583.661557 
L 477.451507 583.549641 
L 477.451507 584.04975 
L 478.215523 584.199705 
L 478.215523 585.255464 
L 480.623263 585.42699 
L 480.623263 586.042332 
L 484.399494 585.97177 
L 484.399494 584.324561 
L 488.376375 583.942192 
L 488.376375 581.274496 
L 497.457093 580.822147 
L 497.457093 578.388105 
L 529.53107 578.211128 
L 529.53107 578.00286 
L 529.53107 578.041544 
L 612.909818 578.129518 
L 612.909818 578.624957 
L 616.277508 578.833291 
L 616.37076 579.465954 
L 616.37076 578.086475 
L 616.907527 577.437374 
L 616.907527 570.87838 
L 618.603232 569.914016 
L 618.603232 563.311271 
L 621.275216 561.352436 
L 621.275216 528.90394 
L 624.105412 521.169888 
L 624.105412 460.118557 
L 630.628694 451.647788 
L 630.628694 399.95136 
L 654.303283 393.78982 
L 654.303283 359.723164 
L 719.70558 356.158568 
L 719.70558 340.302872 
L 809.427273 339.333557 
L 809.427273 338.364436 
L 809.427273 338.364436 
" style="fill:none;stroke:#200000;stroke-linecap:square;stroke-width:1.5;"/>
   </g>
   <g id="line2d_72">
    <path clip-path="url(#p7d8e075615)" d="M 149.972727 587.352657 
L 159.298823 587.212771 
L 159.298823 586.735528 
L 163.161818 586.404821 
L 163.161818 586.020233 
L 174.220576 585.587836 
L 174.220576 584.599744 
L 175.952223 584.059139 
L 175.952223 581.137859 
L 184.264364 580.549807 
L 184.264364 578.854202 
L 196.603205 578.321407 
L 196.603205 576.836168 
L 197.526671 576.377277 
L 197.526671 574.288848 
L 202.530882 573.896952 
L 202.530882 571.992564 
L 215.918182 571.626516 
L 215.918182 570.607858 
L 218.426269 570.309736 
L 218.426269 569.807398 
L 219.058641 569.613607 
L 219.058641 569.316318 
L 219.058641 569.321604 
L 222.593975 569.382392 
L 222.593975 570.456819 
L 232.799588 570.794517 
L 232.799588 572.671025 
L 235.772807 573.016597 
L 235.772807 573.846598 
L 236.278172 574.039608 
L 236.278172 574.428503 
L 239.133323 574.527661 
L 239.133323 574.881058 
L 246.780655 575.073499 
L 246.780655 575.841927 
L 247.625455 576.141664 
L 247.625455 577.744332 
L 259.734019 578.003771 
L 259.734019 578.037992 
L 259.734019 577.372542 
L 266.548923 577.17653 
L 266.548923 576.754828 
L 266.921371 576.534449 
L 266.921371 575.137198 
L 269.043998 574.902235 
L 269.043998 573.668165 
L 275.529132 573.605301 
L 275.529132 575.041766 
L 285.161102 575.449701 
L 285.161102 577.870341 
L 294.71962 578.361232 
L 294.71962 580.436523 
L 314.836364 580.556488 
L 314.836364 580.451207 
L 314.836364 580.014959 
L 342.090297 579.703536 
L 342.090297 578.498796 
L 342.316525 578.040312 
L 342.316525 575.715866 
L 343.614455 575.295052 
L 343.614455 573.337917 
L 347.668357 573.100472 
L 347.668357 571.745776 
L 353.921368 571.55508 
L 353.921368 569.918779 
L 360.379035 569.626584 
L 360.379035 567.102746 
L 374.692931 566.69059 
L 374.692931 564.305957 
L 421.668 563.968057 
L 421.668 563.143982 
L 477.318684 562.941846 
L 477.318684 562.656184 
L 477.451507 562.523134 
L 477.451507 562.553204 
L 478.215523 562.714652 
L 478.215523 563.58361 
L 480.623263 563.814273 
L 480.623263 565.324317 
L 484.399494 565.561497 
L 484.399494 566.417638 
L 484.399494 566.308096 
L 488.376375 566.133404 
L 488.376375 563.581403 
L 497.457093 562.917175 
L 497.457093 557.463788 
L 529.53107 556.739283 
L 529.53107 554.097071 
L 612.909818 554.039341 
L 612.909818 554.10756 
L 616.277508 554.302877 
L 616.37076 559.833402 
L 616.907527 560.846883 
L 616.907527 567.539427 
L 618.603232 568.177142 
L 618.603232 569.313908 
L 618.603232 550.295028 
L 621.275216 543.497044 
L 621.275216 472.066965 
L 624.105412 461.150827 
L 624.105412 391.033782 
L 630.628694 382.195973 
L 630.628694 329.539224 
L 654.303283 323.345916 
L 654.303283 289.26052 
L 719.70558 285.705859 
L 719.70558 269.915348 
L 809.427273 268.951046 
L 809.427273 267.987042 
L 809.427273 267.987042 
" style="fill:none;stroke:#300000;stroke-linecap:square;stroke-width:1.5;"/>
   </g>
   <g id="line2d_73">
    <path clip-path="url(#p7d8e075615)" d="M 149.972727 583.941215 
L 159.298823 583.848807 
L 159.298823 583.78079 
L 174.220576 583.38068 
L 175.952223 583.203644 
L 175.952223 583.092758 
L 184.264364 582.968313 
L 184.264364 582.903091 
L 196.603205 582.711684 
L 196.603205 582.41907 
L 197.526671 582.229569 
L 197.526671 580.890236 
L 202.530882 580.564118 
L 202.530882 578.896901 
L 215.918182 578.588578 
L 215.918182 577.789855 
L 218.426269 577.576523 
L 218.426269 577.246762 
L 219.058641 577.056641 
L 219.058641 577.013811 
L 219.058641 577.044913 
L 222.593975 577.207075 
L 222.593975 577.800805 
L 232.799588 577.969728 
L 232.799588 578.533703 
L 235.772807 578.459176 
L 235.772807 577.994875 
L 236.278172 577.777799 
L 236.278172 576.60815 
L 239.133323 576.419923 
L 239.133323 576.027864 
L 239.133323 576.029147 
L 246.780655 576.139765 
L 246.780655 576.358498 
L 247.625455 576.492528 
L 247.625455 577.181273 
L 259.734019 577.225292 
L 259.734019 577.137833 
L 259.734019 576.689906 
L 266.548923 576.530919 
L 266.548923 576.472162 
L 266.921371 576.412221 
L 266.921371 576.476605 
L 269.043998 576.611928 
L 269.043998 577.21377 
L 271.312364 577.375046 
L 271.312364 577.431506 
L 275.529132 577.469132 
L 275.529132 577.41563 
L 275.529132 577.024566 
L 285.161102 576.872078 
L 285.161102 576.772118 
L 285.161102 576.772118 
L 294.71962 576.772118 
L 294.71962 576.834378 
L 294.71962 577.301374 
L 314.836364 577.478109 
L 314.836364 578.0781 
L 342.090297 578.279669 
L 342.090297 578.794594 
L 342.316525 579.007026 
L 342.316525 579.062951 
L 342.316525 578.812708 
L 343.614455 578.672203 
L 343.614455 577.51338 
L 347.668357 577.296957 
L 347.668357 575.653513 
L 353.921368 575.381708 
L 353.921368 573.061783 
L 360.379035 572.676916 
L 360.379035 569.901006 
L 374.692931 569.516472 
L 374.692931 567.350122 
L 421.668 567.010972 
L 421.668 566.03597 
L 477.318684 565.729917 
L 477.318684 565.159744 
L 477.451507 564.666255 
L 477.451507 564.018099 
L 478.215523 563.914098 
L 478.215523 564.005022 
L 480.623263 564.104924 
L 480.623263 564.730208 
L 480.623263 564.620542 
L 484.399494 564.351751 
L 484.399494 555.77843 
L 488.376375 553.340096 
L 488.376375 534.121063 
L 497.457093 530.619254 
L 497.457093 509.561816 
L 529.53107 507.390926 
L 529.53107 500.049161 
L 612.909818 499.779033 
L 612.909818 499.779033 
L 616.277508 500.018129 
L 616.37076 507.294937 
L 616.907527 508.208617 
L 616.907527 509.529709 
L 616.907527 506.50602 
L 618.603232 505.438394 
L 618.603232 495.072051 
L 621.275216 492.043046 
L 621.275216 448.002565 
L 624.105412 439.023221 
L 624.105412 374.273269 
L 630.628694 365.667164 
L 630.628694 313.743648 
L 654.303283 307.595629 
L 654.303283 273.690383 
L 719.70558 270.149767 
L 719.70558 254.41469 
L 809.427273 253.453461 
L 809.427273 252.492505 
L 809.427273 252.492505 
" style="fill:none;stroke:#400000;stroke-linecap:square;stroke-width:1.5;"/>
   </g>
   <g id="line2d_74">
    <path clip-path="url(#p7d8e075615)" d="M 149.972727 565.789352 
L 163.161818 565.849695 
L 163.161818 565.894315 
L 174.220576 566.029074 
L 174.220576 566.124101 
L 175.952223 566.240544 
L 175.952223 567.187405 
L 184.264364 567.451641 
L 184.264364 568.372676 
L 196.603205 568.713573 
L 196.603205 569.790499 
L 197.526671 570.153363 
L 197.526671 571.772133 
L 202.530882 572.018552 
L 202.530882 572.496677 
L 202.530882 572.362467 
L 215.918182 572.175559 
L 215.918182 571.275776 
L 218.426269 570.883081 
L 218.426269 570.00953 
L 219.058641 569.5491 
L 219.058641 567.130987 
L 222.593975 566.870263 
L 222.593975 566.434322 
L 222.593975 566.434322 
L 232.799588 566.479949 
L 232.799588 567.181777 
L 235.772807 567.454618 
L 235.772807 568.376781 
L 236.278172 568.689961 
L 236.278172 569.990309 
L 239.133323 570.168093 
L 239.133323 570.642497 
L 239.133323 570.618999 
L 246.780655 570.493679 
L 246.780655 570.439774 
L 247.625455 570.323045 
L 247.625455 570.064102 
L 266.548923 570.118662 
L 266.548923 570.229841 
L 266.921371 570.386281 
L 266.921371 570.231908 
L 266.921371 570.094695 
L 269.043998 569.914758 
L 269.043998 567.598425 
L 271.312364 567.172512 
L 271.312364 566.315794 
L 275.529132 565.899684 
L 275.529132 563.742719 
L 285.161102 563.587903 
L 285.161102 563.373598 
L 285.161102 563.373598 
L 294.71962 563.424167 
L 294.71962 563.974869 
L 314.836364 564.107324 
L 314.836364 564.425572 
L 342.090297 564.488904 
L 342.090297 564.431339 
L 342.090297 564.350311 
L 342.316525 564.144768 
L 342.316525 563.785564 
L 343.614455 563.757934 
L 343.614455 563.82779 
L 343.614455 564.092827 
L 347.668357 564.301985 
L 347.668357 566.76063 
L 353.921368 567.142404 
L 353.921368 568.399767 
L 353.921368 568.160967 
L 360.379035 567.913065 
L 360.379035 564.770345 
L 374.692931 564.226678 
L 374.692931 561.232388 
L 421.668 560.828093 
L 421.668 559.855155 
L 477.318684 559.620172 
L 477.318684 559.295928 
L 477.451507 559.173672 
L 477.451507 559.224979 
L 478.215523 559.324036 
L 478.215523 560.329129 
L 480.623263 560.130955 
L 480.623263 552.632106 
L 484.399494 549.789498 
L 484.399494 516.170669 
L 488.376375 510.159928 
L 488.376375 474.404141 
L 497.457093 468.902041 
L 497.457093 436.948305 
L 529.53107 433.443324 
L 529.53107 418.438438 
L 612.909818 416.957816 
L 612.909818 414.258807 
L 616.37076 413.895235 
L 616.37076 417.722776 
L 616.907527 419.21623 
L 616.907527 433.575495 
L 618.603232 435.552354 
L 618.603232 439.784602 
L 618.603232 437.416482 
L 621.275216 435.14482 
L 621.275216 403.494029 
L 624.105412 397.438366 
L 624.105412 351.39716 
L 630.628694 344.796027 
L 630.628694 302.593126 
L 654.303283 297.358733 
L 654.303283 267.771909 
L 719.70558 264.619566 
L 719.70558 250.485254 
L 809.427273 249.615537 
L 809.427273 248.745374 
L 809.427273 248.745374 
" style="fill:none;stroke:#500000;stroke-linecap:square;stroke-width:1.5;"/>
   </g>
   <g id="line2d_75">
    <path clip-path="url(#p7d8e075615)" d="M 149.972727 574.778444 
L 159.298823 574.778444 
L 159.298823 574.846901 
L 174.220576 575.173455 
L 174.220576 575.265898 
L 175.952223 575.420152 
L 175.952223 575.47064 
L 175.952223 575.294976 
L 184.264364 575.163144 
L 184.264364 574.598463 
L 196.603205 574.363799 
L 196.603205 573.573374 
L 197.526671 573.292657 
L 197.526671 571.875156 
L 202.530882 571.598678 
L 202.530882 570.278949 
L 215.918182 570.026141 
L 215.918182 569.284049 
L 218.426269 569.040737 
L 218.426269 568.553383 
L 219.058641 568.307128 
L 219.058641 566.684442 
L 222.593975 566.371009 
L 222.593975 564.602552 
L 232.799588 564.221951 
L 232.799588 562.453873 
L 235.772807 562.173376 
L 235.772807 561.597226 
L 236.278172 561.486107 
L 236.278172 561.622914 
L 239.133323 561.786502 
L 239.133323 564.430243 
L 246.780655 564.945971 
L 246.780655 566.490563 
L 247.625455 566.980798 
L 247.625455 569.120442 
L 259.734019 569.396961 
L 259.734019 569.272118 
L 259.734019 567.02399 
L 266.548923 566.17697 
L 266.548923 564.029135 
L 266.921371 562.733241 
L 266.921371 552.73883 
L 269.043998 550.936285 
L 269.043998 540.867992 
L 271.312364 540.048109 
L 271.312364 539.001369 
L 275.529132 538.771397 
L 275.529132 538.771397 
L 275.529132 540.669299 
L 285.161102 541.583143 
L 285.161102 547.903907 
L 294.71962 549.349947 
L 294.71962 556.841276 
L 314.836364 557.611426 
L 314.836364 558.360386 
L 314.836364 557.872789 
L 342.090297 557.094799 
L 342.090297 552.818399 
L 342.316525 550.869578 
L 342.316525 537.966774 
L 343.614455 534.982405 
L 343.614455 515.685656 
L 347.668357 512.276064 
L 347.668357 486.089856 
L 353.921368 482.014509 
L 353.921368 453.605342 
L 360.379035 449.883469 
L 360.379035 428.867725 
L 374.692931 426.693608 
L 374.692931 417.986798 
L 421.668 417.189662 
L 421.668 415.662128 
L 477.318684 415.385275 
L 477.318684 415.074754 
L 477.451507 414.914726 
L 477.451507 414.666491 
L 478.215523 414.504729 
L 478.215523 412.100217 
L 480.623263 411.417587 
L 480.623263 405.304175 
L 484.399494 403.880983 
L 484.399494 390.202539 
L 488.376375 387.789351 
L 488.376375 372.447307 
L 497.457093 369.935926 
L 497.457093 355.084528 
L 529.53107 353.520846 
L 529.53107 347.945862 
L 616.277508 347.762474 
L 616.37076 354.516404 
L 616.907527 355.794119 
L 616.907527 362.693239 
L 618.603232 362.798463 
L 618.603232 358.640722 
L 621.275216 357.328314 
L 621.275216 345.215348 
L 624.105412 343.008005 
L 624.105412 322.283683 
L 630.628694 318.53455 
L 630.628694 289.639715 
L 654.303283 285.527841 
L 654.303283 260.661121 
L 719.70558 257.877539 
L 719.70558 245.15365 
L 809.427273 244.359095 
L 809.427273 243.562953 
L 809.427273 243.562953 
" style="fill:none;stroke:#600000;stroke-linecap:square;stroke-width:1.5;"/>
   </g>
   <g id="line2d_76">
    <path clip-path="url(#p7d8e075615)" d="M 149.972727 542.473497 
L 159.298823 541.310814 
L 159.298823 537.499965 
L 163.161818 534.992924 
L 163.161818 532.194504 
L 174.220576 529.184374 
L 174.220576 522.823753 
L 175.952223 519.600724 
L 175.952223 504.908456 
L 184.264364 502.467829 
L 184.264364 496.497997 
L 196.603205 494.995011 
L 196.603205 492.011269 
L 197.526671 491.534621 
L 197.526671 491.315145 
L 197.526671 491.631589 
L 202.530882 492.153713 
L 202.530882 497.894845 
L 215.918182 499.526357 
L 215.918182 504.810287 
L 218.426269 506.561334 
L 218.426269 509.74536 
L 219.058641 511.086362 
L 219.058641 513.733633 
L 219.058641 512.636232 
L 222.593975 511.837883 
L 222.593975 506.684243 
L 232.799588 505.564636 
L 232.799588 499.748463 
L 235.772807 498.50654 
L 235.772807 494.577767 
L 236.278172 493.217392 
L 236.278172 486.632134 
L 239.133323 485.490847 
L 239.133323 480.938388 
L 246.780655 480.830385 
L 246.780655 480.851473 
L 247.625455 480.977053 
L 247.625455 482.747958 
L 259.734019 482.940196 
L 259.734019 477.731651 
L 266.548923 476.361549 
L 266.548923 473.323256 
L 266.921371 471.705955 
L 266.921371 461.476046 
L 269.043998 459.754102 
L 269.043998 447.393601 
L 271.312364 445.547462 
L 271.312364 441.768637 
L 275.529132 439.844465 
L 275.529132 426.026942 
L 285.161102 424.06872 
L 285.161102 414.690285 
L 294.71962 412.933772 
L 294.71962 403.61348 
L 314.836364 402.305413 
L 314.836364 398.886186 
L 342.090297 397.926499 
L 342.090297 395.611987 
L 342.316525 395.035407 
L 342.316525 393.468549 
L 343.614455 393.271547 
L 343.614455 393.137817 
L 347.668357 392.975254 
L 347.668357 388.355021 
L 353.921368 387.089574 
L 353.921368 375.164581 
L 360.379035 373.257042 
L 360.379035 361.035894 
L 374.692931 359.613394 
L 374.692931 353.544283 
L 421.668 352.97071 
L 421.668 351.967835 
L 477.451507 351.832969 
L 477.451507 351.898786 
L 477.451507 352.724831 
L 478.215523 352.992208 
L 478.215523 353.776446 
L 478.215523 353.411832 
L 480.623263 353.068611 
L 480.623263 348.902237 
L 484.399494 347.898528 
L 484.399494 339.13364 
L 488.376375 337.689427 
L 488.376375 328.390671 
L 497.457093 326.779515 
L 497.457093 315.966018 
L 529.53107 314.604703 
L 529.53107 308.351966 
L 612.909818 307.7039 
L 612.909818 306.527085 
L 616.37076 306.388246 
L 616.37076 308.024374 
L 616.907527 308.604712 
L 616.907527 312.933984 
L 618.603232 313.352555 
L 618.603232 313.880805 
L 618.603232 313.224041 
L 621.275216 312.767717 
L 621.275216 306.976475 
L 624.105412 305.741392 
L 624.105412 292.800252 
L 630.628694 290.24202 
L 630.628694 268.592773 
L 654.303283 265.266915 
L 654.303283 244.175577 
L 719.70558 241.728795 
L 719.70558 230.379728 
L 809.427273 229.663174 
L 809.427273 228.944356 
L 809.427273 228.944356 
" style="fill:none;stroke:#700000;stroke-linecap:square;stroke-width:1.5;"/>
   </g>
   <g id="line2d_77">
    <path clip-path="url(#p7d8e075615)" d="M 149.972727 294.916279 
L 159.298823 294.783524 
L 159.298823 294.679452 
L 163.161818 294.551838 
L 163.161818 294.402769 
L 174.220576 294.234 
L 174.220576 293.84578 
L 175.952223 293.631274 
L 175.952223 292.445623 
L 184.264364 292.201332 
L 184.264364 291.491477 
L 196.603205 291.267494 
L 196.603205 290.642399 
L 197.526671 290.449846 
L 197.526671 289.557146 
L 202.530882 289.378225 
L 202.530882 288.343293 
L 215.918182 288.092428 
L 215.918182 287.2325 
L 218.426269 286.911271 
L 218.426269 286.229316 
L 219.058641 285.873707 
L 219.058641 283.787358 
L 222.593975 283.484848 
L 222.593975 282.342158 
L 232.799588 282.19065 
L 232.799588 281.730109 
L 235.772807 281.587871 
L 235.772807 281.549972 
L 236.278172 281.456956 
L 236.278172 281.456956 
L 239.133323 281.526521 
L 239.133323 282.20125 
L 246.780655 282.438067 
L 246.780655 283.316975 
L 247.625455 283.648754 
L 247.625455 285.47713 
L 259.734019 285.676396 
L 259.734019 285.933083 
L 259.734019 285.367791 
L 266.548923 285.163624 
L 266.548923 284.723474 
L 266.921371 284.500369 
L 266.921371 283.313599 
L 269.043998 283.153648 
L 269.043998 282.253783 
L 271.312364 282.141792 
L 271.312364 281.919045 
L 275.529132 281.808098 
L 275.529132 280.990973 
L 285.161102 280.872 
L 285.161102 280.311347 
L 294.71962 280.12593 
L 294.71962 279.807154 
L 343.614455 279.817097 
L 343.614455 280.166095 
L 347.668357 280.253421 
L 347.668357 280.160332 
L 347.668357 279.442408 
L 353.921368 279.139278 
L 353.921368 275.702706 
L 360.379035 275.070081 
L 360.379035 270.472467 
L 374.692931 269.869066 
L 374.692931 267.061729 
L 421.668 266.765202 
L 421.668 266.210581 
L 477.451507 266.120695 
L 477.451507 266.242616 
L 477.451507 266.76602 
L 478.215523 267.01372 
L 478.215523 268.862283 
L 480.623263 269.168587 
L 480.623263 270.387857 
L 484.399494 270.38267 
L 484.399494 268.496445 
L 488.376375 268.043036 
L 488.376375 264.777366 
L 497.457093 264.190666 
L 497.457093 260.455965 
L 529.53107 260.041626 
L 529.53107 258.67281 
L 612.909818 258.670951 
L 612.909818 258.741175 
L 616.277508 258.884503 
L 616.37076 262.443708 
L 616.907527 263.097991 
L 616.907527 267.218632 
L 618.603232 267.579345 
L 618.603232 268.035651 
L 618.603232 267.61968 
L 621.275216 267.304471 
L 621.275216 263.806841 
L 624.105412 263.180481 
L 624.105412 258.134948 
L 630.628694 257.323239 
L 630.628694 251.182798 
L 654.303283 250.276004 
L 654.303283 244.345424 
L 719.70558 243.621258 
L 719.70558 240.120911 
L 809.427273 239.8917 
L 809.427273 239.6602 
L 809.427273 239.6602 
" style="fill:none;stroke:#800000;stroke-linecap:square;stroke-width:1.5;"/>
   </g>
   <g id="line2d_78">
    <path clip-path="url(#p7d8e075615)" d="M 149.972727 351.096333 
L 159.298823 351.008533 
L 159.298823 350.715886 
L 163.161818 350.518093 
L 163.161818 350.292937 
L 174.220576 350.046236 
L 174.220576 349.512206 
L 175.952223 349.23694 
L 175.952223 347.952207 
L 184.264364 347.72655 
L 184.264364 347.096828 
L 196.603205 346.888889 
L 196.603205 346.193353 
L 197.526671 345.920718 
L 197.526671 344.09012 
L 202.530882 343.630306 
L 202.530882 341.040547 
L 215.918182 340.497769 
L 215.918182 338.891228 
L 218.426269 338.368353 
L 218.426269 337.354161 
L 219.058641 336.86201 
L 219.058641 334.215333 
L 222.593975 333.848816 
L 222.593975 332.550846 
L 232.799588 332.329282 
L 232.799588 332.273463 
L 232.799588 332.273463 
L 235.772807 332.355622 
L 235.772807 332.525054 
L 236.278172 332.724379 
L 236.278172 332.997887 
L 239.133323 332.915618 
L 239.133323 332.242809 
L 246.780655 332.087609 
L 246.780655 331.54224 
L 247.625455 331.322399 
L 247.625455 329.347724 
L 259.734019 328.890153 
L 259.734019 324.976429 
L 266.548923 324.392148 
L 266.548923 323.273923 
L 266.921371 322.755864 
L 266.921371 320.44174 
L 269.043998 320.199378 
L 269.043998 319.23458 
L 271.312364 319.122196 
L 271.312364 318.835202 
L 275.529132 318.648348 
L 275.529132 316.070486 
L 285.161102 315.514168 
L 285.161102 312.283176 
L 294.71962 311.598515 
L 294.71962 307.827973 
L 314.836364 307.3087 
L 314.836364 306.009485 
L 342.090297 305.666064 
L 342.090297 304.899273 
L 342.316525 304.589516 
L 342.316525 304.296673 
L 343.614455 304.176837 
L 343.614455 303.795903 
L 347.668357 303.615301 
L 347.668357 300.929812 
L 353.921368 300.329256 
L 353.921368 294.988752 
L 360.379035 294.126651 
L 360.379035 288.186159 
L 374.692931 287.416257 
L 374.692931 283.687824 
L 421.668 283.254647 
L 421.668 282.339264 
L 477.318684 282.062737 
L 477.318684 282.025321 
L 477.451507 282.025321 
L 477.451507 282.052529 
L 477.451507 282.489064 
L 478.215523 282.737937 
L 478.215523 284.84437 
L 480.623263 285.223892 
L 480.623263 286.921263 
L 484.399494 287.045195 
L 484.399494 287.039729 
L 484.399494 285.17456 
L 488.376375 284.633238 
L 488.376375 280.38769 
L 497.457093 279.573642 
L 497.457093 273.987183 
L 529.53107 273.296295 
L 529.53107 270.383295 
L 612.909818 270.158267 
L 612.909818 269.966527 
L 612.909818 269.966527 
L 616.277508 269.966527 
L 616.277508 270.00397 
L 616.37076 272.578931 
L 616.907527 273.196678 
L 616.907527 277.490046 
L 618.603232 277.917365 
L 618.603232 278.68267 
L 618.603232 278.435572 
L 621.275216 278.16758 
L 621.275216 274.526822 
L 624.105412 273.763717 
L 624.105412 266.060158 
L 630.628694 264.543559 
L 630.628694 250.955003 
L 654.303283 248.709796 
L 654.303283 233.382142 
L 719.70558 231.484764 
L 719.70558 222.38452 
L 809.427273 221.794352 
L 809.427273 221.20032 
L 809.427273 221.20032 
" style="fill:none;stroke:#8f0000;stroke-linecap:square;stroke-width:1.5;"/>
   </g>
   <g id="line2d_79">
    <path clip-path="url(#p7d8e075615)" d="M 149.972727 274.112623 
L 159.298823 274.00842 
L 159.298823 273.926115 
L 163.161818 273.824083 
L 163.161818 273.703788 
L 174.220576 273.565747 
L 174.220576 273.240667 
L 175.952223 273.055892 
L 175.952223 271.951761 
L 184.264364 271.703142 
L 184.264364 270.927743 
L 196.603205 270.664836 
L 196.603205 269.883915 
L 197.526671 269.631497 
L 197.526671 268.476233 
L 202.530882 268.268688 
L 202.530882 267.315341 
L 215.918182 267.131951 
L 215.918182 266.573694 
L 218.426269 266.382213 
L 218.426269 265.993927 
L 219.058641 265.798326 
L 219.058641 264.728729 
L 222.593975 264.587124 
L 222.593975 264.120772 
L 239.133323 264.121393 
L 239.133323 265.3309 
L 246.780655 265.632466 
L 246.780655 266.670769 
L 247.625455 267.039465 
L 247.625455 268.867728 
L 259.734019 269.140316 
L 259.734019 269.025484 
L 259.734019 268.230418 
L 266.548923 267.972402 
L 266.548923 267.427096 
L 266.921371 267.151089 
L 266.921371 265.579899 
L 269.043998 265.338128 
L 269.043998 263.785396 
L 271.312364 263.589521 
L 271.312364 263.22692 
L 275.529132 263.063988 
L 275.529132 262.308254 
L 294.71962 262.156166 
L 294.71962 262.253217 
L 342.090297 262.422598 
L 342.090297 262.504999 
L 343.614455 262.728976 
L 343.614455 262.917627 
L 347.668357 262.997038 
L 347.668357 262.928715 
L 347.668357 262.250193 
L 353.921368 261.953286 
L 353.921368 258.543354 
L 360.379035 257.9245 
L 360.379035 253.621398 
L 374.692931 253.08758 
L 374.692931 250.741946 
L 421.668 250.515202 
L 421.668 250.126491 
L 477.451507 250.096853 
L 477.451507 250.144062 
L 477.451507 250.653932 
L 478.215523 250.838684 
L 478.215523 252.045716 
L 480.623263 252.219359 
L 480.623263 252.712886 
L 480.623263 252.648086 
L 484.399494 252.543268 
L 484.399494 250.610493 
L 488.376375 250.168294 
L 488.376375 246.895205 
L 497.457093 246.289633 
L 497.457093 242.32936 
L 529.53107 241.879712 
L 529.53107 240.361866 
L 612.909818 240.350476 
L 612.909818 240.416128 
L 616.277508 240.559433 
L 616.37076 244.197819 
L 616.907527 244.853599 
L 616.907527 248.757855 
L 618.603232 249.055272 
L 618.603232 249.324976 
L 618.603232 248.649844 
L 621.275216 248.29287 
L 621.275216 244.692877 
L 624.105412 244.063184 
L 624.105412 238.795186 
L 630.628694 237.897198 
L 630.628694 230.510132 
L 654.303283 229.325083 
L 654.303283 221.001363 
L 719.70558 219.923491 
L 719.70558 214.560817 
L 809.427273 214.201619 
L 809.427273 213.83823 
L 809.427273 213.83823 
" style="fill:none;stroke:#9f0000;stroke-linecap:square;stroke-width:1.5;"/>
   </g>
   <g id="line2d_80">
    <path clip-path="url(#p7d8e075615)" d="M 149.972727 269.696828 
L 159.298823 269.590775 
L 159.298823 269.235548 
L 163.161818 268.996246 
L 163.161818 268.724258 
L 174.220576 268.426675 
L 174.220576 267.784513 
L 175.952223 267.454789 
L 175.952223 265.960321 
L 184.264364 265.722471 
L 184.264364 265.166159 
L 196.603205 264.92135 
L 196.603205 264.760779 
L 197.526671 264.596998 
L 197.526671 264.544689 
L 202.530882 264.438055 
L 202.530882 264.245004 
L 215.918182 264.045458 
L 215.918182 263.77935 
L 218.426269 263.619977 
L 218.426269 263.252543 
L 219.058641 263.04589 
L 219.058641 261.633311 
L 222.593975 261.395891 
L 222.593975 260.365777 
L 232.799588 260.199936 
L 232.799588 259.571462 
L 235.772807 259.401073 
L 235.772807 259.277196 
L 236.278172 259.206677 
L 236.278172 259.223728 
L 239.133323 259.338128 
L 239.133323 260.449245 
L 246.780655 260.73786 
L 246.780655 261.679546 
L 247.625455 261.990935 
L 247.625455 263.1074 
L 259.734019 262.988906 
L 259.734019 260.903375 
L 266.548923 260.521318 
L 266.548923 259.770472 
L 266.921371 259.415356 
L 266.921371 257.755141 
L 269.043998 257.568645 
L 269.043998 256.882864 
L 275.529132 256.711058 
L 275.529132 256.545553 
L 285.161102 256.358969 
L 285.161102 255.800434 
L 294.71962 255.629387 
L 294.71962 254.533694 
L 314.836364 254.364781 
L 314.836364 253.929348 
L 342.090297 253.712877 
L 342.090297 253.565849 
L 342.316525 253.482263 
L 342.316525 253.486703 
L 343.614455 253.611752 
L 343.614455 253.685171 
L 343.614455 253.684796 
L 347.668357 253.533925 
L 347.668357 251.851675 
L 353.921368 251.360748 
L 353.921368 246.507553 
L 360.379035 245.678799 
L 360.379035 239.792559 
L 374.692931 239.005907 
L 374.692931 235.022622 
L 421.668 234.518245 
L 421.668 233.339579 
L 477.318684 233.065083 
L 477.318684 232.702614 
L 477.451507 232.584961 
L 477.451507 232.698576 
L 478.215523 232.835248 
L 478.215523 234.443989 
L 480.623263 234.778231 
L 480.623263 236.336999 
L 484.399494 236.389254 
L 484.399494 233.136074 
L 488.376375 232.223426 
L 488.376375 224.449996 
L 497.457093 222.822806 
L 497.457093 210.145957 
L 529.53107 208.323431 
L 529.53107 198.7094 
L 612.909818 197.438695 
L 612.909818 194.352039 
L 616.277508 193.577397 
L 616.37076 191.535494 
L 616.37076 191.535494 
L 616.907527 191.662484 
L 616.907527 192.685999 
L 618.603232 192.525458 
L 618.603232 189.916107 
L 621.275216 189.062285 
L 621.275216 181.704804 
L 624.105412 180.625374 
L 624.105412 173.679898 
L 630.628694 172.757295 
L 630.628694 166.427879 
L 654.303283 165.549042 
L 654.303283 160.153842 
L 719.70558 159.550341 
L 719.70558 156.865333 
L 809.427273 156.59792 
L 809.427273 156.544453 
L 809.427273 156.544453 
" style="fill:none;stroke:#af0000;stroke-linecap:square;stroke-width:1.5;"/>
   </g>
   <g id="line2d_81">
    <path clip-path="url(#p7d8e075615)" d="M 149.972727 245.46601 
L 159.298823 245.346773 
L 159.298823 245.252143 
L 163.161818 245.134548 
L 163.161818 244.995533 
L 174.220576 244.835727 
L 174.220576 244.458611 
L 175.952223 244.244581 
L 175.952223 242.98881 
L 184.264364 242.714769 
L 184.264364 241.886306 
L 196.603205 241.614522 
L 196.603205 240.8327 
L 197.526671 240.587139 
L 197.526671 239.493021 
L 202.530882 239.299451 
L 202.530882 238.419015 
L 215.918182 238.253608 
L 215.918182 237.764804 
L 218.426269 237.603561 
L 218.426269 237.286584 
L 219.058641 237.132089 
L 219.058641 236.353402 
L 222.593975 236.181265 
L 222.593975 235.993258 
L 236.278172 235.964243 
L 236.278172 236.060053 
L 236.278172 236.119114 
L 239.133323 236.30699 
L 239.133323 237.615127 
L 246.780655 237.939918 
L 246.780655 239.007084 
L 247.625455 239.36896 
L 247.625455 240.988033 
L 259.734019 241.123643 
L 259.734019 241.033052 
L 259.734019 240.109577 
L 266.548923 239.878863 
L 266.548923 239.418229 
L 266.921371 239.198486 
L 266.921371 238.121299 
L 269.043998 237.980882 
L 269.043998 237.125013 
L 271.312364 237.00452 
L 271.312364 236.755468 
L 275.529132 236.627141 
L 275.529132 235.645572 
L 285.161102 235.500466 
L 285.161102 234.817087 
L 294.71962 234.69754 
L 294.71962 234.144498 
L 314.836364 234.010042 
L 314.836364 233.888233 
L 342.090297 233.773053 
L 342.090297 233.666409 
L 342.316525 233.520446 
L 342.316525 233.505401 
L 343.614455 233.505401 
L 343.614455 233.578513 
L 343.614455 233.683668 
L 347.668357 233.811147 
L 347.668357 233.966116 
L 347.668357 233.786491 
L 353.921368 233.646775 
L 353.921368 231.606246 
L 360.379035 231.191508 
L 360.379035 227.994431 
L 374.692931 227.548039 
L 374.692931 225.286856 
L 421.668 225.006924 
L 421.668 224.375123 
L 477.318684 224.137436 
L 477.318684 224.074421 
L 477.451507 224.047271 
L 477.451507 224.095616 
L 477.451507 224.165804 
L 478.215523 224.264066 
L 478.215523 225.241136 
L 480.623263 225.431806 
L 480.623263 226.374488 
L 484.399494 226.545759 
L 484.399494 226.389179 
L 484.399494 225.894217 
L 488.376375 225.660378 
L 488.376375 223.629893 
L 497.457093 223.208279 
L 497.457093 220.039257 
L 529.53107 219.60986 
L 529.53107 217.672414 
L 612.909818 217.403854 
L 612.909818 217.359856 
L 612.909818 217.359856 
L 616.277508 217.359856 
L 616.277508 217.468255 
L 616.37076 217.620757 
L 616.37076 219.282674 
L 616.907527 219.750352 
L 616.907527 222.958375 
L 618.603232 223.254852 
L 618.603232 223.629161 
L 618.603232 223.238172 
L 621.275216 222.962661 
L 621.275216 220.143776 
L 624.105412 219.688583 
L 624.105412 216.40627 
L 630.628694 215.906082 
L 630.628694 211.878901 
L 654.303283 211.219742 
L 654.303283 206.374901 
L 719.70558 205.718725 
L 719.70558 202.358772 
L 809.427273 202.128282 
L 809.427273 201.894298 
L 809.427273 201.894298 
" style="fill:none;stroke:#bf0000;stroke-linecap:square;stroke-width:1.5;"/>
   </g>
   <g id="line2d_82">
    <path clip-path="url(#p7d8e075615)" d="M 149.972727 117.086282 
L 159.298823 116.965106 
L 159.298823 116.871323 
L 163.161818 116.757837 
L 163.161818 116.627836 
L 174.220576 116.482878 
L 174.220576 116.158428 
L 175.952223 115.983065 
L 175.952223 115.027866 
L 184.264364 114.826251 
L 184.264364 114.208523 
L 196.603205 114.000218 
L 196.603205 113.382515 
L 197.526671 113.183217 
L 197.526671 112.310947 
L 202.530882 112.168002 
L 202.530882 111.620351 
L 215.918182 111.461534 
L 215.918182 111.32718 
L 218.426269 111.173924 
L 219.058641 111.109091 
L 219.058641 111.138452 
L 222.593975 111.241322 
L 222.593975 111.648801 
L 232.799588 111.777309 
L 232.799588 112.341078 
L 235.772807 112.425944 
L 235.772807 112.323262 
L 236.278172 112.171263 
L 236.278172 111.973611 
L 239.133323 111.973611 
L 239.133323 112.064251 
L 239.133323 112.857313 
L 246.780655 113.191397 
L 246.780655 114.467101 
L 247.625455 114.961144 
L 247.625455 117.991126 
L 259.734019 118.422408 
L 259.734019 120.215282 
L 266.921371 120.296422 
L 266.921371 120.233887 
L 266.921371 119.782521 
L 269.043998 119.58101 
L 269.043998 119.106866 
L 275.529132 118.997756 
L 275.529132 119.054414 
L 275.529132 119.160816 
L 285.161102 119.325297 
L 285.161102 119.832008 
L 294.71962 119.993912 
L 294.71962 121.107094 
L 314.836364 121.27876 
L 314.836364 121.662754 
L 342.090297 121.729911 
L 342.090297 121.701373 
L 342.090297 121.491516 
L 342.316525 121.338991 
L 342.316525 120.366476 
L 343.614455 120.183925 
L 343.614455 119.646112 
L 347.668357 119.646112 
L 347.668357 119.703963 
L 347.668357 120.039033 
L 353.921368 120.238634 
L 353.921368 120.638963 
L 360.379035 120.690644 
L 360.379035 120.603366 
L 374.692931 120.481114 
L 374.692931 120.171958 
L 421.668 120.062805 
L 421.668 119.674249 
L 477.318684 119.531621 
L 477.318684 119.245298 
L 477.451507 118.983343 
L 477.451507 118.653082 
L 478.215523 118.621363 
L 478.215523 118.680637 
L 478.215523 118.740319 
L 480.623263 118.90352 
L 480.623263 119.40934 
L 484.399494 119.592901 
L 484.399494 120.050163 
L 488.376375 120.207854 
L 488.376375 120.652448 
L 497.457093 120.805501 
L 497.457093 120.902634 
L 497.457093 120.625356 
L 529.53107 120.490648 
L 529.53107 119.477966 
L 612.909818 119.331562 
L 612.909818 119.049399 
L 616.37076 119.035891 
L 616.37076 119.090184 
L 616.37076 119.711275 
L 616.907527 119.958258 
L 616.907527 122.20037 
L 618.603232 122.521579 
L 618.603232 123.805427 
L 621.275216 123.983022 
L 621.275216 124.757592 
L 624.105412 124.857814 
L 624.105412 125.971981 
L 630.628694 126.179987 
L 630.628694 127.031756 
L 630.628694 126.90029 
L 654.303283 126.693421 
L 654.303283 123.352171 
L 719.70558 122.709379 
L 719.70558 118.966137 
L 809.427273 118.68635 
L 809.427273 118.40006 
L 809.427273 118.40006 
" style="fill:none;stroke:#cf0000;stroke-linecap:square;stroke-width:1.5;"/>
   </g>
   <g id="patch_3">
    <path d="M 117 630 
L 117 86.4 
" style="fill:none;stroke:#000000;stroke-linecap:square;stroke-linejoin:miter;stroke-width:0.8;"/>
   </g>
   <g id="patch_4">
    <path d="M 842.4 630 
L 842.4 86.4 
" style="fill:none;stroke:#000000;stroke-linecap:square;stroke-linejoin:miter;stroke-width:0.8;"/>
   </g>
   <g id="patch_5">
    <path d="M 117 630 
L 842.4 630 
" style="fill:none;stroke:#000000;stroke-linecap:square;stroke-linejoin:miter;stroke-width:0.8;"/>
   </g>
   <g id="patch_6">
    <path d="M 117 86.4 
L 842.4 86.4 
" style="fill:none;stroke:#000000;stroke-linecap:square;stroke-linejoin:miter;stroke-width:0.8;"/>
   </g>
   <g id="text_17">
    <!-- X,Y shift estimation error with regard to modality distance -->
    <defs>
     <path d="M 6.296875 72.90625 
L 16.890625 72.90625 
L 35.015625 45.796875 
L 53.21875 72.90625 
L 63.8125 72.90625 
L 40.375 37.890625 
L 65.375 0 
L 54.78125 0 
L 34.28125 31 
L 13.625 0 
L 2.984375 0 
L 29 38.921875 
z
" id="DejaVuSans-88"/>
     <path d="M 11.71875 12.40625 
L 22.015625 12.40625 
L 22.015625 4 
L 14.015625 -11.625 
L 7.71875 -11.625 
L 11.71875 4 
z
" id="DejaVuSans-44"/>
     <path d="M -0.203125 72.90625 
L 10.40625 72.90625 
L 30.609375 42.921875 
L 50.6875 72.90625 
L 61.28125 72.90625 
L 35.5 34.71875 
L 35.5 0 
L 25.59375 0 
L 25.59375 34.71875 
z
" id="DejaVuSans-89"/>
     <path d="M 4.203125 54.6875 
L 13.1875 54.6875 
L 24.421875 12.015625 
L 35.59375 54.6875 
L 46.1875 54.6875 
L 57.421875 12.015625 
L 68.609375 54.6875 
L 77.59375 54.6875 
L 63.28125 0 
L 52.6875 0 
L 40.921875 44.828125 
L 29.109375 0 
L 18.5 0 
z
" id="DejaVuSans-119"/>
    </defs>
    <g transform="translate(304.7625 80.4)scale(0.12 -0.12)">
     <use xlink:href="#DejaVuSans-88"/>
     <use x="68.505859" xlink:href="#DejaVuSans-44"/>
     <use x="100.292969" xlink:href="#DejaVuSans-89"/>
     <use x="161.376953" xlink:href="#DejaVuSans-32"/>
     <use x="193.164062" xlink:href="#DejaVuSans-115"/>
     <use x="245.263672" xlink:href="#DejaVuSans-104"/>
     <use x="308.642578" xlink:href="#DejaVuSans-105"/>
     <use x="336.425781" xlink:href="#DejaVuSans-102"/>
     <use x="371.615234" xlink:href="#DejaVuSans-116"/>
     <use x="410.824219" xlink:href="#DejaVuSans-32"/>
     <use x="442.611328" xlink:href="#DejaVuSans-101"/>
     <use x="504.134766" xlink:href="#DejaVuSans-115"/>
     <use x="556.234375" xlink:href="#DejaVuSans-116"/>
     <use x="595.443359" xlink:href="#DejaVuSans-105"/>
     <use x="623.226562" xlink:href="#DejaVuSans-109"/>
     <use x="720.638672" xlink:href="#DejaVuSans-97"/>
     <use x="781.917969" xlink:href="#DejaVuSans-116"/>
     <use x="821.126953" xlink:href="#DejaVuSans-105"/>
     <use x="848.910156" xlink:href="#DejaVuSans-111"/>
     <use x="910.091797" xlink:href="#DejaVuSans-110"/>
     <use x="973.470703" xlink:href="#DejaVuSans-32"/>
     <use x="1005.257812" xlink:href="#DejaVuSans-101"/>
     <use x="1066.78125" xlink:href="#DejaVuSans-114"/>
     <use x="1107.878906" xlink:href="#DejaVuSans-114"/>
     <use x="1148.960938" xlink:href="#DejaVuSans-111"/>
     <use x="1210.142578" xlink:href="#DejaVuSans-114"/>
     <use x="1251.255859" xlink:href="#DejaVuSans-32"/>
     <use x="1283.042969" xlink:href="#DejaVuSans-119"/>
     <use x="1364.830078" xlink:href="#DejaVuSans-105"/>
     <use x="1392.613281" xlink:href="#DejaVuSans-116"/>
     <use x="1431.822266" xlink:href="#DejaVuSans-104"/>
     <use x="1495.201172" xlink:href="#DejaVuSans-32"/>
     <use x="1526.988281" xlink:href="#DejaVuSans-114"/>
     <use x="1568.070312" xlink:href="#DejaVuSans-101"/>
     <use x="1629.59375" xlink:href="#DejaVuSans-103"/>
     <use x="1693.070312" xlink:href="#DejaVuSans-97"/>
     <use x="1754.349609" xlink:href="#DejaVuSans-114"/>
     <use x="1795.447266" xlink:href="#DejaVuSans-100"/>
     <use x="1858.923828" xlink:href="#DejaVuSans-32"/>
     <use x="1890.710938" xlink:href="#DejaVuSans-116"/>
     <use x="1929.919922" xlink:href="#DejaVuSans-111"/>
     <use x="1991.101562" xlink:href="#DejaVuSans-32"/>
     <use x="2022.888672" xlink:href="#DejaVuSans-109"/>
     <use x="2120.300781" xlink:href="#DejaVuSans-111"/>
     <use x="2181.482422" xlink:href="#DejaVuSans-100"/>
     <use x="2244.958984" xlink:href="#DejaVuSans-97"/>
     <use x="2306.238281" xlink:href="#DejaVuSans-108"/>
     <use x="2334.021484" xlink:href="#DejaVuSans-105"/>
     <use x="2361.804688" xlink:href="#DejaVuSans-116"/>
     <use x="2401.013672" xlink:href="#DejaVuSans-121"/>
     <use x="2460.193359" xlink:href="#DejaVuSans-32"/>
     <use x="2491.980469" xlink:href="#DejaVuSans-100"/>
     <use x="2555.457031" xlink:href="#DejaVuSans-105"/>
     <use x="2583.240234" xlink:href="#DejaVuSans-115"/>
     <use x="2635.339844" xlink:href="#DejaVuSans-116"/>
     <use x="2674.548828" xlink:href="#DejaVuSans-97"/>
     <use x="2735.828125" xlink:href="#DejaVuSans-110"/>
     <use x="2799.207031" xlink:href="#DejaVuSans-99"/>
     <use x="2854.1875" xlink:href="#DejaVuSans-101"/>
    </g>
   </g>
   <g id="legend_1">
    <g id="patch_7">
     <path d="M 781.134375 625 
L 835.4 625 
Q 837.4 625 837.4 623 
L 837.4 403.828125 
Q 837.4 401.828125 835.4 401.828125 
L 781.134375 401.828125 
Q 779.134375 401.828125 779.134375 403.828125 
L 779.134375 623 
Q 779.134375 625 781.134375 625 
z
" style="fill:#ffffff;opacity:0.8;stroke:#cccccc;stroke-linejoin:miter;"/>
    </g>
    <g id="text_18">
     <!-- distance -->
     <g transform="translate(787.080469 413.426563)scale(0.1 -0.1)">
      <use xlink:href="#DejaVuSans-100"/>
      <use x="63.476562" xlink:href="#DejaVuSans-105"/>
      <use x="91.259766" xlink:href="#DejaVuSans-115"/>
      <use x="143.359375" xlink:href="#DejaVuSans-116"/>
      <use x="182.568359" xlink:href="#DejaVuSans-97"/>
      <use x="243.847656" xlink:href="#DejaVuSans-110"/>
      <use x="307.226562" xlink:href="#DejaVuSans-99"/>
      <use x="362.207031" xlink:href="#DejaVuSans-101"/>
     </g>
    </g>
    <g id="line2d_83">
     <path d="M 783.134375 424.604688 
L 803.134375 424.604688 
" style="fill:none;stroke:#000000;stroke-linecap:square;stroke-width:1.5;"/>
    </g>
    <g id="line2d_84"/>
    <g id="text_19">
     <!-- 0.0 -->
     <defs>
      <path d="M 10.6875 12.40625 
L 21 12.40625 
L 21 0 
L 10.6875 0 
z
" id="DejaVuSans-46"/>
     </defs>
     <g transform="translate(811.134375 428.104688)scale(0.1 -0.1)">
      <use xlink:href="#DejaVuSans-48"/>
      <use x="63.623047" xlink:href="#DejaVuSans-46"/>
      <use x="95.410156" xlink:href="#DejaVuSans-48"/>
     </g>
    </g>
    <g id="line2d_85">
     <path d="M 783.134375 439.282813 
L 803.134375 439.282813 
" style="fill:none;stroke:#100000;stroke-linecap:square;stroke-width:1.5;"/>
    </g>
    <g id="line2d_86"/>
    <g id="text_20">
     <!-- 1.0 -->
     <g transform="translate(811.134375 442.782813)scale(0.1 -0.1)">
      <use xlink:href="#DejaVuSans-49"/>
      <use x="63.623047" xlink:href="#DejaVuSans-46"/>
      <use x="95.410156" xlink:href="#DejaVuSans-48"/>
     </g>
    </g>
    <g id="line2d_87">
     <path d="M 783.134375 453.960938 
L 803.134375 453.960938 
" style="fill:none;stroke:#200000;stroke-linecap:square;stroke-width:1.5;"/>
    </g>
    <g id="line2d_88"/>
    <g id="text_21">
     <!-- 2.0 -->
     <g transform="translate(811.134375 457.460938)scale(0.1 -0.1)">
      <use xlink:href="#DejaVuSans-50"/>
      <use x="63.623047" xlink:href="#DejaVuSans-46"/>
      <use x="95.410156" xlink:href="#DejaVuSans-48"/>
     </g>
    </g>
    <g id="line2d_89">
     <path d="M 783.134375 468.639063 
L 803.134375 468.639063 
" style="fill:none;stroke:#300000;stroke-linecap:square;stroke-width:1.5;"/>
    </g>
    <g id="line2d_90"/>
    <g id="text_22">
     <!-- 3.0 -->
     <g transform="translate(811.134375 472.139063)scale(0.1 -0.1)">
      <use xlink:href="#DejaVuSans-51"/>
      <use x="63.623047" xlink:href="#DejaVuSans-46"/>
      <use x="95.410156" xlink:href="#DejaVuSans-48"/>
     </g>
    </g>
    <g id="line2d_91">
     <path d="M 783.134375 483.317188 
L 803.134375 483.317188 
" style="fill:none;stroke:#400000;stroke-linecap:square;stroke-width:1.5;"/>
    </g>
    <g id="line2d_92"/>
    <g id="text_23">
     <!-- 4.0 -->
     <g transform="translate(811.134375 486.817188)scale(0.1 -0.1)">
      <use xlink:href="#DejaVuSans-52"/>
      <use x="63.623047" xlink:href="#DejaVuSans-46"/>
      <use x="95.410156" xlink:href="#DejaVuSans-48"/>
     </g>
    </g>
    <g id="line2d_93">
     <path d="M 783.134375 497.995313 
L 803.134375 497.995313 
" style="fill:none;stroke:#500000;stroke-linecap:square;stroke-width:1.5;"/>
    </g>
    <g id="line2d_94"/>
    <g id="text_24">
     <!-- 5.0 -->
     <g transform="translate(811.134375 501.495313)scale(0.1 -0.1)">
      <use xlink:href="#DejaVuSans-53"/>
      <use x="63.623047" xlink:href="#DejaVuSans-46"/>
      <use x="95.410156" xlink:href="#DejaVuSans-48"/>
     </g>
    </g>
    <g id="line2d_95">
     <path d="M 783.134375 512.673438 
L 803.134375 512.673438 
" style="fill:none;stroke:#600000;stroke-linecap:square;stroke-width:1.5;"/>
    </g>
    <g id="line2d_96"/>
    <g id="text_25">
     <!-- 6.0 -->
     <g transform="translate(811.134375 516.173438)scale(0.1 -0.1)">
      <use xlink:href="#DejaVuSans-54"/>
      <use x="63.623047" xlink:href="#DejaVuSans-46"/>
      <use x="95.410156" xlink:href="#DejaVuSans-48"/>
     </g>
    </g>
    <g id="line2d_97">
     <path d="M 783.134375 527.351562 
L 803.134375 527.351562 
" style="fill:none;stroke:#700000;stroke-linecap:square;stroke-width:1.5;"/>
    </g>
    <g id="line2d_98"/>
    <g id="text_26">
     <!-- 7.0 -->
     <g transform="translate(811.134375 530.851562)scale(0.1 -0.1)">
      <use xlink:href="#DejaVuSans-55"/>
      <use x="63.623047" xlink:href="#DejaVuSans-46"/>
      <use x="95.410156" xlink:href="#DejaVuSans-48"/>
     </g>
    </g>
    <g id="line2d_99">
     <path d="M 783.134375 542.029688 
L 803.134375 542.029688 
" style="fill:none;stroke:#800000;stroke-linecap:square;stroke-width:1.5;"/>
    </g>
    <g id="line2d_100"/>
    <g id="text_27">
     <!-- 8.0 -->
     <defs>
      <path d="M 31.78125 34.625 
Q 24.75 34.625 20.71875 30.859375 
Q 16.703125 27.09375 16.703125 20.515625 
Q 16.703125 13.921875 20.71875 10.15625 
Q 24.75 6.390625 31.78125 6.390625 
Q 38.8125 6.390625 42.859375 10.171875 
Q 46.921875 13.96875 46.921875 20.515625 
Q 46.921875 27.09375 42.890625 30.859375 
Q 38.875 34.625 31.78125 34.625 
z
M 21.921875 38.8125 
Q 15.578125 40.375 12.03125 44.71875 
Q 8.5 49.078125 8.5 55.328125 
Q 8.5 64.0625 14.71875 69.140625 
Q 20.953125 74.21875 31.78125 74.21875 
Q 42.671875 74.21875 48.875 69.140625 
Q 55.078125 64.0625 55.078125 55.328125 
Q 55.078125 49.078125 51.53125 44.71875 
Q 48 40.375 41.703125 38.8125 
Q 48.828125 37.15625 52.796875 32.3125 
Q 56.78125 27.484375 56.78125 20.515625 
Q 56.78125 9.90625 50.3125 4.234375 
Q 43.84375 -1.421875 31.78125 -1.421875 
Q 19.734375 -1.421875 13.25 4.234375 
Q 6.78125 9.90625 6.78125 20.515625 
Q 6.78125 27.484375 10.78125 32.3125 
Q 14.796875 37.15625 21.921875 38.8125 
z
M 18.3125 54.390625 
Q 18.3125 48.734375 21.84375 45.5625 
Q 25.390625 42.390625 31.78125 42.390625 
Q 38.140625 42.390625 41.71875 45.5625 
Q 45.3125 48.734375 45.3125 54.390625 
Q 45.3125 60.0625 41.71875 63.234375 
Q 38.140625 66.40625 31.78125 66.40625 
Q 25.390625 66.40625 21.84375 63.234375 
Q 18.3125 60.0625 18.3125 54.390625 
z
" id="DejaVuSans-56"/>
     </defs>
     <g transform="translate(811.134375 545.529688)scale(0.1 -0.1)">
      <use xlink:href="#DejaVuSans-56"/>
      <use x="63.623047" xlink:href="#DejaVuSans-46"/>
      <use x="95.410156" xlink:href="#DejaVuSans-48"/>
     </g>
    </g>
    <g id="line2d_101">
     <path d="M 783.134375 556.707813 
L 803.134375 556.707813 
" style="fill:none;stroke:#8f0000;stroke-linecap:square;stroke-width:1.5;"/>
    </g>
    <g id="line2d_102"/>
    <g id="text_28">
     <!-- 9.0 -->
     <defs>
      <path d="M 10.984375 1.515625 
L 10.984375 10.5 
Q 14.703125 8.734375 18.5 7.8125 
Q 22.3125 6.890625 25.984375 6.890625 
Q 35.75 6.890625 40.890625 13.453125 
Q 46.046875 20.015625 46.78125 33.40625 
Q 43.953125 29.203125 39.59375 26.953125 
Q 35.25 24.703125 29.984375 24.703125 
Q 19.046875 24.703125 12.671875 31.3125 
Q 6.296875 37.9375 6.296875 49.421875 
Q 6.296875 60.640625 12.9375 67.421875 
Q 19.578125 74.21875 30.609375 74.21875 
Q 43.265625 74.21875 49.921875 64.515625 
Q 56.59375 54.828125 56.59375 36.375 
Q 56.59375 19.140625 48.40625 8.859375 
Q 40.234375 -1.421875 26.421875 -1.421875 
Q 22.703125 -1.421875 18.890625 -0.6875 
Q 15.09375 0.046875 10.984375 1.515625 
z
M 30.609375 32.421875 
Q 37.25 32.421875 41.125 36.953125 
Q 45.015625 41.5 45.015625 49.421875 
Q 45.015625 57.28125 41.125 61.84375 
Q 37.25 66.40625 30.609375 66.40625 
Q 23.96875 66.40625 20.09375 61.84375 
Q 16.21875 57.28125 16.21875 49.421875 
Q 16.21875 41.5 20.09375 36.953125 
Q 23.96875 32.421875 30.609375 32.421875 
z
" id="DejaVuSans-57"/>
     </defs>
     <g transform="translate(811.134375 560.207813)scale(0.1 -0.1)">
      <use xlink:href="#DejaVuSans-57"/>
      <use x="63.623047" xlink:href="#DejaVuSans-46"/>
      <use x="95.410156" xlink:href="#DejaVuSans-48"/>
     </g>
    </g>
    <g id="line2d_103">
     <path d="M 783.134375 571.385938 
L 803.134375 571.385938 
" style="fill:none;stroke:#9f0000;stroke-linecap:square;stroke-width:1.5;"/>
    </g>
    <g id="line2d_104"/>
    <g id="text_29">
     <!-- 10.0 -->
     <g transform="translate(811.134375 574.885938)scale(0.1 -0.1)">
      <use xlink:href="#DejaVuSans-49"/>
      <use x="63.623047" xlink:href="#DejaVuSans-48"/>
      <use x="127.246094" xlink:href="#DejaVuSans-46"/>
      <use x="159.033203" xlink:href="#DejaVuSans-48"/>
     </g>
    </g>
    <g id="line2d_105">
     <path d="M 783.134375 586.064063 
L 803.134375 586.064063 
" style="fill:none;stroke:#af0000;stroke-linecap:square;stroke-width:1.5;"/>
    </g>
    <g id="line2d_106"/>
    <g id="text_30">
     <!-- 11.0 -->
     <g transform="translate(811.134375 589.564063)scale(0.1 -0.1)">
      <use xlink:href="#DejaVuSans-49"/>
      <use x="63.623047" xlink:href="#DejaVuSans-49"/>
      <use x="127.246094" xlink:href="#DejaVuSans-46"/>
      <use x="159.033203" xlink:href="#DejaVuSans-48"/>
     </g>
    </g>
    <g id="line2d_107">
     <path d="M 783.134375 600.742188 
L 803.134375 600.742188 
" style="fill:none;stroke:#bf0000;stroke-linecap:square;stroke-width:1.5;"/>
    </g>
    <g id="line2d_108"/>
    <g id="text_31">
     <!-- 12.0 -->
     <g transform="translate(811.134375 604.242188)scale(0.1 -0.1)">
      <use xlink:href="#DejaVuSans-49"/>
      <use x="63.623047" xlink:href="#DejaVuSans-50"/>
      <use x="127.246094" xlink:href="#DejaVuSans-46"/>
      <use x="159.033203" xlink:href="#DejaVuSans-48"/>
     </g>
    </g>
    <g id="line2d_109">
     <path d="M 783.134375 615.420313 
L 803.134375 615.420313 
" style="fill:none;stroke:#cf0000;stroke-linecap:square;stroke-width:1.5;"/>
    </g>
    <g id="line2d_110"/>
    <g id="text_32">
     <!-- 13.0 -->
     <g transform="translate(811.134375 618.920313)scale(0.1 -0.1)">
      <use xlink:href="#DejaVuSans-49"/>
      <use x="63.623047" xlink:href="#DejaVuSans-51"/>
      <use x="127.246094" xlink:href="#DejaVuSans-46"/>
      <use x="159.033203" xlink:href="#DejaVuSans-48"/>
     </g>
    </g>
   </g>
  </g>
 </g>
 <defs>
  <clipPath id="p7d8e075615">
   <rect height="543.6" width="725.4" x="117" y="86.4"/>
  </clipPath>
 </defs>
</svg>
