<?xml version="1.0" encoding="utf-8" standalone="no"?>
<!DOCTYPE svg PUBLIC "-//W3C//DTD SVG 1.1//EN"
  "http://www.w3.org/Graphics/SVG/1.1/DTD/svg11.dtd">
<!-- Created with matplotlib (https://matplotlib.org/) -->
<svg height="720pt" version="1.1" viewBox="0 0 936 720" width="936pt" xmlns="http://www.w3.org/2000/svg" xmlns:xlink="http://www.w3.org/1999/xlink">
 <defs>
  <style type="text/css">
*{stroke-linecap:butt;stroke-linejoin:round;}
  </style>
 </defs>
 <g id="figure_1">
  <g id="patch_1">
   <path d="M 0 720 
L 936 720 
L 936 0 
L 0 0 
z
" style="fill:#ffffff;"/>
  </g>
  <g id="axes_1">
   <g id="patch_2">
    <path d="M 117 630 
L 842.4 630 
L 842.4 86.4 
L 117 86.4 
z
" style="fill:#ffffff;"/>
   </g>
   <g id="matplotlib.axis_1">
    <g id="xtick_1">
     <g id="line2d_1">
      <defs>
       <path d="M 0 0 
L 0 3.5 
" id="m42108899c3" style="stroke:#000000;stroke-width:0.8;"/>
      </defs>
      <g>
       <use style="stroke:#000000;stroke-width:0.8;" x="149.972727" xlink:href="#m42108899c3" y="630"/>
      </g>
     </g>
     <g id="text_1">
      <!-- 0 -->
      <defs>
       <path d="M 31.78125 66.40625 
Q 24.171875 66.40625 20.328125 58.90625 
Q 16.5 51.421875 16.5 36.375 
Q 16.5 21.390625 20.328125 13.890625 
Q 24.171875 6.390625 31.78125 6.390625 
Q 39.453125 6.390625 43.28125 13.890625 
Q 47.125 21.390625 47.125 36.375 
Q 47.125 51.421875 43.28125 58.90625 
Q 39.453125 66.40625 31.78125 66.40625 
z
M 31.78125 74.21875 
Q 44.046875 74.21875 50.515625 64.515625 
Q 56.984375 54.828125 56.984375 36.375 
Q 56.984375 17.96875 50.515625 8.265625 
Q 44.046875 -1.421875 31.78125 -1.421875 
Q 19.53125 -1.421875 13.0625 8.265625 
Q 6.59375 17.96875 6.59375 36.375 
Q 6.59375 54.828125 13.0625 64.515625 
Q 19.53125 74.21875 31.78125 74.21875 
z
" id="DejaVuSans-48"/>
      </defs>
      <g transform="translate(146.791477 644.598438)scale(0.1 -0.1)">
       <use xlink:href="#DejaVuSans-48"/>
      </g>
     </g>
    </g>
    <g id="xtick_2">
     <g id="line2d_2">
      <g>
       <use style="stroke:#000000;stroke-width:0.8;" x="243.233683" xlink:href="#m42108899c3" y="630"/>
      </g>
     </g>
     <g id="text_2">
      <!-- 10 -->
      <defs>
       <path d="M 12.40625 8.296875 
L 28.515625 8.296875 
L 28.515625 63.921875 
L 10.984375 60.40625 
L 10.984375 69.390625 
L 28.421875 72.90625 
L 38.28125 72.90625 
L 38.28125 8.296875 
L 54.390625 8.296875 
L 54.390625 0 
L 12.40625 0 
z
" id="DejaVuSans-49"/>
      </defs>
      <g transform="translate(236.871183 644.598438)scale(0.1 -0.1)">
       <use xlink:href="#DejaVuSans-49"/>
       <use x="63.623047" xlink:href="#DejaVuSans-48"/>
      </g>
     </g>
    </g>
    <g id="xtick_3">
     <g id="line2d_3">
      <g>
       <use style="stroke:#000000;stroke-width:0.8;" x="336.49464" xlink:href="#m42108899c3" y="630"/>
      </g>
     </g>
     <g id="text_3">
      <!-- 20 -->
      <defs>
       <path d="M 19.1875 8.296875 
L 53.609375 8.296875 
L 53.609375 0 
L 7.328125 0 
L 7.328125 8.296875 
Q 12.9375 14.109375 22.625 23.890625 
Q 32.328125 33.6875 34.8125 36.53125 
Q 39.546875 41.84375 41.421875 45.53125 
Q 43.3125 49.21875 43.3125 52.78125 
Q 43.3125 58.59375 39.234375 62.25 
Q 35.15625 65.921875 28.609375 65.921875 
Q 23.96875 65.921875 18.8125 64.3125 
Q 13.671875 62.703125 7.8125 59.421875 
L 7.8125 69.390625 
Q 13.765625 71.78125 18.9375 73 
Q 24.125 74.21875 28.421875 74.21875 
Q 39.75 74.21875 46.484375 68.546875 
Q 53.21875 62.890625 53.21875 53.421875 
Q 53.21875 48.921875 51.53125 44.890625 
Q 49.859375 40.875 45.40625 35.40625 
Q 44.1875 33.984375 37.640625 27.21875 
Q 31.109375 20.453125 19.1875 8.296875 
z
" id="DejaVuSans-50"/>
      </defs>
      <g transform="translate(330.13214 644.598438)scale(0.1 -0.1)">
       <use xlink:href="#DejaVuSans-50"/>
       <use x="63.623047" xlink:href="#DejaVuSans-48"/>
      </g>
     </g>
    </g>
    <g id="xtick_4">
     <g id="line2d_4">
      <g>
       <use style="stroke:#000000;stroke-width:0.8;" x="429.755596" xlink:href="#m42108899c3" y="630"/>
      </g>
     </g>
     <g id="text_4">
      <!-- 30 -->
      <defs>
       <path d="M 40.578125 39.3125 
Q 47.65625 37.796875 51.625 33 
Q 55.609375 28.21875 55.609375 21.1875 
Q 55.609375 10.40625 48.1875 4.484375 
Q 40.765625 -1.421875 27.09375 -1.421875 
Q 22.515625 -1.421875 17.65625 -0.515625 
Q 12.796875 0.390625 7.625 2.203125 
L 7.625 11.71875 
Q 11.71875 9.328125 16.59375 8.109375 
Q 21.484375 6.890625 26.8125 6.890625 
Q 36.078125 6.890625 40.9375 10.546875 
Q 45.796875 14.203125 45.796875 21.1875 
Q 45.796875 27.640625 41.28125 31.265625 
Q 36.765625 34.90625 28.71875 34.90625 
L 20.21875 34.90625 
L 20.21875 43.015625 
L 29.109375 43.015625 
Q 36.375 43.015625 40.234375 45.921875 
Q 44.09375 48.828125 44.09375 54.296875 
Q 44.09375 59.90625 40.109375 62.90625 
Q 36.140625 65.921875 28.71875 65.921875 
Q 24.65625 65.921875 20.015625 65.03125 
Q 15.375 64.15625 9.8125 62.3125 
L 9.8125 71.09375 
Q 15.4375 72.65625 20.34375 73.4375 
Q 25.25 74.21875 29.59375 74.21875 
Q 40.828125 74.21875 47.359375 69.109375 
Q 53.90625 64.015625 53.90625 55.328125 
Q 53.90625 49.265625 50.4375 45.09375 
Q 46.96875 40.921875 40.578125 39.3125 
z
" id="DejaVuSans-51"/>
      </defs>
      <g transform="translate(423.393096 644.598438)scale(0.1 -0.1)">
       <use xlink:href="#DejaVuSans-51"/>
       <use x="63.623047" xlink:href="#DejaVuSans-48"/>
      </g>
     </g>
    </g>
    <g id="xtick_5">
     <g id="line2d_5">
      <g>
       <use style="stroke:#000000;stroke-width:0.8;" x="523.016552" xlink:href="#m42108899c3" y="630"/>
      </g>
     </g>
     <g id="text_5">
      <!-- 40 -->
      <defs>
       <path d="M 37.796875 64.3125 
L 12.890625 25.390625 
L 37.796875 25.390625 
z
M 35.203125 72.90625 
L 47.609375 72.90625 
L 47.609375 25.390625 
L 58.015625 25.390625 
L 58.015625 17.1875 
L 47.609375 17.1875 
L 47.609375 0 
L 37.796875 0 
L 37.796875 17.1875 
L 4.890625 17.1875 
L 4.890625 26.703125 
z
" id="DejaVuSans-52"/>
      </defs>
      <g transform="translate(516.654052 644.598438)scale(0.1 -0.1)">
       <use xlink:href="#DejaVuSans-52"/>
       <use x="63.623047" xlink:href="#DejaVuSans-48"/>
      </g>
     </g>
    </g>
    <g id="xtick_6">
     <g id="line2d_6">
      <g>
       <use style="stroke:#000000;stroke-width:0.8;" x="616.277508" xlink:href="#m42108899c3" y="630"/>
      </g>
     </g>
     <g id="text_6">
      <!-- 50 -->
      <defs>
       <path d="M 10.796875 72.90625 
L 49.515625 72.90625 
L 49.515625 64.59375 
L 19.828125 64.59375 
L 19.828125 46.734375 
Q 21.96875 47.46875 24.109375 47.828125 
Q 26.265625 48.1875 28.421875 48.1875 
Q 40.625 48.1875 47.75 41.5 
Q 54.890625 34.8125 54.890625 23.390625 
Q 54.890625 11.625 47.5625 5.09375 
Q 40.234375 -1.421875 26.90625 -1.421875 
Q 22.3125 -1.421875 17.546875 -0.640625 
Q 12.796875 0.140625 7.71875 1.703125 
L 7.71875 11.625 
Q 12.109375 9.234375 16.796875 8.0625 
Q 21.484375 6.890625 26.703125 6.890625 
Q 35.15625 6.890625 40.078125 11.328125 
Q 45.015625 15.765625 45.015625 23.390625 
Q 45.015625 31 40.078125 35.4375 
Q 35.15625 39.890625 26.703125 39.890625 
Q 22.75 39.890625 18.8125 39.015625 
Q 14.890625 38.140625 10.796875 36.28125 
z
" id="DejaVuSans-53"/>
      </defs>
      <g transform="translate(609.915008 644.598438)scale(0.1 -0.1)">
       <use xlink:href="#DejaVuSans-53"/>
       <use x="63.623047" xlink:href="#DejaVuSans-48"/>
      </g>
     </g>
    </g>
    <g id="xtick_7">
     <g id="line2d_7">
      <g>
       <use style="stroke:#000000;stroke-width:0.8;" x="709.538464" xlink:href="#m42108899c3" y="630"/>
      </g>
     </g>
     <g id="text_7">
      <!-- 60 -->
      <defs>
       <path d="M 33.015625 40.375 
Q 26.375 40.375 22.484375 35.828125 
Q 18.609375 31.296875 18.609375 23.390625 
Q 18.609375 15.53125 22.484375 10.953125 
Q 26.375 6.390625 33.015625 6.390625 
Q 39.65625 6.390625 43.53125 10.953125 
Q 47.40625 15.53125 47.40625 23.390625 
Q 47.40625 31.296875 43.53125 35.828125 
Q 39.65625 40.375 33.015625 40.375 
z
M 52.59375 71.296875 
L 52.59375 62.3125 
Q 48.875 64.0625 45.09375 64.984375 
Q 41.3125 65.921875 37.59375 65.921875 
Q 27.828125 65.921875 22.671875 59.328125 
Q 17.53125 52.734375 16.796875 39.40625 
Q 19.671875 43.65625 24.015625 45.921875 
Q 28.375 48.1875 33.59375 48.1875 
Q 44.578125 48.1875 50.953125 41.515625 
Q 57.328125 34.859375 57.328125 23.390625 
Q 57.328125 12.15625 50.6875 5.359375 
Q 44.046875 -1.421875 33.015625 -1.421875 
Q 20.359375 -1.421875 13.671875 8.265625 
Q 6.984375 17.96875 6.984375 36.375 
Q 6.984375 53.65625 15.1875 63.9375 
Q 23.390625 74.21875 37.203125 74.21875 
Q 40.921875 74.21875 44.703125 73.484375 
Q 48.484375 72.75 52.59375 71.296875 
z
" id="DejaVuSans-54"/>
      </defs>
      <g transform="translate(703.175964 644.598438)scale(0.1 -0.1)">
       <use xlink:href="#DejaVuSans-54"/>
       <use x="63.623047" xlink:href="#DejaVuSans-48"/>
      </g>
     </g>
    </g>
    <g id="xtick_8">
     <g id="line2d_8">
      <g>
       <use style="stroke:#000000;stroke-width:0.8;" x="802.799421" xlink:href="#m42108899c3" y="630"/>
      </g>
     </g>
     <g id="text_8">
      <!-- 70 -->
      <defs>
       <path d="M 8.203125 72.90625 
L 55.078125 72.90625 
L 55.078125 68.703125 
L 28.609375 0 
L 18.3125 0 
L 43.21875 64.59375 
L 8.203125 64.59375 
z
" id="DejaVuSans-55"/>
      </defs>
      <g transform="translate(796.436921 644.598438)scale(0.1 -0.1)">
       <use xlink:href="#DejaVuSans-55"/>
       <use x="63.623047" xlink:href="#DejaVuSans-48"/>
      </g>
     </g>
    </g>
    <g id="text_9">
     <!-- norm distance -&gt; sqrt(x^2 + y^2) -->
     <defs>
      <path d="M 54.890625 33.015625 
L 54.890625 0 
L 45.90625 0 
L 45.90625 32.71875 
Q 45.90625 40.484375 42.875 44.328125 
Q 39.84375 48.1875 33.796875 48.1875 
Q 26.515625 48.1875 22.3125 43.546875 
Q 18.109375 38.921875 18.109375 30.90625 
L 18.109375 0 
L 9.078125 0 
L 9.078125 54.6875 
L 18.109375 54.6875 
L 18.109375 46.1875 
Q 21.34375 51.125 25.703125 53.5625 
Q 30.078125 56 35.796875 56 
Q 45.21875 56 50.046875 50.171875 
Q 54.890625 44.34375 54.890625 33.015625 
z
" id="DejaVuSans-110"/>
      <path d="M 30.609375 48.390625 
Q 23.390625 48.390625 19.1875 42.75 
Q 14.984375 37.109375 14.984375 27.296875 
Q 14.984375 17.484375 19.15625 11.84375 
Q 23.34375 6.203125 30.609375 6.203125 
Q 37.796875 6.203125 41.984375 11.859375 
Q 46.1875 17.53125 46.1875 27.296875 
Q 46.1875 37.015625 41.984375 42.703125 
Q 37.796875 48.390625 30.609375 48.390625 
z
M 30.609375 56 
Q 42.328125 56 49.015625 48.375 
Q 55.71875 40.765625 55.71875 27.296875 
Q 55.71875 13.875 49.015625 6.21875 
Q 42.328125 -1.421875 30.609375 -1.421875 
Q 18.84375 -1.421875 12.171875 6.21875 
Q 5.515625 13.875 5.515625 27.296875 
Q 5.515625 40.765625 12.171875 48.375 
Q 18.84375 56 30.609375 56 
z
" id="DejaVuSans-111"/>
      <path d="M 41.109375 46.296875 
Q 39.59375 47.171875 37.8125 47.578125 
Q 36.03125 48 33.890625 48 
Q 26.265625 48 22.1875 43.046875 
Q 18.109375 38.09375 18.109375 28.8125 
L 18.109375 0 
L 9.078125 0 
L 9.078125 54.6875 
L 18.109375 54.6875 
L 18.109375 46.1875 
Q 20.953125 51.171875 25.484375 53.578125 
Q 30.03125 56 36.53125 56 
Q 37.453125 56 38.578125 55.875 
Q 39.703125 55.765625 41.0625 55.515625 
z
" id="DejaVuSans-114"/>
      <path d="M 52 44.1875 
Q 55.375 50.25 60.0625 53.125 
Q 64.75 56 71.09375 56 
Q 79.640625 56 84.28125 50.015625 
Q 88.921875 44.046875 88.921875 33.015625 
L 88.921875 0 
L 79.890625 0 
L 79.890625 32.71875 
Q 79.890625 40.578125 77.09375 44.375 
Q 74.3125 48.1875 68.609375 48.1875 
Q 61.625 48.1875 57.5625 43.546875 
Q 53.515625 38.921875 53.515625 30.90625 
L 53.515625 0 
L 44.484375 0 
L 44.484375 32.71875 
Q 44.484375 40.625 41.703125 44.40625 
Q 38.921875 48.1875 33.109375 48.1875 
Q 26.21875 48.1875 22.15625 43.53125 
Q 18.109375 38.875 18.109375 30.90625 
L 18.109375 0 
L 9.078125 0 
L 9.078125 54.6875 
L 18.109375 54.6875 
L 18.109375 46.1875 
Q 21.1875 51.21875 25.484375 53.609375 
Q 29.78125 56 35.6875 56 
Q 41.65625 56 45.828125 52.96875 
Q 50 49.953125 52 44.1875 
z
" id="DejaVuSans-109"/>
      <path id="DejaVuSans-32"/>
      <path d="M 45.40625 46.390625 
L 45.40625 75.984375 
L 54.390625 75.984375 
L 54.390625 0 
L 45.40625 0 
L 45.40625 8.203125 
Q 42.578125 3.328125 38.25 0.953125 
Q 33.9375 -1.421875 27.875 -1.421875 
Q 17.96875 -1.421875 11.734375 6.484375 
Q 5.515625 14.40625 5.515625 27.296875 
Q 5.515625 40.1875 11.734375 48.09375 
Q 17.96875 56 27.875 56 
Q 33.9375 56 38.25 53.625 
Q 42.578125 51.265625 45.40625 46.390625 
z
M 14.796875 27.296875 
Q 14.796875 17.390625 18.875 11.75 
Q 22.953125 6.109375 30.078125 6.109375 
Q 37.203125 6.109375 41.296875 11.75 
Q 45.40625 17.390625 45.40625 27.296875 
Q 45.40625 37.203125 41.296875 42.84375 
Q 37.203125 48.484375 30.078125 48.484375 
Q 22.953125 48.484375 18.875 42.84375 
Q 14.796875 37.203125 14.796875 27.296875 
z
" id="DejaVuSans-100"/>
      <path d="M 9.421875 54.6875 
L 18.40625 54.6875 
L 18.40625 0 
L 9.421875 0 
z
M 9.421875 75.984375 
L 18.40625 75.984375 
L 18.40625 64.59375 
L 9.421875 64.59375 
z
" id="DejaVuSans-105"/>
      <path d="M 44.28125 53.078125 
L 44.28125 44.578125 
Q 40.484375 46.53125 36.375 47.5 
Q 32.28125 48.484375 27.875 48.484375 
Q 21.1875 48.484375 17.84375 46.4375 
Q 14.5 44.390625 14.5 40.28125 
Q 14.5 37.15625 16.890625 35.375 
Q 19.28125 33.59375 26.515625 31.984375 
L 29.59375 31.296875 
Q 39.15625 29.25 43.1875 25.515625 
Q 47.21875 21.78125 47.21875 15.09375 
Q 47.21875 7.46875 41.1875 3.015625 
Q 35.15625 -1.421875 24.609375 -1.421875 
Q 20.21875 -1.421875 15.453125 -0.5625 
Q 10.6875 0.296875 5.421875 2 
L 5.421875 11.28125 
Q 10.40625 8.6875 15.234375 7.390625 
Q 20.0625 6.109375 24.8125 6.109375 
Q 31.15625 6.109375 34.5625 8.28125 
Q 37.984375 10.453125 37.984375 14.40625 
Q 37.984375 18.0625 35.515625 20.015625 
Q 33.0625 21.96875 24.703125 23.78125 
L 21.578125 24.515625 
Q 13.234375 26.265625 9.515625 29.90625 
Q 5.8125 33.546875 5.8125 39.890625 
Q 5.8125 47.609375 11.28125 51.796875 
Q 16.75 56 26.8125 56 
Q 31.78125 56 36.171875 55.265625 
Q 40.578125 54.546875 44.28125 53.078125 
z
" id="DejaVuSans-115"/>
      <path d="M 18.3125 70.21875 
L 18.3125 54.6875 
L 36.8125 54.6875 
L 36.8125 47.703125 
L 18.3125 47.703125 
L 18.3125 18.015625 
Q 18.3125 11.328125 20.140625 9.421875 
Q 21.96875 7.515625 27.59375 7.515625 
L 36.8125 7.515625 
L 36.8125 0 
L 27.59375 0 
Q 17.1875 0 13.234375 3.875 
Q 9.28125 7.765625 9.28125 18.015625 
L 9.28125 47.703125 
L 2.6875 47.703125 
L 2.6875 54.6875 
L 9.28125 54.6875 
L 9.28125 70.21875 
z
" id="DejaVuSans-116"/>
      <path d="M 34.28125 27.484375 
Q 23.390625 27.484375 19.1875 25 
Q 14.984375 22.515625 14.984375 16.5 
Q 14.984375 11.71875 18.140625 8.90625 
Q 21.296875 6.109375 26.703125 6.109375 
Q 34.1875 6.109375 38.703125 11.40625 
Q 43.21875 16.703125 43.21875 25.484375 
L 43.21875 27.484375 
z
M 52.203125 31.203125 
L 52.203125 0 
L 43.21875 0 
L 43.21875 8.296875 
Q 40.140625 3.328125 35.546875 0.953125 
Q 30.953125 -1.421875 24.3125 -1.421875 
Q 15.921875 -1.421875 10.953125 3.296875 
Q 6 8.015625 6 15.921875 
Q 6 25.140625 12.171875 29.828125 
Q 18.359375 34.515625 30.609375 34.515625 
L 43.21875 34.515625 
L 43.21875 35.40625 
Q 43.21875 41.609375 39.140625 45 
Q 35.0625 48.390625 27.6875 48.390625 
Q 23 48.390625 18.546875 47.265625 
Q 14.109375 46.140625 10.015625 43.890625 
L 10.015625 52.203125 
Q 14.9375 54.109375 19.578125 55.046875 
Q 24.21875 56 28.609375 56 
Q 40.484375 56 46.34375 49.84375 
Q 52.203125 43.703125 52.203125 31.203125 
z
" id="DejaVuSans-97"/>
      <path d="M 48.78125 52.59375 
L 48.78125 44.1875 
Q 44.96875 46.296875 41.140625 47.34375 
Q 37.3125 48.390625 33.40625 48.390625 
Q 24.65625 48.390625 19.8125 42.84375 
Q 14.984375 37.3125 14.984375 27.296875 
Q 14.984375 17.28125 19.8125 11.734375 
Q 24.65625 6.203125 33.40625 6.203125 
Q 37.3125 6.203125 41.140625 7.25 
Q 44.96875 8.296875 48.78125 10.40625 
L 48.78125 2.09375 
Q 45.015625 0.34375 40.984375 -0.53125 
Q 36.96875 -1.421875 32.421875 -1.421875 
Q 20.0625 -1.421875 12.78125 6.34375 
Q 5.515625 14.109375 5.515625 27.296875 
Q 5.515625 40.671875 12.859375 48.328125 
Q 20.21875 56 33.015625 56 
Q 37.15625 56 41.109375 55.140625 
Q 45.0625 54.296875 48.78125 52.59375 
z
" id="DejaVuSans-99"/>
      <path d="M 56.203125 29.59375 
L 56.203125 25.203125 
L 14.890625 25.203125 
Q 15.484375 15.921875 20.484375 11.0625 
Q 25.484375 6.203125 34.421875 6.203125 
Q 39.59375 6.203125 44.453125 7.46875 
Q 49.3125 8.734375 54.109375 11.28125 
L 54.109375 2.78125 
Q 49.265625 0.734375 44.1875 -0.34375 
Q 39.109375 -1.421875 33.890625 -1.421875 
Q 20.796875 -1.421875 13.15625 6.1875 
Q 5.515625 13.8125 5.515625 26.8125 
Q 5.515625 40.234375 12.765625 48.109375 
Q 20.015625 56 32.328125 56 
Q 43.359375 56 49.78125 48.890625 
Q 56.203125 41.796875 56.203125 29.59375 
z
M 47.21875 32.234375 
Q 47.125 39.59375 43.09375 43.984375 
Q 39.0625 48.390625 32.421875 48.390625 
Q 24.90625 48.390625 20.390625 44.140625 
Q 15.875 39.890625 15.1875 32.171875 
z
" id="DejaVuSans-101"/>
      <path d="M 4.890625 31.390625 
L 31.203125 31.390625 
L 31.203125 23.390625 
L 4.890625 23.390625 
z
" id="DejaVuSans-45"/>
      <path d="M 10.59375 49.21875 
L 10.59375 58.109375 
L 73.1875 35.40625 
L 73.1875 27.296875 
L 10.59375 4.59375 
L 10.59375 13.484375 
L 60.890625 31.296875 
z
" id="DejaVuSans-62"/>
      <path d="M 14.796875 27.296875 
Q 14.796875 17.390625 18.875 11.75 
Q 22.953125 6.109375 30.078125 6.109375 
Q 37.203125 6.109375 41.296875 11.75 
Q 45.40625 17.390625 45.40625 27.296875 
Q 45.40625 37.203125 41.296875 42.84375 
Q 37.203125 48.484375 30.078125 48.484375 
Q 22.953125 48.484375 18.875 42.84375 
Q 14.796875 37.203125 14.796875 27.296875 
z
M 45.40625 8.203125 
Q 42.578125 3.328125 38.25 0.953125 
Q 33.9375 -1.421875 27.875 -1.421875 
Q 17.96875 -1.421875 11.734375 6.484375 
Q 5.515625 14.40625 5.515625 27.296875 
Q 5.515625 40.1875 11.734375 48.09375 
Q 17.96875 56 27.875 56 
Q 33.9375 56 38.25 53.625 
Q 42.578125 51.265625 45.40625 46.390625 
L 45.40625 54.6875 
L 54.390625 54.6875 
L 54.390625 -20.796875 
L 45.40625 -20.796875 
z
" id="DejaVuSans-113"/>
      <path d="M 31 75.875 
Q 24.46875 64.65625 21.28125 53.65625 
Q 18.109375 42.671875 18.109375 31.390625 
Q 18.109375 20.125 21.3125 9.0625 
Q 24.515625 -2 31 -13.1875 
L 23.1875 -13.1875 
Q 15.875 -1.703125 12.234375 9.375 
Q 8.59375 20.453125 8.59375 31.390625 
Q 8.59375 42.28125 12.203125 53.3125 
Q 15.828125 64.359375 23.1875 75.875 
z
" id="DejaVuSans-40"/>
      <path d="M 54.890625 54.6875 
L 35.109375 28.078125 
L 55.90625 0 
L 45.3125 0 
L 29.390625 21.484375 
L 13.484375 0 
L 2.875 0 
L 24.125 28.609375 
L 4.6875 54.6875 
L 15.28125 54.6875 
L 29.78125 35.203125 
L 44.28125 54.6875 
z
" id="DejaVuSans-120"/>
      <path d="M 46.6875 72.90625 
L 73.1875 45.703125 
L 63.375 45.703125 
L 41.890625 64.984375 
L 20.40625 45.703125 
L 10.59375 45.703125 
L 37.109375 72.90625 
z
" id="DejaVuSans-94"/>
      <path d="M 46 62.703125 
L 46 35.5 
L 73.1875 35.5 
L 73.1875 27.203125 
L 46 27.203125 
L 46 0 
L 37.796875 0 
L 37.796875 27.203125 
L 10.59375 27.203125 
L 10.59375 35.5 
L 37.796875 35.5 
L 37.796875 62.703125 
z
" id="DejaVuSans-43"/>
      <path d="M 32.171875 -5.078125 
Q 28.375 -14.84375 24.75 -17.8125 
Q 21.140625 -20.796875 15.09375 -20.796875 
L 7.90625 -20.796875 
L 7.90625 -13.28125 
L 13.1875 -13.28125 
Q 16.890625 -13.28125 18.9375 -11.515625 
Q 21 -9.765625 23.484375 -3.21875 
L 25.09375 0.875 
L 2.984375 54.6875 
L 12.5 54.6875 
L 29.59375 11.921875 
L 46.6875 54.6875 
L 56.203125 54.6875 
z
" id="DejaVuSans-121"/>
      <path d="M 8.015625 75.875 
L 15.828125 75.875 
Q 23.140625 64.359375 26.78125 53.3125 
Q 30.421875 42.28125 30.421875 31.390625 
Q 30.421875 20.453125 26.78125 9.375 
Q 23.140625 -1.703125 15.828125 -13.1875 
L 8.015625 -13.1875 
Q 14.5 -2 17.703125 9.0625 
Q 20.90625 20.125 20.90625 31.390625 
Q 20.90625 42.671875 17.703125 53.65625 
Q 14.5 64.65625 8.015625 75.875 
z
" id="DejaVuSans-41"/>
     </defs>
     <g transform="translate(392.874219 658.276562)scale(0.1 -0.1)">
      <use xlink:href="#DejaVuSans-110"/>
      <use x="63.378906" xlink:href="#DejaVuSans-111"/>
      <use x="124.560547" xlink:href="#DejaVuSans-114"/>
      <use x="165.658203" xlink:href="#DejaVuSans-109"/>
      <use x="263.070312" xlink:href="#DejaVuSans-32"/>
      <use x="294.857422" xlink:href="#DejaVuSans-100"/>
      <use x="358.333984" xlink:href="#DejaVuSans-105"/>
      <use x="386.117188" xlink:href="#DejaVuSans-115"/>
      <use x="438.216797" xlink:href="#DejaVuSans-116"/>
      <use x="477.425781" xlink:href="#DejaVuSans-97"/>
      <use x="538.705078" xlink:href="#DejaVuSans-110"/>
      <use x="602.083984" xlink:href="#DejaVuSans-99"/>
      <use x="657.064453" xlink:href="#DejaVuSans-101"/>
      <use x="718.587891" xlink:href="#DejaVuSans-32"/>
      <use x="750.375" xlink:href="#DejaVuSans-45"/>
      <use x="786.458984" xlink:href="#DejaVuSans-62"/>
      <use x="870.248047" xlink:href="#DejaVuSans-32"/>
      <use x="902.035156" xlink:href="#DejaVuSans-115"/>
      <use x="954.134766" xlink:href="#DejaVuSans-113"/>
      <use x="1017.611328" xlink:href="#DejaVuSans-114"/>
      <use x="1058.724609" xlink:href="#DejaVuSans-116"/>
      <use x="1097.933594" xlink:href="#DejaVuSans-40"/>
      <use x="1136.947266" xlink:href="#DejaVuSans-120"/>
      <use x="1196.126953" xlink:href="#DejaVuSans-94"/>
      <use x="1279.916016" xlink:href="#DejaVuSans-50"/>
      <use x="1343.539062" xlink:href="#DejaVuSans-32"/>
      <use x="1375.326172" xlink:href="#DejaVuSans-43"/>
      <use x="1459.115234" xlink:href="#DejaVuSans-32"/>
      <use x="1490.902344" xlink:href="#DejaVuSans-121"/>
      <use x="1550.082031" xlink:href="#DejaVuSans-94"/>
      <use x="1633.871094" xlink:href="#DejaVuSans-50"/>
      <use x="1697.494141" xlink:href="#DejaVuSans-41"/>
     </g>
    </g>
   </g>
   <g id="matplotlib.axis_2">
    <g id="ytick_1">
     <g id="line2d_9">
      <defs>
       <path d="M 0 0 
L -3.5 0 
" id="m4e794ee137" style="stroke:#000000;stroke-width:0.8;"/>
      </defs>
      <g>
       <use style="stroke:#000000;stroke-width:0.8;" x="117" xlink:href="#m4e794ee137" y="572.774306"/>
      </g>
     </g>
     <g id="text_10">
      <!-- $\mathdefault{10^{0}}$ -->
      <g transform="translate(92.4 576.573524)scale(0.1 -0.1)">
       <use transform="translate(0 0.765625)" xlink:href="#DejaVuSans-49"/>
       <use transform="translate(63.623047 0.765625)" xlink:href="#DejaVuSans-48"/>
       <use transform="translate(128.203125 39.046875)scale(0.7)" xlink:href="#DejaVuSans-48"/>
      </g>
     </g>
    </g>
    <g id="ytick_2">
     <g id="line2d_10">
      <g>
       <use style="stroke:#000000;stroke-width:0.8;" x="117" xlink:href="#m4e794ee137" y="487.574148"/>
      </g>
     </g>
     <g id="text_11">
      <!-- $\mathdefault{10^{1}}$ -->
      <g transform="translate(92.4 491.373367)scale(0.1 -0.1)">
       <use transform="translate(0 0.684375)" xlink:href="#DejaVuSans-49"/>
       <use transform="translate(63.623047 0.684375)" xlink:href="#DejaVuSans-48"/>
       <use transform="translate(128.203125 38.965625)scale(0.7)" xlink:href="#DejaVuSans-49"/>
      </g>
     </g>
    </g>
    <g id="ytick_3">
     <g id="line2d_11">
      <g>
       <use style="stroke:#000000;stroke-width:0.8;" x="117" xlink:href="#m4e794ee137" y="402.37399"/>
      </g>
     </g>
     <g id="text_12">
      <!-- $\mathdefault{10^{2}}$ -->
      <g transform="translate(92.4 406.173209)scale(0.1 -0.1)">
       <use transform="translate(0 0.765625)" xlink:href="#DejaVuSans-49"/>
       <use transform="translate(63.623047 0.765625)" xlink:href="#DejaVuSans-48"/>
       <use transform="translate(128.203125 39.046875)scale(0.7)" xlink:href="#DejaVuSans-50"/>
      </g>
     </g>
    </g>
    <g id="ytick_4">
     <g id="line2d_12">
      <g>
       <use style="stroke:#000000;stroke-width:0.8;" x="117" xlink:href="#m4e794ee137" y="317.173833"/>
      </g>
     </g>
     <g id="text_13">
      <!-- $\mathdefault{10^{3}}$ -->
      <g transform="translate(92.4 320.973051)scale(0.1 -0.1)">
       <use transform="translate(0 0.765625)" xlink:href="#DejaVuSans-49"/>
       <use transform="translate(63.623047 0.765625)" xlink:href="#DejaVuSans-48"/>
       <use transform="translate(128.203125 39.046875)scale(0.7)" xlink:href="#DejaVuSans-51"/>
      </g>
     </g>
    </g>
    <g id="ytick_5">
     <g id="line2d_13">
      <g>
       <use style="stroke:#000000;stroke-width:0.8;" x="117" xlink:href="#m4e794ee137" y="231.973675"/>
      </g>
     </g>
     <g id="text_14">
      <!-- $\mathdefault{10^{4}}$ -->
      <g transform="translate(92.4 235.772894)scale(0.1 -0.1)">
       <use transform="translate(0 0.684375)" xlink:href="#DejaVuSans-49"/>
       <use transform="translate(63.623047 0.684375)" xlink:href="#DejaVuSans-48"/>
       <use transform="translate(128.203125 38.965625)scale(0.7)" xlink:href="#DejaVuSans-52"/>
      </g>
     </g>
    </g>
    <g id="ytick_6">
     <g id="line2d_14">
      <g>
       <use style="stroke:#000000;stroke-width:0.8;" x="117" xlink:href="#m4e794ee137" y="146.773517"/>
      </g>
     </g>
     <g id="text_15">
      <!-- $\mathdefault{10^{5}}$ -->
      <g transform="translate(92.4 150.572736)scale(0.1 -0.1)">
       <use transform="translate(0 0.684375)" xlink:href="#DejaVuSans-49"/>
       <use transform="translate(63.623047 0.684375)" xlink:href="#DejaVuSans-48"/>
       <use transform="translate(128.203125 38.965625)scale(0.7)" xlink:href="#DejaVuSans-53"/>
      </g>
     </g>
    </g>
    <g id="ytick_7">
     <g id="line2d_15">
      <defs>
       <path d="M 0 0 
L -2 0 
" id="m6d7ff5a8f7" style="stroke:#000000;stroke-width:0.6;"/>
      </defs>
      <g>
       <use style="stroke:#000000;stroke-width:0.6;" x="117" xlink:href="#m6d7ff5a8f7" y="617.323657"/>
      </g>
     </g>
    </g>
    <g id="ytick_8">
     <g id="line2d_16">
      <g>
       <use style="stroke:#000000;stroke-width:0.6;" x="117" xlink:href="#m6d7ff5a8f7" y="606.678857"/>
      </g>
     </g>
    </g>
    <g id="ytick_9">
     <g id="line2d_17">
      <g>
       <use style="stroke:#000000;stroke-width:0.6;" x="117" xlink:href="#m6d7ff5a8f7" y="598.422109"/>
      </g>
     </g>
    </g>
    <g id="ytick_10">
     <g id="line2d_18">
      <g>
       <use style="stroke:#000000;stroke-width:0.6;" x="117" xlink:href="#m6d7ff5a8f7" y="591.675854"/>
      </g>
     </g>
    </g>
    <g id="ytick_11">
     <g id="line2d_19">
      <g>
       <use style="stroke:#000000;stroke-width:0.6;" x="117" xlink:href="#m6d7ff5a8f7" y="585.971977"/>
      </g>
     </g>
    </g>
    <g id="ytick_12">
     <g id="line2d_20">
      <g>
       <use style="stroke:#000000;stroke-width:0.6;" x="117" xlink:href="#m6d7ff5a8f7" y="581.031054"/>
      </g>
     </g>
    </g>
    <g id="ytick_13">
     <g id="line2d_21">
      <g>
       <use style="stroke:#000000;stroke-width:0.6;" x="117" xlink:href="#m6d7ff5a8f7" y="576.672851"/>
      </g>
     </g>
    </g>
    <g id="ytick_14">
     <g id="line2d_22">
      <g>
       <use style="stroke:#000000;stroke-width:0.6;" x="117" xlink:href="#m6d7ff5a8f7" y="547.126502"/>
      </g>
     </g>
    </g>
    <g id="ytick_15">
     <g id="line2d_23">
      <g>
       <use style="stroke:#000000;stroke-width:0.6;" x="117" xlink:href="#m6d7ff5a8f7" y="532.123499"/>
      </g>
     </g>
    </g>
    <g id="ytick_16">
     <g id="line2d_24">
      <g>
       <use style="stroke:#000000;stroke-width:0.6;" x="117" xlink:href="#m6d7ff5a8f7" y="521.478699"/>
      </g>
     </g>
    </g>
    <g id="ytick_17">
     <g id="line2d_25">
      <g>
       <use style="stroke:#000000;stroke-width:0.6;" x="117" xlink:href="#m6d7ff5a8f7" y="513.221951"/>
      </g>
     </g>
    </g>
    <g id="ytick_18">
     <g id="line2d_26">
      <g>
       <use style="stroke:#000000;stroke-width:0.6;" x="117" xlink:href="#m6d7ff5a8f7" y="506.475696"/>
      </g>
     </g>
    </g>
    <g id="ytick_19">
     <g id="line2d_27">
      <g>
       <use style="stroke:#000000;stroke-width:0.6;" x="117" xlink:href="#m6d7ff5a8f7" y="500.771819"/>
      </g>
     </g>
    </g>
    <g id="ytick_20">
     <g id="line2d_28">
      <g>
       <use style="stroke:#000000;stroke-width:0.6;" x="117" xlink:href="#m6d7ff5a8f7" y="495.830896"/>
      </g>
     </g>
    </g>
    <g id="ytick_21">
     <g id="line2d_29">
      <g>
       <use style="stroke:#000000;stroke-width:0.6;" x="117" xlink:href="#m6d7ff5a8f7" y="491.472693"/>
      </g>
     </g>
    </g>
    <g id="ytick_22">
     <g id="line2d_30">
      <g>
       <use style="stroke:#000000;stroke-width:0.6;" x="117" xlink:href="#m6d7ff5a8f7" y="461.926345"/>
      </g>
     </g>
    </g>
    <g id="ytick_23">
     <g id="line2d_31">
      <g>
       <use style="stroke:#000000;stroke-width:0.6;" x="117" xlink:href="#m6d7ff5a8f7" y="446.923342"/>
      </g>
     </g>
    </g>
    <g id="ytick_24">
     <g id="line2d_32">
      <g>
       <use style="stroke:#000000;stroke-width:0.6;" x="117" xlink:href="#m6d7ff5a8f7" y="436.278542"/>
      </g>
     </g>
    </g>
    <g id="ytick_25">
     <g id="line2d_33">
      <g>
       <use style="stroke:#000000;stroke-width:0.6;" x="117" xlink:href="#m6d7ff5a8f7" y="428.021793"/>
      </g>
     </g>
    </g>
    <g id="ytick_26">
     <g id="line2d_34">
      <g>
       <use style="stroke:#000000;stroke-width:0.6;" x="117" xlink:href="#m6d7ff5a8f7" y="421.275539"/>
      </g>
     </g>
    </g>
    <g id="ytick_27">
     <g id="line2d_35">
      <g>
       <use style="stroke:#000000;stroke-width:0.6;" x="117" xlink:href="#m6d7ff5a8f7" y="415.571662"/>
      </g>
     </g>
    </g>
    <g id="ytick_28">
     <g id="line2d_36">
      <g>
       <use style="stroke:#000000;stroke-width:0.6;" x="117" xlink:href="#m6d7ff5a8f7" y="410.630739"/>
      </g>
     </g>
    </g>
    <g id="ytick_29">
     <g id="line2d_37">
      <g>
       <use style="stroke:#000000;stroke-width:0.6;" x="117" xlink:href="#m6d7ff5a8f7" y="406.272536"/>
      </g>
     </g>
    </g>
    <g id="ytick_30">
     <g id="line2d_38">
      <g>
       <use style="stroke:#000000;stroke-width:0.6;" x="117" xlink:href="#m6d7ff5a8f7" y="376.726187"/>
      </g>
     </g>
    </g>
    <g id="ytick_31">
     <g id="line2d_39">
      <g>
       <use style="stroke:#000000;stroke-width:0.6;" x="117" xlink:href="#m6d7ff5a8f7" y="361.723184"/>
      </g>
     </g>
    </g>
    <g id="ytick_32">
     <g id="line2d_40">
      <g>
       <use style="stroke:#000000;stroke-width:0.6;" x="117" xlink:href="#m6d7ff5a8f7" y="351.078384"/>
      </g>
     </g>
    </g>
    <g id="ytick_33">
     <g id="line2d_41">
      <g>
       <use style="stroke:#000000;stroke-width:0.6;" x="117" xlink:href="#m6d7ff5a8f7" y="342.821636"/>
      </g>
     </g>
    </g>
    <g id="ytick_34">
     <g id="line2d_42">
      <g>
       <use style="stroke:#000000;stroke-width:0.6;" x="117" xlink:href="#m6d7ff5a8f7" y="336.075381"/>
      </g>
     </g>
    </g>
    <g id="ytick_35">
     <g id="line2d_43">
      <g>
       <use style="stroke:#000000;stroke-width:0.6;" x="117" xlink:href="#m6d7ff5a8f7" y="330.371504"/>
      </g>
     </g>
    </g>
    <g id="ytick_36">
     <g id="line2d_44">
      <g>
       <use style="stroke:#000000;stroke-width:0.6;" x="117" xlink:href="#m6d7ff5a8f7" y="325.430581"/>
      </g>
     </g>
    </g>
    <g id="ytick_37">
     <g id="line2d_45">
      <g>
       <use style="stroke:#000000;stroke-width:0.6;" x="117" xlink:href="#m6d7ff5a8f7" y="321.072378"/>
      </g>
     </g>
    </g>
    <g id="ytick_38">
     <g id="line2d_46">
      <g>
       <use style="stroke:#000000;stroke-width:0.6;" x="117" xlink:href="#m6d7ff5a8f7" y="291.52603"/>
      </g>
     </g>
    </g>
    <g id="ytick_39">
     <g id="line2d_47">
      <g>
       <use style="stroke:#000000;stroke-width:0.6;" x="117" xlink:href="#m6d7ff5a8f7" y="276.523027"/>
      </g>
     </g>
    </g>
    <g id="ytick_40">
     <g id="line2d_48">
      <g>
       <use style="stroke:#000000;stroke-width:0.6;" x="117" xlink:href="#m6d7ff5a8f7" y="265.878226"/>
      </g>
     </g>
    </g>
    <g id="ytick_41">
     <g id="line2d_49">
      <g>
       <use style="stroke:#000000;stroke-width:0.6;" x="117" xlink:href="#m6d7ff5a8f7" y="257.621478"/>
      </g>
     </g>
    </g>
    <g id="ytick_42">
     <g id="line2d_50">
      <g>
       <use style="stroke:#000000;stroke-width:0.6;" x="117" xlink:href="#m6d7ff5a8f7" y="250.875223"/>
      </g>
     </g>
    </g>
    <g id="ytick_43">
     <g id="line2d_51">
      <g>
       <use style="stroke:#000000;stroke-width:0.6;" x="117" xlink:href="#m6d7ff5a8f7" y="245.171346"/>
      </g>
     </g>
    </g>
    <g id="ytick_44">
     <g id="line2d_52">
      <g>
       <use style="stroke:#000000;stroke-width:0.6;" x="117" xlink:href="#m6d7ff5a8f7" y="240.230423"/>
      </g>
     </g>
    </g>
    <g id="ytick_45">
     <g id="line2d_53">
      <g>
       <use style="stroke:#000000;stroke-width:0.6;" x="117" xlink:href="#m6d7ff5a8f7" y="235.87222"/>
      </g>
     </g>
    </g>
    <g id="ytick_46">
     <g id="line2d_54">
      <g>
       <use style="stroke:#000000;stroke-width:0.6;" x="117" xlink:href="#m6d7ff5a8f7" y="206.325872"/>
      </g>
     </g>
    </g>
    <g id="ytick_47">
     <g id="line2d_55">
      <g>
       <use style="stroke:#000000;stroke-width:0.6;" x="117" xlink:href="#m6d7ff5a8f7" y="191.322869"/>
      </g>
     </g>
    </g>
    <g id="ytick_48">
     <g id="line2d_56">
      <g>
       <use style="stroke:#000000;stroke-width:0.6;" x="117" xlink:href="#m6d7ff5a8f7" y="180.678069"/>
      </g>
     </g>
    </g>
    <g id="ytick_49">
     <g id="line2d_57">
      <g>
       <use style="stroke:#000000;stroke-width:0.6;" x="117" xlink:href="#m6d7ff5a8f7" y="172.42132"/>
      </g>
     </g>
    </g>
    <g id="ytick_50">
     <g id="line2d_58">
      <g>
       <use style="stroke:#000000;stroke-width:0.6;" x="117" xlink:href="#m6d7ff5a8f7" y="165.675066"/>
      </g>
     </g>
    </g>
    <g id="ytick_51">
     <g id="line2d_59">
      <g>
       <use style="stroke:#000000;stroke-width:0.6;" x="117" xlink:href="#m6d7ff5a8f7" y="159.971189"/>
      </g>
     </g>
    </g>
    <g id="ytick_52">
     <g id="line2d_60">
      <g>
       <use style="stroke:#000000;stroke-width:0.6;" x="117" xlink:href="#m6d7ff5a8f7" y="155.030266"/>
      </g>
     </g>
    </g>
    <g id="ytick_53">
     <g id="line2d_61">
      <g>
       <use style="stroke:#000000;stroke-width:0.6;" x="117" xlink:href="#m6d7ff5a8f7" y="150.672063"/>
      </g>
     </g>
    </g>
    <g id="ytick_54">
     <g id="line2d_62">
      <g>
       <use style="stroke:#000000;stroke-width:0.6;" x="117" xlink:href="#m6d7ff5a8f7" y="121.125714"/>
      </g>
     </g>
    </g>
    <g id="ytick_55">
     <g id="line2d_63">
      <g>
       <use style="stroke:#000000;stroke-width:0.6;" x="117" xlink:href="#m6d7ff5a8f7" y="106.122711"/>
      </g>
     </g>
    </g>
    <g id="ytick_56">
     <g id="line2d_64">
      <g>
       <use style="stroke:#000000;stroke-width:0.6;" x="117" xlink:href="#m6d7ff5a8f7" y="95.477911"/>
      </g>
     </g>
    </g>
    <g id="ytick_57">
     <g id="line2d_65">
      <g>
       <use style="stroke:#000000;stroke-width:0.6;" x="117" xlink:href="#m6d7ff5a8f7" y="87.221163"/>
      </g>
     </g>
    </g>
    <g id="text_16">
     <!-- log(sum(|expected_shift - real_shift|)) over 20 runs -->
     <defs>
      <path d="M 9.421875 75.984375 
L 18.40625 75.984375 
L 18.40625 0 
L 9.421875 0 
z
" id="DejaVuSans-108"/>
      <path d="M 45.40625 27.984375 
Q 45.40625 37.75 41.375 43.109375 
Q 37.359375 48.484375 30.078125 48.484375 
Q 22.859375 48.484375 18.828125 43.109375 
Q 14.796875 37.75 14.796875 27.984375 
Q 14.796875 18.265625 18.828125 12.890625 
Q 22.859375 7.515625 30.078125 7.515625 
Q 37.359375 7.515625 41.375 12.890625 
Q 45.40625 18.265625 45.40625 27.984375 
z
M 54.390625 6.78125 
Q 54.390625 -7.171875 48.1875 -13.984375 
Q 42 -20.796875 29.203125 -20.796875 
Q 24.46875 -20.796875 20.265625 -20.09375 
Q 16.0625 -19.390625 12.109375 -17.921875 
L 12.109375 -9.1875 
Q 16.0625 -11.328125 19.921875 -12.34375 
Q 23.78125 -13.375 27.78125 -13.375 
Q 36.625 -13.375 41.015625 -8.765625 
Q 45.40625 -4.15625 45.40625 5.171875 
L 45.40625 9.625 
Q 42.625 4.78125 38.28125 2.390625 
Q 33.9375 0 27.875 0 
Q 17.828125 0 11.671875 7.65625 
Q 5.515625 15.328125 5.515625 27.984375 
Q 5.515625 40.671875 11.671875 48.328125 
Q 17.828125 56 27.875 56 
Q 33.9375 56 38.28125 53.609375 
Q 42.625 51.21875 45.40625 46.390625 
L 45.40625 54.6875 
L 54.390625 54.6875 
z
" id="DejaVuSans-103"/>
      <path d="M 8.5 21.578125 
L 8.5 54.6875 
L 17.484375 54.6875 
L 17.484375 21.921875 
Q 17.484375 14.15625 20.5 10.265625 
Q 23.53125 6.390625 29.59375 6.390625 
Q 36.859375 6.390625 41.078125 11.03125 
Q 45.3125 15.671875 45.3125 23.6875 
L 45.3125 54.6875 
L 54.296875 54.6875 
L 54.296875 0 
L 45.3125 0 
L 45.3125 8.40625 
Q 42.046875 3.421875 37.71875 1 
Q 33.40625 -1.421875 27.6875 -1.421875 
Q 18.265625 -1.421875 13.375 4.4375 
Q 8.5 10.296875 8.5 21.578125 
z
M 31.109375 56 
z
" id="DejaVuSans-117"/>
      <path d="M 21 76.421875 
L 21 -23.578125 
L 12.703125 -23.578125 
L 12.703125 76.421875 
z
" id="DejaVuSans-124"/>
      <path d="M 18.109375 8.203125 
L 18.109375 -20.796875 
L 9.078125 -20.796875 
L 9.078125 54.6875 
L 18.109375 54.6875 
L 18.109375 46.390625 
Q 20.953125 51.265625 25.265625 53.625 
Q 29.59375 56 35.59375 56 
Q 45.5625 56 51.78125 48.09375 
Q 58.015625 40.1875 58.015625 27.296875 
Q 58.015625 14.40625 51.78125 6.484375 
Q 45.5625 -1.421875 35.59375 -1.421875 
Q 29.59375 -1.421875 25.265625 0.953125 
Q 20.953125 3.328125 18.109375 8.203125 
z
M 48.6875 27.296875 
Q 48.6875 37.203125 44.609375 42.84375 
Q 40.53125 48.484375 33.40625 48.484375 
Q 26.265625 48.484375 22.1875 42.84375 
Q 18.109375 37.203125 18.109375 27.296875 
Q 18.109375 17.390625 22.1875 11.75 
Q 26.265625 6.109375 33.40625 6.109375 
Q 40.53125 6.109375 44.609375 11.75 
Q 48.6875 17.390625 48.6875 27.296875 
z
" id="DejaVuSans-112"/>
      <path d="M 50.984375 -16.609375 
L 50.984375 -23.578125 
L -0.984375 -23.578125 
L -0.984375 -16.609375 
z
" id="DejaVuSans-95"/>
      <path d="M 54.890625 33.015625 
L 54.890625 0 
L 45.90625 0 
L 45.90625 32.71875 
Q 45.90625 40.484375 42.875 44.328125 
Q 39.84375 48.1875 33.796875 48.1875 
Q 26.515625 48.1875 22.3125 43.546875 
Q 18.109375 38.921875 18.109375 30.90625 
L 18.109375 0 
L 9.078125 0 
L 9.078125 75.984375 
L 18.109375 75.984375 
L 18.109375 46.1875 
Q 21.34375 51.125 25.703125 53.5625 
Q 30.078125 56 35.796875 56 
Q 45.21875 56 50.046875 50.171875 
Q 54.890625 44.34375 54.890625 33.015625 
z
" id="DejaVuSans-104"/>
      <path d="M 37.109375 75.984375 
L 37.109375 68.5 
L 28.515625 68.5 
Q 23.6875 68.5 21.796875 66.546875 
Q 19.921875 64.59375 19.921875 59.515625 
L 19.921875 54.6875 
L 34.71875 54.6875 
L 34.71875 47.703125 
L 19.921875 47.703125 
L 19.921875 0 
L 10.890625 0 
L 10.890625 47.703125 
L 2.296875 47.703125 
L 2.296875 54.6875 
L 10.890625 54.6875 
L 10.890625 58.5 
Q 10.890625 67.625 15.140625 71.796875 
Q 19.390625 75.984375 28.609375 75.984375 
z
" id="DejaVuSans-102"/>
      <path d="M 2.984375 54.6875 
L 12.5 54.6875 
L 29.59375 8.796875 
L 46.6875 54.6875 
L 56.203125 54.6875 
L 35.6875 0 
L 23.484375 0 
z
" id="DejaVuSans-118"/>
     </defs>
     <g transform="translate(86.042187 485.492188)rotate(-90)scale(0.1 -0.1)">
      <use xlink:href="#DejaVuSans-108"/>
      <use x="27.783203" xlink:href="#DejaVuSans-111"/>
      <use x="88.964844" xlink:href="#DejaVuSans-103"/>
      <use x="152.441406" xlink:href="#DejaVuSans-40"/>
      <use x="191.455078" xlink:href="#DejaVuSans-115"/>
      <use x="243.554688" xlink:href="#DejaVuSans-117"/>
      <use x="306.933594" xlink:href="#DejaVuSans-109"/>
      <use x="404.345703" xlink:href="#DejaVuSans-40"/>
      <use x="443.359375" xlink:href="#DejaVuSans-124"/>
      <use x="477.050781" xlink:href="#DejaVuSans-101"/>
      <use x="538.558594" xlink:href="#DejaVuSans-120"/>
      <use x="597.738281" xlink:href="#DejaVuSans-112"/>
      <use x="661.214844" xlink:href="#DejaVuSans-101"/>
      <use x="722.738281" xlink:href="#DejaVuSans-99"/>
      <use x="777.71875" xlink:href="#DejaVuSans-116"/>
      <use x="816.927734" xlink:href="#DejaVuSans-101"/>
      <use x="878.451172" xlink:href="#DejaVuSans-100"/>
      <use x="941.927734" xlink:href="#DejaVuSans-95"/>
      <use x="991.927734" xlink:href="#DejaVuSans-115"/>
      <use x="1044.027344" xlink:href="#DejaVuSans-104"/>
      <use x="1107.40625" xlink:href="#DejaVuSans-105"/>
      <use x="1135.189453" xlink:href="#DejaVuSans-102"/>
      <use x="1170.378906" xlink:href="#DejaVuSans-116"/>
      <use x="1209.587891" xlink:href="#DejaVuSans-32"/>
      <use x="1241.375" xlink:href="#DejaVuSans-45"/>
      <use x="1277.458984" xlink:href="#DejaVuSans-32"/>
      <use x="1309.246094" xlink:href="#DejaVuSans-114"/>
      <use x="1350.328125" xlink:href="#DejaVuSans-101"/>
      <use x="1411.851562" xlink:href="#DejaVuSans-97"/>
      <use x="1473.130859" xlink:href="#DejaVuSans-108"/>
      <use x="1500.914062" xlink:href="#DejaVuSans-95"/>
      <use x="1550.914062" xlink:href="#DejaVuSans-115"/>
      <use x="1603.013672" xlink:href="#DejaVuSans-104"/>
      <use x="1666.392578" xlink:href="#DejaVuSans-105"/>
      <use x="1694.175781" xlink:href="#DejaVuSans-102"/>
      <use x="1729.365234" xlink:href="#DejaVuSans-116"/>
      <use x="1768.574219" xlink:href="#DejaVuSans-124"/>
      <use x="1802.265625" xlink:href="#DejaVuSans-41"/>
      <use x="1841.279297" xlink:href="#DejaVuSans-41"/>
      <use x="1880.292969" xlink:href="#DejaVuSans-32"/>
      <use x="1912.080078" xlink:href="#DejaVuSans-111"/>
      <use x="1973.261719" xlink:href="#DejaVuSans-118"/>
      <use x="2032.441406" xlink:href="#DejaVuSans-101"/>
      <use x="2093.964844" xlink:href="#DejaVuSans-114"/>
      <use x="2135.078125" xlink:href="#DejaVuSans-32"/>
      <use x="2166.865234" xlink:href="#DejaVuSans-50"/>
      <use x="2230.488281" xlink:href="#DejaVuSans-48"/>
      <use x="2294.111328" xlink:href="#DejaVuSans-32"/>
      <use x="2325.898438" xlink:href="#DejaVuSans-114"/>
      <use x="2367.011719" xlink:href="#DejaVuSans-117"/>
      <use x="2430.390625" xlink:href="#DejaVuSans-110"/>
      <use x="2493.769531" xlink:href="#DejaVuSans-115"/>
     </g>
    </g>
   </g>
   <g id="line2d_66">
    <path clip-path="url(#p8e0825452a)" d="M 149.972727 605.290909 
L 159.298823 605.122153 
L 159.298823 604.992907 
L 163.161818 604.83858 
L 163.161818 604.664195 
L 174.220576 604.47416 
L 174.220576 604.067477 
L 175.952223 603.861128 
L 175.952223 602.967589 
L 184.264364 602.727222 
L 184.264364 602.568646 
L 202.530882 602.57722 
L 202.530882 602.605025 
L 202.530882 602.643986 
L 202.530882 602.595883 
L 215.918182 602.481474 
L 215.918182 602.298355 
L 218.426269 602.182499 
L 218.426269 601.910579 
L 219.058641 601.759199 
L 219.058641 600.833692 
L 222.593975 600.7039 
L 222.593975 600.199436 
L 232.799588 600.023402 
L 232.799588 599.473723 
L 235.772807 599.253503 
L 235.772807 598.280321 
L 236.278172 597.829831 
L 236.278172 594.395075 
L 239.133323 593.447344 
L 239.133323 584.545177 
L 246.780655 583.057668 
L 246.780655 578.633169 
L 247.625455 577.242066 
L 247.625455 571.207906 
L 259.734019 570.743844 
L 259.734019 570.381369 
L 259.734019 571.283786 
L 266.548923 571.967567 
L 266.548923 573.855254 
L 266.921371 575.028981 
L 266.921371 583.667039 
L 269.043998 585.028612 
L 269.043998 588.606223 
L 269.043998 586.579243 
L 271.312364 585.294932 
L 271.312364 582.103752 
L 275.529132 580.290167 
L 275.529132 567.641475 
L 285.161102 566.26321 
L 285.161102 562.324312 
L 294.71962 562.196876 
L 294.71962 562.287599 
L 294.71962 563.829572 
L 314.836364 564.664394 
L 314.836364 567.981897 
L 342.090297 569.170638 
L 342.090297 572.040977 
L 342.316525 571.836285 
L 342.316525 560.264171 
L 343.614455 556.36048 
L 343.614455 527.593588 
L 347.668357 522.481868 
L 347.668357 488.086924 
L 353.921368 483.529931 
L 353.921368 455.452653 
L 360.379035 452.099163 
L 360.379035 434.504432 
L 374.692931 432.923516 
L 374.692931 428.818615 
L 421.668 428.818615 
L 421.668 428.818615 
L 421.668 429.529592 
L 477.318684 430.252281 
L 477.318684 432.428713 
L 477.451507 433.850611 
L 477.451507 443.264772 
L 478.215523 445.317537 
L 478.215523 451.517518 
L 478.215523 449.582178 
L 480.623263 447.366059 
L 480.623263 422.980619 
L 484.399494 417.906868 
L 484.399494 382.411659 
L 488.376375 377.720227 
L 488.376375 353.283435 
L 497.457093 349.932636 
L 497.457093 333.334311 
L 529.53107 332.017215 
L 529.53107 329.570958 
L 529.53107 329.570958 
L 612.909818 329.681178 
L 612.909818 331.776587 
L 616.277508 333.065154 
L 616.37076 353.447032 
L 616.907527 357.072221 
L 616.907527 383.481706 
L 618.603232 386.372662 
L 618.603232 391.442376 
L 618.603232 388.642844 
L 621.275216 386.359692 
L 621.275216 361.956881 
L 624.105412 357.948023 
L 624.105412 330.73781 
L 630.628694 327.135901 
L 630.628694 304.900423 
L 654.303283 302.185666 
L 654.303283 286.760088 
L 719.70558 285.097099 
L 719.70558 277.566121 
L 809.427273 277.098221 
L 809.427273 276.629612 
L 809.427273 276.629612 
" style="fill:none;stroke:#000000;stroke-linecap:square;stroke-width:1.5;"/>
   </g>
   <g id="line2d_67">
    <path clip-path="url(#p8e0825452a)" d="M 149.972727 605.105598 
L 159.298823 604.936596 
L 159.298823 604.367638 
L 163.161818 603.981348 
L 163.161818 603.539342 
L 174.220576 603.051085 
L 174.220576 601.977739 
L 175.952223 601.413656 
L 175.952223 598.682188 
L 184.264364 598.205271 
L 184.264364 597.005372 
L 196.603205 596.691641 
L 196.603205 596.026802 
L 197.526671 595.812427 
L 197.526671 595.771839 
L 197.526671 595.771839 
L 202.530882 595.887366 
L 202.530882 596.48569 
L 215.918182 596.690338 
L 215.918182 597.36391 
L 218.426269 597.593446 
L 218.426269 598.031195 
L 219.058641 598.231 
L 219.058641 598.961598 
L 222.593975 598.877325 
L 222.593975 598.316241 
L 232.799588 598.104753 
L 232.799588 596.698849 
L 235.772807 596.366481 
L 235.772807 595.349945 
L 236.278172 595.026203 
L 236.278172 593.844766 
L 239.133323 593.70342 
L 239.133323 593.807762 
L 239.133323 594.161362 
L 246.780655 594.426863 
L 246.780655 595.496695 
L 247.625455 595.914981 
L 247.625455 598.239237 
L 259.734019 598.491012 
L 259.734019 598.810989 
L 259.734019 597.839271 
L 266.548923 597.470431 
L 266.548923 596.520779 
L 266.921371 595.934587 
L 266.921371 589.464248 
L 269.043998 587.638531 
L 269.043998 567.244226 
L 271.312364 563.529312 
L 271.312364 555.93403 
L 275.529132 552.150202 
L 275.529132 529.319974 
L 285.161102 526.863907 
L 285.161102 518.257097 
L 294.71962 517.276092 
L 294.71962 515.655157 
L 294.71962 515.655157 
L 314.836364 515.778495 
L 314.836364 517.21546 
L 342.090297 517.998679 
L 342.090297 520.961212 
L 342.316525 522.094583 
L 342.316525 527.532449 
L 343.614455 528.275362 
L 343.614455 528.841279 
L 343.614455 523.183584 
L 347.668357 520.642314 
L 347.668357 493.754322 
L 353.921368 489.286398 
L 353.921368 460.333622 
L 360.379035 456.886654 
L 360.379035 439.772494 
L 374.692931 438.408363 
L 374.692931 435.714233 
L 374.692931 435.714233 
L 421.668 435.720121 
L 421.668 437.265 
L 477.318684 438.237586 
L 477.318684 440.797491 
L 477.451507 442.326933 
L 477.451507 450.732179 
L 478.215523 452.143446 
L 478.215523 454.039511 
L 478.215523 447.722504 
L 480.623263 444.775932 
L 480.623263 420.0322 
L 484.399494 415.270419 
L 484.399494 381.964662 
L 488.376375 377.510741 
L 488.376375 354.116509 
L 497.457093 350.890911 
L 497.457093 334.929857 
L 529.53107 333.676783 
L 529.53107 331.432574 
L 529.53107 331.432574 
L 612.909818 331.580766 
L 612.909818 333.764773 
L 616.277508 335.076253 
L 616.37076 355.737549 
L 616.907527 359.459266 
L 616.907527 387.869388 
L 618.603232 391.251342 
L 618.603232 397.853648 
L 618.603232 395.629845 
L 621.275216 393.263027 
L 621.275216 367.87059 
L 624.105412 363.749486 
L 624.105412 335.047463 
L 630.628694 331.042593 
L 630.628694 304.583651 
L 654.303283 301.138276 
L 654.303283 280.813469 
L 719.70558 278.562318 
L 719.70558 268.277531 
L 809.427273 267.634867 
L 809.427273 266.990821 
L 809.427273 266.990821 
" style="fill:none;stroke:#100000;stroke-linecap:square;stroke-width:1.5;"/>
   </g>
   <g id="line2d_68">
    <path clip-path="url(#p8e0825452a)" d="M 149.972727 602.6128 
L 163.161818 602.708687 
L 163.161818 602.76682 
L 174.220576 602.901279 
L 174.220576 602.96953 
L 175.952223 603.124264 
L 175.952223 602.984996 
L 184.264364 602.879547 
L 184.264364 602.426402 
L 196.603205 602.240634 
L 196.603205 601.635704 
L 197.526671 601.433169 
L 197.526671 600.572732 
L 202.530882 600.444113 
L 202.530882 600.016551 
L 215.918182 599.883231 
L 215.918182 599.851693 
L 222.593975 599.857924 
L 222.593975 600.095307 
L 232.799588 600.170724 
L 232.799588 600.036773 
L 232.799588 599.930254 
L 235.772807 599.794808 
L 235.772807 599.238689 
L 236.278172 599.017954 
L 236.278172 597.943726 
L 239.133323 597.786636 
L 239.133323 597.540725 
L 239.133323 597.596593 
L 246.780655 597.692322 
L 246.780655 598.213957 
L 247.625455 598.449651 
L 247.625455 599.995394 
L 259.734019 600.207765 
L 259.734019 600.807291 
L 259.734019 600.734378 
L 266.548923 600.553802 
L 266.548923 600.433366 
L 266.921371 600.29642 
L 266.921371 599.110474 
L 269.043998 598.852279 
L 269.043998 596.701097 
L 271.312364 596.381533 
L 271.312364 595.7775 
L 275.529132 595.503719 
L 275.529132 594.512232 
L 285.161102 594.512232 
L 285.161102 594.602841 
L 285.161102 594.858125 
L 294.71962 595.039461 
L 294.71962 596.367363 
L 314.836364 596.627442 
L 314.836364 596.469664 
L 314.836364 596.184211 
L 342.090297 595.751053 
L 342.090297 593.104428 
L 342.316525 591.766816 
L 342.316525 580.156489 
L 343.614455 576.795779 
L 343.614455 550.249232 
L 347.668357 545.203524 
L 347.668357 509.989957 
L 353.921368 505.28221 
L 353.921368 476.298455 
L 360.379035 472.799536 
L 360.379035 453.582995 
L 374.692931 451.666821 
L 374.692931 444.99308 
L 421.668 444.637642 
L 421.668 444.637642 
L 477.318684 444.782738 
L 477.318684 445.706955 
L 477.451507 446.443472 
L 477.451507 451.755643 
L 478.215523 452.862473 
L 478.215523 455.189244 
L 478.215523 451.755235 
L 480.623263 449.597716 
L 480.623263 427.317367 
L 484.399494 422.511599 
L 484.399494 386.941555 
L 488.376375 382.052584 
L 488.376375 356.183819 
L 497.457093 352.589654 
L 497.457093 334.426062 
L 529.53107 332.906332 
L 529.53107 329.631367 
L 529.53107 329.631367 
L 612.909818 329.631367 
L 612.909818 331.232498 
L 616.277508 332.372415 
L 616.37076 352.23328 
L 616.907527 355.953068 
L 616.907527 385.20609 
L 618.603232 388.773855 
L 618.603232 395.516594 
L 618.603232 392.112061 
L 621.275216 389.302148 
L 621.275216 361.778524 
L 624.105412 357.557384 
L 624.105412 329.090985 
L 630.628694 325.199147 
L 630.628694 299.386282 
L 654.303283 295.969501 
L 654.303283 275.328859 
L 719.70558 272.984857 
L 719.70558 262.118192 
L 809.427273 261.430597 
L 809.427273 260.740493 
L 809.427273 260.740493 
" style="fill:none;stroke:#200000;stroke-linecap:square;stroke-width:1.5;"/>
   </g>
   <g id="line2d_69">
    <path clip-path="url(#p8e0825452a)" d="M 149.972727 598.626067 
L 159.298823 598.505629 
L 159.298823 598.107055 
L 163.161818 597.841626 
L 163.161818 597.543608 
L 174.220576 597.221223 
L 174.220576 596.537158 
L 175.952223 596.190214 
L 175.952223 594.613374 
L 184.264364 594.346864 
L 184.264364 593.651093 
L 196.603205 593.452083 
L 196.603205 592.947965 
L 197.526671 592.811882 
L 197.526671 592.426571 
L 202.530882 592.417587 
L 202.530882 592.474071 
L 202.530882 592.537323 
L 215.918182 592.727545 
L 215.918182 592.979946 
L 218.426269 593.118201 
L 218.426269 593.391166 
L 219.058641 593.623836 
L 219.058641 593.771162 
L 219.058641 593.564939 
L 222.593975 593.410579 
L 222.593975 592.122774 
L 232.799588 591.777275 
L 232.799588 589.780354 
L 235.772807 589.352175 
L 235.772807 588.092816 
L 236.278172 587.701298 
L 236.278172 586.245202 
L 239.133323 586.008461 
L 239.133323 585.981521 
L 239.133323 586.275559 
L 246.780655 586.492451 
L 246.780655 587.424539 
L 247.625455 587.804051 
L 247.625455 590.131361 
L 259.734019 590.45058 
L 259.734019 591.764577 
L 266.548923 591.932503 
L 266.548923 592.003675 
L 266.921371 592.168879 
L 266.921371 592.053947 
L 266.921371 591.910754 
L 269.043998 591.687379 
L 269.043998 585.726606 
L 271.312364 583.930953 
L 271.312364 579.483723 
L 275.529132 576.851127 
L 275.529132 553.78941 
L 285.161102 550.378893 
L 285.161102 535.243145 
L 294.71962 532.761329 
L 294.71962 522.089686 
L 314.836364 520.920843 
L 314.836364 517.978396 
L 342.090297 517.064251 
L 342.090297 513.906417 
L 342.316525 512.597733 
L 342.316525 503.26714 
L 343.614455 500.888316 
L 343.614455 484.889329 
L 347.668357 482.125492 
L 347.668357 462.554436 
L 353.921368 459.653524 
L 353.921368 438.610925 
L 360.379035 435.669448 
L 360.379035 418.549055 
L 374.692931 416.8379 
L 374.692931 411.647594 
L 421.668 411.647594 
L 421.668 411.671556 
L 421.668 411.948079 
L 477.318684 412.458962 
L 477.318684 414.189955 
L 477.451507 415.375127 
L 477.451507 423.500406 
L 478.215523 425.309262 
L 478.215523 432.086324 
L 478.215523 431.736496 
L 480.623263 430.582106 
L 480.623263 413.517758 
L 484.399494 409.485759 
L 484.399494 379.277927 
L 488.376375 375.138795 
L 488.376375 353.315232 
L 497.457093 350.2888 
L 497.457093 335.032988 
L 529.53107 333.769933 
L 529.53107 331.143546 
L 529.53107 331.143546 
L 612.909818 331.143546 
L 612.909818 332.568401 
L 616.277508 333.538396 
L 616.37076 349.207056 
L 616.907527 351.931754 
L 616.907527 371.110734 
L 618.603232 373.20123 
L 618.603232 377.243253 
L 618.603232 375.890921 
L 621.275216 374.324628 
L 621.275216 353.262599 
L 624.105412 349.214311 
L 624.105412 317.081114 
L 630.628694 312.180535 
L 630.628694 278.618704 
L 654.303283 274.181248 
L 654.303283 248.049469 
L 719.70558 245.1689 
L 719.70558 232.055563 
L 809.427273 231.238793 
L 809.427273 230.420529 
L 809.427273 230.420529 
" style="fill:none;stroke:#300000;stroke-linecap:square;stroke-width:1.5;"/>
   </g>
   <g id="line2d_70">
    <path clip-path="url(#p8e0825452a)" d="M 149.972727 595.758878 
L 159.298823 595.68133 
L 159.298823 595.414852 
L 163.161818 595.229794 
L 163.161818 595.014925 
L 174.220576 594.772647 
L 174.220576 594.221112 
L 175.952223 593.919525 
L 175.952223 592.322095 
L 184.264364 592.012889 
L 184.264364 591.171187 
L 196.603205 590.928202 
L 196.603205 590.331892 
L 197.526671 590.178164 
L 197.526671 589.698989 
L 202.530882 589.546311 
L 202.530882 589.393597 
L 215.918182 589.263872 
L 215.918182 589.10801 
L 218.426269 588.938825 
L 218.426269 588.85716 
L 219.058641 588.671014 
L 219.058641 588.638342 
L 219.058641 588.638342 
L 222.593975 588.713983 
L 222.593975 589.220698 
L 232.799588 589.412342 
L 232.799588 590.504571 
L 235.772807 590.700589 
L 235.772807 591.120857 
L 236.278172 591.20405 
L 236.278172 591.149771 
L 236.278172 590.89399 
L 239.133323 590.722999 
L 239.133323 590.591713 
L 239.133323 590.596391 
L 246.780655 590.681899 
L 246.780655 590.845733 
L 247.625455 591.049092 
L 247.625455 591.287604 
L 247.625455 591.125524 
L 259.734019 590.965401 
L 259.734019 587.552332 
L 266.548923 586.6038 
L 266.548923 584.135306 
L 266.921371 582.555479 
L 266.921371 566.834365 
L 269.043998 563.182968 
L 269.043998 534.314035 
L 271.312364 530.311153 
L 271.312364 522.790002 
L 275.529132 519.323899 
L 275.529132 502.00372 
L 285.161102 500.619721 
L 285.161102 497.835688 
L 294.71962 497.835688 
L 294.71962 497.835688 
L 294.71962 501.088417 
L 314.836364 502.255418 
L 314.836364 506.192349 
L 342.090297 507.508869 
L 342.090297 510.838979 
L 342.316525 511.631768 
L 342.316525 512.620805 
L 342.316525 511.574621 
L 343.614455 510.903693 
L 343.614455 503.494677 
L 347.668357 501.439034 
L 347.668357 476.94346 
L 353.921368 472.2204 
L 353.921368 438.09002 
L 360.379035 433.614924 
L 360.379035 408.438178 
L 374.692931 405.825482 
L 374.692931 395.36545 
L 421.668 394.442753 
L 421.668 392.872812 
L 477.451507 392.688839 
L 477.451507 392.803294 
L 477.451507 394.098658 
L 478.215523 394.508836 
L 478.215523 395.465643 
L 478.215523 394.320798 
L 480.623263 393.439131 
L 480.623263 382.621548 
L 484.399494 379.981331 
L 484.399494 358.094216 
L 488.376375 354.837133 
L 488.376375 336.987917 
L 497.457093 334.458198 
L 497.457093 321.904125 
L 529.53107 320.94348 
L 529.53107 319.376822 
L 529.53107 319.376822 
L 612.909818 319.562786 
L 612.909818 321.490525 
L 616.277508 322.574691 
L 616.37076 337.375867 
L 616.907527 339.625905 
L 616.907527 352.02018 
L 618.603232 352.797281 
L 618.603232 353.262081 
L 618.603232 349.749937 
L 621.275216 348.227676 
L 621.275216 331.285802 
L 624.105412 327.991126 
L 624.105412 300.25762 
L 630.628694 295.876136 
L 630.628694 265.586622 
L 654.303283 261.570396 
L 654.303283 237.912566 
L 719.70558 235.303444 
L 719.70558 223.418923 
L 809.427273 222.678249 
L 809.427273 221.936193 
L 809.427273 221.936193 
" style="fill:none;stroke:#400000;stroke-linecap:square;stroke-width:1.5;"/>
   </g>
   <g id="line2d_71">
    <path clip-path="url(#p8e0825452a)" d="M 149.972727 597.953283 
L 159.298823 597.838213 
L 159.298823 597.443442 
L 163.161818 597.168232 
L 163.161818 596.845945 
L 174.220576 596.478213 
L 174.220576 595.618837 
L 175.952223 595.133187 
L 175.952223 592.186127 
L 184.264364 591.502266 
L 184.264364 589.29995 
L 196.603205 588.528678 
L 196.603205 586.183705 
L 197.526671 585.416881 
L 197.526671 582.04104 
L 202.530882 581.502947 
L 202.530882 579.667677 
L 215.918182 579.464531 
L 215.918182 579.11862 
L 222.593975 578.871852 
L 222.593975 577.041994 
L 232.799588 576.242142 
L 232.799588 568.683934 
L 235.772807 566.407662 
L 235.772807 558.348257 
L 236.278172 555.360619 
L 236.278172 539.849345 
L 239.133323 536.850957 
L 239.133323 518.843449 
L 246.780655 516.756163 
L 246.780655 511.218606 
L 247.625455 509.611057 
L 247.625455 502.561628 
L 259.734019 501.844756 
L 259.734019 500.384675 
L 259.734019 500.384675 
L 266.548923 500.510794 
L 266.548923 501.120312 
L 266.921371 501.570406 
L 266.921371 504.389703 
L 269.043998 504.1208 
L 269.043998 495.420458 
L 271.312364 493.52271 
L 271.312364 489.556706 
L 275.529132 487.54072 
L 275.529132 474.084858 
L 285.161102 472.331381 
L 285.161102 464.363153 
L 294.71962 462.956262 
L 294.71962 455.957428 
L 314.836364 455.005602 
L 314.836364 452.308394 
L 342.090297 451.401115 
L 342.090297 448.271728 
L 342.316525 447.045061 
L 342.316525 438.689175 
L 343.614455 436.552644 
L 343.614455 421.000897 
L 347.668357 418.067057 
L 347.668357 395.897211 
L 353.921368 392.597129 
L 353.921368 370.2276 
L 360.379035 367.318448 
L 360.379035 350.812312 
L 374.692931 349.115765 
L 374.692931 342.746686 
L 421.668 342.297536 
L 421.668 341.84426 
L 477.318684 341.84426 
L 477.318684 341.948931 
L 477.451507 342.159148 
L 477.451507 344.120944 
L 478.215523 344.561794 
L 478.215523 346.034706 
L 478.215523 345.885248 
L 480.623263 345.618311 
L 480.623263 341.393001 
L 484.399494 340.216779 
L 484.399494 328.363364 
L 488.376375 326.267899 
L 488.376375 313.216034 
L 497.457093 311.138236 
L 497.457093 299.499165 
L 529.53107 298.394936 
L 529.53107 295.402509 
L 612.909818 295.402509 
L 612.909818 295.402509 
L 612.909818 295.844317 
L 616.277508 296.328414 
L 616.37076 305.227165 
L 616.907527 306.690544 
L 616.907527 314.537813 
L 618.603232 314.80748 
L 618.603232 310.34924 
L 621.275216 308.883004 
L 621.275216 295.715098 
L 624.105412 293.518599 
L 624.105412 275.845962 
L 630.628694 272.97804 
L 630.628694 251.490383 
L 654.303283 248.404599 
L 654.303283 229.181229 
L 719.70558 226.9617 
L 719.70558 216.63738 
L 809.427273 215.983132 
L 809.427273 215.326432 
L 809.427273 215.326432 
" style="fill:none;stroke:#500000;stroke-linecap:square;stroke-width:1.5;"/>
   </g>
   <g id="line2d_72">
    <path clip-path="url(#p8e0825452a)" d="M 149.972727 589.477261 
L 174.220576 589.450352 
L 174.220576 589.415061 
L 174.220576 589.361497 
L 175.952223 589.183285 
L 175.952223 588.438591 
L 184.264364 588.157011 
L 184.264364 587.083247 
L 196.603205 586.658007 
L 196.603205 585.219624 
L 197.526671 584.710595 
L 197.526671 582.117064 
L 202.530882 581.597537 
L 202.530882 578.611318 
L 215.918182 577.860628 
L 215.918182 574.977521 
L 218.426269 573.739343 
L 218.426269 570.773324 
L 219.058641 569.025312 
L 219.058641 555.17539 
L 222.593975 552.474469 
L 222.593975 538.732536 
L 232.799588 536.130408 
L 232.799588 524.797025 
L 235.772807 522.920911 
L 235.772807 518.153671 
L 236.278172 516.817011 
L 236.278172 511.26346 
L 239.133323 510.20213 
L 239.133323 499.97676 
L 246.780655 497.949961 
L 246.780655 491.297853 
L 247.625455 488.969431 
L 247.625455 475.743058 
L 259.734019 473.864661 
L 259.734019 464.203249 
L 266.548923 463.236159 
L 266.548923 461.383786 
L 266.921371 460.462506 
L 266.921371 452.673464 
L 269.043998 450.727996 
L 269.043998 431.786391 
L 271.312364 428.603287 
L 271.312364 422.156184 
L 275.529132 418.944262 
L 275.529132 398.159547 
L 285.161102 395.563918 
L 285.161102 384.36636 
L 294.71962 382.507819 
L 294.71962 374.07713 
L 314.836364 373.106622 
L 314.836364 370.839534 
L 342.090297 370.271397 
L 342.090297 368.964142 
L 342.316525 368.627937 
L 342.316525 367.066073 
L 343.614455 366.690595 
L 343.614455 363.124333 
L 347.668357 362.250574 
L 347.668357 353.381277 
L 353.921368 351.707246 
L 353.921368 337.905271 
L 360.379035 335.793923 
L 360.379035 322.207411 
L 374.692931 320.598795 
L 374.692931 313.499659 
L 421.668 312.771348 
L 421.668 311.348215 
L 477.318684 311.113345 
L 477.318684 310.968883 
L 477.451507 310.968883 
L 477.451507 311.040277 
L 477.451507 311.694787 
L 478.215523 312.020035 
L 478.215523 314.040762 
L 480.623263 314.343831 
L 480.623263 314.160581 
L 480.623263 312.070482 
L 484.399494 311.182784 
L 484.399494 301.072904 
L 488.376375 299.194136 
L 488.376375 287.259059 
L 497.457093 285.329644 
L 497.457093 274.271596 
L 529.53107 273.168369 
L 529.53107 269.59445 
L 612.909818 269.516907 
L 612.909818 269.582596 
L 616.277508 269.786309 
L 616.37076 275.330129 
L 616.907527 276.307672 
L 616.907527 282.079306 
L 618.603232 282.516149 
L 618.603232 282.84423 
L 618.603232 281.577544 
L 621.275216 280.886453 
L 621.275216 272.807183 
L 624.105412 271.216688 
L 624.105412 257.329689 
L 630.628694 255.006485 
L 630.628694 237.597977 
L 654.303283 235.097971 
L 654.303283 219.441349 
L 719.70558 217.620205 
L 719.70558 209.10427 
L 809.427273 208.562202 
L 809.427273 208.0177 
L 809.427273 208.0177 
" style="fill:none;stroke:#600000;stroke-linecap:square;stroke-width:1.5;"/>
   </g>
   <g id="line2d_73">
    <path clip-path="url(#p8e0825452a)" d="M 149.972727 529.369197 
L 159.298823 528.977218 
L 159.298823 527.750617 
L 163.161818 526.986976 
L 163.161818 526.18391 
L 174.220576 525.383057 
L 174.220576 523.931763 
L 175.952223 523.336187 
L 175.952223 522.007488 
L 184.264364 521.948743 
L 184.264364 521.858993 
L 196.603205 521.664938 
L 196.603205 520.039786 
L 197.526671 519.072006 
L 197.526671 511.212214 
L 202.530882 509.221217 
L 202.530882 498.662736 
L 215.918182 496.529565 
L 215.918182 490.127399 
L 218.426269 487.956383 
L 218.426269 483.567305 
L 219.058641 481.333868 
L 219.058641 467.891993 
L 222.593975 465.758235 
L 222.593975 456.174678 
L 232.799588 454.505426 
L 232.799588 447.113165 
L 235.772807 445.757377 
L 235.772807 441.765483 
L 236.278172 440.438238 
L 236.278172 433.740953 
L 239.133323 432.405581 
L 239.133323 423.322384 
L 246.780655 422.049708 
L 246.780655 418.238163 
L 247.625455 416.962801 
L 247.625455 409.372676 
L 259.734019 408.163885 
L 259.734019 400.821262 
L 266.548923 399.956429 
L 266.548923 398.327307 
L 266.921371 397.552546 
L 266.921371 392.675583 
L 269.043998 391.708454 
L 269.043998 382.772602 
L 271.312364 381.205782 
L 271.312364 377.912505 
L 275.529132 376.210282 
L 275.529132 363.874979 
L 285.161102 362.118896 
L 285.161102 353.575898 
L 294.71962 351.937846 
L 294.71962 342.905603 
L 314.836364 341.571846 
L 314.836364 337.940686 
L 342.090297 336.863363 
L 342.090297 334.050835 
L 342.316525 333.261176 
L 342.316525 330.374897 
L 343.614455 329.99291 
L 343.614455 328.472819 
L 347.668357 328.237278 
L 347.668357 324.520799 
L 353.921368 323.504873 
L 353.921368 312.708696 
L 360.379035 310.809643 
L 360.379035 297.717285 
L 374.692931 296.072976 
L 374.692931 288.396915 
L 421.668 287.529258 
L 421.668 285.661397 
L 477.318684 285.278898 
L 477.318684 284.860346 
L 477.451507 284.812605 
L 477.451507 284.86475 
L 477.451507 285.233241 
L 478.215523 285.533588 
L 478.215523 288.184232 
L 480.623263 288.634261 
L 480.623263 289.863522 
L 480.623263 289.470868 
L 484.399494 289.043582 
L 484.399494 282.404949 
L 488.376375 281.03916 
L 488.376375 271.925508 
L 497.457093 270.378457 
L 497.457093 260.840109 
L 529.53107 259.778113 
L 529.53107 255.685807 
L 612.909818 255.42621 
L 612.909818 255.283724 
L 612.909818 255.283724 
L 616.277508 255.283724 
L 616.37076 259.110434 
L 616.907527 259.915943 
L 616.907527 264.89488 
L 618.603232 265.270914 
L 618.603232 265.518748 
L 618.603232 264.289812 
L 621.275216 263.680778 
L 621.275216 257.171691 
L 624.105412 255.947317 
L 624.105412 245.056696 
L 630.628694 243.159263 
L 630.628694 228.281309 
L 654.303283 226.073262 
L 654.303283 212.038063 
L 719.70558 210.391335 
L 719.70558 202.674792 
L 809.427273 202.183136 
L 809.427273 201.689217 
L 809.427273 201.689217 
" style="fill:none;stroke:#700000;stroke-linecap:square;stroke-width:1.5;"/>
   </g>
   <g id="line2d_74">
    <path clip-path="url(#p8e0825452a)" d="M 149.972727 302.320084 
L 159.298823 302.179153 
L 159.298823 301.708818 
L 163.161818 301.391844 
L 163.161818 301.032064 
L 174.220576 300.639086 
L 174.220576 299.790603 
L 175.952223 299.353812 
L 175.952223 297.319504 
L 184.264364 296.971048 
L 184.264364 296.059099 
L 196.603205 295.792161 
L 196.603205 295.051509 
L 197.526671 294.811751 
L 197.526671 293.52192 
L 202.530882 293.235521 
L 202.530882 291.686061 
L 215.918182 291.364953 
L 215.918182 290.413739 
L 218.426269 290.104377 
L 218.426269 289.507343 
L 219.058641 289.219726 
L 219.058641 287.694984 
L 222.593975 287.478405 
L 222.593975 286.585808 
L 232.799588 286.444362 
L 232.799588 285.892841 
L 235.772807 285.730698 
L 235.772807 285.599653 
L 236.278172 285.45952 
L 236.278172 285.45952 
L 239.133323 285.45952 
L 239.133323 285.569001 
L 239.133323 285.98075 
L 246.780655 286.118375 
L 246.780655 286.530115 
L 247.625455 286.731746 
L 247.625455 286.763214 
L 247.625455 286.042501 
L 259.734019 285.713868 
L 259.734019 282.269089 
L 266.548923 281.709157 
L 266.548923 280.61493 
L 266.921371 280.094584 
L 266.921371 277.52784 
L 269.043998 277.20027 
L 269.043998 275.512564 
L 271.312364 275.32681 
L 271.312364 274.967814 
L 275.529132 274.791261 
L 275.529132 273.382877 
L 285.161102 273.139983 
L 285.161102 271.736619 
L 294.71962 271.425884 
L 294.71962 269.526041 
L 314.836364 269.227479 
L 314.836364 268.415243 
L 342.090297 268.178655 
L 342.090297 267.595286 
L 342.316525 267.322747 
L 342.316525 267.026179 
L 343.614455 266.913956 
L 343.614455 266.755795 
L 347.668357 266.65351 
L 347.668357 264.642885 
L 353.921368 264.12734 
L 353.921368 259.072888 
L 360.379035 258.20228 
L 360.379035 251.904864 
L 374.692931 251.049684 
L 374.692931 246.707486 
L 421.668 246.161886 
L 421.668 244.903225 
L 477.318684 244.614966 
L 477.318684 244.240155 
L 477.451507 244.119252 
L 477.451507 244.22247 
L 478.215523 244.345437 
L 478.215523 245.618483 
L 480.623263 245.844428 
L 480.623263 246.583761 
L 480.623263 246.537658 
L 484.399494 246.423485 
L 484.399494 244.190672 
L 488.376375 243.6715 
L 488.376375 239.633293 
L 497.457093 238.834163 
L 497.457093 232.996111 
L 529.53107 232.227488 
L 529.53107 228.821015 
L 612.909818 228.524231 
L 612.909818 228.193525 
L 616.277508 228.193525 
L 616.277508 228.275719 
L 616.37076 228.451001 
L 616.37076 230.575349 
L 616.907527 231.188149 
L 616.907527 235.60692 
L 618.603232 236.076011 
L 618.603232 237.110159 
L 618.603232 236.974197 
L 621.275216 236.759368 
L 621.275216 233.558546 
L 624.105412 232.908685 
L 624.105412 227.242613 
L 630.628694 226.273758 
L 630.628694 218.462787 
L 654.303283 217.232496 
L 654.303283 208.703691 
L 719.70558 207.609775 
L 719.70558 202.192505 
L 809.427273 201.83058 
L 809.427273 201.464871 
L 809.427273 201.464871 
" style="fill:none;stroke:#800000;stroke-linecap:square;stroke-width:1.5;"/>
   </g>
   <g id="line2d_75">
    <path clip-path="url(#p8e0825452a)" d="M 149.972727 389.188742 
L 159.298823 388.905218 
L 159.298823 387.94903 
L 163.161818 387.297325 
L 163.161818 386.545661 
L 174.220576 385.713237 
L 174.220576 383.862351 
L 175.952223 382.876269 
L 175.952223 377.865373 
L 184.264364 376.919171 
L 184.264364 374.31973 
L 196.603205 373.543915 
L 196.603205 371.471165 
L 197.526671 370.856141 
L 197.526671 368.049598 
L 202.530882 367.482807 
L 202.530882 364.0723 
L 215.918182 363.210562 
L 215.918182 360.164553 
L 218.426269 358.983756 
L 218.426269 356.404113 
L 219.058641 355.016184 
L 219.058641 346.15123 
L 222.593975 344.73079 
L 222.593975 338.723829 
L 232.799588 337.803445 
L 232.799588 334.708455 
L 235.772807 334.360846 
L 235.772807 333.728926 
L 236.278172 333.512763 
L 236.278172 333.485111 
L 236.278172 333.485111 
L 239.133323 333.485111 
L 239.133323 333.425831 
L 239.133323 333.151309 
L 246.780655 332.979725 
L 246.780655 332.130183 
L 247.625455 331.71163 
L 247.625455 327.637176 
L 259.734019 326.740543 
L 259.734019 320.148875 
L 266.548923 319.298465 
L 266.548923 317.738009 
L 266.921371 317.036104 
L 266.921371 313.778403 
L 269.043998 313.350708 
L 269.043998 310.483103 
L 271.312364 310.029724 
L 271.312364 309.045511 
L 275.529132 308.512488 
L 275.529132 303.781598 
L 285.161102 302.952603 
L 285.161102 298.334638 
L 294.71962 297.353031 
L 294.71962 291.684803 
L 314.836364 290.851936 
L 314.836364 288.682528 
L 342.090297 288.084142 
L 342.090297 286.702935 
L 342.316525 286.385815 
L 342.316525 285.779133 
L 343.614455 285.779133 
L 343.614455 285.823154 
L 343.614455 286.278276 
L 347.668357 286.512773 
L 347.668357 286.554741 
L 347.668357 284.876196 
L 353.921368 284.197173 
L 353.921368 276.544501 
L 360.379035 275.175279 
L 360.379035 265.587614 
L 374.692931 264.355613 
L 374.692931 258.436319 
L 421.668 257.737163 
L 421.668 256.175963 
L 477.318684 255.834166 
L 477.318684 255.415475 
L 477.451507 255.32614 
L 477.451507 255.394116 
L 477.451507 255.528375 
L 478.215523 255.725029 
L 478.215523 257.724035 
L 480.623263 258.106702 
L 480.623263 259.768004 
L 484.399494 259.785439 
L 484.399494 256.749619 
L 488.376375 255.971367 
L 488.376375 250.070669 
L 497.457093 248.964181 
L 497.457093 241.474592 
L 529.53107 240.552315 
L 529.53107 236.573802 
L 612.909818 236.229963 
L 612.909818 235.82112 
L 616.277508 235.82112 
L 616.277508 235.89671 
L 616.37076 236.0738 
L 616.37076 238.300344 
L 616.907527 238.940744 
L 616.907527 243.289114 
L 618.603232 243.671768 
L 618.603232 244.106013 
L 618.603232 243.257993 
L 621.275216 242.776427 
L 621.275216 237.420833 
L 624.105412 236.417429 
L 624.105412 227.643612 
L 630.628694 226.122325 
L 630.628694 214.038824 
L 654.303283 212.215925 
L 654.303283 200.467437 
L 719.70558 199.073813 
L 719.70558 192.515051 
L 809.427273 192.095959 
L 809.427273 191.674831 
L 809.427273 191.674831 
" style="fill:none;stroke:#8f0000;stroke-linecap:square;stroke-width:1.5;"/>
   </g>
   <g id="line2d_76">
    <path clip-path="url(#p8e0825452a)" d="M 149.972727 291.703342 
L 159.298823 291.564229 
L 159.298823 291.457242 
L 163.161818 291.327359 
L 163.161818 291.177051 
L 174.220576 291.00989 
L 174.220576 290.631526 
L 175.952223 290.425703 
L 175.952223 289.27816 
L 184.264364 289.026842 
L 184.264364 288.226959 
L 196.603205 287.942903 
L 196.603205 287.027935 
L 197.526671 286.701463 
L 197.526671 284.904391 
L 202.530882 284.513709 
L 202.530882 282.40406 
L 215.918182 281.949751 
L 215.918182 280.522862 
L 218.426269 280.025834 
L 218.426269 279.010291 
L 219.058641 278.494529 
L 219.058641 275.512178 
L 222.593975 275.073762 
L 222.593975 273.387937 
L 232.799588 273.169344 
L 232.799588 272.665861 
L 236.278172 272.741521 
L 236.278172 273.198582 
L 239.133323 273.314299 
L 239.133323 274.160469 
L 246.780655 274.352616 
L 246.780655 274.466594 
L 247.625455 274.304004 
L 247.625455 273.018178 
L 259.734019 272.612263 
L 259.734019 269.042182 
L 266.548923 268.522054 
L 266.548923 267.541944 
L 266.921371 267.09322 
L 266.921371 265.05649 
L 269.043998 264.81895 
L 269.043998 263.610606 
L 271.312364 263.465618 
L 271.312364 263.167533 
L 275.529132 263.012212 
L 275.529132 261.632304 
L 285.161102 261.38296 
L 285.161102 259.947703 
L 294.71962 259.635592 
L 294.71962 257.822504 
L 314.836364 257.558939 
L 314.836364 256.888868 
L 342.090297 256.711118 
L 342.090297 256.331534 
L 342.316525 256.190272 
L 342.316525 256.190713 
L 343.614455 256.308036 
L 343.614455 256.589601 
L 347.668357 256.684298 
L 347.668357 256.625026 
L 347.668357 255.468719 
L 353.921368 255.029581 
L 353.921368 249.962586 
L 360.379035 249.01065 
L 360.379035 241.868677 
L 374.692931 240.884718 
L 374.692931 235.872833 
L 421.668 235.234289 
L 421.668 233.72021 
L 477.318684 233.353227 
L 477.318684 232.829339 
L 477.451507 232.537117 
L 477.451507 232.558139 
L 478.215523 232.63265 
L 478.215523 233.849229 
L 480.623263 234.11603 
L 480.623263 235.397335 
L 484.399494 235.490992 
L 484.399494 235.441617 
L 484.399494 233.573955 
L 488.376375 233.02487 
L 488.376375 228.540885 
L 497.457093 227.643918 
L 497.457093 221.143469 
L 529.53107 220.29119 
L 529.53107 216.439292 
L 612.909818 216.076294 
L 612.909818 215.555044 
L 616.277508 215.555044 
L 616.277508 215.575121 
L 616.37076 215.687929 
L 616.37076 217.463932 
L 616.907527 217.992153 
L 616.907527 221.586617 
L 618.603232 221.909505 
L 618.603232 222.311808 
L 618.603232 221.884341 
L 621.275216 221.583228 
L 621.275216 218.197769 
L 624.105412 217.566074 
L 624.105412 212.049444 
L 630.628694 211.088087 
L 630.628694 203.270579 
L 654.303283 202.050449 
L 654.303283 193.822854 
L 719.70558 192.799526 
L 719.70558 187.833694 
L 809.427273 187.507762 
L 809.427273 187.178983 
L 809.427273 187.178983 
" style="fill:none;stroke:#9f0000;stroke-linecap:square;stroke-width:1.5;"/>
   </g>
   <g id="line2d_77">
    <path clip-path="url(#p8e0825452a)" d="M 149.972727 284.78328 
L 159.298823 284.683972 
L 159.298823 284.350428 
L 163.161818 284.123249 
L 163.161818 283.862053 
L 174.220576 283.573578 
L 174.220576 282.936816 
L 175.952223 282.599862 
L 175.952223 280.927591 
L 184.264364 280.6219 
L 184.264364 279.80478 
L 196.603205 279.570148 
L 196.603205 278.978129 
L 197.526671 278.81635 
L 197.526671 278.190925 
L 202.530882 277.976143 
L 202.530882 277.461861 
L 215.918182 277.295434 
L 215.918182 276.662795 
L 218.426269 276.401646 
L 218.426269 275.806866 
L 219.058641 275.475018 
L 219.058641 273.244537 
L 222.593975 272.881456 
L 222.593975 271.440236 
L 232.799588 271.253481 
L 232.799588 270.883158 
L 235.772807 270.883158 
L 235.772807 270.960439 
L 236.278172 271.126772 
L 236.278172 271.612705 
L 239.133323 271.750462 
L 239.133323 272.732301 
L 246.780655 272.951138 
L 246.780655 273.063549 
L 247.625455 272.985512 
L 247.625455 271.247431 
L 259.734019 270.746432 
L 259.734019 266.424163 
L 266.548923 265.80776 
L 266.548923 264.656443 
L 266.921371 264.133482 
L 266.921371 261.793044 
L 269.043998 261.523452 
L 269.043998 260.190887 
L 271.312364 260.042405 
L 271.312364 259.747837 
L 275.529132 259.598441 
L 275.529132 258.234866 
L 285.161102 257.967037 
L 285.161102 256.277168 
L 294.71962 255.878259 
L 294.71962 253.303698 
L 314.836364 252.878527 
L 314.836364 251.68056 
L 342.090297 251.315666 
L 342.090297 250.356699 
L 342.316525 250.089455 
L 342.316525 249.15415 
L 343.614455 248.947668 
L 343.614455 248.595372 
L 347.668357 248.501296 
L 347.668357 246.635511 
L 353.921368 246.109375 
L 353.921368 240.343798 
L 360.379035 239.277276 
L 360.379035 231.210596 
L 374.692931 230.077231 
L 374.692931 224.109072 
L 421.668 223.308118 
L 421.668 221.31536 
L 477.318684 220.794128 
L 477.318684 219.971028 
L 477.451507 219.42821 
L 477.451507 219.071348 
L 478.215523 219.071348 
L 478.215523 219.175848 
L 478.215523 219.530467 
L 480.623263 219.672153 
L 480.623263 220.145816 
L 480.623263 220.047257 
L 484.399494 219.886443 
L 484.399494 216.640368 
L 488.376375 215.852513 
L 488.376375 209.633438 
L 497.457093 208.403843 
L 497.457093 199.378599 
L 529.53107 198.154404 
L 529.53107 192.118005 
L 612.909818 191.408113 
L 612.909818 189.893322 
L 616.277508 189.600269 
L 616.277508 189.331215 
L 616.37076 189.914268 
L 616.907527 190.239392 
L 616.907527 192.752569 
L 618.603232 192.918348 
L 618.603232 190.978199 
L 621.275216 190.273524 
L 621.275216 183.862487 
L 624.105412 182.865497 
L 624.105412 175.947456 
L 630.628694 174.962991 
L 630.628694 168.016851 
L 654.303283 167.041078 
L 654.303283 160.96732 
L 719.70558 160.269264 
L 719.70558 157.059501 
L 809.427273 156.859643 
L 809.427273 156.65918 
L 809.427273 156.65918 
" style="fill:none;stroke:#af0000;stroke-linecap:square;stroke-width:1.5;"/>
   </g>
   <g id="line2d_78">
    <path clip-path="url(#p8e0825452a)" d="M 149.972727 253.202588 
L 159.298823 253.11004 
L 159.298823 252.795926 
L 163.161818 252.57976 
L 163.161818 252.329435 
L 174.220576 252.049115 
L 174.220576 251.41778 
L 175.952223 251.076758 
L 175.952223 249.299605 
L 184.264364 248.955868 
L 184.264364 247.997103 
L 196.603205 247.705374 
L 196.603205 246.912479 
L 197.526671 246.672951 
L 197.526671 245.579765 
L 202.530882 245.366263 
L 202.530882 244.200146 
L 215.918182 243.93473 
L 215.918182 243.057362 
L 218.426269 242.737812 
L 218.426269 242.065947 
L 219.058641 241.716441 
L 219.058641 239.613119 
L 222.593975 239.290701 
L 222.593975 237.968499 
L 232.799588 237.770385 
L 232.799588 237.093884 
L 235.772807 236.941456 
L 235.772807 236.84045 
L 236.278172 236.786104 
L 236.278172 236.797943 
L 239.133323 236.881208 
L 239.133323 237.764128 
L 246.780655 238.010698 
L 246.780655 238.865161 
L 247.625455 239.169127 
L 247.625455 240.624626 
L 259.734019 240.74233 
L 259.734019 240.638939 
L 259.734019 239.507692 
L 266.548923 239.201064 
L 266.548923 238.55495 
L 266.921371 238.227413 
L 266.921371 236.359612 
L 269.043998 236.07665 
L 269.043998 234.353121 
L 271.312364 234.147627 
L 271.312364 233.771299 
L 275.529132 233.602509 
L 275.529132 232.747253 
L 285.161102 232.586252 
L 285.161102 232.326223 
L 294.71962 232.169181 
L 294.71962 232.001812 
L 343.614455 231.983376 
L 343.614455 232.368622 
L 347.668357 232.489915 
L 347.668357 232.321643 
L 347.668357 231.697802 
L 353.921368 231.373182 
L 353.921368 227.427442 
L 360.379035 226.658323 
L 360.379035 220.584467 
L 374.692931 219.695215 
L 374.692931 214.858565 
L 421.668 214.189419 
L 421.668 212.51281 
L 477.318684 212.075531 
L 477.318684 211.399394 
L 477.451507 210.990071 
L 477.451507 210.839587 
L 477.451507 210.839587 
L 478.215523 210.926999 
L 478.215523 211.920137 
L 480.623263 212.197055 
L 480.623263 213.728431 
L 484.399494 213.892658 
L 484.399494 214.070624 
L 484.399494 213.041203 
L 488.376375 212.666225 
L 488.376375 209.415173 
L 497.457093 208.739157 
L 497.457093 203.591969 
L 529.53107 202.877086 
L 529.53107 199.430561 
L 612.909818 199.06465 
L 612.909818 198.429972 
L 616.37076 198.415346 
L 616.37076 199.683665 
L 616.907527 200.104346 
L 616.907527 203.140068 
L 618.603232 203.426562 
L 618.603232 203.790765 
L 618.603232 203.423717 
L 621.275216 203.156028 
L 621.275216 200.25594 
L 624.105412 199.751183 
L 624.105412 195.754742 
L 630.628694 195.101784 
L 630.628694 189.746002 
L 654.303283 188.872377 
L 654.303283 182.559938 
L 719.70558 181.72045 
L 719.70558 177.478107 
L 809.427273 177.190193 
L 809.427273 176.898499 
L 809.427273 176.898499 
" style="fill:none;stroke:#bf0000;stroke-linecap:square;stroke-width:1.5;"/>
   </g>
   <g id="line2d_79">
    <path clip-path="url(#p8e0825452a)" d="M 149.972727 131.93176 
L 159.298823 131.823772 
L 159.298823 131.462458 
L 163.161818 131.2189 
L 163.161818 130.942974 
L 174.220576 130.64027 
L 174.220576 129.983869 
L 175.952223 129.643037 
L 175.952223 127.993815 
L 184.264364 127.69206 
L 184.264364 126.849145 
L 196.603205 126.5857 
L 196.603205 125.829086 
L 197.526671 125.584109 
L 197.526671 124.406423 
L 202.530882 124.181727 
L 202.530882 123.160816 
L 215.918182 122.981968 
L 215.918182 122.510018 
L 218.426269 122.379058 
L 218.426269 122.165929 
L 219.058641 122.000313 
L 219.058641 122.025327 
L 222.593975 122.169681 
L 222.593975 122.821034 
L 232.799588 123.046592 
L 232.799588 124.310738 
L 235.772807 124.547905 
L 235.772807 125.142211 
L 236.278172 125.293647 
L 236.278172 125.80328 
L 239.133323 125.995139 
L 239.133323 127.149302 
L 246.780655 127.451722 
L 246.780655 128.494401 
L 247.625455 128.866085 
L 247.625455 130.778162 
L 259.734019 130.982981 
L 259.734019 131.359641 
L 259.734019 131.140729 
L 266.548923 131.035147 
L 266.548923 130.795063 
L 266.921371 130.665718 
L 266.921371 129.837584 
L 269.043998 129.699914 
L 269.043998 128.932186 
L 275.529132 128.825252 
L 275.529132 128.86418 
L 275.529132 129.219719 
L 285.161102 129.361289 
L 285.161102 130.279961 
L 294.71962 130.484878 
L 294.71962 131.538755 
L 314.836364 131.730033 
L 314.836364 131.656154 
L 342.090297 131.545269 
L 342.090297 131.01707 
L 342.316525 130.793803 
L 342.316525 129.658996 
L 343.614455 129.483719 
L 343.614455 129.1462 
L 343.614455 129.1462 
L 347.668357 129.219317 
L 347.668357 130.096104 
L 353.921368 130.271665 
L 353.921368 130.900573 
L 353.921368 130.838872 
L 360.379035 130.745296 
L 360.379035 129.312366 
L 374.692931 129.018918 
L 374.692931 126.998834 
L 421.668 126.640618 
L 421.668 125.596929 
L 477.318684 125.272259 
L 477.318684 124.681889 
L 477.451507 124.195919 
L 477.451507 123.631414 
L 478.215523 123.567817 
L 478.215523 123.634442 
L 478.215523 123.707435 
L 480.623263 123.906799 
L 480.623263 124.467574 
L 484.399494 124.619489 
L 484.399494 124.701327 
L 484.399494 124.594823 
L 488.376375 124.48684 
L 488.376375 124.094632 
L 497.457093 123.982113 
L 497.457093 122.70454 
L 529.53107 122.461223 
L 529.53107 121.124193 
L 612.909818 120.882468 
L 612.909818 120.818345 
L 616.277508 120.818345 
L 616.277508 120.861582 
L 616.37076 121.104827 
L 616.37076 122.169597 
L 616.907527 122.531982 
L 616.907527 125.370861 
L 618.603232 125.730323 
L 618.603232 127.045641 
L 621.275216 127.207341 
L 621.275216 127.763161 
L 624.105412 127.896357 
L 624.105412 128.036268 
L 624.105412 127.989526 
L 630.628694 127.9033 
L 630.628694 125.463128 
L 654.303283 124.7881 
L 654.303283 118.323076 
L 719.70558 117.311743 
L 719.70558 111.883229 
L 809.427273 111.499365 
L 809.427273 111.109091 
L 809.427273 111.109091 
" style="fill:none;stroke:#cf0000;stroke-linecap:square;stroke-width:1.5;"/>
   </g>
   <g id="patch_3">
    <path d="M 117 630 
L 117 86.4 
" style="fill:none;stroke:#000000;stroke-linecap:square;stroke-linejoin:miter;stroke-width:0.8;"/>
   </g>
   <g id="patch_4">
    <path d="M 842.4 630 
L 842.4 86.4 
" style="fill:none;stroke:#000000;stroke-linecap:square;stroke-linejoin:miter;stroke-width:0.8;"/>
   </g>
   <g id="patch_5">
    <path d="M 117 630 
L 842.4 630 
" style="fill:none;stroke:#000000;stroke-linecap:square;stroke-linejoin:miter;stroke-width:0.8;"/>
   </g>
   <g id="patch_6">
    <path d="M 117 86.4 
L 842.4 86.4 
" style="fill:none;stroke:#000000;stroke-linecap:square;stroke-linejoin:miter;stroke-width:0.8;"/>
   </g>
   <g id="text_17">
    <!-- X,Y shift estimation error with regard to modality distance -->
    <defs>
     <path d="M 6.296875 72.90625 
L 16.890625 72.90625 
L 35.015625 45.796875 
L 53.21875 72.90625 
L 63.8125 72.90625 
L 40.375 37.890625 
L 65.375 0 
L 54.78125 0 
L 34.28125 31 
L 13.625 0 
L 2.984375 0 
L 29 38.921875 
z
" id="DejaVuSans-88"/>
     <path d="M 11.71875 12.40625 
L 22.015625 12.40625 
L 22.015625 4 
L 14.015625 -11.625 
L 7.71875 -11.625 
L 11.71875 4 
z
" id="DejaVuSans-44"/>
     <path d="M -0.203125 72.90625 
L 10.40625 72.90625 
L 30.609375 42.921875 
L 50.6875 72.90625 
L 61.28125 72.90625 
L 35.5 34.71875 
L 35.5 0 
L 25.59375 0 
L 25.59375 34.71875 
z
" id="DejaVuSans-89"/>
     <path d="M 4.203125 54.6875 
L 13.1875 54.6875 
L 24.421875 12.015625 
L 35.59375 54.6875 
L 46.1875 54.6875 
L 57.421875 12.015625 
L 68.609375 54.6875 
L 77.59375 54.6875 
L 63.28125 0 
L 52.6875 0 
L 40.921875 44.828125 
L 29.109375 0 
L 18.5 0 
z
" id="DejaVuSans-119"/>
    </defs>
    <g transform="translate(304.7625 80.4)scale(0.12 -0.12)">
     <use xlink:href="#DejaVuSans-88"/>
     <use x="68.505859" xlink:href="#DejaVuSans-44"/>
     <use x="100.292969" xlink:href="#DejaVuSans-89"/>
     <use x="161.376953" xlink:href="#DejaVuSans-32"/>
     <use x="193.164062" xlink:href="#DejaVuSans-115"/>
     <use x="245.263672" xlink:href="#DejaVuSans-104"/>
     <use x="308.642578" xlink:href="#DejaVuSans-105"/>
     <use x="336.425781" xlink:href="#DejaVuSans-102"/>
     <use x="371.615234" xlink:href="#DejaVuSans-116"/>
     <use x="410.824219" xlink:href="#DejaVuSans-32"/>
     <use x="442.611328" xlink:href="#DejaVuSans-101"/>
     <use x="504.134766" xlink:href="#DejaVuSans-115"/>
     <use x="556.234375" xlink:href="#DejaVuSans-116"/>
     <use x="595.443359" xlink:href="#DejaVuSans-105"/>
     <use x="623.226562" xlink:href="#DejaVuSans-109"/>
     <use x="720.638672" xlink:href="#DejaVuSans-97"/>
     <use x="781.917969" xlink:href="#DejaVuSans-116"/>
     <use x="821.126953" xlink:href="#DejaVuSans-105"/>
     <use x="848.910156" xlink:href="#DejaVuSans-111"/>
     <use x="910.091797" xlink:href="#DejaVuSans-110"/>
     <use x="973.470703" xlink:href="#DejaVuSans-32"/>
     <use x="1005.257812" xlink:href="#DejaVuSans-101"/>
     <use x="1066.78125" xlink:href="#DejaVuSans-114"/>
     <use x="1107.878906" xlink:href="#DejaVuSans-114"/>
     <use x="1148.960938" xlink:href="#DejaVuSans-111"/>
     <use x="1210.142578" xlink:href="#DejaVuSans-114"/>
     <use x="1251.255859" xlink:href="#DejaVuSans-32"/>
     <use x="1283.042969" xlink:href="#DejaVuSans-119"/>
     <use x="1364.830078" xlink:href="#DejaVuSans-105"/>
     <use x="1392.613281" xlink:href="#DejaVuSans-116"/>
     <use x="1431.822266" xlink:href="#DejaVuSans-104"/>
     <use x="1495.201172" xlink:href="#DejaVuSans-32"/>
     <use x="1526.988281" xlink:href="#DejaVuSans-114"/>
     <use x="1568.070312" xlink:href="#DejaVuSans-101"/>
     <use x="1629.59375" xlink:href="#DejaVuSans-103"/>
     <use x="1693.070312" xlink:href="#DejaVuSans-97"/>
     <use x="1754.349609" xlink:href="#DejaVuSans-114"/>
     <use x="1795.447266" xlink:href="#DejaVuSans-100"/>
     <use x="1858.923828" xlink:href="#DejaVuSans-32"/>
     <use x="1890.710938" xlink:href="#DejaVuSans-116"/>
     <use x="1929.919922" xlink:href="#DejaVuSans-111"/>
     <use x="1991.101562" xlink:href="#DejaVuSans-32"/>
     <use x="2022.888672" xlink:href="#DejaVuSans-109"/>
     <use x="2120.300781" xlink:href="#DejaVuSans-111"/>
     <use x="2181.482422" xlink:href="#DejaVuSans-100"/>
     <use x="2244.958984" xlink:href="#DejaVuSans-97"/>
     <use x="2306.238281" xlink:href="#DejaVuSans-108"/>
     <use x="2334.021484" xlink:href="#DejaVuSans-105"/>
     <use x="2361.804688" xlink:href="#DejaVuSans-116"/>
     <use x="2401.013672" xlink:href="#DejaVuSans-121"/>
     <use x="2460.193359" xlink:href="#DejaVuSans-32"/>
     <use x="2491.980469" xlink:href="#DejaVuSans-100"/>
     <use x="2555.457031" xlink:href="#DejaVuSans-105"/>
     <use x="2583.240234" xlink:href="#DejaVuSans-115"/>
     <use x="2635.339844" xlink:href="#DejaVuSans-116"/>
     <use x="2674.548828" xlink:href="#DejaVuSans-97"/>
     <use x="2735.828125" xlink:href="#DejaVuSans-110"/>
     <use x="2799.207031" xlink:href="#DejaVuSans-99"/>
     <use x="2854.1875" xlink:href="#DejaVuSans-101"/>
    </g>
   </g>
   <g id="legend_1">
    <g id="patch_7">
     <path d="M 781.134375 625 
L 835.4 625 
Q 837.4 625 837.4 623 
L 837.4 403.828125 
Q 837.4 401.828125 835.4 401.828125 
L 781.134375 401.828125 
Q 779.134375 401.828125 779.134375 403.828125 
L 779.134375 623 
Q 779.134375 625 781.134375 625 
z
" style="fill:#ffffff;opacity:0.8;stroke:#cccccc;stroke-linejoin:miter;"/>
    </g>
    <g id="text_18">
     <!-- distance -->
     <g transform="translate(787.080469 413.426563)scale(0.1 -0.1)">
      <use xlink:href="#DejaVuSans-100"/>
      <use x="63.476562" xlink:href="#DejaVuSans-105"/>
      <use x="91.259766" xlink:href="#DejaVuSans-115"/>
      <use x="143.359375" xlink:href="#DejaVuSans-116"/>
      <use x="182.568359" xlink:href="#DejaVuSans-97"/>
      <use x="243.847656" xlink:href="#DejaVuSans-110"/>
      <use x="307.226562" xlink:href="#DejaVuSans-99"/>
      <use x="362.207031" xlink:href="#DejaVuSans-101"/>
     </g>
    </g>
    <g id="line2d_80">
     <path d="M 783.134375 424.604688 
L 803.134375 424.604688 
" style="fill:none;stroke:#000000;stroke-linecap:square;stroke-width:1.5;"/>
    </g>
    <g id="line2d_81"/>
    <g id="text_19">
     <!-- 0.0 -->
     <defs>
      <path d="M 10.6875 12.40625 
L 21 12.40625 
L 21 0 
L 10.6875 0 
z
" id="DejaVuSans-46"/>
     </defs>
     <g transform="translate(811.134375 428.104688)scale(0.1 -0.1)">
      <use xlink:href="#DejaVuSans-48"/>
      <use x="63.623047" xlink:href="#DejaVuSans-46"/>
      <use x="95.410156" xlink:href="#DejaVuSans-48"/>
     </g>
    </g>
    <g id="line2d_82">
     <path d="M 783.134375 439.282813 
L 803.134375 439.282813 
" style="fill:none;stroke:#100000;stroke-linecap:square;stroke-width:1.5;"/>
    </g>
    <g id="line2d_83"/>
    <g id="text_20">
     <!-- 1.0 -->
     <g transform="translate(811.134375 442.782813)scale(0.1 -0.1)">
      <use xlink:href="#DejaVuSans-49"/>
      <use x="63.623047" xlink:href="#DejaVuSans-46"/>
      <use x="95.410156" xlink:href="#DejaVuSans-48"/>
     </g>
    </g>
    <g id="line2d_84">
     <path d="M 783.134375 453.960938 
L 803.134375 453.960938 
" style="fill:none;stroke:#200000;stroke-linecap:square;stroke-width:1.5;"/>
    </g>
    <g id="line2d_85"/>
    <g id="text_21">
     <!-- 2.0 -->
     <g transform="translate(811.134375 457.460938)scale(0.1 -0.1)">
      <use xlink:href="#DejaVuSans-50"/>
      <use x="63.623047" xlink:href="#DejaVuSans-46"/>
      <use x="95.410156" xlink:href="#DejaVuSans-48"/>
     </g>
    </g>
    <g id="line2d_86">
     <path d="M 783.134375 468.639063 
L 803.134375 468.639063 
" style="fill:none;stroke:#300000;stroke-linecap:square;stroke-width:1.5;"/>
    </g>
    <g id="line2d_87"/>
    <g id="text_22">
     <!-- 3.0 -->
     <g transform="translate(811.134375 472.139063)scale(0.1 -0.1)">
      <use xlink:href="#DejaVuSans-51"/>
      <use x="63.623047" xlink:href="#DejaVuSans-46"/>
      <use x="95.410156" xlink:href="#DejaVuSans-48"/>
     </g>
    </g>
    <g id="line2d_88">
     <path d="M 783.134375 483.317188 
L 803.134375 483.317188 
" style="fill:none;stroke:#400000;stroke-linecap:square;stroke-width:1.5;"/>
    </g>
    <g id="line2d_89"/>
    <g id="text_23">
     <!-- 4.0 -->
     <g transform="translate(811.134375 486.817188)scale(0.1 -0.1)">
      <use xlink:href="#DejaVuSans-52"/>
      <use x="63.623047" xlink:href="#DejaVuSans-46"/>
      <use x="95.410156" xlink:href="#DejaVuSans-48"/>
     </g>
    </g>
    <g id="line2d_90">
     <path d="M 783.134375 497.995313 
L 803.134375 497.995313 
" style="fill:none;stroke:#500000;stroke-linecap:square;stroke-width:1.5;"/>
    </g>
    <g id="line2d_91"/>
    <g id="text_24">
     <!-- 5.0 -->
     <g transform="translate(811.134375 501.495313)scale(0.1 -0.1)">
      <use xlink:href="#DejaVuSans-53"/>
      <use x="63.623047" xlink:href="#DejaVuSans-46"/>
      <use x="95.410156" xlink:href="#DejaVuSans-48"/>
     </g>
    </g>
    <g id="line2d_92">
     <path d="M 783.134375 512.673438 
L 803.134375 512.673438 
" style="fill:none;stroke:#600000;stroke-linecap:square;stroke-width:1.5;"/>
    </g>
    <g id="line2d_93"/>
    <g id="text_25">
     <!-- 6.0 -->
     <g transform="translate(811.134375 516.173438)scale(0.1 -0.1)">
      <use xlink:href="#DejaVuSans-54"/>
      <use x="63.623047" xlink:href="#DejaVuSans-46"/>
      <use x="95.410156" xlink:href="#DejaVuSans-48"/>
     </g>
    </g>
    <g id="line2d_94">
     <path d="M 783.134375 527.351562 
L 803.134375 527.351562 
" style="fill:none;stroke:#700000;stroke-linecap:square;stroke-width:1.5;"/>
    </g>
    <g id="line2d_95"/>
    <g id="text_26">
     <!-- 7.0 -->
     <g transform="translate(811.134375 530.851562)scale(0.1 -0.1)">
      <use xlink:href="#DejaVuSans-55"/>
      <use x="63.623047" xlink:href="#DejaVuSans-46"/>
      <use x="95.410156" xlink:href="#DejaVuSans-48"/>
     </g>
    </g>
    <g id="line2d_96">
     <path d="M 783.134375 542.029688 
L 803.134375 542.029688 
" style="fill:none;stroke:#800000;stroke-linecap:square;stroke-width:1.5;"/>
    </g>
    <g id="line2d_97"/>
    <g id="text_27">
     <!-- 8.0 -->
     <defs>
      <path d="M 31.78125 34.625 
Q 24.75 34.625 20.71875 30.859375 
Q 16.703125 27.09375 16.703125 20.515625 
Q 16.703125 13.921875 20.71875 10.15625 
Q 24.75 6.390625 31.78125 6.390625 
Q 38.8125 6.390625 42.859375 10.171875 
Q 46.921875 13.96875 46.921875 20.515625 
Q 46.921875 27.09375 42.890625 30.859375 
Q 38.875 34.625 31.78125 34.625 
z
M 21.921875 38.8125 
Q 15.578125 40.375 12.03125 44.71875 
Q 8.5 49.078125 8.5 55.328125 
Q 8.5 64.0625 14.71875 69.140625 
Q 20.953125 74.21875 31.78125 74.21875 
Q 42.671875 74.21875 48.875 69.140625 
Q 55.078125 64.0625 55.078125 55.328125 
Q 55.078125 49.078125 51.53125 44.71875 
Q 48 40.375 41.703125 38.8125 
Q 48.828125 37.15625 52.796875 32.3125 
Q 56.78125 27.484375 56.78125 20.515625 
Q 56.78125 9.90625 50.3125 4.234375 
Q 43.84375 -1.421875 31.78125 -1.421875 
Q 19.734375 -1.421875 13.25 4.234375 
Q 6.78125 9.90625 6.78125 20.515625 
Q 6.78125 27.484375 10.78125 32.3125 
Q 14.796875 37.15625 21.921875 38.8125 
z
M 18.3125 54.390625 
Q 18.3125 48.734375 21.84375 45.5625 
Q 25.390625 42.390625 31.78125 42.390625 
Q 38.140625 42.390625 41.71875 45.5625 
Q 45.3125 48.734375 45.3125 54.390625 
Q 45.3125 60.0625 41.71875 63.234375 
Q 38.140625 66.40625 31.78125 66.40625 
Q 25.390625 66.40625 21.84375 63.234375 
Q 18.3125 60.0625 18.3125 54.390625 
z
" id="DejaVuSans-56"/>
     </defs>
     <g transform="translate(811.134375 545.529688)scale(0.1 -0.1)">
      <use xlink:href="#DejaVuSans-56"/>
      <use x="63.623047" xlink:href="#DejaVuSans-46"/>
      <use x="95.410156" xlink:href="#DejaVuSans-48"/>
     </g>
    </g>
    <g id="line2d_98">
     <path d="M 783.134375 556.707813 
L 803.134375 556.707813 
" style="fill:none;stroke:#8f0000;stroke-linecap:square;stroke-width:1.5;"/>
    </g>
    <g id="line2d_99"/>
    <g id="text_28">
     <!-- 9.0 -->
     <defs>
      <path d="M 10.984375 1.515625 
L 10.984375 10.5 
Q 14.703125 8.734375 18.5 7.8125 
Q 22.3125 6.890625 25.984375 6.890625 
Q 35.75 6.890625 40.890625 13.453125 
Q 46.046875 20.015625 46.78125 33.40625 
Q 43.953125 29.203125 39.59375 26.953125 
Q 35.25 24.703125 29.984375 24.703125 
Q 19.046875 24.703125 12.671875 31.3125 
Q 6.296875 37.9375 6.296875 49.421875 
Q 6.296875 60.640625 12.9375 67.421875 
Q 19.578125 74.21875 30.609375 74.21875 
Q 43.265625 74.21875 49.921875 64.515625 
Q 56.59375 54.828125 56.59375 36.375 
Q 56.59375 19.140625 48.40625 8.859375 
Q 40.234375 -1.421875 26.421875 -1.421875 
Q 22.703125 -1.421875 18.890625 -0.6875 
Q 15.09375 0.046875 10.984375 1.515625 
z
M 30.609375 32.421875 
Q 37.25 32.421875 41.125 36.953125 
Q 45.015625 41.5 45.015625 49.421875 
Q 45.015625 57.28125 41.125 61.84375 
Q 37.25 66.40625 30.609375 66.40625 
Q 23.96875 66.40625 20.09375 61.84375 
Q 16.21875 57.28125 16.21875 49.421875 
Q 16.21875 41.5 20.09375 36.953125 
Q 23.96875 32.421875 30.609375 32.421875 
z
" id="DejaVuSans-57"/>
     </defs>
     <g transform="translate(811.134375 560.207813)scale(0.1 -0.1)">
      <use xlink:href="#DejaVuSans-57"/>
      <use x="63.623047" xlink:href="#DejaVuSans-46"/>
      <use x="95.410156" xlink:href="#DejaVuSans-48"/>
     </g>
    </g>
    <g id="line2d_100">
     <path d="M 783.134375 571.385938 
L 803.134375 571.385938 
" style="fill:none;stroke:#9f0000;stroke-linecap:square;stroke-width:1.5;"/>
    </g>
    <g id="line2d_101"/>
    <g id="text_29">
     <!-- 10.0 -->
     <g transform="translate(811.134375 574.885938)scale(0.1 -0.1)">
      <use xlink:href="#DejaVuSans-49"/>
      <use x="63.623047" xlink:href="#DejaVuSans-48"/>
      <use x="127.246094" xlink:href="#DejaVuSans-46"/>
      <use x="159.033203" xlink:href="#DejaVuSans-48"/>
     </g>
    </g>
    <g id="line2d_102">
     <path d="M 783.134375 586.064063 
L 803.134375 586.064063 
" style="fill:none;stroke:#af0000;stroke-linecap:square;stroke-width:1.5;"/>
    </g>
    <g id="line2d_103"/>
    <g id="text_30">
     <!-- 11.0 -->
     <g transform="translate(811.134375 589.564063)scale(0.1 -0.1)">
      <use xlink:href="#DejaVuSans-49"/>
      <use x="63.623047" xlink:href="#DejaVuSans-49"/>
      <use x="127.246094" xlink:href="#DejaVuSans-46"/>
      <use x="159.033203" xlink:href="#DejaVuSans-48"/>
     </g>
    </g>
    <g id="line2d_104">
     <path d="M 783.134375 600.742188 
L 803.134375 600.742188 
" style="fill:none;stroke:#bf0000;stroke-linecap:square;stroke-width:1.5;"/>
    </g>
    <g id="line2d_105"/>
    <g id="text_31">
     <!-- 12.0 -->
     <g transform="translate(811.134375 604.242188)scale(0.1 -0.1)">
      <use xlink:href="#DejaVuSans-49"/>
      <use x="63.623047" xlink:href="#DejaVuSans-50"/>
      <use x="127.246094" xlink:href="#DejaVuSans-46"/>
      <use x="159.033203" xlink:href="#DejaVuSans-48"/>
     </g>
    </g>
    <g id="line2d_106">
     <path d="M 783.134375 615.420313 
L 803.134375 615.420313 
" style="fill:none;stroke:#cf0000;stroke-linecap:square;stroke-width:1.5;"/>
    </g>
    <g id="line2d_107"/>
    <g id="text_32">
     <!-- 13.0 -->
     <g transform="translate(811.134375 618.920313)scale(0.1 -0.1)">
      <use xlink:href="#DejaVuSans-49"/>
      <use x="63.623047" xlink:href="#DejaVuSans-51"/>
      <use x="127.246094" xlink:href="#DejaVuSans-46"/>
      <use x="159.033203" xlink:href="#DejaVuSans-48"/>
     </g>
    </g>
   </g>
  </g>
 </g>
 <defs>
  <clipPath id="p8e0825452a">
   <rect height="543.6" width="725.4" x="117" y="86.4"/>
  </clipPath>
 </defs>
</svg>
