<?xml version="1.0" encoding="utf-8" standalone="no"?>
<!DOCTYPE svg PUBLIC "-//W3C//DTD SVG 1.1//EN"
  "http://www.w3.org/Graphics/SVG/1.1/DTD/svg11.dtd">
<!-- Created with matplotlib (https://matplotlib.org/) -->
<svg height="720pt" version="1.1" viewBox="0 0 936 720" width="936pt" xmlns="http://www.w3.org/2000/svg" xmlns:xlink="http://www.w3.org/1999/xlink">
 <defs>
  <style type="text/css">
*{stroke-linecap:butt;stroke-linejoin:round;}
  </style>
 </defs>
 <g id="figure_1">
  <g id="patch_1">
   <path d="M 0 720 
L 936 720 
L 936 0 
L 0 0 
z
" style="fill:#ffffff;"/>
  </g>
  <g id="axes_1">
   <g id="patch_2">
    <path d="M 117 630 
L 842.4 630 
L 842.4 86.4 
L 117 86.4 
z
" style="fill:#ffffff;"/>
   </g>
   <g id="matplotlib.axis_1">
    <g id="xtick_1">
     <g id="line2d_1">
      <defs>
       <path d="M 0 0 
L 0 3.5 
" id="m9ca45d6467" style="stroke:#000000;stroke-width:0.8;"/>
      </defs>
      <g>
       <use style="stroke:#000000;stroke-width:0.8;" x="149.972727" xlink:href="#m9ca45d6467" y="630"/>
      </g>
     </g>
     <g id="text_1">
      <!-- 0 -->
      <defs>
       <path d="M 31.78125 66.40625 
Q 24.171875 66.40625 20.328125 58.90625 
Q 16.5 51.421875 16.5 36.375 
Q 16.5 21.390625 20.328125 13.890625 
Q 24.171875 6.390625 31.78125 6.390625 
Q 39.453125 6.390625 43.28125 13.890625 
Q 47.125 21.390625 47.125 36.375 
Q 47.125 51.421875 43.28125 58.90625 
Q 39.453125 66.40625 31.78125 66.40625 
z
M 31.78125 74.21875 
Q 44.046875 74.21875 50.515625 64.515625 
Q 56.984375 54.828125 56.984375 36.375 
Q 56.984375 17.96875 50.515625 8.265625 
Q 44.046875 -1.421875 31.78125 -1.421875 
Q 19.53125 -1.421875 13.0625 8.265625 
Q 6.59375 17.96875 6.59375 36.375 
Q 6.59375 54.828125 13.0625 64.515625 
Q 19.53125 74.21875 31.78125 74.21875 
z
" id="DejaVuSans-48"/>
      </defs>
      <g transform="translate(146.791477 644.598438)scale(0.1 -0.1)">
       <use xlink:href="#DejaVuSans-48"/>
      </g>
     </g>
    </g>
    <g id="xtick_2">
     <g id="line2d_2">
      <g>
       <use style="stroke:#000000;stroke-width:0.8;" x="243.233683" xlink:href="#m9ca45d6467" y="630"/>
      </g>
     </g>
     <g id="text_2">
      <!-- 10 -->
      <defs>
       <path d="M 12.40625 8.296875 
L 28.515625 8.296875 
L 28.515625 63.921875 
L 10.984375 60.40625 
L 10.984375 69.390625 
L 28.421875 72.90625 
L 38.28125 72.90625 
L 38.28125 8.296875 
L 54.390625 8.296875 
L 54.390625 0 
L 12.40625 0 
z
" id="DejaVuSans-49"/>
      </defs>
      <g transform="translate(236.871183 644.598438)scale(0.1 -0.1)">
       <use xlink:href="#DejaVuSans-49"/>
       <use x="63.623047" xlink:href="#DejaVuSans-48"/>
      </g>
     </g>
    </g>
    <g id="xtick_3">
     <g id="line2d_3">
      <g>
       <use style="stroke:#000000;stroke-width:0.8;" x="336.49464" xlink:href="#m9ca45d6467" y="630"/>
      </g>
     </g>
     <g id="text_3">
      <!-- 20 -->
      <defs>
       <path d="M 19.1875 8.296875 
L 53.609375 8.296875 
L 53.609375 0 
L 7.328125 0 
L 7.328125 8.296875 
Q 12.9375 14.109375 22.625 23.890625 
Q 32.328125 33.6875 34.8125 36.53125 
Q 39.546875 41.84375 41.421875 45.53125 
Q 43.3125 49.21875 43.3125 52.78125 
Q 43.3125 58.59375 39.234375 62.25 
Q 35.15625 65.921875 28.609375 65.921875 
Q 23.96875 65.921875 18.8125 64.3125 
Q 13.671875 62.703125 7.8125 59.421875 
L 7.8125 69.390625 
Q 13.765625 71.78125 18.9375 73 
Q 24.125 74.21875 28.421875 74.21875 
Q 39.75 74.21875 46.484375 68.546875 
Q 53.21875 62.890625 53.21875 53.421875 
Q 53.21875 48.921875 51.53125 44.890625 
Q 49.859375 40.875 45.40625 35.40625 
Q 44.1875 33.984375 37.640625 27.21875 
Q 31.109375 20.453125 19.1875 8.296875 
z
" id="DejaVuSans-50"/>
      </defs>
      <g transform="translate(330.13214 644.598438)scale(0.1 -0.1)">
       <use xlink:href="#DejaVuSans-50"/>
       <use x="63.623047" xlink:href="#DejaVuSans-48"/>
      </g>
     </g>
    </g>
    <g id="xtick_4">
     <g id="line2d_4">
      <g>
       <use style="stroke:#000000;stroke-width:0.8;" x="429.755596" xlink:href="#m9ca45d6467" y="630"/>
      </g>
     </g>
     <g id="text_4">
      <!-- 30 -->
      <defs>
       <path d="M 40.578125 39.3125 
Q 47.65625 37.796875 51.625 33 
Q 55.609375 28.21875 55.609375 21.1875 
Q 55.609375 10.40625 48.1875 4.484375 
Q 40.765625 -1.421875 27.09375 -1.421875 
Q 22.515625 -1.421875 17.65625 -0.515625 
Q 12.796875 0.390625 7.625 2.203125 
L 7.625 11.71875 
Q 11.71875 9.328125 16.59375 8.109375 
Q 21.484375 6.890625 26.8125 6.890625 
Q 36.078125 6.890625 40.9375 10.546875 
Q 45.796875 14.203125 45.796875 21.1875 
Q 45.796875 27.640625 41.28125 31.265625 
Q 36.765625 34.90625 28.71875 34.90625 
L 20.21875 34.90625 
L 20.21875 43.015625 
L 29.109375 43.015625 
Q 36.375 43.015625 40.234375 45.921875 
Q 44.09375 48.828125 44.09375 54.296875 
Q 44.09375 59.90625 40.109375 62.90625 
Q 36.140625 65.921875 28.71875 65.921875 
Q 24.65625 65.921875 20.015625 65.03125 
Q 15.375 64.15625 9.8125 62.3125 
L 9.8125 71.09375 
Q 15.4375 72.65625 20.34375 73.4375 
Q 25.25 74.21875 29.59375 74.21875 
Q 40.828125 74.21875 47.359375 69.109375 
Q 53.90625 64.015625 53.90625 55.328125 
Q 53.90625 49.265625 50.4375 45.09375 
Q 46.96875 40.921875 40.578125 39.3125 
z
" id="DejaVuSans-51"/>
      </defs>
      <g transform="translate(423.393096 644.598438)scale(0.1 -0.1)">
       <use xlink:href="#DejaVuSans-51"/>
       <use x="63.623047" xlink:href="#DejaVuSans-48"/>
      </g>
     </g>
    </g>
    <g id="xtick_5">
     <g id="line2d_5">
      <g>
       <use style="stroke:#000000;stroke-width:0.8;" x="523.016552" xlink:href="#m9ca45d6467" y="630"/>
      </g>
     </g>
     <g id="text_5">
      <!-- 40 -->
      <defs>
       <path d="M 37.796875 64.3125 
L 12.890625 25.390625 
L 37.796875 25.390625 
z
M 35.203125 72.90625 
L 47.609375 72.90625 
L 47.609375 25.390625 
L 58.015625 25.390625 
L 58.015625 17.1875 
L 47.609375 17.1875 
L 47.609375 0 
L 37.796875 0 
L 37.796875 17.1875 
L 4.890625 17.1875 
L 4.890625 26.703125 
z
" id="DejaVuSans-52"/>
      </defs>
      <g transform="translate(516.654052 644.598438)scale(0.1 -0.1)">
       <use xlink:href="#DejaVuSans-52"/>
       <use x="63.623047" xlink:href="#DejaVuSans-48"/>
      </g>
     </g>
    </g>
    <g id="xtick_6">
     <g id="line2d_6">
      <g>
       <use style="stroke:#000000;stroke-width:0.8;" x="616.277508" xlink:href="#m9ca45d6467" y="630"/>
      </g>
     </g>
     <g id="text_6">
      <!-- 50 -->
      <defs>
       <path d="M 10.796875 72.90625 
L 49.515625 72.90625 
L 49.515625 64.59375 
L 19.828125 64.59375 
L 19.828125 46.734375 
Q 21.96875 47.46875 24.109375 47.828125 
Q 26.265625 48.1875 28.421875 48.1875 
Q 40.625 48.1875 47.75 41.5 
Q 54.890625 34.8125 54.890625 23.390625 
Q 54.890625 11.625 47.5625 5.09375 
Q 40.234375 -1.421875 26.90625 -1.421875 
Q 22.3125 -1.421875 17.546875 -0.640625 
Q 12.796875 0.140625 7.71875 1.703125 
L 7.71875 11.625 
Q 12.109375 9.234375 16.796875 8.0625 
Q 21.484375 6.890625 26.703125 6.890625 
Q 35.15625 6.890625 40.078125 11.328125 
Q 45.015625 15.765625 45.015625 23.390625 
Q 45.015625 31 40.078125 35.4375 
Q 35.15625 39.890625 26.703125 39.890625 
Q 22.75 39.890625 18.8125 39.015625 
Q 14.890625 38.140625 10.796875 36.28125 
z
" id="DejaVuSans-53"/>
      </defs>
      <g transform="translate(609.915008 644.598438)scale(0.1 -0.1)">
       <use xlink:href="#DejaVuSans-53"/>
       <use x="63.623047" xlink:href="#DejaVuSans-48"/>
      </g>
     </g>
    </g>
    <g id="xtick_7">
     <g id="line2d_7">
      <g>
       <use style="stroke:#000000;stroke-width:0.8;" x="709.538464" xlink:href="#m9ca45d6467" y="630"/>
      </g>
     </g>
     <g id="text_7">
      <!-- 60 -->
      <defs>
       <path d="M 33.015625 40.375 
Q 26.375 40.375 22.484375 35.828125 
Q 18.609375 31.296875 18.609375 23.390625 
Q 18.609375 15.53125 22.484375 10.953125 
Q 26.375 6.390625 33.015625 6.390625 
Q 39.65625 6.390625 43.53125 10.953125 
Q 47.40625 15.53125 47.40625 23.390625 
Q 47.40625 31.296875 43.53125 35.828125 
Q 39.65625 40.375 33.015625 40.375 
z
M 52.59375 71.296875 
L 52.59375 62.3125 
Q 48.875 64.0625 45.09375 64.984375 
Q 41.3125 65.921875 37.59375 65.921875 
Q 27.828125 65.921875 22.671875 59.328125 
Q 17.53125 52.734375 16.796875 39.40625 
Q 19.671875 43.65625 24.015625 45.921875 
Q 28.375 48.1875 33.59375 48.1875 
Q 44.578125 48.1875 50.953125 41.515625 
Q 57.328125 34.859375 57.328125 23.390625 
Q 57.328125 12.15625 50.6875 5.359375 
Q 44.046875 -1.421875 33.015625 -1.421875 
Q 20.359375 -1.421875 13.671875 8.265625 
Q 6.984375 17.96875 6.984375 36.375 
Q 6.984375 53.65625 15.1875 63.9375 
Q 23.390625 74.21875 37.203125 74.21875 
Q 40.921875 74.21875 44.703125 73.484375 
Q 48.484375 72.75 52.59375 71.296875 
z
" id="DejaVuSans-54"/>
      </defs>
      <g transform="translate(703.175964 644.598438)scale(0.1 -0.1)">
       <use xlink:href="#DejaVuSans-54"/>
       <use x="63.623047" xlink:href="#DejaVuSans-48"/>
      </g>
     </g>
    </g>
    <g id="xtick_8">
     <g id="line2d_8">
      <g>
       <use style="stroke:#000000;stroke-width:0.8;" x="802.799421" xlink:href="#m9ca45d6467" y="630"/>
      </g>
     </g>
     <g id="text_8">
      <!-- 70 -->
      <defs>
       <path d="M 8.203125 72.90625 
L 55.078125 72.90625 
L 55.078125 68.703125 
L 28.609375 0 
L 18.3125 0 
L 43.21875 64.59375 
L 8.203125 64.59375 
z
" id="DejaVuSans-55"/>
      </defs>
      <g transform="translate(796.436921 644.598438)scale(0.1 -0.1)">
       <use xlink:href="#DejaVuSans-55"/>
       <use x="63.623047" xlink:href="#DejaVuSans-48"/>
      </g>
     </g>
    </g>
    <g id="text_9">
     <!-- norm distance -&gt; sqrt(x^2 + y^2) -->
     <defs>
      <path d="M 54.890625 33.015625 
L 54.890625 0 
L 45.90625 0 
L 45.90625 32.71875 
Q 45.90625 40.484375 42.875 44.328125 
Q 39.84375 48.1875 33.796875 48.1875 
Q 26.515625 48.1875 22.3125 43.546875 
Q 18.109375 38.921875 18.109375 30.90625 
L 18.109375 0 
L 9.078125 0 
L 9.078125 54.6875 
L 18.109375 54.6875 
L 18.109375 46.1875 
Q 21.34375 51.125 25.703125 53.5625 
Q 30.078125 56 35.796875 56 
Q 45.21875 56 50.046875 50.171875 
Q 54.890625 44.34375 54.890625 33.015625 
z
" id="DejaVuSans-110"/>
      <path d="M 30.609375 48.390625 
Q 23.390625 48.390625 19.1875 42.75 
Q 14.984375 37.109375 14.984375 27.296875 
Q 14.984375 17.484375 19.15625 11.84375 
Q 23.34375 6.203125 30.609375 6.203125 
Q 37.796875 6.203125 41.984375 11.859375 
Q 46.1875 17.53125 46.1875 27.296875 
Q 46.1875 37.015625 41.984375 42.703125 
Q 37.796875 48.390625 30.609375 48.390625 
z
M 30.609375 56 
Q 42.328125 56 49.015625 48.375 
Q 55.71875 40.765625 55.71875 27.296875 
Q 55.71875 13.875 49.015625 6.21875 
Q 42.328125 -1.421875 30.609375 -1.421875 
Q 18.84375 -1.421875 12.171875 6.21875 
Q 5.515625 13.875 5.515625 27.296875 
Q 5.515625 40.765625 12.171875 48.375 
Q 18.84375 56 30.609375 56 
z
" id="DejaVuSans-111"/>
      <path d="M 41.109375 46.296875 
Q 39.59375 47.171875 37.8125 47.578125 
Q 36.03125 48 33.890625 48 
Q 26.265625 48 22.1875 43.046875 
Q 18.109375 38.09375 18.109375 28.8125 
L 18.109375 0 
L 9.078125 0 
L 9.078125 54.6875 
L 18.109375 54.6875 
L 18.109375 46.1875 
Q 20.953125 51.171875 25.484375 53.578125 
Q 30.03125 56 36.53125 56 
Q 37.453125 56 38.578125 55.875 
Q 39.703125 55.765625 41.0625 55.515625 
z
" id="DejaVuSans-114"/>
      <path d="M 52 44.1875 
Q 55.375 50.25 60.0625 53.125 
Q 64.75 56 71.09375 56 
Q 79.640625 56 84.28125 50.015625 
Q 88.921875 44.046875 88.921875 33.015625 
L 88.921875 0 
L 79.890625 0 
L 79.890625 32.71875 
Q 79.890625 40.578125 77.09375 44.375 
Q 74.3125 48.1875 68.609375 48.1875 
Q 61.625 48.1875 57.5625 43.546875 
Q 53.515625 38.921875 53.515625 30.90625 
L 53.515625 0 
L 44.484375 0 
L 44.484375 32.71875 
Q 44.484375 40.625 41.703125 44.40625 
Q 38.921875 48.1875 33.109375 48.1875 
Q 26.21875 48.1875 22.15625 43.53125 
Q 18.109375 38.875 18.109375 30.90625 
L 18.109375 0 
L 9.078125 0 
L 9.078125 54.6875 
L 18.109375 54.6875 
L 18.109375 46.1875 
Q 21.1875 51.21875 25.484375 53.609375 
Q 29.78125 56 35.6875 56 
Q 41.65625 56 45.828125 52.96875 
Q 50 49.953125 52 44.1875 
z
" id="DejaVuSans-109"/>
      <path id="DejaVuSans-32"/>
      <path d="M 45.40625 46.390625 
L 45.40625 75.984375 
L 54.390625 75.984375 
L 54.390625 0 
L 45.40625 0 
L 45.40625 8.203125 
Q 42.578125 3.328125 38.25 0.953125 
Q 33.9375 -1.421875 27.875 -1.421875 
Q 17.96875 -1.421875 11.734375 6.484375 
Q 5.515625 14.40625 5.515625 27.296875 
Q 5.515625 40.1875 11.734375 48.09375 
Q 17.96875 56 27.875 56 
Q 33.9375 56 38.25 53.625 
Q 42.578125 51.265625 45.40625 46.390625 
z
M 14.796875 27.296875 
Q 14.796875 17.390625 18.875 11.75 
Q 22.953125 6.109375 30.078125 6.109375 
Q 37.203125 6.109375 41.296875 11.75 
Q 45.40625 17.390625 45.40625 27.296875 
Q 45.40625 37.203125 41.296875 42.84375 
Q 37.203125 48.484375 30.078125 48.484375 
Q 22.953125 48.484375 18.875 42.84375 
Q 14.796875 37.203125 14.796875 27.296875 
z
" id="DejaVuSans-100"/>
      <path d="M 9.421875 54.6875 
L 18.40625 54.6875 
L 18.40625 0 
L 9.421875 0 
z
M 9.421875 75.984375 
L 18.40625 75.984375 
L 18.40625 64.59375 
L 9.421875 64.59375 
z
" id="DejaVuSans-105"/>
      <path d="M 44.28125 53.078125 
L 44.28125 44.578125 
Q 40.484375 46.53125 36.375 47.5 
Q 32.28125 48.484375 27.875 48.484375 
Q 21.1875 48.484375 17.84375 46.4375 
Q 14.5 44.390625 14.5 40.28125 
Q 14.5 37.15625 16.890625 35.375 
Q 19.28125 33.59375 26.515625 31.984375 
L 29.59375 31.296875 
Q 39.15625 29.25 43.1875 25.515625 
Q 47.21875 21.78125 47.21875 15.09375 
Q 47.21875 7.46875 41.1875 3.015625 
Q 35.15625 -1.421875 24.609375 -1.421875 
Q 20.21875 -1.421875 15.453125 -0.5625 
Q 10.6875 0.296875 5.421875 2 
L 5.421875 11.28125 
Q 10.40625 8.6875 15.234375 7.390625 
Q 20.0625 6.109375 24.8125 6.109375 
Q 31.15625 6.109375 34.5625 8.28125 
Q 37.984375 10.453125 37.984375 14.40625 
Q 37.984375 18.0625 35.515625 20.015625 
Q 33.0625 21.96875 24.703125 23.78125 
L 21.578125 24.515625 
Q 13.234375 26.265625 9.515625 29.90625 
Q 5.8125 33.546875 5.8125 39.890625 
Q 5.8125 47.609375 11.28125 51.796875 
Q 16.75 56 26.8125 56 
Q 31.78125 56 36.171875 55.265625 
Q 40.578125 54.546875 44.28125 53.078125 
z
" id="DejaVuSans-115"/>
      <path d="M 18.3125 70.21875 
L 18.3125 54.6875 
L 36.8125 54.6875 
L 36.8125 47.703125 
L 18.3125 47.703125 
L 18.3125 18.015625 
Q 18.3125 11.328125 20.140625 9.421875 
Q 21.96875 7.515625 27.59375 7.515625 
L 36.8125 7.515625 
L 36.8125 0 
L 27.59375 0 
Q 17.1875 0 13.234375 3.875 
Q 9.28125 7.765625 9.28125 18.015625 
L 9.28125 47.703125 
L 2.6875 47.703125 
L 2.6875 54.6875 
L 9.28125 54.6875 
L 9.28125 70.21875 
z
" id="DejaVuSans-116"/>
      <path d="M 34.28125 27.484375 
Q 23.390625 27.484375 19.1875 25 
Q 14.984375 22.515625 14.984375 16.5 
Q 14.984375 11.71875 18.140625 8.90625 
Q 21.296875 6.109375 26.703125 6.109375 
Q 34.1875 6.109375 38.703125 11.40625 
Q 43.21875 16.703125 43.21875 25.484375 
L 43.21875 27.484375 
z
M 52.203125 31.203125 
L 52.203125 0 
L 43.21875 0 
L 43.21875 8.296875 
Q 40.140625 3.328125 35.546875 0.953125 
Q 30.953125 -1.421875 24.3125 -1.421875 
Q 15.921875 -1.421875 10.953125 3.296875 
Q 6 8.015625 6 15.921875 
Q 6 25.140625 12.171875 29.828125 
Q 18.359375 34.515625 30.609375 34.515625 
L 43.21875 34.515625 
L 43.21875 35.40625 
Q 43.21875 41.609375 39.140625 45 
Q 35.0625 48.390625 27.6875 48.390625 
Q 23 48.390625 18.546875 47.265625 
Q 14.109375 46.140625 10.015625 43.890625 
L 10.015625 52.203125 
Q 14.9375 54.109375 19.578125 55.046875 
Q 24.21875 56 28.609375 56 
Q 40.484375 56 46.34375 49.84375 
Q 52.203125 43.703125 52.203125 31.203125 
z
" id="DejaVuSans-97"/>
      <path d="M 48.78125 52.59375 
L 48.78125 44.1875 
Q 44.96875 46.296875 41.140625 47.34375 
Q 37.3125 48.390625 33.40625 48.390625 
Q 24.65625 48.390625 19.8125 42.84375 
Q 14.984375 37.3125 14.984375 27.296875 
Q 14.984375 17.28125 19.8125 11.734375 
Q 24.65625 6.203125 33.40625 6.203125 
Q 37.3125 6.203125 41.140625 7.25 
Q 44.96875 8.296875 48.78125 10.40625 
L 48.78125 2.09375 
Q 45.015625 0.34375 40.984375 -0.53125 
Q 36.96875 -1.421875 32.421875 -1.421875 
Q 20.0625 -1.421875 12.78125 6.34375 
Q 5.515625 14.109375 5.515625 27.296875 
Q 5.515625 40.671875 12.859375 48.328125 
Q 20.21875 56 33.015625 56 
Q 37.15625 56 41.109375 55.140625 
Q 45.0625 54.296875 48.78125 52.59375 
z
" id="DejaVuSans-99"/>
      <path d="M 56.203125 29.59375 
L 56.203125 25.203125 
L 14.890625 25.203125 
Q 15.484375 15.921875 20.484375 11.0625 
Q 25.484375 6.203125 34.421875 6.203125 
Q 39.59375 6.203125 44.453125 7.46875 
Q 49.3125 8.734375 54.109375 11.28125 
L 54.109375 2.78125 
Q 49.265625 0.734375 44.1875 -0.34375 
Q 39.109375 -1.421875 33.890625 -1.421875 
Q 20.796875 -1.421875 13.15625 6.1875 
Q 5.515625 13.8125 5.515625 26.8125 
Q 5.515625 40.234375 12.765625 48.109375 
Q 20.015625 56 32.328125 56 
Q 43.359375 56 49.78125 48.890625 
Q 56.203125 41.796875 56.203125 29.59375 
z
M 47.21875 32.234375 
Q 47.125 39.59375 43.09375 43.984375 
Q 39.0625 48.390625 32.421875 48.390625 
Q 24.90625 48.390625 20.390625 44.140625 
Q 15.875 39.890625 15.1875 32.171875 
z
" id="DejaVuSans-101"/>
      <path d="M 4.890625 31.390625 
L 31.203125 31.390625 
L 31.203125 23.390625 
L 4.890625 23.390625 
z
" id="DejaVuSans-45"/>
      <path d="M 10.59375 49.21875 
L 10.59375 58.109375 
L 73.1875 35.40625 
L 73.1875 27.296875 
L 10.59375 4.59375 
L 10.59375 13.484375 
L 60.890625 31.296875 
z
" id="DejaVuSans-62"/>
      <path d="M 14.796875 27.296875 
Q 14.796875 17.390625 18.875 11.75 
Q 22.953125 6.109375 30.078125 6.109375 
Q 37.203125 6.109375 41.296875 11.75 
Q 45.40625 17.390625 45.40625 27.296875 
Q 45.40625 37.203125 41.296875 42.84375 
Q 37.203125 48.484375 30.078125 48.484375 
Q 22.953125 48.484375 18.875 42.84375 
Q 14.796875 37.203125 14.796875 27.296875 
z
M 45.40625 8.203125 
Q 42.578125 3.328125 38.25 0.953125 
Q 33.9375 -1.421875 27.875 -1.421875 
Q 17.96875 -1.421875 11.734375 6.484375 
Q 5.515625 14.40625 5.515625 27.296875 
Q 5.515625 40.1875 11.734375 48.09375 
Q 17.96875 56 27.875 56 
Q 33.9375 56 38.25 53.625 
Q 42.578125 51.265625 45.40625 46.390625 
L 45.40625 54.6875 
L 54.390625 54.6875 
L 54.390625 -20.796875 
L 45.40625 -20.796875 
z
" id="DejaVuSans-113"/>
      <path d="M 31 75.875 
Q 24.46875 64.65625 21.28125 53.65625 
Q 18.109375 42.671875 18.109375 31.390625 
Q 18.109375 20.125 21.3125 9.0625 
Q 24.515625 -2 31 -13.1875 
L 23.1875 -13.1875 
Q 15.875 -1.703125 12.234375 9.375 
Q 8.59375 20.453125 8.59375 31.390625 
Q 8.59375 42.28125 12.203125 53.3125 
Q 15.828125 64.359375 23.1875 75.875 
z
" id="DejaVuSans-40"/>
      <path d="M 54.890625 54.6875 
L 35.109375 28.078125 
L 55.90625 0 
L 45.3125 0 
L 29.390625 21.484375 
L 13.484375 0 
L 2.875 0 
L 24.125 28.609375 
L 4.6875 54.6875 
L 15.28125 54.6875 
L 29.78125 35.203125 
L 44.28125 54.6875 
z
" id="DejaVuSans-120"/>
      <path d="M 46.6875 72.90625 
L 73.1875 45.703125 
L 63.375 45.703125 
L 41.890625 64.984375 
L 20.40625 45.703125 
L 10.59375 45.703125 
L 37.109375 72.90625 
z
" id="DejaVuSans-94"/>
      <path d="M 46 62.703125 
L 46 35.5 
L 73.1875 35.5 
L 73.1875 27.203125 
L 46 27.203125 
L 46 0 
L 37.796875 0 
L 37.796875 27.203125 
L 10.59375 27.203125 
L 10.59375 35.5 
L 37.796875 35.5 
L 37.796875 62.703125 
z
" id="DejaVuSans-43"/>
      <path d="M 32.171875 -5.078125 
Q 28.375 -14.84375 24.75 -17.8125 
Q 21.140625 -20.796875 15.09375 -20.796875 
L 7.90625 -20.796875 
L 7.90625 -13.28125 
L 13.1875 -13.28125 
Q 16.890625 -13.28125 18.9375 -11.515625 
Q 21 -9.765625 23.484375 -3.21875 
L 25.09375 0.875 
L 2.984375 54.6875 
L 12.5 54.6875 
L 29.59375 11.921875 
L 46.6875 54.6875 
L 56.203125 54.6875 
z
" id="DejaVuSans-121"/>
      <path d="M 8.015625 75.875 
L 15.828125 75.875 
Q 23.140625 64.359375 26.78125 53.3125 
Q 30.421875 42.28125 30.421875 31.390625 
Q 30.421875 20.453125 26.78125 9.375 
Q 23.140625 -1.703125 15.828125 -13.1875 
L 8.015625 -13.1875 
Q 14.5 -2 17.703125 9.0625 
Q 20.90625 20.125 20.90625 31.390625 
Q 20.90625 42.671875 17.703125 53.65625 
Q 14.5 64.65625 8.015625 75.875 
z
" id="DejaVuSans-41"/>
     </defs>
     <g transform="translate(392.874219 658.276562)scale(0.1 -0.1)">
      <use xlink:href="#DejaVuSans-110"/>
      <use x="63.378906" xlink:href="#DejaVuSans-111"/>
      <use x="124.560547" xlink:href="#DejaVuSans-114"/>
      <use x="165.658203" xlink:href="#DejaVuSans-109"/>
      <use x="263.070312" xlink:href="#DejaVuSans-32"/>
      <use x="294.857422" xlink:href="#DejaVuSans-100"/>
      <use x="358.333984" xlink:href="#DejaVuSans-105"/>
      <use x="386.117188" xlink:href="#DejaVuSans-115"/>
      <use x="438.216797" xlink:href="#DejaVuSans-116"/>
      <use x="477.425781" xlink:href="#DejaVuSans-97"/>
      <use x="538.705078" xlink:href="#DejaVuSans-110"/>
      <use x="602.083984" xlink:href="#DejaVuSans-99"/>
      <use x="657.064453" xlink:href="#DejaVuSans-101"/>
      <use x="718.587891" xlink:href="#DejaVuSans-32"/>
      <use x="750.375" xlink:href="#DejaVuSans-45"/>
      <use x="786.458984" xlink:href="#DejaVuSans-62"/>
      <use x="870.248047" xlink:href="#DejaVuSans-32"/>
      <use x="902.035156" xlink:href="#DejaVuSans-115"/>
      <use x="954.134766" xlink:href="#DejaVuSans-113"/>
      <use x="1017.611328" xlink:href="#DejaVuSans-114"/>
      <use x="1058.724609" xlink:href="#DejaVuSans-116"/>
      <use x="1097.933594" xlink:href="#DejaVuSans-40"/>
      <use x="1136.947266" xlink:href="#DejaVuSans-120"/>
      <use x="1196.126953" xlink:href="#DejaVuSans-94"/>
      <use x="1279.916016" xlink:href="#DejaVuSans-50"/>
      <use x="1343.539062" xlink:href="#DejaVuSans-32"/>
      <use x="1375.326172" xlink:href="#DejaVuSans-43"/>
      <use x="1459.115234" xlink:href="#DejaVuSans-32"/>
      <use x="1490.902344" xlink:href="#DejaVuSans-121"/>
      <use x="1550.082031" xlink:href="#DejaVuSans-94"/>
      <use x="1633.871094" xlink:href="#DejaVuSans-50"/>
      <use x="1697.494141" xlink:href="#DejaVuSans-41"/>
     </g>
    </g>
   </g>
   <g id="matplotlib.axis_2">
    <g id="ytick_1">
     <g id="line2d_9">
      <defs>
       <path d="M 0 0 
L -3.5 0 
" id="m0017d699c4" style="stroke:#000000;stroke-width:0.8;"/>
      </defs>
      <g>
       <use style="stroke:#000000;stroke-width:0.8;" x="117" xlink:href="#m0017d699c4" y="613.061853"/>
      </g>
     </g>
     <g id="text_10">
      <!-- $\mathdefault{10^{0}}$ -->
      <g transform="translate(92.4 616.861071)scale(0.1 -0.1)">
       <use transform="translate(0 0.765625)" xlink:href="#DejaVuSans-49"/>
       <use transform="translate(63.623047 0.765625)" xlink:href="#DejaVuSans-48"/>
       <use transform="translate(128.203125 39.046875)scale(0.7)" xlink:href="#DejaVuSans-48"/>
      </g>
     </g>
    </g>
    <g id="ytick_2">
     <g id="line2d_10">
      <g>
       <use style="stroke:#000000;stroke-width:0.8;" x="117" xlink:href="#m0017d699c4" y="527.85606"/>
      </g>
     </g>
     <g id="text_11">
      <!-- $\mathdefault{10^{1}}$ -->
      <g transform="translate(92.4 531.655279)scale(0.1 -0.1)">
       <use transform="translate(0 0.684375)" xlink:href="#DejaVuSans-49"/>
       <use transform="translate(63.623047 0.684375)" xlink:href="#DejaVuSans-48"/>
       <use transform="translate(128.203125 38.965625)scale(0.7)" xlink:href="#DejaVuSans-49"/>
      </g>
     </g>
    </g>
    <g id="ytick_3">
     <g id="line2d_11">
      <g>
       <use style="stroke:#000000;stroke-width:0.8;" x="117" xlink:href="#m0017d699c4" y="442.650267"/>
      </g>
     </g>
     <g id="text_12">
      <!-- $\mathdefault{10^{2}}$ -->
      <g transform="translate(92.4 446.449486)scale(0.1 -0.1)">
       <use transform="translate(0 0.765625)" xlink:href="#DejaVuSans-49"/>
       <use transform="translate(63.623047 0.765625)" xlink:href="#DejaVuSans-48"/>
       <use transform="translate(128.203125 39.046875)scale(0.7)" xlink:href="#DejaVuSans-50"/>
      </g>
     </g>
    </g>
    <g id="ytick_4">
     <g id="line2d_12">
      <g>
       <use style="stroke:#000000;stroke-width:0.8;" x="117" xlink:href="#m0017d699c4" y="357.444474"/>
      </g>
     </g>
     <g id="text_13">
      <!-- $\mathdefault{10^{3}}$ -->
      <g transform="translate(92.4 361.243693)scale(0.1 -0.1)">
       <use transform="translate(0 0.765625)" xlink:href="#DejaVuSans-49"/>
       <use transform="translate(63.623047 0.765625)" xlink:href="#DejaVuSans-48"/>
       <use transform="translate(128.203125 39.046875)scale(0.7)" xlink:href="#DejaVuSans-51"/>
      </g>
     </g>
    </g>
    <g id="ytick_5">
     <g id="line2d_13">
      <g>
       <use style="stroke:#000000;stroke-width:0.8;" x="117" xlink:href="#m0017d699c4" y="272.238682"/>
      </g>
     </g>
     <g id="text_14">
      <!-- $\mathdefault{10^{4}}$ -->
      <g transform="translate(92.4 276.0379)scale(0.1 -0.1)">
       <use transform="translate(0 0.684375)" xlink:href="#DejaVuSans-49"/>
       <use transform="translate(63.623047 0.684375)" xlink:href="#DejaVuSans-48"/>
       <use transform="translate(128.203125 38.965625)scale(0.7)" xlink:href="#DejaVuSans-52"/>
      </g>
     </g>
    </g>
    <g id="ytick_6">
     <g id="line2d_14">
      <g>
       <use style="stroke:#000000;stroke-width:0.8;" x="117" xlink:href="#m0017d699c4" y="187.032889"/>
      </g>
     </g>
     <g id="text_15">
      <!-- $\mathdefault{10^{5}}$ -->
      <g transform="translate(92.4 190.832107)scale(0.1 -0.1)">
       <use transform="translate(0 0.684375)" xlink:href="#DejaVuSans-49"/>
       <use transform="translate(63.623047 0.684375)" xlink:href="#DejaVuSans-48"/>
       <use transform="translate(128.203125 38.965625)scale(0.7)" xlink:href="#DejaVuSans-53"/>
      </g>
     </g>
    </g>
    <g id="ytick_7">
     <g id="line2d_15">
      <g>
       <use style="stroke:#000000;stroke-width:0.8;" x="117" xlink:href="#m0017d699c4" y="101.827096"/>
      </g>
     </g>
     <g id="text_16">
      <!-- $\mathdefault{10^{6}}$ -->
      <g transform="translate(92.4 105.626315)scale(0.1 -0.1)">
       <use transform="translate(0 0.765625)" xlink:href="#DejaVuSans-49"/>
       <use transform="translate(63.623047 0.765625)" xlink:href="#DejaVuSans-48"/>
       <use transform="translate(128.203125 39.046875)scale(0.7)" xlink:href="#DejaVuSans-54"/>
      </g>
     </g>
    </g>
    <g id="ytick_8">
     <g id="line2d_16">
      <defs>
       <path d="M 0 0 
L -2 0 
" id="m5c38b66e9c" style="stroke:#000000;stroke-width:0.6;"/>
      </defs>
      <g>
       <use style="stroke:#000000;stroke-width:0.6;" x="117" xlink:href="#m5c38b66e9c" y="626.260397"/>
      </g>
     </g>
    </g>
    <g id="ytick_9">
     <g id="line2d_17">
      <g>
       <use style="stroke:#000000;stroke-width:0.6;" x="117" xlink:href="#m5c38b66e9c" y="621.319147"/>
      </g>
     </g>
    </g>
    <g id="ytick_10">
     <g id="line2d_18">
      <g>
       <use style="stroke:#000000;stroke-width:0.6;" x="117" xlink:href="#m5c38b66e9c" y="616.960656"/>
      </g>
     </g>
    </g>
    <g id="ytick_11">
     <g id="line2d_19">
      <g>
       <use style="stroke:#000000;stroke-width:0.6;" x="117" xlink:href="#m5c38b66e9c" y="587.412353"/>
      </g>
     </g>
    </g>
    <g id="ytick_12">
     <g id="line2d_20">
      <g>
       <use style="stroke:#000000;stroke-width:0.6;" x="117" xlink:href="#m5c38b66e9c" y="572.408358"/>
      </g>
     </g>
    </g>
    <g id="ytick_13">
     <g id="line2d_21">
      <g>
       <use style="stroke:#000000;stroke-width:0.6;" x="117" xlink:href="#m5c38b66e9c" y="561.762854"/>
      </g>
     </g>
    </g>
    <g id="ytick_14">
     <g id="line2d_22">
      <g>
       <use style="stroke:#000000;stroke-width:0.6;" x="117" xlink:href="#m5c38b66e9c" y="553.505559"/>
      </g>
     </g>
    </g>
    <g id="ytick_15">
     <g id="line2d_23">
      <g>
       <use style="stroke:#000000;stroke-width:0.6;" x="117" xlink:href="#m5c38b66e9c" y="546.758859"/>
      </g>
     </g>
    </g>
    <g id="ytick_16">
     <g id="line2d_24">
      <g>
       <use style="stroke:#000000;stroke-width:0.6;" x="117" xlink:href="#m5c38b66e9c" y="541.054604"/>
      </g>
     </g>
    </g>
    <g id="ytick_17">
     <g id="line2d_25">
      <g>
       <use style="stroke:#000000;stroke-width:0.6;" x="117" xlink:href="#m5c38b66e9c" y="536.113354"/>
      </g>
     </g>
    </g>
    <g id="ytick_18">
     <g id="line2d_26">
      <g>
       <use style="stroke:#000000;stroke-width:0.6;" x="117" xlink:href="#m5c38b66e9c" y="531.754863"/>
      </g>
     </g>
    </g>
    <g id="ytick_19">
     <g id="line2d_27">
      <g>
       <use style="stroke:#000000;stroke-width:0.6;" x="117" xlink:href="#m5c38b66e9c" y="502.20656"/>
      </g>
     </g>
    </g>
    <g id="ytick_20">
     <g id="line2d_28">
      <g>
       <use style="stroke:#000000;stroke-width:0.6;" x="117" xlink:href="#m5c38b66e9c" y="487.202565"/>
      </g>
     </g>
    </g>
    <g id="ytick_21">
     <g id="line2d_29">
      <g>
       <use style="stroke:#000000;stroke-width:0.6;" x="117" xlink:href="#m5c38b66e9c" y="476.557061"/>
      </g>
     </g>
    </g>
    <g id="ytick_22">
     <g id="line2d_30">
      <g>
       <use style="stroke:#000000;stroke-width:0.6;" x="117" xlink:href="#m5c38b66e9c" y="468.299767"/>
      </g>
     </g>
    </g>
    <g id="ytick_23">
     <g id="line2d_31">
      <g>
       <use style="stroke:#000000;stroke-width:0.6;" x="117" xlink:href="#m5c38b66e9c" y="461.553066"/>
      </g>
     </g>
    </g>
    <g id="ytick_24">
     <g id="line2d_32">
      <g>
       <use style="stroke:#000000;stroke-width:0.6;" x="117" xlink:href="#m5c38b66e9c" y="455.848811"/>
      </g>
     </g>
    </g>
    <g id="ytick_25">
     <g id="line2d_33">
      <g>
       <use style="stroke:#000000;stroke-width:0.6;" x="117" xlink:href="#m5c38b66e9c" y="450.907562"/>
      </g>
     </g>
    </g>
    <g id="ytick_26">
     <g id="line2d_34">
      <g>
       <use style="stroke:#000000;stroke-width:0.6;" x="117" xlink:href="#m5c38b66e9c" y="446.54907"/>
      </g>
     </g>
    </g>
    <g id="ytick_27">
     <g id="line2d_35">
      <g>
       <use style="stroke:#000000;stroke-width:0.6;" x="117" xlink:href="#m5c38b66e9c" y="417.000768"/>
      </g>
     </g>
    </g>
    <g id="ytick_28">
     <g id="line2d_36">
      <g>
       <use style="stroke:#000000;stroke-width:0.6;" x="117" xlink:href="#m5c38b66e9c" y="401.996772"/>
      </g>
     </g>
    </g>
    <g id="ytick_29">
     <g id="line2d_37">
      <g>
       <use style="stroke:#000000;stroke-width:0.6;" x="117" xlink:href="#m5c38b66e9c" y="391.351268"/>
      </g>
     </g>
    </g>
    <g id="ytick_30">
     <g id="line2d_38">
      <g>
       <use style="stroke:#000000;stroke-width:0.6;" x="117" xlink:href="#m5c38b66e9c" y="383.093974"/>
      </g>
     </g>
    </g>
    <g id="ytick_31">
     <g id="line2d_39">
      <g>
       <use style="stroke:#000000;stroke-width:0.6;" x="117" xlink:href="#m5c38b66e9c" y="376.347273"/>
      </g>
     </g>
    </g>
    <g id="ytick_32">
     <g id="line2d_40">
      <g>
       <use style="stroke:#000000;stroke-width:0.6;" x="117" xlink:href="#m5c38b66e9c" y="370.643019"/>
      </g>
     </g>
    </g>
    <g id="ytick_33">
     <g id="line2d_41">
      <g>
       <use style="stroke:#000000;stroke-width:0.6;" x="117" xlink:href="#m5c38b66e9c" y="365.701769"/>
      </g>
     </g>
    </g>
    <g id="ytick_34">
     <g id="line2d_42">
      <g>
       <use style="stroke:#000000;stroke-width:0.6;" x="117" xlink:href="#m5c38b66e9c" y="361.343278"/>
      </g>
     </g>
    </g>
    <g id="ytick_35">
     <g id="line2d_43">
      <g>
       <use style="stroke:#000000;stroke-width:0.6;" x="117" xlink:href="#m5c38b66e9c" y="331.794975"/>
      </g>
     </g>
    </g>
    <g id="ytick_36">
     <g id="line2d_44">
      <g>
       <use style="stroke:#000000;stroke-width:0.6;" x="117" xlink:href="#m5c38b66e9c" y="316.79098"/>
      </g>
     </g>
    </g>
    <g id="ytick_37">
     <g id="line2d_45">
      <g>
       <use style="stroke:#000000;stroke-width:0.6;" x="117" xlink:href="#m5c38b66e9c" y="306.145475"/>
      </g>
     </g>
    </g>
    <g id="ytick_38">
     <g id="line2d_46">
      <g>
       <use style="stroke:#000000;stroke-width:0.6;" x="117" xlink:href="#m5c38b66e9c" y="297.888181"/>
      </g>
     </g>
    </g>
    <g id="ytick_39">
     <g id="line2d_47">
      <g>
       <use style="stroke:#000000;stroke-width:0.6;" x="117" xlink:href="#m5c38b66e9c" y="291.14148"/>
      </g>
     </g>
    </g>
    <g id="ytick_40">
     <g id="line2d_48">
      <g>
       <use style="stroke:#000000;stroke-width:0.6;" x="117" xlink:href="#m5c38b66e9c" y="285.437226"/>
      </g>
     </g>
    </g>
    <g id="ytick_41">
     <g id="line2d_49">
      <g>
       <use style="stroke:#000000;stroke-width:0.6;" x="117" xlink:href="#m5c38b66e9c" y="280.495976"/>
      </g>
     </g>
    </g>
    <g id="ytick_42">
     <g id="line2d_50">
      <g>
       <use style="stroke:#000000;stroke-width:0.6;" x="117" xlink:href="#m5c38b66e9c" y="276.137485"/>
      </g>
     </g>
    </g>
    <g id="ytick_43">
     <g id="line2d_51">
      <g>
       <use style="stroke:#000000;stroke-width:0.6;" x="117" xlink:href="#m5c38b66e9c" y="246.589182"/>
      </g>
     </g>
    </g>
    <g id="ytick_44">
     <g id="line2d_52">
      <g>
       <use style="stroke:#000000;stroke-width:0.6;" x="117" xlink:href="#m5c38b66e9c" y="231.585187"/>
      </g>
     </g>
    </g>
    <g id="ytick_45">
     <g id="line2d_53">
      <g>
       <use style="stroke:#000000;stroke-width:0.6;" x="117" xlink:href="#m5c38b66e9c" y="220.939683"/>
      </g>
     </g>
    </g>
    <g id="ytick_46">
     <g id="line2d_54">
      <g>
       <use style="stroke:#000000;stroke-width:0.6;" x="117" xlink:href="#m5c38b66e9c" y="212.682388"/>
      </g>
     </g>
    </g>
    <g id="ytick_47">
     <g id="line2d_55">
      <g>
       <use style="stroke:#000000;stroke-width:0.6;" x="117" xlink:href="#m5c38b66e9c" y="205.935687"/>
      </g>
     </g>
    </g>
    <g id="ytick_48">
     <g id="line2d_56">
      <g>
       <use style="stroke:#000000;stroke-width:0.6;" x="117" xlink:href="#m5c38b66e9c" y="200.231433"/>
      </g>
     </g>
    </g>
    <g id="ytick_49">
     <g id="line2d_57">
      <g>
       <use style="stroke:#000000;stroke-width:0.6;" x="117" xlink:href="#m5c38b66e9c" y="195.290183"/>
      </g>
     </g>
    </g>
    <g id="ytick_50">
     <g id="line2d_58">
      <g>
       <use style="stroke:#000000;stroke-width:0.6;" x="117" xlink:href="#m5c38b66e9c" y="190.931692"/>
      </g>
     </g>
    </g>
    <g id="ytick_51">
     <g id="line2d_59">
      <g>
       <use style="stroke:#000000;stroke-width:0.6;" x="117" xlink:href="#m5c38b66e9c" y="161.383389"/>
      </g>
     </g>
    </g>
    <g id="ytick_52">
     <g id="line2d_60">
      <g>
       <use style="stroke:#000000;stroke-width:0.6;" x="117" xlink:href="#m5c38b66e9c" y="146.379394"/>
      </g>
     </g>
    </g>
    <g id="ytick_53">
     <g id="line2d_61">
      <g>
       <use style="stroke:#000000;stroke-width:0.6;" x="117" xlink:href="#m5c38b66e9c" y="135.73389"/>
      </g>
     </g>
    </g>
    <g id="ytick_54">
     <g id="line2d_62">
      <g>
       <use style="stroke:#000000;stroke-width:0.6;" x="117" xlink:href="#m5c38b66e9c" y="127.476595"/>
      </g>
     </g>
    </g>
    <g id="ytick_55">
     <g id="line2d_63">
      <g>
       <use style="stroke:#000000;stroke-width:0.6;" x="117" xlink:href="#m5c38b66e9c" y="120.729895"/>
      </g>
     </g>
    </g>
    <g id="ytick_56">
     <g id="line2d_64">
      <g>
       <use style="stroke:#000000;stroke-width:0.6;" x="117" xlink:href="#m5c38b66e9c" y="115.02564"/>
      </g>
     </g>
    </g>
    <g id="ytick_57">
     <g id="line2d_65">
      <g>
       <use style="stroke:#000000;stroke-width:0.6;" x="117" xlink:href="#m5c38b66e9c" y="110.08439"/>
      </g>
     </g>
    </g>
    <g id="ytick_58">
     <g id="line2d_66">
      <g>
       <use style="stroke:#000000;stroke-width:0.6;" x="117" xlink:href="#m5c38b66e9c" y="105.725899"/>
      </g>
     </g>
    </g>
    <g id="text_17">
     <!-- log(sum(|expected_shift - real_shift|)) over 20 runs -->
     <defs>
      <path d="M 9.421875 75.984375 
L 18.40625 75.984375 
L 18.40625 0 
L 9.421875 0 
z
" id="DejaVuSans-108"/>
      <path d="M 45.40625 27.984375 
Q 45.40625 37.75 41.375 43.109375 
Q 37.359375 48.484375 30.078125 48.484375 
Q 22.859375 48.484375 18.828125 43.109375 
Q 14.796875 37.75 14.796875 27.984375 
Q 14.796875 18.265625 18.828125 12.890625 
Q 22.859375 7.515625 30.078125 7.515625 
Q 37.359375 7.515625 41.375 12.890625 
Q 45.40625 18.265625 45.40625 27.984375 
z
M 54.390625 6.78125 
Q 54.390625 -7.171875 48.1875 -13.984375 
Q 42 -20.796875 29.203125 -20.796875 
Q 24.46875 -20.796875 20.265625 -20.09375 
Q 16.0625 -19.390625 12.109375 -17.921875 
L 12.109375 -9.1875 
Q 16.0625 -11.328125 19.921875 -12.34375 
Q 23.78125 -13.375 27.78125 -13.375 
Q 36.625 -13.375 41.015625 -8.765625 
Q 45.40625 -4.15625 45.40625 5.171875 
L 45.40625 9.625 
Q 42.625 4.78125 38.28125 2.390625 
Q 33.9375 0 27.875 0 
Q 17.828125 0 11.671875 7.65625 
Q 5.515625 15.328125 5.515625 27.984375 
Q 5.515625 40.671875 11.671875 48.328125 
Q 17.828125 56 27.875 56 
Q 33.9375 56 38.28125 53.609375 
Q 42.625 51.21875 45.40625 46.390625 
L 45.40625 54.6875 
L 54.390625 54.6875 
z
" id="DejaVuSans-103"/>
      <path d="M 8.5 21.578125 
L 8.5 54.6875 
L 17.484375 54.6875 
L 17.484375 21.921875 
Q 17.484375 14.15625 20.5 10.265625 
Q 23.53125 6.390625 29.59375 6.390625 
Q 36.859375 6.390625 41.078125 11.03125 
Q 45.3125 15.671875 45.3125 23.6875 
L 45.3125 54.6875 
L 54.296875 54.6875 
L 54.296875 0 
L 45.3125 0 
L 45.3125 8.40625 
Q 42.046875 3.421875 37.71875 1 
Q 33.40625 -1.421875 27.6875 -1.421875 
Q 18.265625 -1.421875 13.375 4.4375 
Q 8.5 10.296875 8.5 21.578125 
z
M 31.109375 56 
z
" id="DejaVuSans-117"/>
      <path d="M 21 76.421875 
L 21 -23.578125 
L 12.703125 -23.578125 
L 12.703125 76.421875 
z
" id="DejaVuSans-124"/>
      <path d="M 18.109375 8.203125 
L 18.109375 -20.796875 
L 9.078125 -20.796875 
L 9.078125 54.6875 
L 18.109375 54.6875 
L 18.109375 46.390625 
Q 20.953125 51.265625 25.265625 53.625 
Q 29.59375 56 35.59375 56 
Q 45.5625 56 51.78125 48.09375 
Q 58.015625 40.1875 58.015625 27.296875 
Q 58.015625 14.40625 51.78125 6.484375 
Q 45.5625 -1.421875 35.59375 -1.421875 
Q 29.59375 -1.421875 25.265625 0.953125 
Q 20.953125 3.328125 18.109375 8.203125 
z
M 48.6875 27.296875 
Q 48.6875 37.203125 44.609375 42.84375 
Q 40.53125 48.484375 33.40625 48.484375 
Q 26.265625 48.484375 22.1875 42.84375 
Q 18.109375 37.203125 18.109375 27.296875 
Q 18.109375 17.390625 22.1875 11.75 
Q 26.265625 6.109375 33.40625 6.109375 
Q 40.53125 6.109375 44.609375 11.75 
Q 48.6875 17.390625 48.6875 27.296875 
z
" id="DejaVuSans-112"/>
      <path d="M 50.984375 -16.609375 
L 50.984375 -23.578125 
L -0.984375 -23.578125 
L -0.984375 -16.609375 
z
" id="DejaVuSans-95"/>
      <path d="M 54.890625 33.015625 
L 54.890625 0 
L 45.90625 0 
L 45.90625 32.71875 
Q 45.90625 40.484375 42.875 44.328125 
Q 39.84375 48.1875 33.796875 48.1875 
Q 26.515625 48.1875 22.3125 43.546875 
Q 18.109375 38.921875 18.109375 30.90625 
L 18.109375 0 
L 9.078125 0 
L 9.078125 75.984375 
L 18.109375 75.984375 
L 18.109375 46.1875 
Q 21.34375 51.125 25.703125 53.5625 
Q 30.078125 56 35.796875 56 
Q 45.21875 56 50.046875 50.171875 
Q 54.890625 44.34375 54.890625 33.015625 
z
" id="DejaVuSans-104"/>
      <path d="M 37.109375 75.984375 
L 37.109375 68.5 
L 28.515625 68.5 
Q 23.6875 68.5 21.796875 66.546875 
Q 19.921875 64.59375 19.921875 59.515625 
L 19.921875 54.6875 
L 34.71875 54.6875 
L 34.71875 47.703125 
L 19.921875 47.703125 
L 19.921875 0 
L 10.890625 0 
L 10.890625 47.703125 
L 2.296875 47.703125 
L 2.296875 54.6875 
L 10.890625 54.6875 
L 10.890625 58.5 
Q 10.890625 67.625 15.140625 71.796875 
Q 19.390625 75.984375 28.609375 75.984375 
z
" id="DejaVuSans-102"/>
      <path d="M 2.984375 54.6875 
L 12.5 54.6875 
L 29.59375 8.796875 
L 46.6875 54.6875 
L 56.203125 54.6875 
L 35.6875 0 
L 23.484375 0 
z
" id="DejaVuSans-118"/>
     </defs>
     <g transform="translate(86.042187 485.492188)rotate(-90)scale(0.1 -0.1)">
      <use xlink:href="#DejaVuSans-108"/>
      <use x="27.783203" xlink:href="#DejaVuSans-111"/>
      <use x="88.964844" xlink:href="#DejaVuSans-103"/>
      <use x="152.441406" xlink:href="#DejaVuSans-40"/>
      <use x="191.455078" xlink:href="#DejaVuSans-115"/>
      <use x="243.554688" xlink:href="#DejaVuSans-117"/>
      <use x="306.933594" xlink:href="#DejaVuSans-109"/>
      <use x="404.345703" xlink:href="#DejaVuSans-40"/>
      <use x="443.359375" xlink:href="#DejaVuSans-124"/>
      <use x="477.050781" xlink:href="#DejaVuSans-101"/>
      <use x="538.558594" xlink:href="#DejaVuSans-120"/>
      <use x="597.738281" xlink:href="#DejaVuSans-112"/>
      <use x="661.214844" xlink:href="#DejaVuSans-101"/>
      <use x="722.738281" xlink:href="#DejaVuSans-99"/>
      <use x="777.71875" xlink:href="#DejaVuSans-116"/>
      <use x="816.927734" xlink:href="#DejaVuSans-101"/>
      <use x="878.451172" xlink:href="#DejaVuSans-100"/>
      <use x="941.927734" xlink:href="#DejaVuSans-95"/>
      <use x="991.927734" xlink:href="#DejaVuSans-115"/>
      <use x="1044.027344" xlink:href="#DejaVuSans-104"/>
      <use x="1107.40625" xlink:href="#DejaVuSans-105"/>
      <use x="1135.189453" xlink:href="#DejaVuSans-102"/>
      <use x="1170.378906" xlink:href="#DejaVuSans-116"/>
      <use x="1209.587891" xlink:href="#DejaVuSans-32"/>
      <use x="1241.375" xlink:href="#DejaVuSans-45"/>
      <use x="1277.458984" xlink:href="#DejaVuSans-32"/>
      <use x="1309.246094" xlink:href="#DejaVuSans-114"/>
      <use x="1350.328125" xlink:href="#DejaVuSans-101"/>
      <use x="1411.851562" xlink:href="#DejaVuSans-97"/>
      <use x="1473.130859" xlink:href="#DejaVuSans-108"/>
      <use x="1500.914062" xlink:href="#DejaVuSans-95"/>
      <use x="1550.914062" xlink:href="#DejaVuSans-115"/>
      <use x="1603.013672" xlink:href="#DejaVuSans-104"/>
      <use x="1666.392578" xlink:href="#DejaVuSans-105"/>
      <use x="1694.175781" xlink:href="#DejaVuSans-102"/>
      <use x="1729.365234" xlink:href="#DejaVuSans-116"/>
      <use x="1768.574219" xlink:href="#DejaVuSans-124"/>
      <use x="1802.265625" xlink:href="#DejaVuSans-41"/>
      <use x="1841.279297" xlink:href="#DejaVuSans-41"/>
      <use x="1880.292969" xlink:href="#DejaVuSans-32"/>
      <use x="1912.080078" xlink:href="#DejaVuSans-111"/>
      <use x="1973.261719" xlink:href="#DejaVuSans-118"/>
      <use x="2032.441406" xlink:href="#DejaVuSans-101"/>
      <use x="2093.964844" xlink:href="#DejaVuSans-114"/>
      <use x="2135.078125" xlink:href="#DejaVuSans-32"/>
      <use x="2166.865234" xlink:href="#DejaVuSans-50"/>
      <use x="2230.488281" xlink:href="#DejaVuSans-48"/>
      <use x="2294.111328" xlink:href="#DejaVuSans-32"/>
      <use x="2325.898438" xlink:href="#DejaVuSans-114"/>
      <use x="2367.011719" xlink:href="#DejaVuSans-117"/>
      <use x="2430.390625" xlink:href="#DejaVuSans-110"/>
      <use x="2493.769531" xlink:href="#DejaVuSans-115"/>
     </g>
    </g>
   </g>
   <g id="line2d_67">
    <path clip-path="url(#p2b59cbea97)" d="M 149.972727 605.290909 
L 159.298823 605.170709 
L 174.220576 604.857221 
L 174.220576 604.759917 
L 175.952223 604.54928 
L 175.952223 604.097496 
L 184.264364 603.982131 
L 184.264364 603.62803 
L 196.603205 603.506857 
L 196.603205 603.121726 
L 197.526671 602.982695 
L 197.526671 602.167775 
L 202.530882 601.975059 
L 202.530882 600.862228 
L 215.918182 600.616046 
L 215.918182 599.867125 
L 218.426269 599.624741 
L 218.426269 599.170865 
L 219.058641 598.966157 
L 219.058641 598.233703 
L 222.593975 598.197737 
L 222.593975 598.244534 
L 232.799588 598.383917 
L 232.799588 598.455156 
L 232.799588 598.420477 
L 235.772807 598.272041 
L 235.772807 598.033266 
L 236.278172 597.8921 
L 236.278172 597.290711 
L 239.133323 597.256185 
L 239.133323 597.335306 
L 239.133323 597.890666 
L 246.780655 598.195065 
L 246.780655 599.408108 
L 247.625455 599.88672 
L 247.625455 602.788176 
L 259.734019 603.178273 
L 259.734019 604.516474 
L 266.548923 604.394472 
L 266.921371 604.263794 
L 266.921371 603.873104 
L 269.043998 603.774877 
L 269.043998 602.593184 
L 271.312364 602.339874 
L 271.312364 601.780932 
L 275.529132 601.48375 
L 275.529132 599.528911 
L 285.161102 599.331372 
L 285.161102 598.900038 
L 294.71962 598.900038 
L 294.71962 598.935958 
L 294.71962 599.456642 
L 314.836364 599.66235 
L 314.836364 600.37336 
L 342.090297 600.619893 
L 342.090297 601.294405 
L 342.316525 601.479593 
L 342.316525 601.980037 
L 343.614455 601.895988 
L 343.614455 601.387747 
L 347.668357 601.24149 
L 347.668357 599.765433 
L 353.921368 599.495554 
L 353.921368 597.553827 
L 360.379035 597.307154 
L 360.379035 595.989811 
L 374.692931 595.851272 
L 374.692931 595.109187 
L 421.668 594.984025 
L 421.668 594.58383 
L 477.318684 594.440245 
L 477.318684 594.139665 
L 477.451507 593.822135 
L 477.451507 593.164581 
L 478.215523 593.001608 
L 478.215523 592.088522 
L 480.623263 591.950948 
L 480.623263 591.218958 
L 484.399494 591.007201 
L 484.399494 590.508049 
L 497.457093 590.430729 
L 497.457093 591.130803 
L 529.53107 591.280551 
L 529.53107 592.15782 
L 612.909818 592.278996 
L 612.909818 592.59159 
L 616.277508 592.773238 
L 616.37076 593.58906 
L 616.907527 593.753709 
L 616.907527 595.041191 
L 618.603232 595.192084 
L 618.603232 595.532791 
L 618.603232 595.486234 
L 621.275216 595.321865 
L 621.275216 594.64596 
L 624.105412 594.462156 
L 624.105412 594.520416 
L 630.628694 594.673701 
L 630.628694 595.393809 
L 654.303283 595.582039 
L 654.303283 595.680369 
L 654.303283 595.367872 
L 719.70558 595.242323 
L 719.70558 594.355316 
L 809.427273 594.205015 
L 809.427273 594.205015 
" style="fill:none;stroke:#000000;stroke-linecap:square;stroke-width:1.5;"/>
   </g>
   <g id="line2d_68">
    <path clip-path="url(#p2b59cbea97)" d="M 149.972727 587.390515 
L 159.298823 587.390515 
L 159.298823 587.448192 
L 159.298823 587.563259 
L 163.161818 587.732366 
L 163.161818 587.951671 
L 174.220576 588.214929 
L 174.220576 588.851184 
L 175.952223 589.207783 
L 175.952223 590.978686 
L 184.264364 591.25485 
L 184.264364 591.740896 
L 196.603205 591.626782 
L 196.603205 590.876308 
L 197.526671 590.511171 
L 197.526671 588.261168 
L 202.530882 587.798466 
L 202.530882 585.862821 
L 215.918182 585.577265 
L 215.918182 584.930695 
L 218.426269 584.777762 
L 218.426269 584.5472 
L 219.058641 584.39879 
L 219.058641 584.300344 
L 219.058641 584.300344 
L 222.593975 584.300344 
L 222.593975 584.357851 
L 222.593975 584.621426 
L 232.799588 584.765255 
L 232.799588 585.933756 
L 235.772807 586.245208 
L 235.772807 587.264369 
L 236.278172 587.61525 
L 236.278172 589.25755 
L 239.133323 589.544375 
L 239.133323 591.214473 
L 246.780655 591.423747 
L 246.780655 592.015022 
L 247.625455 592.197093 
L 247.625455 592.966457 
L 259.734019 593.062663 
L 259.734019 592.919848 
L 259.734019 592.773107 
L 266.548923 592.587942 
L 266.548923 592.477307 
L 266.921371 592.353353 
L 266.921371 591.08979 
L 269.043998 590.756876 
L 269.043998 587.274858 
L 271.312364 586.653534 
L 271.312364 585.386283 
L 275.529132 584.760627 
L 275.529132 581.380723 
L 285.161102 581.131294 
L 285.161102 580.814688 
L 285.161102 580.814688 
L 294.71962 580.956233 
L 294.71962 582.2375 
L 314.836364 582.583426 
L 314.836364 583.609478 
L 342.090297 583.914309 
L 342.090297 584.596958 
L 342.316525 584.811498 
L 342.316525 584.647133 
L 342.316525 584.323533 
L 343.614455 584.1194 
L 343.614455 582.657936 
L 347.668357 582.415877 
L 347.668357 580.954522 
L 353.921368 580.769754 
L 353.921368 579.346301 
L 360.379035 579.09781 
L 360.379035 576.995452 
L 374.692931 576.667225 
L 374.692931 574.887494 
L 421.668 574.660127 
L 421.668 574.178726 
L 477.451507 574.064716 
L 477.451507 574.14892 
L 477.451507 574.693765 
L 478.215523 574.992244 
L 478.215523 577.888926 
L 480.623263 578.505275 
L 480.623263 582.160805 
L 484.399494 582.665586 
L 484.399494 584.576387 
L 488.376375 584.584329 
L 488.376375 584.505773 
L 488.376375 583.63399 
L 497.457093 583.372479 
L 497.457093 580.900895 
L 529.53107 580.501383 
L 529.53107 578.58088 
L 616.277508 578.342042 
L 616.277508 578.422458 
L 616.37076 581.469508 
L 616.907527 582.213869 
L 616.907527 587.648291 
L 618.603232 588.202193 
L 618.603232 589.030138 
L 618.603232 588.42963 
L 621.275216 587.970506 
L 621.275216 583.616491 
L 624.105412 583.047684 
L 624.105412 580.754029 
L 630.628694 580.647239 
L 630.628694 580.722734 
L 630.628694 580.927714 
L 654.303283 581.062194 
L 654.303283 582.109056 
L 719.70558 582.232455 
L 719.70558 582.792461 
L 809.427273 582.903694 
L 809.427273 582.903694 
" style="fill:none;stroke:#100000;stroke-linecap:square;stroke-width:1.5;"/>
   </g>
   <g id="line2d_69">
    <path clip-path="url(#p2b59cbea97)" d="M 149.972727 598.726093 
L 159.298823 598.587732 
L 159.298823 598.115056 
L 163.161818 597.78591 
L 163.161818 597.401719 
L 174.220576 596.967803 
L 174.220576 595.973472 
L 175.952223 595.426061 
L 175.952223 592.446731 
L 184.264364 591.845356 
L 184.264364 590.117801 
L 196.603205 589.580581 
L 196.603205 588.118514 
L 197.526671 587.686302 
L 197.526671 585.97555 
L 202.530882 585.723993 
L 202.530882 584.886135 
L 215.918182 584.714174 
L 215.918182 584.604566 
L 219.058641 584.471541 
L 219.058641 584.234921 
L 222.593975 584.102723 
L 222.593975 584.027789 
L 235.772807 584.08546 
L 235.772807 584.111886 
L 235.772807 584.157276 
L 236.278172 584.166918 
L 236.278172 584.064323 
L 236.278172 584.038642 
L 239.133323 584.023589 
L 239.133323 584.109878 
L 239.133323 584.336221 
L 246.780655 584.51324 
L 246.780655 585.305017 
L 247.625455 585.650053 
L 247.625455 588.131202 
L 259.734019 588.537808 
L 259.734019 590.5075 
L 266.548923 590.735185 
L 266.548923 590.795618 
L 266.921371 590.712195 
L 266.921371 589.891372 
L 269.043998 589.62769 
L 269.043998 586.968953 
L 271.312364 586.513277 
L 271.312364 585.595469 
L 275.529132 585.147074 
L 275.529132 582.745721 
L 285.161102 582.561924 
L 285.161102 582.276055 
L 285.161102 582.276055 
L 294.71962 582.276055 
L 294.71962 582.365129 
L 294.71962 582.775356 
L 314.836364 582.972603 
L 314.836364 583.088969 
L 342.090297 582.97353 
L 342.090297 582.760182 
L 342.316525 582.633391 
L 342.316525 582.098901 
L 343.614455 582.062583 
L 343.614455 582.101749 
L 343.614455 582.297114 
L 347.668357 582.450307 
L 347.668357 584.058226 
L 353.921368 584.278662 
L 353.921368 584.945932 
L 353.921368 584.865057 
L 360.379035 584.769808 
L 360.379035 583.564489 
L 374.692931 583.344922 
L 374.692931 581.985869 
L 421.668 581.775966 
L 421.668 581.236283 
L 477.318684 581.096689 
L 477.318684 580.894355 
L 477.451507 580.798045 
L 477.451507 580.820253 
L 478.215523 580.934053 
L 478.215523 581.421813 
L 480.623263 581.583135 
L 480.623263 581.63404 
L 480.623263 581.364196 
L 484.399494 581.224085 
L 484.399494 579.94084 
L 488.376375 579.771313 
L 488.376375 579.177364 
L 497.457093 579.163784 
L 497.457093 579.215985 
L 497.457093 579.489853 
L 529.53107 579.632318 
L 529.53107 581.03565 
L 612.909818 581.36696 
L 612.909818 582.547945 
L 616.277508 583.005684 
L 616.37076 587.611124 
L 616.907527 588.226044 
L 616.907527 591.210907 
L 618.603232 591.176566 
L 618.603232 589.140246 
L 621.275216 588.513229 
L 621.275216 583.616479 
L 624.105412 582.972735 
L 624.105412 579.597582 
L 630.628694 579.282814 
L 630.628694 577.891525 
L 654.303283 577.763272 
L 654.303283 576.980303 
L 719.70558 576.775315 
L 719.70558 576.314778 
L 809.427273 576.233849 
L 809.427273 576.233849 
" style="fill:none;stroke:#200000;stroke-linecap:square;stroke-width:1.5;"/>
   </g>
   <g id="line2d_70">
    <path clip-path="url(#p2b59cbea97)" d="M 149.972727 575.720299 
L 159.298823 575.620195 
L 159.298823 575.27966 
L 163.161818 575.046793 
L 163.161818 574.779495 
L 174.220576 574.482508 
L 174.220576 573.826066 
L 175.952223 573.478738 
L 175.952223 571.798664 
L 184.264364 571.508673 
L 184.264364 570.796649 
L 196.603205 570.617466 
L 196.603205 570.261819 
L 197.526671 570.172218 
L 197.526671 570.198284 
L 202.530882 570.327987 
L 202.530882 570.858985 
L 215.918182 571.03828 
L 215.918182 571.643692 
L 218.426269 571.855917 
L 218.426269 572.269622 
L 219.058641 572.462327 
L 219.058641 573.100607 
L 219.058641 573.092333 
L 222.593975 573.011259 
L 222.593975 572.02726 
L 232.799588 571.724399 
L 232.799588 569.856638 
L 235.772807 569.443307 
L 235.772807 568.227162 
L 236.278172 567.851783 
L 236.278172 566.47985 
L 239.133323 566.257794 
L 239.133323 566.226896 
L 239.133323 566.444376 
L 246.780655 566.609501 
L 246.780655 567.297129 
L 247.625455 567.566846 
L 247.625455 569.081774 
L 259.734019 569.269225 
L 259.734019 570.032219 
L 266.548923 570.180296 
L 266.548923 570.260848 
L 266.921371 570.444005 
L 266.921371 571.029469 
L 269.043998 571.152883 
L 269.043998 571.672424 
L 269.043998 571.649726 
L 271.312364 571.491795 
L 271.312364 571.36924 
L 275.529132 571.219172 
L 275.529132 569.625488 
L 285.161102 569.373281 
L 285.161102 568.343784 
L 294.71962 568.114682 
L 294.71962 568.000568 
L 294.71962 568.000568 
L 314.836364 568.116767 
L 314.836364 568.190498 
L 342.090297 568.364276 
L 342.090297 568.549481 
L 342.316525 568.729029 
L 342.316525 569.079998 
L 343.614455 569.284607 
L 343.614455 570.039439 
L 347.668357 570.239573 
L 347.668357 571.835935 
L 353.921368 572.044066 
L 353.921368 572.768803 
L 353.921368 572.703912 
L 360.379035 572.6009 
L 360.379035 570.912037 
L 374.692931 570.571065 
L 374.692931 568.481154 
L 421.668 568.17309 
L 421.668 567.403284 
L 477.318684 567.207364 
L 477.318684 566.919211 
L 477.451507 566.748802 
L 477.451507 566.759498 
L 478.215523 566.870386 
L 478.215523 567.49152 
L 480.623263 567.635079 
L 480.623263 568.207893 
L 484.399494 568.129525 
L 484.399494 567.446446 
L 488.376375 567.292989 
L 488.376375 566.176478 
L 497.457093 565.953358 
L 497.457093 564.308683 
L 529.53107 564.121044 
L 529.53107 563.765869 
L 529.53107 563.765869 
L 612.909818 563.811422 
L 612.909818 564.358664 
L 616.277508 564.687503 
L 616.37076 569.71147 
L 616.907527 570.532536 
L 616.907527 575.592306 
L 618.603232 576.055461 
L 618.603232 576.875417 
L 618.603232 570.401286 
L 621.275216 567.520789 
L 621.275216 519.709385 
L 624.105412 510.188281 
L 624.105412 443.224105 
L 630.628694 434.433229 
L 630.628694 381.589924 
L 654.303283 375.348099 
L 654.303283 340.963272 
L 719.70558 337.375691 
L 719.70558 321.437704 
L 809.427273 320.464365 
L 809.427273 319.491324 
L 809.427273 319.491324 
" style="fill:none;stroke:#300000;stroke-linecap:square;stroke-width:1.5;"/>
   </g>
   <g id="line2d_71">
    <path clip-path="url(#p2b59cbea97)" d="M 149.972727 579.995152 
L 159.298823 579.902394 
L 159.298823 579.589757 
L 163.161818 579.376653 
L 163.161818 579.132472 
L 174.220576 578.862337 
L 174.220576 578.263376 
L 175.952223 577.944624 
L 175.952223 576.305315 
L 184.264364 575.984677 
L 184.264364 575.059339 
L 196.603205 574.764124 
L 196.603205 573.925096 
L 197.526671 573.663689 
L 197.526671 572.557326 
L 202.530882 572.388019 
L 202.530882 571.889112 
L 218.426269 571.881782 
L 218.426269 571.923814 
L 218.426269 571.985329 
L 219.058641 572.157666 
L 219.058641 572.748648 
L 222.593975 572.871742 
L 222.593975 573.348217 
L 232.799588 573.394201 
L 232.799588 573.321183 
L 232.799588 572.959082 
L 235.772807 572.784092 
L 235.772807 572.149949 
L 236.278172 571.925103 
L 236.278172 571.079406 
L 239.133323 571.026593 
L 239.133323 571.091266 
L 239.133323 571.658044 
L 246.780655 571.970025 
L 246.780655 573.202796 
L 247.625455 573.685152 
L 247.625455 576.535782 
L 259.734019 576.904961 
L 259.734019 578.068174 
L 266.921371 577.933897 
L 266.921371 577.863718 
L 266.921371 577.863718 
L 269.043998 577.863718 
L 269.043998 577.791219 
L 269.043998 577.59089 
L 271.312364 577.492445 
L 271.312364 577.256911 
L 275.529132 577.125357 
L 275.529132 576.264935 
L 285.161102 576.076081 
L 285.161102 576.016265 
L 294.71962 575.906977 
L 314.836364 575.728713 
L 314.836364 575.438569 
L 342.090297 575.250245 
L 342.090297 574.527218 
L 342.316525 574.247314 
L 342.316525 572.741404 
L 343.614455 572.447493 
L 343.614455 570.875121 
L 347.668357 570.636939 
L 347.668357 568.914679 
L 353.921368 568.651264 
L 353.921368 566.948699 
L 360.379035 566.767275 
L 360.379035 566.288908 
L 360.379035 566.288908 
L 374.692931 566.386949 
L 374.692931 566.913414 
L 421.668 567.097146 
L 421.668 567.713216 
L 477.318684 567.928214 
L 477.318684 568.353571 
L 477.451507 568.755 
L 477.451507 569.431922 
L 478.215523 569.569128 
L 478.215523 570.084446 
L 480.623263 570.108119 
L 480.623263 570.023844 
L 480.623263 569.606319 
L 484.399494 569.454741 
L 484.399494 568.099924 
L 488.376375 567.895321 
L 488.376375 566.801434 
L 497.457093 566.648349 
L 497.457093 565.832449 
L 529.53107 565.660445 
L 529.53107 565.676181 
L 612.909818 565.803933 
L 612.909818 566.083729 
L 616.277508 566.286875 
L 616.37076 569.385975 
L 616.907527 569.886723 
L 616.907527 572.037963 
L 616.907527 571.580933 
L 618.603232 571.009792 
L 618.603232 534.46566 
L 621.275216 524.751142 
L 621.275216 443.568211 
L 624.105412 432.297406 
L 624.105412 361.363828 
L 630.628694 352.500575 
L 630.628694 299.769734 
L 654.303283 293.570074 
L 654.303283 259.440321 
L 719.70558 255.879662 
L 719.70558 240.058502 
L 809.427273 239.092104 
L 809.427273 238.125979 
L 809.427273 238.125979 
" style="fill:none;stroke:#400000;stroke-linecap:square;stroke-width:1.5;"/>
   </g>
   <g id="line2d_72">
    <path clip-path="url(#p2b59cbea97)" d="M 149.972727 567.440075 
L 159.298823 567.356565 
L 159.298823 567.083566 
L 163.161818 566.90617 
L 163.161818 566.711631 
L 174.220576 566.508023 
L 174.220576 566.103573 
L 175.952223 565.917021 
L 175.952223 565.320706 
L 196.603205 565.256952 
L 196.603205 565.318465 
L 197.526671 565.36291 
L 197.526671 565.243291 
L 197.526671 565.166749 
L 202.530882 564.963776 
L 202.530882 564.46772 
L 215.918182 564.246778 
L 215.918182 564.097529 
L 219.058641 564.057415 
L 219.058641 564.155448 
L 219.058641 564.81551 
L 222.593975 565.072655 
L 222.593975 566.691805 
L 232.799588 567.032855 
L 232.799588 568.408323 
L 235.772807 568.579316 
L 235.772807 568.859145 
L 236.278172 568.876194 
L 236.278172 568.813235 
L 239.133323 568.813235 
L 239.133323 568.867849 
L 239.133323 569.407952 
L 246.780655 569.563676 
L 246.780655 569.998235 
L 247.625455 570.176684 
L 247.625455 570.021052 
L 247.625455 569.40155 
L 259.734019 569.117369 
L 259.734019 566.801037 
L 266.548923 566.510371 
L 266.548923 566.009818 
L 266.921371 565.806061 
L 266.921371 565.263846 
L 269.043998 565.263846 
L 269.043998 565.323184 
L 269.043998 565.707803 
L 271.312364 565.841975 
L 271.312364 566.131939 
L 275.529132 566.281035 
L 275.529132 567.141477 
L 285.161102 567.288666 
L 285.161102 567.474569 
L 314.836364 567.495706 
L 314.836364 567.235657 
L 342.090297 567.104691 
L 342.090297 566.589117 
L 342.316525 566.386142 
L 342.316525 565.321885 
L 343.614455 565.131658 
L 343.614455 564.380873 
L 347.668357 564.223743 
L 347.668357 563.991941 
L 353.921368 563.840224 
L 353.921368 563.146469 
L 360.379035 563.011831 
L 360.379035 562.064245 
L 374.692931 561.922561 
L 374.692931 560.902121 
L 421.668 560.698258 
L 421.668 560.058033 
L 477.318684 559.847677 
L 477.318684 559.458616 
L 477.451507 559.146595 
L 477.451507 558.887735 
L 478.215523 558.887735 
L 478.215523 558.975578 
L 478.215523 559.351952 
L 480.623263 559.526174 
L 480.623263 560.659842 
L 484.399494 560.811593 
L 484.399494 561.297916 
L 488.376375 561.303865 
L 488.376375 561.205861 
L 497.457093 561.104637 
L 497.457093 560.315962 
L 529.53107 560.110695 
L 529.53107 558.854374 
L 612.909818 558.627292 
L 612.909818 558.588277 
L 612.909818 558.588277 
L 616.277508 558.588277 
L 616.277508 558.695065 
L 616.37076 558.85004 
L 616.37076 560.673982 
L 616.907527 561.220052 
L 616.907527 565.427322 
L 618.603232 565.905791 
L 618.603232 567.019506 
L 618.603232 537.180372 
L 621.275216 528.319404 
L 621.275216 447.937864 
L 624.105412 436.503349 
L 624.105412 364.422644 
L 630.628694 355.424602 
L 630.628694 301.982774 
L 654.303283 295.710346 
L 654.303283 261.220832 
L 719.70558 257.626554 
L 719.70558 241.664699 
L 809.427273 240.690162 
L 809.427273 239.71595 
L 809.427273 239.71595 
" style="fill:none;stroke:#500000;stroke-linecap:square;stroke-width:1.5;"/>
   </g>
   <g id="line2d_73">
    <path clip-path="url(#p2b59cbea97)" d="M 149.972727 582.539587 
L 159.298823 582.389386 
L 159.298823 581.876824 
L 163.161818 581.52253 
L 163.161818 581.112213 
L 174.220576 580.650609 
L 174.220576 579.602107 
L 175.952223 579.028486 
L 175.952223 575.873057 
L 184.264364 575.211546 
L 184.264364 573.20319 
L 196.603205 572.528676 
L 196.603205 570.49046 
L 197.526671 569.807796 
L 197.526671 566.423518 
L 202.530882 565.767007 
L 202.530882 562.763734 
L 215.918182 562.244964 
L 215.918182 560.920779 
L 218.426269 560.568205 
L 218.426269 560.015338 
L 219.058641 559.819505 
L 219.058641 559.572516 
L 219.058641 559.603798 
L 222.593975 559.691209 
L 222.593975 560.848282 
L 232.799588 561.188516 
L 232.799588 563.067806 
L 235.772807 563.432192 
L 235.772807 564.417955 
L 236.278172 564.706394 
L 236.278172 565.947827 
L 239.133323 566.186651 
L 239.133323 568.256216 
L 246.780655 568.611037 
L 246.780655 569.671428 
L 247.625455 569.999467 
L 247.625455 571.200223 
L 259.734019 571.07778 
L 259.734019 570.166617 
L 266.548923 570.01963 
L 266.548923 569.770877 
L 266.921371 569.593488 
L 266.921371 569.35647 
L 269.043998 569.207985 
L 269.043998 568.710072 
L 271.312364 568.574016 
L 271.312364 568.286412 
L 275.529132 568.142776 
L 275.529132 567.501438 
L 285.161102 567.494984 
L 285.161102 567.551125 
L 285.161102 567.612553 
L 294.71962 567.786886 
L 294.71962 568.325429 
L 314.836364 568.497241 
L 314.836364 568.441444 
L 342.090297 568.351845 
L 342.090297 567.892167 
L 342.316525 567.685959 
L 342.316525 566.290835 
L 343.614455 565.963856 
L 343.614455 563.104726 
L 347.668357 562.304873 
L 347.668357 550.001469 
L 353.921368 546.998896 
L 353.921368 520.058814 
L 360.379035 516.001149 
L 360.379035 492.311546 
L 374.692931 489.902112 
L 374.692931 481.685275 
L 421.668 481.362907 
L 421.668 481.362907 
L 477.318684 481.638806 
L 477.318684 483.015513 
L 477.451507 484.087579 
L 477.451507 492.369131 
L 478.215523 494.381063 
L 478.215523 505.295352 
L 480.623263 506.559908 
L 480.623263 509.948679 
L 484.399494 509.813 
L 484.399494 505.817778 
L 488.376375 504.555471 
L 488.376375 492.148184 
L 497.457093 489.463137 
L 497.457093 470.968002 
L 529.53107 468.789438 
L 529.53107 459.963935 
L 612.909818 459.245993 
L 612.909818 458.31832 
L 616.277508 458.31832 
L 616.277508 458.383006 
L 616.37076 458.608184 
L 616.37076 461.352794 
L 616.907527 462.020372 
L 616.907527 464.347609 
L 616.907527 464.057018 
L 618.603232 463.709105 
L 618.603232 458.63364 
L 621.275216 456.923391 
L 621.275216 426.287513 
L 624.105412 418.916189 
L 624.105412 359.572107 
L 630.628694 351.220703 
L 630.628694 299.956884 
L 654.303283 293.825411 
L 654.303283 259.885683 
L 719.70558 256.331887 
L 719.70558 240.52175 
L 809.427273 239.555151 
L 809.427273 238.588736 
L 809.427273 238.588736 
" style="fill:none;stroke:#600000;stroke-linecap:square;stroke-width:1.5;"/>
   </g>
   <g id="line2d_74">
    <path clip-path="url(#p2b59cbea97)" d="M 149.972727 545.971042 
L 159.298823 545.415238 
L 159.298823 543.556661 
L 163.161818 542.313181 
L 163.161818 540.901492 
L 174.220576 539.353382 
L 174.220576 535.96851 
L 175.952223 534.194598 
L 175.952223 525.132121 
L 184.264364 523.38132 
L 184.264364 518.485245 
L 196.603205 516.998306 
L 196.603205 513.103671 
L 197.526671 512.029535 
L 197.526671 508.617681 
L 202.530882 508.334546 
L 202.530882 508.122715 
L 202.530882 508.166225 
L 215.918182 508.284619 
L 215.918182 508.842298 
L 218.426269 509.016475 
L 218.426269 508.795151 
L 219.058641 508.441869 
L 219.058641 504.143233 
L 222.593975 503.292448 
L 222.593975 500.335261 
L 232.799588 500.181839 
L 232.799588 500.216362 
L 232.799588 500.887229 
L 235.772807 501.543116 
L 235.772807 504.774832 
L 236.278172 506.251036 
L 236.278172 515.706193 
L 239.133323 517.749511 
L 239.133323 525.6037 
L 239.133323 524.746105 
L 246.780655 523.462151 
L 246.780655 517.690146 
L 247.625455 515.363527 
L 247.625455 501.526454 
L 259.734019 499.644976 
L 259.734019 492.603533 
L 266.548923 492.548957 
L 266.548923 492.548957 
L 266.921371 492.728322 
L 266.921371 497.823823 
L 269.043998 499.092131 
L 269.043998 504.440155 
L 269.043998 503.707384 
L 271.312364 502.586928 
L 271.312364 499.279053 
L 275.529132 497.201853 
L 275.529132 479.739303 
L 285.161102 477.355633 
L 285.161102 467.377478 
L 294.71962 465.816038 
L 294.71962 459.273709 
L 314.836364 458.576592 
L 314.836364 456.980604 
L 342.090297 456.590855 
L 342.090297 455.801033 
L 342.316525 455.617205 
L 342.316525 455.755138 
L 343.614455 455.958319 
L 343.614455 459.34098 
L 347.668357 460.22213 
L 347.668357 466.007483 
L 353.921368 465.98007 
L 353.921368 455.546035 
L 360.379035 453.16172 
L 360.379035 434.885655 
L 374.692931 432.341518 
L 374.692931 418.995977 
L 421.668 417.198933 
L 421.668 412.712085 
L 477.318684 411.539541 
L 477.318684 409.713859 
L 477.451507 408.584894 
L 477.451507 408.142247 
L 477.451507 408.142247 
L 478.215523 408.169823 
L 478.215523 411.026582 
L 480.623263 411.758516 
L 480.623263 414.437019 
L 480.623263 414.034521 
L 484.399494 413.369837 
L 484.399494 402.682288 
L 488.376375 400.663 
L 488.376375 388.814272 
L 497.457093 387.039524 
L 497.457093 377.076558 
L 529.53107 376.02472 
L 529.53107 371.723585 
L 612.909818 371.352806 
L 612.909818 370.851196 
L 616.277508 370.851196 
L 616.277508 370.890272 
L 616.37076 371.028715 
L 616.37076 373.109063 
L 616.907527 373.746778 
L 616.907527 378.566161 
L 618.603232 379.063891 
L 618.603232 379.715064 
L 618.603232 378.542603 
L 621.275216 377.765345 
L 621.275216 365.487006 
L 624.105412 362.498006 
L 624.105412 331.300892 
L 630.628694 325.697117 
L 630.628694 285.583228 
L 654.303283 280.263653 
L 654.303283 249.527179 
L 719.70558 246.210175 
L 719.70558 231.290918 
L 809.427273 230.37123 
L 809.427273 229.450945 
L 809.427273 229.450945 
" style="fill:none;stroke:#700000;stroke-linecap:square;stroke-width:1.5;"/>
   </g>
   <g id="line2d_75">
    <path clip-path="url(#p2b59cbea97)" d="M 149.972727 298.263565 
L 159.298823 298.177932 
L 159.298823 298.111472 
L 174.220576 297.715364 
L 174.220576 297.591374 
L 175.952223 297.460297 
L 175.952223 296.72048 
L 184.264364 296.557418 
L 184.264364 296.034303 
L 196.603205 295.847254 
L 196.603205 295.242429 
L 197.526671 295.02692 
L 197.526671 293.882281 
L 202.530882 293.650134 
L 202.530882 292.585517 
L 215.918182 292.406446 
L 215.918182 291.969481 
L 218.426269 291.775263 
L 218.426269 291.710652 
L 219.058641 291.647068 
L 219.058641 291.708681 
L 222.593975 291.839365 
L 222.593975 292.217017 
L 232.799588 292.407026 
L 232.799588 292.638249 
L 235.772807 292.507313 
L 235.772807 292.437422 
L 236.278172 292.289841 
L 236.278172 292.129175 
L 239.133323 292.129175 
L 239.133323 292.209083 
L 239.133323 292.811286 
L 246.780655 293.048649 
L 246.780655 293.885621 
L 247.625455 294.180144 
L 247.625455 295.446562 
L 259.734019 295.338191 
L 259.734019 293.890776 
L 266.548923 293.58404 
L 266.548923 292.973435 
L 266.921371 292.681274 
L 266.921371 291.245043 
L 269.043998 291.061339 
L 269.043998 290.064791 
L 271.312364 289.839783 
L 271.312364 289.735385 
L 275.529132 289.546126 
L 275.529132 289.188532 
L 294.71962 289.227703 
L 294.71962 289.673422 
L 314.836364 289.874798 
L 314.836364 290.07759 
L 342.090297 290.268574 
L 342.090297 290.438849 
L 342.316525 290.588594 
L 342.316525 290.859688 
L 343.614455 290.996146 
L 343.614455 291.323214 
L 347.668357 291.371915 
L 347.668357 291.314396 
L 347.668357 290.385587 
L 353.921368 290.059075 
L 353.921368 286.784539 
L 360.379035 286.248191 
L 360.379035 282.920733 
L 374.692931 282.564844 
L 374.692931 281.285634 
L 477.318684 281.193438 
L 477.318684 281.236126 
L 477.318684 281.312247 
L 477.451507 281.55804 
L 477.451507 282.351836 
L 478.215523 282.598074 
L 478.215523 284.244075 
L 480.623263 284.512898 
L 480.623263 285.710412 
L 484.399494 285.84367 
L 484.399494 285.77095 
L 484.399494 284.803129 
L 488.376375 284.506765 
L 488.376375 282.376846 
L 497.457093 282.011747 
L 497.457093 280.016878 
L 529.53107 279.861181 
L 529.53107 279.65736 
L 529.53107 279.686992 
L 612.909818 279.768174 
L 612.909818 280.337129 
L 616.277508 280.635643 
L 616.37076 284.656592 
L 616.907527 285.268172 
L 616.907527 288.61326 
L 618.603232 288.922363 
L 618.603232 288.785156 
L 618.603232 287.956283 
L 621.275216 287.569676 
L 621.275216 284.289236 
L 624.105412 283.810808 
L 624.105412 280.551283 
L 630.628694 280.075689 
L 630.628694 276.422049 
L 654.303283 275.855541 
L 654.303283 271.943532 
L 719.70558 271.443893 
L 719.70558 268.977073 
L 809.427273 268.702836 
L 809.427273 268.647154 
L 809.427273 268.647154 
" style="fill:none;stroke:#800000;stroke-linecap:square;stroke-width:1.5;"/>
   </g>
   <g id="line2d_76">
    <path clip-path="url(#p2b59cbea97)" d="M 149.972727 340.224943 
L 159.298823 340.056473 
L 159.298823 339.934323 
L 163.161818 339.794296 
L 163.161818 339.644122 
L 174.220576 339.492183 
L 174.220576 339.212487 
L 175.952223 339.00648 
L 175.952223 338.894037 
L 175.952223 338.894037 
L 184.264364 338.894037 
L 184.264364 338.983886 
L 197.526671 338.933679 
L 197.526671 337.521265 
L 202.530882 337.064692 
L 202.530882 334.16147 
L 215.918182 333.503023 
L 215.918182 331.48945 
L 218.426269 330.822191 
L 218.426269 329.523121 
L 219.058641 328.898263 
L 219.058641 325.723147 
L 222.593975 325.32023 
L 222.593975 324.027385 
L 232.799588 323.875446 
L 232.799588 323.932013 
L 235.772807 324.035542 
L 235.772807 324.609824 
L 236.278172 324.878115 
L 236.278172 326.631932 
L 239.133323 327.038823 
L 239.133323 329.943453 
L 246.780655 330.305207 
L 246.780655 331.160053 
L 247.625455 331.341393 
L 247.625455 331.459155 
L 247.625455 330.137907 
L 259.734019 329.652794 
L 259.734019 325.307463 
L 266.548923 324.686074 
L 266.548923 323.538647 
L 266.921371 323.028467 
L 266.921371 321.040695 
L 269.043998 320.783736 
L 269.043998 320.690343 
L 269.043998 320.719524 
L 271.312364 320.824661 
L 271.312364 320.891069 
L 275.529132 321.066684 
L 275.529132 321.093591 
L 275.529132 320.69534 
L 285.161102 320.5041 
L 285.161102 319.036274 
L 294.71962 318.666073 
L 294.71962 316.379017 
L 314.836364 316.04136 
L 314.836364 315.196978 
L 342.090297 314.97993 
L 342.090297 314.535861 
L 342.316525 314.386818 
L 342.316525 314.390152 
L 343.614455 314.506212 
L 343.614455 314.719667 
L 347.668357 314.73174 
L 347.668357 314.678343 
L 347.668357 313.448662 
L 353.921368 313.071995 
L 353.921368 309.247563 
L 360.379035 308.587517 
L 360.379035 303.98811 
L 374.692931 303.401114 
L 374.692931 300.684969 
L 421.668 300.39861 
L 421.668 299.870482 
L 477.451507 299.803072 
L 477.451507 299.854642 
L 477.451507 300.567978 
L 478.215523 300.853295 
L 478.215523 302.995935 
L 480.623263 303.356331 
L 480.623263 304.872498 
L 484.399494 304.967435 
L 484.399494 304.913285 
L 484.399494 303.305382 
L 488.376375 302.87356 
L 488.376375 299.744488 
L 497.457093 299.186931 
L 497.457093 295.74303 
L 529.53107 295.381801 
L 529.53107 294.365671 
L 612.909818 294.365671 
L 612.909818 294.425183 
L 612.909818 294.556316 
L 616.277508 294.759709 
L 616.37076 298.697062 
L 616.907527 299.378183 
L 616.907527 303.583842 
L 618.603232 303.956183 
L 618.603232 304.554884 
L 618.603232 304.195176 
L 621.275216 303.91742 
L 621.275216 299.993747 
L 624.105412 299.071237 
L 624.105412 287.843248 
L 630.628694 285.376879 
L 630.628694 262.914502 
L 654.303283 259.316867 
L 654.303283 236.152773 
L 719.70558 233.444538 
L 719.70558 220.864239 
L 809.427273 220.069466 
L 809.427273 219.272055 
L 809.427273 219.272055 
" style="fill:none;stroke:#8f0000;stroke-linecap:square;stroke-width:1.5;"/>
   </g>
   <g id="line2d_77">
    <path clip-path="url(#p2b59cbea97)" d="M 149.972727 276.295063 
L 159.298823 276.188152 
L 159.298823 275.827728 
L 163.161818 275.582571 
L 163.161818 275.302171 
L 174.220576 274.992012 
L 174.220576 274.309838 
L 175.952223 273.950811 
L 175.952223 272.198092 
L 184.264364 271.884922 
L 184.264364 271.061726 
L 196.603205 270.827936 
L 196.603205 270.239695 
L 197.526671 270.076893 
L 197.526671 269.434344 
L 202.530882 269.22058 
L 202.530882 268.798444 
L 215.918182 268.687823 
L 215.918182 268.342301 
L 218.426269 268.224853 
L 218.426269 267.996472 
L 219.058641 267.789616 
L 219.058641 267.483637 
L 222.593975 267.470735 
L 222.593975 267.532517 
L 232.799588 267.63657 
L 232.799588 267.873097 
L 236.278172 267.846054 
L 236.278172 267.624708 
L 239.133323 267.624708 
L 239.133323 267.666226 
L 239.133323 268.212985 
L 246.780655 268.456753 
L 246.780655 269.398412 
L 247.625455 269.761124 
L 247.625455 271.778174 
L 259.734019 272.000418 
L 259.734019 272.336513 
L 259.734019 271.837937 
L 266.548923 271.655771 
L 266.548923 271.265119 
L 266.921371 271.068377 
L 266.921371 270.021308 
L 269.043998 269.876609 
L 269.043998 269.035726 
L 271.312364 268.835244 
L 271.312364 268.740784 
L 275.529132 268.564432 
L 275.529132 268.130792 
L 285.161102 267.97623 
L 285.161102 267.876882 
L 314.836364 267.856051 
L 314.836364 267.88675 
L 342.316525 267.782791 
L 342.316525 267.561234 
L 343.614455 267.425982 
L 343.614455 267.349647 
L 347.668357 267.217328 
L 347.668357 266.589788 
L 353.921368 266.376631 
L 353.921368 264.084634 
L 360.379035 263.675753 
L 360.379035 260.776198 
L 374.692931 260.401792 
L 374.692931 258.664983 
L 421.668 258.482778 
L 421.668 258.154112 
L 477.451507 258.124924 
L 477.451507 258.167476 
L 477.451507 258.687218 
L 478.215523 258.892276 
L 478.215523 260.440444 
L 480.623263 260.700653 
L 480.623263 261.74463 
L 484.399494 261.649086 
L 484.399494 260.187694 
L 488.376375 259.821716 
L 488.376375 257.256828 
L 497.457093 256.808909 
L 497.457093 254.100007 
L 529.53107 253.830564 
L 529.53107 253.228296 
L 529.53107 253.228296 
L 612.909818 253.228296 
L 612.909818 253.287935 
L 612.909818 253.615542 
L 616.277508 253.886396 
L 616.37076 258.447562 
L 616.907527 259.22688 
L 616.907527 264.141863 
L 618.603232 264.586962 
L 618.603232 265.259851 
L 618.603232 264.832692 
L 621.275216 264.498478 
L 621.275216 260.85875 
L 624.105412 260.245968 
L 624.105412 255.687023 
L 630.628694 254.984936 
L 630.628694 249.449639 
L 654.303283 248.566365 
L 654.303283 242.209252 
L 719.70558 241.362022 
L 719.70558 237.058967 
L 809.427273 236.7656 
L 809.427273 236.46805 
L 809.427273 236.46805 
" style="fill:none;stroke:#9f0000;stroke-linecap:square;stroke-width:1.5;"/>
   </g>
   <g id="line2d_78">
    <path clip-path="url(#p2b59cbea97)" d="M 149.972727 261.816597 
L 159.298823 261.634287 
L 159.298823 261.493987 
L 163.161818 261.32493 
L 163.161818 261.131694 
L 174.220576 260.918285 
L 174.220576 260.450198 
L 175.952223 260.20494 
L 175.952223 259.029262 
L 184.264364 258.826455 
L 184.264364 258.319692 
L 196.603205 258.187123 
L 196.603205 257.895948 
L 197.526671 257.743461 
L 197.526671 257.685233 
L 215.918182 257.565107 
L 215.918182 257.379945 
L 218.426269 257.189395 
L 218.426269 257.07638 
L 219.058641 256.953153 
L 219.058641 256.167757 
L 222.593975 255.962875 
L 222.593975 255.746345 
L 235.772807 255.787922 
L 235.772807 255.815601 
L 235.772807 255.872271 
L 236.278172 255.990686 
L 236.278172 256.02046 
L 239.133323 256.108434 
L 239.133323 256.79106 
L 246.780655 256.971082 
L 246.780655 257.560784 
L 247.625455 257.754144 
L 247.625455 258.348703 
L 247.625455 258.267585 
L 259.734019 258.140966 
L 259.734019 256.361091 
L 266.548923 256.053119 
L 266.548923 255.456589 
L 266.921371 255.178632 
L 266.921371 253.942018 
L 269.043998 253.712511 
L 269.043998 253.48227 
L 269.043998 253.48227 
L 275.529132 253.517056 
L 275.529132 253.583079 
L 275.529132 253.787223 
L 342.316525 253.949658 
L 342.316525 253.919287 
L 342.316525 253.712285 
L 343.614455 253.566341 
L 343.614455 253.104624 
L 347.668357 252.990823 
L 347.668357 251.757961 
L 353.921368 251.491604 
L 353.921368 248.841356 
L 360.379035 248.356193 
L 360.379035 244.386632 
L 374.692931 243.761192 
L 374.692931 239.983558 
L 421.668 239.388146 
L 421.668 237.748001 
L 477.318684 237.264257 
L 477.318684 236.414204 
L 477.451507 235.734834 
L 477.451507 234.901558 
L 478.215523 234.688362 
L 478.215523 234.668069 
L 478.215523 234.66978 
L 480.623263 234.698283 
L 480.623263 234.598893 
L 480.623263 234.069367 
L 484.399494 233.752371 
L 484.399494 228.456386 
L 488.376375 227.173241 
L 488.376375 216.686643 
L 497.457093 214.56216 
L 497.457093 198.770124 
L 529.53107 196.602716 
L 529.53107 185.51621 
L 612.909818 184.085966 
L 612.909818 180.631801 
L 616.277508 179.766063 
L 616.37076 177.409447 
L 616.37076 177.409447 
L 616.907527 177.496231 
L 616.907527 178.576578 
L 618.603232 178.541708 
L 618.603232 176.370968 
L 621.275216 175.626502 
L 621.275216 168.986363 
L 624.105412 167.986826 
L 624.105412 161.566047 
L 630.628694 160.74641 
L 630.628694 155.664493 
L 654.303283 155.041343 
L 654.303283 151.649442 
L 719.70558 151.319039 
L 719.70558 150.004813 
L 809.427273 149.869478 
L 809.427273 149.869478 
" style="fill:none;stroke:#af0000;stroke-linecap:square;stroke-width:1.5;"/>
   </g>
   <g id="line2d_79">
    <path clip-path="url(#p2b59cbea97)" d="M 149.972727 247.060504 
L 159.298823 246.955819 
L 159.298823 246.87288 
L 163.161818 246.770016 
L 163.161818 246.648649 
L 174.220576 246.509508 
L 174.220576 246.181581 
L 175.952223 245.995385 
L 175.952223 244.898682 
L 184.264364 244.65729 
L 184.264364 243.921058 
L 196.603205 243.67735 
L 196.603205 242.969796 
L 197.526671 242.745394 
L 197.526671 241.726936 
L 202.530882 241.541721 
L 202.530882 240.666383 
L 215.918182 240.495315 
L 215.918182 239.983959 
L 218.426269 239.815771 
L 218.426269 239.490993 
L 219.058641 239.337455 
L 219.058641 238.668834 
L 232.799588 238.554501 
L 232.799588 238.678621 
L 236.278172 238.638592 
L 236.278172 238.611534 
L 236.278172 238.575668 
L 236.278172 238.575668 
L 239.133323 238.654986 
L 239.133323 239.440835 
L 246.780655 239.710451 
L 246.780655 240.686911 
L 247.625455 241.046298 
L 247.625455 242.913561 
L 259.734019 243.095763 
L 259.734019 243.2838 
L 259.734019 242.489643 
L 266.548923 242.252079 
L 266.548923 241.749608 
L 266.921371 241.497507 
L 266.921371 240.159757 
L 269.043998 239.977573 
L 269.043998 238.973377 
L 271.312364 238.756882 
L 271.312364 238.660305 
L 275.529132 238.493233 
L 275.529132 238.228029 
L 294.71962 238.280142 
L 294.71962 238.312768 
L 294.71962 238.513397 
L 343.614455 238.685283 
L 343.614455 238.895754 
L 347.668357 239.058221 
L 347.668357 239.237627 
L 347.668357 238.996079 
L 353.921368 238.829607 
L 353.921368 236.603581 
L 360.379035 236.183704 
L 360.379035 233.323287 
L 374.692931 232.98521 
L 374.692931 231.607558 
L 421.668 231.415881 
L 421.668 231.356309 
L 477.451507 231.422015 
L 477.451507 232.06756 
L 478.215523 232.265002 
L 478.215523 233.707319 
L 480.623263 233.955892 
L 480.623263 235.089638 
L 484.399494 235.229549 
L 484.399494 235.16623 
L 484.399494 234.301381 
L 488.376375 234.034883 
L 488.376375 232.059762 
L 497.457093 231.700899 
L 497.457093 229.389488 
L 529.53107 229.129662 
L 529.53107 228.325305 
L 612.909818 228.325305 
L 612.909818 228.358244 
L 612.909818 228.448699 
L 616.277508 228.599094 
L 616.37076 231.960465 
L 616.907527 232.587023 
L 616.907527 236.693205 
L 618.603232 237.078484 
L 618.603232 237.692347 
L 618.603232 237.343854 
L 621.275216 237.065445 
L 621.275216 234.065458 
L 624.105412 233.574851 
L 624.105412 230.09703 
L 630.628694 229.584868 
L 630.628694 225.6669 
L 654.303283 225.055764 
L 654.303283 220.748303 
L 719.70558 220.185312 
L 719.70558 217.362389 
L 809.427273 217.172222 
L 809.427273 216.979339 
L 809.427273 216.979339 
" style="fill:none;stroke:#bf0000;stroke-linecap:square;stroke-width:1.5;"/>
   </g>
   <g id="line2d_80">
    <path clip-path="url(#p2b59cbea97)" d="M 149.972727 117.473806 
L 159.298823 117.338979 
L 159.298823 117.234364 
L 163.161818 117.107478 
L 163.161818 116.961582 
L 174.220576 116.798819 
L 174.220576 116.434497 
L 175.952223 116.238393 
L 175.952223 115.201953 
L 184.264364 114.993726 
L 184.264364 114.381868 
L 196.603205 114.183492 
L 196.603205 113.609043 
L 197.526671 113.425707 
L 197.526671 112.598712 
L 202.530882 112.453995 
L 202.530882 111.84215 
L 215.918182 111.642378 
L 215.918182 111.465147 
L 218.426269 111.313379 
L 218.426269 111.249584 
L 219.058641 111.109091 
L 219.058641 111.110127 
L 222.593975 111.221246 
L 222.593975 111.48086 
L 232.799588 111.590169 
L 232.799588 112.138024 
L 235.772807 112.328097 
L 235.772807 112.35645 
L 239.133323 112.486016 
L 239.133323 113.451702 
L 246.780655 113.766622 
L 246.780655 114.885924 
L 247.625455 115.293542 
L 247.625455 117.463914 
L 259.734019 117.707112 
L 259.734019 118.199495 
L 259.734019 117.962344 
L 266.548923 117.844226 
L 266.548923 117.576458 
L 266.921371 117.435212 
L 266.921371 116.621339 
L 269.043998 116.396543 
L 269.043998 115.994619 
L 275.529132 115.986559 
L 275.529132 116.056189 
L 275.529132 116.577698 
L 285.161102 116.735637 
L 285.161102 117.697918 
L 294.71962 117.90747 
L 294.71962 119.01088 
L 314.836364 119.230432 
L 314.836364 119.300218 
L 342.090297 119.140953 
L 342.090297 118.875999 
L 342.316525 118.716897 
L 342.316525 117.898238 
L 343.614455 117.671069 
L 343.614455 117.530055 
L 343.614455 117.530055 
L 347.668357 117.624063 
L 347.668357 118.049699 
L 353.921368 118.210548 
L 353.921368 118.389916 
L 353.921368 118.373224 
L 360.379035 118.252262 
L 360.379035 118.187741 
L 374.692931 118.064306 
L 374.692931 117.97994 
L 421.668 117.863774 
L 421.668 117.720055 
L 477.318684 117.560276 
L 477.318684 117.479571 
L 477.451507 117.330463 
L 477.451507 117.159762 
L 478.215523 117.156258 
L 478.215523 117.24512 
L 478.215523 117.306175 
L 480.623263 117.462863 
L 480.623263 117.936662 
L 484.399494 118.112707 
L 484.399494 118.556616 
L 488.376375 118.711283 
L 488.376375 119.214958 
L 497.457093 119.334886 
L 497.457093 120.154417 
L 529.53107 120.317479 
L 529.53107 120.547972 
L 612.909818 120.65683 
L 612.909818 120.710281 
L 616.277508 120.867685 
L 616.37076 122.238848 
L 616.907527 122.548186 
L 616.907527 125.094718 
L 618.603232 125.445702 
L 618.603232 126.804883 
L 621.275216 126.977375 
L 621.275216 127.448127 
L 624.105412 127.578682 
L 624.105412 127.948671 
L 630.628694 128.081314 
L 630.628694 128.921162 
L 654.303283 128.84255 
L 654.303283 126.833973 
L 719.70558 126.398615 
L 719.70558 123.727712 
L 809.427273 123.520896 
L 809.427273 123.308125 
L 809.427273 123.308125 
" style="fill:none;stroke:#cf0000;stroke-linecap:square;stroke-width:1.5;"/>
   </g>
   <g id="patch_3">
    <path d="M 117 630 
L 117 86.4 
" style="fill:none;stroke:#000000;stroke-linecap:square;stroke-linejoin:miter;stroke-width:0.8;"/>
   </g>
   <g id="patch_4">
    <path d="M 842.4 630 
L 842.4 86.4 
" style="fill:none;stroke:#000000;stroke-linecap:square;stroke-linejoin:miter;stroke-width:0.8;"/>
   </g>
   <g id="patch_5">
    <path d="M 117 630 
L 842.4 630 
" style="fill:none;stroke:#000000;stroke-linecap:square;stroke-linejoin:miter;stroke-width:0.8;"/>
   </g>
   <g id="patch_6">
    <path d="M 117 86.4 
L 842.4 86.4 
" style="fill:none;stroke:#000000;stroke-linecap:square;stroke-linejoin:miter;stroke-width:0.8;"/>
   </g>
   <g id="text_18">
    <!-- X,Y shift estimation error with regard to modality distance -->
    <defs>
     <path d="M 6.296875 72.90625 
L 16.890625 72.90625 
L 35.015625 45.796875 
L 53.21875 72.90625 
L 63.8125 72.90625 
L 40.375 37.890625 
L 65.375 0 
L 54.78125 0 
L 34.28125 31 
L 13.625 0 
L 2.984375 0 
L 29 38.921875 
z
" id="DejaVuSans-88"/>
     <path d="M 11.71875 12.40625 
L 22.015625 12.40625 
L 22.015625 4 
L 14.015625 -11.625 
L 7.71875 -11.625 
L 11.71875 4 
z
" id="DejaVuSans-44"/>
     <path d="M -0.203125 72.90625 
L 10.40625 72.90625 
L 30.609375 42.921875 
L 50.6875 72.90625 
L 61.28125 72.90625 
L 35.5 34.71875 
L 35.5 0 
L 25.59375 0 
L 25.59375 34.71875 
z
" id="DejaVuSans-89"/>
     <path d="M 4.203125 54.6875 
L 13.1875 54.6875 
L 24.421875 12.015625 
L 35.59375 54.6875 
L 46.1875 54.6875 
L 57.421875 12.015625 
L 68.609375 54.6875 
L 77.59375 54.6875 
L 63.28125 0 
L 52.6875 0 
L 40.921875 44.828125 
L 29.109375 0 
L 18.5 0 
z
" id="DejaVuSans-119"/>
    </defs>
    <g transform="translate(304.7625 80.4)scale(0.12 -0.12)">
     <use xlink:href="#DejaVuSans-88"/>
     <use x="68.505859" xlink:href="#DejaVuSans-44"/>
     <use x="100.292969" xlink:href="#DejaVuSans-89"/>
     <use x="161.376953" xlink:href="#DejaVuSans-32"/>
     <use x="193.164062" xlink:href="#DejaVuSans-115"/>
     <use x="245.263672" xlink:href="#DejaVuSans-104"/>
     <use x="308.642578" xlink:href="#DejaVuSans-105"/>
     <use x="336.425781" xlink:href="#DejaVuSans-102"/>
     <use x="371.615234" xlink:href="#DejaVuSans-116"/>
     <use x="410.824219" xlink:href="#DejaVuSans-32"/>
     <use x="442.611328" xlink:href="#DejaVuSans-101"/>
     <use x="504.134766" xlink:href="#DejaVuSans-115"/>
     <use x="556.234375" xlink:href="#DejaVuSans-116"/>
     <use x="595.443359" xlink:href="#DejaVuSans-105"/>
     <use x="623.226562" xlink:href="#DejaVuSans-109"/>
     <use x="720.638672" xlink:href="#DejaVuSans-97"/>
     <use x="781.917969" xlink:href="#DejaVuSans-116"/>
     <use x="821.126953" xlink:href="#DejaVuSans-105"/>
     <use x="848.910156" xlink:href="#DejaVuSans-111"/>
     <use x="910.091797" xlink:href="#DejaVuSans-110"/>
     <use x="973.470703" xlink:href="#DejaVuSans-32"/>
     <use x="1005.257812" xlink:href="#DejaVuSans-101"/>
     <use x="1066.78125" xlink:href="#DejaVuSans-114"/>
     <use x="1107.878906" xlink:href="#DejaVuSans-114"/>
     <use x="1148.960938" xlink:href="#DejaVuSans-111"/>
     <use x="1210.142578" xlink:href="#DejaVuSans-114"/>
     <use x="1251.255859" xlink:href="#DejaVuSans-32"/>
     <use x="1283.042969" xlink:href="#DejaVuSans-119"/>
     <use x="1364.830078" xlink:href="#DejaVuSans-105"/>
     <use x="1392.613281" xlink:href="#DejaVuSans-116"/>
     <use x="1431.822266" xlink:href="#DejaVuSans-104"/>
     <use x="1495.201172" xlink:href="#DejaVuSans-32"/>
     <use x="1526.988281" xlink:href="#DejaVuSans-114"/>
     <use x="1568.070312" xlink:href="#DejaVuSans-101"/>
     <use x="1629.59375" xlink:href="#DejaVuSans-103"/>
     <use x="1693.070312" xlink:href="#DejaVuSans-97"/>
     <use x="1754.349609" xlink:href="#DejaVuSans-114"/>
     <use x="1795.447266" xlink:href="#DejaVuSans-100"/>
     <use x="1858.923828" xlink:href="#DejaVuSans-32"/>
     <use x="1890.710938" xlink:href="#DejaVuSans-116"/>
     <use x="1929.919922" xlink:href="#DejaVuSans-111"/>
     <use x="1991.101562" xlink:href="#DejaVuSans-32"/>
     <use x="2022.888672" xlink:href="#DejaVuSans-109"/>
     <use x="2120.300781" xlink:href="#DejaVuSans-111"/>
     <use x="2181.482422" xlink:href="#DejaVuSans-100"/>
     <use x="2244.958984" xlink:href="#DejaVuSans-97"/>
     <use x="2306.238281" xlink:href="#DejaVuSans-108"/>
     <use x="2334.021484" xlink:href="#DejaVuSans-105"/>
     <use x="2361.804688" xlink:href="#DejaVuSans-116"/>
     <use x="2401.013672" xlink:href="#DejaVuSans-121"/>
     <use x="2460.193359" xlink:href="#DejaVuSans-32"/>
     <use x="2491.980469" xlink:href="#DejaVuSans-100"/>
     <use x="2555.457031" xlink:href="#DejaVuSans-105"/>
     <use x="2583.240234" xlink:href="#DejaVuSans-115"/>
     <use x="2635.339844" xlink:href="#DejaVuSans-116"/>
     <use x="2674.548828" xlink:href="#DejaVuSans-97"/>
     <use x="2735.828125" xlink:href="#DejaVuSans-110"/>
     <use x="2799.207031" xlink:href="#DejaVuSans-99"/>
     <use x="2854.1875" xlink:href="#DejaVuSans-101"/>
    </g>
   </g>
   <g id="legend_1">
    <g id="patch_7">
     <path d="M 781.134375 469.785937 
L 835.4 469.785937 
Q 837.4 469.785937 837.4 467.785937 
L 837.4 248.614062 
Q 837.4 246.614062 835.4 246.614062 
L 781.134375 246.614062 
Q 779.134375 246.614062 779.134375 248.614062 
L 779.134375 467.785937 
Q 779.134375 469.785937 781.134375 469.785937 
z
" style="fill:#ffffff;opacity:0.8;stroke:#cccccc;stroke-linejoin:miter;"/>
    </g>
    <g id="text_19">
     <!-- distance -->
     <g transform="translate(787.080469 258.2125)scale(0.1 -0.1)">
      <use xlink:href="#DejaVuSans-100"/>
      <use x="63.476562" xlink:href="#DejaVuSans-105"/>
      <use x="91.259766" xlink:href="#DejaVuSans-115"/>
      <use x="143.359375" xlink:href="#DejaVuSans-116"/>
      <use x="182.568359" xlink:href="#DejaVuSans-97"/>
      <use x="243.847656" xlink:href="#DejaVuSans-110"/>
      <use x="307.226562" xlink:href="#DejaVuSans-99"/>
      <use x="362.207031" xlink:href="#DejaVuSans-101"/>
     </g>
    </g>
    <g id="line2d_81">
     <path d="M 783.134375 269.390625 
L 803.134375 269.390625 
" style="fill:none;stroke:#000000;stroke-linecap:square;stroke-width:1.5;"/>
    </g>
    <g id="line2d_82"/>
    <g id="text_20">
     <!-- 0.0 -->
     <defs>
      <path d="M 10.6875 12.40625 
L 21 12.40625 
L 21 0 
L 10.6875 0 
z
" id="DejaVuSans-46"/>
     </defs>
     <g transform="translate(811.134375 272.890625)scale(0.1 -0.1)">
      <use xlink:href="#DejaVuSans-48"/>
      <use x="63.623047" xlink:href="#DejaVuSans-46"/>
      <use x="95.410156" xlink:href="#DejaVuSans-48"/>
     </g>
    </g>
    <g id="line2d_83">
     <path d="M 783.134375 284.06875 
L 803.134375 284.06875 
" style="fill:none;stroke:#100000;stroke-linecap:square;stroke-width:1.5;"/>
    </g>
    <g id="line2d_84"/>
    <g id="text_21">
     <!-- 1.0 -->
     <g transform="translate(811.134375 287.56875)scale(0.1 -0.1)">
      <use xlink:href="#DejaVuSans-49"/>
      <use x="63.623047" xlink:href="#DejaVuSans-46"/>
      <use x="95.410156" xlink:href="#DejaVuSans-48"/>
     </g>
    </g>
    <g id="line2d_85">
     <path d="M 783.134375 298.746875 
L 803.134375 298.746875 
" style="fill:none;stroke:#200000;stroke-linecap:square;stroke-width:1.5;"/>
    </g>
    <g id="line2d_86"/>
    <g id="text_22">
     <!-- 2.0 -->
     <g transform="translate(811.134375 302.246875)scale(0.1 -0.1)">
      <use xlink:href="#DejaVuSans-50"/>
      <use x="63.623047" xlink:href="#DejaVuSans-46"/>
      <use x="95.410156" xlink:href="#DejaVuSans-48"/>
     </g>
    </g>
    <g id="line2d_87">
     <path d="M 783.134375 313.425 
L 803.134375 313.425 
" style="fill:none;stroke:#300000;stroke-linecap:square;stroke-width:1.5;"/>
    </g>
    <g id="line2d_88"/>
    <g id="text_23">
     <!-- 3.0 -->
     <g transform="translate(811.134375 316.925)scale(0.1 -0.1)">
      <use xlink:href="#DejaVuSans-51"/>
      <use x="63.623047" xlink:href="#DejaVuSans-46"/>
      <use x="95.410156" xlink:href="#DejaVuSans-48"/>
     </g>
    </g>
    <g id="line2d_89">
     <path d="M 783.134375 328.103125 
L 803.134375 328.103125 
" style="fill:none;stroke:#400000;stroke-linecap:square;stroke-width:1.5;"/>
    </g>
    <g id="line2d_90"/>
    <g id="text_24">
     <!-- 4.0 -->
     <g transform="translate(811.134375 331.603125)scale(0.1 -0.1)">
      <use xlink:href="#DejaVuSans-52"/>
      <use x="63.623047" xlink:href="#DejaVuSans-46"/>
      <use x="95.410156" xlink:href="#DejaVuSans-48"/>
     </g>
    </g>
    <g id="line2d_91">
     <path d="M 783.134375 342.78125 
L 803.134375 342.78125 
" style="fill:none;stroke:#500000;stroke-linecap:square;stroke-width:1.5;"/>
    </g>
    <g id="line2d_92"/>
    <g id="text_25">
     <!-- 5.0 -->
     <g transform="translate(811.134375 346.28125)scale(0.1 -0.1)">
      <use xlink:href="#DejaVuSans-53"/>
      <use x="63.623047" xlink:href="#DejaVuSans-46"/>
      <use x="95.410156" xlink:href="#DejaVuSans-48"/>
     </g>
    </g>
    <g id="line2d_93">
     <path d="M 783.134375 357.459375 
L 803.134375 357.459375 
" style="fill:none;stroke:#600000;stroke-linecap:square;stroke-width:1.5;"/>
    </g>
    <g id="line2d_94"/>
    <g id="text_26">
     <!-- 6.0 -->
     <g transform="translate(811.134375 360.959375)scale(0.1 -0.1)">
      <use xlink:href="#DejaVuSans-54"/>
      <use x="63.623047" xlink:href="#DejaVuSans-46"/>
      <use x="95.410156" xlink:href="#DejaVuSans-48"/>
     </g>
    </g>
    <g id="line2d_95">
     <path d="M 783.134375 372.1375 
L 803.134375 372.1375 
" style="fill:none;stroke:#700000;stroke-linecap:square;stroke-width:1.5;"/>
    </g>
    <g id="line2d_96"/>
    <g id="text_27">
     <!-- 7.0 -->
     <g transform="translate(811.134375 375.6375)scale(0.1 -0.1)">
      <use xlink:href="#DejaVuSans-55"/>
      <use x="63.623047" xlink:href="#DejaVuSans-46"/>
      <use x="95.410156" xlink:href="#DejaVuSans-48"/>
     </g>
    </g>
    <g id="line2d_97">
     <path d="M 783.134375 386.815625 
L 803.134375 386.815625 
" style="fill:none;stroke:#800000;stroke-linecap:square;stroke-width:1.5;"/>
    </g>
    <g id="line2d_98"/>
    <g id="text_28">
     <!-- 8.0 -->
     <defs>
      <path d="M 31.78125 34.625 
Q 24.75 34.625 20.71875 30.859375 
Q 16.703125 27.09375 16.703125 20.515625 
Q 16.703125 13.921875 20.71875 10.15625 
Q 24.75 6.390625 31.78125 6.390625 
Q 38.8125 6.390625 42.859375 10.171875 
Q 46.921875 13.96875 46.921875 20.515625 
Q 46.921875 27.09375 42.890625 30.859375 
Q 38.875 34.625 31.78125 34.625 
z
M 21.921875 38.8125 
Q 15.578125 40.375 12.03125 44.71875 
Q 8.5 49.078125 8.5 55.328125 
Q 8.5 64.0625 14.71875 69.140625 
Q 20.953125 74.21875 31.78125 74.21875 
Q 42.671875 74.21875 48.875 69.140625 
Q 55.078125 64.0625 55.078125 55.328125 
Q 55.078125 49.078125 51.53125 44.71875 
Q 48 40.375 41.703125 38.8125 
Q 48.828125 37.15625 52.796875 32.3125 
Q 56.78125 27.484375 56.78125 20.515625 
Q 56.78125 9.90625 50.3125 4.234375 
Q 43.84375 -1.421875 31.78125 -1.421875 
Q 19.734375 -1.421875 13.25 4.234375 
Q 6.78125 9.90625 6.78125 20.515625 
Q 6.78125 27.484375 10.78125 32.3125 
Q 14.796875 37.15625 21.921875 38.8125 
z
M 18.3125 54.390625 
Q 18.3125 48.734375 21.84375 45.5625 
Q 25.390625 42.390625 31.78125 42.390625 
Q 38.140625 42.390625 41.71875 45.5625 
Q 45.3125 48.734375 45.3125 54.390625 
Q 45.3125 60.0625 41.71875 63.234375 
Q 38.140625 66.40625 31.78125 66.40625 
Q 25.390625 66.40625 21.84375 63.234375 
Q 18.3125 60.0625 18.3125 54.390625 
z
" id="DejaVuSans-56"/>
     </defs>
     <g transform="translate(811.134375 390.315625)scale(0.1 -0.1)">
      <use xlink:href="#DejaVuSans-56"/>
      <use x="63.623047" xlink:href="#DejaVuSans-46"/>
      <use x="95.410156" xlink:href="#DejaVuSans-48"/>
     </g>
    </g>
    <g id="line2d_99">
     <path d="M 783.134375 401.49375 
L 803.134375 401.49375 
" style="fill:none;stroke:#8f0000;stroke-linecap:square;stroke-width:1.5;"/>
    </g>
    <g id="line2d_100"/>
    <g id="text_29">
     <!-- 9.0 -->
     <defs>
      <path d="M 10.984375 1.515625 
L 10.984375 10.5 
Q 14.703125 8.734375 18.5 7.8125 
Q 22.3125 6.890625 25.984375 6.890625 
Q 35.75 6.890625 40.890625 13.453125 
Q 46.046875 20.015625 46.78125 33.40625 
Q 43.953125 29.203125 39.59375 26.953125 
Q 35.25 24.703125 29.984375 24.703125 
Q 19.046875 24.703125 12.671875 31.3125 
Q 6.296875 37.9375 6.296875 49.421875 
Q 6.296875 60.640625 12.9375 67.421875 
Q 19.578125 74.21875 30.609375 74.21875 
Q 43.265625 74.21875 49.921875 64.515625 
Q 56.59375 54.828125 56.59375 36.375 
Q 56.59375 19.140625 48.40625 8.859375 
Q 40.234375 -1.421875 26.421875 -1.421875 
Q 22.703125 -1.421875 18.890625 -0.6875 
Q 15.09375 0.046875 10.984375 1.515625 
z
M 30.609375 32.421875 
Q 37.25 32.421875 41.125 36.953125 
Q 45.015625 41.5 45.015625 49.421875 
Q 45.015625 57.28125 41.125 61.84375 
Q 37.25 66.40625 30.609375 66.40625 
Q 23.96875 66.40625 20.09375 61.84375 
Q 16.21875 57.28125 16.21875 49.421875 
Q 16.21875 41.5 20.09375 36.953125 
Q 23.96875 32.421875 30.609375 32.421875 
z
" id="DejaVuSans-57"/>
     </defs>
     <g transform="translate(811.134375 404.99375)scale(0.1 -0.1)">
      <use xlink:href="#DejaVuSans-57"/>
      <use x="63.623047" xlink:href="#DejaVuSans-46"/>
      <use x="95.410156" xlink:href="#DejaVuSans-48"/>
     </g>
    </g>
    <g id="line2d_101">
     <path d="M 783.134375 416.171875 
L 803.134375 416.171875 
" style="fill:none;stroke:#9f0000;stroke-linecap:square;stroke-width:1.5;"/>
    </g>
    <g id="line2d_102"/>
    <g id="text_30">
     <!-- 10.0 -->
     <g transform="translate(811.134375 419.671875)scale(0.1 -0.1)">
      <use xlink:href="#DejaVuSans-49"/>
      <use x="63.623047" xlink:href="#DejaVuSans-48"/>
      <use x="127.246094" xlink:href="#DejaVuSans-46"/>
      <use x="159.033203" xlink:href="#DejaVuSans-48"/>
     </g>
    </g>
    <g id="line2d_103">
     <path d="M 783.134375 430.85 
L 803.134375 430.85 
" style="fill:none;stroke:#af0000;stroke-linecap:square;stroke-width:1.5;"/>
    </g>
    <g id="line2d_104"/>
    <g id="text_31">
     <!-- 11.0 -->
     <g transform="translate(811.134375 434.35)scale(0.1 -0.1)">
      <use xlink:href="#DejaVuSans-49"/>
      <use x="63.623047" xlink:href="#DejaVuSans-49"/>
      <use x="127.246094" xlink:href="#DejaVuSans-46"/>
      <use x="159.033203" xlink:href="#DejaVuSans-48"/>
     </g>
    </g>
    <g id="line2d_105">
     <path d="M 783.134375 445.528125 
L 803.134375 445.528125 
" style="fill:none;stroke:#bf0000;stroke-linecap:square;stroke-width:1.5;"/>
    </g>
    <g id="line2d_106"/>
    <g id="text_32">
     <!-- 12.0 -->
     <g transform="translate(811.134375 449.028125)scale(0.1 -0.1)">
      <use xlink:href="#DejaVuSans-49"/>
      <use x="63.623047" xlink:href="#DejaVuSans-50"/>
      <use x="127.246094" xlink:href="#DejaVuSans-46"/>
      <use x="159.033203" xlink:href="#DejaVuSans-48"/>
     </g>
    </g>
    <g id="line2d_107">
     <path d="M 783.134375 460.20625 
L 803.134375 460.20625 
" style="fill:none;stroke:#cf0000;stroke-linecap:square;stroke-width:1.5;"/>
    </g>
    <g id="line2d_108"/>
    <g id="text_33">
     <!-- 13.0 -->
     <g transform="translate(811.134375 463.70625)scale(0.1 -0.1)">
      <use xlink:href="#DejaVuSans-49"/>
      <use x="63.623047" xlink:href="#DejaVuSans-51"/>
      <use x="127.246094" xlink:href="#DejaVuSans-46"/>
      <use x="159.033203" xlink:href="#DejaVuSans-48"/>
     </g>
    </g>
   </g>
  </g>
 </g>
 <defs>
  <clipPath id="p2b59cbea97">
   <rect height="543.6" width="725.4" x="117" y="86.4"/>
  </clipPath>
 </defs>
</svg>
